<svg width="18" height="20" viewBox="0 0 18 20" fill="none" xmlns="http://www.w3.org/2000/svg">
<g clip-path="url(#clip0_3934_2737)">
<path d="M14.4766 3.27344C13.5234 2.32031 11.9766 2.32031 11.0234 3.27344L3.83594 10.4609C2.19141 12.1055 2.19141 14.7695 3.83594 16.4141C5.48047 18.0586 8.14453 18.0586 9.78906 16.4141L15.7266 10.4766C16.1523 10.0508 16.8477 10.0508 17.2734 10.4766C17.6992 10.9023 17.6992 11.5977 17.2734 12.0234L11.3359 17.9609C8.83594 20.4609 4.78906 20.4609 2.28906 17.9609C-0.210938 15.4609 -0.210938 11.4141 2.28906 8.91406L9.47656 1.72656C11.2852 -0.0820313 14.2148 -0.0820313 16.0234 1.72656C17.832 3.53516 17.832 6.46484 16.0234 8.27344L9.14844 15.1484C8.03125 16.2656 6.21875 16.2656 5.10156 15.1484C3.98438 14.0312 3.98438 12.2188 5.10156 11.1016L10.7266 5.47656C11.1523 5.05078 11.8477 5.05078 12.2734 5.47656C12.6992 5.90234 12.6992 6.59766 12.2734 7.02344L6.64844 12.6484C6.38672 12.9102 6.38672 13.3398 6.64844 13.6016C6.91016 13.8633 7.33984 13.8633 7.60156 13.6016L14.4766 6.72656C15.4297 5.77344 15.4297 4.22656 14.4766 3.27344Z" fill="white"/>
</g>
<defs>
<clipPath id="clip0_3934_2737">
<rect width="17.5" height="20" fill="white" transform="translate(0.25)"/>
</clipPath>
</defs>
</svg>
