<svg width="524" height="215" viewBox="0 0 524 215" fill="none" xmlns="http://www.w3.org/2000/svg">
<rect width="524" height="215" fill="white"/>
<path d="M22 43H502V179C502 187.837 494.837 195 486 195H38C29.1635 195 22 187.837 22 179V43Z" fill="#F2F2F2"/>
<g opacity="0.5">
<rect x="22" y="43" width="480" height="1" rx="0.5" fill="#C7C7C7"/>
</g>
<path d="M46 100C46 82.3269 60.3269 68 78 68H446C463.673 68 478 82.3269 478 100C478 117.673 463.673 132 446 132H78C60.3269 132 46 117.673 46 100Z" fill="white"/>
<path d="M71.408 106V94.8H72.64V106H71.408ZM74.8469 97.696L75.8069 94H77.0549L75.7589 97.696H74.8469ZM79.0906 106V98.192H80.2586V99.408C80.5573 98.96 80.8986 98.624 81.2826 98.4C81.6666 98.176 82.0986 98.064 82.5786 98.064C83.1333 98.064 83.6186 98.2027 84.0346 98.48C84.4506 98.7467 84.7653 99.1147 84.9786 99.584C85.288 99.0827 85.656 98.704 86.0826 98.448C86.52 98.192 87.0213 98.064 87.5866 98.064C88.1093 98.064 88.568 98.1867 88.9626 98.432C89.368 98.6773 89.6826 99.0187 89.9066 99.456C90.1306 99.8827 90.2426 100.384 90.2426 100.96V106H89.0746V101.248C89.0746 100.565 88.904 100.027 88.5626 99.632C88.2213 99.2373 87.752 99.04 87.1546 99.04C86.7493 99.04 86.3813 99.1413 86.0506 99.344C85.7306 99.5467 85.448 99.856 85.2026 100.272C85.224 100.379 85.24 100.491 85.2506 100.608C85.2613 100.725 85.2666 100.843 85.2666 100.96V106H84.0986V101.248C84.0986 100.565 83.9226 100.027 83.5706 99.632C83.2293 99.2373 82.76 99.04 82.1626 99.04C81.3626 99.04 80.728 99.424 80.2586 100.192V106H79.0906ZM96.3406 106V94.448L97.5086 94.208V106H96.3406ZM103.359 106.128C102.634 106.128 101.983 105.952 101.407 105.6C100.831 105.248 100.378 104.768 100.047 104.16C99.7165 103.552 99.5511 102.864 99.5511 102.096C99.5511 101.328 99.7165 100.64 100.047 100.032C100.378 99.424 100.831 98.944 101.407 98.592C101.983 98.24 102.634 98.064 103.359 98.064C104.074 98.064 104.714 98.24 105.279 98.592C105.855 98.944 106.308 99.424 106.639 100.032C106.97 100.64 107.135 101.328 107.135 102.096C107.135 102.864 106.97 103.552 106.639 104.16C106.308 104.768 105.855 105.248 105.279 105.6C104.714 105.952 104.074 106.128 103.359 106.128ZM103.343 105.104C103.855 105.104 104.308 104.976 104.703 104.72C105.098 104.453 105.407 104.091 105.631 103.632C105.866 103.173 105.983 102.661 105.983 102.096C105.983 101.52 105.866 101.008 105.631 100.56C105.407 100.101 105.098 99.744 104.703 99.488C104.308 99.2213 103.855 99.088 103.343 99.088C102.831 99.088 102.378 99.2213 101.983 99.488C101.588 99.744 101.274 100.101 101.039 100.56C100.815 101.008 100.703 101.52 100.703 102.096C100.703 102.661 100.815 103.173 101.039 103.632C101.274 104.091 101.588 104.453 101.983 104.72C102.378 104.976 102.831 105.104 103.343 105.104ZM112.64 106.128C111.915 106.128 111.264 105.952 110.688 105.6C110.112 105.248 109.659 104.768 109.328 104.16C108.998 103.552 108.832 102.864 108.832 102.096C108.832 101.328 108.998 100.64 109.328 100.032C109.659 99.424 110.112 98.944 110.688 98.592C111.264 98.24 111.915 98.064 112.64 98.064C113.355 98.064 113.995 98.24 114.56 98.592C115.136 98.944 115.59 99.424 115.92 100.032C116.251 100.64 116.416 101.328 116.416 102.096C116.416 102.864 116.251 103.552 115.92 104.16C115.59 104.768 115.136 105.248 114.56 105.6C113.995 105.952 113.355 106.128 112.64 106.128ZM112.624 105.104C113.136 105.104 113.59 104.976 113.984 104.72C114.379 104.453 114.688 104.091 114.912 103.632C115.147 103.173 115.264 102.661 115.264 102.096C115.264 101.52 115.147 101.008 114.912 100.56C114.688 100.101 114.379 99.744 113.984 99.488C113.59 99.2213 113.136 99.088 112.624 99.088C112.112 99.088 111.659 99.2213 111.264 99.488C110.87 99.744 110.555 100.101 110.32 100.56C110.096 101.008 109.984 101.52 109.984 102.096C109.984 102.661 110.096 103.173 110.32 103.632C110.555 104.091 110.87 104.453 111.264 104.72C111.659 104.976 112.112 105.104 112.624 105.104ZM118.466 106V94.448L119.634 94.208V101.696L123.346 98.192H124.754L120.786 101.904L124.93 106H123.394L119.634 102.272V106H118.466ZM126.278 106V98.192H127.446V106H126.278ZM126.87 96.256C126.635 96.256 126.432 96.176 126.262 96.016C126.102 95.8453 126.022 95.648 126.022 95.424C126.022 95.2 126.102 95.008 126.262 94.848C126.432 94.6773 126.635 94.592 126.87 94.592C127.104 94.592 127.302 94.6773 127.462 94.848C127.632 95.008 127.718 95.2 127.718 95.424C127.718 95.648 127.632 95.8453 127.462 96.016C127.302 96.176 127.104 96.256 126.87 96.256ZM129.841 106V98.192H131.009V99.456C131.307 98.9867 131.665 98.64 132.081 98.416C132.497 98.1813 132.966 98.064 133.489 98.064C134.054 98.064 134.545 98.1867 134.961 98.432C135.387 98.6667 135.718 99.0027 135.953 99.44C136.198 99.8667 136.321 100.368 136.321 100.944V106H135.153V101.28C135.153 100.587 134.961 100.043 134.577 99.648C134.203 99.2427 133.697 99.04 133.057 99.04C132.63 99.04 132.241 99.1413 131.889 99.344C131.537 99.5467 131.243 99.8453 131.009 100.24V106H129.841ZM142.285 109.504C141.762 109.504 141.234 109.429 140.701 109.28C140.178 109.141 139.693 108.944 139.245 108.688L139.741 107.792C140.221 108.037 140.658 108.219 141.053 108.336C141.447 108.453 141.842 108.512 142.237 108.512C142.951 108.512 143.49 108.341 143.853 108C144.226 107.659 144.413 107.163 144.413 106.512V104.944C144.114 105.317 143.751 105.605 143.325 105.808C142.898 106 142.429 106.096 141.917 106.096C141.245 106.096 140.637 105.92 140.093 105.568C139.549 105.205 139.117 104.725 138.797 104.128C138.477 103.52 138.317 102.843 138.317 102.096C138.317 101.349 138.477 100.677 138.797 100.08C139.127 99.472 139.57 98.992 140.125 98.64C140.679 98.2773 141.298 98.096 141.981 98.096C142.471 98.096 142.925 98.192 143.341 98.384C143.757 98.5653 144.119 98.8373 144.429 99.2V98.192H145.581V106.496C145.581 107.467 145.298 108.208 144.733 108.72C144.167 109.243 143.351 109.504 142.285 109.504ZM142.205 105.088C142.663 105.088 143.085 104.997 143.469 104.816C143.853 104.624 144.167 104.363 144.413 104.032V100.176C144.157 99.8453 143.831 99.5893 143.437 99.408C143.053 99.216 142.642 99.12 142.205 99.12C141.682 99.12 141.213 99.248 140.797 99.504C140.391 99.76 140.066 100.112 139.821 100.56C139.586 101.008 139.469 101.52 139.469 102.096C139.469 102.661 139.586 103.173 139.821 103.632C140.066 104.08 140.391 104.437 140.797 104.704C141.213 104.96 141.682 105.088 142.205 105.088ZM152.708 106V99.152H150.964V98.192H152.708V96.56C152.708 95.792 152.91 95.2 153.316 94.784C153.721 94.368 154.297 94.16 155.044 94.16C155.257 94.16 155.449 94.1707 155.62 94.192C155.801 94.2133 155.961 94.2507 156.1 94.304V95.36C155.929 95.3067 155.774 95.2693 155.636 95.248C155.497 95.2267 155.337 95.216 155.156 95.216C154.708 95.216 154.382 95.328 154.18 95.552C153.977 95.7653 153.876 96.1067 153.876 96.576V98.192H156.1V99.152H153.876V106H152.708ZM160.765 106.128C160.04 106.128 159.389 105.952 158.813 105.6C158.237 105.248 157.784 104.768 157.453 104.16C157.123 103.552 156.957 102.864 156.957 102.096C156.957 101.328 157.123 100.64 157.453 100.032C157.784 99.424 158.237 98.944 158.813 98.592C159.389 98.24 160.04 98.064 160.765 98.064C161.48 98.064 162.12 98.24 162.685 98.592C163.261 98.944 163.715 99.424 164.045 100.032C164.376 100.64 164.541 101.328 164.541 102.096C164.541 102.864 164.376 103.552 164.045 104.16C163.715 104.768 163.261 105.248 162.685 105.6C162.12 105.952 161.48 106.128 160.765 106.128ZM160.749 105.104C161.261 105.104 161.715 104.976 162.109 104.72C162.504 104.453 162.813 104.091 163.037 103.632C163.272 103.173 163.389 102.661 163.389 102.096C163.389 101.52 163.272 101.008 163.037 100.56C162.813 100.101 162.504 99.744 162.109 99.488C161.715 99.2213 161.261 99.088 160.749 99.088C160.237 99.088 159.784 99.2213 159.389 99.488C158.995 99.744 158.68 100.101 158.445 100.56C158.221 101.008 158.109 101.52 158.109 102.096C158.109 102.661 158.221 103.173 158.445 103.632C158.68 104.091 158.995 104.453 159.389 104.72C159.784 104.976 160.237 105.104 160.749 105.104ZM166.591 106V98.192H167.759V99.792C167.961 99.248 168.249 98.8267 168.623 98.528C169.007 98.2187 169.444 98.064 169.935 98.064C170.073 98.064 170.201 98.0747 170.319 98.096C170.436 98.1067 170.553 98.1333 170.671 98.176V99.232C170.543 99.1893 170.404 99.1573 170.255 99.136C170.116 99.104 169.983 99.088 169.855 99.088C169.375 99.088 168.953 99.2267 168.591 99.504C168.239 99.7813 167.961 100.171 167.759 100.672V106H166.591ZM175.95 106V94.448L177.118 94.208V99.456C177.417 98.9867 177.774 98.64 178.19 98.416C178.606 98.1813 179.075 98.064 179.598 98.064C180.163 98.064 180.654 98.1867 181.07 98.432C181.497 98.6667 181.827 99.0027 182.062 99.44C182.307 99.8667 182.43 100.368 182.43 100.944V106H181.262V101.28C181.262 100.587 181.07 100.043 180.686 99.648C180.313 99.2427 179.806 99.04 179.166 99.04C178.739 99.04 178.35 99.1413 177.998 99.344C177.646 99.5467 177.353 99.8453 177.118 100.24V106H175.95ZM188.298 106.16C187.573 106.16 186.917 105.984 186.33 105.632C185.743 105.269 185.279 104.784 184.938 104.176C184.597 103.557 184.426 102.864 184.426 102.096C184.426 101.328 184.586 100.64 184.906 100.032C185.237 99.424 185.679 98.944 186.234 98.592C186.789 98.24 187.407 98.064 188.09 98.064C188.783 98.064 189.397 98.24 189.93 98.592C190.474 98.9333 190.901 99.4027 191.21 100C191.53 100.587 191.69 101.253 191.69 102V102.352H185.562C185.605 102.885 185.749 103.365 185.994 103.792C186.25 104.208 186.581 104.539 186.986 104.784C187.402 105.019 187.855 105.136 188.346 105.136C188.751 105.136 189.141 105.067 189.514 104.928C189.898 104.779 190.223 104.581 190.49 104.336L191.226 105.12C190.778 105.472 190.314 105.733 189.834 105.904C189.354 106.075 188.842 106.16 188.298 106.16ZM185.594 101.52H190.538C190.485 101.051 190.341 100.635 190.106 100.272C189.882 99.8987 189.594 99.6053 189.242 99.392C188.901 99.1787 188.517 99.072 188.09 99.072C187.663 99.072 187.274 99.1787 186.922 99.392C186.57 99.5947 186.277 99.8827 186.042 100.256C185.818 100.619 185.669 101.04 185.594 101.52ZM193.684 106V94.448L194.852 94.208V106H193.684ZM197.247 109.344V98.192H198.399V99.312C198.698 98.9173 199.06 98.6187 199.487 98.416C199.924 98.2027 200.404 98.096 200.927 98.096C201.61 98.096 202.218 98.2773 202.751 98.64C203.295 98.992 203.727 99.472 204.047 100.08C204.367 100.677 204.527 101.349 204.527 102.096C204.527 102.843 204.362 103.52 204.031 104.128C203.711 104.736 203.274 105.221 202.719 105.584C202.175 105.936 201.556 106.112 200.863 106.112C200.372 106.112 199.919 106.021 199.503 105.84C199.087 105.648 198.724 105.376 198.415 105.024V109.344H197.247ZM200.639 105.104C201.162 105.104 201.626 104.976 202.031 104.72C202.447 104.453 202.772 104.096 203.007 103.648C203.252 103.189 203.375 102.677 203.375 102.112C203.375 101.536 203.252 101.024 203.007 100.576C202.772 100.128 202.447 99.776 202.031 99.52C201.626 99.2533 201.162 99.12 200.639 99.12C200.18 99.12 199.754 99.216 199.359 99.408C198.975 99.5893 198.66 99.8507 198.415 100.192V104.016C198.671 104.357 198.991 104.624 199.375 104.816C199.77 105.008 200.191 105.104 200.639 105.104ZM211.701 106L209.557 98.192H210.693L212.325 104.432L214.197 98.192H215.237L217.109 104.432L218.725 98.192H219.829L217.701 106H216.565L214.709 99.696L212.853 106H211.701ZM221.465 106V98.192H222.633V106H221.465ZM222.057 96.256C221.823 96.256 221.62 96.176 221.449 96.016C221.289 95.8453 221.209 95.648 221.209 95.424C221.209 95.2 221.289 95.008 221.449 94.848C221.62 94.6773 221.823 94.592 222.057 94.592C222.292 94.592 222.489 94.6773 222.649 94.848C222.82 95.008 222.905 95.2 222.905 95.424C222.905 95.648 222.82 95.8453 222.649 96.016C222.489 96.176 222.292 96.256 222.057 96.256ZM228.004 106.16C227.332 106.16 226.82 106 226.468 105.68C226.127 105.349 225.956 104.875 225.956 104.256V99.152H224.34V98.192H225.956V96.048L227.124 95.776V98.192H229.364V99.152H227.124V103.952C227.124 104.368 227.209 104.667 227.38 104.848C227.561 105.029 227.855 105.12 228.26 105.12C228.463 105.12 228.644 105.104 228.804 105.072C228.964 105.04 229.151 104.987 229.364 104.912V105.952C229.151 106.027 228.927 106.08 228.692 106.112C228.457 106.144 228.228 106.16 228.004 106.16ZM231.075 106V94.448L232.243 94.208V99.456C232.542 98.9867 232.899 98.64 233.315 98.416C233.731 98.1813 234.2 98.064 234.723 98.064C235.288 98.064 235.779 98.1867 236.195 98.432C236.622 98.6667 236.952 99.0027 237.187 99.44C237.432 99.8667 237.555 100.368 237.555 100.944V106H236.387V101.28C236.387 100.587 236.195 100.043 235.811 99.648C235.438 99.2427 234.931 99.04 234.291 99.04C233.864 99.04 233.475 99.1413 233.123 99.344C232.771 99.5467 232.478 99.8453 232.243 100.24V106H231.075ZM240.703 106.128C240.468 106.128 240.266 106.043 240.095 105.872C239.935 105.701 239.855 105.499 239.855 105.264C239.855 105.019 239.935 104.816 240.095 104.656C240.266 104.485 240.468 104.4 240.703 104.4C240.938 104.4 241.135 104.485 241.295 104.656C241.466 104.816 241.551 105.019 241.551 105.264C241.551 105.499 241.466 105.701 241.295 105.872C241.135 106.043 240.938 106.128 240.703 106.128ZM244.703 106.128C244.468 106.128 244.266 106.043 244.095 105.872C243.935 105.701 243.855 105.499 243.855 105.264C243.855 105.019 243.935 104.816 244.095 104.656C244.266 104.485 244.468 104.4 244.703 104.4C244.938 104.4 245.135 104.485 245.295 104.656C245.466 104.816 245.551 105.019 245.551 105.264C245.551 105.499 245.466 105.701 245.295 105.872C245.135 106.043 244.938 106.128 244.703 106.128Z" fill="#4D4D4D"/>
<path d="M323.063 92.9033C322.109 91.9502 320.562 91.9502 319.609 92.9033L312.422 100.091C310.777 101.735 310.777 104.399 312.422 106.044C314.066 107.688 316.73 107.688 318.375 106.044L324.313 100.106C324.738 99.6807 325.434 99.6807 325.859 100.106C326.285 100.532 326.285 101.228 325.859 101.653L319.922 107.591C317.422 110.091 313.375 110.091 310.875 107.591C308.375 105.091 308.375 101.044 310.875 98.5439L318.063 91.3564C319.871 89.5479 322.801 89.5479 324.609 91.3564C326.418 93.165 326.418 96.0947 324.609 97.9033L317.734 104.778C316.617 105.896 314.805 105.896 313.688 104.778C312.57 103.661 312.57 101.849 313.688 100.731L319.313 95.1064C319.738 94.6807 320.434 94.6807 320.859 95.1064C321.285 95.5322 321.285 96.2275 320.859 96.6533L315.234 102.278C314.973 102.54 314.973 102.97 315.234 103.231C315.496 103.493 315.926 103.493 316.188 103.231L323.063 96.3564C324.016 95.4033 324.016 93.8564 323.063 92.9033Z" fill="#1F1F1F"/>
<path d="M382 90C379.93 90 378.25 91.6797 378.25 93.75V100C378.25 102.07 379.93 103.75 382 103.75C384.07 103.75 385.75 102.07 385.75 100V93.75C385.75 91.6797 384.07 90 382 90ZM377 98.4375C377 97.918 376.582 97.5 376.062 97.5C375.543 97.5 375.125 97.918 375.125 98.4375V100C375.125 103.48 377.711 106.355 381.062 106.812V108.125H379.188C378.668 108.125 378.25 108.543 378.25 109.062C378.25 109.582 378.668 110 379.188 110H382H384.812C385.332 110 385.75 109.582 385.75 109.062C385.75 108.543 385.332 108.125 384.812 108.125H382.938V106.812C386.289 106.355 388.875 103.48 388.875 100V98.4375C388.875 97.918 388.457 97.5 387.938 97.5C387.418 97.5 387 97.918 387 98.4375V100C387 102.762 384.762 105 382 105C379.238 105 377 102.762 377 100V98.4375Z" fill="#1F1F1F"/>
<path d="M455.458 90.2168C455.852 90.4903 456.059 90.9629 455.985 91.4356L453.485 107.686C453.426 108.064 453.196 108.397 452.86 108.584C452.524 108.772 452.122 108.795 451.766 108.647L447.094 106.705L444.419 109.6C444.071 109.979 443.524 110.104 443.044 109.916C442.563 109.729 442.251 109.264 442.251 108.748V105.482C442.251 105.326 442.309 105.178 442.415 105.064L448.962 97.9199C449.188 97.6739 449.18 97.2949 448.946 97.0606C448.712 96.8262 448.333 96.8106 448.087 97.0332L440.141 104.092L436.692 102.365C436.278 102.158 436.012 101.744 436.001 101.283C435.989 100.822 436.231 100.393 436.629 100.162L454.129 90.1621C454.547 89.9239 455.063 89.9473 455.458 90.2168Z" fill="#0066CC"/>
<path d="M143.068 167.5V159.1H143.992V166.684H148.732V167.5H143.068ZM150.177 167.5V161.644H151.053V167.5H150.177ZM150.621 160.192C150.445 160.192 150.293 160.132 150.165 160.012C150.045 159.884 149.985 159.736 149.985 159.568C149.985 159.4 150.045 159.256 150.165 159.136C150.293 159.008 150.445 158.944 150.621 158.944C150.797 158.944 150.945 159.008 151.065 159.136C151.193 159.256 151.257 159.4 151.257 159.568C151.257 159.736 151.193 159.884 151.065 160.012C150.945 160.132 150.797 160.192 150.621 160.192ZM155.561 170.128C155.169 170.128 154.773 170.072 154.373 169.96C153.981 169.856 153.617 169.708 153.281 169.516L153.653 168.844C154.013 169.028 154.341 169.164 154.637 169.252C154.933 169.34 155.229 169.384 155.525 169.384C156.061 169.384 156.465 169.256 156.737 169C157.017 168.744 157.157 168.372 157.157 167.884V166.708C156.933 166.988 156.661 167.204 156.341 167.356C156.021 167.5 155.669 167.572 155.285 167.572C154.781 167.572 154.325 167.44 153.917 167.176C153.509 166.904 153.185 166.544 152.945 166.096C152.705 165.64 152.585 165.132 152.585 164.572C152.585 164.012 152.705 163.508 152.945 163.06C153.193 162.604 153.525 162.244 153.941 161.98C154.357 161.708 154.821 161.572 155.333 161.572C155.701 161.572 156.041 161.644 156.353 161.788C156.665 161.924 156.937 162.128 157.169 162.4V161.644H158.033V167.872C158.033 168.6 157.821 169.156 157.397 169.54C156.973 169.932 156.361 170.128 155.561 170.128ZM155.501 166.816C155.845 166.816 156.161 166.748 156.449 166.612C156.737 166.468 156.973 166.272 157.157 166.024V163.132C156.965 162.884 156.721 162.692 156.425 162.556C156.137 162.412 155.829 162.34 155.501 162.34C155.109 162.34 154.757 162.436 154.445 162.628C154.141 162.82 153.897 163.084 153.713 163.42C153.537 163.756 153.449 164.14 153.449 164.572C153.449 164.996 153.537 165.38 153.713 165.724C153.897 166.06 154.141 166.328 154.445 166.528C154.757 166.72 155.109 166.816 155.501 166.816ZM159.834 167.5V158.836L160.71 158.656V162.592C160.934 162.24 161.202 161.98 161.514 161.812C161.826 161.636 162.178 161.548 162.57 161.548C162.994 161.548 163.362 161.64 163.674 161.824C163.994 162 164.242 162.252 164.418 162.58C164.602 162.9 164.694 163.276 164.694 163.708V167.5H163.818V163.96C163.818 163.44 163.674 163.032 163.386 162.736C163.106 162.432 162.726 162.28 162.246 162.28C161.926 162.28 161.634 162.356 161.37 162.508C161.106 162.66 160.886 162.884 160.71 163.18V167.5H159.834ZM168.511 167.62C168.007 167.62 167.623 167.5 167.359 167.26C167.103 167.012 166.975 166.656 166.975 166.192V162.364H165.763V161.644H166.975V160.036L167.851 159.832V161.644H169.531V162.364H167.851V165.964C167.851 166.276 167.915 166.5 168.043 166.636C168.179 166.772 168.399 166.84 168.703 166.84C168.855 166.84 168.991 166.828 169.111 166.804C169.231 166.78 169.371 166.74 169.531 166.684V167.464C169.371 167.52 169.203 167.56 169.027 167.584C168.851 167.608 168.679 167.62 168.511 167.62ZM172.743 167.62C172.263 167.62 171.819 167.548 171.411 167.404C171.003 167.252 170.655 167.036 170.367 166.756L170.835 166.18C171.187 166.436 171.511 166.624 171.807 166.744C172.103 166.856 172.407 166.912 172.719 166.912C173.143 166.912 173.495 166.812 173.775 166.612C174.055 166.412 174.195 166.156 174.195 165.844C174.195 165.604 174.111 165.416 173.943 165.28C173.783 165.144 173.515 165.04 173.139 164.968L172.179 164.8C171.611 164.696 171.191 164.52 170.919 164.272C170.655 164.024 170.523 163.688 170.523 163.264C170.523 162.928 170.611 162.632 170.787 162.376C170.971 162.12 171.223 161.92 171.543 161.776C171.863 161.624 172.227 161.548 172.635 161.548C173.035 161.548 173.415 161.608 173.775 161.728C174.135 161.84 174.499 162.024 174.867 162.28L174.435 162.892C174.131 162.676 173.827 162.52 173.523 162.424C173.219 162.32 172.911 162.268 172.599 162.268C172.215 162.268 171.907 162.352 171.675 162.52C171.443 162.688 171.327 162.916 171.327 163.204C171.327 163.444 171.399 163.628 171.543 163.756C171.695 163.884 171.959 163.98 172.335 164.044L173.319 164.224C173.911 164.328 174.343 164.508 174.615 164.764C174.887 165.02 175.023 165.364 175.023 165.796C175.023 166.14 174.923 166.452 174.723 166.732C174.523 167.004 174.251 167.22 173.907 167.38C173.563 167.54 173.175 167.62 172.743 167.62ZM176.357 170.008V161.644H177.221V162.484C177.445 162.188 177.717 161.964 178.037 161.812C178.365 161.652 178.725 161.572 179.117 161.572C179.629 161.572 180.085 161.708 180.485 161.98C180.893 162.244 181.217 162.604 181.457 163.06C181.697 163.508 181.817 164.012 181.817 164.572C181.817 165.132 181.693 165.64 181.445 166.096C181.205 166.552 180.877 166.916 180.461 167.188C180.053 167.452 179.589 167.584 179.069 167.584C178.701 167.584 178.361 167.516 178.049 167.38C177.737 167.236 177.465 167.032 177.233 166.768V170.008H176.357ZM178.901 166.828C179.293 166.828 179.641 166.732 179.945 166.54C180.257 166.34 180.501 166.072 180.677 165.736C180.861 165.392 180.953 165.008 180.953 164.584C180.953 164.152 180.861 163.768 180.677 163.432C180.501 163.096 180.257 162.832 179.945 162.64C179.641 162.44 179.293 162.34 178.901 162.34C178.557 162.34 178.237 162.412 177.941 162.556C177.653 162.692 177.417 162.888 177.233 163.144V166.012C177.425 166.268 177.665 166.468 177.953 166.612C178.249 166.756 178.565 166.828 178.901 166.828ZM185.993 167.62C185.449 167.62 184.957 167.488 184.517 167.224C184.077 166.952 183.729 166.588 183.473 166.132C183.217 165.668 183.089 165.148 183.089 164.572C183.089 163.996 183.209 163.48 183.449 163.024C183.697 162.568 184.029 162.208 184.445 161.944C184.861 161.68 185.325 161.548 185.837 161.548C186.357 161.548 186.817 161.68 187.217 161.944C187.625 162.2 187.945 162.552 188.177 163C188.417 163.44 188.537 163.94 188.537 164.5V164.764H183.941C183.973 165.164 184.081 165.524 184.265 165.844C184.457 166.156 184.705 166.404 185.009 166.588C185.321 166.764 185.661 166.852 186.029 166.852C186.333 166.852 186.625 166.8 186.905 166.696C187.193 166.584 187.437 166.436 187.637 166.252L188.189 166.84C187.853 167.104 187.505 167.3 187.145 167.428C186.785 167.556 186.401 167.62 185.993 167.62ZM183.965 164.14H187.673C187.633 163.788 187.525 163.476 187.349 163.204C187.181 162.924 186.965 162.704 186.701 162.544C186.445 162.384 186.157 162.304 185.837 162.304C185.517 162.304 185.225 162.384 184.961 162.544C184.697 162.696 184.477 162.912 184.301 163.192C184.133 163.464 184.021 163.78 183.965 164.14ZM192.673 167.62C192.129 167.62 191.637 167.488 191.197 167.224C190.757 166.952 190.409 166.588 190.153 166.132C189.897 165.668 189.769 165.148 189.769 164.572C189.769 163.996 189.889 163.48 190.129 163.024C190.377 162.568 190.709 162.208 191.125 161.944C191.541 161.68 192.005 161.548 192.517 161.548C193.037 161.548 193.497 161.68 193.897 161.944C194.305 162.2 194.625 162.552 194.857 163C195.097 163.44 195.217 163.94 195.217 164.5V164.764H190.621C190.653 165.164 190.761 165.524 190.945 165.844C191.137 166.156 191.385 166.404 191.689 166.588C192.001 166.764 192.341 166.852 192.709 166.852C193.013 166.852 193.305 166.8 193.585 166.696C193.873 166.584 194.117 166.436 194.317 166.252L194.869 166.84C194.533 167.104 194.185 167.3 193.825 167.428C193.465 167.556 193.081 167.62 192.673 167.62ZM190.645 164.14H194.353C194.313 163.788 194.205 163.476 194.029 163.204C193.861 162.924 193.645 162.704 193.381 162.544C193.125 162.384 192.837 162.304 192.517 162.304C192.197 162.304 191.905 162.384 191.641 162.544C191.377 162.696 191.157 162.912 190.981 163.192C190.813 163.464 190.701 163.78 190.645 164.14ZM199.149 167.584C198.645 167.584 198.189 167.452 197.781 167.188C197.373 166.916 197.049 166.556 196.809 166.108C196.569 165.652 196.449 165.144 196.449 164.584C196.449 164.016 196.569 163.508 196.809 163.06C197.057 162.604 197.389 162.244 197.805 161.98C198.221 161.708 198.685 161.572 199.197 161.572C199.557 161.572 199.893 161.644 200.205 161.788C200.517 161.924 200.789 162.124 201.021 162.388V158.836L201.897 158.656V167.5H201.021V166.72C200.797 167 200.525 167.216 200.205 167.368C199.885 167.512 199.533 167.584 199.149 167.584ZM199.365 166.816C199.709 166.816 200.025 166.748 200.313 166.612C200.601 166.476 200.837 166.284 201.021 166.036V163.132C200.829 162.884 200.585 162.692 200.289 162.556C200.001 162.412 199.693 162.34 199.365 162.34C198.973 162.34 198.621 162.436 198.309 162.628C198.005 162.82 197.761 163.084 197.576 163.42C197.4 163.756 197.312 164.14 197.312 164.572C197.312 164.996 197.4 165.38 197.576 165.724C197.761 166.06 198.005 166.328 198.309 166.528C198.621 166.72 198.973 166.816 199.365 166.816ZM208.586 167.596C208.17 167.596 207.802 167.504 207.482 167.32C207.162 167.136 206.91 166.88 206.726 166.552C206.55 166.224 206.462 165.848 206.462 165.424V161.644H207.35V165.172C207.35 165.692 207.49 166.104 207.77 166.408C208.05 166.712 208.43 166.864 208.91 166.864C209.238 166.864 209.53 166.788 209.786 166.636C210.05 166.484 210.27 166.264 210.446 165.976V161.644H211.322V167.5H210.446V166.552C210.222 166.896 209.954 167.156 209.642 167.332C209.338 167.508 208.986 167.596 208.586 167.596ZM214.931 167.62C214.451 167.62 214.007 167.548 213.599 167.404C213.191 167.252 212.843 167.036 212.555 166.756L213.023 166.18C213.375 166.436 213.699 166.624 213.995 166.744C214.291 166.856 214.595 166.912 214.907 166.912C215.331 166.912 215.683 166.812 215.963 166.612C216.243 166.412 216.383 166.156 216.383 165.844C216.383 165.604 216.299 165.416 216.131 165.28C215.971 165.144 215.703 165.04 215.327 164.968L214.367 164.8C213.799 164.696 213.379 164.52 213.107 164.272C212.843 164.024 212.711 163.688 212.711 163.264C212.711 162.928 212.799 162.632 212.975 162.376C213.159 162.12 213.411 161.92 213.731 161.776C214.051 161.624 214.415 161.548 214.823 161.548C215.223 161.548 215.603 161.608 215.963 161.728C216.323 161.84 216.687 162.024 217.055 162.28L216.623 162.892C216.319 162.676 216.015 162.52 215.711 162.424C215.407 162.32 215.099 162.268 214.787 162.268C214.403 162.268 214.095 162.352 213.863 162.52C213.631 162.688 213.515 162.916 213.515 163.204C213.515 163.444 213.587 163.628 213.731 163.756C213.883 163.884 214.147 163.98 214.523 164.044L215.507 164.224C216.099 164.328 216.531 164.508 216.803 164.764C217.075 165.02 217.211 165.364 217.211 165.796C217.211 166.14 217.111 166.452 216.911 166.732C216.711 167.004 216.439 167.22 216.095 167.38C215.751 167.54 215.363 167.62 214.931 167.62ZM221.243 167.62C220.699 167.62 220.207 167.488 219.767 167.224C219.327 166.952 218.979 166.588 218.723 166.132C218.467 165.668 218.339 165.148 218.339 164.572C218.339 163.996 218.459 163.48 218.699 163.024C218.947 162.568 219.279 162.208 219.695 161.944C220.111 161.68 220.575 161.548 221.087 161.548C221.607 161.548 222.067 161.68 222.467 161.944C222.875 162.2 223.195 162.552 223.427 163C223.667 163.44 223.787 163.94 223.787 164.5V164.764H219.191C219.223 165.164 219.331 165.524 219.515 165.844C219.707 166.156 219.955 166.404 220.259 166.588C220.571 166.764 220.911 166.852 221.279 166.852C221.583 166.852 221.875 166.8 222.155 166.696C222.443 166.584 222.687 166.436 222.887 166.252L223.439 166.84C223.103 167.104 222.755 167.3 222.395 167.428C222.035 167.556 221.651 167.62 221.243 167.62ZM219.215 164.14H222.923C222.883 163.788 222.775 163.476 222.599 163.204C222.431 162.924 222.215 162.704 221.951 162.544C221.695 162.384 221.407 162.304 221.087 162.304C220.767 162.304 220.475 162.384 220.211 162.544C219.947 162.696 219.727 162.912 219.551 163.192C219.383 163.464 219.271 163.78 219.215 164.14ZM227.153 167.62C226.673 167.62 226.229 167.548 225.821 167.404C225.413 167.252 225.065 167.036 224.777 166.756L225.245 166.18C225.597 166.436 225.921 166.624 226.217 166.744C226.513 166.856 226.817 166.912 227.129 166.912C227.553 166.912 227.905 166.812 228.185 166.612C228.465 166.412 228.605 166.156 228.605 165.844C228.605 165.604 228.521 165.416 228.353 165.28C228.193 165.144 227.925 165.04 227.549 164.968L226.589 164.8C226.021 164.696 225.601 164.52 225.329 164.272C225.065 164.024 224.933 163.688 224.933 163.264C224.933 162.928 225.021 162.632 225.197 162.376C225.381 162.12 225.633 161.92 225.953 161.776C226.273 161.624 226.637 161.548 227.045 161.548C227.445 161.548 227.825 161.608 228.185 161.728C228.545 161.84 228.909 162.024 229.277 162.28L228.845 162.892C228.541 162.676 228.237 162.52 227.933 162.424C227.629 162.32 227.321 162.268 227.009 162.268C226.625 162.268 226.317 162.352 226.085 162.52C225.853 162.688 225.737 162.916 225.737 163.204C225.737 163.444 225.809 163.628 225.953 163.756C226.105 163.884 226.369 163.98 226.745 164.044L227.729 164.224C228.321 164.328 228.753 164.508 229.025 164.764C229.297 165.02 229.433 165.364 229.433 165.796C229.433 166.14 229.333 166.452 229.133 166.732C228.933 167.004 228.661 167.22 228.317 167.38C227.973 167.54 227.585 167.62 227.153 167.62ZM232.776 167.5L236.1 159.1H237.204L240.48 167.5H239.484L238.488 164.86H234.744L233.748 167.5H232.776ZM235.032 164.128H238.212L236.616 159.94L235.032 164.128ZM241.646 167.5V159.1H242.57V167.5H241.646ZM245.125 167.596C244.949 167.596 244.797 167.532 244.669 167.404C244.549 167.276 244.489 167.124 244.489 166.948C244.489 166.764 244.549 166.612 244.669 166.492C244.797 166.364 244.949 166.3 245.125 166.3C245.301 166.3 245.449 166.364 245.569 166.492C245.697 166.612 245.761 166.764 245.761 166.948C245.761 167.124 245.697 167.276 245.569 167.404C245.449 167.532 245.301 167.596 245.125 167.596ZM254.37 167.632C253.77 167.632 253.21 167.524 252.69 167.308C252.178 167.084 251.726 166.776 251.334 166.384C250.942 165.984 250.638 165.524 250.422 165.004C250.206 164.476 250.098 163.908 250.098 163.3C250.098 162.692 250.206 162.128 250.422 161.608C250.638 161.08 250.942 160.62 251.334 160.228C251.726 159.828 252.178 159.52 252.69 159.304C253.21 159.08 253.77 158.968 254.37 158.968C254.786 158.968 255.182 159.024 255.558 159.136C255.942 159.24 256.302 159.396 256.638 159.604C256.974 159.804 257.274 160.052 257.538 160.348L256.926 160.984C256.614 160.608 256.23 160.32 255.774 160.12C255.326 159.912 254.858 159.808 254.37 159.808C253.898 159.808 253.458 159.896 253.05 160.072C252.642 160.248 252.286 160.496 251.982 160.816C251.686 161.136 251.454 161.508 251.286 161.932C251.118 162.348 251.034 162.804 251.034 163.3C251.034 163.788 251.118 164.244 251.286 164.668C251.454 165.092 251.686 165.464 251.982 165.784C252.286 166.104 252.642 166.352 253.05 166.528C253.458 166.704 253.898 166.792 254.37 166.792C254.858 166.792 255.326 166.688 255.774 166.48C256.23 166.272 256.614 165.984 256.926 165.616L257.538 166.252C257.274 166.548 256.974 166.8 256.638 167.008C256.302 167.208 255.942 167.364 255.558 167.476C255.182 167.58 254.786 167.632 254.37 167.632ZM259.033 167.5V158.836L259.909 158.656V162.592C260.133 162.24 260.401 161.98 260.713 161.812C261.025 161.636 261.377 161.548 261.769 161.548C262.193 161.548 262.561 161.64 262.873 161.824C263.193 162 263.441 162.252 263.617 162.58C263.801 162.9 263.893 163.276 263.893 163.708V167.5H263.017V163.96C263.017 163.44 262.873 163.032 262.585 162.736C262.305 162.432 261.925 162.28 261.445 162.28C261.125 162.28 260.833 162.356 260.569 162.508C260.305 162.66 260.085 162.884 259.909 163.18V167.5H259.033ZM268.294 167.62C267.75 167.62 267.258 167.488 266.818 167.224C266.378 166.952 266.03 166.588 265.774 166.132C265.518 165.668 265.39 165.148 265.39 164.572C265.39 163.996 265.51 163.48 265.75 163.024C265.998 162.568 266.33 162.208 266.746 161.944C267.162 161.68 267.626 161.548 268.138 161.548C268.658 161.548 269.118 161.68 269.518 161.944C269.926 162.2 270.246 162.552 270.478 163C270.718 163.44 270.838 163.94 270.838 164.5V164.764H266.242C266.274 165.164 266.382 165.524 266.566 165.844C266.758 166.156 267.006 166.404 267.31 166.588C267.622 166.764 267.962 166.852 268.33 166.852C268.634 166.852 268.926 166.8 269.206 166.696C269.494 166.584 269.738 166.436 269.938 166.252L270.49 166.84C270.154 167.104 269.806 167.3 269.446 167.428C269.086 167.556 268.702 167.62 268.294 167.62ZM266.266 164.14H269.974C269.934 163.788 269.826 163.476 269.65 163.204C269.482 162.924 269.266 162.704 269.002 162.544C268.746 162.384 268.458 162.304 268.138 162.304C267.818 162.304 267.526 162.384 267.262 162.544C266.998 162.696 266.778 162.912 266.602 163.192C266.434 163.464 266.322 163.78 266.266 164.14ZM274.962 167.596C274.418 167.596 273.926 167.464 273.486 167.2C273.054 166.928 272.71 166.564 272.454 166.108C272.198 165.644 272.07 165.132 272.07 164.572C272.07 164.004 272.198 163.492 272.454 163.036C272.71 162.58 273.054 162.22 273.486 161.956C273.926 161.684 274.418 161.548 274.962 161.548C275.394 161.548 275.806 161.628 276.198 161.788C276.59 161.948 276.93 162.172 277.218 162.46L276.654 163.072C276.446 162.84 276.194 162.66 275.898 162.532C275.602 162.404 275.302 162.34 274.998 162.34C274.614 162.34 274.266 162.44 273.954 162.64C273.65 162.84 273.406 163.108 273.222 163.444C273.038 163.78 272.946 164.156 272.946 164.572C272.946 164.988 273.038 165.364 273.222 165.7C273.406 166.036 273.65 166.304 273.954 166.504C274.266 166.704 274.614 166.804 274.998 166.804C275.302 166.804 275.602 166.74 275.898 166.612C276.194 166.476 276.446 166.296 276.654 166.072L277.218 166.684C276.93 166.972 276.59 167.196 276.198 167.356C275.806 167.516 275.394 167.596 274.962 167.596ZM278.439 167.5V158.836L279.315 158.656V164.272L282.099 161.644H283.155L280.179 164.428L283.287 167.5H282.135L279.315 164.704V167.5H278.439ZM287.855 167.5V162.364H286.547V161.644H287.855V160.42C287.855 159.844 288.007 159.4 288.311 159.088C288.615 158.776 289.047 158.62 289.607 158.62C289.767 158.62 289.911 158.628 290.039 158.644C290.175 158.66 290.295 158.688 290.399 158.728V159.52C290.271 159.48 290.155 159.452 290.051 159.436C289.947 159.42 289.827 159.412 289.691 159.412C289.355 159.412 289.111 159.496 288.959 159.664C288.807 159.824 288.731 160.08 288.731 160.432V161.644H290.399V162.364H288.731V167.5H287.855ZM293.898 167.596C293.354 167.596 292.866 167.464 292.434 167.2C292.002 166.936 291.662 166.576 291.414 166.12C291.166 165.664 291.042 165.148 291.042 164.572C291.042 163.996 291.166 163.48 291.414 163.024C291.662 162.568 292.002 162.208 292.434 161.944C292.866 161.68 293.354 161.548 293.898 161.548C294.434 161.548 294.914 161.68 295.338 161.944C295.77 162.208 296.11 162.568 296.358 163.024C296.606 163.48 296.73 163.996 296.73 164.572C296.73 165.148 296.606 165.664 296.358 166.12C296.11 166.576 295.77 166.936 295.338 167.2C294.914 167.464 294.434 167.596 293.898 167.596ZM293.886 166.828C294.27 166.828 294.61 166.732 294.906 166.54C295.202 166.34 295.434 166.068 295.602 165.724C295.778 165.38 295.866 164.996 295.866 164.572C295.866 164.14 295.778 163.756 295.602 163.42C295.434 163.076 295.202 162.808 294.906 162.616C294.61 162.416 294.27 162.316 293.886 162.316C293.502 162.316 293.162 162.416 292.866 162.616C292.57 162.808 292.334 163.076 292.158 163.42C291.99 163.756 291.906 164.14 291.906 164.572C291.906 164.996 291.99 165.38 292.158 165.724C292.334 166.068 292.57 166.34 292.866 166.54C293.162 166.732 293.502 166.828 293.886 166.828ZM298.267 167.5V161.644H299.143V162.844C299.295 162.436 299.511 162.12 299.791 161.896C300.079 161.664 300.407 161.548 300.775 161.548C300.879 161.548 300.975 161.556 301.063 161.572C301.151 161.58 301.239 161.6 301.327 161.632V162.424C301.231 162.392 301.127 162.368 301.015 162.352C300.911 162.328 300.811 162.316 300.715 162.316C300.355 162.316 300.039 162.42 299.767 162.628C299.503 162.836 299.295 163.128 299.143 163.504V167.5H298.267ZM305.287 167.5V161.644H306.163V162.556C306.387 162.22 306.643 161.968 306.931 161.8C307.219 161.632 307.543 161.548 307.903 161.548C308.319 161.548 308.683 161.652 308.995 161.86C309.307 162.06 309.543 162.336 309.703 162.688C309.935 162.312 310.211 162.028 310.531 161.836C310.859 161.644 311.235 161.548 311.659 161.548C312.051 161.548 312.395 161.64 312.691 161.824C312.995 162.008 313.231 162.264 313.399 162.592C313.567 162.912 313.651 163.288 313.651 163.72V167.5H312.775V163.936C312.775 163.424 312.647 163.02 312.391 162.724C312.135 162.428 311.783 162.28 311.335 162.28C311.031 162.28 310.755 162.356 310.507 162.508C310.267 162.66 310.055 162.892 309.871 163.204C309.887 163.284 309.899 163.368 309.907 163.456C309.915 163.544 309.919 163.632 309.919 163.72V167.5H309.043V163.936C309.043 163.424 308.911 163.02 308.647 162.724C308.391 162.428 308.039 162.28 307.591 162.28C306.991 162.28 306.515 162.568 306.163 163.144V167.5H305.287ZM315.411 167.5V161.644H316.287V167.5H315.411ZM315.855 160.192C315.679 160.192 315.527 160.132 315.399 160.012C315.279 159.884 315.219 159.736 315.219 159.568C315.219 159.4 315.279 159.256 315.399 159.136C315.527 159.008 315.679 158.944 315.855 158.944C316.031 158.944 316.179 159.008 316.299 159.136C316.427 159.256 316.491 159.4 316.491 159.568C316.491 159.736 316.427 159.884 316.299 160.012C316.179 160.132 316.031 160.192 315.855 160.192ZM319.896 167.62C319.416 167.62 318.972 167.548 318.564 167.404C318.156 167.252 317.808 167.036 317.52 166.756L317.988 166.18C318.34 166.436 318.664 166.624 318.96 166.744C319.256 166.856 319.56 166.912 319.872 166.912C320.296 166.912 320.648 166.812 320.928 166.612C321.208 166.412 321.348 166.156 321.348 165.844C321.348 165.604 321.264 165.416 321.096 165.28C320.936 165.144 320.668 165.04 320.292 164.968L319.332 164.8C318.764 164.696 318.344 164.52 318.072 164.272C317.808 164.024 317.676 163.688 317.676 163.264C317.676 162.928 317.764 162.632 317.94 162.376C318.124 162.12 318.376 161.92 318.696 161.776C319.016 161.624 319.38 161.548 319.788 161.548C320.188 161.548 320.568 161.608 320.928 161.728C321.288 161.84 321.652 162.024 322.02 162.28L321.588 162.892C321.284 162.676 320.98 162.52 320.676 162.424C320.372 162.32 320.064 162.268 319.752 162.268C319.368 162.268 319.06 162.352 318.828 162.52C318.596 162.688 318.48 162.916 318.48 163.204C318.48 163.444 318.552 163.628 318.696 163.756C318.848 163.884 319.112 163.98 319.488 164.044L320.472 164.224C321.064 164.328 321.496 164.508 321.768 164.764C322.04 165.02 322.176 165.364 322.176 165.796C322.176 166.14 322.076 166.452 321.876 166.732C321.676 167.004 321.404 167.22 321.06 167.38C320.716 167.54 320.328 167.62 319.896 167.62ZM325.624 167.62C325.12 167.62 324.736 167.5 324.472 167.26C324.216 167.012 324.088 166.656 324.088 166.192V162.364H322.876V161.644H324.088V160.036L324.964 159.832V161.644H326.644V162.364H324.964V165.964C324.964 166.276 325.028 166.5 325.156 166.636C325.292 166.772 325.512 166.84 325.816 166.84C325.968 166.84 326.104 166.828 326.224 166.804C326.344 166.78 326.484 166.74 326.644 166.684V167.464C326.484 167.52 326.316 167.56 326.14 167.584C325.964 167.608 325.792 167.62 325.624 167.62ZM329.739 167.608C329.323 167.608 328.955 167.532 328.635 167.38C328.315 167.228 328.063 167.02 327.879 166.756C327.703 166.484 327.615 166.172 327.615 165.82C327.615 165.468 327.707 165.164 327.891 164.908C328.075 164.644 328.331 164.44 328.659 164.296C328.987 164.152 329.371 164.08 329.811 164.08C330.147 164.08 330.463 164.116 330.759 164.188C331.063 164.26 331.343 164.376 331.599 164.536V163.732C331.599 163.252 331.471 162.892 331.215 162.652C330.959 162.404 330.583 162.28 330.087 162.28C329.815 162.28 329.535 162.32 329.247 162.4C328.967 162.48 328.655 162.608 328.311 162.784L327.987 162.112C328.771 161.736 329.507 161.548 330.195 161.548C330.923 161.548 331.483 161.728 331.875 162.088C332.267 162.44 332.463 162.948 332.463 163.612V167.5H331.599V166.816C331.343 167.08 331.059 167.28 330.747 167.416C330.435 167.544 330.099 167.608 329.739 167.608ZM328.455 165.796C328.455 166.14 328.587 166.416 328.851 166.624C329.123 166.832 329.479 166.936 329.919 166.936C330.247 166.936 330.547 166.88 330.819 166.768C331.099 166.656 331.359 166.488 331.599 166.264V165.136C331.351 164.992 331.095 164.888 330.831 164.824C330.567 164.752 330.271 164.716 329.943 164.716C329.495 164.716 329.135 164.816 328.863 165.016C328.591 165.208 328.455 165.468 328.455 165.796ZM334.244 167.5V158.836L335.12 158.656V164.272L337.904 161.644H338.96L335.984 164.428L339.092 167.5H337.94L335.12 164.704V167.5H334.244ZM342.274 167.62C341.73 167.62 341.238 167.488 340.798 167.224C340.358 166.952 340.01 166.588 339.754 166.132C339.498 165.668 339.37 165.148 339.37 164.572C339.37 163.996 339.49 163.48 339.73 163.024C339.978 162.568 340.31 162.208 340.726 161.944C341.142 161.68 341.606 161.548 342.118 161.548C342.638 161.548 343.098 161.68 343.498 161.944C343.906 162.2 344.226 162.552 344.458 163C344.698 163.44 344.818 163.94 344.818 164.5V164.764H340.222C340.254 165.164 340.362 165.524 340.546 165.844C340.738 166.156 340.986 166.404 341.29 166.588C341.602 166.764 341.942 166.852 342.31 166.852C342.614 166.852 342.906 166.8 343.186 166.696C343.474 166.584 343.718 166.436 343.918 166.252L344.47 166.84C344.134 167.104 343.786 167.3 343.426 167.428C343.066 167.556 342.682 167.62 342.274 167.62ZM340.246 164.14H343.954C343.914 163.788 343.806 163.476 343.63 163.204C343.462 162.924 343.246 162.704 342.982 162.544C342.726 162.384 342.438 162.304 342.118 162.304C341.798 162.304 341.506 162.384 341.242 162.544C340.978 162.696 340.758 162.912 340.582 163.192C340.414 163.464 340.302 163.78 340.246 164.14ZM348.185 167.62C347.705 167.62 347.261 167.548 346.853 167.404C346.445 167.252 346.097 167.036 345.809 166.756L346.277 166.18C346.629 166.436 346.953 166.624 347.249 166.744C347.545 166.856 347.849 166.912 348.161 166.912C348.585 166.912 348.937 166.812 349.217 166.612C349.497 166.412 349.637 166.156 349.637 165.844C349.637 165.604 349.553 165.416 349.385 165.28C349.225 165.144 348.957 165.04 348.581 164.968L347.621 164.8C347.053 164.696 346.633 164.52 346.361 164.272C346.097 164.024 345.965 163.688 345.965 163.264C345.965 162.928 346.053 162.632 346.229 162.376C346.413 162.12 346.665 161.92 346.985 161.776C347.305 161.624 347.669 161.548 348.077 161.548C348.477 161.548 348.857 161.608 349.217 161.728C349.577 161.84 349.941 162.024 350.309 162.28L349.877 162.892C349.573 162.676 349.269 162.52 348.965 162.424C348.661 162.32 348.353 162.268 348.041 162.268C347.657 162.268 347.349 162.352 347.117 162.52C346.885 162.688 346.769 162.916 346.769 163.204C346.769 163.444 346.841 163.628 346.985 163.756C347.137 163.884 347.401 163.98 347.777 164.044L348.761 164.224C349.353 164.328 349.785 164.508 350.057 164.764C350.329 165.02 350.465 165.364 350.465 165.796C350.465 166.14 350.365 166.452 350.165 166.732C349.965 167.004 349.693 167.22 349.349 167.38C349.005 167.54 348.617 167.62 348.185 167.62ZM352.281 167.596C352.105 167.596 351.953 167.532 351.825 167.404C351.705 167.276 351.645 167.124 351.645 166.948C351.645 166.764 351.705 166.612 351.825 166.492C351.953 166.364 352.105 166.3 352.281 166.3C352.457 166.3 352.605 166.364 352.725 166.492C352.853 166.612 352.917 166.764 352.917 166.948C352.917 167.124 352.853 167.276 352.725 167.404C352.605 167.532 352.457 167.596 352.281 167.596Z" fill="#0066CC"/>
<path fill-rule="evenodd" clip-rule="evenodd" d="M369.781 170.562C373.526 170.562 376.562 167.527 376.562 163.781C376.562 160.037 373.526 157 369.781 157C366.036 157 363 160.037 363 163.781C363 167.527 366.036 170.562 369.781 170.562ZM369.781 162.305C369.147 162.305 368.633 161.791 368.633 161.156C368.633 160.522 369.147 160.008 369.781 160.008C370.416 160.008 370.93 160.522 370.93 161.156C370.93 161.791 370.416 162.305 369.781 162.305ZM370.984 167.281H368.578C368.397 167.281 368.25 167.134 368.25 166.953V166.297C368.25 166.116 368.397 165.969 368.578 165.969H368.906V164.219H368.578C368.397 164.219 368.25 164.072 368.25 163.891V163.234C368.25 163.053 368.397 162.906 368.578 162.906H370.328C370.509 162.906 370.656 163.053 370.656 163.234V165.969H370.984C371.166 165.969 371.312 166.116 371.312 166.297V166.953C371.312 167.134 371.166 167.281 370.984 167.281Z" fill="#0066CC"/>
<path d="M299 24C299 21.7909 300.791 20 303 20H333C335.209 20 337 21.7909 337 24V48C337 50.2091 335.209 52 333 52H303C300.791 52 299 50.2091 299 48V24Z" fill="#C806CC"/>
<path d="M317.888 42V31.254L315.62 32.208V30.624L318.536 29.4H319.67V42H317.888Z" fill="white"/>
<path d="M318 77.3333C316.527 77.3333 315.333 78.5272 315.333 80C315.333 81.4728 316.527 82.6667 318 82.6667C319.473 82.6667 320.667 81.4728 320.667 80C320.667 78.5272 319.473 77.3333 318 77.3333ZM317.5 52L317.5 80L318.5 80L318.5 52L317.5 52Z" fill="#C806CC"/>
<path d="M363 24C363 21.7909 364.791 20 367 20H397C399.209 20 401 21.7909 401 24V48C401 50.2091 399.209 52 397 52H367C364.791 52 363 50.2091 363 48V24Z" fill="#C806CC"/>
<path d="M377.89 42V40.74L383.002 35.304C383.518 34.764 383.866 34.302 384.046 33.918C384.238 33.534 384.334 33.126 384.334 32.694C384.334 32.13 384.106 31.662 383.65 31.29C383.194 30.918 382.618 30.732 381.922 30.732C381.346 30.732 380.806 30.846 380.302 31.074C379.798 31.302 379.24 31.698 378.628 32.262L377.656 31.074C378.988 29.826 380.422 29.202 381.958 29.202C382.762 29.202 383.47 29.346 384.082 29.634C384.694 29.922 385.168 30.324 385.504 30.84C385.852 31.344 386.026 31.926 386.026 32.586C386.026 33.006 385.972 33.396 385.864 33.756C385.756 34.104 385.57 34.476 385.306 34.872C385.042 35.256 384.67 35.7 384.19 36.204L380.086 40.524L386.278 40.506V42H377.89Z" fill="white"/>
<path d="M382 77.3333C380.527 77.3333 379.333 78.5272 379.333 80C379.333 81.4728 380.527 82.6667 382 82.6667C383.473 82.6667 384.667 81.4728 384.667 80C384.667 78.5272 383.473 77.3333 382 77.3333ZM381.5 52L381.5 80L382.5 80L382.5 52L381.5 52Z" fill="#C806CC"/>
<path d="M427 24C427 21.7909 428.791 20 431 20H461C463.209 20 465 21.7909 465 24V48C465 50.2091 463.209 52 461 52H431C428.791 52 427 50.2091 427 48V24Z" fill="#C806CC"/>
<path d="M445.859 42.198C444.959 42.198 444.113 42.042 443.321 41.73C442.541 41.406 441.863 40.944 441.287 40.344L442.457 39.228C442.961 39.756 443.471 40.134 443.987 40.362C444.515 40.578 445.133 40.686 445.841 40.686C446.693 40.686 447.383 40.476 447.911 40.056C448.451 39.636 448.721 39.096 448.721 38.436C448.721 37.812 448.493 37.308 448.037 36.924C447.593 36.54 447.017 36.348 446.309 36.348H444.779V34.89H446.183C446.819 34.89 447.329 34.704 447.713 34.332C448.097 33.96 448.289 33.474 448.289 32.874C448.289 32.466 448.181 32.106 447.965 31.794C447.749 31.47 447.449 31.218 447.065 31.038C446.693 30.846 446.267 30.75 445.787 30.75C445.151 30.75 444.587 30.864 444.095 31.092C443.615 31.308 443.117 31.692 442.601 32.244L441.431 31.128C442.007 30.504 442.673 30.03 443.429 29.706C444.185 29.37 444.983 29.202 445.823 29.202C446.639 29.202 447.359 29.352 447.983 29.652C448.619 29.952 449.117 30.366 449.477 30.894C449.849 31.422 450.035 32.028 450.035 32.712C450.035 33.384 449.813 33.978 449.369 34.494C448.937 35.01 448.367 35.37 447.659 35.574C448.511 35.754 449.189 36.114 449.693 36.654C450.197 37.182 450.449 37.806 450.449 38.526C450.449 39.234 450.251 39.864 449.855 40.416C449.471 40.968 448.931 41.406 448.235 41.73C447.539 42.042 446.747 42.198 445.859 42.198Z" fill="white"/>
<path d="M446 77.3333C444.527 77.3333 443.333 78.5272 443.333 80C443.333 81.4728 444.527 82.6667 446 82.6667C447.473 82.6667 448.667 81.4728 448.667 80C448.667 78.5272 447.473 77.3333 446 77.3333ZM445.5 52L445.5 80L446.5 80L446.5 52L445.5 52Z" fill="#C806CC"/>
</svg>
