<svg width="134" height="81" viewBox="0 0 134 81" fill="none" xmlns="http://www.w3.org/2000/svg">
<g clip-path="url(#clip0_5694_9037)">
<path d="M11.1557 3.39084C11.4276 3.39084 11.6479 3.17049 11.6479 2.89867C11.6479 2.62685 11.4276 2.40649 11.1557 2.40649C10.8839 2.40649 10.6636 2.62685 10.6636 2.89867C10.6636 3.17049 10.8839 3.39084 11.1557 3.39084Z" fill="#0066CC"/>
<path d="M13.6167 5.85178C13.8885 5.85178 14.1089 5.63142 14.1089 5.3596C14.1089 5.08778 13.8885 4.86743 13.6167 4.86743C13.3449 4.86743 13.1245 5.08778 13.1245 5.3596C13.1245 5.63142 13.3449 5.85178 13.6167 5.85178Z" fill="#0066CC"/>
<path d="M11.1557 8.31271C11.4276 8.31271 11.6479 8.09236 11.6479 7.82054C11.6479 7.54872 11.4276 7.32837 11.1557 7.32837C10.8839 7.32837 10.6636 7.54872 10.6636 7.82054C10.6636 8.09236 10.8839 8.31271 11.1557 8.31271Z" fill="#0066CC"/>
<path d="M13.6167 10.7737C13.8885 10.7737 14.1089 10.5533 14.1089 10.2815C14.1089 10.0097 13.8885 9.78931 13.6167 9.78931C13.3449 9.78931 13.1245 10.0097 13.1245 10.2815C13.1245 10.5533 13.3449 10.7737 13.6167 10.7737Z" fill="#0066CC"/>
<path d="M11.1557 13.2346C11.4276 13.2346 11.6479 13.0142 11.6479 12.7424C11.6479 12.4706 11.4276 12.2502 11.1557 12.2502C10.8839 12.2502 10.6636 12.4706 10.6636 12.7424C10.6636 13.0142 10.8839 13.2346 11.1557 13.2346Z" fill="#0066CC"/>
<path d="M13.6167 15.6955C13.8885 15.6955 14.1089 15.4752 14.1089 15.2034C14.1089 14.9315 13.8885 14.7112 13.6167 14.7112C13.3449 14.7112 13.1245 14.9315 13.1245 15.2034C13.1245 15.4752 13.3449 15.6955 13.6167 15.6955Z" fill="#0066CC"/>
<path d="M11.1557 18.1563C11.4276 18.1563 11.6479 17.9359 11.6479 17.6641C11.6479 17.3923 11.4276 17.1719 11.1557 17.1719C10.8839 17.1719 10.6636 17.3922 10.6636 17.664C10.6636 17.9359 10.8839 18.1563 11.1557 18.1563Z" fill="#0066CC"/>
<path d="M13.6167 20.6172C13.8885 20.6172 14.1089 20.3969 14.1089 20.125C14.1089 19.8531 13.8885 19.6328 13.6167 19.6328C13.3449 19.6328 13.1245 19.8532 13.1245 20.125C13.1245 20.3968 13.3449 20.6172 13.6167 20.6172Z" fill="#0066CC"/>
<path d="M11.1557 23.0782C11.4276 23.0781 11.6479 22.8578 11.6479 22.5859C11.6479 22.314 11.4276 22.0938 11.1557 22.0938C10.8839 22.0938 10.6636 22.3141 10.6636 22.5859C10.6636 22.8577 10.8839 23.0782 11.1557 23.0782Z" fill="#0066CC"/>
<path d="M13.6167 25.5391C13.8885 25.5391 14.1089 25.3187 14.1089 25.0469C14.1089 24.775 13.8885 24.5547 13.6167 24.5547C13.3449 24.5547 13.1245 24.775 13.1245 25.0469C13.1245 25.3187 13.3449 25.5391 13.6167 25.5391Z" fill="#0066CC"/>
<path d="M11.1557 28C11.4276 28 11.6479 27.7796 11.6479 27.5078C11.6479 27.236 11.4276 27.0156 11.1557 27.0156C10.8839 27.0156 10.6636 27.236 10.6636 27.5078C10.6636 27.7796 10.8839 28 11.1557 28Z" fill="#0066CC"/>
<path d="M13.6167 30.4609C13.8885 30.4609 14.1089 30.2406 14.1089 29.9687C14.1089 29.6969 13.8885 29.4766 13.6167 29.4766C13.3449 29.4766 13.1245 29.6969 13.1245 29.9687C13.1245 30.2406 13.3449 30.4609 13.6167 30.4609Z" fill="#0066CC"/>
<path d="M11.1557 32.9218C11.4276 32.9218 11.6479 32.7015 11.6479 32.4297C11.6479 32.1579 11.4276 31.9375 11.1557 31.9375C10.8839 31.9375 10.6636 32.1579 10.6636 32.4297C10.6636 32.7015 10.8839 32.9218 11.1557 32.9218Z" fill="#0066CC"/>
<path d="M13.6167 35.3828C13.8885 35.3828 14.1089 35.1624 14.1089 34.8906C14.1089 34.6188 13.8885 34.3984 13.6167 34.3984C13.3449 34.3984 13.1245 34.6188 13.1245 34.8906C13.1245 35.1624 13.3449 35.3828 13.6167 35.3828Z" fill="#0066CC"/>
<path d="M11.1557 37.8437C11.4276 37.8437 11.6479 37.6234 11.6479 37.3515C11.6479 37.0797 11.4276 36.8594 11.1557 36.8594C10.8839 36.8594 10.6636 37.0797 10.6636 37.3515C10.6636 37.6234 10.8839 37.8437 11.1557 37.8437Z" fill="#0066CC"/>
<path d="M13.6167 40.3047C13.8885 40.3047 14.1089 40.0843 14.1089 39.8125C14.1089 39.5407 13.8885 39.3203 13.6167 39.3203C13.3449 39.3203 13.1245 39.5407 13.1245 39.8125C13.1245 40.0843 13.3449 40.3047 13.6167 40.3047Z" fill="#0066CC"/>
<path d="M11.1557 42.7656C11.4276 42.7656 11.6479 42.5452 11.6479 42.2734C11.6479 42.0016 11.4276 41.7812 11.1557 41.7812C10.8839 41.7812 10.6636 42.0016 10.6636 42.2734C10.6636 42.5452 10.8839 42.7656 11.1557 42.7656Z" fill="#0066CC"/>
<path d="M13.6167 45.2265C13.8885 45.2265 14.1089 45.0062 14.1089 44.7344C14.1089 44.4625 13.8885 44.2422 13.6167 44.2422C13.3449 44.2422 13.1245 44.4625 13.1245 44.7344C13.1245 45.0062 13.3449 45.2265 13.6167 45.2265Z" fill="#0066CC"/>
<path d="M11.1557 47.6875C11.4276 47.6875 11.6479 47.4672 11.6479 47.1954C11.6479 46.9236 11.4276 46.7032 11.1557 46.7031C10.8839 46.7031 10.6636 46.9235 10.6636 47.1954C10.6636 47.4672 10.8839 47.6875 11.1557 47.6875Z" fill="#0066CC"/>
<path d="M13.6167 50.1485C13.8885 50.1485 14.1089 49.9281 14.1089 49.6563C14.1089 49.3845 13.8885 49.1641 13.6167 49.1641C13.3449 49.1641 13.1245 49.3844 13.1245 49.6563C13.1245 49.9282 13.3449 50.1485 13.6167 50.1485Z" fill="#0066CC"/>
<path d="M11.1557 52.6094C11.4276 52.6093 11.6479 52.3891 11.6479 52.1172C11.6479 51.8454 11.4276 51.6251 11.1557 51.625C10.8839 51.625 10.6636 51.8454 10.6636 52.1172C10.6636 52.3891 10.8839 52.6094 11.1557 52.6094Z" fill="#0066CC"/>
<path d="M13.6167 55.0704C13.8885 55.0704 14.1089 54.85 14.1089 54.5782C14.1089 54.3064 13.8885 54.0859 13.6167 54.0859C13.3449 54.0859 13.1245 54.3063 13.1245 54.5782C13.1245 54.8501 13.3449 55.0704 13.6167 55.0704Z" fill="#0066CC"/>
<path d="M11.1557 57.5313C11.4276 57.5312 11.6479 57.3109 11.6479 57.039C11.6479 56.7672 11.4276 56.5469 11.1557 56.5469C10.8839 56.5469 10.6636 56.7672 10.6636 57.039C10.6636 57.3109 10.8839 57.5313 11.1557 57.5313Z" fill="#0066CC"/>
<path d="M13.6167 59.9922C13.8885 59.9922 14.1089 59.7718 14.1089 59.5C14.1089 59.2282 13.8885 59.0078 13.6167 59.0078C13.3449 59.0078 13.1245 59.2282 13.1245 59.5C13.1245 59.7718 13.3449 59.9922 13.6167 59.9922Z" fill="#0066CC"/>
<path d="M11.1557 62.4531C11.4276 62.4531 11.6479 62.2327 11.6479 61.9609C11.6479 61.6891 11.4276 61.4688 11.1557 61.4688C10.8839 61.4688 10.6636 61.6891 10.6636 61.9609C10.6636 62.2327 10.8839 62.4531 11.1557 62.4531Z" fill="#0066CC"/>
<path d="M13.6167 64.914C13.8885 64.914 14.1089 64.6937 14.1089 64.4219C14.1089 64.15 13.8885 63.9297 13.6167 63.9297C13.3449 63.9297 13.1245 64.15 13.1245 64.4219C13.1245 64.6937 13.3449 64.914 13.6167 64.914Z" fill="#0066CC"/>
<path d="M11.1557 67.375C11.4276 67.375 11.6479 67.1546 11.6479 66.8828C11.6479 66.611 11.4276 66.3906 11.1557 66.3906C10.8839 66.3906 10.6636 66.611 10.6636 66.8828C10.6636 67.1546 10.8839 67.375 11.1557 67.375Z" fill="#0066CC"/>
<path d="M13.6167 69.8359C13.8885 69.8359 14.1089 69.6155 14.1089 69.3437C14.1089 69.0719 13.8885 68.8516 13.6167 68.8516C13.3449 68.8516 13.1245 69.0719 13.1245 69.3437C13.1245 69.6155 13.3449 69.8359 13.6167 69.8359Z" fill="#0066CC"/>
<path d="M11.1557 72.2968C11.4276 72.2968 11.6479 72.0765 11.6479 71.8047C11.6479 71.5329 11.4276 71.3125 11.1557 71.3125C10.8839 71.3125 10.6636 71.5329 10.6636 71.8047C10.6636 72.0765 10.8839 72.2968 11.1557 72.2968Z" fill="#0066CC"/>
<path d="M6.23387 3.39084C6.50569 3.39084 6.72607 3.17048 6.72607 2.89867C6.72607 2.62685 6.50571 2.40649 6.2339 2.40649C5.96208 2.40649 5.7417 2.62685 5.7417 2.89867C5.7417 3.17048 5.96206 3.39084 6.23387 3.39084Z" fill="#0066CC"/>
<path d="M8.69481 5.85178C8.96663 5.85178 9.18698 5.63142 9.18698 5.3596C9.18698 5.08778 8.96663 4.86743 8.69481 4.86743C8.42299 4.86743 8.20264 5.08778 8.20264 5.3596C8.20264 5.63142 8.42299 5.85178 8.69481 5.85178Z" fill="#0066CC"/>
<path d="M6.23387 8.31271C6.50569 8.31271 6.72607 8.09235 6.72607 7.82054C6.72607 7.54873 6.50571 7.32837 6.2339 7.32837C5.96208 7.32837 5.7417 7.54873 5.7417 7.82054C5.7417 8.09235 5.96206 8.31271 6.23387 8.31271Z" fill="#0066CC"/>
<path d="M8.69481 10.7737C8.96663 10.7737 9.18698 10.5533 9.18698 10.2815C9.18698 10.0097 8.96663 9.78931 8.69481 9.78931C8.42299 9.78931 8.20264 10.0097 8.20264 10.2815C8.20264 10.5533 8.42299 10.7737 8.69481 10.7737Z" fill="#0066CC"/>
<path d="M6.23387 13.2346C6.50569 13.2346 6.72607 13.0142 6.72607 12.7424C6.72607 12.4706 6.50571 12.2502 6.2339 12.2502C5.96208 12.2502 5.7417 12.4705 5.7417 12.7424C5.7417 13.0143 5.96206 13.2346 6.23387 13.2346Z" fill="#0066CC"/>
<path d="M8.69481 15.6955C8.96663 15.6955 9.18698 15.4752 9.18698 15.2034C9.18698 14.9315 8.96663 14.7112 8.69481 14.7112C8.42299 14.7112 8.20264 14.9315 8.20264 15.2034C8.20264 15.4752 8.42299 15.6955 8.69481 15.6955Z" fill="#0066CC"/>
<path d="M6.23391 17.1719H6.23387C5.96205 17.1719 5.7417 17.3922 5.7417 17.664V17.6641C5.7417 17.9359 5.96205 18.1563 6.23387 18.1563H6.23391C6.50573 18.1563 6.72608 17.9359 6.72608 17.6641V17.664C6.72608 17.3922 6.50573 17.1719 6.23391 17.1719Z" fill="#0066CC"/>
<path d="M8.69481 20.6172C8.96662 20.6172 9.18698 20.3969 9.18698 20.125C9.18698 19.8531 8.96662 19.6328 8.69481 19.6328C8.423 19.6328 8.20264 19.8532 8.20264 20.125C8.20264 20.3968 8.423 20.6172 8.69481 20.6172Z" fill="#0066CC"/>
<path d="M6.23387 23.0782C6.50569 23.0781 6.72607 22.8578 6.72607 22.5859C6.72607 22.314 6.50571 22.0938 6.2339 22.0938C5.96208 22.0938 5.7417 22.3141 5.7417 22.5859C5.7417 22.8577 5.96206 23.0782 6.23387 23.0782Z" fill="#0066CC"/>
<path d="M8.69481 25.5391C8.96662 25.5391 9.18698 25.3187 9.18698 25.0469C9.18698 24.775 8.96662 24.5547 8.69481 24.5547C8.423 24.5547 8.20264 24.775 8.20264 25.0469C8.20264 25.3187 8.423 25.5391 8.69481 25.5391Z" fill="#0066CC"/>
<path d="M6.23387 28C6.50569 28 6.72607 27.7796 6.72607 27.5078C6.72607 27.236 6.50571 27.0156 6.2339 27.0156C5.96208 27.0156 5.7417 27.236 5.7417 27.5078C5.7417 27.7796 5.96206 28 6.23387 28Z" fill="#0066CC"/>
<path d="M8.69481 30.4609C8.96663 30.4609 9.18698 30.2406 9.18698 29.9687C9.18698 29.6969 8.96663 29.4766 8.69481 29.4766C8.42299 29.4766 8.20264 29.6969 8.20264 29.9687C8.20264 30.2406 8.42299 30.4609 8.69481 30.4609Z" fill="#0066CC"/>
<path d="M6.23387 32.9218C6.50569 32.9218 6.72607 32.7015 6.72607 32.4297C6.72607 32.1579 6.50571 31.9375 6.2339 31.9375C5.96208 31.9375 5.7417 32.1579 5.7417 32.4297C5.7417 32.7015 5.96206 32.9218 6.23387 32.9218Z" fill="#0066CC"/>
<path d="M8.69481 35.3828C8.96663 35.3828 9.18698 35.1624 9.18698 34.8906C9.18698 34.6188 8.96663 34.3984 8.69481 34.3984C8.42299 34.3984 8.20264 34.6188 8.20264 34.8906C8.20264 35.1624 8.42299 35.3828 8.69481 35.3828Z" fill="#0066CC"/>
<path d="M6.23387 37.8437C6.50569 37.8437 6.72607 37.6234 6.72607 37.3515C6.72607 37.0797 6.50571 36.8594 6.2339 36.8594C5.96208 36.8594 5.7417 37.0797 5.7417 37.3515C5.7417 37.6234 5.96206 37.8437 6.23387 37.8437Z" fill="#0066CC"/>
<path d="M8.69481 40.3047C8.96663 40.3047 9.18698 40.0843 9.18698 39.8125C9.18698 39.5407 8.96663 39.3203 8.69481 39.3203C8.42299 39.3203 8.20264 39.5407 8.20264 39.8125C8.20264 40.0843 8.42299 40.3047 8.69481 40.3047Z" fill="#0066CC"/>
<path d="M6.23387 42.7656C6.50569 42.7656 6.72607 42.5452 6.72607 42.2734C6.72607 42.0016 6.50571 41.7812 6.2339 41.7812C5.96208 41.7812 5.7417 42.0015 5.7417 42.2734C5.7417 42.5453 5.96206 42.7656 6.23387 42.7656Z" fill="#0066CC"/>
<path d="M8.69481 45.2265C8.96663 45.2265 9.18698 45.0062 9.18698 44.7344C9.18698 44.4625 8.96663 44.2422 8.69481 44.2422C8.42299 44.2422 8.20264 44.4625 8.20264 44.7344C8.20264 45.0062 8.42299 45.2265 8.69481 45.2265Z" fill="#0066CC"/>
<path d="M6.23387 47.6875C6.50569 47.6875 6.72607 47.4672 6.72607 47.1954C6.72607 46.9236 6.50571 46.7032 6.2339 46.7031C5.96208 46.7031 5.7417 46.9235 5.7417 47.1954C5.7417 47.4672 5.96206 47.6875 6.23387 47.6875Z" fill="#0066CC"/>
<path d="M8.69481 50.1485C8.96662 50.1485 9.18698 49.9281 9.18698 49.6563C9.18698 49.3845 8.96662 49.1641 8.69481 49.1641C8.423 49.1641 8.20264 49.3844 8.20264 49.6563C8.20264 49.9282 8.423 50.1485 8.69481 50.1485Z" fill="#0066CC"/>
<path d="M6.23387 52.6094C6.50569 52.6093 6.72607 52.3891 6.72607 52.1172C6.72607 51.8454 6.50571 51.6251 6.2339 51.625C5.96208 51.625 5.7417 51.8454 5.7417 52.1172C5.7417 52.3891 5.96206 52.6094 6.23387 52.6094Z" fill="#0066CC"/>
<path d="M8.69481 55.0704C8.96662 55.0704 9.18698 54.85 9.18698 54.5782C9.18698 54.3064 8.96662 54.0859 8.69481 54.0859C8.423 54.0859 8.20264 54.3063 8.20264 54.5782C8.20264 54.8501 8.423 55.0704 8.69481 55.0704Z" fill="#0066CC"/>
<path d="M6.23387 57.5313C6.50569 57.5312 6.72607 57.3109 6.72607 57.039C6.72607 56.7672 6.50571 56.5469 6.2339 56.5469C5.96208 56.5469 5.7417 56.7672 5.7417 57.039C5.7417 57.3109 5.96206 57.5313 6.23387 57.5313Z" fill="#0066CC"/>
<path d="M8.69481 59.9922C8.96663 59.9922 9.18698 59.7718 9.18698 59.5C9.18698 59.2282 8.96663 59.0078 8.69481 59.0078C8.42299 59.0078 8.20264 59.2282 8.20264 59.5C8.20264 59.7718 8.42299 59.9922 8.69481 59.9922Z" fill="#0066CC"/>
<path d="M6.23387 62.4531C6.50569 62.4531 6.72607 62.2327 6.72607 61.9609C6.72607 61.6891 6.50571 61.4688 6.2339 61.4688C5.96208 61.4688 5.7417 61.6891 5.7417 61.9609C5.7417 62.2327 5.96206 62.4531 6.23387 62.4531Z" fill="#0066CC"/>
<path d="M8.69481 64.914C8.96663 64.914 9.18698 64.6937 9.18698 64.4219C9.18698 64.15 8.96663 63.9297 8.69481 63.9297C8.42299 63.9297 8.20264 64.15 8.20264 64.4219C8.20264 64.6937 8.42299 64.914 8.69481 64.914Z" fill="#0066CC"/>
<path d="M6.23387 67.375C6.50569 67.375 6.72607 67.1546 6.72607 66.8828C6.72607 66.611 6.50571 66.3906 6.2339 66.3906C5.96208 66.3906 5.7417 66.611 5.7417 66.8828C5.7417 67.1546 5.96206 67.375 6.23387 67.375Z" fill="#0066CC"/>
<path d="M8.69481 69.8359C8.96663 69.8359 9.18698 69.6155 9.18698 69.3437C9.18698 69.0719 8.96663 68.8516 8.69481 68.8516C8.42299 68.8516 8.20264 69.0719 8.20264 69.3437C8.20264 69.6155 8.42299 69.8359 8.69481 69.8359Z" fill="#0066CC"/>
<path d="M6.23387 72.2968C6.50569 72.2968 6.72607 72.0765 6.72607 71.8047C6.72607 71.5329 6.50571 71.3125 6.2339 71.3125C5.96208 71.3125 5.7417 71.5329 5.7417 71.8047C5.7417 72.0765 5.96206 72.2968 6.23387 72.2968Z" fill="#0066CC"/>
<path d="M3.77293 5.85178C4.04479 5.85178 4.26515 5.63142 4.26515 5.3596C4.26515 5.08779 4.04479 4.86743 3.77293 4.86743C3.50108 4.86743 3.28076 5.08779 3.28076 5.3596C3.28076 5.63142 3.50112 5.85178 3.77293 5.85178Z" fill="#0066CC"/>
<path d="M3.77293 10.7737C4.04479 10.7737 4.26515 10.5533 4.26515 10.2815C4.26515 10.0097 4.04479 9.78931 3.77293 9.78931C3.50108 9.78931 3.28076 10.0097 3.28076 10.2815C3.28076 10.5533 3.50112 10.7737 3.77293 10.7737Z" fill="#0066CC"/>
<path d="M3.77293 15.6955C4.04479 15.6955 4.26515 15.4752 4.26515 15.2034C4.26515 14.9315 4.04479 14.7112 3.77293 14.7112C3.50108 14.7112 3.28076 14.9315 3.28076 15.2034C3.28076 15.4752 3.50112 15.6955 3.77293 15.6955Z" fill="#0066CC"/>
<path d="M3.77293 20.6172C4.04479 20.6172 4.26515 20.3969 4.26515 20.125C4.26515 19.8531 4.04479 19.6328 3.77293 19.6328C3.50108 19.6328 3.28076 19.8532 3.28076 20.125C3.28076 20.3968 3.50112 20.6172 3.77293 20.6172Z" fill="#0066CC"/>
<path d="M3.77293 25.5391C4.04479 25.5391 4.26515 25.3187 4.26515 25.0469C4.26515 24.775 4.04479 24.5547 3.77293 24.5547C3.50108 24.5547 3.28076 24.775 3.28076 25.0469C3.28076 25.3187 3.50112 25.5391 3.77293 25.5391Z" fill="#0066CC"/>
<path d="M3.77293 30.4609C4.04479 30.4609 4.26515 30.2405 4.26515 29.9687C4.26515 29.6969 4.04479 29.4766 3.77293 29.4766C3.50108 29.4766 3.28076 29.6969 3.28076 29.9687C3.28076 30.2405 3.50112 30.4609 3.77293 30.4609Z" fill="#0066CC"/>
<path d="M3.77293 35.3828C4.04479 35.3828 4.26515 35.1624 4.26515 34.8906C4.26515 34.6188 4.04479 34.3984 3.77293 34.3984C3.50108 34.3984 3.28076 34.6188 3.28076 34.8906C3.28076 35.1624 3.50112 35.3828 3.77293 35.3828Z" fill="#0066CC"/>
<path d="M3.77293 40.3047C4.04479 40.3047 4.26515 40.0843 4.26515 39.8125C4.26515 39.5407 4.04479 39.3203 3.77293 39.3203C3.50108 39.3203 3.28076 39.5407 3.28076 39.8125C3.28076 40.0843 3.50112 40.3047 3.77293 40.3047Z" fill="#0066CC"/>
<path d="M3.77293 45.2265C4.04479 45.2265 4.26515 45.0062 4.26515 44.7344C4.26515 44.4625 4.04479 44.2422 3.77293 44.2422C3.50108 44.2422 3.28076 44.4625 3.28076 44.7344C3.28076 45.0062 3.50112 45.2265 3.77293 45.2265Z" fill="#0066CC"/>
<path d="M3.77293 50.1485C4.04479 50.1485 4.26515 49.9281 4.26515 49.6563C4.26515 49.3845 4.04479 49.1641 3.77293 49.1641C3.50108 49.1641 3.28076 49.3844 3.28076 49.6563C3.28076 49.9282 3.50112 50.1485 3.77293 50.1485Z" fill="#0066CC"/>
<path d="M3.77293 55.0704C4.04479 55.0704 4.26515 54.85 4.26515 54.5782C4.26515 54.3064 4.04479 54.0859 3.77293 54.0859C3.50108 54.0859 3.28076 54.3063 3.28076 54.5782C3.28076 54.8501 3.50112 55.0704 3.77293 55.0704Z" fill="#0066CC"/>
<path d="M3.77293 59.9922C4.04479 59.9922 4.26515 59.7718 4.26515 59.5C4.26515 59.2282 4.04479 59.0078 3.77293 59.0078C3.50108 59.0078 3.28076 59.2282 3.28076 59.5C3.28076 59.7718 3.50112 59.9922 3.77293 59.9922Z" fill="#0066CC"/>
<path d="M3.77293 64.914C4.04479 64.914 4.26515 64.6937 4.26515 64.4219C4.26515 64.15 4.04479 63.9297 3.77293 63.9297C3.50108 63.9297 3.28076 64.15 3.28076 64.4219C3.28076 64.6937 3.50112 64.914 3.77293 64.914Z" fill="#0066CC"/>
<path d="M3.77293 69.8359C4.04479 69.8359 4.26515 69.6155 4.26515 69.3437C4.26515 69.0719 4.04479 68.8516 3.77293 68.8516C3.50108 68.8516 3.28076 69.0719 3.28076 69.3437C3.28076 69.6155 3.50112 69.8359 3.77293 69.8359Z" fill="#0066CC"/>
<path d="M112.537 24.9597C112.515 25.078 112.49 25.1947 112.467 25.3124C112.517 25.2357 112.546 25.1449 112.546 25.0469C112.546 25.0171 112.542 24.9881 112.537 24.9597Z" fill="#0066CC"/>
<path d="M112.054 30.4609C112.326 30.4609 112.546 30.2406 112.546 29.9687C112.546 29.6969 112.326 29.4766 112.054 29.4766C111.782 29.4766 111.562 29.6969 111.562 29.9687C111.562 30.2406 111.782 30.4609 112.054 30.4609Z" fill="#0066CC"/>
<path d="M112.054 35.3828C112.326 35.3828 112.546 35.1624 112.546 34.8906C112.546 34.6188 112.326 34.3984 112.054 34.3984C111.782 34.3984 111.562 34.6188 111.562 34.8906C111.562 35.1624 111.782 35.3828 112.054 35.3828Z" fill="#0066CC"/>
<path d="M112.054 50.1485C112.326 50.1485 112.546 49.9281 112.546 49.6563C112.546 49.3845 112.326 49.1641 112.054 49.1641C111.782 49.1641 111.562 49.3844 111.562 49.6563C111.562 49.9282 111.782 50.1485 112.054 50.1485Z" fill="#0066CC"/>
<path d="M109.593 52.6094C109.865 52.6093 110.085 52.3891 110.085 52.1172C110.085 51.8454 109.865 51.6251 109.593 51.625C109.321 51.625 109.101 51.8454 109.101 52.1172C109.101 52.3891 109.321 52.6094 109.593 52.6094Z" fill="#0066CC"/>
<path d="M112.054 55.0704C112.326 55.0704 112.546 54.85 112.546 54.5782C112.546 54.3064 112.326 54.0859 112.054 54.0859C111.782 54.0859 111.562 54.3063 111.562 54.5782C111.562 54.8501 111.782 55.0704 112.054 55.0704Z" fill="#0066CC"/>
<path d="M109.593 57.5313C109.865 57.5312 110.085 57.3109 110.085 57.039C110.085 56.7672 109.865 56.5469 109.593 56.5469C109.321 56.5469 109.101 56.7672 109.101 57.039C109.101 57.3109 109.321 57.5313 109.593 57.5313Z" fill="#0066CC"/>
<path d="M112.054 59.9922C112.326 59.9922 112.546 59.7718 112.546 59.5C112.546 59.2282 112.326 59.0078 112.054 59.0078C111.782 59.0078 111.562 59.2282 111.562 59.5C111.562 59.7718 111.782 59.9922 112.054 59.9922Z" fill="#0066CC"/>
<path d="M109.593 62.4531C109.865 62.4531 110.085 62.2327 110.085 61.9609C110.085 61.6891 109.865 61.4688 109.593 61.4688C109.321 61.4688 109.101 61.6891 109.101 61.9609C109.101 62.2327 109.321 62.4531 109.593 62.4531Z" fill="#0066CC"/>
<path d="M112.054 64.914C112.326 64.914 112.546 64.6937 112.546 64.4219C112.546 64.15 112.326 63.9297 112.054 63.9297C111.782 63.9297 111.562 64.15 111.562 64.4219C111.562 64.6937 111.782 64.914 112.054 64.914Z" fill="#0066CC"/>
<path d="M109.593 67.375C109.865 67.375 110.085 67.1546 110.085 66.8828C110.085 66.611 109.865 66.3906 109.593 66.3906C109.321 66.3906 109.101 66.611 109.101 66.8828C109.101 67.1546 109.321 67.375 109.593 67.375Z" fill="#0066CC"/>
<path d="M112.054 69.8359C112.326 69.8359 112.546 69.6155 112.546 69.3437C112.546 69.0719 112.326 68.8516 112.054 68.8516C111.782 68.8516 111.562 69.0719 111.562 69.3437C111.562 69.6155 111.782 69.8359 112.054 69.8359Z" fill="#0066CC"/>
<path d="M109.593 72.2968C109.865 72.2968 110.085 72.0765 110.085 71.8047C110.085 71.5329 109.865 71.3125 109.593 71.3125C109.321 71.3125 109.101 71.5329 109.101 71.8047C109.101 72.0765 109.321 72.2968 109.593 72.2968Z" fill="#0066CC"/>
<path d="M104.671 47.6875C104.943 47.6875 105.163 47.4672 105.163 47.1954C105.163 46.9236 104.943 46.7032 104.671 46.7031C104.399 46.7031 104.179 46.9235 104.179 47.1954C104.179 47.4672 104.399 47.6875 104.671 47.6875Z" fill="#0066CC"/>
<path d="M107.132 50.1485C107.404 50.1485 107.624 49.9281 107.624 49.6563C107.624 49.3845 107.404 49.1641 107.132 49.1641C106.86 49.1641 106.64 49.3844 106.64 49.6563C106.64 49.9282 106.86 50.1485 107.132 50.1485Z" fill="#0066CC"/>
<path d="M104.671 52.6094C104.943 52.6093 105.163 52.3891 105.163 52.1172C105.163 51.8454 104.943 51.6251 104.671 51.625C104.399 51.625 104.179 51.8454 104.179 52.1172C104.179 52.3891 104.399 52.6094 104.671 52.6094Z" fill="#0066CC"/>
<path d="M107.132 55.0704C107.404 55.0704 107.624 54.85 107.624 54.5782C107.624 54.3064 107.404 54.0859 107.132 54.0859C106.86 54.0859 106.64 54.3063 106.64 54.5782C106.64 54.8501 106.86 55.0704 107.132 55.0704Z" fill="#0066CC"/>
<path d="M104.671 57.5313C104.943 57.5312 105.163 57.3109 105.163 57.039C105.163 56.7672 104.943 56.5469 104.671 56.5469C104.399 56.5469 104.179 56.7672 104.179 57.039C104.179 57.3109 104.399 57.5313 104.671 57.5313Z" fill="#0066CC"/>
<path d="M107.132 59.9922C107.404 59.9922 107.624 59.7718 107.624 59.5C107.624 59.2282 107.404 59.0078 107.132 59.0078C106.86 59.0078 106.64 59.2282 106.64 59.5C106.64 59.7718 106.86 59.9922 107.132 59.9922Z" fill="#0066CC"/>
<path d="M104.671 62.4531C104.943 62.4531 105.163 62.2327 105.163 61.9609C105.163 61.6891 104.943 61.4688 104.671 61.4688C104.399 61.4688 104.179 61.6891 104.179 61.9609C104.179 62.2327 104.399 62.4531 104.671 62.4531Z" fill="#0066CC"/>
<path d="M107.132 64.914C107.404 64.914 107.624 64.6937 107.624 64.4219C107.624 64.15 107.404 63.9297 107.132 63.9297C106.86 63.9297 106.64 64.15 106.64 64.4219C106.64 64.6937 106.86 64.914 107.132 64.914Z" fill="#0066CC"/>
<path d="M104.671 67.375C104.943 67.375 105.163 67.1546 105.163 66.8828C105.163 66.611 104.943 66.3906 104.671 66.3906C104.399 66.3906 104.179 66.611 104.179 66.8828C104.179 67.1546 104.399 67.375 104.671 67.375Z" fill="#0066CC"/>
<path d="M107.132 69.8359C107.404 69.8359 107.624 69.6155 107.624 69.3437C107.624 69.0719 107.404 68.8516 107.132 68.8516C106.86 68.8516 106.64 69.0719 106.64 69.3437C106.64 69.6155 106.86 69.8359 107.132 69.8359Z" fill="#0066CC"/>
<path d="M104.671 72.2968C104.943 72.2968 105.163 72.0765 105.163 71.8047C105.163 71.5329 104.943 71.3125 104.671 71.3125C104.399 71.3125 104.179 71.5329 104.179 71.8047C104.179 72.0765 104.399 72.2968 104.671 72.2968Z" fill="#0066CC"/>
<path d="M102.21 50.1485C102.482 50.1485 102.702 49.9281 102.702 49.6563C102.702 49.3845 102.482 49.1641 102.21 49.1641C101.938 49.1641 101.718 49.3844 101.718 49.6563C101.718 49.9282 101.938 50.1485 102.21 50.1485Z" fill="#0066CC"/>
<path d="M99.7493 52.6094C100.021 52.6093 100.241 52.3891 100.241 52.1172C100.241 51.8454 100.021 51.6251 99.7493 51.625C99.7484 51.625 99.7477 51.6253 99.7468 51.6253C99.5994 51.7909 99.4501 51.9539 99.301 52.1172C99.2878 52.1317 99.2747 52.1464 99.2615 52.1608C99.2839 52.4119 99.4924 52.6094 99.7493 52.6094Z" fill="#0066CC"/>
<path d="M102.21 55.0704C102.482 55.0704 102.702 54.85 102.702 54.5782C102.702 54.3064 102.482 54.0859 102.21 54.0859C101.938 54.0859 101.718 54.3063 101.718 54.5782C101.718 54.8501 101.938 55.0704 102.21 55.0704Z" fill="#0066CC"/>
<path d="M99.7493 57.5313C100.021 57.5312 100.241 57.3109 100.241 57.039C100.241 56.7672 100.021 56.5469 99.7493 56.5469C99.4775 56.5469 99.2571 56.7672 99.2571 57.039C99.2571 57.3109 99.4774 57.5313 99.7493 57.5313Z" fill="#0066CC"/>
<path d="M102.21 59.9922C102.482 59.9922 102.702 59.7718 102.702 59.5C102.702 59.2282 102.482 59.0078 102.21 59.0078C101.938 59.0078 101.718 59.2282 101.718 59.5C101.718 59.7718 101.938 59.9922 102.21 59.9922Z" fill="#0066CC"/>
<path d="M99.7493 62.4531C100.021 62.4531 100.241 62.2327 100.241 61.9609C100.241 61.6891 100.021 61.4688 99.7493 61.4688C99.4775 61.4688 99.2571 61.6891 99.2571 61.9609C99.2571 62.2327 99.4774 62.4531 99.7493 62.4531Z" fill="#0066CC"/>
<path d="M102.21 64.914C102.482 64.914 102.702 64.6937 102.702 64.4219C102.702 64.15 102.482 63.9297 102.21 63.9297C101.938 63.9297 101.718 64.15 101.718 64.4219C101.718 64.6937 101.938 64.914 102.21 64.914Z" fill="#0066CC"/>
<path d="M99.7493 67.375C100.021 67.375 100.241 67.1546 100.241 66.8828C100.241 66.611 100.021 66.3906 99.7493 66.3906C99.4775 66.3906 99.2571 66.611 99.2571 66.8828C99.2571 67.1546 99.4774 67.375 99.7493 67.375Z" fill="#0066CC"/>
<path d="M102.21 69.8359C102.482 69.8359 102.702 69.6155 102.702 69.3437C102.702 69.0719 102.482 68.8516 102.21 68.8516C101.938 68.8516 101.718 69.0719 101.718 69.3437C101.718 69.6155 101.938 69.8359 102.21 69.8359Z" fill="#0066CC"/>
<path d="M99.7493 72.2968C100.021 72.2968 100.241 72.0765 100.241 71.8047C100.241 71.5329 100.021 71.3125 99.7493 71.3125C99.4775 71.3125 99.2571 71.5329 99.2571 71.8047C99.2571 72.0765 99.4774 72.2968 99.7493 72.2968Z" fill="#0066CC"/>
<path d="M97.2882 55.0704C97.56 55.0704 97.7804 54.8501 97.7804 54.5782C97.7804 54.3443 97.6169 54.1495 97.3982 54.0994C97.2022 54.2931 97.004 54.4834 96.8057 54.6736C96.8501 54.8998 97.0491 55.0704 97.2882 55.0704Z" fill="#0066CC"/>
<path d="M94.8274 57.5313C95.0992 57.5312 95.3196 57.3109 95.3196 57.039C95.3196 56.7672 95.0992 56.5469 94.8274 56.5469C94.7987 56.5469 94.7709 56.5506 94.7435 56.5554C94.6173 56.6647 94.4905 56.773 94.3635 56.8811C94.3465 56.931 94.3352 56.9835 94.3352 57.0391C94.3352 57.3109 94.5556 57.5313 94.8274 57.5313Z" fill="#0066CC"/>
<path d="M97.2883 59.9922C97.5602 59.9922 97.7805 59.7718 97.7805 59.5C97.7805 59.2282 97.5602 59.0078 97.2883 59.0078C97.0165 59.0078 96.7961 59.2282 96.7961 59.5C96.7961 59.7718 97.0165 59.9922 97.2883 59.9922Z" fill="#0066CC"/>
<path d="M94.8274 62.4531C95.0992 62.4531 95.3196 62.2327 95.3196 61.9609C95.3196 61.6891 95.0993 61.4688 94.8274 61.4688C94.5556 61.4688 94.3352 61.6891 94.3352 61.9609C94.3352 62.2327 94.5556 62.4531 94.8274 62.4531Z" fill="#0066CC"/>
<path d="M97.2883 64.914C97.5602 64.914 97.7805 64.6937 97.7805 64.4219C97.7805 64.15 97.5602 63.9297 97.2883 63.9297C97.0165 63.9297 96.7961 64.15 96.7961 64.4219C96.7961 64.6937 97.0165 64.914 97.2883 64.914Z" fill="#0066CC"/>
<path d="M94.8274 67.375C95.0992 67.375 95.3196 67.1546 95.3196 66.8828C95.3196 66.611 95.0993 66.3906 94.8274 66.3906C94.5556 66.3906 94.3352 66.611 94.3352 66.8828C94.3352 67.1546 94.5556 67.375 94.8274 67.375Z" fill="#0066CC"/>
<path d="M97.2883 69.8359C97.5602 69.8359 97.7805 69.6155 97.7805 69.3437C97.7805 69.0719 97.5602 68.8516 97.2883 68.8516C97.0165 68.8516 96.7961 69.0719 96.7961 69.3437C96.7961 69.6155 97.0165 69.8359 97.2883 69.8359Z" fill="#0066CC"/>
<path d="M94.8274 72.2968C95.0992 72.2968 95.3196 72.0765 95.3196 71.8047C95.3196 71.5329 95.0993 71.3125 94.8274 71.3125C94.5556 71.3125 94.3352 71.5329 94.3352 71.8047C94.3352 72.0765 94.5556 72.2968 94.8274 72.2968Z" fill="#0066CC"/>
<path d="M92.3664 59.9922C92.6383 59.9922 92.8586 59.7718 92.8586 59.5C92.8586 59.2282 92.6383 59.0078 92.3664 59.0078C92.0946 59.0078 91.8743 59.2282 91.8743 59.5C91.8743 59.7718 92.0946 59.9922 92.3664 59.9922Z" fill="#0066CC"/>
<path d="M89.9055 61.4688C89.6337 61.4688 89.4133 61.6891 89.4133 61.9609C89.4133 62.2327 89.6337 62.4531 89.9055 62.4531C90.1773 62.4531 90.3977 62.2327 90.3977 61.9609C90.3977 61.6891 90.1773 61.4688 89.9055 61.4688Z" fill="#0066CC"/>
<path d="M92.3664 64.914C92.6383 64.914 92.8586 64.6937 92.8586 64.4219C92.8586 64.15 92.6383 63.9297 92.3664 63.9297C92.0946 63.9297 91.8743 64.15 91.8743 64.4219C91.8743 64.6937 92.0946 64.914 92.3664 64.914Z" fill="#0066CC"/>
<path d="M89.9055 66.3906C89.6337 66.3906 89.4133 66.611 89.4133 66.8828C89.4133 67.1546 89.6337 67.375 89.9055 67.375C90.1773 67.375 90.3977 67.1546 90.3977 66.8828C90.3977 66.611 90.1773 66.3906 89.9055 66.3906Z" fill="#0066CC"/>
<path d="M92.3664 69.8359C92.6383 69.8359 92.8586 69.6155 92.8586 69.3437C92.8586 69.0719 92.6383 68.8516 92.3664 68.8516C92.0946 68.8516 91.8743 69.0719 91.8743 69.3437C91.8743 69.6155 92.0946 69.8359 92.3664 69.8359Z" fill="#0066CC"/>
<path d="M89.9055 71.3125C89.6337 71.3125 89.4133 71.5329 89.4133 71.8047C89.4133 72.0765 89.6337 72.2968 89.9055 72.2968C90.1773 72.2968 90.3977 72.0765 90.3977 71.8047C90.3977 71.5329 90.1773 71.3125 89.9055 71.3125Z" fill="#0066CC"/>
<path d="M87.4446 63.9297C87.1728 63.9297 86.9524 64.15 86.9524 64.4219C86.9524 64.6937 87.1728 64.914 87.4446 64.914C87.7165 64.914 87.9368 64.6937 87.9368 64.4219C87.9368 64.15 87.7164 63.9297 87.4446 63.9297Z" fill="#0066CC"/>
<path d="M84.9837 66.3906C84.7118 66.3906 84.4915 66.611 84.4915 66.8828C84.4915 67.1546 84.7118 67.375 84.9837 67.375C85.2555 67.375 85.4758 67.1546 85.4758 66.8828C85.4758 66.611 85.2555 66.3906 84.9837 66.3906Z" fill="#0066CC"/>
<path d="M87.4446 68.8516C87.1728 68.8516 86.9524 69.0719 86.9524 69.3437C86.9524 69.6155 87.1728 69.8359 87.4446 69.8359C87.7165 69.8359 87.9368 69.6155 87.9368 69.3437C87.9368 69.0719 87.7164 68.8516 87.4446 68.8516Z" fill="#0066CC"/>
<path d="M84.9837 71.3125C84.7118 71.3125 84.4915 71.5329 84.4915 71.8047C84.4915 72.0765 84.7118 72.2968 84.9837 72.2968C85.2555 72.2968 85.4758 72.0765 85.4758 71.8047C85.4758 71.5329 85.2555 71.3125 84.9837 71.3125Z" fill="#0066CC"/>
<path d="M82.5226 64.9141C82.7637 64.9141 82.9634 64.7405 83.0057 64.5117C82.7775 64.6322 82.549 64.7515 82.3198 64.8694C82.3818 64.8975 82.4501 64.9141 82.5226 64.9141Z" fill="#0066CC"/>
<path d="M80.0617 67.375C80.3336 67.375 80.5539 67.1546 80.5539 66.8828C80.5539 66.611 80.3336 66.3906 80.0617 66.3906C79.7899 66.3906 79.5696 66.611 79.5696 66.8828C79.5696 67.1546 79.7899 67.375 80.0617 67.375Z" fill="#0066CC"/>
<path d="M82.5227 68.8516C82.2509 68.8516 82.0305 69.0719 82.0305 69.3437C82.0305 69.6155 82.2509 69.8359 82.5227 69.8359C82.7946 69.8359 83.0149 69.6155 83.0149 69.3437C83.0149 69.0719 82.7945 68.8516 82.5227 68.8516Z" fill="#0066CC"/>
<path d="M80.0617 72.2968C80.3336 72.2968 80.5539 72.0765 80.5539 71.8047C80.5539 71.5329 80.3336 71.3125 80.0617 71.3125C79.7899 71.3125 79.5696 71.5329 79.5696 71.8047C79.5696 72.0765 79.7899 72.2968 80.0617 72.2968Z" fill="#0066CC"/>
<path d="M77.6008 69.8359C77.8726 69.8359 78.093 69.6155 78.093 69.3437C78.093 69.0719 77.8726 68.8516 77.6008 68.8516C77.329 68.8516 77.1086 69.0719 77.1086 69.3437C77.1086 69.6155 77.329 69.8359 77.6008 69.8359Z" fill="#0066CC"/>
<path d="M75.1399 71.3125C74.8681 71.3125 74.6477 71.5329 74.6477 71.8047C74.6477 72.0765 74.8681 72.2968 75.1399 72.2968C75.4117 72.2968 75.6321 72.0765 75.6321 71.8047C75.6321 71.5329 75.4117 71.3125 75.1399 71.3125Z" fill="#0066CC"/>
<path d="M72.935 68.9253C72.6959 69.0111 72.4567 69.0946 72.2174 69.1782C72.1987 69.2301 72.1868 69.2853 72.1868 69.3438C72.1868 69.6156 72.4071 69.836 72.6789 69.836C72.9508 69.836 73.1711 69.6156 73.1711 69.3438C73.1711 69.1662 73.0761 69.0119 72.935 68.9253Z" fill="#0066CC"/>
<path d="M70.218 71.3125C69.9462 71.3125 69.7258 71.5329 69.7258 71.8047C69.7258 72.0765 69.9462 72.2968 70.218 72.2968C70.4898 72.2968 70.7102 72.0765 70.7102 71.8047C70.7102 71.5329 70.4898 71.3125 70.218 71.3125Z" fill="#0066CC"/>
<path d="M65.2962 71.3125C65.0243 71.3125 64.804 71.5329 64.804 71.8047C64.804 72.0765 65.0243 72.2968 65.2962 72.2968C65.568 72.2968 65.7883 72.0765 65.7883 71.8047C65.7883 71.5329 65.568 71.3125 65.2962 71.3125Z" fill="#0066CC"/>
<path d="M25.0104 13.256H90.1199C90.3034 13.256 90.4521 13.1073 90.4521 12.9238C90.4521 12.7403 90.3034 12.5916 90.1199 12.5916H25.0104C24.8269 12.5916 24.6782 12.7403 24.6782 12.9238C24.6782 13.1073 24.8269 13.256 25.0104 13.256Z" fill="#0066CC"/>
<path d="M25.0104 20.3874H90.1199C90.3034 20.3874 90.4521 20.2386 90.4521 20.0551C90.4521 19.8716 90.3034 19.7229 90.1199 19.7229H25.0104C24.8269 19.7229 24.6782 19.8716 24.6782 20.0551C24.6782 20.2386 24.8269 20.3874 25.0104 20.3874Z" fill="#0066CC"/>
<path d="M24.6782 47.7712C24.6782 47.9547 24.8269 48.1034 25.0104 48.1034H90.1199C90.3034 48.1034 90.4521 47.9547 90.4521 47.7712C90.4521 47.5877 90.3034 47.439 90.1199 47.439H25.0104C24.8269 47.439 24.6782 47.5877 24.6782 47.7712Z" fill="#0066CC"/>
<path d="M82.5321 54.8251C82.5321 54.6416 82.3833 54.4929 82.1998 54.4929H25.0104C24.8269 54.4929 24.6782 54.6416 24.6782 54.8251C24.6782 55.0087 24.8269 55.1574 25.0104 55.1574H82.1998C82.3833 55.1574 82.5321 55.0087 82.5321 54.8251Z" fill="#0066CC"/>
<path d="M66.2606 61.6201H25.0104C24.8269 61.6201 24.6782 61.7688 24.6782 61.9523C24.6782 62.1359 24.8269 62.2846 25.0104 62.2846H66.2606C66.4441 62.2846 66.5929 62.1359 66.5929 61.9523C66.5929 61.7688 66.4441 61.6201 66.2606 61.6201Z" fill="#0066CC"/>
<path d="M129.663 44.9088L130.291 43.0745C130.351 42.901 130.258 42.712 130.085 42.6526L122.531 40.0659L123.656 36.4155C123.709 36.2435 123.615 36.0603 123.445 36.0029L118.847 34.4531V6.3855H113.753C113.736 6.00643 113.718 5.62521 113.697 5.24198V0.838818C113.697 0.655309 113.548 0.506592 113.365 0.506592H0.782421C0.598913 0.506592 0.450195 0.655309 0.450195 0.838818V74.8806C0.450195 75.0641 0.598913 75.2128 0.782421 75.2128H6.26476V80.4272H118.847V49.4004L126.837 52.1365C126.872 52.1484 126.908 52.1544 126.945 52.1544C126.995 52.1544 127.045 52.1429 127.091 52.1205C127.17 52.0817 127.23 52.0132 127.259 51.9297L127.887 50.0953L131.84 51.449L133.616 46.2626L129.663 44.9088ZM15.3089 74.5483H14.0186C14.075 74.4683 14.1088 74.3711 14.1088 74.2657C14.1088 73.9939 13.8884 73.7736 13.6166 73.7736C13.3448 73.7736 13.1244 73.9939 13.1244 74.2657C13.1244 74.3711 13.1582 74.4683 13.2146 74.5483H9.09669C9.15312 74.4683 9.18689 74.3711 9.18689 74.2657C9.18689 73.9939 8.96653 73.7736 8.69471 73.7736C8.4229 73.7736 8.20254 73.9939 8.20254 74.2657C8.20254 74.3711 8.23632 74.4683 8.29273 74.5483H4.17485C4.23127 74.4683 4.26504 74.3711 4.26504 74.2657C4.26504 73.9939 4.04468 73.7736 3.77283 73.7736C3.50097 73.7736 3.28065 73.9939 3.28065 74.2657C3.28065 74.3711 3.31443 74.4683 3.37085 74.5483H1.11463V72.2552C1.17511 72.2817 1.24162 72.297 1.3119 72.297C1.58375 72.297 1.8041 72.0766 1.8041 71.8048C1.8041 71.533 1.58376 71.3126 1.31192 71.3126C1.24165 71.3126 1.17511 71.3279 1.11463 71.3544V67.3333C1.17511 67.3599 1.24162 67.3751 1.3119 67.3751C1.58375 67.3751 1.8041 67.1548 1.8041 66.8829C1.8041 66.6111 1.58376 66.3908 1.31192 66.3908C1.24165 66.3908 1.17511 66.406 1.11463 66.4326V62.4115C1.17511 62.438 1.24162 62.4533 1.3119 62.4533C1.58375 62.4533 1.8041 62.2329 1.8041 61.9611C1.8041 61.6893 1.58376 61.4689 1.31192 61.4689C1.24165 61.4689 1.17511 61.4842 1.11463 61.5107V57.4897C1.17511 57.5162 1.24162 57.5315 1.3119 57.5315C1.58375 57.5314 1.8041 57.311 1.8041 57.0392C1.8041 56.7674 1.58376 56.5471 1.31192 56.5471C1.24165 56.5471 1.17511 56.5623 1.11463 56.5888V52.5678C1.17511 52.5943 1.24162 52.6096 1.3119 52.6096C1.58375 52.6095 1.8041 52.3892 1.8041 52.1174C1.8041 51.8456 1.58376 51.6253 1.31192 51.6252C1.24165 51.6252 1.17511 51.6404 1.11463 51.667V47.646C1.17511 47.6725 1.24162 47.6877 1.3119 47.6877C1.58375 47.6877 1.8041 47.4674 1.8041 47.1956C1.8041 46.9238 1.58376 46.7034 1.31192 46.7033C1.24165 46.7033 1.17511 46.7186 1.11463 46.7451V42.7241C1.17511 42.7506 1.24162 42.7659 1.3119 42.7659C1.58375 42.7659 1.8041 42.5455 1.8041 42.2737C1.8041 42.0019 1.58376 41.7815 1.31192 41.7815C1.24165 41.7815 1.17511 41.7968 1.11463 41.8233V37.8022C1.17511 37.8288 1.24162 37.844 1.3119 37.844C1.58375 37.844 1.8041 37.6237 1.8041 37.3519C1.8041 37.08 1.58376 36.8597 1.31192 36.8597C1.24165 36.8597 1.17511 36.8749 1.11463 36.9015V32.8804C1.17511 32.9069 1.24162 32.9222 1.3119 32.9222C1.58375 32.9222 1.8041 32.7018 1.8041 32.43C1.8041 32.1582 1.58376 31.9378 1.31192 31.9378C1.24165 31.9378 1.17511 31.9531 1.11463 31.9796V27.9586C1.17511 27.9851 1.24162 28.0004 1.3119 28.0004C1.58375 28.0003 1.8041 27.7799 1.8041 27.5081C1.8041 27.2363 1.58376 27.016 1.31192 27.016C1.24165 27.016 1.17511 27.0312 1.11463 27.0578V23.0367C1.17511 23.0633 1.24162 23.0785 1.3119 23.0785C1.58375 23.0784 1.8041 22.8582 1.8041 22.5863C1.8041 22.3144 1.58376 22.0942 1.31192 22.0941C1.24165 22.0941 1.17511 22.1093 1.11463 22.1359V18.1149C1.17511 18.1414 1.24162 18.1567 1.3119 18.1567C1.58375 18.1567 1.8041 17.9363 1.8041 17.6645C1.8041 17.3927 1.58376 17.1723 1.31192 17.1722C1.24165 17.1722 1.17511 17.1875 1.11463 17.214V13.193C1.17511 13.2195 1.24162 13.2348 1.3119 13.2348C1.58375 13.2348 1.8041 13.0144 1.8041 12.7426C1.8041 12.4708 1.58376 12.2504 1.31192 12.2504C1.24165 12.2504 1.17511 12.2656 1.11463 12.2922V8.27114C1.17511 8.29768 1.24162 8.31293 1.3119 8.31293C1.58375 8.31293 1.8041 8.09257 1.8041 7.82076C1.8041 7.54894 1.58376 7.32858 1.31192 7.32858C1.24165 7.32858 1.17511 7.34383 1.11463 7.37038V3.34927C1.17511 3.37581 1.24162 3.39107 1.3119 3.39107C1.58375 3.39107 1.8041 3.17071 1.8041 2.8989C1.8041 2.62708 1.58376 2.40672 1.31192 2.40672C1.24165 2.40672 1.17511 2.42197 1.11463 2.44852V1.17127H15.3089L15.3089 74.5483ZM118.847 35.1543L122.926 36.5291L121.902 39.8505L118.847 38.8045V35.1543ZM113.032 74.5483H112.456C112.512 74.4682 112.546 74.3711 112.546 74.2657C112.546 73.9939 112.326 73.7736 112.054 73.7736C111.782 73.7736 111.562 73.9939 111.562 74.2657C111.562 74.3711 111.596 74.4682 111.652 74.5483H107.534C107.59 74.4682 107.624 74.3711 107.624 74.2657C107.624 73.9939 107.404 73.7736 107.132 73.7736C106.86 73.7736 106.64 73.9939 106.64 74.2657C106.64 74.3711 106.674 74.4682 106.73 74.5483H102.612C102.669 74.4682 102.702 74.3711 102.702 74.2657C102.702 73.9939 102.482 73.7736 102.21 73.7736C101.938 73.7736 101.718 73.9939 101.718 74.2657C101.718 74.3711 101.752 74.4682 101.808 74.5483H97.6903C97.7467 74.4682 97.7805 74.3711 97.7805 74.2657C97.7805 73.9939 97.5601 73.7736 97.2883 73.7736C97.0165 73.7736 96.7961 73.9939 96.7961 74.2657C96.7961 74.3711 96.8299 74.4682 96.8863 74.5483H92.7684C92.8248 74.4682 92.8586 74.3711 92.8586 74.2657C92.8586 73.9939 92.6383 73.7736 92.3664 73.7736C92.0946 73.7736 91.8742 73.9939 91.8742 74.2657C91.8742 74.3711 91.908 74.4682 91.9644 74.5483H87.8465C87.903 74.4682 87.9367 74.3711 87.9367 74.2657C87.9367 73.9939 87.7164 73.7736 87.4446 73.7736C87.1727 73.7736 86.9523 73.9939 86.9523 74.2657C86.9523 74.3711 86.9861 74.4682 87.0425 74.5483H82.9247C82.9811 74.4682 83.0148 74.3711 83.0148 74.2657C83.0148 73.9939 82.7945 73.7736 82.5227 73.7736C82.2509 73.7736 82.0305 73.9939 82.0305 74.2657C82.0305 74.3711 82.0642 74.4682 82.1207 74.5483H78.0028C78.0592 74.4682 78.093 74.3711 78.093 74.2657C78.093 73.9939 77.8726 73.7736 77.6008 73.7736C77.329 73.7736 77.1086 73.9939 77.1086 74.2657C77.1086 74.3711 77.1424 74.4682 77.1988 74.5483H73.0809C73.1373 74.4682 73.1711 74.3711 73.1711 74.2657C73.1711 73.9939 72.9508 73.7736 72.6789 73.7736C72.407 73.7736 72.1867 73.9939 72.1867 74.2657C72.1867 74.3711 72.2205 74.4682 72.2769 74.5483H68.159C68.2154 74.4682 68.2492 74.3711 68.2492 74.2657C68.2492 73.9939 68.0289 73.7736 67.757 73.7736C67.4852 73.7736 67.2648 73.9939 67.2648 74.2657C67.2648 74.3711 67.2986 74.4682 67.355 74.5483H63.2371C63.2936 74.4682 63.3273 74.3711 63.3273 74.2657C63.3273 73.9939 63.107 73.7736 62.8352 73.7736C62.5633 73.7736 62.3429 73.9939 62.3429 74.2657C62.3429 74.3711 62.3767 74.4682 62.4331 74.5483H58.3153C58.3717 74.4682 58.4055 74.3711 58.4055 74.2657C58.4055 73.9939 58.1851 73.7736 57.9133 73.7736C57.6414 73.7736 57.4211 73.9939 57.4211 74.2657C57.4211 74.3711 57.4549 74.4682 57.5113 74.5483H53.3934C53.4498 74.4682 53.4836 74.3711 53.4836 74.2657C53.4836 74.0156 53.2963 73.8113 53.0548 73.7799C52.9653 73.793 52.875 73.807 52.7857 73.8199C52.617 73.8979 52.4992 74.0676 52.4992 74.2657C52.4992 74.3711 52.533 74.4682 52.5894 74.5483H48.4696C48.5096 74.4916 48.5394 74.4271 48.5526 74.3562C48.2381 74.3906 47.9257 74.4238 47.6155 74.4555C47.6293 74.4887 47.6478 74.5192 47.6683 74.5483H15.9733V1.17104H113.032V32.4933L96.2505 26.8368L90.7901 24.9963C90.6165 24.938 90.4279 25.0311 90.3692 25.205C90.3106 25.3789 90.404 25.5673 90.5779 25.626L96.0383 27.4665L113.032 33.1944V36.8134L85.6629 27.4413H90.1199C90.3034 27.4413 90.4521 27.2926 90.4521 27.1091C90.4521 26.9256 90.3034 26.7768 90.1199 26.7768H83.7225L75.3283 23.9024C75.264 23.8806 75.195 23.8795 75.1303 23.8978C75.109 23.8724 75.0841 23.8495 75.055 23.8309C74.9253 23.7484 74.7562 23.7658 74.6459 23.8723C72.641 25.8095 66.4137 25.0498 65.923 24.9861L64.3591 24.437C64.1861 24.3758 63.9963 24.4671 63.9355 24.6403C63.8747 24.8134 63.9658 25.0031 64.139 25.0638L65.7101 25.6155C65.7205 25.621 65.7301 25.6269 65.7405 25.6324L65.8463 25.7612C66.2844 26.0826 66.6918 26.4233 67.0713 26.7768H25.0104C24.8269 26.7768 24.6782 26.9255 24.6782 27.109C24.6782 27.2926 24.8269 27.4413 25.0104 27.4413H67.7383C69.8735 29.7127 70.9681 32.3423 71.4723 33.9041H25.0104C24.8269 33.9041 24.6782 34.0528 24.6782 34.2363C24.6782 34.4198 24.8269 34.5686 25.0104 34.5686H71.6716C71.7946 35.014 71.8443 35.2757 71.8443 35.2757L71.8483 35.2645L86.5759 40.3078H25.0104C24.8269 40.3078 24.6782 40.4565 24.6782 40.64C24.6782 40.8235 24.8269 40.9722 25.0104 40.9722H88.5163L113.032 49.3674V74.5483ZM126.738 51.4002L72.6104 32.8652L75.4274 24.6386L129.555 43.1736L126.738 51.4002Z" fill="#0066CC"/>
</g>
<defs>
<clipPath id="clip0_5694_9037">
<rect width="133.289" height="80" fill="white" transform="translate(0.355469 0.5)"/>
</clipPath>
</defs>
</svg>
