<?xml version="1.0" encoding="UTF-8"?>
<svg width="228px" height="228px" viewBox="0 0 228 228" version="1.1" xmlns="http://www.w3.org/2000/svg" xmlns:xlink="http://www.w3.org/1999/xlink">
    <title>PF-social-dark-square </title>
    <defs>
        <linearGradient x1="100%" y1="1.31838984e-13%" x2="40.4021492%" y2="59.4473677%" id="linearGradient-1">
            <stop stop-color="#FFFFFF" offset="0%"></stop>
            <stop stop-color="#FFFFFF" stop-opacity="0.498497596" offset="100%"></stop>
        </linearGradient>
    </defs>
    <g id="PF-social-dark-square" stroke="none" stroke-width="1" fill="none" fill-rule="evenodd">
        <g id="Group-2">
            <rect id="Rectangle" fill="#212427" x="0" y="0" width="228" height="228" rx="8"></rect>
            <g id="Group" transform="translate(27, 27)">
                <path d="M69,0 L175,0 L175,106 C116.457817,106 69,58.5421835 69,0 L69,0 L69,0 Z" id="Rectangle-Copy-15" fill="#FFFFFF" opacity="0.4"></path>
                <path d="M175,2.04658255 L175,152.848101 C175,165.082257 165.082257,175 152.848101,175 L73.5063044,175 L175,2.04658255 Z M172.953417,1.42108547e-14 L1.98951966e-13,101.493696 L1.98951966e-13,22.1518987 C1.98951966e-13,9.91774288 9.91774288,1.42108547e-14 22.1518987,0 L172.953417,1.42108547e-14 Z" id="Combined-Shape-Copy-4" fill="url(#linearGradient-1)"></path>
            </g>
        </g>
    </g>
</svg>