<svg width="346" height="98" viewBox="0 0 346 98" fill="none" xmlns="http://www.w3.org/2000/svg">
<g clip-path="url(#clip0_329_54389)">
<rect width="346" height="98" fill="white"/>
<g clip-path="url(#clip1_329_54389)">
<g clip-path="url(#clip2_329_54389)">
<circle cx="43" cy="35" r="24" fill="#F2F2F2"/>
<mask id="mask0_329_54389" style="mask-type:luminance" maskUnits="userSpaceOnUse" x="19" y="11" width="48" height="48">
<circle cx="43" cy="35" r="24" fill="white"/>
</mask>
<g mask="url(#mask0_329_54389)">
<path fill-rule="evenodd" clip-rule="evenodd" d="M42.5255 37.8076C37.8588 37.8076 33.9922 33.9422 33.9922 29.2772C33.9922 24.6121 37.8588 20.7468 42.5255 20.7468C47.1921 20.7468 51.0588 24.6121 51.0588 29.2772C51.0588 33.9422 47.3255 37.8076 42.5255 37.8076Z" fill="#C7C7C7"/>
<path d="M36.6573 58.9849V50.0547C33.9906 50.5878 32.7906 51.9207 32.524 54.7197L32.3906 58.9849H36.6573Z" fill="#C7C7C7"/>
<path d="M32.3916 59L32.525 54.7348C32.7916 51.9358 33.9916 50.6029 36.6583 50.0698V59H49.1916V50.0698C51.8582 50.6029 53.0582 51.9358 53.3249 54.7348L53.4582 59H59.7249C59.1915 53.8018 57.9915 47.0042 55.8582 44.3384C54.3915 42.4724 52.7916 41.4061 51.1916 40.873C49.5916 40.3398 48.7916 40.0732 42.7916 40.0732C36.7916 40.0732 34.6583 41.0063 34.6583 41.0063C33.0583 41.5394 31.4583 42.6057 30.125 44.4717C27.8583 47.0042 26.6583 53.9351 26.125 59H32.3916Z" fill="#C7C7C7"/>
<path d="M53.4594 58.9849L53.3261 54.7197C53.0594 51.9207 51.8594 50.5878 49.1927 50.0547V58.9849H53.4594Z" fill="#C7C7C7"/>
<path d="M66.5 34.9918C66.5 47.9657 55.9789 58.4835 43 58.4835C30.0211 58.4835 19.5 47.9657 19.5 34.9918C19.5 22.0178 30.0211 11.5 43 11.5C55.9789 11.5 66.5 22.0178 66.5 34.9918Z" stroke="#C7C7C7"/>
</g>
</g>
</g>
<path d="M96.096 26.154C95.2653 26.154 94.5373 25.9767 93.912 25.622C93.296 25.2673 92.82 24.7633 92.484 24.11C92.148 23.4567 91.98 22.6867 91.98 21.8V16.2H93.66V21.8C93.66 22.3787 93.758 22.878 93.954 23.298C94.1593 23.718 94.444 24.0493 94.808 24.292C95.172 24.5253 95.6013 24.642 96.096 24.642C96.5907 24.642 97.02 24.5253 97.384 24.292C97.7573 24.0493 98.042 23.718 98.238 23.298C98.434 22.878 98.532 22.3787 98.532 21.8V16.2H100.212V21.8C100.212 22.6867 100.044 23.4567 99.708 24.11C99.3813 24.7633 98.91 25.2673 98.294 25.622C97.678 25.9767 96.9453 26.154 96.096 26.154ZM104.614 26.14C104.017 26.14 103.457 26.0607 102.934 25.902C102.421 25.734 101.977 25.496 101.604 25.188L102.346 24.138C102.813 24.4273 103.214 24.6327 103.55 24.754C103.895 24.8753 104.245 24.936 104.6 24.936C105.02 24.936 105.361 24.8473 105.622 24.67C105.883 24.4927 106.014 24.264 106.014 23.984C106.014 23.7693 105.935 23.6013 105.776 23.48C105.627 23.3493 105.379 23.2513 105.034 23.186L103.802 22.976C103.121 22.8453 102.612 22.6213 102.276 22.304C101.94 21.9867 101.772 21.5667 101.772 21.044C101.772 20.6053 101.884 20.2273 102.108 19.91C102.341 19.5833 102.659 19.3313 103.06 19.154C103.471 18.9673 103.947 18.874 104.488 18.874C104.973 18.874 105.445 18.944 105.902 19.084C106.359 19.224 106.807 19.434 107.246 19.714L106.504 20.764C106.149 20.5307 105.795 20.3627 105.44 20.26C105.095 20.148 104.745 20.092 104.39 20.092C104.026 20.092 103.732 20.1667 103.508 20.316C103.293 20.456 103.186 20.652 103.186 20.904C103.186 21.128 103.256 21.3007 103.396 21.422C103.545 21.534 103.802 21.618 104.166 21.674L105.412 21.912C106.112 22.0333 106.63 22.2573 106.966 22.584C107.311 22.9013 107.484 23.326 107.484 23.858C107.484 24.2873 107.358 24.6747 107.106 25.02C106.854 25.3653 106.513 25.6407 106.084 25.846C105.655 26.042 105.165 26.14 104.614 26.14ZM112.263 26.14C111.591 26.14 110.985 25.9813 110.443 25.664C109.902 25.3373 109.473 24.9033 109.155 24.362C108.838 23.8113 108.679 23.1907 108.679 22.5C108.679 21.8093 108.829 21.1933 109.127 20.652C109.426 20.1107 109.832 19.6813 110.345 19.364C110.868 19.0373 111.447 18.874 112.081 18.874C112.735 18.874 113.309 19.0327 113.803 19.35C114.307 19.6673 114.699 20.0967 114.979 20.638C115.269 21.1793 115.413 21.8 115.413 22.5V22.878H110.233C110.289 23.2607 110.411 23.6013 110.597 23.9C110.793 24.1893 111.041 24.418 111.339 24.586C111.647 24.754 111.979 24.838 112.333 24.838C112.66 24.838 112.968 24.782 113.257 24.67C113.556 24.5487 113.803 24.3853 113.999 24.18L115.035 25.118C114.606 25.4727 114.167 25.734 113.719 25.902C113.281 26.0607 112.795 26.14 112.263 26.14ZM110.247 21.898H113.915C113.859 21.562 113.743 21.2633 113.565 21.002C113.397 20.7407 113.183 20.5353 112.921 20.386C112.669 20.2367 112.389 20.162 112.081 20.162C111.773 20.162 111.489 20.2367 111.227 20.386C110.975 20.526 110.765 20.7267 110.597 20.988C110.429 21.2493 110.313 21.5527 110.247 21.898ZM117.027 26V18.986H118.609V20.498C118.814 19.966 119.08 19.56 119.407 19.28C119.734 19 120.112 18.86 120.541 18.86C120.672 18.8693 120.788 18.8833 120.891 18.902C120.994 18.9113 121.106 18.944 121.227 19V20.386C121.106 20.33 120.966 20.288 120.807 20.26C120.658 20.232 120.508 20.218 120.359 20.218C119.976 20.218 119.631 20.3207 119.323 20.526C119.024 20.7313 118.786 21.016 118.609 21.38V26H117.027Z" fill="#151515"/>
<path d="M131.836 25.5V18.036L130.492 18.636V17.844L132.16 17.1H132.7V25.5H131.836ZM135.18 25.596C135.004 25.596 134.852 25.532 134.724 25.404C134.604 25.276 134.544 25.124 134.544 24.948C134.544 24.764 134.604 24.612 134.724 24.492C134.852 24.364 135.004 24.3 135.18 24.3C135.356 24.3 135.504 24.364 135.624 24.492C135.752 24.612 135.816 24.764 135.816 24.948C135.816 25.124 135.752 25.276 135.624 25.404C135.504 25.532 135.356 25.596 135.18 25.596ZM135.18 20.832C135.004 20.832 134.852 20.768 134.724 20.64C134.604 20.512 134.544 20.36 134.544 20.184C134.544 20 134.604 19.848 134.724 19.728C134.852 19.6 135.004 19.536 135.18 19.536C135.356 19.536 135.504 19.6 135.624 19.728C135.752 19.848 135.816 20 135.816 20.184C135.816 20.36 135.752 20.512 135.624 20.64C135.504 20.768 135.356 20.832 135.18 20.832ZM140.064 25.632C139.488 25.632 138.948 25.532 138.444 25.332C137.948 25.132 137.508 24.836 137.124 24.444L137.7 23.88C138.052 24.232 138.412 24.488 138.78 24.648C139.156 24.8 139.58 24.876 140.052 24.876C140.46 24.876 140.82 24.804 141.132 24.66C141.452 24.516 141.7 24.316 141.876 24.06C142.052 23.804 142.14 23.512 142.14 23.184C142.14 22.872 142.06 22.596 141.9 22.356C141.748 22.108 141.536 21.916 141.264 21.78C140.992 21.644 140.68 21.576 140.328 21.576H139.332V20.832H140.292C140.748 20.832 141.116 20.692 141.396 20.412C141.684 20.132 141.828 19.768 141.828 19.32C141.828 19.024 141.748 18.756 141.588 18.516C141.428 18.276 141.208 18.088 140.928 17.952C140.656 17.808 140.348 17.736 140.004 17.736C139.572 17.736 139.184 17.816 138.84 17.976C138.504 18.128 138.16 18.388 137.808 18.756L137.232 18.18C137.608 17.78 138.032 17.48 138.504 17.28C138.976 17.072 139.48 16.968 140.016 16.968C140.528 16.968 140.984 17.068 141.384 17.268C141.792 17.468 142.112 17.744 142.344 18.096C142.576 18.44 142.692 18.832 142.692 19.272C142.692 19.712 142.548 20.108 142.26 20.46C141.972 20.804 141.592 21.044 141.12 21.18C141.688 21.308 142.144 21.556 142.488 21.924C142.832 22.292 143.004 22.72 143.004 23.208C143.004 23.672 142.876 24.088 142.62 24.456C142.372 24.824 142.024 25.112 141.576 25.32C141.136 25.528 140.632 25.632 140.064 25.632ZM147.554 25.632C146.914 25.632 146.346 25.448 145.85 25.08C145.362 24.712 144.978 24.204 144.698 23.556C144.418 22.9 144.278 22.148 144.278 21.3C144.278 20.444 144.418 19.692 144.698 19.044C144.978 18.396 145.362 17.888 145.85 17.52C146.346 17.152 146.914 16.968 147.554 16.968C148.194 16.968 148.758 17.152 149.246 17.52C149.742 17.888 150.13 18.396 150.41 19.044C150.69 19.692 150.83 20.444 150.83 21.3C150.83 22.148 150.69 22.9 150.41 23.556C150.13 24.204 149.742 24.712 149.246 25.08C148.758 25.448 148.194 25.632 147.554 25.632ZM147.554 24.852C148.042 24.852 148.462 24.708 148.814 24.42C149.174 24.124 149.454 23.712 149.654 23.184C149.854 22.648 149.954 22.02 149.954 21.3C149.954 20.58 149.854 19.956 149.654 19.428C149.454 18.892 149.174 18.48 148.814 18.192C148.462 17.896 148.042 17.748 147.554 17.748C147.074 17.748 146.654 17.896 146.294 18.192C145.934 18.48 145.654 18.892 145.454 19.428C145.254 19.956 145.154 20.58 145.154 21.3C145.154 22.02 145.254 22.648 145.454 23.184C145.654 23.712 145.934 24.124 146.294 24.42C146.654 24.708 147.074 24.852 147.554 24.852ZM155.384 25.5V17.1H158.852C159.396 17.1 159.868 17.204 160.268 17.412C160.668 17.612 160.976 17.9 161.192 18.276C161.416 18.644 161.528 19.08 161.528 19.584C161.528 20.08 161.416 20.516 161.192 20.892C160.976 21.268 160.668 21.56 160.268 21.768C159.868 21.968 159.396 22.068 158.852 22.068H156.308V25.5H155.384ZM156.308 21.276H158.744C159.328 21.276 159.784 21.124 160.112 20.82C160.44 20.516 160.604 20.104 160.604 19.584C160.604 19.064 160.44 18.656 160.112 18.36C159.784 18.064 159.328 17.916 158.744 17.916H156.308V21.276ZM163.236 25.5V17.1H164.52L167.328 23.076L170.136 17.1H171.42V25.5H170.544V18.192L167.328 24.9L164.1 18.168V25.5H163.236Z" fill="#151515"/>
<path d="M91 46C91 42.6863 93.6863 40 97 40H283C286.314 40 289 42.6863 289 46V89C289 92.3137 286.314 95 283 95H97C93.6863 95 91 92.3137 91 89V46Z" fill="white"/>
<path d="M107 59.5C107 57.2909 108.791 55.5 111 55.5H127C129.209 55.5 131 57.2909 131 59.5V75.5C131 77.7091 129.209 79.5 127 79.5H111C108.791 79.5 107 77.7091 107 75.5V59.5Z" fill="#147878"/>
<g clip-path="url(#clip3_329_54389)">
<path d="M120.82 61.13C120.395 61.0075 119.952 61.255 119.83 61.68L116.63 72.88C116.507 73.305 116.755 73.7475 117.18 73.87C117.605 73.9925 118.047 73.745 118.17 73.32L121.37 62.12C121.492 61.695 121.245 61.2525 120.82 61.13ZM122.835 64.1325C122.522 64.445 122.522 64.9525 122.835 65.265L125.067 67.5L122.832 69.735C122.52 70.0475 122.52 70.555 122.832 70.8675C123.145 71.18 123.652 71.18 123.965 70.8675L126.765 68.0675C127.077 67.755 127.077 67.2475 126.765 66.935L123.965 64.135C123.652 63.8225 123.145 63.8225 122.832 64.135L122.835 64.1325ZM115.167 64.1325C114.855 63.82 114.347 63.82 114.035 64.1325L111.235 66.9325C110.922 67.245 110.922 67.7525 111.235 68.065L114.035 70.865C114.347 71.1775 114.855 71.1775 115.167 70.865C115.48 70.5525 115.48 70.045 115.167 69.7325L112.932 67.5L115.167 65.265C115.48 64.9525 115.48 64.445 115.167 64.1325Z" fill="white"/>
</g>
<path d="M142.164 63.126C141.679 63.126 141.249 63.0373 140.876 62.86C140.503 62.6827 140.209 62.44 139.994 62.132C139.789 61.8147 139.686 61.4507 139.686 61.04C139.686 60.6293 139.793 60.2747 140.008 59.976C140.223 59.668 140.521 59.43 140.904 59.262C141.287 59.094 141.735 59.01 142.248 59.01C142.64 59.01 143.009 59.052 143.354 59.136C143.709 59.22 144.035 59.3553 144.334 59.542V58.604C144.334 58.044 144.185 57.624 143.886 57.344C143.587 57.0547 143.149 56.91 142.57 56.91C142.253 56.91 141.926 56.9567 141.59 57.05C141.263 57.1433 140.899 57.2927 140.498 57.498L140.12 56.714C141.035 56.2753 141.893 56.056 142.696 56.056C143.545 56.056 144.199 56.266 144.656 56.686C145.113 57.0967 145.342 57.6893 145.342 58.464V63H144.334V62.202C144.035 62.51 143.704 62.7433 143.34 62.902C142.976 63.0513 142.584 63.126 142.164 63.126ZM140.666 61.012C140.666 61.4133 140.82 61.7353 141.128 61.978C141.445 62.2207 141.861 62.342 142.374 62.342C142.757 62.342 143.107 62.2767 143.424 62.146C143.751 62.0153 144.054 61.8193 144.334 61.558V60.242C144.045 60.074 143.746 59.9527 143.438 59.878C143.13 59.794 142.785 59.752 142.402 59.752C141.879 59.752 141.459 59.8687 141.142 60.102C140.825 60.326 140.666 60.6293 140.666 61.012ZM149.787 63.112C149.301 63.112 148.872 63.0047 148.499 62.79C148.125 62.5753 147.831 62.2767 147.617 61.894C147.411 61.5113 147.309 61.0727 147.309 60.578V56.168H148.345V60.284C148.345 60.8907 148.508 61.3713 148.835 61.726C149.161 62.0807 149.605 62.258 150.165 62.258C150.547 62.258 150.888 62.1693 151.187 61.992C151.495 61.8147 151.751 61.558 151.957 61.222V56.168H152.979V63H151.957V61.894C151.695 62.2953 151.383 62.5987 151.019 62.804C150.664 63.0093 150.253 63.112 149.787 63.112ZM157.679 63.14C157.091 63.14 156.643 63 156.335 62.72C156.037 62.4307 155.887 62.0153 155.887 61.474V57.008H154.473V56.168H155.887V54.292L156.909 54.054V56.168H158.869V57.008H156.909V61.208C156.909 61.572 156.984 61.8333 157.133 61.992C157.292 62.1507 157.549 62.23 157.903 62.23C158.081 62.23 158.239 62.216 158.379 62.188C158.519 62.16 158.683 62.1133 158.869 62.048V62.958C158.683 63.0233 158.487 63.07 158.281 63.098C158.076 63.126 157.875 63.14 157.679 63.14ZM160.366 63V52.892L161.388 52.682V57.274C161.65 56.8633 161.962 56.56 162.326 56.364C162.69 56.1587 163.101 56.056 163.558 56.056C164.053 56.056 164.482 56.1633 164.846 56.378C165.22 56.5833 165.509 56.8773 165.714 57.26C165.929 57.6333 166.036 58.072 166.036 58.576V63H165.014V58.87C165.014 58.2633 164.846 57.7873 164.51 57.442C164.184 57.0873 163.74 56.91 163.18 56.91C162.807 56.91 162.466 56.9987 162.158 57.176C161.85 57.3533 161.594 57.6147 161.388 57.96V63H160.366ZM167.895 59.5V58.618H172.557V59.5H167.895ZM177.623 63.112C176.988 63.112 176.419 62.958 175.915 62.65C175.411 62.342 175.014 61.922 174.725 61.39C174.435 60.858 174.291 60.256 174.291 59.584C174.291 58.912 174.435 58.31 174.725 57.778C175.014 57.246 175.411 56.826 175.915 56.518C176.419 56.21 176.988 56.056 177.623 56.056C178.248 56.056 178.808 56.21 179.303 56.518C179.807 56.826 180.203 57.246 180.493 57.778C180.782 58.31 180.927 58.912 180.927 59.584C180.927 60.256 180.782 60.858 180.493 61.39C180.203 61.922 179.807 62.342 179.303 62.65C178.808 62.958 178.248 63.112 177.623 63.112ZM177.609 62.216C178.057 62.216 178.453 62.104 178.799 61.88C179.144 61.6467 179.415 61.3293 179.611 60.928C179.816 60.5267 179.919 60.0787 179.919 59.584C179.919 59.08 179.816 58.632 179.611 58.24C179.415 57.8387 179.144 57.526 178.799 57.302C178.453 57.0687 178.057 56.952 177.609 56.952C177.161 56.952 176.764 57.0687 176.419 57.302C176.073 57.526 175.798 57.8387 175.593 58.24C175.397 58.632 175.299 59.08 175.299 59.584C175.299 60.0787 175.397 60.5267 175.593 60.928C175.798 61.3293 176.073 61.6467 176.419 61.88C176.764 62.104 177.161 62.216 177.609 62.216ZM182.72 65.926V56.168H183.728V57.148C183.989 56.8027 184.307 56.5413 184.68 56.364C185.063 56.1773 185.483 56.084 185.94 56.084C186.537 56.084 187.069 56.2427 187.536 56.56C188.012 56.868 188.39 57.288 188.67 57.82C188.95 58.3427 189.09 58.9307 189.09 59.584C189.09 60.2373 188.945 60.83 188.656 61.362C188.376 61.894 187.993 62.3187 187.508 62.636C187.032 62.944 186.491 63.098 185.884 63.098C185.455 63.098 185.058 63.0187 184.694 62.86C184.33 62.692 184.013 62.454 183.742 62.146V65.926H182.72ZM185.688 62.216C186.145 62.216 186.551 62.104 186.906 61.88C187.27 61.6467 187.555 61.334 187.76 60.942C187.975 60.5407 188.082 60.0927 188.082 59.598C188.082 59.094 187.975 58.646 187.76 58.254C187.555 57.862 187.27 57.554 186.906 57.33C186.551 57.0967 186.145 56.98 185.688 56.98C185.287 56.98 184.913 57.064 184.568 57.232C184.232 57.3907 183.957 57.6193 183.742 57.918V61.264C183.966 61.5627 184.246 61.796 184.582 61.964C184.927 62.132 185.296 62.216 185.688 62.216ZM193.962 63.14C193.327 63.14 192.753 62.986 192.24 62.678C191.727 62.3607 191.321 61.936 191.022 61.404C190.723 60.8627 190.574 60.256 190.574 59.584C190.574 58.912 190.714 58.31 190.994 57.778C191.283 57.246 191.671 56.826 192.156 56.518C192.641 56.21 193.183 56.056 193.78 56.056C194.387 56.056 194.923 56.21 195.39 56.518C195.866 56.8167 196.239 57.2273 196.51 57.75C196.79 58.2633 196.93 58.8467 196.93 59.5V59.808H191.568C191.605 60.2747 191.731 60.6947 191.946 61.068C192.17 61.432 192.459 61.7213 192.814 61.936C193.178 62.1413 193.575 62.244 194.004 62.244C194.359 62.244 194.699 62.1833 195.026 62.062C195.362 61.9313 195.647 61.7587 195.88 61.544L196.524 62.23C196.132 62.538 195.726 62.7667 195.306 62.916C194.886 63.0653 194.438 63.14 193.962 63.14ZM191.596 59.08H195.922C195.875 58.6693 195.749 58.3053 195.544 57.988C195.348 57.6613 195.096 57.4047 194.788 57.218C194.489 57.0313 194.153 56.938 193.78 56.938C193.407 56.938 193.066 57.0313 192.758 57.218C192.45 57.3953 192.193 57.6473 191.988 57.974C191.792 58.2913 191.661 58.66 191.596 59.08ZM198.675 63V56.168H199.697V57.568C199.874 57.092 200.126 56.7233 200.453 56.462C200.789 56.1913 201.172 56.056 201.601 56.056C201.722 56.056 201.834 56.0653 201.937 56.084C202.04 56.0933 202.142 56.1167 202.245 56.154V57.078C202.133 57.0407 202.012 57.0127 201.881 56.994C201.76 56.966 201.643 56.952 201.531 56.952C201.111 56.952 200.742 57.0733 200.425 57.316C200.117 57.5587 199.874 57.8993 199.697 58.338V63H198.675ZM205.424 63.126C204.938 63.126 204.509 63.0373 204.136 62.86C203.762 62.6827 203.468 62.44 203.254 62.132C203.048 61.8147 202.946 61.4507 202.946 61.04C202.946 60.6293 203.053 60.2747 203.268 59.976C203.482 59.668 203.781 59.43 204.164 59.262C204.546 59.094 204.994 59.01 205.508 59.01C205.9 59.01 206.268 59.052 206.614 59.136C206.968 59.22 207.295 59.3553 207.594 59.542V58.604C207.594 58.044 207.444 57.624 207.146 57.344C206.847 57.0547 206.408 56.91 205.83 56.91C205.512 56.91 205.186 56.9567 204.85 57.05C204.523 57.1433 204.159 57.2927 203.758 57.498L203.38 56.714C204.294 56.2753 205.153 56.056 205.956 56.056C206.805 56.056 207.458 56.266 207.916 56.686C208.373 57.0967 208.602 57.6893 208.602 58.464V63H207.594V62.202C207.295 62.51 206.964 62.7433 206.6 62.902C206.236 63.0513 205.844 63.126 205.424 63.126ZM203.926 61.012C203.926 61.4133 204.08 61.7353 204.388 61.978C204.705 62.2207 205.12 62.342 205.634 62.342C206.016 62.342 206.366 62.2767 206.684 62.146C207.01 62.0153 207.314 61.8193 207.594 61.558V60.242C207.304 60.074 207.006 59.9527 206.698 59.878C206.39 59.794 206.044 59.752 205.662 59.752C205.139 59.752 204.719 59.8687 204.402 60.102C204.084 60.326 203.926 60.6293 203.926 61.012ZM213.078 63.14C212.49 63.14 212.042 63 211.734 62.72C211.435 62.4307 211.286 62.0153 211.286 61.474V57.008H209.872V56.168H211.286V54.292L212.308 54.054V56.168H214.268V57.008H212.308V61.208C212.308 61.572 212.382 61.8333 212.532 61.992C212.69 62.1507 212.947 62.23 213.302 62.23C213.479 62.23 213.638 62.216 213.778 62.188C213.918 62.16 214.081 62.1133 214.268 62.048V62.958C214.081 63.0233 213.885 63.07 213.68 63.098C213.474 63.126 213.274 63.14 213.078 63.14ZM218.652 63.112C218.017 63.112 217.448 62.958 216.944 62.65C216.44 62.342 216.043 61.922 215.754 61.39C215.465 60.858 215.32 60.256 215.32 59.584C215.32 58.912 215.465 58.31 215.754 57.778C216.043 57.246 216.44 56.826 216.944 56.518C217.448 56.21 218.017 56.056 218.652 56.056C219.277 56.056 219.837 56.21 220.332 56.518C220.836 56.826 221.233 57.246 221.522 57.778C221.811 58.31 221.956 58.912 221.956 59.584C221.956 60.256 221.811 60.858 221.522 61.39C221.233 61.922 220.836 62.342 220.332 62.65C219.837 62.958 219.277 63.112 218.652 63.112ZM218.638 62.216C219.086 62.216 219.483 62.104 219.828 61.88C220.173 61.6467 220.444 61.3293 220.64 60.928C220.845 60.5267 220.948 60.0787 220.948 59.584C220.948 59.08 220.845 58.632 220.64 58.24C220.444 57.8387 220.173 57.526 219.828 57.302C219.483 57.0687 219.086 56.952 218.638 56.952C218.19 56.952 217.793 57.0687 217.448 57.302C217.103 57.526 216.827 57.8387 216.622 58.24C216.426 58.632 216.328 59.08 216.328 59.584C216.328 60.0787 216.426 60.5267 216.622 60.928C216.827 61.3293 217.103 61.6467 217.448 61.88C217.793 62.104 218.19 62.216 218.638 62.216ZM223.749 63V56.168H224.771V57.568C224.949 57.092 225.201 56.7233 225.527 56.462C225.863 56.1913 226.246 56.056 226.675 56.056C226.797 56.056 226.909 56.0653 227.011 56.084C227.114 56.0933 227.217 56.1167 227.319 56.154V57.078C227.207 57.0407 227.086 57.0127 226.955 56.994C226.834 56.966 226.717 56.952 226.605 56.952C226.185 56.952 225.817 57.0733 225.499 57.316C225.191 57.5587 224.949 57.8993 224.771 58.338V63H223.749Z" fill="#151515"/>
<path d="M142.408 82V78.688L139.072 73.6H140.74L143.164 77.44L145.612 73.6H147.184L143.848 78.688V82H142.408ZM145.963 82L149.263 73.6H150.931L154.183 82H152.635L151.771 79.648H148.327L147.463 82H145.963ZM148.747 78.52H151.375L150.055 74.968L148.747 78.52ZM155.266 82V73.6H157.138L159.598 78.7L162.046 73.6H163.918V82H162.562V75.424L159.586 81.4L156.598 75.388V82H155.266ZM165.93 82V73.6H167.37V80.752H171.846V82H165.93Z" fill="#151515"/>
<path fill-rule="evenodd" clip-rule="evenodd" d="M258.333 71.9224L258.922 71.3327C259.248 71.0071 259.248 70.4792 258.922 70.1533L256.269 67.4999L258.922 64.8465C259.248 64.521 259.248 63.993 258.922 63.6672L258.333 63.0775C258.007 62.7518 257.479 62.7518 257.153 63.0775L254.5 65.7308L251.847 63.0775C251.521 62.7518 250.993 62.7518 250.667 63.0775L250.078 63.6672C249.752 63.9928 249.752 64.5207 250.078 64.8465L252.731 67.4999L250.078 70.1533C249.752 70.4789 249.752 71.0068 250.078 71.3327L250.667 71.9224C250.993 72.248 251.521 72.248 251.847 71.9224L254.5 69.269L257.153 71.9224C257.479 72.248 258.007 72.248 258.333 71.9224Z" fill="#1F1F1F"/>
</g>
<defs>
<clipPath id="clip0_329_54389">
<rect width="346" height="98" fill="white"/>
</clipPath>
<clipPath id="clip1_329_54389">
<path d="M19 35C19 21.7452 29.7452 11 43 11C56.2548 11 67 21.7452 67 35C67 48.2548 56.2548 59 43 59C29.7452 59 19 48.2548 19 35Z" fill="white"/>
</clipPath>
<clipPath id="clip2_329_54389">
<rect width="48" height="48" fill="white" transform="translate(19 11)"/>
</clipPath>
<clipPath id="clip3_329_54389">
<rect width="16" height="12.8" fill="white" transform="translate(111 61.1001)"/>
</clipPath>
</defs>
</svg>
