<svg width="394" height="98" viewBox="0 0 394 98" fill="none" xmlns="http://www.w3.org/2000/svg">
<rect width="394" height="98" fill="white"/>
<mask id="path-1-inside-1_329_54350" fill="white">
<path d="M8 26C8 17.1634 15.1634 10 24 10H370C378.837 10 386 17.1634 386 26V72C386 80.8366 378.837 88 370 88H24C15.1635 88 8 80.8366 8 72V26Z"/>
</mask>
<path d="M8 26C8 17.1634 15.1634 10 24 10H370C378.837 10 386 17.1634 386 26V72C386 80.8366 378.837 88 370 88H24C15.1635 88 8 80.8366 8 72V26Z" fill="white"/>
<path d="M24 12H370V8H24V12ZM384 26V72H388V26H384ZM370 86H24V90H370V86ZM10 72V26H6V72H10ZM24 86C16.268 86 10 79.732 10 72H6C6 81.9411 14.0589 90 24 90V86ZM384 72C384 79.732 377.732 86 370 86V90C379.941 90 388 81.9411 388 72H384ZM370 12C377.732 12 384 18.268 384 26H388C388 16.0589 379.941 8 370 8V12ZM24 8C14.0589 8 6 16.0589 6 26H10C10 18.268 16.268 12 24 12V8Z" fill="#B1380B" mask="url(#path-1-inside-1_329_54350)"/>
<path fill-rule="evenodd" clip-rule="evenodd" d="M35 44C38.8657 44 42 40.8669 42 37C42 33.1354 38.8657 30 35 30C31.1343 30 28 33.1354 28 37C28 40.8669 31.1343 44 35 44ZM35.6851 37.9032H34.3148C34.1349 37.9032 33.9864 37.7626 33.9766 37.583L33.7673 33.7443C33.7567 33.5502 33.9111 33.3871 34.1054 33.3871H35.8945C36.0888 33.3871 36.2433 33.5502 36.2327 33.7443L36.0233 37.583C36.0135 37.7626 35.865 37.9032 35.6851 37.9032ZM35 41.0081C34.2829 41.0081 33.7016 40.4268 33.7016 39.7097C33.7016 38.9926 34.2829 38.4113 35 38.4113C35.7171 38.4113 36.2984 38.9926 36.2984 39.7097C36.2984 40.4268 35.7171 41.0081 35 41.0081Z" fill="#B1380B"/>
<path d="M54.176 41V31.2H61.218V32.628H55.856V35.428H59.552V36.828H55.856V41H54.176ZM62.634 41V33.986H64.216V41H62.634ZM63.432 32.558C63.1613 32.558 62.928 32.4647 62.732 32.278C62.5453 32.082 62.452 31.8533 62.452 31.592C62.452 31.3213 62.5453 31.0927 62.732 30.906C62.928 30.71 63.1613 30.612 63.432 30.612C63.7026 30.612 63.9313 30.71 64.118 30.906C64.314 31.0927 64.412 31.3167 64.412 31.578C64.412 31.8487 64.314 32.082 64.118 32.278C63.9313 32.4647 63.7026 32.558 63.432 32.558ZM66.1753 41V30.962L67.7573 30.682V41H66.1753ZM72.9647 41.14C72.2927 41.14 71.686 40.9813 71.1447 40.664C70.6033 40.3373 70.174 39.9033 69.8567 39.362C69.5393 38.8113 69.3807 38.1907 69.3807 37.5C69.3807 36.8093 69.53 36.1933 69.8287 35.652C70.1273 35.1107 70.5333 34.6813 71.0467 34.364C71.5693 34.0373 72.148 33.874 72.7827 33.874C73.436 33.874 74.01 34.0327 74.5047 34.35C75.0087 34.6673 75.4007 35.0967 75.6807 35.638C75.97 36.1793 76.1147 36.8 76.1147 37.5V37.878H70.9347C70.9907 38.2607 71.112 38.6013 71.2987 38.9C71.4947 39.1893 71.742 39.418 72.0407 39.586C72.3487 39.754 72.68 39.838 73.0347 39.838C73.3613 39.838 73.6693 39.782 73.9587 39.67C74.2573 39.5487 74.5047 39.3853 74.7007 39.18L75.7367 40.118C75.3073 40.4727 74.8687 40.734 74.4207 40.902C73.982 41.0607 73.4967 41.14 72.9647 41.14ZM70.9487 36.898H74.6167C74.5607 36.562 74.444 36.2633 74.2667 36.002C74.0987 35.7407 73.884 35.5353 73.6227 35.386C73.3707 35.2367 73.0907 35.162 72.7827 35.162C72.4747 35.162 72.19 35.2367 71.9287 35.386C71.6767 35.526 71.4667 35.7267 71.2987 35.988C71.1307 36.2493 71.014 36.5527 70.9487 36.898ZM83.2666 41.112C82.7812 41.112 82.3566 41.0047 81.9926 40.79C81.6286 40.5753 81.3392 40.2813 81.1246 39.908C80.9192 39.5347 80.8166 39.1007 80.8166 38.606V33.986H82.4126V38.144C82.4126 38.6667 82.5479 39.082 82.8186 39.39C83.0986 39.6887 83.4766 39.838 83.9526 39.838C84.2699 39.838 84.5546 39.768 84.8066 39.628C85.0679 39.488 85.2919 39.278 85.4786 38.998V33.986H87.0606V41H85.4786V39.866C85.2079 40.2767 84.8859 40.5893 84.5126 40.804C84.1392 41.0093 83.7239 41.112 83.2666 41.112ZM89.021 43.926V33.986H90.575V34.98C90.827 34.644 91.1397 34.3873 91.513 34.21C91.8957 34.0233 92.311 33.93 92.759 33.93C93.3563 33.93 93.893 34.0887 94.369 34.406C94.845 34.7233 95.223 35.1527 95.503 35.694C95.783 36.2353 95.923 36.8373 95.923 37.5C95.923 38.1627 95.7783 38.7647 95.489 39.306C95.1997 39.8473 94.8077 40.2767 94.313 40.594C93.8183 40.9113 93.2677 41.07 92.661 41.07C92.241 41.07 91.8537 40.9953 91.499 40.846C91.1537 40.6873 90.855 40.4633 90.603 40.174V43.926H89.021ZM92.283 39.754C92.6843 39.754 93.039 39.656 93.347 39.46C93.6643 39.264 93.9117 38.998 94.089 38.662C94.2757 38.3167 94.369 37.9293 94.369 37.5C94.369 37.0707 94.2757 36.688 94.089 36.352C93.9117 36.016 93.6643 35.75 93.347 35.554C93.039 35.358 92.6843 35.26 92.283 35.26C91.9377 35.26 91.6203 35.33 91.331 35.47C91.0417 35.6007 90.799 35.792 90.603 36.044V38.97C90.8083 39.2127 91.0557 39.404 91.345 39.544C91.6343 39.684 91.947 39.754 92.283 39.754ZM97.5796 41V30.962L99.1616 30.682V41H97.5796ZM104.313 41.126C103.65 41.126 103.048 40.9673 102.507 40.65C101.975 40.3327 101.555 39.9033 101.247 39.362C100.939 38.8113 100.785 38.1907 100.785 37.5C100.785 36.8093 100.939 36.1933 101.247 35.652C101.555 35.1013 101.975 34.6673 102.507 34.35C103.039 34.0327 103.641 33.874 104.313 33.874C104.985 33.874 105.582 34.0327 106.105 34.35C106.637 34.6673 107.057 35.1013 107.365 35.652C107.673 36.1933 107.827 36.8093 107.827 37.5C107.827 38.1907 107.673 38.8113 107.365 39.362C107.057 39.9033 106.637 40.3327 106.105 40.65C105.582 40.9673 104.985 41.126 104.313 41.126ZM104.313 39.782C104.696 39.782 105.032 39.684 105.321 39.488C105.62 39.292 105.853 39.0213 106.021 38.676C106.189 38.3213 106.273 37.9293 106.273 37.5C106.273 37.0613 106.189 36.674 106.021 36.338C105.853 35.9927 105.62 35.722 105.321 35.526C105.032 35.3207 104.696 35.218 104.313 35.218C103.93 35.218 103.59 35.3207 103.291 35.526C102.992 35.722 102.759 35.9927 102.591 36.338C102.423 36.674 102.339 37.0613 102.339 37.5C102.339 37.9387 102.423 38.3307 102.591 38.676C102.759 39.0213 102.992 39.292 103.291 39.488C103.59 39.684 103.93 39.782 104.313 39.782ZM111.657 41.126C111.171 41.126 110.737 41.0373 110.355 40.86C109.981 40.6733 109.687 40.4213 109.473 40.104C109.267 39.7773 109.165 39.404 109.165 38.984C109.165 38.564 109.272 38.2 109.487 37.892C109.711 37.584 110.023 37.346 110.425 37.178C110.826 37.01 111.302 36.926 111.853 36.926C112.179 36.926 112.501 36.9633 112.819 37.038C113.136 37.1033 113.444 37.2153 113.743 37.374V36.59C113.743 36.1233 113.607 35.7733 113.337 35.54C113.075 35.3067 112.674 35.19 112.133 35.19C111.843 35.19 111.531 35.2367 111.195 35.33C110.868 35.414 110.499 35.5493 110.089 35.736L109.529 34.588C110.555 34.112 111.526 33.874 112.441 33.874C113.355 33.874 114.06 34.098 114.555 34.546C115.059 34.9847 115.311 35.61 115.311 36.422V41H113.743V40.272C113.444 40.5613 113.122 40.776 112.777 40.916C112.431 41.056 112.058 41.126 111.657 41.126ZM110.649 38.956C110.649 39.2827 110.779 39.5393 111.041 39.726C111.302 39.9127 111.652 40.006 112.091 40.006C112.408 40.006 112.702 39.9593 112.973 39.866C113.253 39.7633 113.509 39.614 113.743 39.418V38.284C113.5 38.172 113.248 38.088 112.987 38.032C112.725 37.976 112.441 37.948 112.133 37.948C111.675 37.948 111.311 38.0367 111.041 38.214C110.779 38.3913 110.649 38.6387 110.649 38.956ZM120.068 41.07C119.48 41.07 118.948 40.9113 118.472 40.594C117.996 40.2673 117.613 39.838 117.324 39.306C117.044 38.7647 116.904 38.1627 116.904 37.5C116.904 36.828 117.049 36.226 117.338 35.694C117.627 35.1527 118.019 34.7233 118.514 34.406C119.018 34.0887 119.573 33.93 120.18 33.93C120.581 33.93 120.955 34.0093 121.3 34.168C121.655 34.3173 121.963 34.5413 122.224 34.84V30.962L123.806 30.682V41H122.238V40.076C121.986 40.3933 121.673 40.6407 121.3 40.818C120.927 40.986 120.516 41.07 120.068 41.07ZM120.558 39.74C120.894 39.74 121.207 39.6747 121.496 39.544C121.785 39.404 122.028 39.2127 122.224 38.97V36.016C122.019 35.7733 121.771 35.5867 121.482 35.456C121.193 35.3253 120.885 35.26 120.558 35.26C120.157 35.26 119.797 35.358 119.48 35.554C119.172 35.7407 118.925 36.002 118.738 36.338C118.551 36.674 118.458 37.0613 118.458 37.5C118.458 37.92 118.551 38.3027 118.738 38.648C118.925 38.984 119.172 39.25 119.48 39.446C119.797 39.642 120.157 39.74 120.558 39.74ZM129.868 41V35.246H128.356V33.986H129.868V32.782C129.868 32.026 130.073 31.4473 130.484 31.046C130.904 30.6353 131.506 30.43 132.29 30.43C132.486 30.43 132.677 30.4393 132.864 30.458C133.05 30.4767 133.209 30.5093 133.34 30.556V31.9C133.162 31.8627 133.013 31.8393 132.892 31.83C132.77 31.8113 132.64 31.802 132.5 31.802C132.136 31.802 131.87 31.8813 131.702 32.04C131.534 32.1987 131.45 32.4553 131.45 32.81V33.986H133.34V35.246H131.45V41H129.868ZM136.567 41.126C136.082 41.126 135.648 41.0373 135.265 40.86C134.892 40.6733 134.598 40.4213 134.383 40.104C134.178 39.7773 134.075 39.404 134.075 38.984C134.075 38.564 134.182 38.2 134.397 37.892C134.621 37.584 134.934 37.346 135.335 37.178C135.736 37.01 136.212 36.926 136.763 36.926C137.09 36.926 137.412 36.9633 137.729 37.038C138.046 37.1033 138.354 37.2153 138.653 37.374V36.59C138.653 36.1233 138.518 35.7733 138.247 35.54C137.986 35.3067 137.584 35.19 137.043 35.19C136.754 35.19 136.441 35.2367 136.105 35.33C135.778 35.414 135.41 35.5493 134.999 35.736L134.439 34.588C135.466 34.112 136.436 33.874 137.351 33.874C138.266 33.874 138.97 34.098 139.465 34.546C139.969 34.9847 140.221 35.61 140.221 36.422V41H138.653V40.272C138.354 40.5613 138.032 40.776 137.687 40.916C137.342 41.056 136.968 41.126 136.567 41.126ZM135.559 38.956C135.559 39.2827 135.69 39.5393 135.951 39.726C136.212 39.9127 136.562 40.006 137.001 40.006C137.318 40.006 137.612 39.9593 137.883 39.866C138.163 39.7633 138.42 39.614 138.653 39.418V38.284C138.41 38.172 138.158 38.088 137.897 38.032C137.636 37.976 137.351 37.948 137.043 37.948C136.586 37.948 136.222 38.0367 135.951 38.214C135.69 38.3913 135.559 38.6387 135.559 38.956ZM142.122 41V33.986H143.704V41H142.122ZM142.92 32.558C142.65 32.558 142.416 32.4647 142.22 32.278C142.034 32.082 141.94 31.8533 141.94 31.592C141.94 31.3213 142.034 31.0927 142.22 30.906C142.416 30.71 142.65 30.612 142.92 30.612C143.191 30.612 143.42 30.71 143.606 30.906C143.802 31.0927 143.9 31.3167 143.9 31.578C143.9 31.8487 143.802 32.082 143.606 32.278C143.42 32.4647 143.191 32.558 142.92 32.558ZM145.664 41V30.962L147.246 30.682V41H145.664ZM152.453 41.14C151.781 41.14 151.174 40.9813 150.633 40.664C150.092 40.3373 149.662 39.9033 149.345 39.362C149.028 38.8113 148.869 38.1907 148.869 37.5C148.869 36.8093 149.018 36.1933 149.317 35.652C149.616 35.1107 150.022 34.6813 150.535 34.364C151.058 34.0373 151.636 33.874 152.271 33.874C152.924 33.874 153.498 34.0327 153.993 34.35C154.497 34.6673 154.889 35.0967 155.169 35.638C155.458 36.1793 155.603 36.8 155.603 37.5V37.878H150.423C150.479 38.2607 150.6 38.6013 150.787 38.9C150.983 39.1893 151.23 39.418 151.529 39.586C151.837 39.754 152.168 39.838 152.523 39.838C152.85 39.838 153.158 39.782 153.447 39.67C153.746 39.5487 153.993 39.3853 154.189 39.18L155.225 40.118C154.796 40.4727 154.357 40.734 153.909 40.902C153.47 41.0607 152.985 41.14 152.453 41.14ZM150.437 36.898H154.105C154.049 36.562 153.932 36.2633 153.755 36.002C153.587 35.7407 153.372 35.5353 153.111 35.386C152.859 35.2367 152.579 35.162 152.271 35.162C151.963 35.162 151.678 35.2367 151.417 35.386C151.165 35.526 150.955 35.7267 150.787 35.988C150.619 36.2493 150.502 36.5527 150.437 36.898ZM160.086 41.07C159.498 41.07 158.966 40.9113 158.49 40.594C158.014 40.2673 157.631 39.838 157.342 39.306C157.062 38.7647 156.922 38.1627 156.922 37.5C156.922 36.828 157.066 36.226 157.356 35.694C157.645 35.1527 158.037 34.7233 158.532 34.406C159.036 34.0887 159.591 33.93 160.198 33.93C160.599 33.93 160.972 34.0093 161.318 34.168C161.672 34.3173 161.98 34.5413 162.242 34.84V30.962L163.824 30.682V41H162.256V40.076C162.004 40.3933 161.691 40.6407 161.318 40.818C160.944 40.986 160.534 41.07 160.086 41.07ZM160.576 39.74C160.912 39.74 161.224 39.6747 161.514 39.544C161.803 39.404 162.046 39.2127 162.242 38.97V36.016C162.036 35.7733 161.789 35.5867 161.5 35.456C161.21 35.3253 160.902 35.26 160.576 35.26C160.174 35.26 159.815 35.358 159.498 35.554C159.19 35.7407 158.942 36.002 158.756 36.338C158.569 36.674 158.476 37.0613 158.476 37.5C158.476 37.92 158.569 38.3027 158.756 38.648C158.942 38.984 159.19 39.25 159.498 39.446C159.815 39.642 160.174 39.74 160.576 39.74Z" fill="#151515"/>
<path d="M53.126 66L57.004 56.2H58.292L62.114 66H60.952L59.79 62.92H55.422L54.26 66H53.126ZM55.758 62.066H59.468L57.606 57.18L55.758 62.066ZM65.0622 66.14C64.4742 66.14 64.0262 66 63.7182 65.72C63.4195 65.4307 63.2702 65.0153 63.2702 64.474V60.008H61.8562V59.168H63.2702V57.292L64.2922 57.054V59.168H66.2522V60.008H64.2922V64.208C64.2922 64.572 64.3669 64.8333 64.5162 64.992C64.6749 65.1507 64.9315 65.23 65.2862 65.23C65.4635 65.23 65.6222 65.216 65.7622 65.188C65.9022 65.16 66.0655 65.1133 66.2522 65.048V65.958C66.0655 66.0233 65.8695 66.07 65.6642 66.098C65.4589 66.126 65.2582 66.14 65.0622 66.14ZM70.4899 66.14C69.9019 66.14 69.4539 66 69.1459 65.72C68.8473 65.4307 68.6979 65.0153 68.6979 64.474V60.008H67.2839V59.168H68.6979V57.292L69.7199 57.054V59.168H71.6799V60.008H69.7199V64.208C69.7199 64.572 69.7946 64.8333 69.9439 64.992C70.1026 65.1507 70.3593 65.23 70.7139 65.23C70.8913 65.23 71.0499 65.216 71.1899 65.188C71.3299 65.16 71.4933 65.1133 71.6799 65.048V65.958C71.4933 66.0233 71.2973 66.07 71.0919 66.098C70.8866 66.126 70.6859 66.14 70.4899 66.14ZM75.291 66.126C74.8056 66.126 74.3763 66.0373 74.003 65.86C73.6296 65.6827 73.3356 65.44 73.121 65.132C72.9156 64.8147 72.813 64.4507 72.813 64.04C72.813 63.6293 72.9203 63.2747 73.135 62.976C73.3496 62.668 73.6483 62.43 74.031 62.262C74.4136 62.094 74.8616 62.01 75.375 62.01C75.767 62.01 76.1356 62.052 76.481 62.136C76.8356 62.22 77.1623 62.3553 77.461 62.542V61.604C77.461 61.044 77.3116 60.624 77.013 60.344C76.7143 60.0547 76.2756 59.91 75.697 59.91C75.3796 59.91 75.053 59.9567 74.717 60.05C74.3903 60.1433 74.0263 60.2927 73.625 60.498L73.247 59.714C74.1616 59.2753 75.0203 59.056 75.823 59.056C76.6723 59.056 77.3256 59.266 77.783 59.686C78.2403 60.0967 78.469 60.6893 78.469 61.464V66H77.461V65.202C77.1623 65.51 76.831 65.7433 76.467 65.902C76.103 66.0513 75.711 66.126 75.291 66.126ZM73.793 64.012C73.793 64.4133 73.947 64.7353 74.255 64.978C74.5723 65.2207 74.9876 65.342 75.501 65.342C75.8836 65.342 76.2336 65.2767 76.551 65.146C76.8776 65.0153 77.181 64.8193 77.461 64.558V63.242C77.1716 63.074 76.873 62.9527 76.565 62.878C76.257 62.794 75.9116 62.752 75.529 62.752C75.0063 62.752 74.5863 62.8687 74.269 63.102C73.9516 63.326 73.793 63.6293 73.793 64.012ZM83.6121 66.112C82.9774 66.112 82.4034 65.958 81.8901 65.65C81.3861 65.3327 80.9848 64.908 80.6861 64.376C80.3874 63.8347 80.2381 63.2373 80.2381 62.584C80.2381 61.9213 80.3874 61.324 80.6861 60.792C80.9848 60.26 81.3861 59.84 81.8901 59.532C82.4034 59.2147 82.9774 59.056 83.6121 59.056C84.1161 59.056 84.5968 59.1493 85.0541 59.336C85.5114 59.5227 85.9081 59.784 86.2441 60.12L85.5861 60.834C85.3434 60.5633 85.0494 60.3533 84.7041 60.204C84.3588 60.0547 84.0088 59.98 83.6541 59.98C83.2061 59.98 82.8001 60.0967 82.4361 60.33C82.0814 60.5633 81.7968 60.876 81.5821 61.268C81.3674 61.66 81.2601 62.0987 81.2601 62.584C81.2601 63.0693 81.3674 63.508 81.5821 63.9C81.7968 64.292 82.0814 64.6047 82.4361 64.838C82.8001 65.0713 83.2061 65.188 83.6541 65.188C84.0088 65.188 84.3588 65.1133 84.7041 64.964C85.0494 64.8053 85.3434 64.5953 85.5861 64.334L86.2441 65.048C85.9081 65.384 85.5114 65.6453 85.0541 65.832C84.5968 66.0187 84.1161 66.112 83.6121 66.112ZM87.6691 66V55.892L88.6911 55.682V60.274C88.9525 59.8633 89.2651 59.56 89.6291 59.364C89.9931 59.1587 90.4038 59.056 90.8611 59.056C91.3558 59.056 91.7851 59.1633 92.1491 59.378C92.5225 59.5833 92.8118 59.8773 93.0171 60.26C93.2318 60.6333 93.3391 61.072 93.3391 61.576V66H92.3171V61.87C92.3171 61.2633 92.1491 60.7873 91.8131 60.442C91.4865 60.0873 91.0431 59.91 90.4831 59.91C90.1098 59.91 89.7691 59.9987 89.4611 60.176C89.1531 60.3533 88.8965 60.6147 88.6911 60.96V66H87.6691ZM95.3938 66V59.168H96.4158V60.232C96.6771 59.84 96.9758 59.546 97.3118 59.35C97.6478 59.154 98.0258 59.056 98.4458 59.056C98.9311 59.056 99.3558 59.1773 99.7198 59.42C100.084 59.6533 100.359 59.9753 100.546 60.386C100.816 59.9473 101.138 59.616 101.512 59.392C101.894 59.168 102.333 59.056 102.828 59.056C103.285 59.056 103.686 59.1633 104.032 59.378C104.386 59.5927 104.662 59.8913 104.858 60.274C105.054 60.6473 105.152 61.086 105.152 61.59V66H104.13V61.842C104.13 61.2447 103.98 60.7733 103.682 60.428C103.383 60.0827 102.972 59.91 102.45 59.91C102.095 59.91 101.773 59.9987 101.484 60.176C101.204 60.3533 100.956 60.624 100.742 60.988C100.76 61.0813 100.774 61.1793 100.784 61.282C100.793 61.3847 100.798 61.4873 100.798 61.59V66H99.7758V61.842C99.7758 61.2447 99.6218 60.7733 99.3138 60.428C99.0151 60.0827 98.6044 59.91 98.0818 59.91C97.3818 59.91 96.8264 60.246 96.4158 60.918V66H95.3938ZM110.3 66.14C109.665 66.14 109.091 65.986 108.578 65.678C108.065 65.3607 107.659 64.936 107.36 64.404C107.061 63.8627 106.912 63.256 106.912 62.584C106.912 61.912 107.052 61.31 107.332 60.778C107.621 60.246 108.009 59.826 108.494 59.518C108.979 59.21 109.521 59.056 110.118 59.056C110.725 59.056 111.261 59.21 111.728 59.518C112.204 59.8167 112.577 60.2273 112.848 60.75C113.128 61.2633 113.268 61.8467 113.268 62.5V62.808H107.906C107.943 63.2747 108.069 63.6947 108.284 64.068C108.508 64.432 108.797 64.7213 109.152 64.936C109.516 65.1413 109.913 65.244 110.342 65.244C110.697 65.244 111.037 65.1833 111.364 65.062C111.7 64.9313 111.985 64.7587 112.218 64.544L112.862 65.23C112.47 65.538 112.064 65.7667 111.644 65.916C111.224 66.0653 110.776 66.14 110.3 66.14ZM107.934 62.08H112.26C112.213 61.6693 112.087 61.3053 111.882 60.988C111.686 60.6613 111.434 60.4047 111.126 60.218C110.827 60.0313 110.491 59.938 110.118 59.938C109.745 59.938 109.404 60.0313 109.096 60.218C108.788 60.3953 108.531 60.6473 108.326 60.974C108.13 61.2913 107.999 61.66 107.934 62.08ZM115.013 66V59.168H116.035V60.274C116.296 59.8633 116.609 59.56 116.973 59.364C117.337 59.1587 117.748 59.056 118.205 59.056C118.7 59.056 119.129 59.1633 119.493 59.378C119.866 59.5833 120.156 59.8773 120.361 60.26C120.576 60.6333 120.683 61.072 120.683 61.576V66H119.661V61.87C119.661 61.2633 119.493 60.7873 119.157 60.442C118.83 60.0873 118.387 59.91 117.827 59.91C117.454 59.91 117.113 59.9987 116.805 60.176C116.497 60.3533 116.24 60.6147 116.035 60.96V66H115.013ZM125.136 66.14C124.548 66.14 124.1 66 123.792 65.72C123.494 65.4307 123.344 65.0153 123.344 64.474V60.008H121.93V59.168H123.344V57.292L124.366 57.054V59.168H126.326V60.008H124.366V64.208C124.366 64.572 124.441 64.8333 124.59 64.992C124.749 65.1507 125.006 65.23 125.36 65.23C125.538 65.23 125.696 65.216 125.836 65.188C125.976 65.16 126.14 65.1133 126.326 65.048V65.958C126.14 66.0233 125.944 66.07 125.738 66.098C125.533 66.126 125.332 66.14 125.136 66.14ZM130.074 66.14C129.514 66.14 128.996 66.056 128.52 65.888C128.044 65.7107 127.638 65.4587 127.302 65.132L127.848 64.46C128.259 64.7587 128.637 64.978 128.982 65.118C129.327 65.2487 129.682 65.314 130.046 65.314C130.541 65.314 130.951 65.1973 131.278 64.964C131.605 64.7307 131.768 64.432 131.768 64.068C131.768 63.788 131.67 63.5687 131.474 63.41C131.287 63.2513 130.975 63.13 130.536 63.046L129.416 62.85C128.753 62.7287 128.263 62.5233 127.946 62.234C127.638 61.9447 127.484 61.5527 127.484 61.058C127.484 60.666 127.587 60.3207 127.792 60.022C128.007 59.7233 128.301 59.49 128.674 59.322C129.047 59.1447 129.472 59.056 129.948 59.056C130.415 59.056 130.858 59.126 131.278 59.266C131.698 59.3967 132.123 59.6113 132.552 59.91L132.048 60.624C131.693 60.372 131.339 60.19 130.984 60.078C130.629 59.9567 130.27 59.896 129.906 59.896C129.458 59.896 129.099 59.994 128.828 60.19C128.557 60.386 128.422 60.652 128.422 60.988C128.422 61.268 128.506 61.4827 128.674 61.632C128.851 61.7813 129.159 61.8933 129.598 61.968L130.746 62.178C131.437 62.2993 131.941 62.5093 132.258 62.808C132.575 63.1067 132.734 63.508 132.734 64.012C132.734 64.4133 132.617 64.7773 132.384 65.104C132.151 65.4213 131.833 65.6733 131.432 65.86C131.031 66.0467 130.578 66.14 130.074 66.14ZM137.558 66V59.168H138.58V60.232C138.841 59.84 139.14 59.546 139.476 59.35C139.812 59.154 140.19 59.056 140.61 59.056C141.095 59.056 141.52 59.1773 141.884 59.42C142.248 59.6533 142.523 59.9753 142.71 60.386C142.98 59.9473 143.302 59.616 143.676 59.392C144.058 59.168 144.497 59.056 144.992 59.056C145.449 59.056 145.85 59.1633 146.196 59.378C146.55 59.5927 146.826 59.8913 147.022 60.274C147.218 60.6473 147.316 61.086 147.316 61.59V66H146.294V61.842C146.294 61.2447 146.144 60.7733 145.846 60.428C145.547 60.0827 145.136 59.91 144.614 59.91C144.259 59.91 143.937 59.9987 143.648 60.176C143.368 60.3533 143.12 60.624 142.906 60.988C142.924 61.0813 142.938 61.1793 142.948 61.282C142.957 61.3847 142.962 61.4873 142.962 61.59V66H141.94V61.842C141.94 61.2447 141.786 60.7733 141.478 60.428C141.179 60.0827 140.768 59.91 140.246 59.91C139.546 59.91 138.99 60.246 138.58 60.918V66H137.558ZM151.752 66.112C151.266 66.112 150.837 66.0047 150.464 65.79C150.09 65.5753 149.796 65.2767 149.582 64.894C149.376 64.5113 149.274 64.0727 149.274 63.578V59.168H150.31V63.284C150.31 63.8907 150.473 64.3713 150.8 64.726C151.126 65.0807 151.57 65.258 152.13 65.258C152.512 65.258 152.853 65.1693 153.152 64.992C153.46 64.8147 153.716 64.558 153.922 64.222V59.168H154.944V66H153.922V64.894C153.66 65.2953 153.348 65.5987 152.984 65.804C152.629 66.0093 152.218 66.112 151.752 66.112ZM159.154 66.14C158.594 66.14 158.076 66.056 157.6 65.888C157.124 65.7107 156.718 65.4587 156.382 65.132L156.928 64.46C157.339 64.7587 157.717 64.978 158.062 65.118C158.408 65.2487 158.762 65.314 159.126 65.314C159.621 65.314 160.032 65.1973 160.358 64.964C160.685 64.7307 160.848 64.432 160.848 64.068C160.848 63.788 160.75 63.5687 160.554 63.41C160.368 63.2513 160.055 63.13 159.616 63.046L158.496 62.85C157.834 62.7287 157.344 62.5233 157.026 62.234C156.718 61.9447 156.564 61.5527 156.564 61.058C156.564 60.666 156.667 60.3207 156.872 60.022C157.087 59.7233 157.381 59.49 157.754 59.322C158.128 59.1447 158.552 59.056 159.028 59.056C159.495 59.056 159.938 59.126 160.358 59.266C160.778 59.3967 161.203 59.6113 161.632 59.91L161.128 60.624C160.774 60.372 160.419 60.19 160.064 60.078C159.71 59.9567 159.35 59.896 158.986 59.896C158.538 59.896 158.179 59.994 157.908 60.19C157.638 60.386 157.502 60.652 157.502 60.988C157.502 61.268 157.586 61.4827 157.754 61.632C157.932 61.7813 158.24 61.8933 158.678 61.968L159.826 62.178C160.517 62.2993 161.021 62.5093 161.338 62.808C161.656 63.1067 161.814 63.508 161.814 64.012C161.814 64.4133 161.698 64.7773 161.464 65.104C161.231 65.4213 160.914 65.6733 160.512 65.86C160.111 66.0467 159.658 66.14 159.154 66.14ZM165.838 66.14C165.25 66.14 164.802 66 164.494 65.72C164.195 65.4307 164.046 65.0153 164.046 64.474V60.008H162.632V59.168H164.046V57.292L165.068 57.054V59.168H167.028V60.008H165.068V64.208C165.068 64.572 165.142 64.8333 165.292 64.992C165.45 65.1507 165.707 65.23 166.062 65.23C166.239 65.23 166.398 65.216 166.538 65.188C166.678 65.16 166.841 65.1133 167.028 65.048V65.958C166.841 66.0233 166.645 66.07 166.44 66.098C166.234 66.126 166.034 66.14 165.838 66.14ZM171.792 66V55.99L172.814 55.78V60.106C173.076 59.7793 173.393 59.5273 173.766 59.35C174.14 59.1727 174.555 59.084 175.012 59.084C175.61 59.084 176.142 59.2427 176.608 59.56C177.084 59.868 177.462 60.288 177.742 60.82C178.022 61.3427 178.162 61.9307 178.162 62.584C178.162 63.2373 178.018 63.83 177.728 64.362C177.448 64.894 177.066 65.3187 176.58 65.636C176.104 65.944 175.563 66.098 174.956 66.098C174.527 66.098 174.126 66.014 173.752 65.846C173.388 65.6687 173.071 65.4213 172.8 65.104V66H171.792ZM174.76 65.216C175.218 65.216 175.624 65.104 175.978 64.88C176.342 64.6467 176.627 64.334 176.832 63.942C177.047 63.5407 177.154 63.0927 177.154 62.598C177.154 62.094 177.047 61.646 176.832 61.254C176.627 60.862 176.342 60.554 175.978 60.33C175.624 60.0967 175.218 59.98 174.76 59.98C174.359 59.98 173.986 60.064 173.64 60.232C173.304 60.3907 173.029 60.6193 172.814 60.918V64.264C173.038 64.5627 173.318 64.796 173.654 64.964C174 65.132 174.368 65.216 174.76 65.216ZM183.034 66.14C182.4 66.14 181.826 65.986 181.312 65.678C180.799 65.3607 180.393 64.936 180.094 64.404C179.796 63.8627 179.646 63.256 179.646 62.584C179.646 61.912 179.786 61.31 180.066 60.778C180.356 60.246 180.743 59.826 181.228 59.518C181.714 59.21 182.255 59.056 182.852 59.056C183.459 59.056 183.996 59.21 184.462 59.518C184.938 59.8167 185.312 60.2273 185.582 60.75C185.862 61.2633 186.002 61.8467 186.002 62.5V62.808H180.64C180.678 63.2747 180.804 63.6947 181.018 64.068C181.242 64.432 181.532 64.7213 181.886 64.936C182.25 65.1413 182.647 65.244 183.076 65.244C183.431 65.244 183.772 65.1833 184.098 65.062C184.434 64.9313 184.719 64.7587 184.952 64.544L185.596 65.23C185.204 65.538 184.798 65.7667 184.378 65.916C183.958 66.0653 183.51 66.14 183.034 66.14ZM180.668 62.08H184.994C184.948 61.6693 184.822 61.3053 184.616 60.988C184.42 60.6613 184.168 60.4047 183.86 60.218C183.562 60.0313 183.226 59.938 182.852 59.938C182.479 59.938 182.138 60.0313 181.83 60.218C181.522 60.3953 181.266 60.6473 181.06 60.974C180.864 61.2913 180.734 61.66 180.668 62.08ZM193.129 66.14C192.569 66.14 192.051 66.056 191.575 65.888C191.099 65.7107 190.693 65.4587 190.357 65.132L190.903 64.46C191.314 64.7587 191.692 64.978 192.037 65.118C192.382 65.2487 192.737 65.314 193.101 65.314C193.596 65.314 194.006 65.1973 194.333 64.964C194.66 64.7307 194.823 64.432 194.823 64.068C194.823 63.788 194.725 63.5687 194.529 63.41C194.342 63.2513 194.03 63.13 193.591 63.046L192.471 62.85C191.808 62.7287 191.318 62.5233 191.001 62.234C190.693 61.9447 190.539 61.5527 190.539 61.058C190.539 60.666 190.642 60.3207 190.847 60.022C191.062 59.7233 191.356 59.49 191.729 59.322C192.102 59.1447 192.527 59.056 193.003 59.056C193.47 59.056 193.913 59.126 194.333 59.266C194.753 59.3967 195.178 59.6113 195.607 59.91L195.103 60.624C194.748 60.372 194.394 60.19 194.039 60.078C193.684 59.9567 193.325 59.896 192.961 59.896C192.513 59.896 192.154 59.994 191.883 60.19C191.612 60.386 191.477 60.652 191.477 60.988C191.477 61.268 191.561 61.4827 191.729 61.632C191.906 61.7813 192.214 61.8933 192.653 61.968L193.801 62.178C194.492 62.2993 194.996 62.5093 195.313 62.808C195.63 63.1067 195.789 63.508 195.789 64.012C195.789 64.4133 195.672 64.7773 195.439 65.104C195.206 65.4213 194.888 65.6733 194.487 65.86C194.086 66.0467 193.633 66.14 193.129 66.14ZM197.345 66V59.168H198.367V60.232C198.628 59.84 198.927 59.546 199.263 59.35C199.599 59.154 199.977 59.056 200.397 59.056C200.882 59.056 201.307 59.1773 201.671 59.42C202.035 59.6533 202.31 59.9753 202.497 60.386C202.768 59.9473 203.09 59.616 203.463 59.392C203.846 59.168 204.284 59.056 204.779 59.056C205.236 59.056 205.638 59.1633 205.983 59.378C206.338 59.5927 206.613 59.8913 206.809 60.274C207.005 60.6473 207.103 61.086 207.103 61.59V66H206.081V61.842C206.081 61.2447 205.932 60.7733 205.633 60.428C205.334 60.0827 204.924 59.91 204.401 59.91C204.046 59.91 203.724 59.9987 203.435 60.176C203.155 60.3533 202.908 60.624 202.693 60.988C202.712 61.0813 202.726 61.1793 202.735 61.282C202.744 61.3847 202.749 61.4873 202.749 61.59V66H201.727V61.842C201.727 61.2447 201.573 60.7733 201.265 60.428C200.966 60.0827 200.556 59.91 200.033 59.91C199.333 59.91 198.778 60.246 198.367 60.918V66H197.345ZM211.285 66.126C210.8 66.126 210.37 66.0373 209.997 65.86C209.624 65.6827 209.33 65.44 209.115 65.132C208.91 64.8147 208.807 64.4507 208.807 64.04C208.807 63.6293 208.914 63.2747 209.129 62.976C209.344 62.668 209.642 62.43 210.025 62.262C210.408 62.094 210.856 62.01 211.369 62.01C211.761 62.01 212.13 62.052 212.475 62.136C212.83 62.22 213.156 62.3553 213.455 62.542V61.604C213.455 61.044 213.306 60.624 213.007 60.344C212.708 60.0547 212.27 59.91 211.691 59.91C211.374 59.91 211.047 59.9567 210.711 60.05C210.384 60.1433 210.02 60.2927 209.619 60.498L209.241 59.714C210.156 59.2753 211.014 59.056 211.817 59.056C212.666 59.056 213.32 59.266 213.777 59.686C214.234 60.0967 214.463 60.6893 214.463 61.464V66H213.455V65.202C213.156 65.51 212.825 65.7433 212.461 65.902C212.097 66.0513 211.705 66.126 211.285 66.126ZM209.787 64.012C209.787 64.4133 209.941 64.7353 210.249 64.978C210.566 65.2207 210.982 65.342 211.495 65.342C211.878 65.342 212.228 65.2767 212.545 65.146C212.872 65.0153 213.175 64.8193 213.455 64.558V63.242C213.166 63.074 212.867 62.9527 212.559 62.878C212.251 62.794 211.906 62.752 211.523 62.752C211 62.752 210.58 62.8687 210.263 63.102C209.946 63.326 209.787 63.6293 209.787 64.012ZM216.54 66V55.892L217.562 55.682V66H216.54ZM219.657 66V55.892L220.679 55.682V66H219.657ZM225.855 66.14C225.22 66.14 224.646 65.986 224.133 65.678C223.619 65.3607 223.213 64.936 222.915 64.404C222.616 63.8627 222.467 63.256 222.467 62.584C222.467 61.912 222.607 61.31 222.887 60.778C223.176 60.246 223.563 59.826 224.049 59.518C224.534 59.21 225.075 59.056 225.673 59.056C226.279 59.056 226.816 59.21 227.283 59.518C227.759 59.8167 228.132 60.2273 228.403 60.75C228.683 61.2633 228.823 61.8467 228.823 62.5V62.808H223.461C223.498 63.2747 223.624 63.6947 223.839 64.068C224.063 64.432 224.352 64.7213 224.707 64.936C225.071 65.1413 225.467 65.244 225.897 65.244C226.251 65.244 226.592 65.1833 226.919 65.062C227.255 64.9313 227.539 64.7587 227.773 64.544L228.417 65.23C228.025 65.538 227.619 65.7667 227.199 65.916C226.779 66.0653 226.331 66.14 225.855 66.14ZM223.489 62.08H227.815C227.768 61.6693 227.642 61.3053 227.437 60.988C227.241 60.6613 226.989 60.4047 226.681 60.218C226.382 60.0313 226.046 59.938 225.673 59.938C225.299 59.938 224.959 60.0313 224.651 60.218C224.343 60.3953 224.086 60.6473 223.881 60.974C223.685 61.2913 223.554 61.66 223.489 62.08ZM230.568 66V59.168H231.59V60.568C231.767 60.092 232.019 59.7233 232.346 59.462C232.682 59.1913 233.064 59.056 233.494 59.056C233.615 59.056 233.727 59.0653 233.83 59.084C233.932 59.0933 234.035 59.1167 234.138 59.154V60.078C234.026 60.0407 233.904 60.0127 233.774 59.994C233.652 59.966 233.536 59.952 233.424 59.952C233.004 59.952 232.635 60.0733 232.318 60.316C232.01 60.5587 231.767 60.8993 231.59 61.338V66H230.568ZM241.361 66.14C240.773 66.14 240.325 66 240.017 65.72C239.718 65.4307 239.569 65.0153 239.569 64.474V60.008H238.155V59.168H239.569V57.292L240.591 57.054V59.168H242.551V60.008H240.591V64.208C240.591 64.572 240.666 64.8333 240.815 64.992C240.974 65.1507 241.23 65.23 241.585 65.23C241.762 65.23 241.921 65.216 242.061 65.188C242.201 65.16 242.364 65.1133 242.551 65.048V65.958C242.364 66.0233 242.168 66.07 241.963 66.098C241.758 66.126 241.557 66.14 241.361 66.14ZM244.048 66V55.892L245.07 55.682V60.274C245.331 59.8633 245.644 59.56 246.008 59.364C246.372 59.1587 246.783 59.056 247.24 59.056C247.735 59.056 248.164 59.1633 248.528 59.378C248.901 59.5833 249.191 59.8773 249.396 60.26C249.611 60.6333 249.718 61.072 249.718 61.576V66H248.696V61.87C248.696 61.2633 248.528 60.7873 248.192 60.442C247.865 60.0873 247.422 59.91 246.862 59.91C246.489 59.91 246.148 59.9987 245.84 60.176C245.532 60.3533 245.275 60.6147 245.07 60.96V66H244.048ZM253.887 66.126C253.401 66.126 252.972 66.0373 252.599 65.86C252.225 65.6827 251.931 65.44 251.717 65.132C251.511 64.8147 251.409 64.4507 251.409 64.04C251.409 63.6293 251.516 63.2747 251.731 62.976C251.945 62.668 252.244 62.43 252.627 62.262C253.009 62.094 253.457 62.01 253.971 62.01C254.363 62.01 254.731 62.052 255.077 62.136C255.431 62.22 255.758 62.3553 256.057 62.542V61.604C256.057 61.044 255.907 60.624 255.609 60.344C255.31 60.0547 254.871 59.91 254.293 59.91C253.975 59.91 253.649 59.9567 253.313 60.05C252.986 60.1433 252.622 60.2927 252.221 60.498L251.843 59.714C252.757 59.2753 253.616 59.056 254.419 59.056C255.268 59.056 255.921 59.266 256.379 59.686C256.836 60.0967 257.065 60.6893 257.065 61.464V66H256.057V65.202C255.758 65.51 255.427 65.7433 255.063 65.902C254.699 66.0513 254.307 66.126 253.887 66.126ZM252.389 64.012C252.389 64.4133 252.543 64.7353 252.851 64.978C253.168 65.2207 253.583 65.342 254.097 65.342C254.479 65.342 254.829 65.2767 255.147 65.146C255.473 65.0153 255.777 64.8193 256.057 64.558V63.242C255.767 63.074 255.469 62.9527 255.161 62.878C254.853 62.794 254.507 62.752 254.125 62.752C253.602 62.752 253.182 62.8687 252.865 63.102C252.547 63.326 252.389 63.6293 252.389 64.012ZM259.142 66V59.168H260.164V60.274C260.425 59.8633 260.738 59.56 261.102 59.364C261.466 59.1587 261.876 59.056 262.334 59.056C262.828 59.056 263.258 59.1633 263.622 59.378C263.995 59.5833 264.284 59.8773 264.49 60.26C264.704 60.6333 264.812 61.072 264.812 61.576V66H263.79V61.87C263.79 61.2633 263.622 60.7873 263.286 60.442C262.959 60.0873 262.516 59.91 261.956 59.91C261.582 59.91 261.242 59.9987 260.934 60.176C260.626 60.3533 260.369 60.6147 260.164 60.96V66H259.142ZM269.798 66V65.258L273.718 60.974C274.026 60.638 274.264 60.344 274.432 60.092C274.609 59.8307 274.731 59.588 274.796 59.364C274.871 59.14 274.908 58.902 274.908 58.65C274.908 58.1553 274.712 57.7493 274.32 57.432C273.937 57.1053 273.447 56.942 272.85 56.942C272.393 56.942 271.968 57.0307 271.576 57.208C271.184 57.3853 270.745 57.6933 270.26 58.132L269.672 57.432C270.185 56.9653 270.703 56.62 271.226 56.396C271.749 56.1627 272.295 56.046 272.864 56.046C273.452 56.046 273.975 56.158 274.432 56.382C274.889 56.5967 275.249 56.8953 275.51 57.278C275.771 57.6607 275.902 58.0993 275.902 58.594C275.902 58.9207 275.86 59.224 275.776 59.504C275.692 59.7747 275.543 60.0687 275.328 60.386C275.113 60.694 274.805 61.0673 274.404 61.506L271.058 65.132L276.112 65.118V66H269.798ZM280.604 66.154C279.316 66.154 278.205 65.7107 277.272 64.824L277.902 64.138C278.331 64.5393 278.756 64.8333 279.176 65.02C279.605 65.1973 280.086 65.286 280.618 65.286C281.094 65.286 281.514 65.188 281.878 64.992C282.242 64.796 282.522 64.5207 282.718 64.166C282.923 63.8113 283.026 63.4053 283.026 62.948C283.026 62.2947 282.802 61.7673 282.354 61.366C281.915 60.9647 281.337 60.764 280.618 60.764C280.245 60.764 279.881 60.8107 279.526 60.904C279.171 60.988 278.803 61.128 278.42 61.324L277.72 61.1L277.944 56.2H283.516V57.082H278.812L278.658 60.47C279.031 60.2833 279.391 60.1527 279.736 60.078C280.081 59.994 280.445 59.952 280.828 59.952C281.472 59.952 282.032 60.078 282.508 60.33C282.993 60.5727 283.367 60.918 283.628 61.366C283.899 61.8047 284.034 62.318 284.034 62.906C284.034 63.55 283.889 64.1147 283.6 64.6C283.311 65.0853 282.909 65.468 282.396 65.748C281.883 66.0187 281.285 66.154 280.604 66.154ZM289.252 66V56.2H290.75L294.026 63.172L297.302 56.2H298.8V66H297.778V57.474L294.026 65.3L290.26 57.446V66H289.252ZM301.297 66V56.2H305.259C305.856 56.2 306.374 56.3027 306.813 56.508C307.261 56.7133 307.606 57.0027 307.849 57.376C308.091 57.7493 308.213 58.188 308.213 58.692C308.213 59.2333 308.054 59.7 307.737 60.092C307.429 60.4747 307.009 60.7453 306.477 60.904C307.13 61.0533 307.643 61.338 308.017 61.758C308.399 62.1687 308.591 62.6773 308.591 63.284C308.591 63.8253 308.46 64.3013 308.199 64.712C307.937 65.1227 307.569 65.44 307.093 65.664C306.617 65.888 306.057 66 305.413 66H301.297ZM302.375 60.484H305.175C305.772 60.484 306.248 60.3347 306.603 60.036C306.957 59.728 307.135 59.3173 307.135 58.804C307.135 58.2907 306.957 57.8847 306.603 57.586C306.248 57.278 305.772 57.124 305.175 57.124H302.375V60.484ZM302.375 65.076H305.301C305.963 65.076 306.495 64.908 306.897 64.572C307.298 64.2267 307.499 63.774 307.499 63.214C307.499 62.654 307.298 62.206 306.897 61.87C306.505 61.534 305.973 61.366 305.301 61.366H302.375V65.076ZM310.742 66.112C310.537 66.112 310.36 66.0373 310.21 65.888C310.07 65.7387 310 65.5613 310 65.356C310 65.1413 310.07 64.964 310.21 64.824C310.36 64.6747 310.537 64.6 310.742 64.6C310.948 64.6 311.12 64.6747 311.26 64.824C311.41 64.964 311.484 65.1413 311.484 65.356C311.484 65.5613 311.41 65.7387 311.26 65.888C311.12 66.0373 310.948 66.112 310.742 66.112Z" fill="#151515"/>
<path fill-rule="evenodd" clip-rule="evenodd" d="M359.098 41.7064L359.706 41.0983C360.042 40.7625 360.042 40.2181 359.706 39.882L356.97 37.1457L359.706 34.4095C360.042 34.0737 360.042 33.5293 359.706 33.1932L359.098 32.5851C358.763 32.2493 358.218 32.2493 357.882 32.5851L355.146 35.3214L352.41 32.5851C352.074 32.2493 351.529 32.2493 351.193 32.5851L350.585 33.1932C350.249 33.529 350.249 34.0734 350.585 34.4095L353.321 37.1457L350.585 39.882C350.249 40.2178 350.249 40.7622 350.585 41.0983L351.193 41.7064C351.529 42.0422 352.074 42.0422 352.41 41.7064L355.146 38.9701L357.882 41.7064C358.218 42.0422 358.763 42.0422 359.098 41.7064Z" fill="#1F1F1F"/>
</svg>
