<svg width="480" height="176" viewBox="0 0 480 176" fill="none" xmlns="http://www.w3.org/2000/svg">
<rect width="480" height="176" fill="white"/>
<g clip-path="url(#clip0_329_54389)">
<g clip-path="url(#clip1_329_54389)">
<circle cx="48" cy="46" r="24" fill="#F2F2F2"/>
<mask id="mask0_329_54389" style="mask-type:luminance" maskUnits="userSpaceOnUse" x="24" y="22" width="48" height="48">
<circle cx="48" cy="46" r="24" fill="white"/>
</mask>
<g mask="url(#mask0_329_54389)">
<path fill-rule="evenodd" clip-rule="evenodd" d="M47.5255 48.8076C42.8588 48.8076 38.9922 44.9422 38.9922 40.2772C38.9922 35.6121 42.8588 31.7468 47.5255 31.7468C52.1921 31.7468 56.0588 35.6121 56.0588 40.2772C56.0588 44.9422 52.3255 48.8076 47.5255 48.8076Z" fill="#C7C7C7"/>
<path d="M41.6573 69.9849V61.0547C38.9906 61.5878 37.7906 62.9207 37.524 65.7197L37.3906 69.9849H41.6573Z" fill="#C7C7C7"/>
<path d="M37.3916 70L37.525 65.7348C37.7916 62.9358 38.9916 61.6029 41.6583 61.0698V70H54.1916V61.0698C56.8582 61.6029 58.0582 62.9358 58.3249 65.7348L58.4582 70H64.7249C64.1915 64.8018 62.9915 58.0042 60.8582 55.3384C59.3915 53.4724 57.7916 52.4061 56.1916 51.873C54.5916 51.3398 53.7916 51.0732 47.7916 51.0732C41.7916 51.0732 39.6583 52.0063 39.6583 52.0063C38.0583 52.5394 36.4583 53.6057 35.125 55.4717C32.8583 58.0042 31.6583 64.9351 31.125 70H37.3916Z" fill="#C7C7C7"/>
<path d="M58.4594 69.9849L58.3261 65.7197C58.0594 62.9207 56.8594 61.5878 54.1927 61.0547V69.9849H58.4594Z" fill="#C7C7C7"/>
<path d="M71.5 45.9918C71.5 58.9657 60.9789 69.4835 48 69.4835C35.0211 69.4835 24.5 58.9657 24.5 45.9918C24.5 33.0178 35.0211 22.5 48 22.5C60.9789 22.5 71.5 33.0178 71.5 45.9918Z" stroke="#C7C7C7"/>
</g>
</g>
</g>
<path d="M101.096 37.154C100.265 37.154 99.5373 36.9767 98.912 36.622C98.296 36.2673 97.82 35.7633 97.484 35.11C97.148 34.4567 96.98 33.6867 96.98 32.8V27.2H98.66V32.8C98.66 33.3787 98.758 33.878 98.954 34.298C99.1593 34.718 99.444 35.0493 99.808 35.292C100.172 35.5253 100.601 35.642 101.096 35.642C101.591 35.642 102.02 35.5253 102.384 35.292C102.757 35.0493 103.042 34.718 103.238 34.298C103.434 33.878 103.532 33.3787 103.532 32.8V27.2H105.212V32.8C105.212 33.6867 105.044 34.4567 104.708 35.11C104.381 35.7633 103.91 36.2673 103.294 36.622C102.678 36.9767 101.945 37.154 101.096 37.154ZM109.614 37.14C109.017 37.14 108.457 37.0607 107.934 36.902C107.421 36.734 106.977 36.496 106.604 36.188L107.346 35.138C107.813 35.4273 108.214 35.6327 108.55 35.754C108.895 35.8753 109.245 35.936 109.6 35.936C110.02 35.936 110.361 35.8473 110.622 35.67C110.883 35.4927 111.014 35.264 111.014 34.984C111.014 34.7693 110.935 34.6013 110.776 34.48C110.627 34.3493 110.379 34.2513 110.034 34.186L108.802 33.976C108.121 33.8453 107.612 33.6213 107.276 33.304C106.94 32.9867 106.772 32.5667 106.772 32.044C106.772 31.6053 106.884 31.2273 107.108 30.91C107.341 30.5833 107.659 30.3313 108.06 30.154C108.471 29.9673 108.947 29.874 109.488 29.874C109.973 29.874 110.445 29.944 110.902 30.084C111.359 30.224 111.807 30.434 112.246 30.714L111.504 31.764C111.149 31.5307 110.795 31.3627 110.44 31.26C110.095 31.148 109.745 31.092 109.39 31.092C109.026 31.092 108.732 31.1667 108.508 31.316C108.293 31.456 108.186 31.652 108.186 31.904C108.186 32.128 108.256 32.3007 108.396 32.422C108.545 32.534 108.802 32.618 109.166 32.674L110.412 32.912C111.112 33.0333 111.63 33.2573 111.966 33.584C112.311 33.9013 112.484 34.326 112.484 34.858C112.484 35.2873 112.358 35.6747 112.106 36.02C111.854 36.3653 111.513 36.6407 111.084 36.846C110.655 37.042 110.165 37.14 109.614 37.14ZM117.263 37.14C116.591 37.14 115.985 36.9813 115.443 36.664C114.902 36.3373 114.473 35.9033 114.155 35.362C113.838 34.8113 113.679 34.1907 113.679 33.5C113.679 32.8093 113.829 32.1933 114.127 31.652C114.426 31.1107 114.832 30.6813 115.345 30.364C115.868 30.0373 116.447 29.874 117.081 29.874C117.735 29.874 118.309 30.0327 118.803 30.35C119.307 30.6673 119.699 31.0967 119.979 31.638C120.269 32.1793 120.413 32.8 120.413 33.5V33.878H115.233C115.289 34.2607 115.411 34.6013 115.597 34.9C115.793 35.1893 116.041 35.418 116.339 35.586C116.647 35.754 116.979 35.838 117.333 35.838C117.66 35.838 117.968 35.782 118.257 35.67C118.556 35.5487 118.803 35.3853 118.999 35.18L120.035 36.118C119.606 36.4727 119.167 36.734 118.719 36.902C118.281 37.0607 117.795 37.14 117.263 37.14ZM115.247 32.898H118.915C118.859 32.562 118.743 32.2633 118.565 32.002C118.397 31.7407 118.183 31.5353 117.921 31.386C117.669 31.2367 117.389 31.162 117.081 31.162C116.773 31.162 116.489 31.2367 116.227 31.386C115.975 31.526 115.765 31.7267 115.597 31.988C115.429 32.2493 115.313 32.5527 115.247 32.898ZM122.027 37V29.986H123.609V31.498C123.814 30.966 124.08 30.56 124.407 30.28C124.734 30 125.112 29.86 125.541 29.86C125.672 29.8693 125.788 29.8833 125.891 29.902C125.994 29.9113 126.106 29.944 126.227 30V31.386C126.106 31.33 125.966 31.288 125.807 31.26C125.658 31.232 125.508 31.218 125.359 31.218C124.976 31.218 124.631 31.3207 124.323 31.526C124.024 31.7313 123.786 32.016 123.609 32.38V37H122.027Z" fill="#151515"/>
<path d="M136.836 36.5V29.036L135.492 29.636V28.844L137.16 28.1H137.7V36.5H136.836ZM140.18 36.596C140.004 36.596 139.852 36.532 139.724 36.404C139.604 36.276 139.544 36.124 139.544 35.948C139.544 35.764 139.604 35.612 139.724 35.492C139.852 35.364 140.004 35.3 140.18 35.3C140.356 35.3 140.504 35.364 140.624 35.492C140.752 35.612 140.816 35.764 140.816 35.948C140.816 36.124 140.752 36.276 140.624 36.404C140.504 36.532 140.356 36.596 140.18 36.596ZM140.18 31.832C140.004 31.832 139.852 31.768 139.724 31.64C139.604 31.512 139.544 31.36 139.544 31.184C139.544 31 139.604 30.848 139.724 30.728C139.852 30.6 140.004 30.536 140.18 30.536C140.356 30.536 140.504 30.6 140.624 30.728C140.752 30.848 140.816 31 140.816 31.184C140.816 31.36 140.752 31.512 140.624 31.64C140.504 31.768 140.356 31.832 140.18 31.832ZM145.064 36.632C144.488 36.632 143.948 36.532 143.444 36.332C142.948 36.132 142.508 35.836 142.124 35.444L142.7 34.88C143.052 35.232 143.412 35.488 143.78 35.648C144.156 35.8 144.58 35.876 145.052 35.876C145.46 35.876 145.82 35.804 146.132 35.66C146.452 35.516 146.7 35.316 146.876 35.06C147.052 34.804 147.14 34.512 147.14 34.184C147.14 33.872 147.06 33.596 146.9 33.356C146.748 33.108 146.536 32.916 146.264 32.78C145.992 32.644 145.68 32.576 145.328 32.576H144.332V31.832H145.292C145.748 31.832 146.116 31.692 146.396 31.412C146.684 31.132 146.828 30.768 146.828 30.32C146.828 30.024 146.748 29.756 146.588 29.516C146.428 29.276 146.208 29.088 145.928 28.952C145.656 28.808 145.348 28.736 145.004 28.736C144.572 28.736 144.184 28.816 143.84 28.976C143.504 29.128 143.16 29.388 142.808 29.756L142.232 29.18C142.608 28.78 143.032 28.48 143.504 28.28C143.976 28.072 144.48 27.968 145.016 27.968C145.528 27.968 145.984 28.068 146.384 28.268C146.792 28.468 147.112 28.744 147.344 29.096C147.576 29.44 147.692 29.832 147.692 30.272C147.692 30.712 147.548 31.108 147.26 31.46C146.972 31.804 146.592 32.044 146.12 32.18C146.688 32.308 147.144 32.556 147.488 32.924C147.832 33.292 148.004 33.72 148.004 34.208C148.004 34.672 147.876 35.088 147.62 35.456C147.372 35.824 147.024 36.112 146.576 36.32C146.136 36.528 145.632 36.632 145.064 36.632ZM152.554 36.632C151.914 36.632 151.346 36.448 150.85 36.08C150.362 35.712 149.978 35.204 149.698 34.556C149.418 33.9 149.278 33.148 149.278 32.3C149.278 31.444 149.418 30.692 149.698 30.044C149.978 29.396 150.362 28.888 150.85 28.52C151.346 28.152 151.914 27.968 152.554 27.968C153.194 27.968 153.758 28.152 154.246 28.52C154.742 28.888 155.13 29.396 155.41 30.044C155.69 30.692 155.83 31.444 155.83 32.3C155.83 33.148 155.69 33.9 155.41 34.556C155.13 35.204 154.742 35.712 154.246 36.08C153.758 36.448 153.194 36.632 152.554 36.632ZM152.554 35.852C153.042 35.852 153.462 35.708 153.814 35.42C154.174 35.124 154.454 34.712 154.654 34.184C154.854 33.648 154.954 33.02 154.954 32.3C154.954 31.58 154.854 30.956 154.654 30.428C154.454 29.892 154.174 29.48 153.814 29.192C153.462 28.896 153.042 28.748 152.554 28.748C152.074 28.748 151.654 28.896 151.294 29.192C150.934 29.48 150.654 29.892 150.454 30.428C150.254 30.956 150.154 31.58 150.154 32.3C150.154 33.02 150.254 33.648 150.454 34.184C150.654 34.712 150.934 35.124 151.294 35.42C151.654 35.708 152.074 35.852 152.554 35.852ZM160.384 36.5V28.1H163.852C164.396 28.1 164.868 28.204 165.268 28.412C165.668 28.612 165.976 28.9 166.192 29.276C166.416 29.644 166.528 30.08 166.528 30.584C166.528 31.08 166.416 31.516 166.192 31.892C165.976 32.268 165.668 32.56 165.268 32.768C164.868 32.968 164.396 33.068 163.852 33.068H161.308V36.5H160.384ZM161.308 32.276H163.744C164.328 32.276 164.784 32.124 165.112 31.82C165.44 31.516 165.604 31.104 165.604 30.584C165.604 30.064 165.44 29.656 165.112 29.36C164.784 29.064 164.328 28.916 163.744 28.916H161.308V32.276ZM168.236 36.5V28.1H169.52L172.328 34.076L175.136 28.1H176.42V36.5H175.544V29.192L172.328 35.9L169.1 29.168V36.5H168.236Z" fill="#151515"/>
<path d="M96 57C96 53.6863 98.6863 51 102 51H288C291.314 51 294 53.6863 294 57V100C294 103.314 291.314 106 288 106H102C98.6863 106 96 103.314 96 100V57Z" fill="white"/>
<path d="M112 70.5C112 68.2909 113.791 66.5 116 66.5H132C134.209 66.5 136 68.2909 136 70.5V86.5C136 88.7091 134.209 90.5 132 90.5H116C113.791 90.5 112 88.7091 112 86.5V70.5Z" fill="#147878"/>
<g clip-path="url(#clip2_329_54389)">
<path d="M125.82 72.13C125.395 72.0075 124.952 72.255 124.83 72.68L121.63 83.88C121.507 84.305 121.755 84.7475 122.18 84.87C122.605 84.9925 123.047 84.745 123.17 84.32L126.37 73.12C126.492 72.695 126.245 72.2525 125.82 72.13ZM127.835 75.1325C127.522 75.445 127.522 75.9525 127.835 76.265L130.067 78.5L127.832 80.735C127.52 81.0475 127.52 81.555 127.832 81.8675C128.145 82.18 128.652 82.18 128.965 81.8675L131.765 79.0675C132.077 78.755 132.077 78.2475 131.765 77.935L128.965 75.135C128.652 74.8225 128.145 74.8225 127.832 75.135L127.835 75.1325ZM120.167 75.1325C119.855 74.82 119.347 74.82 119.035 75.1325L116.235 77.9325C115.922 78.245 115.922 78.7525 116.235 79.065L119.035 81.865C119.347 82.1775 119.855 82.1775 120.167 81.865C120.48 81.5525 120.48 81.045 120.167 80.7325L117.932 78.5L120.167 76.265C120.48 75.9525 120.48 75.445 120.167 75.1325Z" fill="white"/>
</g>
<path d="M147.164 74.126C146.679 74.126 146.249 74.0373 145.876 73.86C145.503 73.6827 145.209 73.44 144.994 73.132C144.789 72.8147 144.686 72.4507 144.686 72.04C144.686 71.6293 144.793 71.2747 145.008 70.976C145.223 70.668 145.521 70.43 145.904 70.262C146.287 70.094 146.735 70.01 147.248 70.01C147.64 70.01 148.009 70.052 148.354 70.136C148.709 70.22 149.035 70.3553 149.334 70.542V69.604C149.334 69.044 149.185 68.624 148.886 68.344C148.587 68.0547 148.149 67.91 147.57 67.91C147.253 67.91 146.926 67.9567 146.59 68.05C146.263 68.1433 145.899 68.2927 145.498 68.498L145.12 67.714C146.035 67.2753 146.893 67.056 147.696 67.056C148.545 67.056 149.199 67.266 149.656 67.686C150.113 68.0967 150.342 68.6893 150.342 69.464V74H149.334V73.202C149.035 73.51 148.704 73.7433 148.34 73.902C147.976 74.0513 147.584 74.126 147.164 74.126ZM145.666 72.012C145.666 72.4133 145.82 72.7353 146.128 72.978C146.445 73.2207 146.861 73.342 147.374 73.342C147.757 73.342 148.107 73.2767 148.424 73.146C148.751 73.0153 149.054 72.8193 149.334 72.558V71.242C149.045 71.074 148.746 70.9527 148.438 70.878C148.13 70.794 147.785 70.752 147.402 70.752C146.879 70.752 146.459 70.8687 146.142 71.102C145.825 71.326 145.666 71.6293 145.666 72.012ZM154.787 74.112C154.301 74.112 153.872 74.0047 153.499 73.79C153.125 73.5753 152.831 73.2767 152.617 72.894C152.411 72.5113 152.309 72.0727 152.309 71.578V67.168H153.345V71.284C153.345 71.8907 153.508 72.3713 153.835 72.726C154.161 73.0807 154.605 73.258 155.165 73.258C155.547 73.258 155.888 73.1693 156.187 72.992C156.495 72.8147 156.751 72.558 156.957 72.222V67.168H157.979V74H156.957V72.894C156.695 73.2953 156.383 73.5987 156.019 73.804C155.664 74.0093 155.253 74.112 154.787 74.112ZM162.679 74.14C162.091 74.14 161.643 74 161.335 73.72C161.037 73.4307 160.887 73.0153 160.887 72.474V68.008H159.473V67.168H160.887V65.292L161.909 65.054V67.168H163.869V68.008H161.909V72.208C161.909 72.572 161.984 72.8333 162.133 72.992C162.292 73.1507 162.549 73.23 162.903 73.23C163.081 73.23 163.239 73.216 163.379 73.188C163.519 73.16 163.683 73.1133 163.869 73.048V73.958C163.683 74.0233 163.487 74.07 163.281 74.098C163.076 74.126 162.875 74.14 162.679 74.14ZM165.366 74V63.892L166.388 63.682V68.274C166.65 67.8633 166.962 67.56 167.326 67.364C167.69 67.1587 168.101 67.056 168.558 67.056C169.053 67.056 169.482 67.1633 169.846 67.378C170.22 67.5833 170.509 67.8773 170.714 68.26C170.929 68.6333 171.036 69.072 171.036 69.576V74H170.014V69.87C170.014 69.2633 169.846 68.7873 169.51 68.442C169.184 68.0873 168.74 67.91 168.18 67.91C167.807 67.91 167.466 67.9987 167.158 68.176C166.85 68.3533 166.594 68.6147 166.388 68.96V74H165.366ZM172.895 70.5V69.618H177.557V70.5H172.895ZM182.623 74.112C181.988 74.112 181.419 73.958 180.915 73.65C180.411 73.342 180.014 72.922 179.725 72.39C179.435 71.858 179.291 71.256 179.291 70.584C179.291 69.912 179.435 69.31 179.725 68.778C180.014 68.246 180.411 67.826 180.915 67.518C181.419 67.21 181.988 67.056 182.623 67.056C183.248 67.056 183.808 67.21 184.303 67.518C184.807 67.826 185.203 68.246 185.493 68.778C185.782 69.31 185.927 69.912 185.927 70.584C185.927 71.256 185.782 71.858 185.493 72.39C185.203 72.922 184.807 73.342 184.303 73.65C183.808 73.958 183.248 74.112 182.623 74.112ZM182.609 73.216C183.057 73.216 183.453 73.104 183.799 72.88C184.144 72.6467 184.415 72.3293 184.611 71.928C184.816 71.5267 184.919 71.0787 184.919 70.584C184.919 70.08 184.816 69.632 184.611 69.24C184.415 68.8387 184.144 68.526 183.799 68.302C183.453 68.0687 183.057 67.952 182.609 67.952C182.161 67.952 181.764 68.0687 181.419 68.302C181.073 68.526 180.798 68.8387 180.593 69.24C180.397 69.632 180.299 70.08 180.299 70.584C180.299 71.0787 180.397 71.5267 180.593 71.928C180.798 72.3293 181.073 72.6467 181.419 72.88C181.764 73.104 182.161 73.216 182.609 73.216ZM187.72 76.926V67.168H188.728V68.148C188.989 67.8027 189.307 67.5413 189.68 67.364C190.063 67.1773 190.483 67.084 190.94 67.084C191.537 67.084 192.069 67.2427 192.536 67.56C193.012 67.868 193.39 68.288 193.67 68.82C193.95 69.3427 194.09 69.9307 194.09 70.584C194.09 71.2373 193.945 71.83 193.656 72.362C193.376 72.894 192.993 73.3187 192.508 73.636C192.032 73.944 191.491 74.098 190.884 74.098C190.455 74.098 190.058 74.0187 189.694 73.86C189.33 73.692 189.013 73.454 188.742 73.146V76.926H187.72ZM190.688 73.216C191.145 73.216 191.551 73.104 191.906 72.88C192.27 72.6467 192.555 72.334 192.76 71.942C192.975 71.5407 193.082 71.0927 193.082 70.598C193.082 70.094 192.975 69.646 192.76 69.254C192.555 68.862 192.27 68.554 191.906 68.33C191.551 68.0967 191.145 67.98 190.688 67.98C190.287 67.98 189.913 68.064 189.568 68.232C189.232 68.3907 188.957 68.6193 188.742 68.918V72.264C188.966 72.5627 189.246 72.796 189.582 72.964C189.927 73.132 190.296 73.216 190.688 73.216ZM198.962 74.14C198.327 74.14 197.753 73.986 197.24 73.678C196.727 73.3607 196.321 72.936 196.022 72.404C195.723 71.8627 195.574 71.256 195.574 70.584C195.574 69.912 195.714 69.31 195.994 68.778C196.283 68.246 196.671 67.826 197.156 67.518C197.641 67.21 198.183 67.056 198.78 67.056C199.387 67.056 199.923 67.21 200.39 67.518C200.866 67.8167 201.239 68.2273 201.51 68.75C201.79 69.2633 201.93 69.8467 201.93 70.5V70.808H196.568C196.605 71.2747 196.731 71.6947 196.946 72.068C197.17 72.432 197.459 72.7213 197.814 72.936C198.178 73.1413 198.575 73.244 199.004 73.244C199.359 73.244 199.699 73.1833 200.026 73.062C200.362 72.9313 200.647 72.7587 200.88 72.544L201.524 73.23C201.132 73.538 200.726 73.7667 200.306 73.916C199.886 74.0653 199.438 74.14 198.962 74.14ZM196.596 70.08H200.922C200.875 69.6693 200.749 69.3053 200.544 68.988C200.348 68.6613 200.096 68.4047 199.788 68.218C199.489 68.0313 199.153 67.938 198.78 67.938C198.407 67.938 198.066 68.0313 197.758 68.218C197.45 68.3953 197.193 68.6473 196.988 68.974C196.792 69.2913 196.661 69.66 196.596 70.08ZM203.675 74V67.168H204.697V68.568C204.874 68.092 205.126 67.7233 205.453 67.462C205.789 67.1913 206.172 67.056 206.601 67.056C206.722 67.056 206.834 67.0653 206.937 67.084C207.04 67.0933 207.142 67.1167 207.245 67.154V68.078C207.133 68.0407 207.012 68.0127 206.881 67.994C206.76 67.966 206.643 67.952 206.531 67.952C206.111 67.952 205.742 68.0733 205.425 68.316C205.117 68.5587 204.874 68.8993 204.697 69.338V74H203.675ZM210.424 74.126C209.938 74.126 209.509 74.0373 209.136 73.86C208.762 73.6827 208.468 73.44 208.254 73.132C208.048 72.8147 207.946 72.4507 207.946 72.04C207.946 71.6293 208.053 71.2747 208.268 70.976C208.482 70.668 208.781 70.43 209.164 70.262C209.546 70.094 209.994 70.01 210.508 70.01C210.9 70.01 211.268 70.052 211.614 70.136C211.968 70.22 212.295 70.3553 212.594 70.542V69.604C212.594 69.044 212.444 68.624 212.146 68.344C211.847 68.0547 211.408 67.91 210.83 67.91C210.512 67.91 210.186 67.9567 209.85 68.05C209.523 68.1433 209.159 68.2927 208.758 68.498L208.38 67.714C209.294 67.2753 210.153 67.056 210.956 67.056C211.805 67.056 212.458 67.266 212.916 67.686C213.373 68.0967 213.602 68.6893 213.602 69.464V74H212.594V73.202C212.295 73.51 211.964 73.7433 211.6 73.902C211.236 74.0513 210.844 74.126 210.424 74.126ZM208.926 72.012C208.926 72.4133 209.08 72.7353 209.388 72.978C209.705 73.2207 210.12 73.342 210.634 73.342C211.016 73.342 211.366 73.2767 211.684 73.146C212.01 73.0153 212.314 72.8193 212.594 72.558V71.242C212.304 71.074 212.006 70.9527 211.698 70.878C211.39 70.794 211.044 70.752 210.662 70.752C210.139 70.752 209.719 70.8687 209.402 71.102C209.084 71.326 208.926 71.6293 208.926 72.012ZM218.078 74.14C217.49 74.14 217.042 74 216.734 73.72C216.435 73.4307 216.286 73.0153 216.286 72.474V68.008H214.872V67.168H216.286V65.292L217.308 65.054V67.168H219.268V68.008H217.308V72.208C217.308 72.572 217.382 72.8333 217.532 72.992C217.69 73.1507 217.947 73.23 218.302 73.23C218.479 73.23 218.638 73.216 218.778 73.188C218.918 73.16 219.081 73.1133 219.268 73.048V73.958C219.081 74.0233 218.885 74.07 218.68 74.098C218.474 74.126 218.274 74.14 218.078 74.14ZM223.652 74.112C223.017 74.112 222.448 73.958 221.944 73.65C221.44 73.342 221.043 72.922 220.754 72.39C220.465 71.858 220.32 71.256 220.32 70.584C220.32 69.912 220.465 69.31 220.754 68.778C221.043 68.246 221.44 67.826 221.944 67.518C222.448 67.21 223.017 67.056 223.652 67.056C224.277 67.056 224.837 67.21 225.332 67.518C225.836 67.826 226.233 68.246 226.522 68.778C226.811 69.31 226.956 69.912 226.956 70.584C226.956 71.256 226.811 71.858 226.522 72.39C226.233 72.922 225.836 73.342 225.332 73.65C224.837 73.958 224.277 74.112 223.652 74.112ZM223.638 73.216C224.086 73.216 224.483 73.104 224.828 72.88C225.173 72.6467 225.444 72.3293 225.64 71.928C225.845 71.5267 225.948 71.0787 225.948 70.584C225.948 70.08 225.845 69.632 225.64 69.24C225.444 68.8387 225.173 68.526 224.828 68.302C224.483 68.0687 224.086 67.952 223.638 67.952C223.19 67.952 222.793 68.0687 222.448 68.302C222.103 68.526 221.827 68.8387 221.622 69.24C221.426 69.632 221.328 70.08 221.328 70.584C221.328 71.0787 221.426 71.5267 221.622 71.928C221.827 72.3293 222.103 72.6467 222.448 72.88C222.793 73.104 223.19 73.216 223.638 73.216ZM228.749 74V67.168H229.771V68.568C229.949 68.092 230.201 67.7233 230.527 67.462C230.863 67.1913 231.246 67.056 231.675 67.056C231.797 67.056 231.909 67.0653 232.011 67.084C232.114 67.0933 232.217 67.1167 232.319 67.154V68.078C232.207 68.0407 232.086 68.0127 231.955 67.994C231.834 67.966 231.717 67.952 231.605 67.952C231.185 67.952 230.817 68.0733 230.499 68.316C230.191 68.5587 229.949 68.8993 229.771 69.338V74H228.749Z" fill="#151515"/>
<path d="M147.408 93V89.688L144.072 84.6H145.74L148.164 88.44L150.612 84.6H152.184L148.848 89.688V93H147.408ZM150.963 93L154.263 84.6H155.931L159.183 93H157.635L156.771 90.648H153.327L152.463 93H150.963ZM153.747 89.52H156.375L155.055 85.968L153.747 89.52ZM160.266 93V84.6H162.138L164.598 89.7L167.046 84.6H168.918V93H167.562V86.424L164.586 92.4L161.598 86.388V93H160.266ZM170.93 93V84.6H172.37V91.752H176.846V93H170.93Z" fill="#151515"/>
<path fill-rule="evenodd" clip-rule="evenodd" d="M263.333 82.9224L263.922 82.3327C264.248 82.0071 264.248 81.4792 263.922 81.1533L261.269 78.4999L263.922 75.8465C264.248 75.521 264.248 74.993 263.922 74.6672L263.333 74.0775C263.007 73.7518 262.479 73.7518 262.153 74.0775L259.5 76.7308L256.847 74.0775C256.521 73.7518 255.993 73.7518 255.667 74.0775L255.078 74.6672C254.752 74.9928 254.752 75.5207 255.078 75.8465L257.731 78.4999L255.078 81.1533C254.752 81.4789 254.752 82.0068 255.078 82.3327L255.667 82.9224C255.993 83.248 256.521 83.248 256.847 82.9224L259.5 80.269L262.153 82.9224C262.479 83.248 263.007 83.248 263.333 82.9224Z" fill="#1F1F1F"/>
<path d="M96 120C96 116.686 98.6863 114 102 114H450C453.314 114 456 116.686 456 120V148C456 151.314 453.314 154 450 154H102C98.6863 154 96 151.314 96 148V120Z" fill="#0066CC"/>
<path d="M105.408 140V128.8H106.64V133.808H113.072V128.8H114.304V140H113.072V134.912H106.64V140H105.408ZM120.439 140.16C119.713 140.16 119.057 139.984 118.471 139.632C117.884 139.269 117.42 138.784 117.079 138.176C116.737 137.557 116.567 136.864 116.567 136.096C116.567 135.328 116.727 134.64 117.047 134.032C117.377 133.424 117.82 132.944 118.375 132.592C118.929 132.24 119.548 132.064 120.231 132.064C120.924 132.064 121.537 132.24 122.071 132.592C122.615 132.933 123.041 133.403 123.351 134C123.671 134.587 123.831 135.253 123.831 136V136.352H117.703C117.745 136.885 117.889 137.365 118.135 137.792C118.391 138.208 118.721 138.539 119.127 138.784C119.543 139.019 119.996 139.136 120.487 139.136C120.892 139.136 121.281 139.067 121.655 138.928C122.039 138.779 122.364 138.581 122.631 138.336L123.367 139.12C122.919 139.472 122.455 139.733 121.975 139.904C121.495 140.075 120.983 140.16 120.439 140.16ZM117.735 135.52H122.679C122.625 135.051 122.481 134.635 122.247 134.272C122.023 133.899 121.735 133.605 121.383 133.392C121.041 133.179 120.657 133.072 120.231 133.072C119.804 133.072 119.415 133.179 119.063 133.392C118.711 133.595 118.417 133.883 118.183 134.256C117.959 134.619 117.809 135.04 117.735 135.52ZM125.825 140V132.192H126.993V133.792C127.196 133.248 127.484 132.827 127.857 132.528C128.241 132.219 128.678 132.064 129.169 132.064C129.308 132.064 129.436 132.075 129.553 132.096C129.67 132.107 129.788 132.133 129.905 132.176V133.232C129.777 133.189 129.638 133.157 129.489 133.136C129.35 133.104 129.217 133.088 129.089 133.088C128.609 133.088 128.188 133.227 127.825 133.504C127.473 133.781 127.196 134.171 126.993 134.672V140H125.825ZM134.486 140.16C133.76 140.16 133.104 139.984 132.518 139.632C131.931 139.269 131.467 138.784 131.126 138.176C130.784 137.557 130.614 136.864 130.614 136.096C130.614 135.328 130.774 134.64 131.094 134.032C131.424 133.424 131.867 132.944 132.422 132.592C132.976 132.24 133.595 132.064 134.278 132.064C134.971 132.064 135.584 132.24 136.118 132.592C136.662 132.933 137.088 133.403 137.398 134C137.718 134.587 137.878 135.253 137.878 136V136.352H131.75C131.792 136.885 131.936 137.365 132.182 137.792C132.438 138.208 132.768 138.539 133.174 138.784C133.59 139.019 134.043 139.136 134.534 139.136C134.939 139.136 135.328 139.067 135.702 138.928C136.086 138.779 136.411 138.581 136.678 138.336L137.414 139.12C136.966 139.472 136.502 139.733 136.022 139.904C135.542 140.075 135.03 140.16 134.486 140.16ZM131.782 135.52H136.726C136.672 135.051 136.528 134.635 136.294 134.272C136.07 133.899 135.782 133.605 135.43 133.392C135.088 133.179 134.704 133.072 134.278 133.072C133.851 133.072 133.462 133.179 133.11 133.392C132.758 133.595 132.464 133.883 132.23 134.256C132.006 134.619 131.856 135.04 131.782 135.52ZM143.59 140V132.192H144.758V140H143.59ZM144.182 130.256C143.948 130.256 143.745 130.176 143.574 130.016C143.414 129.845 143.334 129.648 143.334 129.424C143.334 129.2 143.414 129.008 143.574 128.848C143.745 128.677 143.948 128.592 144.182 128.592C144.417 128.592 144.614 128.677 144.774 128.848C144.945 129.008 145.03 129.2 145.03 129.424C145.03 129.648 144.945 129.845 144.774 130.016C144.614 130.176 144.417 130.256 144.182 130.256ZM149.569 140.16C148.929 140.16 148.337 140.064 147.793 139.872C147.249 139.669 146.785 139.381 146.401 139.008L147.025 138.24C147.494 138.581 147.926 138.832 148.321 138.992C148.716 139.141 149.121 139.216 149.537 139.216C150.102 139.216 150.572 139.083 150.945 138.816C151.318 138.549 151.505 138.208 151.505 137.792C151.505 137.472 151.393 137.221 151.169 137.04C150.956 136.859 150.598 136.72 150.097 136.624L148.817 136.4C148.06 136.261 147.5 136.027 147.137 135.696C146.785 135.365 146.609 134.917 146.609 134.352C146.609 133.904 146.726 133.509 146.961 133.168C147.206 132.827 147.542 132.56 147.969 132.368C148.396 132.165 148.881 132.064 149.425 132.064C149.958 132.064 150.465 132.144 150.945 132.304C151.425 132.453 151.91 132.699 152.401 133.04L151.825 133.856C151.42 133.568 151.014 133.36 150.609 133.232C150.204 133.093 149.793 133.024 149.377 133.024C148.865 133.024 148.454 133.136 148.145 133.36C147.836 133.584 147.681 133.888 147.681 134.272C147.681 134.592 147.777 134.837 147.969 135.008C148.172 135.179 148.524 135.307 149.025 135.392L150.337 135.632C151.126 135.771 151.702 136.011 152.065 136.352C152.428 136.693 152.609 137.152 152.609 137.728C152.609 138.187 152.476 138.603 152.209 138.976C151.942 139.339 151.58 139.627 151.121 139.84C150.662 140.053 150.145 140.16 149.569 140.16ZM158.122 140V132.192H159.29V133.408C159.589 132.96 159.93 132.624 160.314 132.4C160.698 132.176 161.13 132.064 161.61 132.064C162.165 132.064 162.65 132.203 163.066 132.48C163.482 132.747 163.797 133.115 164.01 133.584C164.319 133.083 164.687 132.704 165.114 132.448C165.551 132.192 166.053 132.064 166.618 132.064C167.141 132.064 167.599 132.187 167.994 132.432C168.399 132.677 168.714 133.019 168.938 133.456C169.162 133.883 169.274 134.384 169.274 134.96V140H168.106V135.248C168.106 134.565 167.935 134.027 167.594 133.632C167.253 133.237 166.783 133.04 166.186 133.04C165.781 133.04 165.413 133.141 165.082 133.344C164.762 133.547 164.479 133.856 164.234 134.272C164.255 134.379 164.271 134.491 164.282 134.608C164.293 134.725 164.298 134.843 164.298 134.96V140H163.13V135.248C163.13 134.565 162.954 134.027 162.602 133.632C162.261 133.237 161.791 133.04 161.194 133.04C160.394 133.04 159.759 133.424 159.29 134.192V140H158.122ZM171.817 143.504C171.572 143.504 171.321 143.467 171.065 143.392V142.352C171.172 142.373 171.284 142.389 171.401 142.4C171.519 142.411 171.62 142.416 171.705 142.416C172.004 142.416 172.249 142.336 172.441 142.176C172.644 142.016 172.815 141.765 172.953 141.424L173.529 140L170.521 132.192H171.817L174.185 138.608L176.697 132.192H177.993L174.057 141.776C173.887 142.192 173.7 142.528 173.497 142.784C173.295 143.04 173.06 143.221 172.793 143.328C172.527 143.445 172.201 143.504 171.817 143.504ZM185.6 140.144C185.046 140.144 184.555 140.043 184.128 139.84C183.702 139.637 183.366 139.36 183.12 139.008C182.886 138.645 182.768 138.229 182.768 137.76C182.768 137.291 182.891 136.885 183.136 136.544C183.382 136.192 183.723 135.92 184.16 135.728C184.598 135.536 185.11 135.44 185.696 135.44C186.144 135.44 186.566 135.488 186.96 135.584C187.366 135.68 187.739 135.835 188.08 136.048V134.976C188.08 134.336 187.91 133.856 187.568 133.536C187.227 133.205 186.726 133.04 186.064 133.04C185.702 133.04 185.328 133.093 184.944 133.2C184.571 133.307 184.155 133.477 183.696 133.712L183.264 132.816C184.31 132.315 185.291 132.064 186.208 132.064C187.179 132.064 187.926 132.304 188.448 132.784C188.971 133.253 189.232 133.931 189.232 134.816V140H188.08V139.088C187.739 139.44 187.36 139.707 186.944 139.888C186.528 140.059 186.08 140.144 185.6 140.144ZM183.888 137.728C183.888 138.187 184.064 138.555 184.416 138.832C184.779 139.109 185.254 139.248 185.84 139.248C186.278 139.248 186.678 139.173 187.04 139.024C187.414 138.875 187.76 138.651 188.08 138.352V136.848C187.75 136.656 187.408 136.517 187.056 136.432C186.704 136.336 186.31 136.288 185.872 136.288C185.275 136.288 184.795 136.421 184.432 136.688C184.07 136.944 183.888 137.291 183.888 137.728ZM194.312 140.128C193.757 140.128 193.267 140.005 192.84 139.76C192.413 139.515 192.077 139.173 191.832 138.736C191.597 138.299 191.48 137.797 191.48 137.232V132.192H192.664V136.896C192.664 137.589 192.851 138.139 193.224 138.544C193.597 138.949 194.104 139.152 194.744 139.152C195.181 139.152 195.571 139.051 195.912 138.848C196.264 138.645 196.557 138.352 196.792 137.968V132.192H197.96V140H196.792V138.736C196.493 139.195 196.136 139.541 195.72 139.776C195.315 140.011 194.845 140.128 194.312 140.128ZM203.332 140.16C202.66 140.16 202.148 140 201.796 139.68C201.455 139.349 201.284 138.875 201.284 138.256V133.152H199.668V132.192H201.284V130.048L202.452 129.776V132.192H204.692V133.152H202.452V137.952C202.452 138.368 202.538 138.667 202.708 138.848C202.89 139.029 203.183 139.12 203.588 139.12C203.791 139.12 203.972 139.104 204.132 139.072C204.292 139.04 204.479 138.987 204.692 138.912V139.952C204.479 140.027 204.255 140.08 204.02 140.112C203.786 140.144 203.556 140.16 203.332 140.16ZM206.403 140V128.448L207.571 128.208V133.456C207.87 132.987 208.227 132.64 208.643 132.416C209.059 132.181 209.528 132.064 210.051 132.064C210.616 132.064 211.107 132.187 211.523 132.432C211.95 132.667 212.28 133.003 212.515 133.44C212.76 133.867 212.883 134.368 212.883 134.944V140H211.715V135.28C211.715 134.587 211.523 134.043 211.139 133.648C210.766 133.243 210.259 133.04 209.619 133.04C209.192 133.04 208.803 133.141 208.451 133.344C208.099 133.547 207.806 133.845 207.571 134.24V140H206.403ZM218.751 140.16C218.026 140.16 217.37 139.984 216.783 139.632C216.197 139.269 215.733 138.784 215.391 138.176C215.05 137.557 214.879 136.864 214.879 136.096C214.879 135.328 215.039 134.64 215.359 134.032C215.69 133.424 216.133 132.944 216.687 132.592C217.242 132.24 217.861 132.064 218.543 132.064C219.237 132.064 219.85 132.24 220.383 132.592C220.927 132.933 221.354 133.403 221.663 134C221.983 134.587 222.143 135.253 222.143 136V136.352H216.015C216.058 136.885 216.202 137.365 216.447 137.792C216.703 138.208 217.034 138.539 217.439 138.784C217.855 139.019 218.309 139.136 218.799 139.136C219.205 139.136 219.594 139.067 219.967 138.928C220.351 138.779 220.677 138.581 220.943 138.336L221.679 139.12C221.231 139.472 220.767 139.733 220.287 139.904C219.807 140.075 219.295 140.16 218.751 140.16ZM216.047 135.52H220.991C220.938 135.051 220.794 134.635 220.559 134.272C220.335 133.899 220.047 133.605 219.695 133.392C219.354 133.179 218.97 133.072 218.543 133.072C218.117 133.072 217.727 133.179 217.375 133.392C217.023 133.595 216.73 133.883 216.495 134.256C216.271 134.619 216.122 135.04 216.047 135.52ZM224.138 140V132.192H225.306V133.456C225.604 132.987 225.962 132.64 226.378 132.416C226.794 132.181 227.263 132.064 227.786 132.064C228.351 132.064 228.842 132.187 229.258 132.432C229.684 132.667 230.015 133.003 230.25 133.44C230.495 133.867 230.618 134.368 230.618 134.944V140H229.45V135.28C229.45 134.587 229.258 134.043 228.874 133.648C228.5 133.243 227.994 133.04 227.354 133.04C226.927 133.04 226.538 133.141 226.186 133.344C225.834 133.547 225.54 133.845 225.306 134.24V140H224.138ZM235.707 140.16C235.035 140.16 234.523 140 234.171 139.68C233.83 139.349 233.659 138.875 233.659 138.256V133.152H232.043V132.192H233.659V130.048L234.827 129.776V132.192H237.067V133.152H234.827V137.952C234.827 138.368 234.913 138.667 235.083 138.848C235.265 139.029 235.558 139.12 235.963 139.12C236.166 139.12 236.347 139.104 236.507 139.072C236.667 139.04 236.854 138.987 237.067 138.912V139.952C236.854 140.027 236.63 140.08 236.395 140.112C236.161 140.144 235.931 140.16 235.707 140.16ZM238.762 140V132.192H239.93V140H238.762ZM239.354 130.256C239.119 130.256 238.917 130.176 238.746 130.016C238.586 129.845 238.506 129.648 238.506 129.424C238.506 129.2 238.586 129.008 238.746 128.848C238.917 128.677 239.119 128.592 239.354 128.592C239.589 128.592 239.786 128.677 239.946 128.848C240.117 129.008 240.202 129.2 240.202 129.424C240.202 129.648 240.117 129.845 239.946 130.016C239.786 130.176 239.589 130.256 239.354 130.256ZM245.829 140.128C245.104 140.128 244.448 139.952 243.861 139.6C243.285 139.237 242.826 138.752 242.485 138.144C242.144 137.525 241.973 136.843 241.973 136.096C241.973 135.339 242.144 134.656 242.485 134.048C242.826 133.44 243.285 132.96 243.861 132.608C244.448 132.245 245.104 132.064 245.829 132.064C246.405 132.064 246.954 132.171 247.477 132.384C248 132.597 248.453 132.896 248.837 133.28L248.085 134.096C247.808 133.787 247.472 133.547 247.077 133.376C246.682 133.205 246.282 133.12 245.877 133.12C245.365 133.12 244.901 133.253 244.485 133.52C244.08 133.787 243.754 134.144 243.509 134.592C243.264 135.04 243.141 135.541 243.141 136.096C243.141 136.651 243.264 137.152 243.509 137.6C243.754 138.048 244.08 138.405 244.485 138.672C244.901 138.939 245.365 139.072 245.877 139.072C246.282 139.072 246.682 138.987 247.077 138.816C247.472 138.635 247.808 138.395 248.085 138.096L248.837 138.912C248.453 139.296 248 139.595 247.477 139.808C246.954 140.021 246.405 140.128 245.829 140.128ZM252.882 140.144C252.327 140.144 251.836 140.043 251.41 139.84C250.983 139.637 250.647 139.36 250.402 139.008C250.167 138.645 250.05 138.229 250.05 137.76C250.05 137.291 250.172 136.885 250.418 136.544C250.663 136.192 251.004 135.92 251.442 135.728C251.879 135.536 252.391 135.44 252.978 135.44C253.426 135.44 253.847 135.488 254.242 135.584C254.647 135.68 255.02 135.835 255.362 136.048V134.976C255.362 134.336 255.191 133.856 254.85 133.536C254.508 133.205 254.007 133.04 253.346 133.04C252.983 133.04 252.61 133.093 252.226 133.2C251.852 133.307 251.436 133.477 250.978 133.712L250.546 132.816C251.591 132.315 252.572 132.064 253.49 132.064C254.46 132.064 255.207 132.304 255.73 132.784C256.252 133.253 256.514 133.931 256.514 134.816V140H255.362V139.088C255.02 139.44 254.642 139.707 254.226 139.888C253.81 140.059 253.362 140.144 252.882 140.144ZM251.17 137.728C251.17 138.187 251.346 138.555 251.698 138.832C252.06 139.109 252.535 139.248 253.122 139.248C253.559 139.248 253.959 139.173 254.322 139.024C254.695 138.875 255.042 138.651 255.362 138.352V136.848C255.031 136.656 254.69 136.517 254.338 136.432C253.986 136.336 253.591 136.288 253.154 136.288C252.556 136.288 252.076 136.421 251.714 136.688C251.351 136.944 251.17 137.291 251.17 137.728ZM261.629 140.16C260.957 140.16 260.445 140 260.093 139.68C259.752 139.349 259.581 138.875 259.581 138.256V133.152H257.965V132.192H259.581V130.048L260.749 129.776V132.192H262.989V133.152H260.749V137.952C260.749 138.368 260.834 138.667 261.005 138.848C261.186 139.029 261.48 139.12 261.885 139.12C262.088 139.12 262.269 139.104 262.429 139.072C262.589 139.04 262.776 138.987 262.989 138.912V139.952C262.776 140.027 262.552 140.08 262.317 140.112C262.082 140.144 261.853 140.16 261.629 140.16ZM264.684 140V132.192H265.852V140H264.684ZM265.276 130.256C265.041 130.256 264.839 130.176 264.668 130.016C264.508 129.845 264.428 129.648 264.428 129.424C264.428 129.2 264.508 129.008 264.668 128.848C264.839 128.677 265.041 128.592 265.276 128.592C265.511 128.592 265.708 128.677 265.868 128.848C266.039 129.008 266.124 129.2 266.124 129.424C266.124 129.648 266.039 129.845 265.868 130.016C265.708 130.176 265.511 130.256 265.276 130.256ZM271.703 140.128C270.978 140.128 270.327 139.952 269.751 139.6C269.175 139.248 268.722 138.768 268.391 138.16C268.06 137.552 267.895 136.864 267.895 136.096C267.895 135.328 268.06 134.64 268.391 134.032C268.722 133.424 269.175 132.944 269.751 132.592C270.327 132.24 270.978 132.064 271.703 132.064C272.418 132.064 273.058 132.24 273.623 132.592C274.199 132.944 274.652 133.424 274.983 134.032C275.314 134.64 275.479 135.328 275.479 136.096C275.479 136.864 275.314 137.552 274.983 138.16C274.652 138.768 274.199 139.248 273.623 139.6C273.058 139.952 272.418 140.128 271.703 140.128ZM271.687 139.104C272.199 139.104 272.652 138.976 273.047 138.72C273.442 138.453 273.751 138.091 273.975 137.632C274.21 137.173 274.327 136.661 274.327 136.096C274.327 135.52 274.21 135.008 273.975 134.56C273.751 134.101 273.442 133.744 273.047 133.488C272.652 133.221 272.199 133.088 271.687 133.088C271.175 133.088 270.722 133.221 270.327 133.488C269.932 133.744 269.618 134.101 269.383 134.56C269.159 135.008 269.047 135.52 269.047 136.096C269.047 136.661 269.159 137.173 269.383 137.632C269.618 138.091 269.932 138.453 270.327 138.72C270.722 138.976 271.175 139.104 271.687 139.104ZM277.528 140V132.192H278.696V133.456C278.995 132.987 279.352 132.64 279.768 132.416C280.184 132.181 280.653 132.064 281.176 132.064C281.741 132.064 282.232 132.187 282.648 132.432C283.075 132.667 283.405 133.003 283.64 133.44C283.885 133.867 284.008 134.368 284.008 134.944V140H282.84V135.28C282.84 134.587 282.648 134.043 282.264 133.648C281.891 133.243 281.384 133.04 280.744 133.04C280.317 133.04 279.928 133.141 279.576 133.344C279.224 133.547 278.931 133.845 278.696 134.24V140H277.528ZM291.083 140V133.152H289.339V132.192H291.083V130.56C291.083 129.792 291.285 129.2 291.691 128.784C292.096 128.368 292.672 128.16 293.419 128.16C293.632 128.16 293.824 128.171 293.995 128.192C294.176 128.213 294.336 128.251 294.475 128.304V129.36C294.304 129.307 294.149 129.269 294.011 129.248C293.872 129.227 293.712 129.216 293.531 129.216C293.083 129.216 292.757 129.328 292.555 129.552C292.352 129.765 292.251 130.107 292.251 130.576V132.192H294.475V133.152H292.251V140H291.083ZM295.997 140V132.192H297.164V140H295.997ZM296.589 130.256C296.354 130.256 296.151 130.176 295.981 130.016C295.821 129.845 295.741 129.648 295.741 129.424C295.741 129.2 295.821 129.008 295.981 128.848C296.151 128.677 296.354 128.592 296.589 128.592C296.823 128.592 297.021 128.677 297.181 128.848C297.351 129.008 297.437 129.2 297.437 129.424C297.437 129.648 297.351 129.845 297.181 130.016C297.021 130.176 296.823 130.256 296.589 130.256ZM299.559 140V128.448L300.727 128.208V140H299.559ZM306.642 140.16C305.917 140.16 305.261 139.984 304.674 139.632C304.087 139.269 303.623 138.784 303.282 138.176C302.941 137.557 302.77 136.864 302.77 136.096C302.77 135.328 302.93 134.64 303.25 134.032C303.581 133.424 304.023 132.944 304.578 132.592C305.133 132.24 305.751 132.064 306.434 132.064C307.127 132.064 307.741 132.24 308.274 132.592C308.818 132.933 309.245 133.403 309.554 134C309.874 134.587 310.034 135.253 310.034 136V136.352H303.906C303.949 136.885 304.093 137.365 304.338 137.792C304.594 138.208 304.925 138.539 305.33 138.784C305.746 139.019 306.199 139.136 306.69 139.136C307.095 139.136 307.485 139.067 307.858 138.928C308.242 138.779 308.567 138.581 308.834 138.336L309.57 139.12C309.122 139.472 308.658 139.733 308.178 139.904C307.698 140.075 307.186 140.16 306.642 140.16ZM303.938 135.52H308.882C308.829 135.051 308.685 134.635 308.45 134.272C308.226 133.899 307.938 133.605 307.586 133.392C307.245 133.179 306.861 133.072 306.434 133.072C306.007 133.072 305.618 133.179 305.266 133.392C304.914 133.595 304.621 133.883 304.386 134.256C304.162 134.619 304.013 135.04 303.938 135.52Z" fill="white"/>
<defs>
<clipPath id="clip0_329_54389">
<path d="M24 46C24 32.7452 34.7452 22 48 22V22C61.2548 22 72 32.7452 72 46V46C72 59.2548 61.2548 70 48 70V70C34.7452 70 24 59.2548 24 46V46Z" fill="white"/>
</clipPath>
<clipPath id="clip1_329_54389">
<rect width="48" height="48" fill="white" transform="translate(24 22)"/>
</clipPath>
<clipPath id="clip2_329_54389">
<rect width="16" height="12.8" fill="white" transform="translate(116 72.1001)"/>
</clipPath>
</defs>
</svg>
