<svg width="198" height="158" viewBox="0 0 198 158" fill="none" xmlns="http://www.w3.org/2000/svg">
<rect width="198" height="158" fill="white"/>
<path d="M75 108C75 94.7452 85.7452 84 99 84C112.255 84 123 94.7452 123 108C123 121.255 112.255 132 99 132C85.7452 132 75 121.255 75 108Z" fill="#292929"/>
<path fill-rule="evenodd" clip-rule="evenodd" d="M110.039 117.664C110.422 117.664 110.768 117.435 110.922 117.081C111.072 116.727 111.002 116.319 110.739 116.04C110.722 116.027 109.802 115.036 109.164 113.757C110.31 112.628 110.997 111.211 110.997 109.665C110.997 106.332 107.81 103.579 103.657 103.087C102.344 100.687 99.2613 99 95.6659 99C90.879 99 87.0003 101.983 87.0003 105.666C87.0003 107.207 87.6877 108.624 88.8334 109.757C88.196 111.036 87.2794 112.028 87.2627 112.044C87.0003 112.323 86.9253 112.732 87.0794 113.086C87.2294 113.44 87.5794 113.669 87.9626 113.669C90.1915 113.669 91.9913 112.828 93.1787 112.053C93.562 112.14 93.9578 112.207 94.3619 112.257C95.6701 114.648 98.7405 116.331 102.332 116.331C103.198 116.331 104.032 116.231 104.823 116.048C106.01 116.819 107.806 117.664 110.039 117.664ZM90.2915 111.265C90.404 111.069 90.5165 110.861 90.6248 110.649L91.2705 109.353L90.2373 108.332C89.6749 107.774 89 106.862 89 105.666C89 103.137 92.0538 101 95.6659 101C99.2779 101 102.332 103.137 102.332 105.666C102.332 108.195 99.2779 110.332 95.6659 110.332C94.9784 110.332 94.291 110.253 93.6244 110.099L92.7995 109.911L92.0871 110.374C91.4997 110.753 90.8997 111.053 90.2915 111.265ZM107.71 115.261C107.102 115.048 106.502 114.748 105.915 114.369L105.202 113.907L104.373 114.098C103.707 114.252 103.019 114.332 102.332 114.332C100.082 114.332 98.0739 113.494 96.8616 112.261C101.082 111.811 104.332 109.036 104.332 105.666C104.332 105.524 104.315 105.387 104.302 105.249C106.985 105.853 108.998 107.616 108.998 109.665C108.998 110.861 108.323 111.773 107.76 112.332L106.731 113.348L107.377 114.644C107.485 114.856 107.598 115.065 107.71 115.261Z" fill="white"/>
<rect x="106" y="74" width="26" height="26" rx="13" fill="#FBC5C5"/>
<path d="M118.881 91V83.98L117.393 84.616V83.452L119.361 82.6H120.189V91H118.881Z" fill="#151515"/>
<path d="M22.7927 35V26.152H19.4047V25.2H27.2587V26.152H23.8707V35H22.7927ZM30.3328 35.112C29.6981 35.112 29.1288 34.958 28.6248 34.65C28.1208 34.342 27.7241 33.922 27.4348 33.39C27.1455 32.858 27.0008 32.256 27.0008 31.584C27.0008 30.912 27.1455 30.31 27.4348 29.778C27.7241 29.246 28.1208 28.826 28.6248 28.518C29.1288 28.21 29.6981 28.056 30.3328 28.056C30.9581 28.056 31.5181 28.21 32.0128 28.518C32.5168 28.826 32.9135 29.246 33.2028 29.778C33.4921 30.31 33.6368 30.912 33.6368 31.584C33.6368 32.256 33.4921 32.858 33.2028 33.39C32.9135 33.922 32.5168 34.342 32.0128 34.65C31.5181 34.958 30.9581 35.112 30.3328 35.112ZM30.3188 34.216C30.7668 34.216 31.1635 34.104 31.5088 33.88C31.8541 33.6467 32.1248 33.3293 32.3208 32.928C32.5261 32.5267 32.6288 32.0787 32.6288 31.584C32.6288 31.08 32.5261 30.632 32.3208 30.24C32.1248 29.8387 31.8541 29.526 31.5088 29.302C31.1635 29.0687 30.7668 28.952 30.3188 28.952C29.8708 28.952 29.4741 29.0687 29.1288 29.302C28.7835 29.526 28.5081 29.8387 28.3028 30.24C28.1068 30.632 28.0088 31.08 28.0088 31.584C28.0088 32.0787 28.1068 32.5267 28.3028 32.928C28.5081 33.3293 28.7835 33.6467 29.1288 33.88C29.4741 34.104 29.8708 34.216 30.3188 34.216ZM38.5939 38.066C38.1365 38.066 37.6745 38.0007 37.2079 37.87C36.7505 37.7487 36.3259 37.576 35.9339 37.352L36.3679 36.568C36.7879 36.7827 37.1705 36.9413 37.5159 37.044C37.8612 37.1467 38.2065 37.198 38.5519 37.198C39.1772 37.198 39.6485 37.0487 39.9659 36.75C40.2925 36.4513 40.4559 36.0173 40.4559 35.448V34.076C40.1945 34.4027 39.8772 34.6547 39.5039 34.832C39.1305 35 38.7199 35.084 38.2719 35.084C37.6839 35.084 37.1519 34.93 36.6759 34.622C36.1999 34.3047 35.8219 33.8847 35.5419 33.362C35.2619 32.83 35.1219 32.2373 35.1219 31.584C35.1219 30.9307 35.2619 30.3427 35.5419 29.82C35.8312 29.288 36.2185 28.868 36.7039 28.56C37.1892 28.2427 37.7305 28.084 38.3279 28.084C38.7572 28.084 39.1539 28.168 39.5179 28.336C39.8819 28.4947 40.1992 28.7327 40.4699 29.05V28.168H41.4779V35.434C41.4779 36.2833 41.2305 36.932 40.7359 37.38C40.2412 37.8373 39.5272 38.066 38.5939 38.066ZM38.5239 34.202C38.9252 34.202 39.2939 34.1227 39.6299 33.964C39.9659 33.796 40.2412 33.5673 40.4559 33.278V29.904C40.2319 29.6147 39.9472 29.3907 39.6019 29.232C39.2659 29.064 38.9065 28.98 38.5239 28.98C38.0665 28.98 37.6559 29.092 37.2919 29.316C36.9372 29.54 36.6525 29.848 36.4379 30.24C36.2325 30.632 36.1299 31.08 36.1299 31.584C36.1299 32.0787 36.2325 32.5267 36.4379 32.928C36.6525 33.32 36.9372 33.6327 37.2919 33.866C37.6559 34.09 38.0665 34.202 38.5239 34.202ZM46.7423 38.066C46.285 38.066 45.823 38.0007 45.3563 37.87C44.899 37.7487 44.4743 37.576 44.0823 37.352L44.5163 36.568C44.9363 36.7827 45.319 36.9413 45.6643 37.044C46.0097 37.1467 46.355 37.198 46.7003 37.198C47.3257 37.198 47.797 37.0487 48.1143 36.75C48.441 36.4513 48.6043 36.0173 48.6043 35.448V34.076C48.343 34.4027 48.0257 34.6547 47.6523 34.832C47.279 35 46.8683 35.084 46.4203 35.084C45.8323 35.084 45.3003 34.93 44.8243 34.622C44.3483 34.3047 43.9703 33.8847 43.6903 33.362C43.4103 32.83 43.2703 32.2373 43.2703 31.584C43.2703 30.9307 43.4103 30.3427 43.6903 29.82C43.9797 29.288 44.367 28.868 44.8523 28.56C45.3377 28.2427 45.879 28.084 46.4763 28.084C46.9057 28.084 47.3023 28.168 47.6663 28.336C48.0303 28.4947 48.3477 28.7327 48.6183 29.05V28.168H49.6263V35.434C49.6263 36.2833 49.379 36.932 48.8843 37.38C48.3897 37.8373 47.6757 38.066 46.7423 38.066ZM46.6723 34.202C47.0737 34.202 47.4423 34.1227 47.7783 33.964C48.1143 33.796 48.3897 33.5673 48.6043 33.278V29.904C48.3803 29.6147 48.0957 29.3907 47.7503 29.232C47.4143 29.064 47.055 28.98 46.6723 28.98C46.215 28.98 45.8043 29.092 45.4403 29.316C45.0857 29.54 44.801 29.848 44.5863 30.24C44.381 30.632 44.2783 31.08 44.2783 31.584C44.2783 32.0787 44.381 32.5267 44.5863 32.928C44.801 33.32 45.0857 33.6327 45.4403 33.866C45.8043 34.09 46.215 34.202 46.6723 34.202ZM51.7268 35V24.892L52.7488 24.682V35H51.7268ZM57.9239 35.14C57.2893 35.14 56.7153 34.986 56.2019 34.678C55.6886 34.3607 55.2826 33.936 54.9839 33.404C54.6853 32.8627 54.5359 32.256 54.5359 31.584C54.5359 30.912 54.6759 30.31 54.9559 29.778C55.2453 29.246 55.6326 28.826 56.1179 28.518C56.6033 28.21 57.1446 28.056 57.7419 28.056C58.3486 28.056 58.8853 28.21 59.3519 28.518C59.8279 28.8167 60.2013 29.2273 60.4719 29.75C60.7519 30.2633 60.8919 30.8467 60.8919 31.5V31.808H55.5299C55.5673 32.2747 55.6933 32.6947 55.9079 33.068C56.1319 33.432 56.4213 33.7213 56.7759 33.936C57.1399 34.1413 57.5366 34.244 57.9659 34.244C58.3206 34.244 58.6613 34.1833 58.9879 34.062C59.3239 33.9313 59.6086 33.7587 59.8419 33.544L60.4859 34.23C60.0939 34.538 59.6879 34.7667 59.2679 34.916C58.8479 35.0653 58.3999 35.14 57.9239 35.14ZM55.5579 31.08H59.8839C59.8373 30.6693 59.7113 30.3053 59.5059 29.988C59.3099 29.6613 59.0579 29.4047 58.7499 29.218C58.4513 29.0313 58.1153 28.938 57.7419 28.938C57.3686 28.938 57.0279 29.0313 56.7199 29.218C56.4119 29.3953 56.1553 29.6473 55.9499 29.974C55.7539 30.2913 55.6233 30.66 55.5579 31.08ZM67.1225 35L65.2465 28.168H66.2405L67.6685 33.628L69.3065 28.168H70.2165L71.8545 33.628L73.2685 28.168H74.2345L72.3725 35H71.3785L69.7545 29.484L68.1305 35H67.1225ZM75.6799 35V24.892L76.7019 24.682V29.274C76.9632 28.8633 77.2759 28.56 77.6399 28.364C78.0039 28.1587 78.4145 28.056 78.8719 28.056C79.3665 28.056 79.7959 28.1633 80.1599 28.378C80.5332 28.5833 80.8225 28.8773 81.0279 29.26C81.2425 29.6333 81.3499 30.072 81.3499 30.576V35H80.3279V30.87C80.3279 30.2633 80.1599 29.7873 79.8239 29.442C79.4972 29.0873 79.0539 28.91 78.4939 28.91C78.1205 28.91 77.7799 28.9987 77.4719 29.176C77.1639 29.3533 76.9072 29.6147 76.7019 29.96V35H75.6799ZM86.4845 35.14C85.8498 35.14 85.2758 34.986 84.7625 34.678C84.2492 34.3607 83.8432 33.936 83.5445 33.404C83.2458 32.8627 83.0965 32.256 83.0965 31.584C83.0965 30.912 83.2365 30.31 83.5165 29.778C83.8058 29.246 84.1932 28.826 84.6785 28.518C85.1638 28.21 85.7052 28.056 86.3025 28.056C86.9092 28.056 87.4458 28.21 87.9125 28.518C88.3885 28.8167 88.7618 29.2273 89.0325 29.75C89.3125 30.2633 89.4525 30.8467 89.4525 31.5V31.808H84.0905C84.1278 32.2747 84.2538 32.6947 84.4685 33.068C84.6925 33.432 84.9818 33.7213 85.3365 33.936C85.7005 34.1413 86.0972 34.244 86.5265 34.244C86.8812 34.244 87.2218 34.1833 87.5485 34.062C87.8845 33.9313 88.1692 33.7587 88.4025 33.544L89.0465 34.23C88.6545 34.538 88.2485 34.7667 87.8285 34.916C87.4085 35.0653 86.9605 35.14 86.4845 35.14ZM84.1185 31.08H88.4445C88.3978 30.6693 88.2718 30.3053 88.0665 29.988C87.8705 29.6613 87.6185 29.4047 87.3105 29.218C87.0118 29.0313 86.6758 28.938 86.3025 28.938C85.9292 28.938 85.5885 29.0313 85.2805 29.218C84.9725 29.3953 84.7158 29.6473 84.5105 29.974C84.3145 30.2913 84.1838 30.66 84.1185 31.08ZM91.1975 35V28.168H92.2195V29.274C92.4808 28.8633 92.7935 28.56 93.1575 28.364C93.5215 28.1587 93.9321 28.056 94.3895 28.056C94.8841 28.056 95.3135 28.1633 95.6775 28.378C96.0508 28.5833 96.3401 28.8773 96.5455 29.26C96.7601 29.6333 96.8675 30.072 96.8675 30.576V35H95.8455V30.87C95.8455 30.2633 95.6775 29.7873 95.3415 29.442C95.0148 29.0873 94.5715 28.91 94.0115 28.91C93.6381 28.91 93.2975 28.9987 92.9895 29.176C92.6815 29.3533 92.4248 29.6147 92.2195 29.96V35H91.1975ZM105.256 35.112C104.621 35.112 104.047 34.958 103.534 34.65C103.03 34.3327 102.628 33.908 102.33 33.376C102.031 32.8347 101.882 32.2373 101.882 31.584C101.882 30.9213 102.031 30.324 102.33 29.792C102.628 29.26 103.03 28.84 103.534 28.532C104.047 28.2147 104.621 28.056 105.256 28.056C105.76 28.056 106.24 28.1493 106.698 28.336C107.155 28.5227 107.552 28.784 107.888 29.12L107.23 29.834C106.987 29.5633 106.693 29.3533 106.348 29.204C106.002 29.0547 105.652 28.98 105.298 28.98C104.85 28.98 104.444 29.0967 104.08 29.33C103.725 29.5633 103.44 29.876 103.226 30.268C103.011 30.66 102.904 31.0987 102.904 31.584C102.904 32.0693 103.011 32.508 103.226 32.9C103.44 33.292 103.725 33.6047 104.08 33.838C104.444 34.0713 104.85 34.188 105.298 34.188C105.652 34.188 106.002 34.1133 106.348 33.964C106.693 33.8053 106.987 33.5953 107.23 33.334L107.888 34.048C107.552 34.384 107.155 34.6453 106.698 34.832C106.24 35.0187 105.76 35.112 105.256 35.112ZM109.313 35V24.892L110.335 24.682V35H109.313ZM115.454 35.112C114.819 35.112 114.25 34.958 113.746 34.65C113.242 34.342 112.845 33.922 112.556 33.39C112.267 32.858 112.122 32.256 112.122 31.584C112.122 30.912 112.267 30.31 112.556 29.778C112.845 29.246 113.242 28.826 113.746 28.518C114.25 28.21 114.819 28.056 115.454 28.056C116.079 28.056 116.639 28.21 117.134 28.518C117.638 28.826 118.035 29.246 118.324 29.778C118.613 30.31 118.758 30.912 118.758 31.584C118.758 32.256 118.613 32.858 118.324 33.39C118.035 33.922 117.638 34.342 117.134 34.65C116.639 34.958 116.079 35.112 115.454 35.112ZM115.44 34.216C115.888 34.216 116.285 34.104 116.63 33.88C116.975 33.6467 117.246 33.3293 117.442 32.928C117.647 32.5267 117.75 32.0787 117.75 31.584C117.75 31.08 117.647 30.632 117.442 30.24C117.246 29.8387 116.975 29.526 116.63 29.302C116.285 29.0687 115.888 28.952 115.44 28.952C114.992 28.952 114.595 29.0687 114.25 29.302C113.905 29.526 113.629 29.8387 113.424 30.24C113.228 30.632 113.13 31.08 113.13 31.584C113.13 32.0787 113.228 32.5267 113.424 32.928C113.629 33.3293 113.905 33.6467 114.25 33.88C114.595 34.104 114.992 34.216 115.44 34.216ZM122.665 35.14C122.105 35.14 121.587 35.056 121.111 34.888C120.635 34.7107 120.229 34.4587 119.893 34.132L120.439 33.46C120.85 33.7587 121.228 33.978 121.573 34.118C121.918 34.2487 122.273 34.314 122.637 34.314C123.132 34.314 123.542 34.1973 123.869 33.964C124.196 33.7307 124.359 33.432 124.359 33.068C124.359 32.788 124.261 32.5687 124.065 32.41C123.878 32.2513 123.566 32.13 123.127 32.046L122.007 31.85C121.344 31.7287 120.854 31.5233 120.537 31.234C120.229 30.9447 120.075 30.5527 120.075 30.058C120.075 29.666 120.178 29.3207 120.383 29.022C120.598 28.7233 120.892 28.49 121.265 28.322C121.638 28.1447 122.063 28.056 122.539 28.056C123.006 28.056 123.449 28.126 123.869 28.266C124.289 28.3967 124.714 28.6113 125.143 28.91L124.639 29.624C124.284 29.372 123.93 29.19 123.575 29.078C123.22 28.9567 122.861 28.896 122.497 28.896C122.049 28.896 121.69 28.994 121.419 29.19C121.148 29.386 121.013 29.652 121.013 29.988C121.013 30.268 121.097 30.4827 121.265 30.632C121.442 30.7813 121.75 30.8933 122.189 30.968L123.337 31.178C124.028 31.2993 124.532 31.5093 124.849 31.808C125.166 32.1067 125.325 32.508 125.325 33.012C125.325 33.4133 125.208 33.7773 124.975 34.104C124.742 34.4213 124.424 34.6733 124.023 34.86C123.622 35.0467 123.169 35.14 122.665 35.14ZM130.029 35.14C129.395 35.14 128.821 34.986 128.307 34.678C127.794 34.3607 127.388 33.936 127.089 33.404C126.791 32.8627 126.641 32.256 126.641 31.584C126.641 30.912 126.781 30.31 127.061 29.778C127.351 29.246 127.738 28.826 128.223 28.518C128.709 28.21 129.25 28.056 129.847 28.056C130.454 28.056 130.991 28.21 131.457 28.518C131.933 28.8167 132.307 29.2273 132.577 29.75C132.857 30.2633 132.997 30.8467 132.997 31.5V31.808H127.635C127.673 32.2747 127.799 32.6947 128.013 33.068C128.237 33.432 128.527 33.7213 128.881 33.936C129.245 34.1413 129.642 34.244 130.071 34.244C130.426 34.244 130.767 34.1833 131.093 34.062C131.429 33.9313 131.714 33.7587 131.947 33.544L132.591 34.23C132.199 34.538 131.793 34.7667 131.373 34.916C130.953 35.0653 130.505 35.14 130.029 35.14ZM127.663 31.08H131.989C131.943 30.6693 131.817 30.3053 131.611 29.988C131.415 29.6613 131.163 29.4047 130.855 29.218C130.557 29.0313 130.221 28.938 129.847 28.938C129.474 28.938 129.133 29.0313 128.825 29.218C128.517 29.3953 128.261 29.6473 128.055 29.974C127.859 30.2913 127.729 30.66 127.663 31.08ZM137.584 35.098C136.996 35.098 136.464 34.944 135.988 34.636C135.512 34.3187 135.134 33.8987 134.854 33.376C134.574 32.844 134.434 32.2513 134.434 31.598C134.434 30.9353 134.574 30.3427 134.854 29.82C135.144 29.288 135.531 28.868 136.016 28.56C136.502 28.2427 137.043 28.084 137.64 28.084C138.06 28.084 138.452 28.168 138.816 28.336C139.18 28.4947 139.498 28.728 139.768 29.036V24.892L140.79 24.682V35H139.768V34.09C139.507 34.4167 139.19 34.6687 138.816 34.846C138.443 35.014 138.032 35.098 137.584 35.098ZM137.836 34.202C138.238 34.202 138.606 34.1227 138.942 33.964C139.278 33.8053 139.554 33.5813 139.768 33.292V29.904C139.544 29.6147 139.26 29.3907 138.914 29.232C138.578 29.064 138.219 28.98 137.836 28.98C137.379 28.98 136.968 29.092 136.604 29.316C136.25 29.54 135.965 29.848 135.75 30.24C135.545 30.632 135.442 31.08 135.442 31.584C135.442 32.0787 135.545 32.5267 135.75 32.928C135.965 33.32 136.25 33.6327 136.604 33.866C136.968 34.09 137.379 34.202 137.836 34.202ZM148.272 35.126C147.787 35.126 147.358 35.0373 146.984 34.86C146.611 34.6827 146.317 34.44 146.102 34.132C145.897 33.8147 145.794 33.4507 145.794 33.04C145.794 32.6293 145.902 32.2747 146.116 31.976C146.331 31.668 146.63 31.43 147.012 31.262C147.395 31.094 147.843 31.01 148.356 31.01C148.748 31.01 149.117 31.052 149.462 31.136C149.817 31.22 150.144 31.3553 150.442 31.542V30.604C150.442 30.044 150.293 29.624 149.994 29.344C149.696 29.0547 149.257 28.91 148.678 28.91C148.361 28.91 148.034 28.9567 147.698 29.05C147.372 29.1433 147.008 29.2927 146.606 29.498L146.228 28.714C147.143 28.2753 148.002 28.056 148.804 28.056C149.654 28.056 150.307 28.266 150.764 28.686C151.222 29.0967 151.45 29.6893 151.45 30.464V35H150.442V34.202C150.144 34.51 149.812 34.7433 149.448 34.902C149.084 35.0513 148.692 35.126 148.272 35.126ZM146.774 33.012C146.774 33.4133 146.928 33.7353 147.236 33.978C147.554 34.2207 147.969 34.342 148.482 34.342C148.865 34.342 149.215 34.2767 149.532 34.146C149.859 34.0153 150.162 33.8193 150.442 33.558V32.242C150.153 32.074 149.854 31.9527 149.546 31.878C149.238 31.794 148.893 31.752 148.51 31.752C147.988 31.752 147.568 31.8687 147.25 32.102C146.933 32.326 146.774 32.6293 146.774 33.012ZM153.528 35V28.168H154.55V29.274C154.811 28.8633 155.124 28.56 155.488 28.364C155.852 28.1587 156.262 28.056 156.72 28.056C157.214 28.056 157.644 28.1633 158.008 28.378C158.381 28.5833 158.67 28.8773 158.876 29.26C159.09 29.6333 159.198 30.072 159.198 30.576V35H158.176V30.87C158.176 30.2633 158.008 29.7873 157.672 29.442C157.345 29.0873 156.902 28.91 156.342 28.91C155.968 28.91 155.628 28.9987 155.32 29.176C155.012 29.3533 154.755 29.6147 154.55 29.96V35H153.528ZM164.094 35.098C163.506 35.098 162.974 34.944 162.498 34.636C162.022 34.3187 161.644 33.8987 161.364 33.376C161.084 32.844 160.944 32.2513 160.944 31.598C160.944 30.9353 161.084 30.3427 161.364 29.82C161.653 29.288 162.041 28.868 162.526 28.56C163.011 28.2427 163.553 28.084 164.15 28.084C164.57 28.084 164.962 28.168 165.326 28.336C165.69 28.4947 166.007 28.728 166.278 29.036V24.892L167.3 24.682V35H166.278V34.09C166.017 34.4167 165.699 34.6687 165.326 34.846C164.953 35.014 164.542 35.098 164.094 35.098ZM164.346 34.202C164.747 34.202 165.116 34.1227 165.452 33.964C165.788 33.8053 166.063 33.5813 166.278 33.292V29.904C166.054 29.6147 165.769 29.3907 165.424 29.232C165.088 29.064 164.729 28.98 164.346 28.98C163.889 28.98 163.478 29.092 163.114 29.316C162.759 29.54 162.475 29.848 162.26 30.24C162.055 30.632 161.952 31.08 161.952 31.584C161.952 32.0787 162.055 32.5267 162.26 32.928C162.475 33.32 162.759 33.6327 163.114 33.866C163.478 34.09 163.889 34.202 164.346 34.202ZM174.782 35.126C174.297 35.126 173.867 35.0373 173.494 34.86C173.121 34.6827 172.827 34.44 172.612 34.132C172.407 33.8147 172.304 33.4507 172.304 33.04C172.304 32.6293 172.411 32.2747 172.626 31.976C172.841 31.668 173.139 31.43 173.522 31.262C173.905 31.094 174.353 31.01 174.866 31.01C175.258 31.01 175.627 31.052 175.972 31.136C176.327 31.22 176.653 31.3553 176.952 31.542V30.604C176.952 30.044 176.803 29.624 176.504 29.344C176.205 29.0547 175.767 28.91 175.188 28.91C174.871 28.91 174.544 28.9567 174.208 29.05C173.881 29.1433 173.517 29.2927 173.116 29.498L172.738 28.714C173.653 28.2753 174.511 28.056 175.314 28.056C176.163 28.056 176.817 28.266 177.274 28.686C177.731 29.0967 177.96 29.6893 177.96 30.464V35H176.952V34.202C176.653 34.51 176.322 34.7433 175.958 34.902C175.594 35.0513 175.202 35.126 174.782 35.126ZM173.284 33.012C173.284 33.4133 173.438 33.7353 173.746 33.978C174.063 34.2207 174.479 34.342 174.992 34.342C175.375 34.342 175.725 34.2767 176.042 34.146C176.369 34.0153 176.672 33.8193 176.952 33.558V32.242C176.663 32.074 176.364 31.9527 176.056 31.878C175.748 31.794 175.403 31.752 175.02 31.752C174.497 31.752 174.077 31.8687 173.76 32.102C173.443 32.326 173.284 32.6293 173.284 33.012ZM31.3898 56V49.168H32.4118V50.274C32.6732 49.8633 32.9858 49.56 33.3498 49.364C33.7138 49.1587 34.1245 49.056 34.5818 49.056C35.0765 49.056 35.5058 49.1633 35.8698 49.378C36.2432 49.5833 36.5325 49.8773 36.7378 50.26C36.9525 50.6333 37.0598 51.072 37.0598 51.576V56H36.0378V51.87C36.0378 51.2633 35.8698 50.7873 35.5338 50.442C35.2072 50.0873 34.7638 49.91 34.2038 49.91C33.8305 49.91 33.4898 49.9987 33.1818 50.176C32.8738 50.3533 32.6172 50.6147 32.4118 50.96V56H31.3898ZM42.1945 56.14C41.5598 56.14 40.9858 55.986 40.4725 55.678C39.9591 55.3607 39.5531 54.936 39.2545 54.404C38.9558 53.8627 38.8065 53.256 38.8065 52.584C38.8065 51.912 38.9465 51.31 39.2265 50.778C39.5158 50.246 39.9031 49.826 40.3885 49.518C40.8738 49.21 41.4151 49.056 42.0125 49.056C42.6191 49.056 43.1558 49.21 43.6225 49.518C44.0985 49.8167 44.4718 50.2273 44.7425 50.75C45.0225 51.2633 45.1625 51.8467 45.1625 52.5V52.808H39.8005C39.8378 53.2747 39.9638 53.6947 40.1785 54.068C40.4025 54.432 40.6918 54.7213 41.0465 54.936C41.4105 55.1413 41.8071 55.244 42.2365 55.244C42.5911 55.244 42.9318 55.1833 43.2585 55.062C43.5945 54.9313 43.8791 54.7587 44.1125 54.544L44.7565 55.23C44.3645 55.538 43.9585 55.7667 43.5385 55.916C43.1185 56.0653 42.6705 56.14 42.1945 56.14ZM39.8285 52.08H44.1545C44.1078 51.6693 43.9818 51.3053 43.7765 50.988C43.5805 50.6613 43.3285 50.4047 43.0205 50.218C42.7218 50.0313 42.3858 49.938 42.0125 49.938C41.6391 49.938 41.2985 50.0313 40.9905 50.218C40.6825 50.3953 40.4258 50.6473 40.2205 50.974C40.0245 51.2913 39.8938 51.66 39.8285 52.08ZM47.9887 56L46.1127 49.168H47.1067L48.5347 54.628L50.1727 49.168H51.0827L52.7207 54.628L54.1347 49.168H55.1007L53.2387 56H52.2447L50.6207 50.484L48.9967 56H47.9887ZM59.8137 56V49.168H60.8357V50.232C61.097 49.84 61.3957 49.546 61.7317 49.35C62.0677 49.154 62.4457 49.056 62.8657 49.056C63.351 49.056 63.7757 49.1773 64.1397 49.42C64.5037 49.6533 64.779 49.9753 64.9657 50.386C65.2363 49.9473 65.5583 49.616 65.9317 49.392C66.3143 49.168 66.753 49.056 67.2477 49.056C67.705 49.056 68.1063 49.1633 68.4517 49.378C68.8063 49.5927 69.0817 49.8913 69.2777 50.274C69.4737 50.6473 69.5717 51.086 69.5717 51.59V56H68.5497V51.842C68.5497 51.2447 68.4003 50.7733 68.1017 50.428C67.803 50.0827 67.3923 49.91 66.8697 49.91C66.515 49.91 66.193 49.9987 65.9037 50.176C65.6237 50.3533 65.3763 50.624 65.1617 50.988C65.1803 51.0813 65.1943 51.1793 65.2037 51.282C65.213 51.3847 65.2177 51.4873 65.2177 51.59V56H64.1957V51.842C64.1957 51.2447 64.0417 50.7733 63.7337 50.428C63.435 50.0827 63.0243 49.91 62.5017 49.91C61.8017 49.91 61.2463 50.246 60.8357 50.918V56H59.8137ZM74.7198 56.14C74.0852 56.14 73.5112 55.986 72.9978 55.678C72.4845 55.3607 72.0785 54.936 71.7798 54.404C71.4812 53.8627 71.3318 53.256 71.3318 52.584C71.3318 51.912 71.4718 51.31 71.7518 50.778C72.0412 50.246 72.4285 49.826 72.9138 49.518C73.3992 49.21 73.9405 49.056 74.5378 49.056C75.1445 49.056 75.6812 49.21 76.1478 49.518C76.6238 49.8167 76.9972 50.2273 77.2678 50.75C77.5478 51.2633 77.6878 51.8467 77.6878 52.5V52.808H72.3258C72.3632 53.2747 72.4892 53.6947 72.7038 54.068C72.9278 54.432 73.2172 54.7213 73.5718 54.936C73.9358 55.1413 74.3325 55.244 74.7618 55.244C75.1165 55.244 75.4572 55.1833 75.7838 55.062C76.1198 54.9313 76.4045 54.7587 76.6378 54.544L77.2818 55.23C76.8898 55.538 76.4838 55.7667 76.0638 55.916C75.6438 56.0653 75.1958 56.14 74.7198 56.14ZM72.3538 52.08H76.6798C76.6332 51.6693 76.5072 51.3053 76.3018 50.988C76.1058 50.6613 75.8538 50.4047 75.5458 50.218C75.2472 50.0313 74.9112 49.938 74.5378 49.938C74.1645 49.938 73.8238 50.0313 73.5158 50.218C73.2078 50.3953 72.9512 50.6473 72.7458 50.974C72.5498 51.2913 72.4192 51.66 72.3538 52.08ZM81.6152 56.14C81.0552 56.14 80.5372 56.056 80.0612 55.888C79.5852 55.7107 79.1792 55.4587 78.8432 55.132L79.3892 54.46C79.7998 54.7587 80.1778 54.978 80.5232 55.118C80.8685 55.2487 81.2232 55.314 81.5872 55.314C82.0818 55.314 82.4925 55.1973 82.8192 54.964C83.1458 54.7307 83.3092 54.432 83.3092 54.068C83.3092 53.788 83.2112 53.5687 83.0152 53.41C82.8285 53.2513 82.5158 53.13 82.0772 53.046L80.9572 52.85C80.2945 52.7287 79.8045 52.5233 79.4872 52.234C79.1792 51.9447 79.0252 51.5527 79.0252 51.058C79.0252 50.666 79.1278 50.3207 79.3332 50.022C79.5478 49.7233 79.8418 49.49 80.2152 49.322C80.5885 49.1447 81.0132 49.056 81.4892 49.056C81.9558 49.056 82.3992 49.126 82.8192 49.266C83.2392 49.3967 83.6638 49.6113 84.0932 49.91L83.5892 50.624C83.2345 50.372 82.8798 50.19 82.5252 50.078C82.1705 49.9567 81.8112 49.896 81.4472 49.896C80.9992 49.896 80.6398 49.994 80.3692 50.19C80.0985 50.386 79.9632 50.652 79.9632 50.988C79.9632 51.268 80.0472 51.4827 80.2152 51.632C80.3925 51.7813 80.7005 51.8933 81.1392 51.968L82.2872 52.178C82.9778 52.2993 83.4818 52.5093 83.7992 52.808C84.1165 53.1067 84.2752 53.508 84.2752 54.012C84.2752 54.4133 84.1585 54.7773 83.9252 55.104C83.6918 55.4213 83.3745 55.6733 82.9732 55.86C82.5718 56.0467 82.1192 56.14 81.6152 56.14ZM87.9453 56.14C87.3853 56.14 86.8673 56.056 86.3913 55.888C85.9153 55.7107 85.5093 55.4587 85.1733 55.132L85.7193 54.46C86.1299 54.7587 86.5079 54.978 86.8533 55.118C87.1986 55.2487 87.5533 55.314 87.9173 55.314C88.4119 55.314 88.8226 55.1973 89.1493 54.964C89.4759 54.7307 89.6393 54.432 89.6393 54.068C89.6393 53.788 89.5413 53.5687 89.3453 53.41C89.1586 53.2513 88.8459 53.13 88.4073 53.046L87.2873 52.85C86.6246 52.7287 86.1346 52.5233 85.8173 52.234C85.5093 51.9447 85.3553 51.5527 85.3553 51.058C85.3553 50.666 85.4579 50.3207 85.6633 50.022C85.8779 49.7233 86.1719 49.49 86.5453 49.322C86.9186 49.1447 87.3433 49.056 87.8193 49.056C88.2859 49.056 88.7293 49.126 89.1493 49.266C89.5693 49.3967 89.9939 49.6113 90.4233 49.91L89.9193 50.624C89.5646 50.372 89.2099 50.19 88.8553 50.078C88.5006 49.9567 88.1413 49.896 87.7773 49.896C87.3293 49.896 86.9699 49.994 86.6993 50.19C86.4286 50.386 86.2933 50.652 86.2933 50.988C86.2933 51.268 86.3773 51.4827 86.5453 51.632C86.7226 51.7813 87.0306 51.8933 87.4693 51.968L88.6173 52.178C89.3079 52.2993 89.8119 52.5093 90.1293 52.808C90.4466 53.1067 90.6053 53.508 90.6053 54.012C90.6053 54.4133 90.4886 54.7773 90.2553 55.104C90.0219 55.4213 89.7046 55.6733 89.3033 55.86C88.9019 56.0467 88.4493 56.14 87.9453 56.14ZM94.3437 56.126C93.8584 56.126 93.429 56.0373 93.0557 55.86C92.6824 55.6827 92.3884 55.44 92.1737 55.132C91.9684 54.8147 91.8657 54.4507 91.8657 54.04C91.8657 53.6293 91.973 53.2747 92.1877 52.976C92.4024 52.668 92.701 52.43 93.0837 52.262C93.4664 52.094 93.9144 52.01 94.4277 52.01C94.8197 52.01 95.1884 52.052 95.5337 52.136C95.8884 52.22 96.215 52.3553 96.5137 52.542V51.604C96.5137 51.044 96.3644 50.624 96.0657 50.344C95.767 50.0547 95.3284 49.91 94.7497 49.91C94.4324 49.91 94.1057 49.9567 93.7697 50.05C93.443 50.1433 93.079 50.2927 92.6777 50.498L92.2997 49.714C93.2144 49.2753 94.073 49.056 94.8757 49.056C95.725 49.056 96.3784 49.266 96.8357 49.686C97.293 50.0967 97.5217 50.6893 97.5217 51.464V56H96.5137V55.202C96.215 55.51 95.8837 55.7433 95.5197 55.902C95.1557 56.0513 94.7637 56.126 94.3437 56.126ZM92.8457 54.012C92.8457 54.4133 92.9997 54.7353 93.3077 54.978C93.625 55.2207 94.0404 55.342 94.5537 55.342C94.9364 55.342 95.2864 55.2767 95.6037 55.146C95.9304 55.0153 96.2337 54.8193 96.5137 54.558V53.242C96.2244 53.074 95.9257 52.9527 95.6177 52.878C95.3097 52.794 94.9644 52.752 94.5817 52.752C94.059 52.752 93.639 52.8687 93.3217 53.102C93.0044 53.326 92.8457 53.6293 92.8457 54.012ZM102.763 59.066C102.305 59.066 101.843 59.0007 101.377 58.87C100.919 58.7487 100.495 58.576 100.103 58.352L100.537 57.568C100.957 57.7827 101.339 57.9413 101.685 58.044C102.03 58.1467 102.375 58.198 102.721 58.198C103.346 58.198 103.817 58.0487 104.135 57.75C104.461 57.4513 104.625 57.0173 104.625 56.448V55.076C104.363 55.4027 104.046 55.6547 103.673 55.832C103.299 56 102.889 56.084 102.441 56.084C101.853 56.084 101.321 55.93 100.845 55.622C100.369 55.3047 99.9908 54.8847 99.7108 54.362C99.4308 53.83 99.2908 53.2373 99.2908 52.584C99.2908 51.9307 99.4308 51.3427 99.7108 50.82C100 50.288 100.387 49.868 100.873 49.56C101.358 49.2427 101.899 49.084 102.497 49.084C102.926 49.084 103.323 49.168 103.687 49.336C104.051 49.4947 104.368 49.7327 104.639 50.05V49.168H105.647V56.434C105.647 57.2833 105.399 57.932 104.905 58.38C104.41 58.8373 103.696 59.066 102.763 59.066ZM102.693 55.202C103.094 55.202 103.463 55.1227 103.799 54.964C104.135 54.796 104.41 54.5673 104.625 54.278V50.904C104.401 50.6147 104.116 50.3907 103.771 50.232C103.435 50.064 103.075 49.98 102.693 49.98C102.235 49.98 101.825 50.092 101.461 50.316C101.106 50.54 100.821 50.848 100.607 51.24C100.401 51.632 100.299 52.08 100.299 52.584C100.299 53.0787 100.401 53.5267 100.607 53.928C100.821 54.32 101.106 54.6327 101.461 54.866C101.825 55.09 102.235 55.202 102.693 55.202ZM110.827 56.14C110.193 56.14 109.619 55.986 109.105 55.678C108.592 55.3607 108.186 54.936 107.887 54.404C107.589 53.8627 107.439 53.256 107.439 52.584C107.439 51.912 107.579 51.31 107.859 50.778C108.149 50.246 108.536 49.826 109.021 49.518C109.507 49.21 110.048 49.056 110.645 49.056C111.252 49.056 111.789 49.21 112.255 49.518C112.731 49.8167 113.105 50.2273 113.375 50.75C113.655 51.2633 113.795 51.8467 113.795 52.5V52.808H108.433C108.471 53.2747 108.597 53.6947 108.811 54.068C109.035 54.432 109.325 54.7213 109.679 54.936C110.043 55.1413 110.44 55.244 110.869 55.244C111.224 55.244 111.565 55.1833 111.891 55.062C112.227 54.9313 112.512 54.7587 112.745 54.544L113.389 55.23C112.997 55.538 112.591 55.7667 112.171 55.916C111.751 56.0653 111.303 56.14 110.827 56.14ZM108.461 52.08H112.787C112.741 51.6693 112.615 51.3053 112.409 50.988C112.213 50.6613 111.961 50.4047 111.653 50.218C111.355 50.0313 111.019 49.938 110.645 49.938C110.272 49.938 109.931 50.0313 109.623 50.218C109.315 50.3953 109.059 50.6473 108.853 50.974C108.657 51.2913 108.527 51.66 108.461 52.08ZM120.922 56.126C120.436 56.126 120.007 56.0373 119.634 55.86C119.26 55.6827 118.966 55.44 118.752 55.132C118.546 54.8147 118.444 54.4507 118.444 54.04C118.444 53.6293 118.551 53.2747 118.766 52.976C118.98 52.668 119.279 52.43 119.662 52.262C120.044 52.094 120.492 52.01 121.006 52.01C121.398 52.01 121.766 52.052 122.112 52.136C122.466 52.22 122.793 52.3553 123.092 52.542V51.604C123.092 51.044 122.942 50.624 122.644 50.344C122.345 50.0547 121.906 49.91 121.328 49.91C121.01 49.91 120.684 49.9567 120.348 50.05C120.021 50.1433 119.657 50.2927 119.256 50.498L118.878 49.714C119.792 49.2753 120.651 49.056 121.454 49.056C122.303 49.056 122.956 49.266 123.414 49.686C123.871 50.0967 124.1 50.6893 124.1 51.464V56H123.092V55.202C122.793 55.51 122.462 55.7433 122.098 55.902C121.734 56.0513 121.342 56.126 120.922 56.126ZM119.424 54.012C119.424 54.4133 119.578 54.7353 119.886 54.978C120.203 55.2207 120.618 55.342 121.132 55.342C121.514 55.342 121.864 55.2767 122.182 55.146C122.508 55.0153 122.812 54.8193 123.092 54.558V53.242C122.802 53.074 122.504 52.9527 122.196 52.878C121.888 52.794 121.542 52.752 121.16 52.752C120.637 52.752 120.217 52.8687 119.9 53.102C119.582 53.326 119.424 53.6293 119.424 54.012ZM126.177 58.926V49.168H127.185V50.148C127.446 49.8027 127.764 49.5413 128.137 49.364C128.52 49.1773 128.94 49.084 129.397 49.084C129.994 49.084 130.526 49.2427 130.993 49.56C131.469 49.868 131.847 50.288 132.127 50.82C132.407 51.3427 132.547 51.9307 132.547 52.584C132.547 53.2373 132.402 53.83 132.113 54.362C131.833 54.894 131.45 55.3187 130.965 55.636C130.489 55.944 129.948 56.098 129.341 56.098C128.912 56.098 128.515 56.0187 128.151 55.86C127.787 55.692 127.47 55.454 127.199 55.146V58.926H126.177ZM129.145 55.216C129.602 55.216 130.008 55.104 130.363 54.88C130.727 54.6467 131.012 54.334 131.217 53.942C131.432 53.5407 131.539 53.0927 131.539 52.598C131.539 52.094 131.432 51.646 131.217 51.254C131.012 50.862 130.727 50.554 130.363 50.33C130.008 50.0967 129.602 49.98 129.145 49.98C128.744 49.98 128.37 50.064 128.025 50.232C127.689 50.3907 127.414 50.6193 127.199 50.918V54.264C127.423 54.5627 127.703 54.796 128.039 54.964C128.384 55.132 128.753 55.216 129.145 55.216ZM134.339 58.926V49.168H135.347V50.148C135.608 49.8027 135.926 49.5413 136.299 49.364C136.682 49.1773 137.102 49.084 137.559 49.084C138.156 49.084 138.688 49.2427 139.155 49.56C139.631 49.868 140.009 50.288 140.289 50.82C140.569 51.3427 140.709 51.9307 140.709 52.584C140.709 53.2373 140.564 53.83 140.275 54.362C139.995 54.894 139.612 55.3187 139.127 55.636C138.651 55.944 138.11 56.098 137.503 56.098C137.074 56.098 136.677 56.0187 136.313 55.86C135.949 55.692 135.632 55.454 135.361 55.146V58.926H134.339ZM137.307 55.216C137.764 55.216 138.17 55.104 138.525 54.88C138.889 54.6467 139.174 54.334 139.379 53.942C139.594 53.5407 139.701 53.0927 139.701 52.598C139.701 52.094 139.594 51.646 139.379 51.254C139.174 50.862 138.889 50.554 138.525 50.33C138.17 50.0967 137.764 49.98 137.307 49.98C136.906 49.98 136.532 50.064 136.187 50.232C135.851 50.3907 135.576 50.6193 135.361 50.918V54.264C135.585 54.5627 135.865 54.796 136.201 54.964C136.546 55.132 136.915 55.216 137.307 55.216ZM145.581 56.14C144.947 56.14 144.373 55.986 143.859 55.678C143.346 55.3607 142.94 54.936 142.641 54.404C142.343 53.8627 142.193 53.256 142.193 52.584C142.193 51.912 142.333 51.31 142.613 50.778C142.903 50.246 143.29 49.826 143.775 49.518C144.261 49.21 144.802 49.056 145.399 49.056C146.006 49.056 146.543 49.21 147.009 49.518C147.485 49.8167 147.859 50.2273 148.129 50.75C148.409 51.2633 148.549 51.8467 148.549 52.5V52.808H143.187C143.225 53.2747 143.351 53.6947 143.565 54.068C143.789 54.432 144.079 54.7213 144.433 54.936C144.797 55.1413 145.194 55.244 145.623 55.244C145.978 55.244 146.319 55.1833 146.645 55.062C146.981 54.9313 147.266 54.7587 147.499 54.544L148.143 55.23C147.751 55.538 147.345 55.7667 146.925 55.916C146.505 56.0653 146.057 56.14 145.581 56.14ZM143.215 52.08H147.541C147.495 51.6693 147.369 51.3053 147.163 50.988C146.967 50.6613 146.715 50.4047 146.407 50.218C146.109 50.0313 145.773 49.938 145.399 49.938C145.026 49.938 144.685 50.0313 144.377 50.218C144.069 50.3953 143.813 50.6473 143.607 50.974C143.411 51.2913 143.281 51.66 143.215 52.08ZM152.271 56.126C151.786 56.126 151.357 56.0373 150.983 55.86C150.61 55.6827 150.316 55.44 150.101 55.132C149.896 54.8147 149.793 54.4507 149.793 54.04C149.793 53.6293 149.901 53.2747 150.115 52.976C150.33 52.668 150.629 52.43 151.011 52.262C151.394 52.094 151.842 52.01 152.355 52.01C152.747 52.01 153.116 52.052 153.461 52.136C153.816 52.22 154.143 52.3553 154.441 52.542V51.604C154.441 51.044 154.292 50.624 153.993 50.344C153.695 50.0547 153.256 49.91 152.677 49.91C152.36 49.91 152.033 49.9567 151.697 50.05C151.371 50.1433 151.007 50.2927 150.605 50.498L150.227 49.714C151.142 49.2753 152.001 49.056 152.803 49.056C153.653 49.056 154.306 49.266 154.763 49.686C155.221 50.0967 155.449 50.6893 155.449 51.464V56H154.441V55.202C154.143 55.51 153.811 55.7433 153.447 55.902C153.083 56.0513 152.691 56.126 152.271 56.126ZM150.773 54.012C150.773 54.4133 150.927 54.7353 151.235 54.978C151.553 55.2207 151.968 55.342 152.481 55.342C152.864 55.342 153.214 55.2767 153.531 55.146C153.858 55.0153 154.161 54.8193 154.441 54.558V53.242C154.152 53.074 153.853 52.9527 153.545 52.878C153.237 52.794 152.892 52.752 152.509 52.752C151.987 52.752 151.567 52.8687 151.249 53.102C150.932 53.326 150.773 53.6293 150.773 54.012ZM157.527 56V49.168H158.549V50.568C158.726 50.092 158.978 49.7233 159.305 49.462C159.641 49.1913 160.023 49.056 160.453 49.056C160.574 49.056 160.686 49.0653 160.789 49.084C160.891 49.0933 160.994 49.1167 161.097 49.154V50.078C160.985 50.0407 160.863 50.0127 160.733 49.994C160.611 49.966 160.495 49.952 160.383 49.952C159.963 49.952 159.594 50.0733 159.277 50.316C158.969 50.5587 158.726 50.8993 158.549 51.338V56H157.527ZM164.494 56.14C163.934 56.14 163.416 56.056 162.94 55.888C162.464 55.7107 162.058 55.4587 161.722 55.132L162.268 54.46C162.679 54.7587 163.057 54.978 163.402 55.118C163.747 55.2487 164.102 55.314 164.466 55.314C164.961 55.314 165.371 55.1973 165.698 54.964C166.025 54.7307 166.188 54.432 166.188 54.068C166.188 53.788 166.09 53.5687 165.894 53.41C165.707 53.2513 165.395 53.13 164.956 53.046L163.836 52.85C163.173 52.7287 162.683 52.5233 162.366 52.234C162.058 51.9447 161.904 51.5527 161.904 51.058C161.904 50.666 162.007 50.3207 162.212 50.022C162.427 49.7233 162.721 49.49 163.094 49.322C163.467 49.1447 163.892 49.056 164.368 49.056C164.835 49.056 165.278 49.126 165.698 49.266C166.118 49.3967 166.543 49.6113 166.972 49.91L166.468 50.624C166.113 50.372 165.759 50.19 165.404 50.078C165.049 49.9567 164.69 49.896 164.326 49.896C163.878 49.896 163.519 49.994 163.248 50.19C162.977 50.386 162.842 50.652 162.842 50.988C162.842 51.268 162.926 51.4827 163.094 51.632C163.271 51.7813 163.579 51.8933 164.018 51.968L165.166 52.178C165.857 52.2993 166.361 52.5093 166.678 52.808C166.995 53.1067 167.154 53.508 167.154 54.012C167.154 54.4133 167.037 54.7773 166.804 55.104C166.571 55.4213 166.253 55.6733 165.852 55.86C165.451 56.0467 164.998 56.14 164.494 56.14Z" fill="#4D4D4D"/>
</svg>
