<svg width="477" height="158" viewBox="0 0 477 158" fill="none" xmlns="http://www.w3.org/2000/svg">
<rect width="477" height="158" fill="white"/>
<path d="M63 107C63 93.7452 73.7452 83 87 83C100.255 83 111 93.7452 111 107C111 120.255 100.255 131 87 131C73.7452 131 63 120.255 63 107Z" fill="#292929"/>
<path fill-rule="evenodd" clip-rule="evenodd" d="M98.0392 116.664C98.4225 116.664 98.7683 116.435 98.9224 116.081C99.0724 115.727 99.0016 115.319 98.7391 115.04C98.7225 115.027 97.8017 114.036 97.1643 112.757C98.31 111.628 98.9974 110.211 98.9974 108.665C98.9974 105.332 95.8103 102.579 91.6566 102.087C90.3443 99.6873 87.2613 98 83.6659 98C78.879 98 75.0003 100.983 75.0003 104.666C75.0003 106.207 75.6877 107.624 76.8334 108.757C76.196 110.036 75.2794 111.028 75.2627 111.044C75.0003 111.323 74.9253 111.732 75.0794 112.086C75.2294 112.44 75.5794 112.669 75.9626 112.669C78.1915 112.669 79.9913 111.828 81.1787 111.053C81.562 111.14 81.9578 111.207 82.3619 111.257C83.6701 113.648 86.7405 115.331 90.3318 115.331C91.1983 115.331 92.0316 115.231 92.8231 115.048C94.0105 115.819 95.8061 116.664 98.0392 116.664ZM78.2915 110.265C78.404 110.069 78.5165 109.861 78.6248 109.649L79.2705 108.353L78.2373 107.332C77.6749 106.774 77 105.862 77 104.666C77 102.137 80.0538 99.9998 83.6659 99.9998C87.2779 99.9998 90.3317 102.137 90.3317 104.666C90.3317 107.195 87.2779 109.332 83.6659 109.332C82.9784 109.332 82.291 109.253 81.6244 109.099L80.7995 108.911L80.0871 109.374C79.4997 109.753 78.8997 110.053 78.2915 110.265ZM95.7103 114.261C95.102 114.048 94.5021 113.748 93.9147 113.369L93.2023 112.907L92.3732 113.098C91.7066 113.252 91.0192 113.332 90.3318 113.332C88.082 113.332 86.0739 112.494 84.8616 111.261C89.0819 110.811 92.3315 108.036 92.3315 104.666C92.3315 104.524 92.3148 104.387 92.3023 104.249C94.9854 104.853 96.9976 106.616 96.9976 108.665C96.9976 109.861 96.3227 110.773 95.7603 111.332L94.7312 112.348L95.377 113.644C95.4853 113.856 95.5978 114.065 95.7103 114.261Z" fill="white"/>
<path d="M371 107C371 93.7452 381.745 83 395 83C408.255 83 419 93.7452 419 107C419 120.255 408.255 131 395 131C381.745 131 371 120.255 371 107Z" fill="#292929"/>
<path fill-rule="evenodd" clip-rule="evenodd" d="M395.845 111.981L402.647 105.178C403.118 104.713 403.118 103.953 402.647 103.483L401.517 102.353C401.052 101.882 400.292 101.882 399.821 102.353L395 107.174L390.179 102.353C389.713 101.882 388.953 101.882 388.483 102.353L387.353 103.483C386.882 103.948 386.882 104.708 387.353 105.178L394.155 111.981C394.625 112.451 395.385 112.451 395.845 111.981Z" fill="white"/>
<path d="M296 107L291 104.113L291 109.887L296 107ZM206 107.5L291.5 107.5L291.5 106.5L206 106.5L206 107.5Z" fill="#707070"/>
<path d="M29.8659 42V33.152H26.4779V32.2H34.3319V33.152H30.9439V42H29.8659ZM37.406 42.112C36.7714 42.112 36.202 41.958 35.698 41.65C35.194 41.342 34.7974 40.922 34.508 40.39C34.2187 39.858 34.074 39.256 34.074 38.584C34.074 37.912 34.2187 37.31 34.508 36.778C34.7974 36.246 35.194 35.826 35.698 35.518C36.202 35.21 36.7714 35.056 37.406 35.056C38.0314 35.056 38.5914 35.21 39.086 35.518C39.59 35.826 39.9867 36.246 40.276 36.778C40.5654 37.31 40.71 37.912 40.71 38.584C40.71 39.256 40.5654 39.858 40.276 40.39C39.9867 40.922 39.59 41.342 39.086 41.65C38.5914 41.958 38.0314 42.112 37.406 42.112ZM37.392 41.216C37.84 41.216 38.2367 41.104 38.582 40.88C38.9274 40.6467 39.198 40.3293 39.394 39.928C39.5994 39.5267 39.702 39.0787 39.702 38.584C39.702 38.08 39.5994 37.632 39.394 37.24C39.198 36.8387 38.9274 36.526 38.582 36.302C38.2367 36.0687 37.84 35.952 37.392 35.952C36.944 35.952 36.5474 36.0687 36.202 36.302C35.8567 36.526 35.5814 36.8387 35.376 37.24C35.18 37.632 35.082 38.08 35.082 38.584C35.082 39.0787 35.18 39.5267 35.376 39.928C35.5814 40.3293 35.8567 40.6467 36.202 40.88C36.5474 41.104 36.944 41.216 37.392 41.216ZM45.6671 45.066C45.2098 45.066 44.7478 45.0007 44.2811 44.87C43.8238 44.7487 43.3991 44.576 43.0071 44.352L43.4411 43.568C43.8611 43.7827 44.2438 43.9413 44.5891 44.044C44.9345 44.1467 45.2798 44.198 45.6251 44.198C46.2505 44.198 46.7218 44.0487 47.0391 43.75C47.3658 43.4513 47.5291 43.0173 47.5291 42.448V41.076C47.2678 41.4027 46.9505 41.6547 46.5771 41.832C46.2038 42 45.7931 42.084 45.3451 42.084C44.7571 42.084 44.2251 41.93 43.7491 41.622C43.2731 41.3047 42.8951 40.8847 42.6151 40.362C42.3351 39.83 42.1951 39.2373 42.1951 38.584C42.1951 37.9307 42.3351 37.3427 42.6151 36.82C42.9045 36.288 43.2918 35.868 43.7771 35.56C44.2625 35.2427 44.8038 35.084 45.4011 35.084C45.8305 35.084 46.2271 35.168 46.5911 35.336C46.9551 35.4947 47.2725 35.7327 47.5431 36.05V35.168H48.5511V42.434C48.5511 43.2833 48.3038 43.932 47.8091 44.38C47.3145 44.8373 46.6005 45.066 45.6671 45.066ZM45.5971 41.202C45.9985 41.202 46.3671 41.1227 46.7031 40.964C47.0391 40.796 47.3145 40.5673 47.5291 40.278V36.904C47.3051 36.6147 47.0205 36.3907 46.6751 36.232C46.3391 36.064 45.9798 35.98 45.5971 35.98C45.1398 35.98 44.7291 36.092 44.3651 36.316C44.0105 36.54 43.7258 36.848 43.5111 37.24C43.3058 37.632 43.2031 38.08 43.2031 38.584C43.2031 39.0787 43.3058 39.5267 43.5111 39.928C43.7258 40.32 44.0105 40.6327 44.3651 40.866C44.7291 41.09 45.1398 41.202 45.5971 41.202ZM53.8156 45.066C53.3582 45.066 52.8962 45.0007 52.4296 44.87C51.9722 44.7487 51.5476 44.576 51.1556 44.352L51.5896 43.568C52.0096 43.7827 52.3922 43.9413 52.7376 44.044C53.0829 44.1467 53.4282 44.198 53.7736 44.198C54.3989 44.198 54.8702 44.0487 55.1876 43.75C55.5142 43.4513 55.6776 43.0173 55.6776 42.448V41.076C55.4162 41.4027 55.0989 41.6547 54.7256 41.832C54.3522 42 53.9416 42.084 53.4936 42.084C52.9056 42.084 52.3736 41.93 51.8976 41.622C51.4216 41.3047 51.0436 40.8847 50.7636 40.362C50.4836 39.83 50.3436 39.2373 50.3436 38.584C50.3436 37.9307 50.4836 37.3427 50.7636 36.82C51.0529 36.288 51.4402 35.868 51.9256 35.56C52.4109 35.2427 52.9522 35.084 53.5496 35.084C53.9789 35.084 54.3756 35.168 54.7396 35.336C55.1036 35.4947 55.4209 35.7327 55.6916 36.05V35.168H56.6996V42.434C56.6996 43.2833 56.4522 43.932 55.9576 44.38C55.4629 44.8373 54.7489 45.066 53.8156 45.066ZM53.7456 41.202C54.1469 41.202 54.5156 41.1227 54.8516 40.964C55.1876 40.796 55.4629 40.5673 55.6776 40.278V36.904C55.4536 36.6147 55.1689 36.3907 54.8236 36.232C54.4876 36.064 54.1282 35.98 53.7456 35.98C53.2882 35.98 52.8776 36.092 52.5136 36.316C52.1589 36.54 51.8742 36.848 51.6596 37.24C51.4542 37.632 51.3516 38.08 51.3516 38.584C51.3516 39.0787 51.4542 39.5267 51.6596 39.928C51.8742 40.32 52.1589 40.6327 52.5136 40.866C52.8776 41.09 53.2882 41.202 53.7456 41.202ZM58.8 42V31.892L59.822 31.682V42H58.8ZM64.9972 42.14C64.3625 42.14 63.7885 41.986 63.2752 41.678C62.7619 41.3607 62.3559 40.936 62.0572 40.404C61.7585 39.8627 61.6092 39.256 61.6092 38.584C61.6092 37.912 61.7492 37.31 62.0292 36.778C62.3185 36.246 62.7059 35.826 63.1912 35.518C63.6765 35.21 64.2179 35.056 64.8152 35.056C65.4219 35.056 65.9585 35.21 66.4252 35.518C66.9012 35.8167 67.2745 36.2273 67.5452 36.75C67.8252 37.2633 67.9652 37.8467 67.9652 38.5V38.808H62.6032C62.6405 39.2747 62.7665 39.6947 62.9812 40.068C63.2052 40.432 63.4945 40.7213 63.8492 40.936C64.2132 41.1413 64.6099 41.244 65.0392 41.244C65.3939 41.244 65.7345 41.1833 66.0612 41.062C66.3972 40.9313 66.6819 40.7587 66.9152 40.544L67.5592 41.23C67.1672 41.538 66.7612 41.7667 66.3412 41.916C65.9212 42.0653 65.4732 42.14 64.9972 42.14ZM62.6312 38.08H66.9572C66.9105 37.6693 66.7845 37.3053 66.5792 36.988C66.3832 36.6613 66.1312 36.4047 65.8232 36.218C65.5245 36.0313 65.1885 35.938 64.8152 35.938C64.4419 35.938 64.1012 36.0313 63.7932 36.218C63.4852 36.3953 63.2285 36.6473 63.0232 36.974C62.8272 37.2913 62.6965 37.66 62.6312 38.08ZM74.1957 42L72.3197 35.168H73.3137L74.7417 40.628L76.3797 35.168H77.2897L78.9277 40.628L80.3417 35.168H81.3077L79.4457 42H78.4517L76.8277 36.484L75.2037 42H74.1957ZM82.7531 42V31.892L83.7751 31.682V36.274C84.0365 35.8633 84.3491 35.56 84.7131 35.364C85.0771 35.1587 85.4878 35.056 85.9451 35.056C86.4398 35.056 86.8691 35.1633 87.2331 35.378C87.6065 35.5833 87.8958 35.8773 88.1011 36.26C88.3158 36.6333 88.4231 37.072 88.4231 37.576V42H87.4011V37.87C87.4011 37.2633 87.2331 36.7873 86.8971 36.442C86.5705 36.0873 86.1271 35.91 85.5671 35.91C85.1938 35.91 84.8531 35.9987 84.5451 36.176C84.2371 36.3533 83.9805 36.6147 83.7751 36.96V42H82.7531ZM93.5577 42.14C92.9231 42.14 92.3491 41.986 91.8357 41.678C91.3224 41.3607 90.9164 40.936 90.6177 40.404C90.3191 39.8627 90.1697 39.256 90.1697 38.584C90.1697 37.912 90.3097 37.31 90.5897 36.778C90.8791 36.246 91.2664 35.826 91.7517 35.518C92.2371 35.21 92.7784 35.056 93.3757 35.056C93.9824 35.056 94.5191 35.21 94.9857 35.518C95.4617 35.8167 95.8351 36.2273 96.1057 36.75C96.3857 37.2633 96.5257 37.8467 96.5257 38.5V38.808H91.1637C91.2011 39.2747 91.3271 39.6947 91.5417 40.068C91.7657 40.432 92.0551 40.7213 92.4097 40.936C92.7737 41.1413 93.1704 41.244 93.5997 41.244C93.9544 41.244 94.2951 41.1833 94.6217 41.062C94.9577 40.9313 95.2424 40.7587 95.4757 40.544L96.1197 41.23C95.7277 41.538 95.3217 41.7667 94.9017 41.916C94.4817 42.0653 94.0337 42.14 93.5577 42.14ZM91.1917 38.08H95.5177C95.4711 37.6693 95.3451 37.3053 95.1397 36.988C94.9437 36.6613 94.6917 36.4047 94.3837 36.218C94.0851 36.0313 93.7491 35.938 93.3757 35.938C93.0024 35.938 92.6617 36.0313 92.3537 36.218C92.0457 36.3953 91.7891 36.6473 91.5837 36.974C91.3877 37.2913 91.2571 37.66 91.1917 38.08ZM98.2707 42V35.168H99.2927V36.274C99.554 35.8633 99.8667 35.56 100.231 35.364C100.595 35.1587 101.005 35.056 101.463 35.056C101.957 35.056 102.387 35.1633 102.751 35.378C103.124 35.5833 103.413 35.8773 103.619 36.26C103.833 36.6333 103.941 37.072 103.941 37.576V42H102.919V37.87C102.919 37.2633 102.751 36.7873 102.415 36.442C102.088 36.0873 101.645 35.91 101.085 35.91C100.711 35.91 100.371 35.9987 100.063 36.176C99.7547 36.3533 99.498 36.6147 99.2927 36.96V42H98.2707ZM112.329 42.112C111.694 42.112 111.12 41.958 110.607 41.65C110.103 41.3327 109.702 40.908 109.403 40.376C109.104 39.8347 108.955 39.2373 108.955 38.584C108.955 37.9213 109.104 37.324 109.403 36.792C109.702 36.26 110.103 35.84 110.607 35.532C111.12 35.2147 111.694 35.056 112.329 35.056C112.833 35.056 113.314 35.1493 113.771 35.336C114.228 35.5227 114.625 35.784 114.961 36.12L114.303 36.834C114.06 36.5633 113.766 36.3533 113.421 36.204C113.076 36.0547 112.726 35.98 112.371 35.98C111.923 35.98 111.517 36.0967 111.153 36.33C110.798 36.5633 110.514 36.876 110.299 37.268C110.084 37.66 109.977 38.0987 109.977 38.584C109.977 39.0693 110.084 39.508 110.299 39.9C110.514 40.292 110.798 40.6047 111.153 40.838C111.517 41.0713 111.923 41.188 112.371 41.188C112.726 41.188 113.076 41.1133 113.421 40.964C113.766 40.8053 114.06 40.5953 114.303 40.334L114.961 41.048C114.625 41.384 114.228 41.6453 113.771 41.832C113.314 42.0187 112.833 42.112 112.329 42.112ZM116.386 42V31.892L117.408 31.682V42H116.386ZM122.527 42.112C121.892 42.112 121.323 41.958 120.819 41.65C120.315 41.342 119.918 40.922 119.629 40.39C119.34 39.858 119.195 39.256 119.195 38.584C119.195 37.912 119.34 37.31 119.629 36.778C119.918 36.246 120.315 35.826 120.819 35.518C121.323 35.21 121.892 35.056 122.527 35.056C123.152 35.056 123.712 35.21 124.207 35.518C124.711 35.826 125.108 36.246 125.397 36.778C125.686 37.31 125.831 37.912 125.831 38.584C125.831 39.256 125.686 39.858 125.397 40.39C125.108 40.922 124.711 41.342 124.207 41.65C123.712 41.958 123.152 42.112 122.527 42.112ZM122.513 41.216C122.961 41.216 123.358 41.104 123.703 40.88C124.048 40.6467 124.319 40.3293 124.515 39.928C124.72 39.5267 124.823 39.0787 124.823 38.584C124.823 38.08 124.72 37.632 124.515 37.24C124.319 36.8387 124.048 36.526 123.703 36.302C123.358 36.0687 122.961 35.952 122.513 35.952C122.065 35.952 121.668 36.0687 121.323 36.302C120.978 36.526 120.702 36.8387 120.497 37.24C120.301 37.632 120.203 38.08 120.203 38.584C120.203 39.0787 120.301 39.5267 120.497 39.928C120.702 40.3293 120.978 40.6467 121.323 40.88C121.668 41.104 122.065 41.216 122.513 41.216ZM129.738 42.14C129.178 42.14 128.66 42.056 128.184 41.888C127.708 41.7107 127.302 41.4587 126.966 41.132L127.512 40.46C127.923 40.7587 128.301 40.978 128.646 41.118C128.992 41.2487 129.346 41.314 129.71 41.314C130.205 41.314 130.616 41.1973 130.942 40.964C131.269 40.7307 131.432 40.432 131.432 40.068C131.432 39.788 131.334 39.5687 131.138 39.41C130.952 39.2513 130.639 39.13 130.2 39.046L129.08 38.85C128.418 38.7287 127.928 38.5233 127.61 38.234C127.302 37.9447 127.148 37.5527 127.148 37.058C127.148 36.666 127.251 36.3207 127.456 36.022C127.671 35.7233 127.965 35.49 128.338 35.322C128.712 35.1447 129.136 35.056 129.612 35.056C130.079 35.056 130.522 35.126 130.942 35.266C131.362 35.3967 131.787 35.6113 132.216 35.91L131.712 36.624C131.358 36.372 131.003 36.19 130.648 36.078C130.294 35.9567 129.934 35.896 129.57 35.896C129.122 35.896 128.763 35.994 128.492 36.19C128.222 36.386 128.086 36.652 128.086 36.988C128.086 37.268 128.17 37.4827 128.338 37.632C128.516 37.7813 128.824 37.8933 129.262 37.968L130.41 38.178C131.101 38.2993 131.605 38.5093 131.922 38.808C132.24 39.1067 132.398 39.508 132.398 40.012C132.398 40.4133 132.282 40.7773 132.048 41.104C131.815 41.4213 131.498 41.6733 131.096 41.86C130.695 42.0467 130.242 42.14 129.738 42.14ZM137.103 42.14C136.468 42.14 135.894 41.986 135.381 41.678C134.867 41.3607 134.461 40.936 134.163 40.404C133.864 39.8627 133.715 39.256 133.715 38.584C133.715 37.912 133.855 37.31 134.135 36.778C134.424 36.246 134.811 35.826 135.297 35.518C135.782 35.21 136.323 35.056 136.921 35.056C137.527 35.056 138.064 35.21 138.531 35.518C139.007 35.8167 139.38 36.2273 139.651 36.75C139.931 37.2633 140.071 37.8467 140.071 38.5V38.808H134.709C134.746 39.2747 134.872 39.6947 135.087 40.068C135.311 40.432 135.6 40.7213 135.955 40.936C136.319 41.1413 136.715 41.244 137.145 41.244C137.499 41.244 137.84 41.1833 138.167 41.062C138.503 40.9313 138.787 40.7587 139.021 40.544L139.665 41.23C139.273 41.538 138.867 41.7667 138.447 41.916C138.027 42.0653 137.579 42.14 137.103 42.14ZM134.737 38.08H139.063C139.016 37.6693 138.89 37.3053 138.685 36.988C138.489 36.6613 138.237 36.4047 137.929 36.218C137.63 36.0313 137.294 35.938 136.921 35.938C136.547 35.938 136.207 36.0313 135.899 36.218C135.591 36.3953 135.334 36.6473 135.129 36.974C134.933 37.2913 134.802 37.66 134.737 38.08ZM144.658 42.098C144.07 42.098 143.538 41.944 143.062 41.636C142.586 41.3187 142.208 40.8987 141.928 40.376C141.648 39.844 141.508 39.2513 141.508 38.598C141.508 37.9353 141.648 37.3427 141.928 36.82C142.217 36.288 142.604 35.868 143.09 35.56C143.575 35.2427 144.116 35.084 144.714 35.084C145.134 35.084 145.526 35.168 145.89 35.336C146.254 35.4947 146.571 35.728 146.842 36.036V31.892L147.864 31.682V42H146.842V41.09C146.58 41.4167 146.263 41.6687 145.89 41.846C145.516 42.014 145.106 42.098 144.658 42.098ZM144.91 41.202C145.311 41.202 145.68 41.1227 146.016 40.964C146.352 40.8053 146.627 40.5813 146.842 40.292V36.904C146.618 36.6147 146.333 36.3907 145.988 36.232C145.652 36.064 145.292 35.98 144.91 35.98C144.452 35.98 144.042 36.092 143.678 36.316C143.323 36.54 143.038 36.848 142.824 37.24C142.618 37.632 142.516 38.08 142.516 38.584C142.516 39.0787 142.618 39.5267 142.824 39.928C143.038 40.32 143.323 40.6327 143.678 40.866C144.042 41.09 144.452 41.202 144.91 41.202Z" fill="#4D4D4D"/>
<path d="M341.816 42V33.152H338.428V32.2H346.282V33.152H342.894V42H341.816ZM349.356 42.112C348.722 42.112 348.152 41.958 347.648 41.65C347.144 41.342 346.748 40.922 346.458 40.39C346.169 39.858 346.024 39.256 346.024 38.584C346.024 37.912 346.169 37.31 346.458 36.778C346.748 36.246 347.144 35.826 347.648 35.518C348.152 35.21 348.722 35.056 349.356 35.056C349.982 35.056 350.542 35.21 351.036 35.518C351.54 35.826 351.937 36.246 352.226 36.778C352.516 37.31 352.66 37.912 352.66 38.584C352.66 39.256 352.516 39.858 352.226 40.39C351.937 40.922 351.54 41.342 351.036 41.65C350.542 41.958 349.982 42.112 349.356 42.112ZM349.342 41.216C349.79 41.216 350.187 41.104 350.532 40.88C350.878 40.6467 351.148 40.3293 351.344 39.928C351.55 39.5267 351.652 39.0787 351.652 38.584C351.652 38.08 351.55 37.632 351.344 37.24C351.148 36.8387 350.878 36.526 350.532 36.302C350.187 36.0687 349.79 35.952 349.342 35.952C348.894 35.952 348.498 36.0687 348.152 36.302C347.807 36.526 347.532 36.8387 347.326 37.24C347.13 37.632 347.032 38.08 347.032 38.584C347.032 39.0787 347.13 39.5267 347.326 39.928C347.532 40.3293 347.807 40.6467 348.152 40.88C348.498 41.104 348.894 41.216 349.342 41.216ZM357.617 45.066C357.16 45.066 356.698 45.0007 356.231 44.87C355.774 44.7487 355.349 44.576 354.957 44.352L355.391 43.568C355.811 43.7827 356.194 43.9413 356.539 44.044C356.885 44.1467 357.23 44.198 357.575 44.198C358.201 44.198 358.672 44.0487 358.989 43.75C359.316 43.4513 359.479 43.0173 359.479 42.448V41.076C359.218 41.4027 358.901 41.6547 358.527 41.832C358.154 42 357.743 42.084 357.295 42.084C356.707 42.084 356.175 41.93 355.699 41.622C355.223 41.3047 354.845 40.8847 354.565 40.362C354.285 39.83 354.145 39.2373 354.145 38.584C354.145 37.9307 354.285 37.3427 354.565 36.82C354.855 36.288 355.242 35.868 355.727 35.56C356.213 35.2427 356.754 35.084 357.351 35.084C357.781 35.084 358.177 35.168 358.541 35.336C358.905 35.4947 359.223 35.7327 359.493 36.05V35.168H360.501V42.434C360.501 43.2833 360.254 43.932 359.759 44.38C359.265 44.8373 358.551 45.066 357.617 45.066ZM357.547 41.202C357.949 41.202 358.317 41.1227 358.653 40.964C358.989 40.796 359.265 40.5673 359.479 40.278V36.904C359.255 36.6147 358.971 36.3907 358.625 36.232C358.289 36.064 357.93 35.98 357.547 35.98C357.09 35.98 356.679 36.092 356.315 36.316C355.961 36.54 355.676 36.848 355.461 37.24C355.256 37.632 355.153 38.08 355.153 38.584C355.153 39.0787 355.256 39.5267 355.461 39.928C355.676 40.32 355.961 40.6327 356.315 40.866C356.679 41.09 357.09 41.202 357.547 41.202ZM365.766 45.066C365.308 45.066 364.846 45.0007 364.38 44.87C363.922 44.7487 363.498 44.576 363.106 44.352L363.54 43.568C363.96 43.7827 364.342 43.9413 364.688 44.044C365.033 44.1467 365.378 44.198 365.724 44.198C366.349 44.198 366.82 44.0487 367.138 43.75C367.464 43.4513 367.628 43.0173 367.628 42.448V41.076C367.366 41.4027 367.049 41.6547 366.676 41.832C366.302 42 365.892 42.084 365.444 42.084C364.856 42.084 364.324 41.93 363.848 41.622C363.372 41.3047 362.994 40.8847 362.714 40.362C362.434 39.83 362.294 39.2373 362.294 38.584C362.294 37.9307 362.434 37.3427 362.714 36.82C363.003 36.288 363.39 35.868 363.876 35.56C364.361 35.2427 364.902 35.084 365.5 35.084C365.929 35.084 366.326 35.168 366.69 35.336C367.054 35.4947 367.371 35.7327 367.642 36.05V35.168H368.65V42.434C368.65 43.2833 368.402 43.932 367.908 44.38C367.413 44.8373 366.699 45.066 365.766 45.066ZM365.696 41.202C366.097 41.202 366.466 41.1227 366.802 40.964C367.138 40.796 367.413 40.5673 367.628 40.278V36.904C367.404 36.6147 367.119 36.3907 366.774 36.232C366.438 36.064 366.078 35.98 365.696 35.98C365.238 35.98 364.828 36.092 364.464 36.316C364.109 36.54 363.824 36.848 363.61 37.24C363.404 37.632 363.302 38.08 363.302 38.584C363.302 39.0787 363.404 39.5267 363.61 39.928C363.824 40.32 364.109 40.6327 364.464 40.866C364.828 41.09 365.238 41.202 365.696 41.202ZM370.75 42V31.892L371.772 31.682V42H370.75ZM376.947 42.14C376.313 42.14 375.739 41.986 375.225 41.678C374.712 41.3607 374.306 40.936 374.007 40.404C373.709 39.8627 373.559 39.256 373.559 38.584C373.559 37.912 373.699 37.31 373.979 36.778C374.269 36.246 374.656 35.826 375.141 35.518C375.627 35.21 376.168 35.056 376.765 35.056C377.372 35.056 377.909 35.21 378.375 35.518C378.851 35.8167 379.225 36.2273 379.495 36.75C379.775 37.2633 379.915 37.8467 379.915 38.5V38.808H374.553C374.591 39.2747 374.717 39.6947 374.931 40.068C375.155 40.432 375.445 40.7213 375.799 40.936C376.163 41.1413 376.56 41.244 376.989 41.244C377.344 41.244 377.685 41.1833 378.011 41.062C378.347 40.9313 378.632 40.7587 378.865 40.544L379.509 41.23C379.117 41.538 378.711 41.7667 378.291 41.916C377.871 42.0653 377.423 42.14 376.947 42.14ZM374.581 38.08H378.907C378.861 37.6693 378.735 37.3053 378.529 36.988C378.333 36.6613 378.081 36.4047 377.773 36.218C377.475 36.0313 377.139 35.938 376.765 35.938C376.392 35.938 376.051 36.0313 375.743 36.218C375.435 36.3953 375.179 36.6473 374.973 36.974C374.777 37.2913 374.647 37.66 374.581 38.08ZM386.146 42L384.27 35.168H385.264L386.692 40.628L388.33 35.168H389.24L390.878 40.628L392.292 35.168H393.258L391.396 42H390.402L388.778 36.484L387.154 42H386.146ZM394.703 42V31.892L395.725 31.682V36.274C395.987 35.8633 396.299 35.56 396.663 35.364C397.027 35.1587 397.438 35.056 397.895 35.056C398.39 35.056 398.819 35.1633 399.183 35.378C399.557 35.5833 399.846 35.8773 400.051 36.26C400.266 36.6333 400.373 37.072 400.373 37.576V42H399.351V37.87C399.351 37.2633 399.183 36.7873 398.847 36.442C398.521 36.0873 398.077 35.91 397.517 35.91C397.144 35.91 396.803 35.9987 396.495 36.176C396.187 36.3533 395.931 36.6147 395.725 36.96V42H394.703ZM405.508 42.14C404.873 42.14 404.299 41.986 403.786 41.678C403.273 41.3607 402.867 40.936 402.568 40.404C402.269 39.8627 402.12 39.256 402.12 38.584C402.12 37.912 402.26 37.31 402.54 36.778C402.829 36.246 403.217 35.826 403.702 35.518C404.187 35.21 404.729 35.056 405.326 35.056C405.933 35.056 406.469 35.21 406.936 35.518C407.412 35.8167 407.785 36.2273 408.056 36.75C408.336 37.2633 408.476 37.8467 408.476 38.5V38.808H403.114C403.151 39.2747 403.277 39.6947 403.492 40.068C403.716 40.432 404.005 40.7213 404.36 40.936C404.724 41.1413 405.121 41.244 405.55 41.244C405.905 41.244 406.245 41.1833 406.572 41.062C406.908 40.9313 407.193 40.7587 407.426 40.544L408.07 41.23C407.678 41.538 407.272 41.7667 406.852 41.916C406.432 42.0653 405.984 42.14 405.508 42.14ZM403.142 38.08H407.468C407.421 37.6693 407.295 37.3053 407.09 36.988C406.894 36.6613 406.642 36.4047 406.334 36.218C406.035 36.0313 405.699 35.938 405.326 35.938C404.953 35.938 404.612 36.0313 404.304 36.218C403.996 36.3953 403.739 36.6473 403.534 36.974C403.338 37.2913 403.207 37.66 403.142 38.08ZM410.221 42V35.168H411.243V36.274C411.504 35.8633 411.817 35.56 412.181 35.364C412.545 35.1587 412.956 35.056 413.413 35.056C413.908 35.056 414.337 35.1633 414.701 35.378C415.074 35.5833 415.364 35.8773 415.569 36.26C415.784 36.6333 415.891 37.072 415.891 37.576V42H414.869V37.87C414.869 37.2633 414.701 36.7873 414.365 36.442C414.038 36.0873 413.595 35.91 413.035 35.91C412.662 35.91 412.321 35.9987 412.013 36.176C411.705 36.3533 411.448 36.6147 411.243 36.96V42H410.221ZM424.237 42.112C423.602 42.112 423.033 41.958 422.529 41.65C422.025 41.342 421.628 40.922 421.339 40.39C421.05 39.858 420.905 39.256 420.905 38.584C420.905 37.912 421.05 37.31 421.339 36.778C421.628 36.246 422.025 35.826 422.529 35.518C423.033 35.21 423.602 35.056 424.237 35.056C424.862 35.056 425.422 35.21 425.917 35.518C426.421 35.826 426.818 36.246 427.107 36.778C427.396 37.31 427.541 37.912 427.541 38.584C427.541 39.256 427.396 39.858 427.107 40.39C426.818 40.922 426.421 41.342 425.917 41.65C425.422 41.958 424.862 42.112 424.237 42.112ZM424.223 41.216C424.671 41.216 425.068 41.104 425.413 40.88C425.758 40.6467 426.029 40.3293 426.225 39.928C426.43 39.5267 426.533 39.0787 426.533 38.584C426.533 38.08 426.43 37.632 426.225 37.24C426.029 36.8387 425.758 36.526 425.413 36.302C425.068 36.0687 424.671 35.952 424.223 35.952C423.775 35.952 423.378 36.0687 423.033 36.302C422.688 36.526 422.412 36.8387 422.207 37.24C422.011 37.632 421.913 38.08 421.913 38.584C421.913 39.0787 422.011 39.5267 422.207 39.928C422.412 40.3293 422.688 40.6467 423.033 40.88C423.378 41.104 423.775 41.216 424.223 41.216ZM429.334 44.926V35.168H430.342V36.148C430.604 35.8027 430.921 35.5413 431.294 35.364C431.677 35.1773 432.097 35.084 432.554 35.084C433.152 35.084 433.684 35.2427 434.15 35.56C434.626 35.868 435.004 36.288 435.284 36.82C435.564 37.3427 435.704 37.9307 435.704 38.584C435.704 39.2373 435.56 39.83 435.27 40.362C434.99 40.894 434.608 41.3187 434.122 41.636C433.646 41.944 433.105 42.098 432.498 42.098C432.069 42.098 431.672 42.0187 431.308 41.86C430.944 41.692 430.627 41.454 430.356 41.146V44.926H429.334ZM432.302 41.216C432.76 41.216 433.166 41.104 433.52 40.88C433.884 40.6467 434.169 40.334 434.374 39.942C434.589 39.5407 434.696 39.0927 434.696 38.598C434.696 38.094 434.589 37.646 434.374 37.254C434.169 36.862 433.884 36.554 433.52 36.33C433.166 36.0967 432.76 35.98 432.302 35.98C431.901 35.98 431.528 36.064 431.182 36.232C430.846 36.3907 430.571 36.6193 430.356 36.918V40.264C430.58 40.5627 430.86 40.796 431.196 40.964C431.542 41.132 431.91 41.216 432.302 41.216ZM440.576 42.14C439.942 42.14 439.368 41.986 438.854 41.678C438.341 41.3607 437.935 40.936 437.636 40.404C437.338 39.8627 437.188 39.256 437.188 38.584C437.188 37.912 437.328 37.31 437.608 36.778C437.898 36.246 438.285 35.826 438.77 35.518C439.256 35.21 439.797 35.056 440.394 35.056C441.001 35.056 441.538 35.21 442.004 35.518C442.48 35.8167 442.854 36.2273 443.124 36.75C443.404 37.2633 443.544 37.8467 443.544 38.5V38.808H438.182C438.22 39.2747 438.346 39.6947 438.56 40.068C438.784 40.432 439.074 40.7213 439.428 40.936C439.792 41.1413 440.189 41.244 440.618 41.244C440.973 41.244 441.314 41.1833 441.64 41.062C441.976 40.9313 442.261 40.7587 442.494 40.544L443.138 41.23C442.746 41.538 442.34 41.7667 441.92 41.916C441.5 42.0653 441.052 42.14 440.576 42.14ZM438.21 38.08H442.536C442.49 37.6693 442.364 37.3053 442.158 36.988C441.962 36.6613 441.71 36.4047 441.402 36.218C441.104 36.0313 440.768 35.938 440.394 35.938C440.021 35.938 439.68 36.0313 439.372 36.218C439.064 36.3953 438.808 36.6473 438.602 36.974C438.406 37.2913 438.276 37.66 438.21 38.08ZM445.289 42V35.168H446.311V36.274C446.573 35.8633 446.885 35.56 447.249 35.364C447.613 35.1587 448.024 35.056 448.481 35.056C448.976 35.056 449.405 35.1633 449.769 35.378C450.143 35.5833 450.432 35.8773 450.637 36.26C450.852 36.6333 450.959 37.072 450.959 37.576V42H449.937V37.87C449.937 37.2633 449.769 36.7873 449.433 36.442C449.107 36.0873 448.663 35.91 448.103 35.91C447.73 35.91 447.389 35.9987 447.081 36.176C446.773 36.3533 446.517 36.6147 446.311 36.96V42H445.289Z" fill="#4D4D4D"/>
</svg>
