<svg width="1078" height="501" viewBox="0 0 1078 501" fill="none" xmlns="http://www.w3.org/2000/svg">
<g clip-path="url(#clip0_329_51763)">
<g clip-path="url(#clip1_329_51763)">
<rect width="1078" height="501" fill="#F2F2F2"/>
<rect width="1500" height="69" fill="#F2F2F2"/>
<path fill-rule="evenodd" clip-rule="evenodd" d="M54.6429 29.3571C55.1163 29.3571 55.5 28.9734 55.5 28.5V26.3571C55.5 25.8837 55.1163 25.5 54.6429 25.5H32.3571C31.8837 25.5 31.5 25.8837 31.5 26.3571V28.5C31.5 28.9734 31.8837 29.3571 32.3571 29.3571H54.6429ZM54.6429 37.9286C55.1163 37.9286 55.5 37.5448 55.5 37.0714V34.9286C55.5 34.4552 55.1163 34.0714 54.6429 34.0714H32.3571C31.8837 34.0714 31.5 34.4552 31.5 34.9286V37.0714C31.5 37.5448 31.8837 37.9286 32.3571 37.9286H54.6429ZM54.6429 46.5C55.1163 46.5 55.5 46.1163 55.5 45.6429V43.5C55.5 43.0266 55.1163 42.6429 54.6429 42.6429H32.3571C31.8837 42.6429 31.5 43.0266 31.5 43.5V45.6429C31.5 46.1163 31.8837 46.5 32.3571 46.5H54.6429Z" fill="#1F1F1F"/>
<path fill-rule="evenodd" clip-rule="evenodd" d="M91.4783 16H114V38.5217H111.587C100.481 38.5217 91.4783 29.5188 91.4783 18.413V16Z" fill="#0066CC"/>
<path fill-rule="evenodd" clip-rule="evenodd" d="M114 16.8044L92.2827 53.0001H109.317C111.903 53.0001 114 50.9032 114 48.3166V16.8044Z" fill="url(#paint0_linear_329_51763)"/>
<path fill-rule="evenodd" clip-rule="evenodd" d="M113.196 15.9999L76.9999 37.7173V20.6834C76.9999 18.0968 79.0968 15.9999 81.6834 15.9999L113.196 15.9999Z" fill="url(#paint1_linear_329_51763)"/>
<g clip-path="url(#clip2_329_51763)">
<path d="M24 85C24 76.1634 31.1634 69 40 69H1045C1053.84 69 1061 76.1634 1061 85V475C1061 483.837 1053.84 491 1045 491H40C31.1635 491 24 483.837 24 475V85Z" fill="white"/>
<path d="M32 155C32 146.163 39.1634 139 48 139H1038C1046.84 139 1054 146.163 1054 155V469C1054 477.837 1046.84 485 1038 485H48C39.1634 485 32 477.837 32 469V155Z" fill="#F2F2F2"/>
<path d="M67 406C67 388.327 81.3269 374 99 374H995C1012.67 374 1027 388.327 1027 406V406C1027 423.673 1012.67 438 995 438H99C81.3269 438 67 423.673 67 406V406Z" fill="white"/>
<path d="M96.04 412.176C95.1653 412.176 94.3547 412.021 93.608 411.712C92.8613 411.392 92.1413 410.912 91.448 410.272L92.2 409.376C92.872 410.005 93.5013 410.453 94.088 410.72C94.6853 410.987 95.3467 411.12 96.072 411.12C96.648 411.12 97.16 411.024 97.608 410.832C98.0667 410.629 98.424 410.357 98.68 410.016C98.936 409.675 99.064 409.285 99.064 408.848C99.064 408.283 98.8773 407.856 98.504 407.568C98.1307 407.269 97.4853 407.04 96.568 406.88L94.76 406.576C93.736 406.395 92.984 406.085 92.504 405.648C92.0347 405.2 91.8 404.603 91.8 403.856C91.8 403.227 91.96 402.672 92.28 402.192C92.6107 401.701 93.064 401.317 93.64 401.04C94.216 400.763 94.8827 400.624 95.64 400.624C96.472 400.624 97.2453 400.741 97.96 400.976C98.6747 401.2 99.3787 401.557 100.072 402.048L99.432 403.008C98.856 402.571 98.248 402.24 97.608 402.016C96.968 401.781 96.3173 401.664 95.656 401.664C95.1333 401.664 94.6693 401.755 94.264 401.936C93.8693 402.117 93.5547 402.363 93.32 402.672C93.096 402.981 92.984 403.333 92.984 403.728C92.984 404.219 93.1493 404.603 93.48 404.88C93.8107 405.157 94.3493 405.355 95.096 405.472L96.888 405.776C98.0827 405.989 98.9467 406.336 99.48 406.816C100.024 407.285 100.296 407.941 100.296 408.784C100.296 409.435 100.109 410.016 99.736 410.528C99.3733 411.04 98.872 411.445 98.232 411.744C97.592 412.032 96.8613 412.176 96.04 412.176ZM105.845 412.16C105.12 412.16 104.464 411.984 103.877 411.632C103.29 411.269 102.826 410.784 102.485 410.176C102.144 409.557 101.973 408.864 101.973 408.096C101.973 407.328 102.133 406.64 102.453 406.032C102.784 405.424 103.226 404.944 103.781 404.592C104.336 404.24 104.954 404.064 105.637 404.064C106.33 404.064 106.944 404.24 107.477 404.592C108.021 404.933 108.448 405.403 108.757 406C109.077 406.587 109.237 407.253 109.237 408V408.352H103.109C103.152 408.885 103.296 409.365 103.541 409.792C103.797 410.208 104.128 410.539 104.533 410.784C104.949 411.019 105.402 411.136 105.893 411.136C106.298 411.136 106.688 411.067 107.061 410.928C107.445 410.779 107.77 410.581 108.037 410.336L108.773 411.12C108.325 411.472 107.861 411.733 107.381 411.904C106.901 412.075 106.389 412.16 105.845 412.16ZM103.141 407.52H108.085C108.032 407.051 107.888 406.635 107.653 406.272C107.429 405.899 107.141 405.605 106.789 405.392C106.448 405.179 106.064 405.072 105.637 405.072C105.21 405.072 104.821 405.179 104.469 405.392C104.117 405.595 103.824 405.883 103.589 406.256C103.365 406.619 103.216 407.04 103.141 407.52ZM111.231 412V404.192H112.399V405.456C112.698 404.987 113.055 404.64 113.471 404.416C113.887 404.181 114.357 404.064 114.879 404.064C115.445 404.064 115.935 404.187 116.351 404.432C116.778 404.667 117.109 405.003 117.343 405.44C117.589 405.867 117.711 406.368 117.711 406.944V412H116.543V407.28C116.543 406.587 116.351 406.043 115.967 405.648C115.594 405.243 115.087 405.04 114.447 405.04C114.021 405.04 113.631 405.141 113.279 405.344C112.927 405.547 112.634 405.845 112.399 406.24V412H111.231ZM123.307 412.112C122.635 412.112 122.027 411.936 121.483 411.584C120.939 411.221 120.507 410.741 120.187 410.144C119.867 409.536 119.707 408.859 119.707 408.112C119.707 407.355 119.867 406.677 120.187 406.08C120.518 405.472 120.961 404.992 121.515 404.64C122.07 404.277 122.689 404.096 123.371 404.096C123.851 404.096 124.299 404.192 124.715 404.384C125.131 404.565 125.494 404.832 125.803 405.184V400.448L126.971 400.208V412H125.803V410.96C125.505 411.333 125.142 411.621 124.715 411.824C124.289 412.016 123.819 412.112 123.307 412.112ZM123.595 411.088C124.054 411.088 124.475 410.997 124.859 410.816C125.243 410.635 125.558 410.379 125.803 410.048V406.176C125.547 405.845 125.222 405.589 124.827 405.408C124.443 405.216 124.033 405.12 123.595 405.12C123.073 405.12 122.603 405.248 122.187 405.504C121.782 405.76 121.457 406.112 121.211 406.56C120.977 407.008 120.859 407.52 120.859 408.096C120.859 408.661 120.977 409.173 121.211 409.632C121.457 410.08 121.782 410.437 122.187 410.704C122.603 410.96 123.073 411.088 123.595 411.088ZM135.522 412.144C134.968 412.144 134.477 412.043 134.05 411.84C133.624 411.637 133.288 411.36 133.042 411.008C132.808 410.645 132.69 410.229 132.69 409.76C132.69 409.291 132.813 408.885 133.058 408.544C133.304 408.192 133.645 407.92 134.082 407.728C134.52 407.536 135.032 407.44 135.618 407.44C136.066 407.44 136.488 407.488 136.882 407.584C137.288 407.68 137.661 407.835 138.002 408.048V406.976C138.002 406.336 137.832 405.856 137.49 405.536C137.149 405.205 136.648 405.04 135.986 405.04C135.624 405.04 135.25 405.093 134.866 405.2C134.493 405.307 134.077 405.477 133.618 405.712L133.186 404.816C134.232 404.315 135.213 404.064 136.13 404.064C137.101 404.064 137.848 404.304 138.37 404.784C138.893 405.253 139.154 405.931 139.154 406.816V412H138.002V411.088C137.661 411.44 137.282 411.707 136.866 411.888C136.45 412.059 136.002 412.144 135.522 412.144ZM133.81 409.728C133.81 410.187 133.986 410.555 134.338 410.832C134.701 411.109 135.176 411.248 135.762 411.248C136.2 411.248 136.6 411.173 136.962 411.024C137.336 410.875 137.682 410.651 138.002 410.352V408.848C137.672 408.656 137.33 408.517 136.978 408.432C136.626 408.336 136.232 408.288 135.794 408.288C135.197 408.288 134.717 408.421 134.354 408.688C133.992 408.944 133.81 409.291 133.81 409.728ZM145.263 412V404.192H146.431V405.408C146.729 404.96 147.071 404.624 147.455 404.4C147.839 404.176 148.271 404.064 148.751 404.064C149.305 404.064 149.791 404.203 150.207 404.48C150.623 404.747 150.937 405.115 151.151 405.584C151.46 405.083 151.828 404.704 152.255 404.448C152.692 404.192 153.193 404.064 153.759 404.064C154.281 404.064 154.74 404.187 155.135 404.432C155.54 404.677 155.855 405.019 156.079 405.456C156.303 405.883 156.415 406.384 156.415 406.96V412H155.247V407.248C155.247 406.565 155.076 406.027 154.735 405.632C154.393 405.237 153.924 405.04 153.327 405.04C152.921 405.04 152.553 405.141 152.223 405.344C151.903 405.547 151.62 405.856 151.375 406.272C151.396 406.379 151.412 406.491 151.423 406.608C151.433 406.725 151.439 406.843 151.439 406.96V412H150.271V407.248C150.271 406.565 150.095 406.027 149.743 405.632C149.401 405.237 148.932 405.04 148.335 405.04C147.535 405.04 146.9 405.424 146.431 406.192V412H145.263ZM162.298 412.16C161.573 412.16 160.917 411.984 160.33 411.632C159.743 411.269 159.279 410.784 158.938 410.176C158.597 409.557 158.426 408.864 158.426 408.096C158.426 407.328 158.586 406.64 158.906 406.032C159.237 405.424 159.679 404.944 160.234 404.592C160.789 404.24 161.407 404.064 162.09 404.064C162.783 404.064 163.397 404.24 163.93 404.592C164.474 404.933 164.901 405.403 165.21 406C165.53 406.587 165.69 407.253 165.69 408V408.352H159.562C159.605 408.885 159.749 409.365 159.994 409.792C160.25 410.208 160.581 410.539 160.986 410.784C161.402 411.019 161.855 411.136 162.346 411.136C162.751 411.136 163.141 411.067 163.514 410.928C163.898 410.779 164.223 410.581 164.49 410.336L165.226 411.12C164.778 411.472 164.314 411.733 163.834 411.904C163.354 412.075 162.842 412.16 162.298 412.16ZM159.594 407.52H164.538C164.485 407.051 164.341 406.635 164.106 406.272C163.882 405.899 163.594 405.605 163.242 405.392C162.901 405.179 162.517 405.072 162.09 405.072C161.663 405.072 161.274 405.179 160.922 405.392C160.57 405.595 160.277 405.883 160.042 406.256C159.818 406.619 159.669 407.04 159.594 407.52ZM170.179 412.16C169.539 412.16 168.947 412.064 168.403 411.872C167.859 411.669 167.395 411.381 167.011 411.008L167.635 410.24C168.104 410.581 168.536 410.832 168.931 410.992C169.325 411.141 169.731 411.216 170.147 411.216C170.712 411.216 171.181 411.083 171.555 410.816C171.928 410.549 172.115 410.208 172.115 409.792C172.115 409.472 172.003 409.221 171.779 409.04C171.565 408.859 171.208 408.72 170.707 408.624L169.427 408.4C168.669 408.261 168.109 408.027 167.747 407.696C167.395 407.365 167.219 406.917 167.219 406.352C167.219 405.904 167.336 405.509 167.571 405.168C167.816 404.827 168.152 404.56 168.579 404.368C169.005 404.165 169.491 404.064 170.035 404.064C170.568 404.064 171.075 404.144 171.555 404.304C172.035 404.453 172.52 404.699 173.011 405.04L172.435 405.856C172.029 405.568 171.624 405.36 171.219 405.232C170.813 405.093 170.403 405.024 169.987 405.024C169.475 405.024 169.064 405.136 168.755 405.36C168.445 405.584 168.291 405.888 168.291 406.272C168.291 406.592 168.387 406.837 168.579 407.008C168.781 407.179 169.133 407.307 169.635 407.392L170.947 407.632C171.736 407.771 172.312 408.011 172.675 408.352C173.037 408.693 173.219 409.152 173.219 409.728C173.219 410.187 173.085 410.603 172.819 410.976C172.552 411.339 172.189 411.627 171.731 411.84C171.272 412.053 170.755 412.16 170.179 412.16ZM177.413 412.16C176.773 412.16 176.181 412.064 175.637 411.872C175.093 411.669 174.629 411.381 174.245 411.008L174.869 410.24C175.338 410.581 175.77 410.832 176.165 410.992C176.56 411.141 176.965 411.216 177.381 411.216C177.946 411.216 178.416 411.083 178.789 410.816C179.162 410.549 179.349 410.208 179.349 409.792C179.349 409.472 179.237 409.221 179.013 409.04C178.8 408.859 178.442 408.72 177.941 408.624L176.661 408.4C175.904 408.261 175.344 408.027 174.981 407.696C174.629 407.365 174.453 406.917 174.453 406.352C174.453 405.904 174.57 405.509 174.805 405.168C175.05 404.827 175.386 404.56 175.813 404.368C176.24 404.165 176.725 404.064 177.269 404.064C177.802 404.064 178.309 404.144 178.789 404.304C179.269 404.453 179.754 404.699 180.245 405.04L179.669 405.856C179.264 405.568 178.858 405.36 178.453 405.232C178.048 405.093 177.637 405.024 177.221 405.024C176.709 405.024 176.298 405.136 175.989 405.36C175.68 405.584 175.525 405.888 175.525 406.272C175.525 406.592 175.621 406.837 175.813 407.008C176.016 407.179 176.368 407.307 176.869 407.392L178.181 407.632C178.97 407.771 179.546 408.011 179.909 408.352C180.272 408.693 180.453 409.152 180.453 409.728C180.453 410.187 180.32 410.603 180.053 410.976C179.786 411.339 179.424 411.627 178.965 411.84C178.506 412.053 177.989 412.16 177.413 412.16ZM184.725 412.144C184.171 412.144 183.68 412.043 183.253 411.84C182.827 411.637 182.491 411.36 182.245 411.008C182.011 410.645 181.893 410.229 181.893 409.76C181.893 409.291 182.016 408.885 182.261 408.544C182.507 408.192 182.848 407.92 183.285 407.728C183.723 407.536 184.235 407.44 184.821 407.44C185.269 407.44 185.691 407.488 186.085 407.584C186.491 407.68 186.864 407.835 187.205 408.048V406.976C187.205 406.336 187.035 405.856 186.693 405.536C186.352 405.205 185.851 405.04 185.189 405.04C184.827 405.04 184.453 405.093 184.069 405.2C183.696 405.307 183.28 405.477 182.821 405.712L182.389 404.816C183.435 404.315 184.416 404.064 185.333 404.064C186.304 404.064 187.051 404.304 187.573 404.784C188.096 405.253 188.357 405.931 188.357 406.816V412H187.205V411.088C186.864 411.44 186.485 411.707 186.069 411.888C185.653 412.059 185.205 412.144 184.725 412.144ZM183.013 409.728C183.013 410.187 183.189 410.555 183.541 410.832C183.904 411.109 184.379 411.248 184.965 411.248C185.403 411.248 185.803 411.173 186.165 411.024C186.539 410.875 186.885 410.651 187.205 410.352V408.848C186.875 408.656 186.533 408.517 186.181 408.432C185.829 408.336 185.435 408.288 184.997 408.288C184.4 408.288 183.92 408.421 183.557 408.688C183.195 408.944 183.013 409.291 183.013 409.728ZM194.347 415.504C193.825 415.504 193.297 415.429 192.763 415.28C192.241 415.141 191.755 414.944 191.307 414.688L191.803 413.792C192.283 414.037 192.721 414.219 193.115 414.336C193.51 414.453 193.905 414.512 194.299 414.512C195.014 414.512 195.553 414.341 195.915 414C196.289 413.659 196.475 413.163 196.475 412.512V410.944C196.177 411.317 195.814 411.605 195.387 411.808C194.961 412 194.491 412.096 193.979 412.096C193.307 412.096 192.699 411.92 192.155 411.568C191.611 411.205 191.179 410.725 190.859 410.128C190.539 409.52 190.379 408.843 190.379 408.096C190.379 407.349 190.539 406.677 190.859 406.08C191.19 405.472 191.633 404.992 192.187 404.64C192.742 404.277 193.361 404.096 194.043 404.096C194.534 404.096 194.987 404.192 195.403 404.384C195.819 404.565 196.182 404.837 196.491 405.2V404.192H197.643V412.496C197.643 413.467 197.361 414.208 196.795 414.72C196.23 415.243 195.414 415.504 194.347 415.504ZM194.267 411.088C194.726 411.088 195.147 410.997 195.531 410.816C195.915 410.624 196.23 410.363 196.475 410.032V406.176C196.219 405.845 195.894 405.589 195.499 405.408C195.115 405.216 194.705 405.12 194.267 405.12C193.745 405.12 193.275 405.248 192.859 405.504C192.454 405.76 192.129 406.112 191.883 406.56C191.649 407.008 191.531 407.52 191.531 408.096C191.531 408.661 191.649 409.173 191.883 409.632C192.129 410.08 192.454 410.437 192.859 410.704C193.275 410.96 193.745 411.088 194.267 411.088ZM203.564 412.16C202.838 412.16 202.182 411.984 201.596 411.632C201.009 411.269 200.545 410.784 200.204 410.176C199.862 409.557 199.692 408.864 199.692 408.096C199.692 407.328 199.852 406.64 200.172 406.032C200.502 405.424 200.945 404.944 201.5 404.592C202.054 404.24 202.673 404.064 203.356 404.064C204.049 404.064 204.662 404.24 205.196 404.592C205.74 404.933 206.166 405.403 206.476 406C206.796 406.587 206.956 407.253 206.956 408V408.352H200.828C200.87 408.885 201.014 409.365 201.26 409.792C201.516 410.208 201.846 410.539 202.252 410.784C202.668 411.019 203.121 411.136 203.612 411.136C204.017 411.136 204.406 411.067 204.78 410.928C205.164 410.779 205.489 410.581 205.756 410.336L206.492 411.12C206.044 411.472 205.58 411.733 205.1 411.904C204.62 412.075 204.108 412.16 203.564 412.16ZM200.86 407.52H205.804C205.75 407.051 205.606 406.635 205.372 406.272C205.148 405.899 204.86 405.605 204.508 405.392C204.166 405.179 203.782 405.072 203.356 405.072C202.929 405.072 202.54 405.179 202.188 405.392C201.836 405.595 201.542 405.883 201.308 406.256C201.084 406.619 200.934 407.04 200.86 407.52ZM209.344 412.128C209.109 412.128 208.906 412.043 208.736 411.872C208.576 411.701 208.496 411.499 208.496 411.264C208.496 411.019 208.576 410.816 208.736 410.656C208.906 410.485 209.109 410.4 209.344 410.4C209.578 410.4 209.776 410.485 209.936 410.656C210.106 410.816 210.192 411.019 210.192 411.264C210.192 411.499 210.106 411.701 209.936 411.872C209.776 412.043 209.578 412.128 209.344 412.128ZM213.344 412.128C213.109 412.128 212.906 412.043 212.736 411.872C212.576 411.701 212.496 411.499 212.496 411.264C212.496 411.019 212.576 410.816 212.736 410.656C212.906 410.485 213.109 410.4 213.344 410.4C213.578 410.4 213.776 410.485 213.936 410.656C214.106 410.816 214.192 411.019 214.192 411.264C214.192 411.499 214.106 411.701 213.936 411.872C213.776 412.043 213.578 412.128 213.344 412.128ZM217.344 412.128C217.109 412.128 216.906 412.043 216.736 411.872C216.576 411.701 216.496 411.499 216.496 411.264C216.496 411.019 216.576 410.816 216.736 410.656C216.906 410.485 217.109 410.4 217.344 410.4C217.578 410.4 217.776 410.485 217.936 410.656C218.106 410.816 218.192 411.019 218.192 411.264C218.192 411.499 218.106 411.701 217.936 411.872C217.776 412.043 217.578 412.128 217.344 412.128Z" fill="#4D4D4D"/>
<path d="M936.063 398.903C935.109 397.95 933.563 397.95 932.609 398.903L925.422 406.091C923.777 407.735 923.777 410.399 925.422 412.044C927.066 413.688 929.73 413.688 931.375 412.044L937.313 406.106C937.738 405.681 938.434 405.681 938.859 406.106C939.285 406.532 939.285 407.228 938.859 407.653L932.922 413.591C930.422 416.091 926.375 416.091 923.875 413.591C921.375 411.091 921.375 407.044 923.875 404.544L931.063 397.356C932.871 395.548 935.801 395.548 937.609 397.356C939.418 399.165 939.418 402.095 937.609 403.903L930.734 410.778C929.617 411.896 927.805 411.896 926.688 410.778C925.57 409.661 925.57 407.849 926.688 406.731L932.313 401.106C932.738 400.681 933.434 400.681 933.859 401.106C934.285 401.532 934.285 402.228 933.859 402.653L928.234 408.278C927.973 408.54 927.973 408.97 928.234 409.231C928.496 409.493 928.926 409.493 929.188 409.231L936.063 402.356C937.016 401.403 937.016 399.856 936.063 398.903Z" fill="#707070"/>
<path d="M1004.46 396.217C1004.85 396.49 1005.06 396.963 1004.99 397.436L1002.49 413.686C1002.43 414.065 1002.2 414.397 1001.86 414.584C1001.52 414.772 1001.12 414.795 1000.77 414.647L996.094 412.705L993.419 415.6C993.071 415.979 992.524 416.104 992.044 415.916C991.563 415.729 991.251 415.264 991.251 414.748V411.483C991.251 411.326 991.309 411.178 991.415 411.065L997.962 403.92C998.188 403.674 998.18 403.295 997.946 403.061C997.712 402.826 997.333 402.811 997.087 403.033L989.141 410.092L985.692 408.365C985.278 408.158 985.012 407.744 985.001 407.283C984.989 406.822 985.231 406.393 985.63 406.162L1003.13 396.162C1003.55 395.924 1004.06 395.947 1004.46 396.217Z" fill="#0066CC"/>
<path d="M448.199 473.5V465.1H451.595C452.107 465.1 452.551 465.188 452.927 465.364C453.311 465.54 453.607 465.788 453.815 466.108C454.023 466.428 454.127 466.804 454.127 467.236C454.127 467.7 453.991 468.1 453.719 468.436C453.455 468.764 453.095 468.996 452.639 469.132C453.199 469.26 453.639 469.504 453.959 469.864C454.287 470.216 454.451 470.652 454.451 471.172C454.451 471.636 454.339 472.044 454.115 472.396C453.891 472.748 453.575 473.02 453.167 473.212C452.759 473.404 452.279 473.5 451.727 473.5H448.199ZM449.123 468.772H451.523C452.035 468.772 452.443 468.644 452.747 468.388C453.051 468.124 453.203 467.772 453.203 467.332C453.203 466.892 453.051 466.544 452.747 466.288C452.443 466.024 452.035 465.892 451.523 465.892H449.123V468.772ZM449.123 472.708H451.631C452.199 472.708 452.655 472.564 452.999 472.276C453.343 471.98 453.515 471.592 453.515 471.112C453.515 470.632 453.343 470.248 452.999 469.96C452.663 469.672 452.207 469.528 451.631 469.528H449.123V472.708ZM458.534 473.596C457.99 473.596 457.502 473.464 457.07 473.2C456.638 472.936 456.298 472.576 456.05 472.12C455.802 471.664 455.678 471.148 455.678 470.572C455.678 469.996 455.802 469.48 456.05 469.024C456.298 468.568 456.638 468.208 457.07 467.944C457.502 467.68 457.99 467.548 458.534 467.548C459.07 467.548 459.55 467.68 459.974 467.944C460.406 468.208 460.746 468.568 460.994 469.024C461.242 469.48 461.366 469.996 461.366 470.572C461.366 471.148 461.242 471.664 460.994 472.12C460.746 472.576 460.406 472.936 459.974 473.2C459.55 473.464 459.07 473.596 458.534 473.596ZM458.522 472.828C458.906 472.828 459.246 472.732 459.542 472.54C459.838 472.34 460.07 472.068 460.238 471.724C460.414 471.38 460.502 470.996 460.502 470.572C460.502 470.14 460.414 469.756 460.238 469.42C460.07 469.076 459.838 468.808 459.542 468.616C459.246 468.416 458.906 468.316 458.522 468.316C458.138 468.316 457.798 468.416 457.502 468.616C457.206 468.808 456.97 469.076 456.794 469.42C456.626 469.756 456.542 470.14 456.542 470.572C456.542 470.996 456.626 471.38 456.794 471.724C456.97 472.068 457.206 472.34 457.502 472.54C457.798 472.732 458.138 472.828 458.522 472.828ZM464.771 473.62C464.267 473.62 463.883 473.5 463.619 473.26C463.363 473.012 463.235 472.656 463.235 472.192V468.364H462.023V467.644H463.235V466.036L464.111 465.832V467.644H465.791V468.364H464.111V471.964C464.111 472.276 464.175 472.5 464.303 472.636C464.439 472.772 464.659 472.84 464.963 472.84C465.115 472.84 465.251 472.828 465.371 472.804C465.491 472.78 465.631 472.74 465.791 472.684V473.464C465.631 473.52 465.463 473.56 465.287 473.584C465.111 473.608 464.939 473.62 464.771 473.62ZM471.963 473.596C471.547 473.596 471.179 473.504 470.859 473.32C470.539 473.136 470.287 472.88 470.103 472.552C469.927 472.224 469.839 471.848 469.839 471.424V467.644H470.727V471.172C470.727 471.692 470.867 472.104 471.147 472.408C471.427 472.712 471.807 472.864 472.287 472.864C472.615 472.864 472.907 472.788 473.163 472.636C473.427 472.484 473.647 472.264 473.823 471.976V467.644H474.699V473.5H473.823V472.552C473.599 472.896 473.331 473.156 473.019 473.332C472.715 473.508 472.363 473.596 471.963 473.596ZM478.308 473.62C477.828 473.62 477.384 473.548 476.976 473.404C476.568 473.252 476.22 473.036 475.932 472.756L476.4 472.18C476.752 472.436 477.076 472.624 477.372 472.744C477.668 472.856 477.972 472.912 478.284 472.912C478.708 472.912 479.06 472.812 479.34 472.612C479.62 472.412 479.76 472.156 479.76 471.844C479.76 471.604 479.676 471.416 479.508 471.28C479.348 471.144 479.08 471.04 478.704 470.968L477.744 470.8C477.176 470.696 476.756 470.52 476.484 470.272C476.22 470.024 476.088 469.688 476.088 469.264C476.088 468.928 476.176 468.632 476.352 468.376C476.536 468.12 476.788 467.92 477.108 467.776C477.428 467.624 477.792 467.548 478.2 467.548C478.6 467.548 478.98 467.608 479.34 467.728C479.7 467.84 480.064 468.024 480.432 468.28L480 468.892C479.696 468.676 479.392 468.52 479.088 468.424C478.784 468.32 478.476 468.268 478.164 468.268C477.78 468.268 477.472 468.352 477.24 468.52C477.008 468.688 476.892 468.916 476.892 469.204C476.892 469.444 476.964 469.628 477.108 469.756C477.26 469.884 477.524 469.98 477.9 470.044L478.884 470.224C479.476 470.328 479.908 470.508 480.18 470.764C480.452 471.02 480.588 471.364 480.588 471.796C480.588 472.14 480.488 472.452 480.288 472.732C480.088 473.004 479.816 473.22 479.472 473.38C479.128 473.54 478.74 473.62 478.308 473.62ZM484.621 473.62C484.077 473.62 483.585 473.488 483.145 473.224C482.705 472.952 482.357 472.588 482.101 472.132C481.845 471.668 481.717 471.148 481.717 470.572C481.717 469.996 481.837 469.48 482.077 469.024C482.325 468.568 482.657 468.208 483.073 467.944C483.489 467.68 483.953 467.548 484.465 467.548C484.985 467.548 485.445 467.68 485.845 467.944C486.253 468.2 486.573 468.552 486.805 469C487.045 469.44 487.165 469.94 487.165 470.5V470.764H482.569C482.601 471.164 482.709 471.524 482.893 471.844C483.085 472.156 483.333 472.404 483.637 472.588C483.949 472.764 484.289 472.852 484.657 472.852C484.961 472.852 485.253 472.8 485.533 472.696C485.821 472.584 486.065 472.436 486.265 472.252L486.817 472.84C486.481 473.104 486.133 473.3 485.773 473.428C485.413 473.556 485.029 473.62 484.621 473.62ZM482.593 470.14H486.301C486.261 469.788 486.153 469.476 485.977 469.204C485.809 468.924 485.593 468.704 485.329 468.544C485.073 468.384 484.785 468.304 484.465 468.304C484.145 468.304 483.853 468.384 483.589 468.544C483.325 468.696 483.105 468.912 482.929 469.192C482.761 469.464 482.649 469.78 482.593 470.14ZM490.531 473.62C490.051 473.62 489.607 473.548 489.199 473.404C488.791 473.252 488.443 473.036 488.155 472.756L488.623 472.18C488.975 472.436 489.299 472.624 489.595 472.744C489.891 472.856 490.195 472.912 490.507 472.912C490.931 472.912 491.283 472.812 491.563 472.612C491.843 472.412 491.983 472.156 491.983 471.844C491.983 471.604 491.899 471.416 491.731 471.28C491.571 471.144 491.303 471.04 490.927 470.968L489.967 470.8C489.399 470.696 488.979 470.52 488.707 470.272C488.443 470.024 488.311 469.688 488.311 469.264C488.311 468.928 488.399 468.632 488.575 468.376C488.759 468.12 489.011 467.92 489.331 467.776C489.651 467.624 490.015 467.548 490.423 467.548C490.823 467.548 491.203 467.608 491.563 467.728C491.923 467.84 492.287 468.024 492.655 468.28L492.223 468.892C491.919 468.676 491.615 468.52 491.311 468.424C491.007 468.32 490.699 468.268 490.387 468.268C490.003 468.268 489.695 468.352 489.463 468.52C489.231 468.688 489.115 468.916 489.115 469.204C489.115 469.444 489.187 469.628 489.331 469.756C489.483 469.884 489.747 469.98 490.123 470.044L491.107 470.224C491.699 470.328 492.131 470.508 492.403 470.764C492.675 471.02 492.811 471.364 492.811 471.796C492.811 472.14 492.711 472.452 492.511 472.732C492.311 473.004 492.039 473.22 491.695 473.38C491.351 473.54 490.963 473.62 490.531 473.62ZM496.153 473.5L499.477 465.1H500.581L503.857 473.5H502.861L501.865 470.86H498.121L497.125 473.5H496.153ZM498.409 470.128H501.589L499.993 465.94L498.409 470.128ZM505.023 473.5V465.1H505.947V473.5H505.023ZM508.502 473.596C508.326 473.596 508.174 473.532 508.046 473.404C507.926 473.276 507.866 473.124 507.866 472.948C507.866 472.764 507.926 472.612 508.046 472.492C508.174 472.364 508.326 472.3 508.502 472.3C508.678 472.3 508.826 472.364 508.946 472.492C509.074 472.612 509.138 472.764 509.138 472.948C509.138 473.124 509.074 473.276 508.946 473.404C508.826 473.532 508.678 473.596 508.502 473.596ZM517.747 473.632C517.147 473.632 516.587 473.524 516.067 473.308C515.555 473.084 515.103 472.776 514.711 472.384C514.319 471.984 514.015 471.524 513.799 471.004C513.583 470.476 513.475 469.908 513.475 469.3C513.475 468.692 513.583 468.128 513.799 467.608C514.015 467.08 514.319 466.62 514.711 466.228C515.103 465.828 515.555 465.52 516.067 465.304C516.587 465.08 517.147 464.968 517.747 464.968C518.163 464.968 518.559 465.024 518.935 465.136C519.319 465.24 519.679 465.396 520.015 465.604C520.351 465.804 520.651 466.052 520.915 466.348L520.303 466.984C519.991 466.608 519.607 466.32 519.151 466.12C518.703 465.912 518.235 465.808 517.747 465.808C517.275 465.808 516.835 465.896 516.427 466.072C516.019 466.248 515.663 466.496 515.359 466.816C515.063 467.136 514.831 467.508 514.663 467.932C514.495 468.348 514.411 468.804 514.411 469.3C514.411 469.788 514.495 470.244 514.663 470.668C514.831 471.092 515.063 471.464 515.359 471.784C515.663 472.104 516.019 472.352 516.427 472.528C516.835 472.704 517.275 472.792 517.747 472.792C518.235 472.792 518.703 472.688 519.151 472.48C519.607 472.272 519.991 471.984 520.303 471.616L520.915 472.252C520.651 472.548 520.351 472.8 520.015 473.008C519.679 473.208 519.319 473.364 518.935 473.476C518.559 473.58 518.163 473.632 517.747 473.632ZM522.41 473.5V464.836L523.286 464.656V468.592C523.51 468.24 523.778 467.98 524.09 467.812C524.402 467.636 524.754 467.548 525.146 467.548C525.57 467.548 525.938 467.64 526.25 467.824C526.57 468 526.818 468.252 526.994 468.58C527.178 468.9 527.27 469.276 527.27 469.708V473.5H526.394V469.96C526.394 469.44 526.25 469.032 525.962 468.736C525.682 468.432 525.302 468.28 524.822 468.28C524.502 468.28 524.21 468.356 523.946 468.508C523.682 468.66 523.462 468.884 523.286 469.18V473.5H522.41ZM531.671 473.62C531.127 473.62 530.635 473.488 530.195 473.224C529.755 472.952 529.407 472.588 529.151 472.132C528.895 471.668 528.767 471.148 528.767 470.572C528.767 469.996 528.887 469.48 529.127 469.024C529.375 468.568 529.707 468.208 530.123 467.944C530.539 467.68 531.003 467.548 531.515 467.548C532.035 467.548 532.495 467.68 532.895 467.944C533.303 468.2 533.623 468.552 533.855 469C534.095 469.44 534.215 469.94 534.215 470.5V470.764H529.619C529.651 471.164 529.759 471.524 529.943 471.844C530.135 472.156 530.383 472.404 530.687 472.588C530.999 472.764 531.339 472.852 531.707 472.852C532.011 472.852 532.303 472.8 532.583 472.696C532.871 472.584 533.115 472.436 533.315 472.252L533.867 472.84C533.531 473.104 533.183 473.3 532.823 473.428C532.463 473.556 532.079 473.62 531.671 473.62ZM529.643 470.14H533.351C533.311 469.788 533.203 469.476 533.027 469.204C532.859 468.924 532.643 468.704 532.379 468.544C532.123 468.384 531.835 468.304 531.515 468.304C531.195 468.304 530.903 468.384 530.639 468.544C530.375 468.696 530.155 468.912 529.979 469.192C529.811 469.464 529.699 469.78 529.643 470.14ZM538.339 473.596C537.795 473.596 537.303 473.464 536.863 473.2C536.431 472.928 536.087 472.564 535.831 472.108C535.575 471.644 535.447 471.132 535.447 470.572C535.447 470.004 535.575 469.492 535.831 469.036C536.087 468.58 536.431 468.22 536.863 467.956C537.303 467.684 537.795 467.548 538.339 467.548C538.771 467.548 539.183 467.628 539.575 467.788C539.967 467.948 540.307 468.172 540.595 468.46L540.031 469.072C539.823 468.84 539.571 468.66 539.275 468.532C538.979 468.404 538.679 468.34 538.375 468.34C537.991 468.34 537.643 468.44 537.331 468.64C537.027 468.84 536.783 469.108 536.599 469.444C536.415 469.78 536.323 470.156 536.323 470.572C536.323 470.988 536.415 471.364 536.599 471.7C536.783 472.036 537.027 472.304 537.331 472.504C537.643 472.704 537.991 472.804 538.375 472.804C538.679 472.804 538.979 472.74 539.275 472.612C539.571 472.476 539.823 472.296 540.031 472.072L540.595 472.684C540.307 472.972 539.967 473.196 539.575 473.356C539.183 473.516 538.771 473.596 538.339 473.596ZM541.817 473.5V464.836L542.693 464.656V470.272L545.477 467.644H546.533L543.557 470.428L546.665 473.5H545.513L542.693 470.704V473.5H541.817ZM551.232 473.5V468.364H549.924V467.644H551.232V466.42C551.232 465.844 551.384 465.4 551.688 465.088C551.992 464.776 552.424 464.62 552.984 464.62C553.144 464.62 553.288 464.628 553.416 464.644C553.552 464.66 553.672 464.688 553.776 464.728V465.52C553.648 465.48 553.532 465.452 553.428 465.436C553.324 465.42 553.204 465.412 553.068 465.412C552.732 465.412 552.488 465.496 552.336 465.664C552.184 465.824 552.108 466.08 552.108 466.432V467.644H553.776V468.364H552.108V473.5H551.232ZM557.276 473.596C556.732 473.596 556.244 473.464 555.812 473.2C555.38 472.936 555.04 472.576 554.792 472.12C554.544 471.664 554.42 471.148 554.42 470.572C554.42 469.996 554.544 469.48 554.792 469.024C555.04 468.568 555.38 468.208 555.812 467.944C556.244 467.68 556.732 467.548 557.276 467.548C557.812 467.548 558.292 467.68 558.716 467.944C559.148 468.208 559.488 468.568 559.736 469.024C559.984 469.48 560.108 469.996 560.108 470.572C560.108 471.148 559.984 471.664 559.736 472.12C559.488 472.576 559.148 472.936 558.716 473.2C558.292 473.464 557.812 473.596 557.276 473.596ZM557.264 472.828C557.648 472.828 557.988 472.732 558.284 472.54C558.58 472.34 558.812 472.068 558.98 471.724C559.156 471.38 559.244 470.996 559.244 470.572C559.244 470.14 559.156 469.756 558.98 469.42C558.812 469.076 558.58 468.808 558.284 468.616C557.988 468.416 557.648 468.316 557.264 468.316C556.88 468.316 556.54 468.416 556.244 468.616C555.948 468.808 555.712 469.076 555.536 469.42C555.368 469.756 555.284 470.14 555.284 470.572C555.284 470.996 555.368 471.38 555.536 471.724C555.712 472.068 555.948 472.34 556.244 472.54C556.54 472.732 556.88 472.828 557.264 472.828ZM561.645 473.5V467.644H562.521V468.844C562.673 468.436 562.889 468.12 563.169 467.896C563.457 467.664 563.785 467.548 564.153 467.548C564.257 467.548 564.353 467.556 564.441 467.572C564.529 467.58 564.617 467.6 564.705 467.632V468.424C564.609 468.392 564.505 468.368 564.393 468.352C564.289 468.328 564.189 468.316 564.093 468.316C563.733 468.316 563.417 468.42 563.145 468.628C562.881 468.836 562.673 469.128 562.521 469.504V473.5H561.645ZM568.664 473.5V467.644H569.54V468.556C569.764 468.22 570.02 467.968 570.308 467.8C570.596 467.632 570.92 467.548 571.28 467.548C571.696 467.548 572.06 467.652 572.372 467.86C572.684 468.06 572.92 468.336 573.08 468.688C573.312 468.312 573.588 468.028 573.908 467.836C574.236 467.644 574.612 467.548 575.036 467.548C575.428 467.548 575.772 467.64 576.068 467.824C576.372 468.008 576.608 468.264 576.776 468.592C576.944 468.912 577.028 469.288 577.028 469.72V473.5H576.152V469.936C576.152 469.424 576.024 469.02 575.768 468.724C575.512 468.428 575.16 468.28 574.712 468.28C574.408 468.28 574.132 468.356 573.884 468.508C573.644 468.66 573.432 468.892 573.248 469.204C573.264 469.284 573.276 469.368 573.284 469.456C573.292 469.544 573.296 469.632 573.296 469.72V473.5H572.42V469.936C572.42 469.424 572.288 469.02 572.024 468.724C571.768 468.428 571.416 468.28 570.968 468.28C570.368 468.28 569.892 468.568 569.54 469.144V473.5H568.664ZM578.789 473.5V467.644H579.665V473.5H578.789ZM579.233 466.192C579.057 466.192 578.905 466.132 578.777 466.012C578.657 465.884 578.597 465.736 578.597 465.568C578.597 465.4 578.657 465.256 578.777 465.136C578.905 465.008 579.057 464.944 579.233 464.944C579.409 464.944 579.557 465.008 579.677 465.136C579.805 465.256 579.869 465.4 579.869 465.568C579.869 465.736 579.805 465.884 579.677 466.012C579.557 466.132 579.409 466.192 579.233 466.192ZM583.273 473.62C582.793 473.62 582.349 473.548 581.941 473.404C581.533 473.252 581.185 473.036 580.897 472.756L581.365 472.18C581.717 472.436 582.041 472.624 582.337 472.744C582.633 472.856 582.937 472.912 583.249 472.912C583.673 472.912 584.025 472.812 584.305 472.612C584.585 472.412 584.725 472.156 584.725 471.844C584.725 471.604 584.641 471.416 584.473 471.28C584.313 471.144 584.045 471.04 583.669 470.968L582.709 470.8C582.141 470.696 581.721 470.52 581.449 470.272C581.185 470.024 581.053 469.688 581.053 469.264C581.053 468.928 581.141 468.632 581.317 468.376C581.501 468.12 581.753 467.92 582.073 467.776C582.393 467.624 582.757 467.548 583.165 467.548C583.565 467.548 583.945 467.608 584.305 467.728C584.665 467.84 585.029 468.024 585.397 468.28L584.965 468.892C584.661 468.676 584.357 468.52 584.053 468.424C583.749 468.32 583.441 468.268 583.129 468.268C582.745 468.268 582.437 468.352 582.205 468.52C581.973 468.688 581.857 468.916 581.857 469.204C581.857 469.444 581.929 469.628 582.073 469.756C582.225 469.884 582.489 469.98 582.865 470.044L583.849 470.224C584.441 470.328 584.873 470.508 585.145 470.764C585.417 471.02 585.553 471.364 585.553 471.796C585.553 472.14 585.453 472.452 585.253 472.732C585.053 473.004 584.781 473.22 584.437 473.38C584.093 473.54 583.705 473.62 583.273 473.62ZM589.002 473.62C588.498 473.62 588.114 473.5 587.85 473.26C587.594 473.012 587.466 472.656 587.466 472.192V468.364H586.254V467.644H587.466V466.036L588.342 465.832V467.644H590.022V468.364H588.342V471.964C588.342 472.276 588.406 472.5 588.534 472.636C588.67 472.772 588.89 472.84 589.194 472.84C589.346 472.84 589.482 472.828 589.602 472.804C589.722 472.78 589.862 472.74 590.022 472.684V473.464C589.862 473.52 589.694 473.56 589.518 473.584C589.342 473.608 589.17 473.62 589.002 473.62ZM593.117 473.608C592.701 473.608 592.333 473.532 592.013 473.38C591.693 473.228 591.441 473.02 591.257 472.756C591.081 472.484 590.993 472.172 590.993 471.82C590.993 471.468 591.085 471.164 591.269 470.908C591.453 470.644 591.709 470.44 592.037 470.296C592.365 470.152 592.749 470.08 593.189 470.08C593.525 470.08 593.841 470.116 594.137 470.188C594.441 470.26 594.721 470.376 594.977 470.536V469.732C594.977 469.252 594.849 468.892 594.593 468.652C594.337 468.404 593.961 468.28 593.465 468.28C593.193 468.28 592.913 468.32 592.625 468.4C592.345 468.48 592.033 468.608 591.689 468.784L591.365 468.112C592.149 467.736 592.885 467.548 593.573 467.548C594.301 467.548 594.861 467.728 595.253 468.088C595.645 468.44 595.841 468.948 595.841 469.612V473.5H594.977V472.816C594.721 473.08 594.437 473.28 594.125 473.416C593.813 473.544 593.477 473.608 593.117 473.608ZM591.833 471.796C591.833 472.14 591.965 472.416 592.229 472.624C592.501 472.832 592.857 472.936 593.297 472.936C593.625 472.936 593.925 472.88 594.197 472.768C594.477 472.656 594.737 472.488 594.977 472.264V471.136C594.729 470.992 594.473 470.888 594.209 470.824C593.945 470.752 593.649 470.716 593.321 470.716C592.873 470.716 592.513 470.816 592.241 471.016C591.969 471.208 591.833 471.468 591.833 471.796ZM597.621 473.5V464.836L598.497 464.656V470.272L601.281 467.644H602.337L599.361 470.428L602.469 473.5H601.317L598.497 470.704V473.5H597.621ZM605.652 473.62C605.108 473.62 604.616 473.488 604.176 473.224C603.736 472.952 603.388 472.588 603.132 472.132C602.876 471.668 602.748 471.148 602.748 470.572C602.748 469.996 602.868 469.48 603.108 469.024C603.356 468.568 603.688 468.208 604.104 467.944C604.52 467.68 604.984 467.548 605.496 467.548C606.016 467.548 606.476 467.68 606.876 467.944C607.284 468.2 607.604 468.552 607.836 469C608.076 469.44 608.196 469.94 608.196 470.5V470.764H603.6C603.632 471.164 603.74 471.524 603.924 471.844C604.116 472.156 604.364 472.404 604.668 472.588C604.98 472.764 605.32 472.852 605.688 472.852C605.992 472.852 606.284 472.8 606.564 472.696C606.852 472.584 607.096 472.436 607.296 472.252L607.848 472.84C607.512 473.104 607.164 473.3 606.804 473.428C606.444 473.556 606.06 473.62 605.652 473.62ZM603.624 470.14H607.332C607.292 469.788 607.184 469.476 607.008 469.204C606.84 468.924 606.624 468.704 606.36 468.544C606.104 468.384 605.816 468.304 605.496 468.304C605.176 468.304 604.884 468.384 604.62 468.544C604.356 468.696 604.136 468.912 603.96 469.192C603.792 469.464 603.68 469.78 603.624 470.14ZM611.562 473.62C611.082 473.62 610.638 473.548 610.23 473.404C609.822 473.252 609.474 473.036 609.186 472.756L609.654 472.18C610.006 472.436 610.33 472.624 610.626 472.744C610.922 472.856 611.226 472.912 611.538 472.912C611.962 472.912 612.314 472.812 612.594 472.612C612.874 472.412 613.014 472.156 613.014 471.844C613.014 471.604 612.93 471.416 612.762 471.28C612.602 471.144 612.334 471.04 611.958 470.968L610.998 470.8C610.43 470.696 610.01 470.52 609.738 470.272C609.474 470.024 609.342 469.688 609.342 469.264C609.342 468.928 609.43 468.632 609.606 468.376C609.79 468.12 610.042 467.92 610.362 467.776C610.682 467.624 611.046 467.548 611.454 467.548C611.854 467.548 612.234 467.608 612.594 467.728C612.954 467.84 613.318 468.024 613.686 468.28L613.254 468.892C612.95 468.676 612.646 468.52 612.342 468.424C612.038 468.32 611.73 468.268 611.418 468.268C611.034 468.268 610.726 468.352 610.494 468.52C610.262 468.688 610.146 468.916 610.146 469.204C610.146 469.444 610.218 469.628 610.362 469.756C610.514 469.884 610.778 469.98 611.154 470.044L612.138 470.224C612.73 470.328 613.162 470.508 613.434 470.764C613.706 471.02 613.842 471.364 613.842 471.796C613.842 472.14 613.742 472.452 613.542 472.732C613.342 473.004 613.07 473.22 612.726 473.38C612.382 473.54 611.994 473.62 611.562 473.62ZM615.659 473.596C615.483 473.596 615.331 473.532 615.203 473.404C615.083 473.276 615.023 473.124 615.023 472.948C615.023 472.764 615.083 472.612 615.203 472.492C615.331 472.364 615.483 472.3 615.659 472.3C615.835 472.3 615.983 472.364 616.103 472.492C616.231 472.612 616.295 472.764 616.295 472.948C616.295 473.124 616.231 473.276 616.103 473.404C615.983 473.532 615.835 473.596 615.659 473.596Z" fill="#0066CC"/>
<path fill-rule="evenodd" clip-rule="evenodd" d="M633.913 476.562C637.657 476.562 640.694 473.527 640.694 469.781C640.694 466.037 637.657 463 633.913 463C630.168 463 627.131 466.037 627.131 469.781C627.131 473.527 630.168 476.562 633.913 476.562ZM633.913 468.305C633.278 468.305 632.764 467.791 632.764 467.156C632.764 466.522 633.278 466.008 633.913 466.008C634.547 466.008 635.061 466.522 635.061 467.156C635.061 467.791 634.547 468.305 633.913 468.305ZM635.116 473.281H632.709C632.528 473.281 632.381 473.134 632.381 472.953V472.297C632.381 472.116 632.528 471.969 632.709 471.969H633.038V470.219H632.709C632.528 470.219 632.381 470.072 632.381 469.891V469.234C632.381 469.053 632.528 468.906 632.709 468.906H634.459C634.641 468.906 634.788 469.053 634.788 469.234V471.969H635.116C635.297 471.969 635.444 472.116 635.444 472.297V472.953C635.444 473.134 635.297 473.281 635.116 473.281Z" fill="#0066CC"/>
<rect x="32" y="348" width="1022" height="1" rx="0.5" fill="#C7C7C7"/>
<rect x="547" y="69" width="279" height="0.999988" rx="0.499994" transform="rotate(90 547 69)" fill="#C7C7C7"/>
<path d="M260.71 108.154C260.01 108.154 259.357 108.028 258.75 107.776C258.153 107.515 257.626 107.155 257.168 106.698C256.711 106.231 256.356 105.695 256.104 105.088C255.852 104.472 255.726 103.809 255.726 103.1C255.726 102.391 255.852 101.733 256.104 101.126C256.356 100.51 256.711 99.9733 257.168 99.516C257.626 99.0493 258.153 98.69 258.75 98.438C259.357 98.1767 260.01 98.046 260.71 98.046C261.196 98.046 261.658 98.1113 262.096 98.242C262.544 98.3633 262.964 98.5453 263.356 98.788C263.748 99.0213 264.098 99.3107 264.406 99.656L263.692 100.398C263.328 99.9593 262.88 99.6233 262.348 99.39C261.826 99.1473 261.28 99.026 260.71 99.026C260.16 99.026 259.646 99.1287 259.17 99.334C258.694 99.5393 258.279 99.8287 257.924 100.202C257.579 100.575 257.308 101.009 257.112 101.504C256.916 101.989 256.818 102.521 256.818 103.1C256.818 103.669 256.916 104.201 257.112 104.696C257.308 105.191 257.579 105.625 257.924 105.998C258.279 106.371 258.694 106.661 259.17 106.866C259.646 107.071 260.16 107.174 260.71 107.174C261.28 107.174 261.826 107.053 262.348 106.81C262.88 106.567 263.328 106.231 263.692 105.802L264.406 106.544C264.098 106.889 263.748 107.183 263.356 107.426C262.964 107.659 262.544 107.841 262.096 107.972C261.658 108.093 261.196 108.154 260.71 108.154ZM266.151 108V97.892L267.173 97.682V102.274C267.434 101.863 267.747 101.56 268.111 101.364C268.475 101.159 268.885 101.056 269.343 101.056C269.837 101.056 270.267 101.163 270.631 101.378C271.004 101.583 271.293 101.877 271.499 102.26C271.713 102.633 271.821 103.072 271.821 103.576V108H270.799V103.87C270.799 103.263 270.631 102.787 270.295 102.442C269.968 102.087 269.525 101.91 268.965 101.91C268.591 101.91 268.251 101.999 267.943 102.176C267.635 102.353 267.378 102.615 267.173 102.96V108H266.151ZM275.989 108.126C275.504 108.126 275.075 108.037 274.701 107.86C274.328 107.683 274.034 107.44 273.819 107.132C273.614 106.815 273.511 106.451 273.511 106.04C273.511 105.629 273.619 105.275 273.833 104.976C274.048 104.668 274.347 104.43 274.729 104.262C275.112 104.094 275.56 104.01 276.073 104.01C276.465 104.01 276.834 104.052 277.179 104.136C277.534 104.22 277.861 104.355 278.159 104.542V103.604C278.159 103.044 278.01 102.624 277.711 102.344C277.413 102.055 276.974 101.91 276.395 101.91C276.078 101.91 275.751 101.957 275.415 102.05C275.089 102.143 274.725 102.293 274.323 102.498L273.945 101.714C274.86 101.275 275.719 101.056 276.521 101.056C277.371 101.056 278.024 101.266 278.481 101.686C278.939 102.097 279.167 102.689 279.167 103.464V108H278.159V107.202C277.861 107.51 277.529 107.743 277.165 107.902C276.801 108.051 276.409 108.126 275.989 108.126ZM274.491 106.012C274.491 106.413 274.645 106.735 274.953 106.978C275.271 107.221 275.686 107.342 276.199 107.342C276.582 107.342 276.932 107.277 277.249 107.146C277.576 107.015 277.879 106.819 278.159 106.558V105.242C277.87 105.074 277.571 104.953 277.263 104.878C276.955 104.794 276.61 104.752 276.227 104.752C275.705 104.752 275.285 104.869 274.967 105.102C274.65 105.326 274.491 105.629 274.491 106.012ZM283.643 108.14C283.055 108.14 282.607 108 282.299 107.72C282.001 107.431 281.851 107.015 281.851 106.474V102.008H280.437V101.168H281.851V99.292L282.873 99.054V101.168H284.833V102.008H282.873V106.208C282.873 106.572 282.948 106.833 283.097 106.992C283.256 107.151 283.513 107.23 283.867 107.23C284.045 107.23 284.203 107.216 284.343 107.188C284.483 107.16 284.647 107.113 284.833 107.048V107.958C284.647 108.023 284.451 108.07 284.245 108.098C284.04 108.126 283.839 108.14 283.643 108.14ZM286.526 108V98.2H290.488C291.086 98.2 291.604 98.3027 292.042 98.508C292.49 98.7133 292.836 99.0027 293.078 99.376C293.321 99.7493 293.442 100.188 293.442 100.692C293.442 101.233 293.284 101.7 292.966 102.092C292.658 102.475 292.238 102.745 291.706 102.904C292.36 103.053 292.873 103.338 293.246 103.758C293.629 104.169 293.82 104.677 293.82 105.284C293.82 105.825 293.69 106.301 293.428 106.712C293.167 107.123 292.798 107.44 292.322 107.664C291.846 107.888 291.286 108 290.642 108H286.526ZM287.604 102.484H290.404C291.002 102.484 291.478 102.335 291.832 102.036C292.187 101.728 292.364 101.317 292.364 100.804C292.364 100.291 292.187 99.8847 291.832 99.586C291.478 99.278 291.002 99.124 290.404 99.124H287.604V102.484ZM287.604 107.076H290.53C291.193 107.076 291.725 106.908 292.126 106.572C292.528 106.227 292.728 105.774 292.728 105.214C292.728 104.654 292.528 104.206 292.126 103.87C291.734 103.534 291.202 103.366 290.53 103.366H287.604V107.076ZM298.583 108.112C297.948 108.112 297.379 107.958 296.875 107.65C296.371 107.342 295.974 106.922 295.685 106.39C295.395 105.858 295.251 105.256 295.251 104.584C295.251 103.912 295.395 103.31 295.685 102.778C295.974 102.246 296.371 101.826 296.875 101.518C297.379 101.21 297.948 101.056 298.583 101.056C299.208 101.056 299.768 101.21 300.263 101.518C300.767 101.826 301.163 102.246 301.453 102.778C301.742 103.31 301.887 103.912 301.887 104.584C301.887 105.256 301.742 105.858 301.453 106.39C301.163 106.922 300.767 107.342 300.263 107.65C299.768 107.958 299.208 108.112 298.583 108.112ZM298.569 107.216C299.017 107.216 299.413 107.104 299.759 106.88C300.104 106.647 300.375 106.329 300.571 105.928C300.776 105.527 300.879 105.079 300.879 104.584C300.879 104.08 300.776 103.632 300.571 103.24C300.375 102.839 300.104 102.526 299.759 102.302C299.413 102.069 299.017 101.952 298.569 101.952C298.121 101.952 297.724 102.069 297.379 102.302C297.033 102.526 296.758 102.839 296.553 103.24C296.357 103.632 296.259 104.08 296.259 104.584C296.259 105.079 296.357 105.527 296.553 105.928C296.758 106.329 297.033 106.647 297.379 106.88C297.724 107.104 298.121 107.216 298.569 107.216ZM305.86 108.14C305.272 108.14 304.824 108 304.516 107.72C304.217 107.431 304.068 107.015 304.068 106.474V102.008H302.654V101.168H304.068V99.292L305.09 99.054V101.168H307.05V102.008H305.09V106.208C305.09 106.572 305.165 106.833 305.314 106.992C305.473 107.151 305.729 107.23 306.084 107.23C306.261 107.23 306.42 107.216 306.56 107.188C306.7 107.16 306.863 107.113 307.05 107.048V107.958C306.863 108.023 306.667 108.07 306.462 108.098C306.257 108.126 306.056 108.14 305.86 108.14ZM312.907 108V99.292L311.339 99.992V99.068L313.285 98.2H313.915V108H312.907Z" fill="#4D4D4D"/>
<path d="M769.022 108.154C768.322 108.154 767.669 108.028 767.062 107.776C766.465 107.515 765.937 107.155 765.48 106.698C765.023 106.231 764.668 105.695 764.416 105.088C764.164 104.472 764.038 103.809 764.038 103.1C764.038 102.391 764.164 101.733 764.416 101.126C764.668 100.51 765.023 99.9733 765.48 99.516C765.937 99.0493 766.465 98.69 767.062 98.438C767.669 98.1767 768.322 98.046 769.022 98.046C769.507 98.046 769.969 98.1113 770.408 98.242C770.856 98.3633 771.276 98.5453 771.668 98.788C772.06 99.0213 772.41 99.3107 772.718 99.656L772.004 100.398C771.64 99.9593 771.192 99.6233 770.66 99.39C770.137 99.1473 769.591 99.026 769.022 99.026C768.471 99.026 767.958 99.1287 767.482 99.334C767.006 99.5393 766.591 99.8287 766.236 100.202C765.891 100.575 765.62 101.009 765.424 101.504C765.228 101.989 765.13 102.521 765.13 103.1C765.13 103.669 765.228 104.201 765.424 104.696C765.62 105.191 765.891 105.625 766.236 105.998C766.591 106.371 767.006 106.661 767.482 106.866C767.958 107.071 768.471 107.174 769.022 107.174C769.591 107.174 770.137 107.053 770.66 106.81C771.192 106.567 771.64 106.231 772.004 105.802L772.718 106.544C772.41 106.889 772.06 107.183 771.668 107.426C771.276 107.659 770.856 107.841 770.408 107.972C769.969 108.093 769.507 108.154 769.022 108.154ZM774.462 108V97.892L775.484 97.682V102.274C775.745 101.863 776.058 101.56 776.422 101.364C776.786 101.159 777.197 101.056 777.654 101.056C778.149 101.056 778.578 101.163 778.942 101.378C779.315 101.583 779.605 101.877 779.81 102.26C780.025 102.633 780.132 103.072 780.132 103.576V108H779.11V103.87C779.11 103.263 778.942 102.787 778.606 102.442C778.279 102.087 777.836 101.91 777.276 101.91C776.903 101.91 776.562 101.999 776.254 102.176C775.946 102.353 775.689 102.615 775.484 102.96V108H774.462ZM784.301 108.126C783.815 108.126 783.386 108.037 783.013 107.86C782.639 107.683 782.345 107.44 782.131 107.132C781.925 106.815 781.823 106.451 781.823 106.04C781.823 105.629 781.93 105.275 782.145 104.976C782.359 104.668 782.658 104.43 783.041 104.262C783.423 104.094 783.871 104.01 784.385 104.01C784.777 104.01 785.145 104.052 785.491 104.136C785.845 104.22 786.172 104.355 786.471 104.542V103.604C786.471 103.044 786.321 102.624 786.023 102.344C785.724 102.055 785.285 101.91 784.707 101.91C784.389 101.91 784.063 101.957 783.727 102.05C783.4 102.143 783.036 102.293 782.635 102.498L782.257 101.714C783.171 101.275 784.03 101.056 784.833 101.056C785.682 101.056 786.335 101.266 786.793 101.686C787.25 102.097 787.479 102.689 787.479 103.464V108H786.471V107.202C786.172 107.51 785.841 107.743 785.477 107.902C785.113 108.051 784.721 108.126 784.301 108.126ZM782.803 106.012C782.803 106.413 782.957 106.735 783.265 106.978C783.582 107.221 783.997 107.342 784.511 107.342C784.893 107.342 785.243 107.277 785.561 107.146C785.887 107.015 786.191 106.819 786.471 106.558V105.242C786.181 105.074 785.883 104.953 785.575 104.878C785.267 104.794 784.921 104.752 784.539 104.752C784.016 104.752 783.596 104.869 783.279 105.102C782.961 105.326 782.803 105.629 782.803 106.012ZM791.955 108.14C791.367 108.14 790.919 108 790.611 107.72C790.312 107.431 790.163 107.015 790.163 106.474V102.008H788.749V101.168H790.163V99.292L791.185 99.054V101.168H793.145V102.008H791.185V106.208C791.185 106.572 791.259 106.833 791.409 106.992C791.567 107.151 791.824 107.23 792.179 107.23C792.356 107.23 792.515 107.216 792.655 107.188C792.795 107.16 792.958 107.113 793.145 107.048V107.958C792.958 108.023 792.762 108.07 792.557 108.098C792.351 108.126 792.151 108.14 791.955 108.14ZM794.838 108V98.2H798.8C799.397 98.2 799.915 98.3027 800.354 98.508C800.802 98.7133 801.147 99.0027 801.39 99.376C801.632 99.7493 801.754 100.188 801.754 100.692C801.754 101.233 801.595 101.7 801.278 102.092C800.97 102.475 800.55 102.745 800.018 102.904C800.671 103.053 801.184 103.338 801.558 103.758C801.94 104.169 802.132 104.677 802.132 105.284C802.132 105.825 802.001 106.301 801.74 106.712C801.478 107.123 801.11 107.44 800.634 107.664C800.158 107.888 799.598 108 798.954 108H794.838ZM795.916 102.484H798.716C799.313 102.484 799.789 102.335 800.144 102.036C800.498 101.728 800.676 101.317 800.676 100.804C800.676 100.291 800.498 99.8847 800.144 99.586C799.789 99.278 799.313 99.124 798.716 99.124H795.916V102.484ZM795.916 107.076H798.842C799.504 107.076 800.036 106.908 800.438 106.572C800.839 106.227 801.04 105.774 801.04 105.214C801.04 104.654 800.839 104.206 800.438 103.87C800.046 103.534 799.514 103.366 798.842 103.366H795.916V107.076ZM806.894 108.112C806.26 108.112 805.69 107.958 805.186 107.65C804.682 107.342 804.286 106.922 803.996 106.39C803.707 105.858 803.562 105.256 803.562 104.584C803.562 103.912 803.707 103.31 803.996 102.778C804.286 102.246 804.682 101.826 805.186 101.518C805.69 101.21 806.26 101.056 806.894 101.056C807.52 101.056 808.08 101.21 808.574 101.518C809.078 101.826 809.475 102.246 809.764 102.778C810.054 103.31 810.198 103.912 810.198 104.584C810.198 105.256 810.054 105.858 809.764 106.39C809.475 106.922 809.078 107.342 808.574 107.65C808.08 107.958 807.52 108.112 806.894 108.112ZM806.88 107.216C807.328 107.216 807.725 107.104 808.07 106.88C808.416 106.647 808.686 106.329 808.882 105.928C809.088 105.527 809.19 105.079 809.19 104.584C809.19 104.08 809.088 103.632 808.882 103.24C808.686 102.839 808.416 102.526 808.07 102.302C807.725 102.069 807.328 101.952 806.88 101.952C806.432 101.952 806.036 102.069 805.69 102.302C805.345 102.526 805.07 102.839 804.864 103.24C804.668 103.632 804.57 104.08 804.57 104.584C804.57 105.079 804.668 105.527 804.864 105.928C805.07 106.329 805.345 106.647 805.69 106.88C806.036 107.104 806.432 107.216 806.88 107.216ZM814.172 108.14C813.584 108.14 813.136 108 812.828 107.72C812.529 107.431 812.38 107.015 812.38 106.474V102.008H810.966V101.168H812.38V99.292L813.402 99.054V101.168H815.362V102.008H813.402V106.208C813.402 106.572 813.476 106.833 813.626 106.992C813.784 107.151 814.041 107.23 814.396 107.23C814.573 107.23 814.732 107.216 814.872 107.188C815.012 107.16 815.175 107.113 815.362 107.048V107.958C815.175 108.023 814.979 108.07 814.774 108.098C814.568 108.126 814.368 108.14 814.172 108.14ZM819.79 108V107.258L823.71 102.974C824.018 102.638 824.256 102.344 824.424 102.092C824.602 101.831 824.723 101.588 824.788 101.364C824.863 101.14 824.9 100.902 824.9 100.65C824.9 100.155 824.704 99.7493 824.312 99.432C823.93 99.1053 823.44 98.942 822.842 98.942C822.385 98.942 821.96 99.0307 821.568 99.208C821.176 99.3853 820.738 99.6933 820.252 100.132L819.664 99.432C820.178 98.9653 820.696 98.62 821.218 98.396C821.741 98.1627 822.287 98.046 822.856 98.046C823.444 98.046 823.967 98.158 824.424 98.382C824.882 98.5967 825.241 98.8953 825.502 99.278C825.764 99.6607 825.894 100.099 825.894 100.594C825.894 100.921 825.852 101.224 825.768 101.504C825.684 101.775 825.535 102.069 825.32 102.386C825.106 102.694 824.798 103.067 824.396 103.506L821.05 107.132L826.104 107.118V108H819.79Z" fill="#4D4D4D"/>
</g>
</g>
</g>
<defs>
<linearGradient id="paint0_linear_329_51763" x1="1569.07" y1="16.8044" x2="-234.756" y2="3023.17" gradientUnits="userSpaceOnUse">
<stop stop-color="#2B9AF3"/>
<stop offset="1" stop-color="#73BCF7" stop-opacity="0.502213"/>
</linearGradient>
<linearGradient id="paint1_linear_329_51763" x1="113.196" y1="-1439.07" x2="-2893.17" y2="364.756" gradientUnits="userSpaceOnUse">
<stop stop-color="#2B9AF3"/>
<stop offset="1" stop-color="#73BCF7" stop-opacity="0.502213"/>
</linearGradient>
<clipPath id="clip0_329_51763">
<rect width="1078" height="501" fill="white"/>
</clipPath>
<clipPath id="clip1_329_51763">
<rect width="1078" height="501" fill="white"/>
</clipPath>
<clipPath id="clip2_329_51763">
<path d="M24 85C24 76.1634 31.1634 69 40 69H1045C1053.84 69 1061 76.1634 1061 85V475C1061 483.837 1053.84 491 1045 491H40C31.1635 491 24 483.837 24 475V85Z" fill="white"/>
</clipPath>
</defs>
</svg>
