<svg width="403" height="406" viewBox="0 0 403 406" fill="none" xmlns="http://www.w3.org/2000/svg">
<g clip-path="url(#clip0_759_63388)">
<rect width="403" height="406" fill="white"/>
<rect width="375" height="960" transform="translate(14)" fill="white"/>
<path fill-rule="evenodd" clip-rule="evenodd" d="M57.8329 46.9224L58.4226 46.3327C58.7482 46.0071 58.7482 45.4792 58.4226 45.1533L55.7692 42.4999L58.4226 39.8465C58.7482 39.521 58.7482 38.993 58.4226 38.6672L57.8329 38.0775C57.5073 37.7518 56.9794 37.7518 56.6535 38.0775L54.0002 40.7308L51.3468 38.0775C51.0212 37.7518 50.4933 37.7518 50.1674 38.0775L49.5777 38.6672C49.2521 38.9928 49.2521 39.5207 49.5777 39.8465L52.2311 42.4999L49.5777 45.1533C49.2521 45.4789 49.2521 46.0068 49.5777 46.3327L50.1674 46.9224C50.493 47.248 51.0212 47.248 51.3468 46.9224L54.0002 44.269L56.6535 46.9224C56.9791 47.248 57.5073 47.248 57.8329 46.9224Z" fill="#1F1F1F"/>
<path d="M270 42.5C270 32.2827 278.283 24 288.5 24H358.5C368.717 24 377 32.2827 377 42.5V42.5C377 52.7173 368.717 61 358.5 61H288.5C278.283 61 270 52.7173 270 42.5V42.5Z" fill="#0066CC"/>
<path d="M293.746 47V37.2H294.866L300.606 45.32L300.578 37.2H301.6V47H300.62L294.74 38.698L294.768 47H293.746ZM306.98 47.14C306.345 47.14 305.771 46.986 305.258 46.678C304.744 46.3607 304.338 45.936 304.04 45.404C303.741 44.8627 303.592 44.256 303.592 43.584C303.592 42.912 303.732 42.31 304.012 41.778C304.301 41.246 304.688 40.826 305.174 40.518C305.659 40.21 306.2 40.056 306.798 40.056C307.404 40.056 307.941 40.21 308.408 40.518C308.884 40.8167 309.257 41.2273 309.528 41.75C309.808 42.2633 309.948 42.8467 309.948 43.5V43.808H304.586C304.623 44.2747 304.749 44.6947 304.964 45.068C305.188 45.432 305.477 45.7213 305.832 45.936C306.196 46.1413 306.592 46.244 307.022 46.244C307.376 46.244 307.717 46.1833 308.044 46.062C308.38 45.9313 308.664 45.7587 308.898 45.544L309.542 46.23C309.15 46.538 308.744 46.7667 308.324 46.916C307.904 47.0653 307.456 47.14 306.98 47.14ZM304.614 43.08H308.94C308.893 42.6693 308.767 42.3053 308.562 41.988C308.366 41.6613 308.114 41.4047 307.806 41.218C307.507 41.0313 307.171 40.938 306.798 40.938C306.424 40.938 306.084 41.0313 305.776 41.218C305.468 41.3953 305.211 41.6473 305.006 41.974C304.81 42.2913 304.679 42.66 304.614 43.08ZM312.774 47L310.898 40.168H311.892L313.32 45.628L314.958 40.168H315.868L317.506 45.628L318.92 40.168H319.886L318.024 47H317.03L315.406 41.484L313.782 47H312.774ZM329.317 47.154C328.617 47.154 327.963 47.028 327.357 46.776C326.759 46.5147 326.232 46.1553 325.775 45.698C325.317 45.2313 324.963 44.6947 324.711 44.088C324.459 43.472 324.333 42.8093 324.333 42.1C324.333 41.3907 324.459 40.7327 324.711 40.126C324.963 39.51 325.317 38.9733 325.775 38.516C326.232 38.0493 326.759 37.69 327.357 37.438C327.963 37.1767 328.617 37.046 329.317 37.046C329.802 37.046 330.264 37.1113 330.703 37.242C331.151 37.3633 331.571 37.5453 331.963 37.788C332.355 38.0213 332.705 38.3107 333.013 38.656L332.299 39.398C331.935 38.9593 331.487 38.6233 330.955 38.39C330.432 38.1473 329.886 38.026 329.317 38.026C328.766 38.026 328.253 38.1287 327.777 38.334C327.301 38.5393 326.885 38.8287 326.531 39.202C326.185 39.5753 325.915 40.0093 325.719 40.504C325.523 40.9893 325.425 41.5213 325.425 42.1C325.425 42.6693 325.523 43.2013 325.719 43.696C325.915 44.1907 326.185 44.6247 326.531 44.998C326.885 45.3713 327.301 45.6607 327.777 45.866C328.253 46.0713 328.766 46.174 329.317 46.174C329.886 46.174 330.432 46.0527 330.955 45.81C331.487 45.5673 331.935 45.2313 332.299 44.802L333.013 45.544C332.705 45.8893 332.355 46.1833 331.963 46.426C331.571 46.6593 331.151 46.8413 330.703 46.972C330.264 47.0933 329.802 47.154 329.317 47.154ZM334.757 47V36.892L335.779 36.682V41.274C336.04 40.8633 336.353 40.56 336.717 40.364C337.081 40.1587 337.492 40.056 337.949 40.056C338.444 40.056 338.873 40.1633 339.237 40.378C339.61 40.5833 339.9 40.8773 340.105 41.26C340.32 41.6333 340.427 42.072 340.427 42.576V47H339.405V42.87C339.405 42.2633 339.237 41.7873 338.901 41.442C338.574 41.0873 338.131 40.91 337.571 40.91C337.198 40.91 336.857 40.9987 336.549 41.176C336.241 41.3533 335.984 41.6147 335.779 41.96V47H334.757ZM344.596 47.126C344.11 47.126 343.681 47.0373 343.308 46.86C342.934 46.6827 342.64 46.44 342.426 46.132C342.22 45.8147 342.118 45.4507 342.118 45.04C342.118 44.6293 342.225 44.2747 342.44 43.976C342.654 43.668 342.953 43.43 343.336 43.262C343.718 43.094 344.166 43.01 344.68 43.01C345.072 43.01 345.44 43.052 345.786 43.136C346.14 43.22 346.467 43.3553 346.766 43.542V42.604C346.766 42.044 346.616 41.624 346.318 41.344C346.019 41.0547 345.58 40.91 345.002 40.91C344.684 40.91 344.358 40.9567 344.022 41.05C343.695 41.1433 343.331 41.2927 342.93 41.498L342.552 40.714C343.466 40.2753 344.325 40.056 345.128 40.056C345.977 40.056 346.63 40.266 347.088 40.686C347.545 41.0967 347.774 41.6893 347.774 42.464V47H346.766V46.202C346.467 46.51 346.136 46.7433 345.772 46.902C345.408 47.0513 345.016 47.126 344.596 47.126ZM343.098 45.012C343.098 45.4133 343.252 45.7353 343.56 45.978C343.877 46.2207 344.292 46.342 344.806 46.342C345.188 46.342 345.538 46.2767 345.856 46.146C346.182 46.0153 346.486 45.8193 346.766 45.558V44.242C346.476 44.074 346.178 43.9527 345.87 43.878C345.562 43.794 345.216 43.752 344.834 43.752C344.311 43.752 343.891 43.8687 343.574 44.102C343.256 44.326 343.098 44.6293 343.098 45.012ZM352.25 47.14C351.662 47.14 351.214 47 350.906 46.72C350.607 46.4307 350.458 46.0153 350.458 45.474V41.008H349.044V40.168H350.458V38.292L351.48 38.054V40.168H353.44V41.008H351.48V45.208C351.48 45.572 351.554 45.8333 351.704 45.992C351.862 46.1507 352.119 46.23 352.474 46.23C352.651 46.23 352.81 46.216 352.95 46.188C353.09 46.16 353.253 46.1133 353.44 46.048V46.958C353.253 47.0233 353.057 47.07 352.852 47.098C352.646 47.126 352.446 47.14 352.25 47.14Z" fill="white"/>
<path d="M38 91C38 87.6863 40.6863 85 44 85H368C371.314 85 374 87.6863 374 91V116C374 119.314 371.314 122 368 122H44C40.6863 122 38 119.314 38 116V91Z" fill="#F2F2F2"/>
<rect width="327" height="651" transform="translate(38 146)" fill="white"/>
<g clip-path="url(#clip1_759_63388)">
<path d="M38 152C38 148.686 40.6863 146 44 146H262C265.314 146 268 148.686 268 152V161C268 164.314 265.314 167 262 167H44C40.6863 167 38 164.314 38 161V152Z" fill="#F2F2F2"/>
<path d="M38 181C38 177.686 40.6863 175 44 175H359C362.314 175 365 177.686 365 181V206C365 209.314 362.314 212 359 212H44C40.6863 212 38 209.314 38 206V181Z" fill="#F2F2F2"/>
<path d="M38 226C38 222.686 40.6863 220 44 220H359C362.314 220 365 222.686 365 226V251C365 254.314 362.314 257 359 257H44C40.6863 257 38 254.314 38 251V226Z" fill="#F2F2F2"/>
</g>
<path d="M38 287C38 283.686 40.6863 281 44 281H262C265.314 281 268 283.686 268 287V296C268 299.314 265.314 302 262 302H44C40.6863 302 38 299.314 38 296V287Z" fill="#F2F2F2"/>
<path d="M38 316C38 312.686 40.6863 310 44 310H359C362.314 310 365 312.686 365 316V341C365 344.314 362.314 347 359 347H44C40.6863 347 38 344.314 38 341V316Z" fill="#F2F2F2"/>
<path d="M38 361C38 357.686 40.6863 355 44 355H359C362.314 355 365 357.686 365 361V386C365 389.314 362.314 392 359 392H44C40.6863 392 38 389.314 38 386V361Z" fill="#F2F2F2"/>
<path d="M38 406C38 402.686 40.6863 400 44 400H359C362.314 400 365 402.686 365 406V431C365 434.314 362.314 437 359 437H44C40.6863 437 38 434.314 38 431V406Z" fill="#F2F2F2"/>
</g>
<defs>
<clipPath id="clip0_759_63388">
<rect width="403" height="406" fill="white"/>
</clipPath>
<clipPath id="clip1_759_63388">
<rect width="327" height="111" fill="white" transform="translate(38 146)"/>
</clipPath>
</defs>
</svg>
