<svg width="403" height="406" viewBox="0 0 403 406" fill="none" xmlns="http://www.w3.org/2000/svg">
<g clip-path="url(#clip0_759_63388)">
<rect width="403" height="406" fill="white"/>
<rect width="375" height="960" transform="translate(14)" fill="white"/>
<path fill-rule="evenodd" clip-rule="evenodd" d="M57.8329 46.9224L58.4226 46.3327C58.7482 46.0071 58.7482 45.4792 58.4226 45.1533L55.7692 42.4999L58.4226 39.8465C58.7482 39.521 58.7482 38.993 58.4226 38.6672L57.8329 38.0775C57.5073 37.7518 56.9794 37.7518 56.6535 38.0775L54.0002 40.7308L51.3468 38.0775C51.0212 37.7518 50.4933 37.7518 50.1674 38.0775L49.5777 38.6672C49.2521 38.9928 49.2521 39.5207 49.5777 39.8465L52.2311 42.4999L49.5777 45.1533C49.2521 45.4789 49.2521 46.0068 49.5777 46.3327L50.1674 46.9224C50.493 47.248 51.0212 47.248 51.3468 46.9224L54.0002 44.269L56.6535 46.9224C56.9791 47.248 57.5073 47.248 57.8329 46.9224Z" fill="#1F1F1F"/>
<path d="M270 42.5C270 32.2827 278.283 24 288.5 24H358.5C368.717 24 377 32.2827 377 42.5C377 52.7173 368.717 61 358.5 61H288.5C278.283 61 270 52.7173 270 42.5Z" fill="#0066CC"/>
<path d="M295.246 47V37.2H296.366L302.106 45.32L302.078 37.2H303.1V47H302.12L296.24 38.698L296.268 47H295.246ZM308.48 47.14C307.845 47.14 307.271 46.986 306.758 46.678C306.244 46.3607 305.838 45.936 305.54 45.404C305.241 44.8627 305.092 44.256 305.092 43.584C305.092 42.912 305.232 42.31 305.512 41.778C305.801 41.246 306.188 40.826 306.674 40.518C307.159 40.21 307.7 40.056 308.298 40.056C308.904 40.056 309.441 40.21 309.908 40.518C310.384 40.8167 310.757 41.2273 311.028 41.75C311.308 42.2633 311.448 42.8467 311.448 43.5V43.808H306.086C306.123 44.2747 306.249 44.6947 306.464 45.068C306.688 45.432 306.977 45.7213 307.332 45.936C307.696 46.1413 308.092 46.244 308.522 46.244C308.876 46.244 309.217 46.1833 309.544 46.062C309.88 45.9313 310.164 45.7587 310.398 45.544L311.042 46.23C310.65 46.538 310.244 46.7667 309.824 46.916C309.404 47.0653 308.956 47.14 308.48 47.14ZM306.114 43.08H310.44C310.393 42.6693 310.267 42.3053 310.062 41.988C309.866 41.6613 309.614 41.4047 309.306 41.218C309.007 41.0313 308.671 40.938 308.298 40.938C307.924 40.938 307.584 41.0313 307.276 41.218C306.968 41.3953 306.711 41.6473 306.506 41.974C306.31 42.2913 306.179 42.66 306.114 43.08ZM314.274 47L312.398 40.168H313.392L314.82 45.628L316.458 40.168H317.368L319.006 45.628L320.42 40.168H321.386L319.524 47H318.53L316.906 41.484L315.282 47H314.274ZM329.165 47.112C328.53 47.112 327.956 46.958 327.443 46.65C326.939 46.3327 326.537 45.908 326.239 45.376C325.94 44.8347 325.791 44.2373 325.791 43.584C325.791 42.9213 325.94 42.324 326.239 41.792C326.537 41.26 326.939 40.84 327.443 40.532C327.956 40.2147 328.53 40.056 329.165 40.056C329.669 40.056 330.149 40.1493 330.607 40.336C331.064 40.5227 331.461 40.784 331.797 41.12L331.139 41.834C330.896 41.5633 330.602 41.3533 330.257 41.204C329.911 41.0547 329.561 40.98 329.207 40.98C328.759 40.98 328.353 41.0967 327.989 41.33C327.634 41.5633 327.349 41.876 327.135 42.268C326.92 42.66 326.813 43.0987 326.813 43.584C326.813 44.0693 326.92 44.508 327.135 44.9C327.349 45.292 327.634 45.6047 327.989 45.838C328.353 46.0713 328.759 46.188 329.207 46.188C329.561 46.188 329.911 46.1133 330.257 45.964C330.602 45.8053 330.896 45.5953 331.139 45.334L331.797 46.048C331.461 46.384 331.064 46.6453 330.607 46.832C330.149 47.0187 329.669 47.112 329.165 47.112ZM333.222 47V36.892L334.244 36.682V41.274C334.505 40.8633 334.818 40.56 335.182 40.364C335.546 40.1587 335.957 40.056 336.414 40.056C336.909 40.056 337.338 40.1633 337.702 40.378C338.075 40.5833 338.365 40.8773 338.57 41.26C338.785 41.6333 338.892 42.072 338.892 42.576V47H337.87V42.87C337.87 42.2633 337.702 41.7873 337.366 41.442C337.039 41.0873 336.596 40.91 336.036 40.91C335.663 40.91 335.322 40.9987 335.014 41.176C334.706 41.3533 334.449 41.6147 334.244 41.96V47H333.222ZM343.06 47.126C342.575 47.126 342.146 47.0373 341.772 46.86C341.399 46.6827 341.105 46.44 340.89 46.132C340.685 45.8147 340.582 45.4507 340.582 45.04C340.582 44.6293 340.69 44.2747 340.904 43.976C341.119 43.668 341.418 43.43 341.8 43.262C342.183 43.094 342.631 43.01 343.144 43.01C343.536 43.01 343.905 43.052 344.25 43.136C344.605 43.22 344.932 43.3553 345.23 43.542V42.604C345.23 42.044 345.081 41.624 344.782 41.344C344.484 41.0547 344.045 40.91 343.466 40.91C343.149 40.91 342.822 40.9567 342.486 41.05C342.16 41.1433 341.796 41.2927 341.394 41.498L341.016 40.714C341.931 40.2753 342.79 40.056 343.592 40.056C344.442 40.056 345.095 40.266 345.552 40.686C346.01 41.0967 346.238 41.6893 346.238 42.464V47H345.23V46.202C344.932 46.51 344.6 46.7433 344.236 46.902C343.872 47.0513 343.48 47.126 343.06 47.126ZM341.562 45.012C341.562 45.4133 341.716 45.7353 342.024 45.978C342.342 46.2207 342.757 46.342 343.27 46.342C343.653 46.342 344.003 46.2767 344.32 46.146C344.647 46.0153 344.95 45.8193 345.23 45.558V44.242C344.941 44.074 344.642 43.9527 344.334 43.878C344.026 43.794 343.681 43.752 343.298 43.752C342.776 43.752 342.356 43.8687 342.038 44.102C341.721 44.326 341.562 44.6293 341.562 45.012ZM350.715 47.14C350.127 47.14 349.679 47 349.371 46.72C349.072 46.4307 348.923 46.0153 348.923 45.474V41.008H347.509V40.168H348.923V38.292L349.945 38.054V40.168H351.905V41.008H349.945V45.208C349.945 45.572 350.019 45.8333 350.169 45.992C350.327 46.1507 350.584 46.23 350.939 46.23C351.116 46.23 351.275 46.216 351.415 46.188C351.555 46.16 351.718 46.1133 351.905 46.048V46.958C351.718 47.0233 351.522 47.07 351.317 47.098C351.111 47.126 350.911 47.14 350.715 47.14Z" fill="white"/>
<path d="M38 91C38 87.6863 40.6863 85 44 85H368C371.314 85 374 87.6863 374 91V116C374 119.314 371.314 122 368 122H44C40.6863 122 38 119.314 38 116V91Z" fill="#F2F2F2"/>
<rect width="327" height="651" transform="translate(38 146)" fill="white"/>
<g clip-path="url(#clip1_759_63388)">
<path d="M38 152C38 148.686 40.6863 146 44 146H262C265.314 146 268 148.686 268 152V161C268 164.314 265.314 167 262 167H44C40.6863 167 38 164.314 38 161V152Z" fill="#F2F2F2"/>
<path d="M38 181C38 177.686 40.6863 175 44 175H359C362.314 175 365 177.686 365 181V206C365 209.314 362.314 212 359 212H44C40.6863 212 38 209.314 38 206V181Z" fill="#F2F2F2"/>
<path d="M38 226C38 222.686 40.6863 220 44 220H359C362.314 220 365 222.686 365 226V251C365 254.314 362.314 257 359 257H44C40.6863 257 38 254.314 38 251V226Z" fill="#F2F2F2"/>
</g>
<path d="M38 287C38 283.686 40.6863 281 44 281H262C265.314 281 268 283.686 268 287V296C268 299.314 265.314 302 262 302H44C40.6863 302 38 299.314 38 296V287Z" fill="#F2F2F2"/>
<path d="M38 316C38 312.686 40.6863 310 44 310H359C362.314 310 365 312.686 365 316V341C365 344.314 362.314 347 359 347H44C40.6863 347 38 344.314 38 341V316Z" fill="#F2F2F2"/>
<path d="M38 361C38 357.686 40.6863 355 44 355H359C362.314 355 365 357.686 365 361V386C365 389.314 362.314 392 359 392H44C40.6863 392 38 389.314 38 386V361Z" fill="#F2F2F2"/>
<path d="M38 406C38 402.686 40.6863 400 44 400H359C362.314 400 365 402.686 365 406V431C365 434.314 362.314 437 359 437H44C40.6863 437 38 434.314 38 431V406Z" fill="#F2F2F2"/>
</g>
<defs>
<clipPath id="clip0_759_63388">
<rect width="403" height="406" fill="white"/>
</clipPath>
<clipPath id="clip1_759_63388">
<rect width="327" height="111" fill="white" transform="translate(38 146)"/>
</clipPath>
</defs>
</svg>
