<svg width="356" height="82" viewBox="0 0 356 82" fill="none" xmlns="http://www.w3.org/2000/svg">
<g clip-path="url(#clip0_875_73334)">
<rect width="356" height="82" fill="white"/>
<rect width="603" height="69" transform="translate(-255 7)" fill="#F2F2F2"/>
<path d="M6 29C6 25.6863 8.68629 23 12 23H50C53.3137 23 56 25.6863 56 29V54C56 57.3137 53.3137 60 50 60H12C8.68629 60 6 57.3137 6 54V29Z" fill="#0066CC"/>
<mask id="path-2-inside-1_875_73334" fill="white">
<path d="M6 29C6 25.6863 8.68629 23 12 23H50C53.3137 23 56 25.6863 56 29V54C56 57.3137 53.3137 60 50 60H12C8.68629 60 6 57.3137 6 54V29Z"/>
</mask>
<path d="M6 29C6 25.6863 8.68629 23 12 23H50C53.3137 23 56 25.6863 56 29V54C56 57.3137 53.3137 60 50 60H12C8.68629 60 6 57.3137 6 54V29Z" fill="white"/>
<path d="M12 24H50V22H12V24ZM55 29V54H57V29H55ZM50 59H12V61H50V59ZM7 54V29H5V54H7ZM12 59C9.23858 59 7 56.7614 7 54H5C5 57.866 8.13401 61 12 61V59ZM55 54C55 56.7614 52.7614 59 50 59V61C53.866 61 57 57.866 57 54H55ZM50 24C52.7614 24 55 26.2386 55 29H57C57 25.134 53.866 22 50 22V24ZM12 22C8.13401 22 5 25.134 5 29H7C7 26.2386 9.23858 24 12 24V22Z" fill="#C7C7C7" mask="url(#path-2-inside-1_875_73334)"/>
<path fill-rule="evenodd" clip-rule="evenodd" d="M27.5388 46.375C28.0616 46.375 28.4138 45.9484 28.4165 45.5C28.4179 45.2935 28.3451 45.0824 28.1811 44.9063C27.6528 44.3387 26.6643 43.4847 26.6643 40.6875C26.6643 38.5629 25.1746 36.8621 23.166 36.4448V35.875C23.166 35.3918 22.7744 35 22.2915 35C21.8086 35 21.417 35.3918 21.417 35.875V36.4448C19.4084 36.8621 17.9187 38.5629 17.9187 40.6875C17.9187 43.4847 16.9302 44.3387 16.402 44.9063C16.2379 45.0827 16.1652 45.2935 16.1665 45.5C16.1695 45.9484 16.5215 46.375 17.0442 46.375H27.5388ZM22.2915 49C23.2573 49 24.0407 48.2166 24.0407 47.25H20.5423C20.5423 48.2166 21.3257 49 22.2915 49Z" fill="#1F1F1F"/>
<path d="M36.3744 46V37.292L34.8064 37.992V37.068L36.7524 36.2H37.3824V46H36.3744ZM43.1454 46.154C42.3987 46.154 41.7361 45.9393 41.1574 45.51C40.5881 45.0807 40.1401 44.488 39.8134 43.732C39.4867 42.9667 39.3234 42.0893 39.3234 41.1C39.3234 40.1013 39.4867 39.224 39.8134 38.468C40.1401 37.712 40.5881 37.1193 41.1574 36.69C41.7361 36.2607 42.3987 36.046 43.1454 36.046C43.8921 36.046 44.5501 36.2607 45.1194 36.69C45.6981 37.1193 46.1507 37.712 46.4774 38.468C46.8041 39.224 46.9674 40.1013 46.9674 41.1C46.9674 42.0893 46.8041 42.9667 46.4774 43.732C46.1507 44.488 45.6981 45.0807 45.1194 45.51C44.5501 45.9393 43.8921 46.154 43.1454 46.154ZM43.1454 45.244C43.7147 45.244 44.2047 45.076 44.6154 44.74C45.0354 44.3947 45.3621 43.914 45.5954 43.298C45.8287 42.6727 45.9454 41.94 45.9454 41.1C45.9454 40.26 45.8287 39.532 45.5954 38.916C45.3621 38.2907 45.0354 37.81 44.6154 37.474C44.2047 37.1287 43.7147 36.956 43.1454 36.956C42.5854 36.956 42.0954 37.1287 41.6754 37.474C41.2554 37.81 40.9287 38.2907 40.6954 38.916C40.4621 39.532 40.3454 40.26 40.3454 41.1C40.3454 41.94 40.4621 42.6727 40.6954 43.298C40.9287 43.914 41.2554 44.3947 41.6754 44.74C42.0954 45.076 42.5854 45.244 43.1454 45.244Z" fill="#151515"/>
<path d="M64.5 29C64.5 25.9624 66.9624 23.5 70 23.5H95C98.0376 23.5 100.5 25.9624 100.5 29V54C100.5 57.0376 98.0376 59.5 95 59.5H70C66.9624 59.5 64.5 57.0376 64.5 54V29Z" fill="white"/>
<path d="M64.5 29C64.5 25.9624 66.9624 23.5 70 23.5H95C98.0376 23.5 100.5 25.9624 100.5 29V54C100.5 57.0376 98.0376 59.5 95 59.5H70C66.9624 59.5 64.5 57.0376 64.5 54V29Z" stroke="#C7C7C7"/>
<path fill-rule="evenodd" clip-rule="evenodd" d="M84.8359 48.8306C84.9913 48.7968 85.1015 48.6584 85.1015 48.5004V47.1117C85.7288 46.8887 86.3109 46.5528 86.8195 46.1209L88.0232 46.8153C88.1617 46.8943 88.334 46.8689 88.4414 46.7504C89.1393 45.9968 89.6734 45.0879 89.987 44.0802C90.0294 43.925 89.9672 43.7613 89.8288 43.6823L88.6251 42.9879C88.7466 42.3331 88.7466 41.6613 88.6251 41.0065L89.8288 40.3121C89.9672 40.2331 90.0294 40.0694 89.9842 39.9169C89.6706 38.9121 89.1365 38.0032 88.4386 37.2468C88.3312 37.1311 88.156 37.1028 88.0204 37.1819L86.8167 37.8762C86.3109 37.4415 85.7288 37.1057 85.0987 36.8855V35.4996C85.0987 35.3416 84.9885 35.2032 84.8331 35.1694C83.7961 34.9379 82.7336 34.9492 81.7475 35.1694C81.5921 35.2032 81.4819 35.3416 81.4819 35.4996V36.8883C80.8546 37.1113 80.2725 37.4472 79.7639 37.879L78.563 37.1847C78.4246 37.1057 78.2522 37.1311 78.1448 37.2496C77.4469 38.0032 76.9128 38.9121 76.5992 39.9198C76.5512 40.0722 76.6162 40.2359 76.7546 40.3149L77.9583 41.0093C77.8368 41.6641 77.8368 42.3359 77.9583 42.9907L76.7546 43.6851C76.6162 43.7641 76.554 43.9278 76.5992 44.0802C76.9128 45.0851 77.4469 45.9939 78.1448 46.7504C78.2522 46.8661 78.4274 46.8943 78.563 46.8153L79.7667 46.1209C80.2725 46.5556 80.8546 46.8915 81.4847 47.1117V48.5004C81.4847 48.6584 81.5949 48.7968 81.7503 48.8306C82.7873 49.0621 83.8498 49.0508 84.8359 48.8306ZM83.2903 44.2552C82.0442 44.2552 81.0298 43.2419 81.0298 41.9972C81.0298 40.7524 82.0442 39.7391 83.2903 39.7391C84.5364 39.7391 85.5508 40.7524 85.5508 41.9972C85.5508 43.2419 84.5364 44.2552 83.2903 44.2552Z" fill="#1F1F1F"/>
<path d="M109 29C109 25.6863 111.686 23 115 23H153C156.314 23 159 25.6863 159 29V54C159 57.3137 156.314 60 153 60H115C111.686 60 109 57.3137 109 54V29Z" fill="#0066CC"/>
<path d="M109 29C109 25.6863 111.686 23 115 23H153C156.314 23 159 25.6863 159 29V54C159 57.3137 156.314 60 153 60H115C111.686 60 109 57.3137 109 54V29Z" fill="#0066CC"/>
<path fill-rule="evenodd" clip-rule="evenodd" d="M131.44 47.6376C131.663 47.6376 131.865 47.5039 131.955 47.2974C132.042 47.0908 132.001 46.8526 131.848 46.6898C131.838 46.6825 131.301 46.1041 130.929 45.358C131.597 44.6994 131.998 43.8731 131.998 42.9715C131.998 41.0273 130.139 39.4209 127.716 39.1341C126.951 37.7343 125.152 36.75 123.055 36.75C120.263 36.75 118 38.4901 118 40.6384C118 41.5376 118.401 42.3639 119.069 43.0249C118.698 43.771 118.163 44.3494 118.153 44.3592C118 44.522 117.956 44.7601 118.046 44.9667C118.134 45.1733 118.338 45.307 118.562 45.307C119.862 45.307 120.912 44.8161 121.604 44.364C121.828 44.4151 122.059 44.4539 122.294 44.4831C123.058 45.8781 124.849 46.8599 126.944 46.8599C127.449 46.8599 127.935 46.8016 128.397 46.6947C129.089 47.1442 130.137 47.6376 131.44 47.6376ZM119.92 43.9047C119.986 43.7905 120.051 43.669 120.114 43.545L120.491 42.7892L119.888 42.1938C119.56 41.8681 119.167 41.3359 119.167 40.6384C119.167 39.1633 120.948 37.9165 123.055 37.9165C125.162 37.9165 126.944 39.1633 126.944 40.6384C126.944 42.1136 125.162 43.3603 123.055 43.3603C122.654 43.3603 122.253 43.3141 121.864 43.2242L121.383 43.1149L120.967 43.3846C120.625 43.6058 120.275 43.7808 119.92 43.9047ZM130.081 46.2353C129.726 46.1114 129.376 45.9364 129.034 45.7153L128.618 45.4455L128.134 45.5573C127.746 45.6472 127.345 45.6934 126.944 45.6934C125.631 45.6934 124.46 45.2049 123.753 44.4855C126.214 44.2231 128.11 42.6045 128.11 40.6384C128.11 40.5558 128.1 40.4756 128.093 40.3954C129.658 40.7478 130.832 41.7758 130.832 42.9715C130.832 43.669 130.438 44.2012 130.11 44.5269L129.51 45.1198L129.887 45.8756C129.95 45.9996 130.015 46.1211 130.081 46.2353Z" fill="white"/>
<path d="M139.374 46V37.292L137.806 37.992V37.068L139.752 36.2H140.382V46H139.374ZM146.145 46.154C145.399 46.154 144.736 45.9393 144.157 45.51C143.588 45.0807 143.14 44.488 142.813 43.732C142.487 42.9667 142.323 42.0893 142.323 41.1C142.323 40.1013 142.487 39.224 142.813 38.468C143.14 37.712 143.588 37.1193 144.157 36.69C144.736 36.2607 145.399 36.046 146.145 36.046C146.892 36.046 147.55 36.2607 148.119 36.69C148.698 37.1193 149.151 37.712 149.477 38.468C149.804 39.224 149.967 40.1013 149.967 41.1C149.967 42.0893 149.804 42.9667 149.477 43.732C149.151 44.488 148.698 45.0807 148.119 45.51C147.55 45.9393 146.892 46.154 146.145 46.154ZM146.145 45.244C146.715 45.244 147.205 45.076 147.615 44.74C148.035 44.3947 148.362 43.914 148.595 43.298C148.829 42.6727 148.945 41.94 148.945 41.1C148.945 40.26 148.829 39.532 148.595 38.916C148.362 38.2907 148.035 37.81 147.615 37.474C147.205 37.1287 146.715 36.956 146.145 36.956C145.585 36.956 145.095 37.1287 144.675 37.474C144.255 37.81 143.929 38.2907 143.695 38.916C143.462 39.532 143.345 40.26 143.345 41.1C143.345 41.94 143.462 42.6727 143.695 43.298C143.929 43.914 144.255 44.3947 144.675 44.74C145.095 45.076 145.585 45.244 146.145 45.244Z" fill="white"/>
<mask id="path-12-inside-2_875_73334" fill="white">
<path d="M167 29C167 25.6863 169.686 23 173 23H318C321.314 23 324 25.6863 324 29V54C324 57.3137 321.314 60 318 60H173C169.686 60 167 57.3137 167 54V29Z"/>
</mask>
<path d="M167 29C167 25.6863 169.686 23 173 23H318C321.314 23 324 25.6863 324 29V54C324 57.3137 321.314 60 318 60H173C169.686 60 167 57.3137 167 54V29Z" fill="white"/>
<path d="M173 24H318V22H173V24ZM323 29V54H325V29H323ZM318 59H173V61H318V59ZM168 54V29H166V54H168ZM173 59C170.239 59 168 56.7614 168 54H166C166 57.866 169.134 61 173 61V59ZM323 54C323 56.7614 320.761 59 318 59V61C321.866 61 325 57.866 325 54H323ZM318 24C320.761 24 323 26.2386 323 29H325C325 25.134 321.866 22 318 22V24ZM173 22C169.134 22 166 25.134 166 29H168C168 26.2386 170.239 24 173 24V22Z" fill="#C7C7C7" mask="url(#path-12-inside-2_875_73334)"/>
<g clip-path="url(#clip1_875_73334)">
<circle cx="195" cy="41.5" r="12" fill="#F2F2F2"/>
<mask id="mask0_875_73334" style="mask-type:luminance" maskUnits="userSpaceOnUse" x="183" y="29" width="24" height="25">
<circle cx="195" cy="41.5" r="12" fill="white"/>
</mask>
<g mask="url(#mask0_875_73334)">
<path fill-rule="evenodd" clip-rule="evenodd" d="M194.762 42.9037C192.429 42.9037 190.496 40.971 190.496 38.6385C190.496 36.306 192.429 34.3733 194.762 34.3733C197.096 34.3733 199.029 36.306 199.029 38.6385C199.029 40.971 197.162 42.9037 194.762 42.9037Z" fill="#C7C7C7"/>
<path d="M191.829 53.4925V49.0273C190.496 49.2939 189.896 49.9604 189.762 51.3599L189.696 53.4925H191.829Z" fill="#C7C7C7"/>
<path d="M189.696 53.5L189.762 51.3674C189.896 49.9679 190.496 49.3015 191.829 49.0349V53.5H198.096V49.0349C199.429 49.3015 200.029 49.9679 200.162 51.3674L200.229 53.5H203.362C203.096 50.9009 202.496 47.5021 201.429 46.1692C200.696 45.2362 199.896 44.7031 199.096 44.4365C198.296 44.1699 197.896 44.0366 194.896 44.0366C191.896 44.0366 190.829 44.5031 190.829 44.5031C190.029 44.7697 189.229 45.3028 188.562 46.2359C187.429 47.5021 186.829 50.9675 186.562 53.5H189.696Z" fill="#C7C7C7"/>
<path d="M200.229 53.4925L200.162 51.3599C200.029 49.9604 199.429 49.2939 198.096 49.0273V53.4925H200.229Z" fill="#C7C7C7"/>
<path d="M206.5 41.4959C206.5 47.8447 201.351 52.9918 195 52.9918C188.649 52.9918 183.5 47.8447 183.5 41.4959C183.5 35.147 188.649 30 195 30C201.351 30 206.5 35.147 206.5 41.4959Z" stroke="#C7C7C7"/>
</g>
</g>
<path d="M219.984 46.154C219.181 46.154 218.481 45.9813 217.884 45.636C217.296 45.2813 216.843 44.782 216.526 44.138C216.209 43.494 216.05 42.7333 216.05 41.856V36.2H217.128V41.856C217.128 42.528 217.245 43.1113 217.478 43.606C217.711 44.1007 218.043 44.488 218.472 44.768C218.901 45.0387 219.405 45.174 219.984 45.174C220.563 45.174 221.067 45.0387 221.496 44.768C221.925 44.488 222.257 44.1007 222.49 43.606C222.723 43.1113 222.84 42.528 222.84 41.856V36.2H223.918V41.856C223.918 42.7333 223.759 43.494 223.442 44.138C223.125 44.782 222.672 45.2813 222.084 45.636C221.496 45.9813 220.796 46.154 219.984 46.154ZM228.199 46.14C227.639 46.14 227.121 46.056 226.645 45.888C226.169 45.7107 225.763 45.4587 225.427 45.132L225.973 44.46C226.384 44.7587 226.762 44.978 227.107 45.118C227.452 45.2487 227.807 45.314 228.171 45.314C228.666 45.314 229.076 45.1973 229.403 44.964C229.73 44.7307 229.893 44.432 229.893 44.068C229.893 43.788 229.795 43.5687 229.599 43.41C229.412 43.2513 229.1 43.13 228.661 43.046L227.541 42.85C226.878 42.7287 226.388 42.5233 226.071 42.234C225.763 41.9447 225.609 41.5527 225.609 41.058C225.609 40.666 225.712 40.3207 225.917 40.022C226.132 39.7233 226.426 39.49 226.799 39.322C227.172 39.1447 227.597 39.056 228.073 39.056C228.54 39.056 228.983 39.126 229.403 39.266C229.823 39.3967 230.248 39.6113 230.677 39.91L230.173 40.624C229.818 40.372 229.464 40.19 229.109 40.078C228.754 39.9567 228.395 39.896 228.031 39.896C227.583 39.896 227.224 39.994 226.953 40.19C226.682 40.386 226.547 40.652 226.547 40.988C226.547 41.268 226.631 41.4827 226.799 41.632C226.976 41.7813 227.284 41.8933 227.723 41.968L228.871 42.178C229.562 42.2993 230.066 42.5093 230.383 42.808C230.7 43.1067 230.859 43.508 230.859 44.012C230.859 44.4133 230.742 44.7773 230.509 45.104C230.276 45.4213 229.958 45.6733 229.557 45.86C229.156 46.0467 228.703 46.14 228.199 46.14ZM235.564 46.14C234.929 46.14 234.355 45.986 233.842 45.678C233.328 45.3607 232.922 44.936 232.624 44.404C232.325 43.8627 232.176 43.256 232.176 42.584C232.176 41.912 232.316 41.31 232.596 40.778C232.885 40.246 233.272 39.826 233.758 39.518C234.243 39.21 234.784 39.056 235.382 39.056C235.988 39.056 236.525 39.21 236.992 39.518C237.468 39.8167 237.841 40.2273 238.112 40.75C238.392 41.2633 238.532 41.8467 238.532 42.5V42.808H233.17C233.207 43.2747 233.333 43.6947 233.548 44.068C233.772 44.432 234.061 44.7213 234.416 44.936C234.78 45.1413 235.176 45.244 235.606 45.244C235.96 45.244 236.301 45.1833 236.628 45.062C236.964 44.9313 237.248 44.7587 237.482 44.544L238.126 45.23C237.734 45.538 237.328 45.7667 236.908 45.916C236.488 46.0653 236.04 46.14 235.564 46.14ZM233.198 42.08H237.524C237.477 41.6693 237.351 41.3053 237.146 40.988C236.95 40.6613 236.698 40.4047 236.39 40.218C236.091 40.0313 235.755 39.938 235.382 39.938C235.008 39.938 234.668 40.0313 234.36 40.218C234.052 40.3953 233.795 40.6473 233.59 40.974C233.394 41.2913 233.263 41.66 233.198 42.08ZM240.277 46V39.168H241.299V40.568C241.476 40.092 241.728 39.7233 242.055 39.462C242.391 39.1913 242.773 39.056 243.203 39.056C243.324 39.056 243.436 39.0653 243.539 39.084C243.641 39.0933 243.744 39.1167 243.847 39.154V40.078C243.735 40.0407 243.613 40.0127 243.483 39.994C243.361 39.966 243.245 39.952 243.133 39.952C242.713 39.952 242.344 40.0733 242.027 40.316C241.719 40.5587 241.476 40.8993 241.299 41.338V46H240.277ZM245.198 46V39.168H246.22V40.274C246.482 39.8633 246.794 39.56 247.158 39.364C247.522 39.1587 247.933 39.056 248.39 39.056C248.885 39.056 249.314 39.1633 249.678 39.378C250.052 39.5833 250.341 39.8773 250.546 40.26C250.761 40.6333 250.868 41.072 250.868 41.576V46H249.846V41.87C249.846 41.2633 249.678 40.7873 249.342 40.442C249.016 40.0873 248.572 39.91 248.012 39.91C247.639 39.91 247.298 39.9987 246.99 40.176C246.682 40.3533 246.426 40.6147 246.22 40.96V46H245.198ZM255.037 46.126C254.552 46.126 254.122 46.0373 253.749 45.86C253.376 45.6827 253.082 45.44 252.867 45.132C252.662 44.8147 252.559 44.4507 252.559 44.04C252.559 43.6293 252.666 43.2747 252.881 42.976C253.096 42.668 253.394 42.43 253.777 42.262C254.16 42.094 254.608 42.01 255.121 42.01C255.513 42.01 255.882 42.052 256.227 42.136C256.582 42.22 256.908 42.3553 257.207 42.542V41.604C257.207 41.044 257.058 40.624 256.759 40.344C256.46 40.0547 256.022 39.91 255.443 39.91C255.126 39.91 254.799 39.9567 254.463 40.05C254.136 40.1433 253.772 40.2927 253.371 40.498L252.993 39.714C253.908 39.2753 254.766 39.056 255.569 39.056C256.418 39.056 257.072 39.266 257.529 39.686C257.986 40.0967 258.215 40.6893 258.215 41.464V46H257.207V45.202C256.908 45.51 256.577 45.7433 256.213 45.902C255.849 46.0513 255.457 46.126 255.037 46.126ZM253.539 44.012C253.539 44.4133 253.693 44.7353 254.001 44.978C254.318 45.2207 254.734 45.342 255.247 45.342C255.63 45.342 255.98 45.2767 256.297 45.146C256.624 45.0153 256.927 44.8193 257.207 44.558V43.242C256.918 43.074 256.619 42.9527 256.311 42.878C256.003 42.794 255.658 42.752 255.275 42.752C254.752 42.752 254.332 42.8687 254.015 43.102C253.698 43.326 253.539 43.6293 253.539 44.012ZM260.292 46V39.168H261.314V40.232C261.576 39.84 261.874 39.546 262.21 39.35C262.546 39.154 262.924 39.056 263.344 39.056C263.83 39.056 264.254 39.1773 264.618 39.42C264.982 39.6533 265.258 39.9753 265.444 40.386C265.715 39.9473 266.037 39.616 266.41 39.392C266.793 39.168 267.232 39.056 267.726 39.056C268.184 39.056 268.585 39.1633 268.93 39.378C269.285 39.5927 269.56 39.8913 269.756 40.274C269.952 40.6473 270.05 41.086 270.05 41.59V46H269.028V41.842C269.028 41.2447 268.879 40.7733 268.58 40.428C268.282 40.0827 267.871 39.91 267.348 39.91C266.994 39.91 266.672 39.9987 266.382 40.176C266.102 40.3533 265.855 40.624 265.64 40.988C265.659 41.0813 265.673 41.1793 265.682 41.282C265.692 41.3847 265.696 41.4873 265.696 41.59V46H264.674V41.842C264.674 41.2447 264.52 40.7733 264.212 40.428C263.914 40.0827 263.503 39.91 262.98 39.91C262.28 39.91 261.725 40.246 261.314 40.918V46H260.292ZM275.198 46.14C274.564 46.14 273.99 45.986 273.476 45.678C272.963 45.3607 272.557 44.936 272.258 44.404C271.96 43.8627 271.81 43.256 271.81 42.584C271.81 41.912 271.95 41.31 272.23 40.778C272.52 40.246 272.907 39.826 273.392 39.518C273.878 39.21 274.419 39.056 275.016 39.056C275.623 39.056 276.16 39.21 276.626 39.518C277.102 39.8167 277.476 40.2273 277.746 40.75C278.026 41.2633 278.166 41.8467 278.166 42.5V42.808H272.804C272.842 43.2747 272.968 43.6947 273.182 44.068C273.406 44.432 273.696 44.7213 274.05 44.936C274.414 45.1413 274.811 45.244 275.24 45.244C275.595 45.244 275.936 45.1833 276.262 45.062C276.598 44.9313 276.883 44.7587 277.116 44.544L277.76 45.23C277.368 45.538 276.962 45.7667 276.542 45.916C276.122 46.0653 275.674 46.14 275.198 46.14ZM272.832 42.08H277.158C277.112 41.6693 276.986 41.3053 276.78 40.988C276.584 40.6613 276.332 40.4047 276.024 40.218C275.726 40.0313 275.39 39.938 275.016 39.938C274.643 39.938 274.302 40.0313 273.994 40.218C273.686 40.3953 273.43 40.6473 273.224 40.974C273.028 41.2913 272.898 41.66 272.832 42.08Z" fill="#151515"/>
<path fill-rule="evenodd" clip-rule="evenodd" d="M298.389 44.1714L301.921 40.6102C302.267 40.2615 302.023 39.6666 301.534 39.6666H294.466C293.977 39.6666 293.733 40.2615 294.079 40.6102L297.611 44.1714C297.825 44.3872 298.174 44.3872 298.389 44.1714Z" fill="#1F1F1F"/>
</g>
<defs>
<clipPath id="clip0_875_73334">
<rect width="356" height="82" fill="white"/>
</clipPath>
<clipPath id="clip1_875_73334">
<rect width="24" height="24" fill="white" transform="translate(183 29.5)"/>
</clipPath>
</defs>
</svg>
