<svg width="942" height="82" viewBox="0 0 942 82" fill="none" xmlns="http://www.w3.org/2000/svg">
<rect width="942" height="82" fill="white"/>
<rect width="905" height="69" transform="translate(19 13)" fill="#F2F2F2"/>
<path fill-rule="evenodd" clip-rule="evenodd" d="M73.6429 42.3571C74.1163 42.3571 74.5 41.9734 74.5 41.5V39.3571C74.5 38.8837 74.1163 38.5 73.6429 38.5H51.3571C50.8837 38.5 50.5 38.8837 50.5 39.3571V41.5C50.5 41.9734 50.8837 42.3571 51.3571 42.3571H73.6429ZM73.6429 50.9286C74.1163 50.9286 74.5 50.5448 74.5 50.0714V47.9286C74.5 47.4552 74.1163 47.0714 73.6429 47.0714H51.3571C50.8837 47.0714 50.5 47.4552 50.5 47.9286V50.0714C50.5 50.5448 50.8837 50.9286 51.3571 50.9286H73.6429ZM73.6429 59.5C74.1163 59.5 74.5 59.1163 74.5 58.6429V56.5C74.5 56.0266 74.1163 55.6429 73.6429 55.6429H51.3571C50.8837 55.6429 50.5 56.0266 50.5 56.5V58.6429C50.5 59.1163 50.8837 59.5 51.3571 59.5H73.6429Z" fill="#1F1F1F"/>
<g clip-path="url(#clip0_866_67529)">
<path d="M144.241 54.9936V40.2405H152.018C152.987 40.2405 153.848 40.4477 154.6 40.8622C155.351 41.2767 155.945 41.8423 156.38 42.5588C156.816 43.2754 157.034 44.0974 157.034 45.0247C157.034 45.9099 156.816 46.7073 156.38 47.4168C155.945 48.1264 155.348 48.6849 154.589 49.0924C153.83 49.4998 152.973 49.7036 152.018 49.7036H147.866V54.9936H144.241ZM147.866 46.7108H151.596C152.13 46.7108 152.559 46.5562 152.882 46.2471C153.205 45.938 153.367 45.5376 153.367 45.0458C153.367 44.54 153.205 44.129 152.882 43.8129C152.559 43.4967 152.13 43.3386 151.596 43.3386H147.866V46.7108Z" fill="#1F1F1F"/>
<path d="M162.282 55.1834C161.495 55.1834 160.796 55.0359 160.185 54.7408C159.574 54.4458 159.096 54.0383 158.752 53.5184C158.407 52.9985 158.235 52.4014 158.235 51.727C158.235 50.6591 158.639 49.8336 159.447 49.2505C160.255 48.6674 161.383 48.3759 162.83 48.3759C163.701 48.3759 164.544 48.4813 165.359 48.692V48.144C165.359 47.034 164.649 46.479 163.23 46.479C162.387 46.479 161.263 46.7741 159.858 47.3642L158.636 44.8562C160.434 44.0413 162.17 43.6338 163.842 43.6338C165.387 43.6338 166.588 44.0026 167.446 44.7403C168.303 45.4779 168.731 46.5142 168.731 47.849V54.9937H165.359V54.3193C164.909 54.6284 164.435 54.8497 163.936 54.9832C163.438 55.1167 162.886 55.1834 162.282 55.1834ZM161.481 51.6637C161.481 52.015 161.636 52.289 161.945 52.4857C162.254 52.6824 162.682 52.7808 163.23 52.7808C164.073 52.7808 164.783 52.6051 165.359 52.2539V50.8207C164.713 50.6521 164.038 50.5678 163.336 50.5678C162.746 50.5678 162.289 50.6626 161.966 50.8523C161.643 51.042 161.481 51.3125 161.481 51.6637Z" fill="#1F1F1F"/>
<path d="M176.382 55.1412C173.684 55.1412 172.335 53.9609 172.335 51.6004V46.6897H170.08V43.8445H172.335V40.9781L175.75 40.2405V43.8445H178.869V46.6897H175.75V50.926C175.75 51.4178 175.858 51.7655 176.076 51.9692C176.294 52.173 176.677 52.2748 177.225 52.2748C177.731 52.2748 178.243 52.1976 178.763 52.043V54.804C178.454 54.9023 178.061 54.9831 177.583 55.0463C177.105 55.1096 176.705 55.1412 176.382 55.1412Z" fill="#1F1F1F"/>
<path d="M185.824 55.1412C183.126 55.1412 181.777 53.9609 181.777 51.6004V46.6897H179.522V43.8445H181.777V40.9781L185.191 40.2405V43.8445H188.311V46.6897H185.191V50.926C185.191 51.4178 185.3 51.7655 185.518 51.9692C185.736 52.173 186.119 52.2748 186.667 52.2748C187.173 52.2748 187.685 52.1976 188.205 52.043V54.804C187.896 54.9023 187.503 54.9831 187.025 55.0463C186.547 55.1096 186.147 55.1412 185.824 55.1412Z" fill="#1F1F1F"/>
<path d="M195.202 55.2044C194.064 55.2044 193.035 54.948 192.115 54.4351C191.194 53.9223 190.467 53.2303 189.933 52.3592C189.399 51.488 189.132 50.5115 189.132 49.4296C189.132 48.3477 189.389 47.3712 189.902 46.5C190.414 45.6289 191.113 44.9369 191.999 44.4241C192.884 43.9112 193.867 43.6548 194.949 43.6548C196.045 43.6548 197.015 43.9182 197.858 44.4451C198.701 44.972 199.365 45.6921 199.849 46.6054C200.334 47.5187 200.577 48.5655 200.577 49.7457V50.5888H192.631C192.856 51.1086 193.207 51.5337 193.685 51.8639C194.162 52.1941 194.724 52.3592 195.371 52.3592C196.326 52.3592 197.071 52.0781 197.605 51.5161L199.86 53.5183C199.157 54.1085 198.437 54.537 197.7 54.804C196.962 55.0709 196.13 55.2044 195.202 55.2044ZM192.568 48.2072H197.225C197.043 47.6733 196.744 47.2447 196.33 46.9216C195.915 46.5984 195.434 46.4368 194.886 46.4368C194.324 46.4368 193.839 46.5914 193.432 46.9005C193.024 47.2096 192.736 47.6452 192.568 48.2072Z" fill="#1F1F1F"/>
<path d="M202.179 54.9936V43.8445H205.593V44.9615C206.352 44.0482 207.328 43.5916 208.523 43.5916C209.127 43.6056 209.555 43.6969 209.808 43.8655V46.8372C209.33 46.6124 208.79 46.5 208.185 46.5C207.651 46.5 207.156 46.623 206.7 46.8689C206.243 47.1147 205.874 47.4625 205.593 47.9121V54.9936H202.179Z" fill="#1F1F1F"/>
<path d="M211.283 54.9937V43.8445H214.698V44.6033C215.541 43.957 216.538 43.6338 217.69 43.6338C218.561 43.6338 219.331 43.8235 219.998 44.2028C220.666 44.5822 221.189 45.1091 221.568 45.7835C221.948 46.458 222.137 47.2378 222.137 48.123V54.9937H218.723V48.5866C218.723 47.9684 218.54 47.4766 218.175 47.1113C217.81 46.746 217.318 46.5633 216.7 46.5633C215.843 46.5633 215.175 46.8584 214.698 47.4485V54.9937H211.283Z" fill="#1F1F1F"/>
<path d="M224.329 54.9936V40.2405H236.047V43.3808H227.954V46.1417H233.35V49.1767H227.954V54.9936H224.329Z" fill="#1F1F1F"/>
<path d="M237.902 54.9937V40.2405L241.317 39.7136V54.9937H237.902Z" fill="#1F1F1F"/>
<path d="M244.752 59.5461C244.485 59.5461 244.225 59.5355 243.972 59.5145C243.719 59.4934 243.508 59.4618 243.34 59.4196V56.5111C243.621 56.5673 243.972 56.5954 244.394 56.5954C245.49 56.5954 246.227 56.1177 246.607 55.1623V55.1412L242.328 43.8445H246.101L248.567 50.8628L251.433 43.8445H255.121L250.126 55.5627C249.719 56.5322 249.269 57.3085 248.777 57.8916C248.286 58.4747 247.717 58.8962 247.07 59.1562C246.424 59.4161 245.651 59.5461 244.752 59.5461Z" fill="#1F1F1F"/>
<path fill-rule="evenodd" clip-rule="evenodd" d="M110.478 29H133V51.5217H130.587C119.481 51.5217 110.478 42.5188 110.478 31.413V29Z" fill="#0066CC"/>
<path fill-rule="evenodd" clip-rule="evenodd" d="M133 29.8043L111.283 66H128.317C130.903 66 133 63.9031 133 61.3164V29.8043Z" fill="url(#paint0_linear_866_67529)"/>
<path fill-rule="evenodd" clip-rule="evenodd" d="M132.196 29L96.0001 50.7174V33.6836C96.0001 31.0969 98.097 29 100.684 29L132.196 29Z" fill="url(#paint1_linear_866_67529)"/>
</g>
<path d="M595 35C595 31.6863 597.686 29 601 29H639C642.314 29 645 31.6863 645 35V60C645 63.3137 642.314 66 639 66H601C597.686 66 595 63.3137 595 60V35Z" fill="#0066CC"/>
<mask id="path-17-inside-1_866_67529" fill="white">
<path d="M595 35C595 31.6863 597.686 29 601 29H639C642.314 29 645 31.6863 645 35V60C645 63.3137 642.314 66 639 66H601C597.686 66 595 63.3137 595 60V35Z"/>
</mask>
<path d="M595 35C595 31.6863 597.686 29 601 29H639C642.314 29 645 31.6863 645 35V60C645 63.3137 642.314 66 639 66H601C597.686 66 595 63.3137 595 60V35Z" fill="white"/>
<path d="M601 30H639V28H601V30ZM644 35V60H646V35H644ZM639 65H601V67H639V65ZM596 60V35H594V60H596ZM601 65C598.239 65 596 62.7614 596 60H594C594 63.866 597.134 67 601 67V65ZM644 60C644 62.7614 641.761 65 639 65V67C642.866 67 646 63.866 646 60H644ZM639 30C641.761 30 644 32.2386 644 35H646C646 31.134 642.866 28 639 28V30ZM601 28C597.134 28 594 31.134 594 35H596C596 32.2386 598.239 30 601 30V28Z" fill="#C7C7C7" mask="url(#path-17-inside-1_866_67529)"/>
<path fill-rule="evenodd" clip-rule="evenodd" d="M616.539 52.375C617.062 52.375 617.414 51.9484 617.416 51.5C617.418 51.2935 617.345 51.0824 617.181 50.9063C616.653 50.3387 615.664 49.4847 615.664 46.6875C615.664 44.5629 614.175 42.8621 612.166 42.4448V41.875C612.166 41.3918 611.774 41 611.292 41C610.809 41 610.417 41.3918 610.417 41.875V42.4448C608.408 42.8621 606.919 44.5629 606.919 46.6875C606.919 49.4847 605.93 50.3387 605.402 50.9063C605.238 51.0827 605.165 51.2935 605.167 51.5C605.17 51.9484 605.521 52.375 606.044 52.375H616.539ZM611.292 55C612.257 55 613.041 54.2166 613.041 53.25H609.542C609.542 54.2166 610.326 55 611.292 55Z" fill="#1F1F1F"/>
<path d="M625.374 52V43.292L623.806 43.992V43.068L625.752 42.2H626.382V52H625.374ZM632.145 52.154C631.399 52.154 630.736 51.9393 630.157 51.51C629.588 51.0807 629.14 50.488 628.813 49.732C628.487 48.9667 628.323 48.0893 628.323 47.1C628.323 46.1013 628.487 45.224 628.813 44.468C629.14 43.712 629.588 43.1193 630.157 42.69C630.736 42.2607 631.399 42.046 632.145 42.046C632.892 42.046 633.55 42.2607 634.119 42.69C634.698 43.1193 635.151 43.712 635.477 44.468C635.804 45.224 635.967 46.1013 635.967 47.1C635.967 48.0893 635.804 48.9667 635.477 49.732C635.151 50.488 634.698 51.0807 634.119 51.51C633.55 51.9393 632.892 52.154 632.145 52.154ZM632.145 51.244C632.715 51.244 633.205 51.076 633.615 50.74C634.035 50.3947 634.362 49.914 634.595 49.298C634.829 48.6727 634.945 47.94 634.945 47.1C634.945 46.26 634.829 45.532 634.595 44.916C634.362 44.2907 634.035 43.81 633.615 43.474C633.205 43.1287 632.715 42.956 632.145 42.956C631.585 42.956 631.095 43.1287 630.675 43.474C630.255 43.81 629.929 44.2907 629.695 44.916C629.462 45.532 629.345 46.26 629.345 47.1C629.345 47.94 629.462 48.6727 629.695 49.298C629.929 49.914 630.255 50.3947 630.675 50.74C631.095 51.076 631.585 51.244 632.145 51.244Z" fill="#151515"/>
<path d="M659 29.5H684C687.038 29.5 689.5 31.9624 689.5 35V60C689.5 63.0376 687.038 65.5 684 65.5H659C655.962 65.5 653.5 63.0376 653.5 60V35C653.5 31.9624 655.962 29.5 659 29.5Z" fill="white"/>
<path d="M659 29.5H684C687.038 29.5 689.5 31.9624 689.5 35V60C689.5 63.0376 687.038 65.5 684 65.5H659C655.962 65.5 653.5 63.0376 653.5 60V35C653.5 31.9624 655.962 29.5 659 29.5Z" stroke="#C7C7C7"/>
<path fill-rule="evenodd" clip-rule="evenodd" d="M673.836 54.8306C673.991 54.7968 674.102 54.6584 674.102 54.5004V53.1117C674.729 52.8887 675.311 52.5528 675.82 52.1209L677.023 52.8153C677.162 52.8943 677.334 52.8689 677.441 52.7504C678.139 51.9968 678.673 51.0879 678.987 50.0802C679.029 49.925 678.967 49.7613 678.829 49.6823L677.625 48.9879C677.747 48.3331 677.747 47.6613 677.625 47.0065L678.829 46.3121C678.967 46.2331 679.029 46.0694 678.984 45.9169C678.671 44.9121 678.137 44.0032 677.439 43.2468C677.331 43.1311 677.156 43.1028 677.02 43.1819L675.817 43.8762C675.311 43.4415 674.729 43.1057 674.099 42.8855V41.4996C674.099 41.3416 673.988 41.2032 673.833 41.1694C672.796 40.9379 671.734 40.9492 670.748 41.1694C670.592 41.2032 670.482 41.3416 670.482 41.4996V42.8883C669.855 43.1113 669.273 43.4472 668.764 43.879L667.563 43.1847C667.425 43.1057 667.252 43.1311 667.145 43.2496C666.447 44.0032 665.913 44.9121 665.599 45.9198C665.551 46.0722 665.616 46.2359 665.755 46.3149L666.958 47.0093C666.837 47.6641 666.837 48.3359 666.958 48.9907L665.755 49.6851C665.616 49.7641 665.554 49.9278 665.599 50.0802C665.913 51.0851 666.447 51.9939 667.145 52.7504C667.252 52.8661 667.427 52.8943 667.563 52.8153L668.767 52.1209C669.273 52.5556 669.855 52.8915 670.485 53.1117V54.5004C670.485 54.6584 670.595 54.7968 670.75 54.8306C671.787 55.0621 672.85 55.0508 673.836 54.8306ZM672.29 50.2552C671.044 50.2552 670.03 49.2419 670.03 47.9972C670.03 46.7524 671.044 45.7391 672.29 45.7391C673.536 45.7391 674.551 46.7524 674.551 47.9972C674.551 49.2419 673.536 50.2552 672.29 50.2552Z" fill="#1F1F1F"/>
<path d="M704 29.5H729C732.038 29.5 734.5 31.9624 734.5 35V60C734.5 63.0376 732.038 65.5 729 65.5H704C700.962 65.5 698.5 63.0376 698.5 60V35C698.5 31.9624 700.962 29.5 704 29.5Z" fill="white"/>
<path d="M704 29.5H729C732.038 29.5 734.5 31.9624 734.5 35V60C734.5 63.0376 732.038 65.5 729 65.5H704C700.962 65.5 698.5 63.0376 698.5 60V35C698.5 31.9624 700.962 29.5 704 29.5Z" stroke="#4394E5"/>
<path fill-rule="evenodd" clip-rule="evenodd" d="M723.44 53.6376C723.663 53.6376 723.865 53.5039 723.955 53.2974C724.042 53.0908 724.001 52.8526 723.848 52.6898C723.838 52.6825 723.301 52.1041 722.929 51.358C723.597 50.6994 723.998 49.8731 723.998 48.9715C723.998 47.0273 722.139 45.4209 719.716 45.1341C718.951 43.7343 717.152 42.75 715.055 42.75C712.263 42.75 710 44.4901 710 46.6384C710 47.5376 710.401 48.3639 711.069 49.0249C710.698 49.771 710.163 50.3494 710.153 50.3592C710 50.522 709.956 50.7601 710.046 50.9667C710.134 51.1733 710.338 51.307 710.562 51.307C711.862 51.307 712.912 50.8161 713.604 50.364C713.828 50.4151 714.059 50.4539 714.294 50.4831C715.058 51.8781 716.849 52.8599 718.944 52.8599C719.449 52.8599 719.935 52.8016 720.397 52.6947C721.089 53.1442 722.137 53.6376 723.44 53.6376ZM711.92 49.9047C711.986 49.7905 712.051 49.669 712.114 49.545L712.491 48.7892L711.888 48.1938C711.56 47.8681 711.167 47.3359 711.167 46.6384C711.167 45.1633 712.948 43.9165 715.055 43.9165C717.162 43.9165 718.944 45.1633 718.944 46.6384C718.944 48.1136 717.162 49.3603 715.055 49.3603C714.654 49.3603 714.253 49.3141 713.864 49.2242L713.383 49.1149L712.967 49.3846C712.625 49.6058 712.275 49.7808 711.92 49.9047ZM722.081 52.2353C721.726 52.1114 721.376 51.9364 721.034 51.7153L720.618 51.4455L720.134 51.5573C719.746 51.6472 719.345 51.6934 718.944 51.6934C717.631 51.6934 716.46 51.2049 715.753 50.4855C718.214 50.2231 720.11 48.6045 720.11 46.6384C720.11 46.5558 720.1 46.4756 720.093 46.3954C721.658 46.7478 722.832 47.7758 722.832 48.9715C722.832 49.669 722.438 50.2012 722.11 50.5269L721.51 51.1199L721.887 51.8757C721.95 51.9996 722.015 52.1211 722.081 52.2353Z" fill="#1F1F1F"/>
<mask id="path-25-inside-2_866_67529" fill="white">
<path d="M743 35C743 31.6863 745.686 29 749 29H894C897.314 29 900 31.6863 900 35V60C900 63.3137 897.314 66 894 66H749C745.686 66 743 63.3137 743 60V35Z"/>
</mask>
<path d="M743 35C743 31.6863 745.686 29 749 29H894C897.314 29 900 31.6863 900 35V60C900 63.3137 897.314 66 894 66H749C745.686 66 743 63.3137 743 60V35Z" fill="white"/>
<path d="M749 30H894V28H749V30ZM899 35V60H901V35H899ZM894 65H749V67H894V65ZM744 60V35H742V60H744ZM749 65C746.239 65 744 62.7614 744 60H742C742 63.866 745.134 67 749 67V65ZM899 60C899 62.7614 896.761 65 894 65V67C897.866 67 901 63.866 901 60H899ZM894 30C896.761 30 899 32.2386 899 35H901C901 31.134 897.866 28 894 28V30ZM749 28C745.134 28 742 31.134 742 35H744C744 32.2386 746.239 30 749 30V28Z" fill="#C7C7C7" mask="url(#path-25-inside-2_866_67529)"/>
<g clip-path="url(#clip1_866_67529)">
<circle cx="771" cy="47.5" r="12" fill="#F2F2F2"/>
<mask id="mask0_866_67529" style="mask-type:luminance" maskUnits="userSpaceOnUse" x="759" y="35" width="24" height="25">
<circle cx="771" cy="47.5" r="12" fill="white"/>
</mask>
<g mask="url(#mask0_866_67529)">
<path fill-rule="evenodd" clip-rule="evenodd" d="M770.762 48.9037C768.429 48.9037 766.496 46.971 766.496 44.6385C766.496 42.306 768.429 40.3733 770.762 40.3733C773.096 40.3733 775.029 42.306 775.029 44.6385C775.029 46.971 773.162 48.9037 770.762 48.9037Z" fill="#C7C7C7"/>
<path d="M767.829 59.4925V55.0273C766.496 55.2939 765.896 55.9604 765.762 57.3599L765.696 59.4925H767.829Z" fill="#C7C7C7"/>
<path d="M765.696 59.5L765.762 57.3674C765.896 55.9679 766.496 55.3015 767.829 55.0349V59.5H774.096V55.0349C775.429 55.3015 776.029 55.9679 776.162 57.3674L776.229 59.5H779.362C779.096 56.9009 778.496 53.5021 777.429 52.1692C776.696 51.2362 775.896 50.7031 775.096 50.4365C774.296 50.1699 773.896 50.0366 770.896 50.0366C767.896 50.0366 766.829 50.5031 766.829 50.5031C766.029 50.7697 765.229 51.3028 764.562 52.2359C763.429 53.5021 762.829 56.9675 762.562 59.5H765.696Z" fill="#C7C7C7"/>
<path d="M776.229 59.4925L776.162 57.3599C776.029 55.9604 775.429 55.2939 774.096 55.0273V59.4925H776.229Z" fill="#C7C7C7"/>
<path d="M782.5 47.4959C782.5 53.8447 777.351 58.9918 771 58.9918C764.649 58.9918 759.5 53.8447 759.5 47.4959C759.5 41.147 764.649 36 771 36C777.351 36 782.5 41.147 782.5 47.4959Z" stroke="#C7C7C7"/>
</g>
</g>
<path d="M795.984 52.154C795.181 52.154 794.481 51.9813 793.884 51.636C793.296 51.2813 792.843 50.782 792.526 50.138C792.209 49.494 792.05 48.7333 792.05 47.856V42.2H793.128V47.856C793.128 48.528 793.245 49.1113 793.478 49.606C793.711 50.1007 794.043 50.488 794.472 50.768C794.901 51.0387 795.405 51.174 795.984 51.174C796.563 51.174 797.067 51.0387 797.496 50.768C797.925 50.488 798.257 50.1007 798.49 49.606C798.723 49.1113 798.84 48.528 798.84 47.856V42.2H799.918V47.856C799.918 48.7333 799.759 49.494 799.442 50.138C799.125 50.782 798.672 51.2813 798.084 51.636C797.496 51.9813 796.796 52.154 795.984 52.154ZM804.199 52.14C803.639 52.14 803.121 52.056 802.645 51.888C802.169 51.7107 801.763 51.4587 801.427 51.132L801.973 50.46C802.384 50.7587 802.762 50.978 803.107 51.118C803.452 51.2487 803.807 51.314 804.171 51.314C804.666 51.314 805.076 51.1973 805.403 50.964C805.73 50.7307 805.893 50.432 805.893 50.068C805.893 49.788 805.795 49.5687 805.599 49.41C805.412 49.2513 805.1 49.13 804.661 49.046L803.541 48.85C802.878 48.7287 802.388 48.5233 802.071 48.234C801.763 47.9447 801.609 47.5527 801.609 47.058C801.609 46.666 801.712 46.3207 801.917 46.022C802.132 45.7233 802.426 45.49 802.799 45.322C803.172 45.1447 803.597 45.056 804.073 45.056C804.54 45.056 804.983 45.126 805.403 45.266C805.823 45.3967 806.248 45.6113 806.677 45.91L806.173 46.624C805.818 46.372 805.464 46.19 805.109 46.078C804.754 45.9567 804.395 45.896 804.031 45.896C803.583 45.896 803.224 45.994 802.953 46.19C802.682 46.386 802.547 46.652 802.547 46.988C802.547 47.268 802.631 47.4827 802.799 47.632C802.976 47.7813 803.284 47.8933 803.723 47.968L804.871 48.178C805.562 48.2993 806.066 48.5093 806.383 48.808C806.7 49.1067 806.859 49.508 806.859 50.012C806.859 50.4133 806.742 50.7773 806.509 51.104C806.276 51.4213 805.958 51.6733 805.557 51.86C805.156 52.0467 804.703 52.14 804.199 52.14ZM811.564 52.14C810.929 52.14 810.355 51.986 809.842 51.678C809.328 51.3607 808.922 50.936 808.624 50.404C808.325 49.8627 808.176 49.256 808.176 48.584C808.176 47.912 808.316 47.31 808.596 46.778C808.885 46.246 809.272 45.826 809.758 45.518C810.243 45.21 810.784 45.056 811.382 45.056C811.988 45.056 812.525 45.21 812.992 45.518C813.468 45.8167 813.841 46.2273 814.112 46.75C814.392 47.2633 814.532 47.8467 814.532 48.5V48.808H809.17C809.207 49.2747 809.333 49.6947 809.548 50.068C809.772 50.432 810.061 50.7213 810.416 50.936C810.78 51.1413 811.176 51.244 811.606 51.244C811.96 51.244 812.301 51.1833 812.628 51.062C812.964 50.9313 813.248 50.7587 813.482 50.544L814.126 51.23C813.734 51.538 813.328 51.7667 812.908 51.916C812.488 52.0653 812.04 52.14 811.564 52.14ZM809.198 48.08H813.524C813.477 47.6693 813.351 47.3053 813.146 46.988C812.95 46.6613 812.698 46.4047 812.39 46.218C812.091 46.0313 811.755 45.938 811.382 45.938C811.008 45.938 810.668 46.0313 810.36 46.218C810.052 46.3953 809.795 46.6473 809.59 46.974C809.394 47.2913 809.263 47.66 809.198 48.08ZM816.277 52V45.168H817.299V46.568C817.476 46.092 817.728 45.7233 818.055 45.462C818.391 45.1913 818.773 45.056 819.203 45.056C819.324 45.056 819.436 45.0653 819.539 45.084C819.641 45.0933 819.744 45.1167 819.847 45.154V46.078C819.735 46.0407 819.613 46.0127 819.483 45.994C819.361 45.966 819.245 45.952 819.133 45.952C818.713 45.952 818.344 46.0733 818.027 46.316C817.719 46.5587 817.476 46.8993 817.299 47.338V52H816.277ZM821.198 52V45.168H822.22V46.274C822.482 45.8633 822.794 45.56 823.158 45.364C823.522 45.1587 823.933 45.056 824.39 45.056C824.885 45.056 825.314 45.1633 825.678 45.378C826.052 45.5833 826.341 45.8773 826.546 46.26C826.761 46.6333 826.868 47.072 826.868 47.576V52H825.846V47.87C825.846 47.2633 825.678 46.7873 825.342 46.442C825.016 46.0873 824.572 45.91 824.012 45.91C823.639 45.91 823.298 45.9987 822.99 46.176C822.682 46.3533 822.426 46.6147 822.22 46.96V52H821.198ZM831.037 52.126C830.552 52.126 830.122 52.0373 829.749 51.86C829.376 51.6827 829.082 51.44 828.867 51.132C828.662 50.8147 828.559 50.4507 828.559 50.04C828.559 49.6293 828.666 49.2747 828.881 48.976C829.096 48.668 829.394 48.43 829.777 48.262C830.16 48.094 830.608 48.01 831.121 48.01C831.513 48.01 831.882 48.052 832.227 48.136C832.582 48.22 832.908 48.3553 833.207 48.542V47.604C833.207 47.044 833.058 46.624 832.759 46.344C832.46 46.0547 832.022 45.91 831.443 45.91C831.126 45.91 830.799 45.9567 830.463 46.05C830.136 46.1433 829.772 46.2927 829.371 46.498L828.993 45.714C829.908 45.2753 830.766 45.056 831.569 45.056C832.418 45.056 833.072 45.266 833.529 45.686C833.986 46.0967 834.215 46.6893 834.215 47.464V52H833.207V51.202C832.908 51.51 832.577 51.7433 832.213 51.902C831.849 52.0513 831.457 52.126 831.037 52.126ZM829.539 50.012C829.539 50.4133 829.693 50.7353 830.001 50.978C830.318 51.2207 830.734 51.342 831.247 51.342C831.63 51.342 831.98 51.2767 832.297 51.146C832.624 51.0153 832.927 50.8193 833.207 50.558V49.242C832.918 49.074 832.619 48.9527 832.311 48.878C832.003 48.794 831.658 48.752 831.275 48.752C830.752 48.752 830.332 48.8687 830.015 49.102C829.698 49.326 829.539 49.6293 829.539 50.012ZM836.292 52V45.168H837.314V46.232C837.576 45.84 837.874 45.546 838.21 45.35C838.546 45.154 838.924 45.056 839.344 45.056C839.83 45.056 840.254 45.1773 840.618 45.42C840.982 45.6533 841.258 45.9753 841.444 46.386C841.715 45.9473 842.037 45.616 842.41 45.392C842.793 45.168 843.232 45.056 843.726 45.056C844.184 45.056 844.585 45.1633 844.93 45.378C845.285 45.5927 845.56 45.8913 845.756 46.274C845.952 46.6473 846.05 47.086 846.05 47.59V52H845.028V47.842C845.028 47.2447 844.879 46.7733 844.58 46.428C844.282 46.0827 843.871 45.91 843.348 45.91C842.994 45.91 842.672 45.9987 842.382 46.176C842.102 46.3533 841.855 46.624 841.64 46.988C841.659 47.0813 841.673 47.1793 841.682 47.282C841.692 47.3847 841.696 47.4873 841.696 47.59V52H840.674V47.842C840.674 47.2447 840.52 46.7733 840.212 46.428C839.914 46.0827 839.503 45.91 838.98 45.91C838.28 45.91 837.725 46.246 837.314 46.918V52H836.292ZM851.198 52.14C850.564 52.14 849.99 51.986 849.476 51.678C848.963 51.3607 848.557 50.936 848.258 50.404C847.96 49.8627 847.81 49.256 847.81 48.584C847.81 47.912 847.95 47.31 848.23 46.778C848.52 46.246 848.907 45.826 849.392 45.518C849.878 45.21 850.419 45.056 851.016 45.056C851.623 45.056 852.16 45.21 852.626 45.518C853.102 45.8167 853.476 46.2273 853.746 46.75C854.026 47.2633 854.166 47.8467 854.166 48.5V48.808H848.804C848.842 49.2747 848.968 49.6947 849.182 50.068C849.406 50.432 849.696 50.7213 850.05 50.936C850.414 51.1413 850.811 51.244 851.24 51.244C851.595 51.244 851.936 51.1833 852.262 51.062C852.598 50.9313 852.883 50.7587 853.116 50.544L853.76 51.23C853.368 51.538 852.962 51.7667 852.542 51.916C852.122 52.0653 851.674 52.14 851.198 52.14ZM848.832 48.08H853.158C853.112 47.6693 852.986 47.3053 852.78 46.988C852.584 46.6613 852.332 46.4047 852.024 46.218C851.726 46.0313 851.39 45.938 851.016 45.938C850.643 45.938 850.302 46.0313 849.994 46.218C849.686 46.3953 849.43 46.6473 849.224 46.974C849.028 47.2913 848.898 47.66 848.832 48.08Z" fill="#151515"/>
<path fill-rule="evenodd" clip-rule="evenodd" d="M874.389 50.1714L877.921 46.6102C878.267 46.2615 878.023 45.6666 877.534 45.6666H870.466C869.977 45.6666 869.733 46.2615 870.079 46.6102L873.611 50.1714C873.825 50.3872 874.174 50.3872 874.389 50.1714Z" fill="#1F1F1F"/>
<mask id="path-36-inside-3_866_67529" fill="white">
<path fill-rule="evenodd" clip-rule="evenodd" d="M731.465 56.195C730.131 55.4252 728.465 56.3875 728.465 57.9271L728.465 71.934C728.465 73.4736 730.131 74.4358 731.465 73.666L735.105 71.5646L736.743 74.4022C737.295 75.3588 738.518 75.6866 739.475 75.1343L741.278 74.0932C742.235 73.5409 742.562 72.3177 742.01 71.3611L740.372 68.5235L743.595 66.6626C744.928 65.8928 744.928 63.9683 743.595 63.1985L731.465 56.195Z"/>
</mask>
<path fill-rule="evenodd" clip-rule="evenodd" d="M731.465 56.195C730.131 55.4252 728.465 56.3875 728.465 57.9271L728.465 71.934C728.465 73.4736 730.131 74.4358 731.465 73.666L735.105 71.5646L736.743 74.4022C737.295 75.3588 738.518 75.6866 739.475 75.1343L741.278 74.0932C742.235 73.5409 742.562 72.3177 742.01 71.3611L740.372 68.5235L743.595 66.6626C744.928 65.8928 744.928 63.9683 743.595 63.1985L731.465 56.195Z" fill="#FF00FF"/>
<path d="M728.465 57.9271L727.465 57.9271V57.9271L728.465 57.9271ZM731.465 56.195L731.965 55.329L731.965 55.329L731.465 56.195ZM728.465 71.934L729.465 71.934V71.934L728.465 71.934ZM735.105 71.5646L735.971 71.0646L735.471 70.1986L734.605 70.6986L735.105 71.5646ZM740.372 68.5235L739.872 67.6575L739.006 68.1575L739.506 69.0235L740.372 68.5235ZM743.595 63.1985L743.095 64.0645L743.095 64.0645L743.595 63.1985ZM729.465 57.9271C729.465 57.1573 730.298 56.6762 730.965 57.0611L731.965 55.329C729.965 54.1743 727.465 55.6177 727.465 57.9271L729.465 57.9271ZM729.465 71.934L729.465 57.9271L727.465 57.9271L727.465 71.934L729.465 71.934ZM730.965 72.8C730.298 73.1849 729.465 72.7037 729.465 71.934L727.465 71.934C727.465 74.2434 729.965 75.6867 731.965 74.532L730.965 72.8ZM734.605 70.6986L730.965 72.8L731.965 74.532L735.605 72.4307L734.605 70.6986ZM737.609 73.9022L735.971 71.0646L734.238 72.0646L735.877 74.9022L737.609 73.9022ZM738.975 74.2682C738.497 74.5444 737.885 74.3805 737.609 73.9022L735.877 74.9022C736.705 76.3371 738.54 76.8287 739.975 76.0003L738.975 74.2682ZM740.778 73.2271L738.975 74.2682L739.975 76.0003L741.778 74.9592L740.778 73.2271ZM741.144 71.8611C741.42 72.3394 741.256 72.951 740.778 73.2271L741.778 74.9592C743.213 74.1308 743.705 72.296 742.876 70.8611L741.144 71.8611ZM739.506 69.0235L741.144 71.8611L742.876 70.8611L741.238 68.0235L739.506 69.0235ZM743.095 65.7965L739.872 67.6575L740.872 69.3895L744.095 67.5286L743.095 65.7965ZM743.095 64.0645C743.762 64.4494 743.762 65.4116 743.095 65.7965L744.095 67.5286C746.095 66.3739 746.095 63.4871 744.095 62.3324L743.095 64.0645ZM730.965 57.0611L743.095 64.0645L744.095 62.3324L731.965 55.329L730.965 57.0611Z" fill="#FF00FF" mask="url(#path-36-inside-3_866_67529)"/>
<defs>
<linearGradient id="paint0_linear_866_67529" x1="1588.07" y1="29.8043" x2="-215.756" y2="3036.17" gradientUnits="userSpaceOnUse">
<stop stop-color="#2B9AF3"/>
<stop offset="1" stop-color="#73BCF7" stop-opacity="0.502213"/>
</linearGradient>
<linearGradient id="paint1_linear_866_67529" x1="132.196" y1="-1426.07" x2="-2874.17" y2="377.756" gradientUnits="userSpaceOnUse">
<stop stop-color="#2B9AF3"/>
<stop offset="1" stop-color="#73BCF7" stop-opacity="0.502213"/>
</linearGradient>
<clipPath id="clip0_866_67529">
<rect width="159.121" height="37" fill="white" transform="translate(96 29)"/>
</clipPath>
<clipPath id="clip1_866_67529">
<rect width="24" height="24" fill="white" transform="translate(759 35.5)"/>
</clipPath>
</defs>
</svg>
