<svg width="524" height="215" viewBox="0 0 524 215" fill="none" xmlns="http://www.w3.org/2000/svg">
<rect width="524" height="215" fill="white"/>
<path d="M22 43H502V179C502 187.837 494.837 195 486 195H38C29.1635 195 22 187.837 22 179V43Z" fill="#F2F2F2"/>
<g opacity="0.5">
<rect x="22" y="43" width="480" height="1" rx="0.5" fill="#C7C7C7"/>
</g>
<path d="M46 100C46 82.3269 60.3269 68 78 68H446C463.673 68 478 82.3269 478 100V100C478 117.673 463.673 132 446 132H78C60.3269 132 46 117.673 46 100V100Z" fill="white"/>
<path d="M71.408 106V94.8H72.64V106H71.408ZM74.8469 97.696L75.8069 94H77.0549L75.7589 97.696H74.8469ZM79.0906 106V98.192H80.2586V99.408C80.5573 98.96 80.8986 98.624 81.2826 98.4C81.6666 98.176 82.0986 98.064 82.5786 98.064C83.1333 98.064 83.6186 98.2027 84.0346 98.48C84.4506 98.7467 84.7653 99.1147 84.9786 99.584C85.288 99.0827 85.656 98.704 86.0826 98.448C86.52 98.192 87.0213 98.064 87.5866 98.064C88.1093 98.064 88.568 98.1867 88.9626 98.432C89.368 98.6773 89.6826 99.0187 89.9066 99.456C90.1306 99.8827 90.2426 100.384 90.2426 100.96V106H89.0746V101.248C89.0746 100.565 88.904 100.027 88.5626 99.632C88.2213 99.2373 87.752 99.04 87.1546 99.04C86.7493 99.04 86.3813 99.1413 86.0506 99.344C85.7306 99.5467 85.448 99.856 85.2026 100.272C85.224 100.379 85.24 100.491 85.2506 100.608C85.2613 100.725 85.2666 100.843 85.2666 100.96V106H84.0986V101.248C84.0986 100.565 83.9226 100.027 83.5706 99.632C83.2293 99.2373 82.76 99.04 82.1626 99.04C81.3626 99.04 80.728 99.424 80.2586 100.192V106H79.0906ZM96.3406 106V94.448L97.5086 94.208V106H96.3406ZM103.359 106.128C102.634 106.128 101.983 105.952 101.407 105.6C100.831 105.248 100.378 104.768 100.047 104.16C99.7165 103.552 99.5511 102.864 99.5511 102.096C99.5511 101.328 99.7165 100.64 100.047 100.032C100.378 99.424 100.831 98.944 101.407 98.592C101.983 98.24 102.634 98.064 103.359 98.064C104.074 98.064 104.714 98.24 105.279 98.592C105.855 98.944 106.308 99.424 106.639 100.032C106.97 100.64 107.135 101.328 107.135 102.096C107.135 102.864 106.97 103.552 106.639 104.16C106.308 104.768 105.855 105.248 105.279 105.6C104.714 105.952 104.074 106.128 103.359 106.128ZM103.343 105.104C103.855 105.104 104.308 104.976 104.703 104.72C105.098 104.453 105.407 104.091 105.631 103.632C105.866 103.173 105.983 102.661 105.983 102.096C105.983 101.52 105.866 101.008 105.631 100.56C105.407 100.101 105.098 99.744 104.703 99.488C104.308 99.2213 103.855 99.088 103.343 99.088C102.831 99.088 102.378 99.2213 101.983 99.488C101.588 99.744 101.274 100.101 101.039 100.56C100.815 101.008 100.703 101.52 100.703 102.096C100.703 102.661 100.815 103.173 101.039 103.632C101.274 104.091 101.588 104.453 101.983 104.72C102.378 104.976 102.831 105.104 103.343 105.104ZM112.64 106.128C111.915 106.128 111.264 105.952 110.688 105.6C110.112 105.248 109.659 104.768 109.328 104.16C108.998 103.552 108.832 102.864 108.832 102.096C108.832 101.328 108.998 100.64 109.328 100.032C109.659 99.424 110.112 98.944 110.688 98.592C111.264 98.24 111.915 98.064 112.64 98.064C113.355 98.064 113.995 98.24 114.56 98.592C115.136 98.944 115.59 99.424 115.92 100.032C116.251 100.64 116.416 101.328 116.416 102.096C116.416 102.864 116.251 103.552 115.92 104.16C115.59 104.768 115.136 105.248 114.56 105.6C113.995 105.952 113.355 106.128 112.64 106.128ZM112.624 105.104C113.136 105.104 113.59 104.976 113.984 104.72C114.379 104.453 114.688 104.091 114.912 103.632C115.147 103.173 115.264 102.661 115.264 102.096C115.264 101.52 115.147 101.008 114.912 100.56C114.688 100.101 114.379 99.744 113.984 99.488C113.59 99.2213 113.136 99.088 112.624 99.088C112.112 99.088 111.659 99.2213 111.264 99.488C110.87 99.744 110.555 100.101 110.32 100.56C110.096 101.008 109.984 101.52 109.984 102.096C109.984 102.661 110.096 103.173 110.32 103.632C110.555 104.091 110.87 104.453 111.264 104.72C111.659 104.976 112.112 105.104 112.624 105.104ZM118.466 106V94.448L119.634 94.208V101.696L123.346 98.192H124.754L120.786 101.904L124.93 106H123.394L119.634 102.272V106H118.466ZM126.278 106V98.192H127.446V106H126.278ZM126.87 96.256C126.635 96.256 126.432 96.176 126.262 96.016C126.102 95.8453 126.022 95.648 126.022 95.424C126.022 95.2 126.102 95.008 126.262 94.848C126.432 94.6773 126.635 94.592 126.87 94.592C127.104 94.592 127.302 94.6773 127.462 94.848C127.632 95.008 127.718 95.2 127.718 95.424C127.718 95.648 127.632 95.8453 127.462 96.016C127.302 96.176 127.104 96.256 126.87 96.256ZM129.841 106V98.192H131.009V99.456C131.307 98.9867 131.665 98.64 132.081 98.416C132.497 98.1813 132.966 98.064 133.489 98.064C134.054 98.064 134.545 98.1867 134.961 98.432C135.387 98.6667 135.718 99.0027 135.953 99.44C136.198 99.8667 136.321 100.368 136.321 100.944V106H135.153V101.28C135.153 100.587 134.961 100.043 134.577 99.648C134.203 99.2427 133.697 99.04 133.057 99.04C132.63 99.04 132.241 99.1413 131.889 99.344C131.537 99.5467 131.243 99.8453 131.009 100.24V106H129.841ZM142.285 109.504C141.762 109.504 141.234 109.429 140.701 109.28C140.178 109.141 139.693 108.944 139.245 108.688L139.741 107.792C140.221 108.037 140.658 108.219 141.053 108.336C141.447 108.453 141.842 108.512 142.237 108.512C142.951 108.512 143.49 108.341 143.853 108C144.226 107.659 144.413 107.163 144.413 106.512V104.944C144.114 105.317 143.751 105.605 143.325 105.808C142.898 106 142.429 106.096 141.917 106.096C141.245 106.096 140.637 105.92 140.093 105.568C139.549 105.205 139.117 104.725 138.797 104.128C138.477 103.52 138.317 102.843 138.317 102.096C138.317 101.349 138.477 100.677 138.797 100.08C139.127 99.472 139.57 98.992 140.125 98.64C140.679 98.2773 141.298 98.096 141.981 98.096C142.471 98.096 142.925 98.192 143.341 98.384C143.757 98.5653 144.119 98.8373 144.429 99.2V98.192H145.581V106.496C145.581 107.467 145.298 108.208 144.733 108.72C144.167 109.243 143.351 109.504 142.285 109.504ZM142.205 105.088C142.663 105.088 143.085 104.997 143.469 104.816C143.853 104.624 144.167 104.363 144.413 104.032V100.176C144.157 99.8453 143.831 99.5893 143.437 99.408C143.053 99.216 142.642 99.12 142.205 99.12C141.682 99.12 141.213 99.248 140.797 99.504C140.391 99.76 140.066 100.112 139.821 100.56C139.586 101.008 139.469 101.52 139.469 102.096C139.469 102.661 139.586 103.173 139.821 103.632C140.066 104.08 140.391 104.437 140.797 104.704C141.213 104.96 141.682 105.088 142.205 105.088ZM152.708 106V99.152H150.964V98.192H152.708V96.56C152.708 95.792 152.91 95.2 153.316 94.784C153.721 94.368 154.297 94.16 155.044 94.16C155.257 94.16 155.449 94.1707 155.62 94.192C155.801 94.2133 155.961 94.2507 156.1 94.304V95.36C155.929 95.3067 155.774 95.2693 155.636 95.248C155.497 95.2267 155.337 95.216 155.156 95.216C154.708 95.216 154.382 95.328 154.18 95.552C153.977 95.7653 153.876 96.1067 153.876 96.576V98.192H156.1V99.152H153.876V106H152.708ZM160.765 106.128C160.04 106.128 159.389 105.952 158.813 105.6C158.237 105.248 157.784 104.768 157.453 104.16C157.123 103.552 156.957 102.864 156.957 102.096C156.957 101.328 157.123 100.64 157.453 100.032C157.784 99.424 158.237 98.944 158.813 98.592C159.389 98.24 160.04 98.064 160.765 98.064C161.48 98.064 162.12 98.24 162.685 98.592C163.261 98.944 163.715 99.424 164.045 100.032C164.376 100.64 164.541 101.328 164.541 102.096C164.541 102.864 164.376 103.552 164.045 104.16C163.715 104.768 163.261 105.248 162.685 105.6C162.12 105.952 161.48 106.128 160.765 106.128ZM160.749 105.104C161.261 105.104 161.715 104.976 162.109 104.72C162.504 104.453 162.813 104.091 163.037 103.632C163.272 103.173 163.389 102.661 163.389 102.096C163.389 101.52 163.272 101.008 163.037 100.56C162.813 100.101 162.504 99.744 162.109 99.488C161.715 99.2213 161.261 99.088 160.749 99.088C160.237 99.088 159.784 99.2213 159.389 99.488C158.995 99.744 158.68 100.101 158.445 100.56C158.221 101.008 158.109 101.52 158.109 102.096C158.109 102.661 158.221 103.173 158.445 103.632C158.68 104.091 158.995 104.453 159.389 104.72C159.784 104.976 160.237 105.104 160.749 105.104ZM166.591 106V98.192H167.759V99.792C167.961 99.248 168.249 98.8267 168.623 98.528C169.007 98.2187 169.444 98.064 169.935 98.064C170.073 98.064 170.201 98.0747 170.319 98.096C170.436 98.1067 170.553 98.1333 170.671 98.176V99.232C170.543 99.1893 170.404 99.1573 170.255 99.136C170.116 99.104 169.983 99.088 169.855 99.088C169.375 99.088 168.953 99.2267 168.591 99.504C168.239 99.7813 167.961 100.171 167.759 100.672V106H166.591ZM175.95 106V94.448L177.118 94.208V99.456C177.417 98.9867 177.774 98.64 178.19 98.416C178.606 98.1813 179.075 98.064 179.598 98.064C180.163 98.064 180.654 98.1867 181.07 98.432C181.497 98.6667 181.827 99.0027 182.062 99.44C182.307 99.8667 182.43 100.368 182.43 100.944V106H181.262V101.28C181.262 100.587 181.07 100.043 180.686 99.648C180.313 99.2427 179.806 99.04 179.166 99.04C178.739 99.04 178.35 99.1413 177.998 99.344C177.646 99.5467 177.353 99.8453 177.118 100.24V106H175.95ZM188.298 106.16C187.573 106.16 186.917 105.984 186.33 105.632C185.743 105.269 185.279 104.784 184.938 104.176C184.597 103.557 184.426 102.864 184.426 102.096C184.426 101.328 184.586 100.64 184.906 100.032C185.237 99.424 185.679 98.944 186.234 98.592C186.789 98.24 187.407 98.064 188.09 98.064C188.783 98.064 189.397 98.24 189.93 98.592C190.474 98.9333 190.901 99.4027 191.21 100C191.53 100.587 191.69 101.253 191.69 102V102.352H185.562C185.605 102.885 185.749 103.365 185.994 103.792C186.25 104.208 186.581 104.539 186.986 104.784C187.402 105.019 187.855 105.136 188.346 105.136C188.751 105.136 189.141 105.067 189.514 104.928C189.898 104.779 190.223 104.581 190.49 104.336L191.226 105.12C190.778 105.472 190.314 105.733 189.834 105.904C189.354 106.075 188.842 106.16 188.298 106.16ZM185.594 101.52H190.538C190.485 101.051 190.341 100.635 190.106 100.272C189.882 99.8987 189.594 99.6053 189.242 99.392C188.901 99.1787 188.517 99.072 188.09 99.072C187.663 99.072 187.274 99.1787 186.922 99.392C186.57 99.5947 186.277 99.8827 186.042 100.256C185.818 100.619 185.669 101.04 185.594 101.52ZM193.684 106V94.448L194.852 94.208V106H193.684ZM197.247 109.344V98.192H198.399V99.312C198.698 98.9173 199.06 98.6187 199.487 98.416C199.924 98.2027 200.404 98.096 200.927 98.096C201.61 98.096 202.218 98.2773 202.751 98.64C203.295 98.992 203.727 99.472 204.047 100.08C204.367 100.677 204.527 101.349 204.527 102.096C204.527 102.843 204.362 103.52 204.031 104.128C203.711 104.736 203.274 105.221 202.719 105.584C202.175 105.936 201.556 106.112 200.863 106.112C200.372 106.112 199.919 106.021 199.503 105.84C199.087 105.648 198.724 105.376 198.415 105.024V109.344H197.247ZM200.639 105.104C201.162 105.104 201.626 104.976 202.031 104.72C202.447 104.453 202.772 104.096 203.007 103.648C203.252 103.189 203.375 102.677 203.375 102.112C203.375 101.536 203.252 101.024 203.007 100.576C202.772 100.128 202.447 99.776 202.031 99.52C201.626 99.2533 201.162 99.12 200.639 99.12C200.18 99.12 199.754 99.216 199.359 99.408C198.975 99.5893 198.66 99.8507 198.415 100.192V104.016C198.671 104.357 198.991 104.624 199.375 104.816C199.77 105.008 200.191 105.104 200.639 105.104ZM211.701 106L209.557 98.192H210.693L212.325 104.432L214.197 98.192H215.237L217.109 104.432L218.725 98.192H219.829L217.701 106H216.565L214.709 99.696L212.853 106H211.701ZM221.465 106V98.192H222.633V106H221.465ZM222.057 96.256C221.823 96.256 221.62 96.176 221.449 96.016C221.289 95.8453 221.209 95.648 221.209 95.424C221.209 95.2 221.289 95.008 221.449 94.848C221.62 94.6773 221.823 94.592 222.057 94.592C222.292 94.592 222.489 94.6773 222.649 94.848C222.82 95.008 222.905 95.2 222.905 95.424C222.905 95.648 222.82 95.8453 222.649 96.016C222.489 96.176 222.292 96.256 222.057 96.256ZM228.004 106.16C227.332 106.16 226.82 106 226.468 105.68C226.127 105.349 225.956 104.875 225.956 104.256V99.152H224.34V98.192H225.956V96.048L227.124 95.776V98.192H229.364V99.152H227.124V103.952C227.124 104.368 227.209 104.667 227.38 104.848C227.561 105.029 227.855 105.12 228.26 105.12C228.463 105.12 228.644 105.104 228.804 105.072C228.964 105.04 229.151 104.987 229.364 104.912V105.952C229.151 106.027 228.927 106.08 228.692 106.112C228.457 106.144 228.228 106.16 228.004 106.16ZM231.075 106V94.448L232.243 94.208V99.456C232.542 98.9867 232.899 98.64 233.315 98.416C233.731 98.1813 234.2 98.064 234.723 98.064C235.288 98.064 235.779 98.1867 236.195 98.432C236.622 98.6667 236.952 99.0027 237.187 99.44C237.432 99.8667 237.555 100.368 237.555 100.944V106H236.387V101.28C236.387 100.587 236.195 100.043 235.811 99.648C235.438 99.2427 234.931 99.04 234.291 99.04C233.864 99.04 233.475 99.1413 233.123 99.344C232.771 99.5467 232.478 99.8453 232.243 100.24V106H231.075ZM240.703 106.128C240.468 106.128 240.266 106.043 240.095 105.872C239.935 105.701 239.855 105.499 239.855 105.264C239.855 105.019 239.935 104.816 240.095 104.656C240.266 104.485 240.468 104.4 240.703 104.4C240.938 104.4 241.135 104.485 241.295 104.656C241.466 104.816 241.551 105.019 241.551 105.264C241.551 105.499 241.466 105.701 241.295 105.872C241.135 106.043 240.938 106.128 240.703 106.128ZM244.703 106.128C244.468 106.128 244.266 106.043 244.095 105.872C243.935 105.701 243.855 105.499 243.855 105.264C243.855 105.019 243.935 104.816 244.095 104.656C244.266 104.485 244.468 104.4 244.703 104.4C244.938 104.4 245.135 104.485 245.295 104.656C245.466 104.816 245.551 105.019 245.551 105.264C245.551 105.499 245.466 105.701 245.295 105.872C245.135 106.043 244.938 106.128 244.703 106.128Z" fill="#4D4D4D"/>
<path d="M323.063 92.9033C322.109 91.9502 320.563 91.9502 319.609 92.9033L312.422 100.091C310.777 101.735 310.777 104.399 312.422 106.044C314.066 107.688 316.73 107.688 318.375 106.044L324.313 100.106C324.738 99.6807 325.434 99.6807 325.859 100.106C326.285 100.532 326.285 101.228 325.859 101.653L319.922 107.591C317.422 110.091 313.375 110.091 310.875 107.591C308.375 105.091 308.375 101.044 310.875 98.5439L318.063 91.3564C319.871 89.5479 322.801 89.5479 324.609 91.3564C326.418 93.165 326.418 96.0947 324.609 97.9033L317.734 104.778C316.617 105.896 314.805 105.896 313.688 104.778C312.57 103.661 312.57 101.849 313.688 100.731L319.313 95.1064C319.738 94.6807 320.434 94.6807 320.859 95.1064C321.285 95.5322 321.285 96.2275 320.859 96.6533L315.234 102.278C314.973 102.54 314.973 102.97 315.234 103.231C315.496 103.493 315.926 103.493 316.188 103.231L323.063 96.3564C324.016 95.4033 324.016 93.8564 323.063 92.9033Z" fill="#707070"/>
<path d="M382 90C379.93 90 378.25 91.6797 378.25 93.75V100C378.25 102.07 379.93 103.75 382 103.75C384.07 103.75 385.75 102.07 385.75 100V93.75C385.75 91.6797 384.07 90 382 90ZM377 98.4375C377 97.918 376.582 97.5 376.062 97.5C375.543 97.5 375.125 97.918 375.125 98.4375V100C375.125 103.48 377.711 106.355 381.062 106.812V108.125H379.188C378.668 108.125 378.25 108.543 378.25 109.062C378.25 109.582 378.668 110 379.188 110H382H384.812C385.332 110 385.75 109.582 385.75 109.062C385.75 108.543 385.332 108.125 384.812 108.125H382.938V106.812C386.289 106.355 388.875 103.48 388.875 100V98.4375C388.875 97.918 388.457 97.5 387.938 97.5C387.418 97.5 387 97.918 387 98.4375V100C387 102.762 384.762 105 382 105C379.238 105 377 102.762 377 100V98.4375Z" fill="#707070"/>
<path d="M455.458 90.2169C455.852 90.4904 456.059 90.963 455.985 91.4357L453.485 107.686C453.426 108.065 453.196 108.397 452.86 108.584C452.524 108.772 452.122 108.795 451.766 108.647L447.094 106.705L444.419 109.6C444.071 109.979 443.524 110.104 443.044 109.916C442.563 109.729 442.251 109.264 442.251 108.748V105.483C442.251 105.326 442.309 105.178 442.415 105.065L448.962 97.9201C449.188 97.674 449.18 97.2951 448.946 97.0607C448.712 96.8263 448.333 96.8107 448.087 97.0334L440.141 104.092L436.692 102.365C436.278 102.158 436.012 101.744 436.001 101.283C435.989 100.822 436.231 100.393 436.63 100.162L454.13 90.1623C454.548 89.924 455.063 89.9474 455.458 90.2169Z" fill="#0066CC"/>
<path d="M163.568 167.5V159.1H166.964C167.476 159.1 167.92 159.188 168.296 159.364C168.68 159.54 168.976 159.788 169.184 160.108C169.392 160.428 169.496 160.804 169.496 161.236C169.496 161.7 169.36 162.1 169.088 162.436C168.824 162.764 168.464 162.996 168.008 163.132C168.568 163.26 169.008 163.504 169.328 163.864C169.656 164.216 169.82 164.652 169.82 165.172C169.82 165.636 169.708 166.044 169.484 166.396C169.26 166.748 168.944 167.02 168.536 167.212C168.128 167.404 167.648 167.5 167.096 167.5H163.568ZM164.492 162.772H166.892C167.404 162.772 167.812 162.644 168.116 162.388C168.42 162.124 168.572 161.772 168.572 161.332C168.572 160.892 168.42 160.544 168.116 160.288C167.812 160.024 167.404 159.892 166.892 159.892H164.492V162.772ZM164.492 166.708H167C167.568 166.708 168.024 166.564 168.368 166.276C168.712 165.98 168.884 165.592 168.884 165.112C168.884 164.632 168.712 164.248 168.368 163.96C168.032 163.672 167.576 163.528 167 163.528H164.492V166.708ZM173.902 167.596C173.358 167.596 172.87 167.464 172.438 167.2C172.006 166.936 171.666 166.576 171.418 166.12C171.17 165.664 171.046 165.148 171.046 164.572C171.046 163.996 171.17 163.48 171.418 163.024C171.666 162.568 172.006 162.208 172.438 161.944C172.87 161.68 173.358 161.548 173.902 161.548C174.438 161.548 174.918 161.68 175.342 161.944C175.774 162.208 176.114 162.568 176.362 163.024C176.61 163.48 176.734 163.996 176.734 164.572C176.734 165.148 176.61 165.664 176.362 166.12C176.114 166.576 175.774 166.936 175.342 167.2C174.918 167.464 174.438 167.596 173.902 167.596ZM173.89 166.828C174.274 166.828 174.614 166.732 174.91 166.54C175.206 166.34 175.438 166.068 175.606 165.724C175.782 165.38 175.87 164.996 175.87 164.572C175.87 164.14 175.782 163.756 175.606 163.42C175.438 163.076 175.206 162.808 174.91 162.616C174.614 162.416 174.274 162.316 173.89 162.316C173.506 162.316 173.166 162.416 172.87 162.616C172.574 162.808 172.338 163.076 172.162 163.42C171.994 163.756 171.91 164.14 171.91 164.572C171.91 164.996 171.994 165.38 172.162 165.724C172.338 166.068 172.574 166.34 172.87 166.54C173.166 166.732 173.506 166.828 173.89 166.828ZM180.14 167.62C179.636 167.62 179.252 167.5 178.988 167.26C178.732 167.012 178.604 166.656 178.604 166.192V162.364H177.392V161.644H178.604V160.036L179.48 159.832V161.644H181.16V162.364H179.48V165.964C179.48 166.276 179.544 166.5 179.672 166.636C179.808 166.772 180.028 166.84 180.332 166.84C180.484 166.84 180.62 166.828 180.74 166.804C180.86 166.78 181 166.74 181.16 166.684V167.464C181 167.52 180.832 167.56 180.656 167.584C180.48 167.608 180.308 167.62 180.14 167.62ZM187.332 167.596C186.916 167.596 186.548 167.504 186.228 167.32C185.908 167.136 185.656 166.88 185.472 166.552C185.296 166.224 185.208 165.848 185.208 165.424V161.644H186.096V165.172C186.096 165.692 186.236 166.104 186.516 166.408C186.796 166.712 187.176 166.864 187.656 166.864C187.984 166.864 188.276 166.788 188.532 166.636C188.796 166.484 189.016 166.264 189.192 165.976V161.644H190.068V167.5H189.192V166.552C188.968 166.896 188.7 167.156 188.388 167.332C188.084 167.508 187.732 167.596 187.332 167.596ZM193.677 167.62C193.197 167.62 192.753 167.548 192.345 167.404C191.937 167.252 191.589 167.036 191.301 166.756L191.769 166.18C192.121 166.436 192.445 166.624 192.741 166.744C193.037 166.856 193.341 166.912 193.653 166.912C194.077 166.912 194.429 166.812 194.709 166.612C194.989 166.412 195.129 166.156 195.129 165.844C195.129 165.604 195.045 165.416 194.877 165.28C194.717 165.144 194.449 165.04 194.073 164.968L193.113 164.8C192.545 164.696 192.125 164.52 191.853 164.272C191.589 164.024 191.457 163.688 191.457 163.264C191.457 162.928 191.545 162.632 191.721 162.376C191.905 162.12 192.157 161.92 192.477 161.776C192.797 161.624 193.161 161.548 193.569 161.548C193.969 161.548 194.349 161.608 194.709 161.728C195.069 161.84 195.433 162.024 195.801 162.28L195.369 162.892C195.065 162.676 194.761 162.52 194.457 162.424C194.153 162.32 193.845 162.268 193.533 162.268C193.149 162.268 192.841 162.352 192.609 162.52C192.377 162.688 192.261 162.916 192.261 163.204C192.261 163.444 192.333 163.628 192.477 163.756C192.629 163.884 192.893 163.98 193.269 164.044L194.253 164.224C194.845 164.328 195.277 164.508 195.549 164.764C195.821 165.02 195.957 165.364 195.957 165.796C195.957 166.14 195.857 166.452 195.657 166.732C195.457 167.004 195.185 167.22 194.841 167.38C194.497 167.54 194.109 167.62 193.677 167.62ZM199.989 167.62C199.445 167.62 198.953 167.488 198.513 167.224C198.073 166.952 197.725 166.588 197.469 166.132C197.213 165.668 197.085 165.148 197.085 164.572C197.085 163.996 197.205 163.48 197.445 163.024C197.693 162.568 198.025 162.208 198.441 161.944C198.857 161.68 199.321 161.548 199.833 161.548C200.353 161.548 200.813 161.68 201.213 161.944C201.621 162.2 201.941 162.552 202.173 163C202.413 163.44 202.533 163.94 202.533 164.5V164.764H197.937C197.969 165.164 198.077 165.524 198.261 165.844C198.453 166.156 198.701 166.404 199.005 166.588C199.317 166.764 199.657 166.852 200.025 166.852C200.329 166.852 200.621 166.8 200.901 166.696C201.189 166.584 201.433 166.436 201.633 166.252L202.185 166.84C201.849 167.104 201.501 167.3 201.141 167.428C200.781 167.556 200.397 167.62 199.989 167.62ZM197.961 164.14H201.669C201.629 163.788 201.521 163.476 201.345 163.204C201.177 162.924 200.961 162.704 200.697 162.544C200.441 162.384 200.153 162.304 199.833 162.304C199.513 162.304 199.221 162.384 198.957 162.544C198.693 162.696 198.473 162.912 198.297 163.192C198.129 163.464 198.017 163.78 197.961 164.14ZM205.9 167.62C205.42 167.62 204.976 167.548 204.568 167.404C204.16 167.252 203.812 167.036 203.524 166.756L203.992 166.18C204.344 166.436 204.668 166.624 204.964 166.744C205.26 166.856 205.564 166.912 205.876 166.912C206.3 166.912 206.652 166.812 206.932 166.612C207.212 166.412 207.352 166.156 207.352 165.844C207.352 165.604 207.268 165.416 207.1 165.28C206.94 165.144 206.672 165.04 206.296 164.968L205.336 164.8C204.768 164.696 204.348 164.52 204.076 164.272C203.812 164.024 203.68 163.688 203.68 163.264C203.68 162.928 203.768 162.632 203.944 162.376C204.128 162.12 204.38 161.92 204.7 161.776C205.02 161.624 205.384 161.548 205.792 161.548C206.192 161.548 206.572 161.608 206.932 161.728C207.292 161.84 207.656 162.024 208.024 162.28L207.592 162.892C207.288 162.676 206.984 162.52 206.68 162.424C206.376 162.32 206.068 162.268 205.756 162.268C205.372 162.268 205.064 162.352 204.832 162.52C204.6 162.688 204.484 162.916 204.484 163.204C204.484 163.444 204.556 163.628 204.7 163.756C204.852 163.884 205.116 163.98 205.492 164.044L206.476 164.224C207.068 164.328 207.5 164.508 207.772 164.764C208.044 165.02 208.18 165.364 208.18 165.796C208.18 166.14 208.08 166.452 207.88 166.732C207.68 167.004 207.408 167.22 207.064 167.38C206.72 167.54 206.332 167.62 205.9 167.62ZM211.522 167.5L214.846 159.1H215.95L219.226 167.5H218.23L217.234 164.86H213.49L212.494 167.5H211.522ZM213.778 164.128H216.958L215.362 159.94L213.778 164.128ZM220.392 167.5V159.1H221.316V167.5H220.392ZM223.871 167.596C223.695 167.596 223.543 167.532 223.415 167.404C223.295 167.276 223.235 167.124 223.235 166.948C223.235 166.764 223.295 166.612 223.415 166.492C223.543 166.364 223.695 166.3 223.871 166.3C224.047 166.3 224.195 166.364 224.315 166.492C224.443 166.612 224.507 166.764 224.507 166.948C224.507 167.124 224.443 167.276 224.315 167.404C224.195 167.532 224.047 167.596 223.871 167.596ZM233.116 167.632C232.516 167.632 231.956 167.524 231.436 167.308C230.924 167.084 230.472 166.776 230.08 166.384C229.688 165.984 229.384 165.524 229.168 165.004C228.952 164.476 228.844 163.908 228.844 163.3C228.844 162.692 228.952 162.128 229.168 161.608C229.384 161.08 229.688 160.62 230.08 160.228C230.472 159.828 230.924 159.52 231.436 159.304C231.956 159.08 232.516 158.968 233.116 158.968C233.532 158.968 233.928 159.024 234.304 159.136C234.688 159.24 235.048 159.396 235.384 159.604C235.72 159.804 236.02 160.052 236.284 160.348L235.672 160.984C235.36 160.608 234.976 160.32 234.52 160.12C234.072 159.912 233.604 159.808 233.116 159.808C232.644 159.808 232.204 159.896 231.796 160.072C231.388 160.248 231.032 160.496 230.728 160.816C230.432 161.136 230.2 161.508 230.032 161.932C229.864 162.348 229.78 162.804 229.78 163.3C229.78 163.788 229.864 164.244 230.032 164.668C230.2 165.092 230.432 165.464 230.728 165.784C231.032 166.104 231.388 166.352 231.796 166.528C232.204 166.704 232.644 166.792 233.116 166.792C233.604 166.792 234.072 166.688 234.52 166.48C234.976 166.272 235.36 165.984 235.672 165.616L236.284 166.252C236.02 166.548 235.72 166.8 235.384 167.008C235.048 167.208 234.688 167.364 234.304 167.476C233.928 167.58 233.532 167.632 233.116 167.632ZM237.779 167.5V158.836L238.655 158.656V162.592C238.879 162.24 239.147 161.98 239.459 161.812C239.771 161.636 240.123 161.548 240.515 161.548C240.939 161.548 241.307 161.64 241.619 161.824C241.939 162 242.187 162.252 242.363 162.58C242.547 162.9 242.639 163.276 242.639 163.708V167.5H241.763V163.96C241.763 163.44 241.619 163.032 241.331 162.736C241.051 162.432 240.671 162.28 240.191 162.28C239.871 162.28 239.579 162.356 239.315 162.508C239.051 162.66 238.831 162.884 238.655 163.18V167.5H237.779ZM247.04 167.62C246.496 167.62 246.004 167.488 245.564 167.224C245.124 166.952 244.776 166.588 244.52 166.132C244.264 165.668 244.136 165.148 244.136 164.572C244.136 163.996 244.256 163.48 244.496 163.024C244.744 162.568 245.076 162.208 245.492 161.944C245.908 161.68 246.372 161.548 246.884 161.548C247.404 161.548 247.864 161.68 248.264 161.944C248.672 162.2 248.992 162.552 249.224 163C249.464 163.44 249.584 163.94 249.584 164.5V164.764H244.988C245.02 165.164 245.128 165.524 245.312 165.844C245.504 166.156 245.752 166.404 246.056 166.588C246.368 166.764 246.708 166.852 247.076 166.852C247.38 166.852 247.672 166.8 247.952 166.696C248.24 166.584 248.484 166.436 248.684 166.252L249.236 166.84C248.9 167.104 248.552 167.3 248.192 167.428C247.832 167.556 247.448 167.62 247.04 167.62ZM245.012 164.14H248.72C248.68 163.788 248.572 163.476 248.396 163.204C248.228 162.924 248.012 162.704 247.748 162.544C247.492 162.384 247.204 162.304 246.884 162.304C246.564 162.304 246.272 162.384 246.008 162.544C245.744 162.696 245.524 162.912 245.348 163.192C245.18 163.464 245.068 163.78 245.012 164.14ZM253.708 167.596C253.164 167.596 252.672 167.464 252.232 167.2C251.8 166.928 251.456 166.564 251.2 166.108C250.944 165.644 250.816 165.132 250.816 164.572C250.816 164.004 250.944 163.492 251.2 163.036C251.456 162.58 251.8 162.22 252.232 161.956C252.672 161.684 253.164 161.548 253.708 161.548C254.14 161.548 254.552 161.628 254.944 161.788C255.336 161.948 255.676 162.172 255.964 162.46L255.4 163.072C255.192 162.84 254.94 162.66 254.644 162.532C254.348 162.404 254.048 162.34 253.744 162.34C253.36 162.34 253.012 162.44 252.7 162.64C252.396 162.84 252.152 163.108 251.968 163.444C251.784 163.78 251.692 164.156 251.692 164.572C251.692 164.988 251.784 165.364 251.968 165.7C252.152 166.036 252.396 166.304 252.7 166.504C253.012 166.704 253.36 166.804 253.744 166.804C254.048 166.804 254.348 166.74 254.644 166.612C254.94 166.476 255.192 166.296 255.4 166.072L255.964 166.684C255.676 166.972 255.336 167.196 254.944 167.356C254.552 167.516 254.14 167.596 253.708 167.596ZM257.185 167.5V158.836L258.061 158.656V164.272L260.845 161.644H261.901L258.925 164.428L262.033 167.5H260.881L258.061 164.704V167.5H257.185ZM266.601 167.5V162.364H265.293V161.644H266.601V160.42C266.601 159.844 266.753 159.4 267.057 159.088C267.361 158.776 267.793 158.62 268.353 158.62C268.513 158.62 268.657 158.628 268.785 158.644C268.921 158.66 269.041 158.688 269.145 158.728V159.52C269.017 159.48 268.901 159.452 268.797 159.436C268.693 159.42 268.573 159.412 268.437 159.412C268.101 159.412 267.857 159.496 267.705 159.664C267.553 159.824 267.477 160.08 267.477 160.432V161.644H269.145V162.364H267.477V167.5H266.601ZM272.644 167.596C272.1 167.596 271.612 167.464 271.18 167.2C270.748 166.936 270.408 166.576 270.16 166.12C269.912 165.664 269.788 165.148 269.788 164.572C269.788 163.996 269.912 163.48 270.16 163.024C270.408 162.568 270.748 162.208 271.18 161.944C271.612 161.68 272.1 161.548 272.644 161.548C273.18 161.548 273.66 161.68 274.084 161.944C274.516 162.208 274.856 162.568 275.104 163.024C275.352 163.48 275.476 163.996 275.476 164.572C275.476 165.148 275.352 165.664 275.104 166.12C274.856 166.576 274.516 166.936 274.084 167.2C273.66 167.464 273.18 167.596 272.644 167.596ZM272.632 166.828C273.016 166.828 273.356 166.732 273.652 166.54C273.948 166.34 274.18 166.068 274.348 165.724C274.524 165.38 274.612 164.996 274.612 164.572C274.612 164.14 274.524 163.756 274.348 163.42C274.18 163.076 273.948 162.808 273.652 162.616C273.356 162.416 273.016 162.316 272.632 162.316C272.248 162.316 271.908 162.416 271.612 162.616C271.316 162.808 271.08 163.076 270.904 163.42C270.736 163.756 270.652 164.14 270.652 164.572C270.652 164.996 270.736 165.38 270.904 165.724C271.08 166.068 271.316 166.34 271.612 166.54C271.908 166.732 272.248 166.828 272.632 166.828ZM277.013 167.5V161.644H277.889V162.844C278.041 162.436 278.257 162.12 278.537 161.896C278.825 161.664 279.153 161.548 279.521 161.548C279.625 161.548 279.721 161.556 279.809 161.572C279.897 161.58 279.985 161.6 280.073 161.632V162.424C279.977 162.392 279.873 162.368 279.761 162.352C279.657 162.328 279.557 162.316 279.461 162.316C279.101 162.316 278.785 162.42 278.513 162.628C278.249 162.836 278.041 163.128 277.889 163.504V167.5H277.013ZM284.033 167.5V161.644H284.909V162.556C285.133 162.22 285.389 161.968 285.677 161.8C285.965 161.632 286.289 161.548 286.649 161.548C287.065 161.548 287.429 161.652 287.741 161.86C288.053 162.06 288.289 162.336 288.449 162.688C288.681 162.312 288.957 162.028 289.277 161.836C289.605 161.644 289.981 161.548 290.405 161.548C290.797 161.548 291.141 161.64 291.437 161.824C291.741 162.008 291.977 162.264 292.145 162.592C292.313 162.912 292.397 163.288 292.397 163.72V167.5H291.521V163.936C291.521 163.424 291.393 163.02 291.137 162.724C290.881 162.428 290.529 162.28 290.081 162.28C289.777 162.28 289.501 162.356 289.253 162.508C289.013 162.66 288.801 162.892 288.617 163.204C288.633 163.284 288.645 163.368 288.653 163.456C288.661 163.544 288.665 163.632 288.665 163.72V167.5H287.789V163.936C287.789 163.424 287.657 163.02 287.393 162.724C287.137 162.428 286.785 162.28 286.337 162.28C285.737 162.28 285.261 162.568 284.909 163.144V167.5H284.033ZM294.158 167.5V161.644H295.034V167.5H294.158ZM294.602 160.192C294.426 160.192 294.274 160.132 294.146 160.012C294.026 159.884 293.966 159.736 293.966 159.568C293.966 159.4 294.026 159.256 294.146 159.136C294.274 159.008 294.426 158.944 294.602 158.944C294.778 158.944 294.926 159.008 295.046 159.136C295.174 159.256 295.238 159.4 295.238 159.568C295.238 159.736 295.174 159.884 295.046 160.012C294.926 160.132 294.778 160.192 294.602 160.192ZM298.642 167.62C298.162 167.62 297.718 167.548 297.31 167.404C296.902 167.252 296.554 167.036 296.266 166.756L296.734 166.18C297.086 166.436 297.41 166.624 297.706 166.744C298.002 166.856 298.306 166.912 298.618 166.912C299.042 166.912 299.394 166.812 299.674 166.612C299.954 166.412 300.094 166.156 300.094 165.844C300.094 165.604 300.01 165.416 299.842 165.28C299.682 165.144 299.414 165.04 299.038 164.968L298.078 164.8C297.51 164.696 297.09 164.52 296.818 164.272C296.554 164.024 296.422 163.688 296.422 163.264C296.422 162.928 296.51 162.632 296.686 162.376C296.87 162.12 297.122 161.92 297.442 161.776C297.762 161.624 298.126 161.548 298.534 161.548C298.934 161.548 299.314 161.608 299.674 161.728C300.034 161.84 300.398 162.024 300.766 162.28L300.334 162.892C300.03 162.676 299.726 162.52 299.422 162.424C299.118 162.32 298.81 162.268 298.498 162.268C298.114 162.268 297.806 162.352 297.574 162.52C297.342 162.688 297.226 162.916 297.226 163.204C297.226 163.444 297.298 163.628 297.442 163.756C297.594 163.884 297.858 163.98 298.234 164.044L299.218 164.224C299.81 164.328 300.242 164.508 300.514 164.764C300.786 165.02 300.922 165.364 300.922 165.796C300.922 166.14 300.822 166.452 300.622 166.732C300.422 167.004 300.15 167.22 299.806 167.38C299.462 167.54 299.074 167.62 298.642 167.62ZM304.37 167.62C303.866 167.62 303.482 167.5 303.218 167.26C302.962 167.012 302.834 166.656 302.834 166.192V162.364H301.622V161.644H302.834V160.036L303.71 159.832V161.644H305.39V162.364H303.71V165.964C303.71 166.276 303.774 166.5 303.902 166.636C304.038 166.772 304.258 166.84 304.562 166.84C304.714 166.84 304.85 166.828 304.97 166.804C305.09 166.78 305.23 166.74 305.39 166.684V167.464C305.23 167.52 305.062 167.56 304.886 167.584C304.71 167.608 304.538 167.62 304.37 167.62ZM308.485 167.608C308.069 167.608 307.701 167.532 307.381 167.38C307.061 167.228 306.809 167.02 306.625 166.756C306.449 166.484 306.361 166.172 306.361 165.82C306.361 165.468 306.453 165.164 306.637 164.908C306.821 164.644 307.077 164.44 307.405 164.296C307.733 164.152 308.117 164.08 308.557 164.08C308.893 164.08 309.209 164.116 309.505 164.188C309.809 164.26 310.089 164.376 310.345 164.536V163.732C310.345 163.252 310.217 162.892 309.961 162.652C309.705 162.404 309.329 162.28 308.833 162.28C308.561 162.28 308.281 162.32 307.993 162.4C307.713 162.48 307.401 162.608 307.057 162.784L306.733 162.112C307.517 161.736 308.253 161.548 308.941 161.548C309.669 161.548 310.229 161.728 310.621 162.088C311.013 162.44 311.209 162.948 311.209 163.612V167.5H310.345V166.816C310.089 167.08 309.805 167.28 309.493 167.416C309.181 167.544 308.845 167.608 308.485 167.608ZM307.201 165.796C307.201 166.14 307.333 166.416 307.597 166.624C307.869 166.832 308.225 166.936 308.665 166.936C308.993 166.936 309.293 166.88 309.565 166.768C309.845 166.656 310.105 166.488 310.345 166.264V165.136C310.097 164.992 309.841 164.888 309.577 164.824C309.313 164.752 309.017 164.716 308.689 164.716C308.241 164.716 307.881 164.816 307.609 165.016C307.337 165.208 307.201 165.468 307.201 165.796ZM312.99 167.5V158.836L313.866 158.656V164.272L316.65 161.644H317.706L314.73 164.428L317.838 167.5H316.686L313.866 164.704V167.5H312.99ZM321.02 167.62C320.476 167.62 319.984 167.488 319.544 167.224C319.104 166.952 318.756 166.588 318.5 166.132C318.244 165.668 318.116 165.148 318.116 164.572C318.116 163.996 318.236 163.48 318.476 163.024C318.724 162.568 319.056 162.208 319.472 161.944C319.888 161.68 320.352 161.548 320.864 161.548C321.384 161.548 321.844 161.68 322.244 161.944C322.652 162.2 322.972 162.552 323.204 163C323.444 163.44 323.564 163.94 323.564 164.5V164.764H318.968C319 165.164 319.108 165.524 319.292 165.844C319.484 166.156 319.732 166.404 320.036 166.588C320.348 166.764 320.688 166.852 321.056 166.852C321.36 166.852 321.652 166.8 321.932 166.696C322.22 166.584 322.464 166.436 322.664 166.252L323.216 166.84C322.88 167.104 322.532 167.3 322.172 167.428C321.812 167.556 321.428 167.62 321.02 167.62ZM318.992 164.14H322.7C322.66 163.788 322.552 163.476 322.376 163.204C322.208 162.924 321.992 162.704 321.728 162.544C321.472 162.384 321.184 162.304 320.864 162.304C320.544 162.304 320.252 162.384 319.988 162.544C319.724 162.696 319.504 162.912 319.328 163.192C319.16 163.464 319.048 163.78 318.992 164.14ZM326.931 167.62C326.451 167.62 326.007 167.548 325.599 167.404C325.191 167.252 324.843 167.036 324.555 166.756L325.023 166.18C325.375 166.436 325.699 166.624 325.995 166.744C326.291 166.856 326.595 166.912 326.907 166.912C327.331 166.912 327.683 166.812 327.963 166.612C328.243 166.412 328.383 166.156 328.383 165.844C328.383 165.604 328.299 165.416 328.131 165.28C327.971 165.144 327.703 165.04 327.327 164.968L326.367 164.8C325.799 164.696 325.379 164.52 325.107 164.272C324.843 164.024 324.711 163.688 324.711 163.264C324.711 162.928 324.799 162.632 324.975 162.376C325.159 162.12 325.411 161.92 325.731 161.776C326.051 161.624 326.415 161.548 326.823 161.548C327.223 161.548 327.603 161.608 327.963 161.728C328.323 161.84 328.687 162.024 329.055 162.28L328.623 162.892C328.319 162.676 328.015 162.52 327.711 162.424C327.407 162.32 327.099 162.268 326.787 162.268C326.403 162.268 326.095 162.352 325.863 162.52C325.631 162.688 325.515 162.916 325.515 163.204C325.515 163.444 325.587 163.628 325.731 163.756C325.883 163.884 326.147 163.98 326.523 164.044L327.507 164.224C328.099 164.328 328.531 164.508 328.803 164.764C329.075 165.02 329.211 165.364 329.211 165.796C329.211 166.14 329.111 166.452 328.911 166.732C328.711 167.004 328.439 167.22 328.095 167.38C327.751 167.54 327.363 167.62 326.931 167.62ZM331.027 167.596C330.851 167.596 330.699 167.532 330.571 167.404C330.451 167.276 330.391 167.124 330.391 166.948C330.391 166.764 330.451 166.612 330.571 166.492C330.699 166.364 330.851 166.3 331.027 166.3C331.203 166.3 331.351 166.364 331.471 166.492C331.599 166.612 331.663 166.764 331.663 166.948C331.663 167.124 331.599 167.276 331.471 167.404C331.351 167.532 331.203 167.596 331.027 167.596Z" fill="#0066CC"/>
<path fill-rule="evenodd" clip-rule="evenodd" d="M349.281 170.562C353.026 170.562 356.062 167.527 356.062 163.781C356.062 160.037 353.026 157 349.281 157C345.536 157 342.5 160.037 342.5 163.781C342.5 167.527 345.536 170.562 349.281 170.562ZM349.281 162.305C348.647 162.305 348.133 161.791 348.133 161.156C348.133 160.522 348.647 160.008 349.281 160.008C349.916 160.008 350.43 160.522 350.43 161.156C350.43 161.791 349.916 162.305 349.281 162.305ZM350.484 167.281H348.078C347.897 167.281 347.75 167.134 347.75 166.953V166.297C347.75 166.116 347.897 165.969 348.078 165.969H348.406V164.219H348.078C347.897 164.219 347.75 164.072 347.75 163.891V163.234C347.75 163.053 347.897 162.906 348.078 162.906H349.828C350.009 162.906 350.156 163.053 350.156 163.234V165.969H350.484C350.666 165.969 350.812 166.116 350.812 166.297V166.953C350.812 167.134 350.666 167.281 350.484 167.281Z" fill="#0066CC"/>
<path d="M299 24C299 21.7909 300.791 20 303 20H333C335.209 20 337 21.7909 337 24V48C337 50.2091 335.209 52 333 52H303C300.791 52 299 50.2091 299 48V24Z" fill="#C806CC"/>
<path d="M317.888 42V31.254L315.62 32.208V30.624L318.536 29.4H319.67V42H317.888Z" fill="white"/>
<path d="M318 77.3333C316.527 77.3333 315.333 78.5272 315.333 80C315.333 81.4728 316.527 82.6667 318 82.6667C319.473 82.6667 320.667 81.4728 320.667 80C320.667 78.5272 319.473 77.3333 318 77.3333ZM317.5 52L317.5 80L318.5 80L318.5 52L317.5 52Z" fill="#C806CC"/>
<path d="M363 24C363 21.7909 364.791 20 367 20H397C399.209 20 401 21.7909 401 24V48C401 50.2091 399.209 52 397 52H367C364.791 52 363 50.2091 363 48V24Z" fill="#C806CC"/>
<path d="M377.89 42V40.74L383.002 35.304C383.518 34.764 383.866 34.302 384.046 33.918C384.238 33.534 384.334 33.126 384.334 32.694C384.334 32.13 384.106 31.662 383.65 31.29C383.194 30.918 382.618 30.732 381.922 30.732C381.346 30.732 380.806 30.846 380.302 31.074C379.798 31.302 379.24 31.698 378.628 32.262L377.656 31.074C378.988 29.826 380.422 29.202 381.958 29.202C382.762 29.202 383.47 29.346 384.082 29.634C384.694 29.922 385.168 30.324 385.504 30.84C385.852 31.344 386.026 31.926 386.026 32.586C386.026 33.006 385.972 33.396 385.864 33.756C385.756 34.104 385.57 34.476 385.306 34.872C385.042 35.256 384.67 35.7 384.19 36.204L380.086 40.524L386.278 40.506V42H377.89Z" fill="white"/>
<path d="M382 77.3333C380.527 77.3333 379.333 78.5272 379.333 80C379.333 81.4728 380.527 82.6667 382 82.6667C383.473 82.6667 384.667 81.4728 384.667 80C384.667 78.5272 383.473 77.3333 382 77.3333ZM381.5 52L381.5 80L382.5 80L382.5 52L381.5 52Z" fill="#C806CC"/>
<path d="M427 24C427 21.7909 428.791 20 431 20H461C463.209 20 465 21.7909 465 24V48C465 50.2091 463.209 52 461 52H431C428.791 52 427 50.2091 427 48V24Z" fill="#C806CC"/>
<path d="M445.859 42.198C444.959 42.198 444.113 42.042 443.321 41.73C442.541 41.406 441.863 40.944 441.287 40.344L442.457 39.228C442.961 39.756 443.471 40.134 443.987 40.362C444.515 40.578 445.133 40.686 445.841 40.686C446.693 40.686 447.383 40.476 447.911 40.056C448.451 39.636 448.721 39.096 448.721 38.436C448.721 37.812 448.493 37.308 448.037 36.924C447.593 36.54 447.017 36.348 446.309 36.348H444.779V34.89H446.183C446.819 34.89 447.329 34.704 447.713 34.332C448.097 33.96 448.289 33.474 448.289 32.874C448.289 32.466 448.181 32.106 447.965 31.794C447.749 31.47 447.449 31.218 447.065 31.038C446.693 30.846 446.267 30.75 445.787 30.75C445.151 30.75 444.587 30.864 444.095 31.092C443.615 31.308 443.117 31.692 442.601 32.244L441.431 31.128C442.007 30.504 442.673 30.03 443.429 29.706C444.185 29.37 444.983 29.202 445.823 29.202C446.639 29.202 447.359 29.352 447.983 29.652C448.619 29.952 449.117 30.366 449.477 30.894C449.849 31.422 450.035 32.028 450.035 32.712C450.035 33.384 449.813 33.978 449.369 34.494C448.937 35.01 448.367 35.37 447.659 35.574C448.511 35.754 449.189 36.114 449.693 36.654C450.197 37.182 450.449 37.806 450.449 38.526C450.449 39.234 450.251 39.864 449.855 40.416C449.471 40.968 448.931 41.406 448.235 41.73C447.539 42.042 446.747 42.198 445.859 42.198Z" fill="white"/>
<path d="M446 77.3333C444.527 77.3333 443.333 78.5272 443.333 80C443.333 81.4728 444.527 82.6667 446 82.6667C447.473 82.6667 448.667 81.4728 448.667 80C448.667 78.5272 447.473 77.3333 446 77.3333ZM445.5 52L445.5 80L446.5 80L446.5 52L445.5 52Z" fill="#C806CC"/>
</svg>
