<svg width="403" height="343" viewBox="0 0 403 343" fill="none" xmlns="http://www.w3.org/2000/svg">
<g clip-path="url(#clip0_759_63665)">
<rect width="403" height="343" fill="white"/>
<g clip-path="url(#clip1_759_63665)">
<rect width="375" height="960" transform="translate(14)" fill="white"/>
<path fill-rule="evenodd" clip-rule="evenodd" d="M58.0985 47.2065L58.7066 46.5984C59.0424 46.2626 59.0424 45.7182 58.7066 45.3822L55.9704 42.6459L58.7066 39.9096C59.0424 39.5738 59.0424 39.0294 58.7066 38.6933L58.0985 38.0852C57.7627 37.7494 57.2183 37.7494 56.8823 38.0852L54.146 40.8215L51.4097 38.0852C51.0739 37.7494 50.5295 37.7494 50.1935 38.0852L49.5853 38.6933C49.2495 39.0291 49.2495 39.5735 49.5853 39.9096L52.3216 42.6459L49.5853 45.3822C49.2495 45.7179 49.2495 46.2623 49.5853 46.5984L50.1935 47.2065C50.5293 47.5423 51.0739 47.5423 51.4097 47.2065L54.146 44.4702L56.8823 47.2065C57.218 47.5423 57.7627 47.5423 58.0985 47.2065Z" fill="#1F1F1F"/>
<path d="M267 42.5C267 32.2827 275.283 24 285.5 24H355.5C365.717 24 374 32.2827 374 42.5V42.5C374 52.7173 365.717 61 355.5 61H285.5C275.283 61 267 52.7173 267 42.5V42.5Z" fill="#0066CC"/>
<path d="M292.246 47V37.2H293.366L299.106 45.32L299.078 37.2H300.1V47H299.12L293.24 38.698L293.268 47H292.246ZM305.48 47.14C304.845 47.14 304.271 46.986 303.758 46.678C303.244 46.3607 302.838 45.936 302.54 45.404C302.241 44.8627 302.092 44.256 302.092 43.584C302.092 42.912 302.232 42.31 302.512 41.778C302.801 41.246 303.188 40.826 303.674 40.518C304.159 40.21 304.7 40.056 305.298 40.056C305.904 40.056 306.441 40.21 306.908 40.518C307.384 40.8167 307.757 41.2273 308.028 41.75C308.308 42.2633 308.448 42.8467 308.448 43.5V43.808H303.086C303.123 44.2747 303.249 44.6947 303.464 45.068C303.688 45.432 303.977 45.7213 304.332 45.936C304.696 46.1413 305.092 46.244 305.522 46.244C305.876 46.244 306.217 46.1833 306.544 46.062C306.88 45.9313 307.164 45.7587 307.398 45.544L308.042 46.23C307.65 46.538 307.244 46.7667 306.824 46.916C306.404 47.0653 305.956 47.14 305.48 47.14ZM303.114 43.08H307.44C307.393 42.6693 307.267 42.3053 307.062 41.988C306.866 41.6613 306.614 41.4047 306.306 41.218C306.007 41.0313 305.671 40.938 305.298 40.938C304.924 40.938 304.584 41.0313 304.276 41.218C303.968 41.3953 303.711 41.6473 303.506 41.974C303.31 42.2913 303.179 42.66 303.114 43.08ZM311.274 47L309.398 40.168H310.392L311.82 45.628L313.458 40.168H314.368L316.006 45.628L317.42 40.168H318.386L316.524 47H315.53L313.906 41.484L312.282 47H311.274ZM326.165 47.112C325.53 47.112 324.956 46.958 324.443 46.65C323.939 46.3327 323.537 45.908 323.239 45.376C322.94 44.8347 322.791 44.2373 322.791 43.584C322.791 42.9213 322.94 42.324 323.239 41.792C323.537 41.26 323.939 40.84 324.443 40.532C324.956 40.2147 325.53 40.056 326.165 40.056C326.669 40.056 327.149 40.1493 327.607 40.336C328.064 40.5227 328.461 40.784 328.797 41.12L328.139 41.834C327.896 41.5633 327.602 41.3533 327.257 41.204C326.911 41.0547 326.561 40.98 326.207 40.98C325.759 40.98 325.353 41.0967 324.989 41.33C324.634 41.5633 324.349 41.876 324.135 42.268C323.92 42.66 323.813 43.0987 323.813 43.584C323.813 44.0693 323.92 44.508 324.135 44.9C324.349 45.292 324.634 45.6047 324.989 45.838C325.353 46.0713 325.759 46.188 326.207 46.188C326.561 46.188 326.911 46.1133 327.257 45.964C327.602 45.8053 327.896 45.5953 328.139 45.334L328.797 46.048C328.461 46.384 328.064 46.6453 327.607 46.832C327.149 47.0187 326.669 47.112 326.165 47.112ZM330.222 47V36.892L331.244 36.682V41.274C331.505 40.8633 331.818 40.56 332.182 40.364C332.546 40.1587 332.957 40.056 333.414 40.056C333.909 40.056 334.338 40.1633 334.702 40.378C335.075 40.5833 335.365 40.8773 335.57 41.26C335.785 41.6333 335.892 42.072 335.892 42.576V47H334.87V42.87C334.87 42.2633 334.702 41.7873 334.366 41.442C334.039 41.0873 333.596 40.91 333.036 40.91C332.663 40.91 332.322 40.9987 332.014 41.176C331.706 41.3533 331.449 41.6147 331.244 41.96V47H330.222ZM340.06 47.126C339.575 47.126 339.146 47.0373 338.772 46.86C338.399 46.6827 338.105 46.44 337.89 46.132C337.685 45.8147 337.582 45.4507 337.582 45.04C337.582 44.6293 337.69 44.2747 337.904 43.976C338.119 43.668 338.418 43.43 338.8 43.262C339.183 43.094 339.631 43.01 340.144 43.01C340.536 43.01 340.905 43.052 341.25 43.136C341.605 43.22 341.932 43.3553 342.23 43.542V42.604C342.23 42.044 342.081 41.624 341.782 41.344C341.484 41.0547 341.045 40.91 340.466 40.91C340.149 40.91 339.822 40.9567 339.486 41.05C339.16 41.1433 338.796 41.2927 338.394 41.498L338.016 40.714C338.931 40.2753 339.79 40.056 340.592 40.056C341.442 40.056 342.095 40.266 342.552 40.686C343.01 41.0967 343.238 41.6893 343.238 42.464V47H342.23V46.202C341.932 46.51 341.6 46.7433 341.236 46.902C340.872 47.0513 340.48 47.126 340.06 47.126ZM338.562 45.012C338.562 45.4133 338.716 45.7353 339.024 45.978C339.342 46.2207 339.757 46.342 340.27 46.342C340.653 46.342 341.003 46.2767 341.32 46.146C341.647 46.0153 341.95 45.8193 342.23 45.558V44.242C341.941 44.074 341.642 43.9527 341.334 43.878C341.026 43.794 340.681 43.752 340.298 43.752C339.776 43.752 339.356 43.8687 339.038 44.102C338.721 44.326 338.562 44.6293 338.562 45.012ZM347.715 47.14C347.127 47.14 346.679 47 346.371 46.72C346.072 46.4307 345.923 46.0153 345.923 45.474V41.008H344.509V40.168H345.923V38.292L346.945 38.054V40.168H348.905V41.008H346.945V45.208C346.945 45.572 347.019 45.8333 347.169 45.992C347.327 46.1507 347.584 46.23 347.939 46.23C348.116 46.23 348.275 46.216 348.415 46.188C348.555 46.16 348.718 46.1133 348.905 46.048V46.958C348.718 47.0233 348.522 47.07 348.317 47.098C348.111 47.126 347.911 47.14 347.715 47.14Z" fill="white"/>
<path d="M44 85.5H368C371.038 85.5 373.5 87.9624 373.5 91V116C373.5 119.038 371.038 121.5 368 121.5H44C40.9624 121.5 38.5 119.038 38.5 116V91C38.5 87.9624 40.9624 85.5 44 85.5Z" fill="white"/>
<path d="M44 85.5H368C371.038 85.5 373.5 87.9624 373.5 91V116C373.5 119.038 371.038 121.5 368 121.5H44C40.9624 121.5 38.5 119.038 38.5 116V91C38.5 87.9624 40.9624 85.5 44 85.5Z" stroke="#C7C7C7"/>
<path fill-rule="evenodd" clip-rule="evenodd" d="M63.032 110.809L63.8058 110.035C64.0629 109.778 64.0629 109.362 63.8086 109.105L61.0824 106.379C60.9593 106.256 60.7926 106.187 60.6175 106.187H60.1719C60.9265 105.222 61.375 104.008 61.375 102.687C61.375 99.5457 58.8293 97 55.6875 97C52.5457 97 50 99.5457 50 102.687C50 105.829 52.5457 108.375 55.6875 108.375C57.0082 108.375 58.2223 107.927 59.1875 107.172V107.618C59.1875 107.793 59.2558 107.959 59.3789 108.082L62.1051 110.809C62.3621 111.066 62.7777 111.066 63.032 110.809ZM55.6875 106.187C53.7543 106.187 52.1875 104.623 52.1875 102.687C52.1875 100.754 53.7516 99.1875 55.6875 99.1875C57.6207 99.1875 59.1875 100.752 59.1875 102.687C59.1875 104.621 57.6234 106.187 55.6875 106.187Z" fill="#1F1F1F"/>
<path d="M76.246 108V98.2H82.938V99.152H77.324V102.652H81.16V103.59H77.324V108H76.246ZM84.3758 108V101.168H85.3978V108H84.3758ZM84.8938 99.474C84.6885 99.474 84.5112 99.404 84.3618 99.264C84.2218 99.1147 84.1518 98.942 84.1518 98.746C84.1518 98.55 84.2218 98.382 84.3618 98.242C84.5112 98.0927 84.6885 98.018 84.8938 98.018C85.0992 98.018 85.2718 98.0927 85.4118 98.242C85.5612 98.382 85.6358 98.55 85.6358 98.746C85.6358 98.942 85.5612 99.1147 85.4118 99.264C85.2718 99.404 85.0992 99.474 84.8938 99.474ZM87.4934 108V101.168H88.5154V102.274C88.7767 101.863 89.0894 101.56 89.4534 101.364C89.8174 101.159 90.228 101.056 90.6854 101.056C91.18 101.056 91.6094 101.163 91.9734 101.378C92.3467 101.583 92.636 101.877 92.8414 102.26C93.056 102.633 93.1634 103.072 93.1634 103.576V108H92.1414V103.87C92.1414 103.263 91.9734 102.787 91.6374 102.442C91.3107 102.087 90.8674 101.91 90.3074 101.91C89.934 101.91 89.5934 101.999 89.2854 102.176C88.9774 102.353 88.7207 102.615 88.5154 102.96V108H87.4934ZM98.06 108.098C97.472 108.098 96.94 107.944 96.464 107.636C95.988 107.319 95.61 106.899 95.33 106.376C95.05 105.844 94.91 105.251 94.91 104.598C94.91 103.935 95.05 103.343 95.33 102.82C95.6193 102.288 96.0066 101.868 96.492 101.56C96.9773 101.243 97.5186 101.084 98.116 101.084C98.536 101.084 98.928 101.168 99.292 101.336C99.656 101.495 99.9733 101.728 100.244 102.036V97.892L101.266 97.682V108H100.244V107.09C99.9826 107.417 99.6653 107.669 99.292 107.846C98.9186 108.014 98.508 108.098 98.06 108.098ZM98.312 107.202C98.7133 107.202 99.082 107.123 99.418 106.964C99.754 106.805 100.029 106.581 100.244 106.292V102.904C100.02 102.615 99.7353 102.391 99.39 102.232C99.054 102.064 98.6946 101.98 98.312 101.98C97.8546 101.98 97.444 102.092 97.08 102.316C96.7253 102.54 96.4406 102.848 96.226 103.24C96.0206 103.632 95.918 104.08 95.918 104.584C95.918 105.079 96.0206 105.527 96.226 105.928C96.4406 106.32 96.7253 106.633 97.08 106.866C97.444 107.09 97.8546 107.202 98.312 107.202ZM106.634 108V97.99L107.656 97.78V102.106C107.917 101.779 108.235 101.527 108.608 101.35C108.981 101.173 109.397 101.084 109.854 101.084C110.451 101.084 110.983 101.243 111.45 101.56C111.926 101.868 112.304 102.288 112.584 102.82C112.864 103.343 113.004 103.931 113.004 104.584C113.004 105.237 112.859 105.83 112.57 106.362C112.29 106.894 111.907 107.319 111.422 107.636C110.946 107.944 110.405 108.098 109.798 108.098C109.369 108.098 108.967 108.014 108.594 107.846C108.23 107.669 107.913 107.421 107.642 107.104V108H106.634ZM109.602 107.216C110.059 107.216 110.465 107.104 110.82 106.88C111.184 106.647 111.469 106.334 111.674 105.942C111.889 105.541 111.996 105.093 111.996 104.598C111.996 104.094 111.889 103.646 111.674 103.254C111.469 102.862 111.184 102.554 110.82 102.33C110.465 102.097 110.059 101.98 109.602 101.98C109.201 101.98 108.827 102.064 108.482 102.232C108.146 102.391 107.871 102.619 107.656 102.918V106.264C107.88 106.563 108.16 106.796 108.496 106.964C108.841 107.132 109.21 107.216 109.602 107.216ZM114.885 111.066C114.67 111.066 114.451 111.033 114.227 110.968V110.058C114.32 110.077 114.418 110.091 114.521 110.1C114.624 110.109 114.712 110.114 114.787 110.114C115.048 110.114 115.263 110.044 115.431 109.904C115.608 109.764 115.758 109.545 115.879 109.246L116.383 108L113.751 101.168H114.885L116.957 106.782L119.155 101.168H120.289L116.845 109.554C116.696 109.918 116.532 110.212 116.355 110.436C116.178 110.66 115.972 110.819 115.739 110.912C115.506 111.015 115.221 111.066 114.885 111.066ZM124.831 108V101.168H125.853V102.274C126.115 101.863 126.427 101.56 126.791 101.364C127.155 101.159 127.566 101.056 128.023 101.056C128.518 101.056 128.947 101.163 129.311 101.378C129.685 101.583 129.974 101.877 130.179 102.26C130.394 102.633 130.501 103.072 130.501 103.576V108H129.479V103.87C129.479 103.263 129.311 102.787 128.975 102.442C128.649 102.087 128.205 101.91 127.645 101.91C127.272 101.91 126.931 101.999 126.623 102.176C126.315 102.353 126.059 102.615 125.853 102.96V108H124.831ZM134.67 108.126C134.185 108.126 133.755 108.037 133.382 107.86C133.009 107.683 132.715 107.44 132.5 107.132C132.295 106.815 132.192 106.451 132.192 106.04C132.192 105.629 132.299 105.275 132.514 104.976C132.729 104.668 133.027 104.43 133.41 104.262C133.793 104.094 134.241 104.01 134.754 104.01C135.146 104.01 135.515 104.052 135.86 104.136C136.215 104.22 136.541 104.355 136.84 104.542V103.604C136.84 103.044 136.691 102.624 136.392 102.344C136.093 102.055 135.655 101.91 135.076 101.91C134.759 101.91 134.432 101.957 134.096 102.05C133.769 102.143 133.405 102.293 133.004 102.498L132.626 101.714C133.541 101.275 134.399 101.056 135.202 101.056C136.051 101.056 136.705 101.266 137.162 101.686C137.619 102.097 137.848 102.689 137.848 103.464V108H136.84V107.202C136.541 107.51 136.21 107.743 135.846 107.902C135.482 108.051 135.09 108.126 134.67 108.126ZM133.172 106.012C133.172 106.413 133.326 106.735 133.634 106.978C133.951 107.221 134.367 107.342 134.88 107.342C135.263 107.342 135.613 107.277 135.93 107.146C136.257 107.015 136.56 106.819 136.84 106.558V105.242C136.551 105.074 136.252 104.953 135.944 104.878C135.636 104.794 135.291 104.752 134.908 104.752C134.385 104.752 133.965 104.869 133.648 105.102C133.331 105.326 133.172 105.629 133.172 106.012ZM139.925 108V101.168H140.947V102.232C141.208 101.84 141.507 101.546 141.843 101.35C142.179 101.154 142.557 101.056 142.977 101.056C143.462 101.056 143.887 101.177 144.251 101.42C144.615 101.653 144.89 101.975 145.077 102.386C145.348 101.947 145.67 101.616 146.043 101.392C146.426 101.168 146.864 101.056 147.359 101.056C147.816 101.056 148.218 101.163 148.563 101.378C148.918 101.593 149.193 101.891 149.389 102.274C149.585 102.647 149.683 103.086 149.683 103.59V108H148.661V103.842C148.661 103.245 148.512 102.773 148.213 102.428C147.914 102.083 147.504 101.91 146.981 101.91C146.626 101.91 146.304 101.999 146.015 102.176C145.735 102.353 145.488 102.624 145.273 102.988C145.292 103.081 145.306 103.179 145.315 103.282C145.324 103.385 145.329 103.487 145.329 103.59V108H144.307V103.842C144.307 103.245 144.153 102.773 143.845 102.428C143.546 102.083 143.136 101.91 142.613 101.91C141.913 101.91 141.358 102.246 140.947 102.918V108H139.925ZM154.831 108.14C154.197 108.14 153.623 107.986 153.109 107.678C152.596 107.361 152.19 106.936 151.891 106.404C151.593 105.863 151.443 105.256 151.443 104.584C151.443 103.912 151.583 103.31 151.863 102.778C152.153 102.246 152.54 101.826 153.025 101.518C153.511 101.21 154.052 101.056 154.649 101.056C155.256 101.056 155.793 101.21 156.259 101.518C156.735 101.817 157.109 102.227 157.379 102.75C157.659 103.263 157.799 103.847 157.799 104.5V104.808H152.437C152.475 105.275 152.601 105.695 152.815 106.068C153.039 106.432 153.329 106.721 153.683 106.936C154.047 107.141 154.444 107.244 154.873 107.244C155.228 107.244 155.569 107.183 155.895 107.062C156.231 106.931 156.516 106.759 156.749 106.544L157.393 107.23C157.001 107.538 156.595 107.767 156.175 107.916C155.755 108.065 155.307 108.14 154.831 108.14ZM152.465 104.08H156.791C156.745 103.669 156.619 103.305 156.413 102.988C156.217 102.661 155.965 102.405 155.657 102.218C155.359 102.031 155.023 101.938 154.649 101.938C154.276 101.938 153.935 102.031 153.627 102.218C153.319 102.395 153.063 102.647 152.857 102.974C152.661 103.291 152.531 103.66 152.465 104.08Z" fill="#4D4D4D"/>
<rect width="327" height="162" transform="translate(38 146)" fill="white"/>
<path fill-rule="evenodd" clip-rule="evenodd" d="M227.258 196.55C228.152 196.55 228.959 196.016 229.319 195.189C229.669 194.363 229.504 193.41 228.891 192.759C228.852 192.73 226.704 190.416 225.217 187.432C227.89 184.798 229.494 181.492 229.494 177.886C229.494 170.109 222.057 163.683 212.365 162.536C209.303 156.937 202.11 153 193.72 153C182.551 153 173.501 159.96 173.501 168.554C173.501 172.15 175.105 175.456 177.778 178.1C176.291 181.084 174.152 183.398 174.113 183.437C173.501 184.088 173.326 185.041 173.685 185.867C174.035 186.693 174.852 187.228 175.746 187.228C180.947 187.228 185.146 185.264 187.917 183.456C188.811 183.66 189.735 183.816 190.678 183.932C193.73 189.512 200.895 193.44 209.274 193.44C211.296 193.44 213.24 193.206 215.087 192.779C217.858 194.577 222.048 196.55 227.258 196.55ZM181.18 181.619C181.443 181.162 181.705 180.676 181.958 180.18L183.465 177.157L181.054 174.775C179.741 173.473 178.167 171.344 178.167 168.554C178.167 162.653 185.292 157.666 193.72 157.666C202.149 157.666 209.274 162.653 209.274 168.554C209.274 174.454 202.149 179.441 193.72 179.441C192.116 179.441 190.512 179.257 188.957 178.897L187.032 178.46L185.37 179.539C183.999 180.423 182.599 181.123 181.18 181.619ZM221.824 190.941C220.405 190.446 219.005 189.746 217.634 188.861L215.972 187.782L214.037 188.229C212.482 188.589 210.878 188.774 209.274 188.774C204.025 188.774 199.339 186.82 196.51 183.942C206.358 182.892 213.94 176.418 213.94 168.554C213.94 168.223 213.901 167.902 213.872 167.582C220.133 168.991 224.828 173.103 224.828 177.886C224.828 180.676 223.253 182.805 221.941 184.107L219.54 186.479L221.046 189.503C221.299 189.998 221.562 190.484 221.824 190.941Z" fill="#707070"/>
<path d="M134.701 238.2C133.581 238.2 132.501 237.98 131.461 237.54C130.421 237.1 129.501 236.48 128.701 235.68L129.981 234.2C130.741 234.947 131.514 235.5 132.301 235.86C133.101 236.22 133.934 236.4 134.801 236.4C135.481 236.4 136.074 236.307 136.581 236.12C137.101 235.92 137.501 235.64 137.781 235.28C138.061 234.92 138.201 234.513 138.201 234.06C138.201 233.433 137.981 232.953 137.541 232.62C137.101 232.287 136.374 232.033 135.361 231.86L133.021 231.48C131.741 231.253 130.781 230.84 130.141 230.24C129.514 229.64 129.201 228.84 129.201 227.84C129.201 227.04 129.414 226.34 129.841 225.74C130.268 225.127 130.868 224.653 131.641 224.32C132.428 223.987 133.334 223.82 134.361 223.82C135.374 223.82 136.368 223.987 137.341 224.32C138.328 224.64 139.214 225.107 140.001 225.72L138.841 227.32C137.334 226.173 135.808 225.6 134.261 225.6C133.354 225.6 132.621 225.793 132.061 226.18C131.501 226.553 131.221 227.053 131.221 227.68C131.221 228.253 131.414 228.693 131.801 229C132.188 229.293 132.828 229.507 133.721 229.64L135.981 230.02C137.461 230.26 138.548 230.693 139.241 231.32C139.934 231.947 140.281 232.807 140.281 233.9C140.281 234.753 140.048 235.507 139.581 236.16C139.114 236.8 138.461 237.3 137.621 237.66C136.781 238.02 135.808 238.2 134.701 238.2ZM146.054 238.18C145.067 238.18 144.314 237.953 143.794 237.5C143.274 237.033 143.014 236.36 143.014 235.48V229.5H140.854V227.82H143.014V225.22L144.994 224.74V227.82H147.994V229.5H144.994V235.02C144.994 235.54 145.107 235.913 145.334 236.14C145.574 236.353 145.96 236.46 146.494 236.46C146.774 236.46 147.02 236.44 147.234 236.4C147.46 236.36 147.7 236.3 147.954 236.22V237.9C147.687 237.993 147.374 238.06 147.014 238.1C146.667 238.153 146.347 238.18 146.054 238.18ZM152.687 238.18C151.954 238.18 151.307 238.053 150.747 237.8C150.187 237.533 149.747 237.167 149.427 236.7C149.107 236.233 148.947 235.693 148.947 235.08C148.947 234.12 149.314 233.367 150.047 232.82C150.78 232.26 151.787 231.98 153.067 231.98C154.067 231.98 154.994 232.173 155.847 232.56V231.48C155.847 230.027 155.02 229.3 153.367 229.3C152.9 229.3 152.414 229.373 151.907 229.52C151.4 229.653 150.834 229.867 150.207 230.16L149.467 228.66C150.24 228.3 150.96 228.04 151.627 227.88C152.294 227.707 152.967 227.62 153.647 227.62C154.967 227.62 155.987 227.933 156.707 228.56C157.44 229.187 157.807 230.08 157.807 231.24V238H155.847V237.12C155.394 237.48 154.907 237.747 154.387 237.92C153.867 238.093 153.3 238.18 152.687 238.18ZM150.867 235.04C150.867 235.533 151.074 235.933 151.487 236.24C151.914 236.547 152.467 236.7 153.147 236.7C154.24 236.7 155.14 236.373 155.847 235.72V234C155.114 233.573 154.24 233.36 153.227 233.36C152.494 233.36 151.914 233.513 151.487 233.82C151.074 234.113 150.867 234.52 150.867 235.04ZM160.112 238V227.82H162.112V229.12C162.432 228.64 162.825 228.267 163.292 228C163.772 227.72 164.312 227.58 164.912 227.58C165.325 227.593 165.665 227.653 165.932 227.76V229.56C165.545 229.413 165.152 229.34 164.752 229.34C164.165 229.34 163.645 229.5 163.192 229.82C162.738 230.127 162.378 230.58 162.112 231.18V238H160.112ZM171.894 238.18C170.907 238.18 170.154 237.953 169.634 237.5C169.114 237.033 168.854 236.36 168.854 235.48V229.5H166.694V227.82H168.854V225.22L170.834 224.74V227.82H173.834V229.5H170.834V235.02C170.834 235.54 170.947 235.913 171.174 236.14C171.414 236.353 171.8 236.46 172.334 236.46C172.614 236.46 172.86 236.44 173.074 236.4C173.3 236.36 173.54 236.3 173.794 236.22V237.9C173.527 237.993 173.214 238.06 172.854 238.1C172.507 238.153 172.187 238.18 171.894 238.18ZM182.707 238.18C181.973 238.18 181.327 238.053 180.767 237.8C180.207 237.533 179.767 237.167 179.447 236.7C179.127 236.233 178.967 235.693 178.967 235.08C178.967 234.12 179.333 233.367 180.067 232.82C180.8 232.26 181.807 231.98 183.087 231.98C184.087 231.98 185.013 232.173 185.867 232.56V231.48C185.867 230.027 185.04 229.3 183.387 229.3C182.92 229.3 182.433 229.373 181.927 229.52C181.42 229.653 180.853 229.867 180.227 230.16L179.487 228.66C180.26 228.3 180.98 228.04 181.647 227.88C182.313 227.707 182.987 227.62 183.667 227.62C184.987 227.62 186.007 227.933 186.727 228.56C187.46 229.187 187.827 230.08 187.827 231.24V238H185.867V237.12C185.413 237.48 184.927 237.747 184.407 237.92C183.887 238.093 183.32 238.18 182.707 238.18ZM180.887 235.04C180.887 235.533 181.093 235.933 181.507 236.24C181.933 236.547 182.487 236.7 183.167 236.7C184.26 236.7 185.16 236.373 185.867 235.72V234C185.133 233.573 184.26 233.36 183.247 233.36C182.513 233.36 181.933 233.513 181.507 233.82C181.093 234.113 180.887 234.52 180.887 235.04ZM194.311 238V227.82H196.311V228.86C197.098 228.033 198.118 227.62 199.371 227.62C200.158 227.62 200.844 227.787 201.431 228.12C202.031 228.453 202.498 228.92 202.831 229.52C203.178 230.12 203.351 230.813 203.351 231.6V238H201.351V231.94C201.351 231.14 201.124 230.513 200.671 230.06C200.218 229.593 199.598 229.36 198.811 229.36C198.278 229.36 197.798 229.473 197.371 229.7C196.944 229.927 196.591 230.253 196.311 230.68V238H194.311ZM210.539 238.18C209.539 238.18 208.632 237.947 207.819 237.48C207.019 237.013 206.379 236.38 205.899 235.58C205.432 234.78 205.199 233.887 205.199 232.9C205.199 231.927 205.425 231.047 205.879 230.26C206.332 229.46 206.945 228.827 207.719 228.36C208.492 227.88 209.352 227.64 210.299 227.64C211.245 227.64 212.085 227.88 212.819 228.36C213.552 228.827 214.132 229.467 214.559 230.28C214.999 231.08 215.219 231.987 215.219 233V233.56H207.199C207.305 234.12 207.512 234.62 207.819 235.06C208.139 235.5 208.539 235.847 209.019 236.1C209.512 236.353 210.045 236.48 210.619 236.48C211.112 236.48 211.585 236.407 212.039 236.26C212.505 236.1 212.892 235.873 213.199 235.58L214.479 236.84C213.879 237.293 213.259 237.633 212.619 237.86C211.992 238.073 211.299 238.18 210.539 238.18ZM207.219 232.06H213.239C213.159 231.527 212.972 231.06 212.679 230.66C212.399 230.247 212.045 229.927 211.619 229.7C211.205 229.46 210.752 229.34 210.259 229.34C209.485 229.34 208.819 229.593 208.259 230.1C207.712 230.593 207.365 231.247 207.219 232.06ZM218.828 238L215.988 227.82H217.928L219.908 235.3L222.228 227.82H223.948L226.268 235.3L228.248 227.82H230.128L227.268 238H225.348L223.068 230.54L220.768 238H218.828ZM240.517 238.18C239.543 238.18 238.657 237.947 237.857 237.48C237.07 237.013 236.443 236.38 235.977 235.58C235.51 234.78 235.277 233.887 235.277 232.9C235.277 231.913 235.51 231.027 235.977 230.24C236.443 229.44 237.07 228.807 237.857 228.34C238.657 227.86 239.543 227.62 240.517 227.62C241.29 227.62 242.03 227.767 242.737 228.06C243.457 228.353 244.077 228.767 244.597 229.3L243.357 230.68C242.97 230.253 242.537 229.933 242.057 229.72C241.577 229.507 241.077 229.4 240.557 229.4C239.943 229.4 239.383 229.553 238.877 229.86C238.383 230.167 237.99 230.587 237.697 231.12C237.403 231.653 237.257 232.247 237.257 232.9C237.257 233.553 237.403 234.153 237.697 234.7C237.99 235.233 238.39 235.653 238.897 235.96C239.403 236.267 239.97 236.42 240.597 236.42C241.623 236.42 242.537 236.013 243.337 235.2L244.557 236.48C244.023 237.027 243.403 237.447 242.697 237.74C242.003 238.033 241.277 238.18 240.517 238.18ZM246.166 238V224L248.166 223.56V228.86C248.953 228.033 249.973 227.62 251.226 227.62C252.013 227.62 252.7 227.787 253.286 228.12C253.886 228.453 254.353 228.92 254.686 229.52C255.033 230.12 255.206 230.813 255.206 231.6V238H253.206V231.94C253.206 231.14 252.98 230.513 252.526 230.06C252.073 229.593 251.453 229.36 250.666 229.36C250.133 229.36 249.653 229.473 249.226 229.7C248.8 229.927 248.446 230.253 248.166 230.68V238H246.166ZM260.734 238.18C260.001 238.18 259.354 238.053 258.794 237.8C258.234 237.533 257.794 237.167 257.474 236.7C257.154 236.233 256.994 235.693 256.994 235.08C256.994 234.12 257.361 233.367 258.094 232.82C258.827 232.26 259.834 231.98 261.114 231.98C262.114 231.98 263.041 232.173 263.894 232.56V231.48C263.894 230.027 263.067 229.3 261.414 229.3C260.947 229.3 260.461 229.373 259.954 229.52C259.447 229.653 258.881 229.867 258.254 230.16L257.514 228.66C258.287 228.3 259.007 228.04 259.674 227.88C260.341 227.707 261.014 227.62 261.694 227.62C263.014 227.62 264.034 227.933 264.754 228.56C265.487 229.187 265.854 230.08 265.854 231.24V238H263.894V237.12C263.441 237.48 262.954 237.747 262.434 237.92C261.914 238.093 261.347 238.18 260.734 238.18ZM258.914 235.04C258.914 235.533 259.121 235.933 259.534 236.24C259.961 236.547 260.514 236.7 261.194 236.7C262.287 236.7 263.187 236.373 263.894 235.72V234C263.161 233.573 262.287 233.36 261.274 233.36C260.541 233.36 259.961 233.513 259.534 233.82C259.121 234.113 258.914 234.52 258.914 235.04ZM272.226 238.18C271.239 238.18 270.486 237.953 269.966 237.5C269.446 237.033 269.186 236.36 269.186 235.48V229.5H267.026V227.82H269.186V225.22L271.166 224.74V227.82H274.166V229.5H271.166V235.02C271.166 235.54 271.279 235.913 271.506 236.14C271.746 236.353 272.132 236.46 272.666 236.46C272.946 236.46 273.192 236.44 273.406 236.4C273.632 236.36 273.872 236.3 274.126 236.22V237.9C273.859 237.993 273.546 238.06 273.186 238.1C272.839 238.153 272.519 238.18 272.226 238.18Z" fill="#151515"/>
<path d="M68.769 278L73.201 266.8H74.673L79.041 278H77.713L76.385 274.48H71.393L70.065 278H68.769ZM71.777 273.504H76.017L73.889 267.92L71.777 273.504ZM83.579 278.128C82.8537 278.128 82.1977 277.952 81.611 277.6C81.035 277.237 80.5763 276.752 80.235 276.144C79.8937 275.525 79.723 274.843 79.723 274.096C79.723 273.339 79.8937 272.656 80.235 272.048C80.5763 271.44 81.035 270.96 81.611 270.608C82.1977 270.245 82.8537 270.064 83.579 270.064C84.155 270.064 84.7043 270.171 85.227 270.384C85.7497 270.597 86.203 270.896 86.587 271.28L85.835 272.096C85.5577 271.787 85.2217 271.547 84.827 271.376C84.4323 271.205 84.0323 271.12 83.627 271.12C83.115 271.12 82.651 271.253 82.235 271.52C81.8297 271.787 81.5043 272.144 81.259 272.592C81.0137 273.04 80.891 273.541 80.891 274.096C80.891 274.651 81.0137 275.152 81.259 275.6C81.5043 276.048 81.8297 276.405 82.235 276.672C82.651 276.939 83.115 277.072 83.627 277.072C84.0323 277.072 84.4323 276.987 84.827 276.816C85.2217 276.635 85.5577 276.395 85.835 276.096L86.587 276.912C86.203 277.296 85.7497 277.595 85.227 277.808C84.7043 278.021 84.155 278.128 83.579 278.128ZM91.4852 278.128C90.7599 278.128 90.1039 277.952 89.5173 277.6C88.9413 277.237 88.4826 276.752 88.1413 276.144C87.7999 275.525 87.6293 274.843 87.6293 274.096C87.6293 273.339 87.7999 272.656 88.1413 272.048C88.4826 271.44 88.9413 270.96 89.5173 270.608C90.1039 270.245 90.7599 270.064 91.4852 270.064C92.0613 270.064 92.6106 270.171 93.1333 270.384C93.6559 270.597 94.1093 270.896 94.4933 271.28L93.7413 272.096C93.4639 271.787 93.1279 271.547 92.7333 271.376C92.3386 271.205 91.9386 271.12 91.5333 271.12C91.0213 271.12 90.5573 271.253 90.1413 271.52C89.7359 271.787 89.4106 272.144 89.1653 272.592C88.9199 273.04 88.7973 273.541 88.7973 274.096C88.7973 274.651 88.9199 275.152 89.1653 275.6C89.4106 276.048 89.7359 276.405 90.1413 276.672C90.5573 276.939 91.0213 277.072 91.5333 277.072C91.9386 277.072 92.3386 276.987 92.7333 276.816C93.1279 276.635 93.4639 276.395 93.7413 276.096L94.4933 276.912C94.1093 277.296 93.6559 277.595 93.1333 277.808C92.6106 278.021 92.0613 278.128 91.4852 278.128ZM99.4075 278.16C98.6822 278.16 98.0262 277.984 97.4395 277.632C96.8528 277.269 96.3888 276.784 96.0475 276.176C95.7062 275.557 95.5355 274.864 95.5355 274.096C95.5355 273.328 95.6955 272.64 96.0155 272.032C96.3462 271.424 96.7888 270.944 97.3435 270.592C97.8982 270.24 98.5168 270.064 99.1995 270.064C99.8928 270.064 100.506 270.24 101.04 270.592C101.584 270.933 102.01 271.403 102.32 272C102.64 272.587 102.8 273.253 102.8 274V274.352H96.6715C96.7142 274.885 96.8582 275.365 97.1035 275.792C97.3595 276.208 97.6902 276.539 98.0955 276.784C98.5115 277.019 98.9648 277.136 99.4555 277.136C99.8608 277.136 100.25 277.067 100.624 276.928C101.008 276.779 101.333 276.581 101.6 276.336L102.336 277.12C101.888 277.472 101.424 277.733 100.944 277.904C100.464 278.075 99.9515 278.16 99.4075 278.16ZM96.7035 273.52H101.648C101.594 273.051 101.45 272.635 101.216 272.272C100.992 271.899 100.704 271.605 100.352 271.392C100.01 271.179 99.6262 271.072 99.1995 271.072C98.7728 271.072 98.3835 271.179 98.0315 271.392C97.6795 271.595 97.3862 271.883 97.1515 272.256C96.9275 272.619 96.7782 273.04 96.7035 273.52ZM107.288 278.16C106.648 278.16 106.056 278.064 105.512 277.872C104.968 277.669 104.504 277.381 104.12 277.008L104.744 276.24C105.213 276.581 105.645 276.832 106.04 276.992C106.435 277.141 106.84 277.216 107.256 277.216C107.821 277.216 108.291 277.083 108.664 276.816C109.037 276.549 109.224 276.208 109.224 275.792C109.224 275.472 109.112 275.221 108.888 275.04C108.675 274.859 108.317 274.72 107.816 274.624L106.536 274.4C105.779 274.261 105.219 274.027 104.856 273.696C104.504 273.365 104.328 272.917 104.328 272.352C104.328 271.904 104.445 271.509 104.68 271.168C104.925 270.827 105.261 270.56 105.688 270.368C106.115 270.165 106.6 270.064 107.144 270.064C107.677 270.064 108.184 270.144 108.664 270.304C109.144 270.453 109.629 270.699 110.12 271.04L109.544 271.856C109.139 271.568 108.733 271.36 108.328 271.232C107.923 271.093 107.512 271.024 107.096 271.024C106.584 271.024 106.173 271.136 105.864 271.36C105.555 271.584 105.4 271.888 105.4 272.272C105.4 272.592 105.496 272.837 105.688 273.008C105.891 273.179 106.243 273.307 106.744 273.392L108.056 273.632C108.845 273.771 109.421 274.011 109.784 274.352C110.147 274.693 110.328 275.152 110.328 275.728C110.328 276.187 110.195 276.603 109.928 276.976C109.661 277.339 109.299 277.627 108.84 277.84C108.381 278.053 107.864 278.16 107.288 278.16ZM114.522 278.16C113.882 278.16 113.29 278.064 112.746 277.872C112.202 277.669 111.738 277.381 111.354 277.008L111.978 276.24C112.448 276.581 112.88 276.832 113.274 276.992C113.669 277.141 114.074 277.216 114.49 277.216C115.056 277.216 115.525 277.083 115.898 276.816C116.272 276.549 116.458 276.208 116.458 275.792C116.458 275.472 116.346 275.221 116.122 275.04C115.909 274.859 115.552 274.72 115.05 274.624L113.77 274.4C113.013 274.261 112.453 274.027 112.09 273.696C111.738 273.365 111.562 272.917 111.562 272.352C111.562 271.904 111.68 271.509 111.914 271.168C112.16 270.827 112.496 270.56 112.922 270.368C113.349 270.165 113.834 270.064 114.378 270.064C114.912 270.064 115.418 270.144 115.898 270.304C116.378 270.453 116.864 270.699 117.354 271.04L116.778 271.856C116.373 271.568 115.968 271.36 115.562 271.232C115.157 271.093 114.746 271.024 114.33 271.024C113.818 271.024 113.408 271.136 113.098 271.36C112.789 271.584 112.634 271.888 112.634 272.272C112.634 272.592 112.73 272.837 112.922 273.008C113.125 273.179 113.477 273.307 113.978 273.392L115.29 273.632C116.08 273.771 116.656 274.011 117.018 274.352C117.381 274.693 117.562 275.152 117.562 275.728C117.562 276.187 117.429 276.603 117.162 276.976C116.896 277.339 116.533 277.627 116.074 277.84C115.616 278.053 115.098 278.16 114.522 278.16ZM126.051 278.16C125.379 278.16 124.867 278 124.515 277.68C124.174 277.349 124.003 276.875 124.003 276.256V271.152H122.387V270.192H124.003V268.048L125.171 267.776V270.192H127.411V271.152H125.171V275.952C125.171 276.368 125.256 276.667 125.427 276.848C125.608 277.029 125.902 277.12 126.307 277.12C126.51 277.12 126.691 277.104 126.851 277.072C127.011 277.04 127.198 276.987 127.411 276.912V277.952C127.198 278.027 126.974 278.08 126.739 278.112C126.504 278.144 126.275 278.16 126.051 278.16ZM129.106 278V270.192H130.274V278H129.106ZM129.698 268.256C129.463 268.256 129.261 268.176 129.09 268.016C128.93 267.845 128.85 267.648 128.85 267.424C128.85 267.2 128.93 267.008 129.09 266.848C129.261 266.677 129.463 266.592 129.698 266.592C129.933 266.592 130.13 266.677 130.29 266.848C130.461 267.008 130.546 267.2 130.546 267.424C130.546 267.648 130.461 267.845 130.29 268.016C130.13 268.176 129.933 268.256 129.698 268.256ZM132.669 278V270.192H133.837V271.408C134.135 270.96 134.477 270.624 134.861 270.4C135.245 270.176 135.677 270.064 136.157 270.064C136.711 270.064 137.197 270.203 137.613 270.48C138.029 270.747 138.343 271.115 138.557 271.584C138.866 271.083 139.234 270.704 139.661 270.448C140.098 270.192 140.599 270.064 141.165 270.064C141.687 270.064 142.146 270.187 142.541 270.432C142.946 270.677 143.261 271.019 143.485 271.456C143.709 271.883 143.821 272.384 143.821 272.96V278H142.653V273.248C142.653 272.565 142.482 272.027 142.141 271.632C141.799 271.237 141.33 271.04 140.733 271.04C140.327 271.04 139.959 271.141 139.629 271.344C139.309 271.547 139.026 271.856 138.781 272.272C138.802 272.379 138.818 272.491 138.829 272.608C138.839 272.725 138.845 272.843 138.845 272.96V278H137.677V273.248C137.677 272.565 137.501 272.027 137.149 271.632C136.807 271.237 136.338 271.04 135.741 271.04C134.941 271.04 134.306 271.424 133.837 272.192V278H132.669ZM149.704 278.16C148.979 278.16 148.323 277.984 147.736 277.632C147.15 277.269 146.686 276.784 146.344 276.176C146.003 275.557 145.832 274.864 145.832 274.096C145.832 273.328 145.992 272.64 146.312 272.032C146.643 271.424 147.086 270.944 147.64 270.592C148.195 270.24 148.814 270.064 149.496 270.064C150.19 270.064 150.803 270.24 151.336 270.592C151.88 270.933 152.307 271.403 152.616 272C152.936 272.587 153.096 273.253 153.096 274V274.352H146.968C147.011 274.885 147.155 275.365 147.4 275.792C147.656 276.208 147.987 276.539 148.392 276.784C148.808 277.019 149.262 277.136 149.752 277.136C150.158 277.136 150.547 277.067 150.92 276.928C151.304 276.779 151.63 276.581 151.896 276.336L152.632 277.12C152.184 277.472 151.72 277.733 151.24 277.904C150.76 278.075 150.248 278.16 149.704 278.16ZM147 273.52H151.944C151.891 273.051 151.747 272.635 151.512 272.272C151.288 271.899 151 271.605 150.648 271.392C150.307 271.179 149.923 271.072 149.496 271.072C149.07 271.072 148.68 271.179 148.328 271.392C147.976 271.595 147.683 271.883 147.448 272.256C147.224 272.619 147.075 273.04 147 273.52ZM155.091 278V266.448L156.259 266.208V278H155.091ZM158.989 281.504C158.744 281.504 158.493 281.467 158.237 281.392V280.352C158.344 280.373 158.456 280.389 158.573 280.4C158.69 280.411 158.792 280.416 158.877 280.416C159.176 280.416 159.421 280.336 159.613 280.176C159.816 280.016 159.986 279.765 160.125 279.424L160.701 278L157.693 270.192H158.989L161.357 276.608L163.869 270.192H165.165L161.229 279.776C161.058 280.192 160.872 280.528 160.669 280.784C160.466 281.04 160.232 281.221 159.965 281.328C159.698 281.445 159.373 281.504 158.989 281.504ZM172.772 278.144C172.218 278.144 171.727 278.043 171.3 277.84C170.874 277.637 170.538 277.36 170.292 277.008C170.058 276.645 169.94 276.229 169.94 275.76C169.94 275.291 170.063 274.885 170.308 274.544C170.554 274.192 170.895 273.92 171.332 273.728C171.77 273.536 172.282 273.44 172.868 273.44C173.316 273.44 173.738 273.488 174.132 273.584C174.538 273.68 174.911 273.835 175.252 274.048V272.976C175.252 272.336 175.082 271.856 174.74 271.536C174.399 271.205 173.898 271.04 173.236 271.04C172.874 271.04 172.5 271.093 172.116 271.2C171.743 271.307 171.327 271.477 170.868 271.712L170.436 270.816C171.482 270.315 172.463 270.064 173.38 270.064C174.351 270.064 175.098 270.304 175.62 270.784C176.143 271.253 176.404 271.931 176.404 272.816V278H175.252V277.088C174.911 277.44 174.532 277.707 174.116 277.888C173.7 278.059 173.252 278.144 172.772 278.144ZM171.06 275.728C171.06 276.187 171.236 276.555 171.588 276.832C171.951 277.109 172.426 277.248 173.012 277.248C173.45 277.248 173.85 277.173 174.212 277.024C174.586 276.875 174.932 276.651 175.252 276.352V274.848C174.922 274.656 174.58 274.517 174.228 274.432C173.876 274.336 173.482 274.288 173.044 274.288C172.447 274.288 171.967 274.421 171.604 274.688C171.242 274.944 171.06 275.291 171.06 275.728ZM181.194 278.16C180.554 278.16 179.962 278.064 179.418 277.872C178.874 277.669 178.41 277.381 178.026 277.008L178.65 276.24C179.119 276.581 179.551 276.832 179.946 276.992C180.341 277.141 180.746 277.216 181.162 277.216C181.727 277.216 182.197 277.083 182.57 276.816C182.943 276.549 183.13 276.208 183.13 275.792C183.13 275.472 183.018 275.221 182.794 275.04C182.581 274.859 182.223 274.72 181.722 274.624L180.442 274.4C179.685 274.261 179.125 274.027 178.762 273.696C178.41 273.365 178.234 272.917 178.234 272.352C178.234 271.904 178.351 271.509 178.586 271.168C178.831 270.827 179.167 270.56 179.594 270.368C180.021 270.165 180.506 270.064 181.05 270.064C181.583 270.064 182.09 270.144 182.57 270.304C183.05 270.453 183.535 270.699 184.026 271.04L183.45 271.856C183.045 271.568 182.639 271.36 182.234 271.232C181.829 271.093 181.418 271.024 181.002 271.024C180.49 271.024 180.079 271.136 179.77 271.36C179.461 271.584 179.306 271.888 179.306 272.272C179.306 272.592 179.402 272.837 179.594 273.008C179.797 273.179 180.149 273.307 180.65 273.392L181.962 273.632C182.751 273.771 183.327 274.011 183.69 274.352C184.053 274.693 184.234 275.152 184.234 275.728C184.234 276.187 184.101 276.603 183.834 276.976C183.567 277.339 183.205 277.627 182.746 277.84C182.287 278.053 181.77 278.16 181.194 278.16ZM188.429 278.16C187.789 278.16 187.197 278.064 186.653 277.872C186.109 277.669 185.645 277.381 185.261 277.008L185.885 276.24C186.354 276.581 186.786 276.832 187.181 276.992C187.575 277.141 187.981 277.216 188.397 277.216C188.962 277.216 189.431 277.083 189.805 276.816C190.178 276.549 190.365 276.208 190.365 275.792C190.365 275.472 190.253 275.221 190.029 275.04C189.815 274.859 189.458 274.72 188.957 274.624L187.677 274.4C186.919 274.261 186.359 274.027 185.997 273.696C185.645 273.365 185.469 272.917 185.469 272.352C185.469 271.904 185.586 271.509 185.821 271.168C186.066 270.827 186.402 270.56 186.829 270.368C187.255 270.165 187.741 270.064 188.285 270.064C188.818 270.064 189.325 270.144 189.805 270.304C190.285 270.453 190.77 270.699 191.261 271.04L190.685 271.856C190.279 271.568 189.874 271.36 189.469 271.232C189.063 271.093 188.653 271.024 188.237 271.024C187.725 271.024 187.314 271.136 187.005 271.36C186.695 271.584 186.541 271.888 186.541 272.272C186.541 272.592 186.637 272.837 186.829 273.008C187.031 273.179 187.383 273.307 187.885 273.392L189.197 273.632C189.986 273.771 190.562 274.011 190.925 274.352C191.287 274.693 191.469 275.152 191.469 275.728C191.469 276.187 191.335 276.603 191.069 276.976C190.802 277.339 190.439 277.627 189.981 277.84C189.522 278.053 189.005 278.16 188.429 278.16ZM193.231 278V270.192H194.399V278H193.231ZM193.823 268.256C193.588 268.256 193.386 268.176 193.215 268.016C193.055 267.845 192.975 267.648 192.975 267.424C192.975 267.2 193.055 267.008 193.215 266.848C193.386 266.677 193.588 266.592 193.823 266.592C194.058 266.592 194.255 266.677 194.415 266.848C194.586 267.008 194.671 267.2 194.671 267.424C194.671 267.648 194.586 267.845 194.415 268.016C194.255 268.176 194.058 268.256 193.823 268.256ZM199.21 278.16C198.57 278.16 197.978 278.064 197.434 277.872C196.89 277.669 196.426 277.381 196.042 277.008L196.666 276.24C197.135 276.581 197.567 276.832 197.962 276.992C198.356 277.141 198.762 277.216 199.178 277.216C199.743 277.216 200.212 277.083 200.586 276.816C200.959 276.549 201.146 276.208 201.146 275.792C201.146 275.472 201.034 275.221 200.81 275.04C200.596 274.859 200.239 274.72 199.738 274.624L198.458 274.4C197.7 274.261 197.14 274.027 196.778 273.696C196.426 273.365 196.25 272.917 196.25 272.352C196.25 271.904 196.367 271.509 196.602 271.168C196.847 270.827 197.183 270.56 197.61 270.368C198.036 270.165 198.522 270.064 199.066 270.064C199.599 270.064 200.106 270.144 200.586 270.304C201.066 270.453 201.551 270.699 202.042 271.04L201.466 271.856C201.06 271.568 200.655 271.36 200.25 271.232C199.844 271.093 199.434 271.024 199.018 271.024C198.506 271.024 198.095 271.136 197.786 271.36C197.476 271.584 197.322 271.888 197.322 272.272C197.322 272.592 197.418 272.837 197.61 273.008C197.812 273.179 198.164 273.307 198.666 273.392L199.978 273.632C200.767 273.771 201.343 274.011 201.706 274.352C202.068 274.693 202.25 275.152 202.25 275.728C202.25 276.187 202.116 276.603 201.85 276.976C201.583 277.339 201.22 277.627 200.762 277.84C200.303 278.053 199.786 278.16 199.21 278.16ZM206.848 278.16C206.176 278.16 205.664 278 205.312 277.68C204.971 277.349 204.8 276.875 204.8 276.256V271.152H203.184V270.192H204.8V268.048L205.968 267.776V270.192H208.208V271.152H205.968V275.952C205.968 276.368 206.053 276.667 206.224 276.848C206.405 277.029 206.699 277.12 207.104 277.12C207.307 277.12 207.488 277.104 207.648 277.072C207.808 277.04 207.995 276.987 208.208 276.912V277.952C207.995 278.027 207.771 278.08 207.536 278.112C207.301 278.144 207.072 278.16 206.848 278.16ZM212.335 278.144C211.78 278.144 211.289 278.043 210.863 277.84C210.436 277.637 210.1 277.36 209.855 277.008C209.62 276.645 209.503 276.229 209.503 275.76C209.503 275.291 209.625 274.885 209.871 274.544C210.116 274.192 210.457 273.92 210.895 273.728C211.332 273.536 211.844 273.44 212.431 273.44C212.879 273.44 213.3 273.488 213.695 273.584C214.1 273.68 214.473 273.835 214.815 274.048V272.976C214.815 272.336 214.644 271.856 214.303 271.536C213.961 271.205 213.46 271.04 212.799 271.04C212.436 271.04 212.063 271.093 211.679 271.2C211.305 271.307 210.889 271.477 210.431 271.712L209.999 270.816C211.044 270.315 212.025 270.064 212.943 270.064C213.913 270.064 214.66 270.304 215.183 270.784C215.705 271.253 215.967 271.931 215.967 272.816V278H214.815V277.088C214.473 277.44 214.095 277.707 213.679 277.888C213.263 278.059 212.815 278.144 212.335 278.144ZM210.623 275.728C210.623 276.187 210.799 276.555 211.151 276.832C211.513 277.109 211.988 277.248 212.575 277.248C213.012 277.248 213.412 277.173 213.775 277.024C214.148 276.875 214.495 276.651 214.815 276.352V274.848C214.484 274.656 214.143 274.517 213.791 274.432C213.439 274.336 213.044 274.288 212.607 274.288C212.009 274.288 211.529 274.421 211.167 274.688C210.804 274.944 210.623 275.291 210.623 275.728ZM218.341 278V270.192H219.509V271.456C219.807 270.987 220.165 270.64 220.581 270.416C220.997 270.181 221.466 270.064 221.989 270.064C222.554 270.064 223.045 270.187 223.461 270.432C223.887 270.667 224.218 271.003 224.453 271.44C224.698 271.867 224.821 272.368 224.821 272.944V278H223.653V273.28C223.653 272.587 223.461 272.043 223.077 271.648C222.703 271.243 222.197 271.04 221.557 271.04C221.13 271.04 220.741 271.141 220.389 271.344C220.037 271.547 219.743 271.845 219.509 272.24V278H218.341ZM230.673 278.128C229.947 278.128 229.291 277.952 228.705 277.6C228.129 277.237 227.67 276.752 227.329 276.144C226.987 275.525 226.817 274.843 226.817 274.096C226.817 273.339 226.987 272.656 227.329 272.048C227.67 271.44 228.129 270.96 228.705 270.608C229.291 270.245 229.947 270.064 230.673 270.064C231.249 270.064 231.798 270.171 232.321 270.384C232.843 270.597 233.297 270.896 233.681 271.28L232.929 272.096C232.651 271.787 232.315 271.547 231.921 271.376C231.526 271.205 231.126 271.12 230.721 271.12C230.209 271.12 229.745 271.253 229.329 271.52C228.923 271.787 228.598 272.144 228.353 272.592C228.107 273.04 227.985 273.541 227.985 274.096C227.985 274.651 228.107 275.152 228.353 275.6C228.598 276.048 228.923 276.405 229.329 276.672C229.745 276.939 230.209 277.072 230.721 277.072C231.126 277.072 231.526 276.987 231.921 276.816C232.315 276.635 232.651 276.395 232.929 276.096L233.681 276.912C233.297 277.296 232.843 277.595 232.321 277.808C231.798 278.021 231.249 278.128 230.673 278.128ZM238.595 278.16C237.87 278.16 237.214 277.984 236.627 277.632C236.04 277.269 235.576 276.784 235.235 276.176C234.894 275.557 234.723 274.864 234.723 274.096C234.723 273.328 234.883 272.64 235.203 272.032C235.534 271.424 235.976 270.944 236.531 270.592C237.086 270.24 237.704 270.064 238.387 270.064C239.08 270.064 239.694 270.24 240.227 270.592C240.771 270.933 241.198 271.403 241.507 272C241.827 272.587 241.987 273.253 241.987 274V274.352H235.859C235.902 274.885 236.046 275.365 236.291 275.792C236.547 276.208 236.878 276.539 237.283 276.784C237.699 277.019 238.152 277.136 238.643 277.136C239.048 277.136 239.438 277.067 239.811 276.928C240.195 276.779 240.52 276.581 240.787 276.336L241.523 277.12C241.075 277.472 240.611 277.733 240.131 277.904C239.651 278.075 239.139 278.16 238.595 278.16ZM235.891 273.52H240.835C240.782 273.051 240.638 272.635 240.403 272.272C240.179 271.899 239.891 271.605 239.539 271.392C239.198 271.179 238.814 271.072 238.387 271.072C237.96 271.072 237.571 271.179 237.219 271.392C236.867 271.595 236.574 271.883 236.339 272.256C236.115 272.619 235.966 273.04 235.891 273.52ZM247.716 278V266.56L248.884 266.32V271.264C249.182 270.891 249.545 270.603 249.972 270.4C250.398 270.197 250.873 270.096 251.396 270.096C252.078 270.096 252.686 270.277 253.22 270.64C253.764 270.992 254.196 271.472 254.516 272.08C254.836 272.677 254.996 273.349 254.996 274.096C254.996 274.843 254.83 275.52 254.5 276.128C254.18 276.736 253.742 277.221 253.188 277.584C252.644 277.936 252.025 278.112 251.332 278.112C250.841 278.112 250.382 278.016 249.956 277.824C249.54 277.621 249.177 277.339 248.868 276.976V278H247.716ZM251.108 277.104C251.63 277.104 252.094 276.976 252.5 276.72C252.916 276.453 253.241 276.096 253.476 275.648C253.721 275.189 253.844 274.677 253.844 274.112C253.844 273.536 253.721 273.024 253.476 272.576C253.241 272.128 252.916 271.776 252.5 271.52C252.094 271.253 251.63 271.12 251.108 271.12C250.649 271.12 250.222 271.216 249.828 271.408C249.444 271.589 249.129 271.851 248.884 272.192V276.016C249.14 276.357 249.46 276.624 249.844 276.816C250.238 277.008 250.66 277.104 251.108 277.104ZM257.145 281.504C256.9 281.504 256.649 281.467 256.393 281.392V280.352C256.5 280.373 256.612 280.389 256.729 280.4C256.847 280.411 256.948 280.416 257.033 280.416C257.332 280.416 257.577 280.336 257.769 280.176C257.972 280.016 258.143 279.765 258.281 279.424L258.857 278L255.849 270.192H257.145L259.513 276.608L262.025 270.192H263.321L259.385 279.776C259.215 280.192 259.028 280.528 258.825 280.784C258.623 281.04 258.388 281.221 258.121 281.328C257.855 281.445 257.529 281.504 257.145 281.504ZM270.929 278.16C270.289 278.16 269.697 278.064 269.153 277.872C268.609 277.669 268.145 277.381 267.761 277.008L268.385 276.24C268.854 276.581 269.286 276.832 269.681 276.992C270.075 277.141 270.481 277.216 270.897 277.216C271.462 277.216 271.931 277.083 272.305 276.816C272.678 276.549 272.865 276.208 272.865 275.792C272.865 275.472 272.753 275.221 272.529 275.04C272.315 274.859 271.958 274.72 271.457 274.624L270.177 274.4C269.419 274.261 268.859 274.027 268.497 273.696C268.145 273.365 267.969 272.917 267.969 272.352C267.969 271.904 268.086 271.509 268.321 271.168C268.566 270.827 268.902 270.56 269.329 270.368C269.755 270.165 270.241 270.064 270.785 270.064C271.318 270.064 271.825 270.144 272.305 270.304C272.785 270.453 273.27 270.699 273.761 271.04L273.185 271.856C272.779 271.568 272.374 271.36 271.969 271.232C271.563 271.093 271.153 271.024 270.737 271.024C270.225 271.024 269.814 271.136 269.505 271.36C269.195 271.584 269.041 271.888 269.041 272.272C269.041 272.592 269.137 272.837 269.329 273.008C269.531 273.179 269.883 273.307 270.385 273.392L271.697 273.632C272.486 273.771 273.062 274.011 273.425 274.352C273.787 274.693 273.969 275.152 273.969 275.728C273.969 276.187 273.835 276.603 273.569 276.976C273.302 277.339 272.939 277.627 272.481 277.84C272.022 278.053 271.505 278.16 270.929 278.16ZM278.567 278.16C277.895 278.16 277.383 278 277.031 277.68C276.689 277.349 276.519 276.875 276.519 276.256V271.152H274.903V270.192H276.519V268.048L277.687 267.776V270.192H279.927V271.152H277.687V275.952C277.687 276.368 277.772 276.667 277.943 276.848C278.124 277.029 278.417 277.12 278.823 277.12C279.025 277.12 279.207 277.104 279.367 277.072C279.527 277.04 279.713 276.987 279.927 276.912V277.952C279.713 278.027 279.489 278.08 279.255 278.112C279.02 278.144 278.791 278.16 278.567 278.16ZM284.054 278.144C283.499 278.144 283.008 278.043 282.582 277.84C282.155 277.637 281.819 277.36 281.574 277.008C281.339 276.645 281.222 276.229 281.222 275.76C281.222 275.291 281.344 274.885 281.59 274.544C281.835 274.192 282.176 273.92 282.614 273.728C283.051 273.536 283.563 273.44 284.15 273.44C284.598 273.44 285.019 273.488 285.414 273.584C285.819 273.68 286.192 273.835 286.534 274.048V272.976C286.534 272.336 286.363 271.856 286.022 271.536C285.68 271.205 285.179 271.04 284.518 271.04C284.155 271.04 283.782 271.093 283.398 271.2C283.024 271.307 282.608 271.477 282.15 271.712L281.718 270.816C282.763 270.315 283.744 270.064 284.661 270.064C285.632 270.064 286.379 270.304 286.902 270.784C287.424 271.253 287.686 271.931 287.686 272.816V278H286.534V277.088C286.192 277.44 285.814 277.707 285.398 277.888C284.982 278.059 284.534 278.144 284.054 278.144ZM282.342 275.728C282.342 276.187 282.518 276.555 282.87 276.832C283.232 277.109 283.707 277.248 284.294 277.248C284.731 277.248 285.131 277.173 285.494 277.024C285.867 276.875 286.214 276.651 286.534 276.352V274.848C286.203 274.656 285.862 274.517 285.51 274.432C285.158 274.336 284.763 274.288 284.326 274.288C283.728 274.288 283.248 274.421 282.886 274.688C282.523 274.944 282.342 275.291 282.342 275.728ZM290.059 278V270.192H291.227V271.792C291.43 271.248 291.718 270.827 292.091 270.528C292.475 270.219 292.913 270.064 293.403 270.064C293.542 270.064 293.67 270.075 293.787 270.096C293.905 270.107 294.022 270.133 294.139 270.176V271.232C294.011 271.189 293.873 271.157 293.723 271.136C293.585 271.104 293.451 271.088 293.323 271.088C292.843 271.088 292.422 271.227 292.059 271.504C291.707 271.781 291.43 272.171 291.227 272.672V278H290.059ZM298.66 278.16C297.988 278.16 297.476 278 297.124 277.68C296.783 277.349 296.612 276.875 296.612 276.256V271.152H294.996V270.192H296.612V268.048L297.78 267.776V270.192H300.02V271.152H297.78V275.952C297.78 276.368 297.866 276.667 298.036 276.848C298.218 277.029 298.511 277.12 298.916 277.12C299.119 277.12 299.3 277.104 299.46 277.072C299.62 277.04 299.807 276.987 300.02 276.912V277.952C299.807 278.027 299.583 278.08 299.348 278.112C299.114 278.144 298.884 278.16 298.66 278.16ZM301.715 278V270.192H302.883V278H301.715ZM302.307 268.256C302.073 268.256 301.87 268.176 301.699 268.016C301.539 267.845 301.459 267.648 301.459 267.424C301.459 267.2 301.539 267.008 301.699 266.848C301.87 266.677 302.073 266.592 302.307 266.592C302.542 266.592 302.739 266.677 302.899 266.848C303.07 267.008 303.155 267.2 303.155 267.424C303.155 267.648 303.07 267.845 302.899 268.016C302.739 268.176 302.542 268.256 302.307 268.256ZM305.278 278V270.192H306.446V271.456C306.745 270.987 307.102 270.64 307.518 270.416C307.934 270.181 308.403 270.064 308.926 270.064C309.491 270.064 309.982 270.187 310.398 270.432C310.825 270.667 311.155 271.003 311.39 271.44C311.635 271.867 311.758 272.368 311.758 272.944V278H310.59V273.28C310.59 272.587 310.398 272.043 310.014 271.648C309.641 271.243 309.134 271.04 308.494 271.04C308.067 271.04 307.678 271.141 307.326 271.344C306.974 271.547 306.681 271.845 306.446 272.24V278H305.278ZM317.722 281.504C317.2 281.504 316.672 281.429 316.138 281.28C315.616 281.141 315.13 280.944 314.682 280.688L315.178 279.792C315.658 280.037 316.096 280.219 316.49 280.336C316.885 280.453 317.28 280.512 317.674 280.512C318.389 280.512 318.928 280.341 319.29 280C319.664 279.659 319.85 279.163 319.85 278.512V276.944C319.552 277.317 319.189 277.605 318.762 277.808C318.336 278 317.866 278.096 317.354 278.096C316.682 278.096 316.074 277.92 315.53 277.568C314.986 277.205 314.554 276.725 314.234 276.128C313.914 275.52 313.754 274.843 313.754 274.096C313.754 273.349 313.914 272.677 314.234 272.08C314.565 271.472 315.008 270.992 315.562 270.64C316.117 270.277 316.736 270.096 317.418 270.096C317.909 270.096 318.362 270.192 318.778 270.384C319.194 270.565 319.557 270.837 319.866 271.2V270.192H321.018V278.496C321.018 279.467 320.736 280.208 320.17 280.72C319.605 281.243 318.789 281.504 317.722 281.504ZM317.642 277.088C318.101 277.088 318.522 276.997 318.906 276.816C319.29 276.624 319.605 276.363 319.85 276.032V272.176C319.594 271.845 319.269 271.589 318.874 271.408C318.49 271.216 318.08 271.12 317.642 271.12C317.12 271.12 316.65 271.248 316.234 271.504C315.829 271.76 315.504 272.112 315.258 272.56C315.024 273.008 314.906 273.52 314.906 274.096C314.906 274.661 315.024 275.173 315.258 275.632C315.504 276.08 315.829 276.437 316.234 276.704C316.65 276.96 317.12 277.088 317.642 277.088ZM329.569 278.144C329.014 278.144 328.524 278.043 328.097 277.84C327.67 277.637 327.334 277.36 327.089 277.008C326.854 276.645 326.737 276.229 326.737 275.76C326.737 275.291 326.86 274.885 327.105 274.544C327.35 274.192 327.692 273.92 328.129 273.728C328.566 273.536 329.078 273.44 329.665 273.44C330.113 273.44 330.534 273.488 330.929 273.584C331.334 273.68 331.708 273.835 332.049 274.048V272.976C332.049 272.336 331.878 271.856 331.537 271.536C331.196 271.205 330.694 271.04 330.033 271.04C329.67 271.04 329.297 271.093 328.913 271.2C328.54 271.307 328.124 271.477 327.665 271.712L327.233 270.816C328.278 270.315 329.26 270.064 330.177 270.064C331.148 270.064 331.894 270.304 332.417 270.784C332.94 271.253 333.201 271.931 333.201 272.816V278H332.049V277.088C331.708 277.44 331.329 277.707 330.913 277.888C330.497 278.059 330.049 278.144 329.569 278.144ZM327.857 275.728C327.857 276.187 328.033 276.555 328.385 276.832C328.748 277.109 329.222 277.248 329.809 277.248C330.246 277.248 330.646 277.173 331.009 277.024C331.382 276.875 331.729 276.651 332.049 276.352V274.848C331.718 274.656 331.377 274.517 331.025 274.432C330.673 274.336 330.278 274.288 329.841 274.288C329.244 274.288 328.764 274.421 328.401 274.688C328.038 274.944 327.857 275.291 327.857 275.728ZM98.1493 302.128C97.424 302.128 96.768 301.952 96.1813 301.6C95.6053 301.237 95.1466 300.752 94.8053 300.144C94.464 299.525 94.2933 298.843 94.2933 298.096C94.2933 297.339 94.464 296.656 94.8053 296.048C95.1466 295.44 95.6053 294.96 96.1813 294.608C96.768 294.245 97.424 294.064 98.1493 294.064C98.7253 294.064 99.2746 294.171 99.7973 294.384C100.32 294.597 100.773 294.896 101.157 295.28L100.405 296.096C100.128 295.787 99.792 295.547 99.3973 295.376C99.0026 295.205 98.6026 295.12 98.1973 295.12C97.6853 295.12 97.2213 295.253 96.8053 295.52C96.4 295.787 96.0746 296.144 95.8293 296.592C95.584 297.04 95.4613 297.541 95.4613 298.096C95.4613 298.651 95.584 299.152 95.8293 299.6C96.0746 300.048 96.4 300.405 96.8053 300.672C97.2213 300.939 97.6853 301.072 98.1973 301.072C98.6026 301.072 99.0026 300.987 99.3973 300.816C99.792 300.635 100.128 300.395 100.405 300.096L101.157 300.912C100.773 301.296 100.32 301.595 99.7973 301.808C99.2746 302.021 98.7253 302.128 98.1493 302.128ZM106.008 302.128C105.282 302.128 104.632 301.952 104.056 301.6C103.48 301.248 103.026 300.768 102.696 300.16C102.365 299.552 102.2 298.864 102.2 298.096C102.2 297.328 102.365 296.64 102.696 296.032C103.026 295.424 103.48 294.944 104.056 294.592C104.632 294.24 105.282 294.064 106.008 294.064C106.722 294.064 107.362 294.24 107.928 294.592C108.504 294.944 108.957 295.424 109.288 296.032C109.618 296.64 109.784 297.328 109.784 298.096C109.784 298.864 109.618 299.552 109.288 300.16C108.957 300.768 108.504 301.248 107.928 301.6C107.362 301.952 106.722 302.128 106.008 302.128ZM105.992 301.104C106.504 301.104 106.957 300.976 107.352 300.72C107.746 300.453 108.056 300.091 108.28 299.632C108.514 299.173 108.632 298.661 108.632 298.096C108.632 297.52 108.514 297.008 108.28 296.56C108.056 296.101 107.746 295.744 107.352 295.488C106.957 295.221 106.504 295.088 105.992 295.088C105.48 295.088 105.026 295.221 104.632 295.488C104.237 295.744 103.922 296.101 103.688 296.56C103.464 297.008 103.352 297.52 103.352 298.096C103.352 298.661 103.464 299.173 103.688 299.632C103.922 300.091 104.237 300.453 104.632 300.72C105.026 300.976 105.48 301.104 105.992 301.104ZM111.833 302V294.192H113.001V295.456C113.299 294.987 113.657 294.64 114.073 294.416C114.489 294.181 114.958 294.064 115.481 294.064C116.046 294.064 116.537 294.187 116.953 294.432C117.379 294.667 117.71 295.003 117.945 295.44C118.19 295.867 118.313 296.368 118.313 296.944V302H117.145V297.28C117.145 296.587 116.953 296.043 116.569 295.648C116.195 295.243 115.689 295.04 115.049 295.04C114.622 295.04 114.233 295.141 113.881 295.344C113.529 295.547 113.235 295.845 113.001 296.24V302H111.833ZM122.588 302L119.388 294.192H120.652L123.18 300.544L125.676 294.192H126.924L123.708 302H122.588ZM131.65 302.16C130.924 302.16 130.268 301.984 129.682 301.632C129.095 301.269 128.631 300.784 128.29 300.176C127.948 299.557 127.778 298.864 127.778 298.096C127.778 297.328 127.938 296.64 128.258 296.032C128.588 295.424 129.031 294.944 129.586 294.592C130.14 294.24 130.759 294.064 131.442 294.064C132.135 294.064 132.748 294.24 133.282 294.592C133.826 294.933 134.252 295.403 134.562 296C134.882 296.587 135.042 297.253 135.042 298V298.352H128.914C128.956 298.885 129.1 299.365 129.346 299.792C129.602 300.208 129.932 300.539 130.338 300.784C130.754 301.019 131.207 301.136 131.698 301.136C132.103 301.136 132.492 301.067 132.866 300.928C133.25 300.779 133.575 300.581 133.842 300.336L134.578 301.12C134.13 301.472 133.666 301.733 133.186 301.904C132.706 302.075 132.194 302.16 131.65 302.16ZM128.946 297.52H133.89C133.836 297.051 133.692 296.635 133.458 296.272C133.234 295.899 132.946 295.605 132.594 295.392C132.252 295.179 131.868 295.072 131.442 295.072C131.015 295.072 130.626 295.179 130.274 295.392C129.922 295.595 129.628 295.883 129.394 296.256C129.17 296.619 129.02 297.04 128.946 297.52ZM137.036 302V294.192H138.204V295.792C138.407 295.248 138.695 294.827 139.068 294.528C139.452 294.219 139.889 294.064 140.38 294.064C140.519 294.064 140.647 294.075 140.764 294.096C140.881 294.107 140.999 294.133 141.116 294.176V295.232C140.988 295.189 140.849 295.157 140.7 295.136C140.561 295.104 140.428 295.088 140.3 295.088C139.82 295.088 139.399 295.227 139.036 295.504C138.684 295.781 138.407 296.171 138.204 296.672V302H137.036ZM144.999 302.16C144.359 302.16 143.767 302.064 143.223 301.872C142.679 301.669 142.215 301.381 141.831 301.008L142.455 300.24C142.924 300.581 143.356 300.832 143.751 300.992C144.145 301.141 144.551 301.216 144.967 301.216C145.532 301.216 146.001 301.083 146.375 300.816C146.748 300.549 146.935 300.208 146.935 299.792C146.935 299.472 146.823 299.221 146.599 299.04C146.385 298.859 146.028 298.72 145.527 298.624L144.247 298.4C143.489 298.261 142.929 298.027 142.567 297.696C142.215 297.365 142.039 296.917 142.039 296.352C142.039 295.904 142.156 295.509 142.391 295.168C142.636 294.827 142.972 294.56 143.399 294.368C143.825 294.165 144.311 294.064 144.855 294.064C145.388 294.064 145.895 294.144 146.375 294.304C146.855 294.453 147.34 294.699 147.831 295.04L147.255 295.856C146.849 295.568 146.444 295.36 146.039 295.232C145.633 295.093 145.223 295.024 144.807 295.024C144.295 295.024 143.884 295.136 143.575 295.36C143.265 295.584 143.111 295.888 143.111 296.272C143.111 296.592 143.207 296.837 143.399 297.008C143.601 297.179 143.953 297.307 144.455 297.392L145.767 297.632C146.556 297.771 147.132 298.011 147.495 298.352C147.857 298.693 148.039 299.152 148.039 299.728C148.039 300.187 147.905 300.603 147.639 300.976C147.372 301.339 147.009 301.627 146.551 301.84C146.092 302.053 145.575 302.16 144.999 302.16ZM152.311 302.144C151.757 302.144 151.266 302.043 150.839 301.84C150.413 301.637 150.077 301.36 149.831 301.008C149.597 300.645 149.479 300.229 149.479 299.76C149.479 299.291 149.602 298.885 149.847 298.544C150.093 298.192 150.434 297.92 150.871 297.728C151.309 297.536 151.821 297.44 152.407 297.44C152.855 297.44 153.277 297.488 153.671 297.584C154.077 297.68 154.45 297.835 154.791 298.048V296.976C154.791 296.336 154.621 295.856 154.279 295.536C153.938 295.205 153.437 295.04 152.775 295.04C152.413 295.04 152.039 295.093 151.655 295.2C151.282 295.307 150.866 295.477 150.407 295.712L149.975 294.816C151.021 294.315 152.002 294.064 152.919 294.064C153.89 294.064 154.637 294.304 155.159 294.784C155.682 295.253 155.943 295.931 155.943 296.816V302H154.791V301.088C154.45 301.44 154.071 301.707 153.655 301.888C153.239 302.059 152.791 302.144 152.311 302.144ZM150.599 299.728C150.599 300.187 150.775 300.555 151.127 300.832C151.49 301.109 151.965 301.248 152.551 301.248C152.989 301.248 153.389 301.173 153.751 301.024C154.125 300.875 154.471 300.651 154.791 300.352V298.848C154.461 298.656 154.119 298.517 153.767 298.432C153.415 298.336 153.021 298.288 152.583 298.288C151.986 298.288 151.506 298.421 151.143 298.688C150.781 298.944 150.599 299.291 150.599 299.728ZM161.059 302.16C160.387 302.16 159.875 302 159.523 301.68C159.181 301.349 159.011 300.875 159.011 300.256V295.152H157.395V294.192H159.011V292.048L160.179 291.776V294.192H162.419V295.152H160.179V299.952C160.179 300.368 160.264 300.667 160.435 300.848C160.616 301.029 160.909 301.12 161.315 301.12C161.517 301.12 161.699 301.104 161.859 301.072C162.019 301.04 162.205 300.987 162.419 300.912V301.952C162.205 302.027 161.981 302.08 161.747 302.112C161.512 302.144 161.283 302.16 161.059 302.16ZM164.114 302V294.192H165.282V302H164.114ZM164.706 292.256C164.471 292.256 164.268 292.176 164.098 292.016C163.938 291.845 163.858 291.648 163.858 291.424C163.858 291.2 163.938 291.008 164.098 290.848C164.268 290.677 164.471 290.592 164.706 290.592C164.94 290.592 165.138 290.677 165.298 290.848C165.468 291.008 165.554 291.2 165.554 291.424C165.554 291.648 165.468 291.845 165.298 292.016C165.138 292.176 164.94 292.256 164.706 292.256ZM171.133 302.128C170.407 302.128 169.757 301.952 169.181 301.6C168.605 301.248 168.151 300.768 167.821 300.16C167.49 299.552 167.325 298.864 167.325 298.096C167.325 297.328 167.49 296.64 167.821 296.032C168.151 295.424 168.605 294.944 169.181 294.592C169.757 294.24 170.407 294.064 171.133 294.064C171.847 294.064 172.487 294.24 173.053 294.592C173.629 294.944 174.082 295.424 174.413 296.032C174.743 296.64 174.909 297.328 174.909 298.096C174.909 298.864 174.743 299.552 174.413 300.16C174.082 300.768 173.629 301.248 173.053 301.6C172.487 301.952 171.847 302.128 171.133 302.128ZM171.117 301.104C171.629 301.104 172.082 300.976 172.477 300.72C172.871 300.453 173.181 300.091 173.405 299.632C173.639 299.173 173.757 298.661 173.757 298.096C173.757 297.52 173.639 297.008 173.405 296.56C173.181 296.101 172.871 295.744 172.477 295.488C172.082 295.221 171.629 295.088 171.117 295.088C170.605 295.088 170.151 295.221 169.757 295.488C169.362 295.744 169.047 296.101 168.813 296.56C168.589 297.008 168.477 297.52 168.477 298.096C168.477 298.661 168.589 299.173 168.813 299.632C169.047 300.091 169.362 300.453 169.757 300.72C170.151 300.976 170.605 301.104 171.117 301.104ZM176.958 302V294.192H178.126V295.456C178.424 294.987 178.782 294.64 179.198 294.416C179.614 294.181 180.083 294.064 180.606 294.064C181.171 294.064 181.662 294.187 182.078 294.432C182.504 294.667 182.835 295.003 183.07 295.44C183.315 295.867 183.438 296.368 183.438 296.944V302H182.27V297.28C182.27 296.587 182.078 296.043 181.694 295.648C181.32 295.243 180.814 295.04 180.174 295.04C179.747 295.04 179.358 295.141 179.006 295.344C178.654 295.547 178.36 295.845 178.126 296.24V302H176.958ZM190.912 302L188.768 294.192H189.904L191.536 300.432L193.408 294.192H194.448L196.32 300.432L197.936 294.192H199.04L196.912 302H195.776L193.92 295.696L192.064 302H190.912ZM200.676 302V294.192H201.844V302H200.676ZM201.268 292.256C201.034 292.256 200.831 292.176 200.66 292.016C200.5 291.845 200.42 291.648 200.42 291.424C200.42 291.2 200.5 291.008 200.66 290.848C200.831 290.677 201.034 290.592 201.268 290.592C201.503 290.592 201.7 290.677 201.86 290.848C202.031 291.008 202.116 291.2 202.116 291.424C202.116 291.648 202.031 291.845 201.86 292.016C201.7 292.176 201.503 292.256 201.268 292.256ZM207.215 302.16C206.543 302.16 206.031 302 205.679 301.68C205.338 301.349 205.167 300.875 205.167 300.256V295.152H203.551V294.192H205.167V292.048L206.335 291.776V294.192H208.575V295.152H206.335V299.952C206.335 300.368 206.42 300.667 206.591 300.848C206.772 301.029 207.066 301.12 207.471 301.12C207.674 301.12 207.855 301.104 208.015 301.072C208.175 301.04 208.362 300.987 208.575 300.912V301.952C208.362 302.027 208.138 302.08 207.903 302.112C207.668 302.144 207.439 302.16 207.215 302.16ZM210.286 302V290.448L211.454 290.208V295.456C211.753 294.987 212.11 294.64 212.526 294.416C212.942 294.181 213.411 294.064 213.934 294.064C214.499 294.064 214.99 294.187 215.406 294.432C215.833 294.667 216.163 295.003 216.398 295.44C216.643 295.867 216.766 296.368 216.766 296.944V302H215.598V297.28C215.598 296.587 215.406 296.043 215.022 295.648C214.649 295.243 214.142 295.04 213.502 295.04C213.075 295.04 212.686 295.141 212.334 295.344C211.982 295.547 211.689 295.845 211.454 296.24V302H210.286ZM225.264 302.144C224.71 302.144 224.219 302.043 223.792 301.84C223.366 301.637 223.03 301.36 222.784 301.008C222.55 300.645 222.432 300.229 222.432 299.76C222.432 299.291 222.555 298.885 222.8 298.544C223.046 298.192 223.387 297.92 223.824 297.728C224.262 297.536 224.774 297.44 225.36 297.44C225.808 297.44 226.23 297.488 226.624 297.584C227.03 297.68 227.403 297.835 227.744 298.048V296.976C227.744 296.336 227.574 295.856 227.232 295.536C226.891 295.205 226.39 295.04 225.728 295.04C225.366 295.04 224.992 295.093 224.608 295.2C224.235 295.307 223.819 295.477 223.36 295.712L222.928 294.816C223.974 294.315 224.955 294.064 225.872 294.064C226.843 294.064 227.59 294.304 228.112 294.784C228.635 295.253 228.896 295.931 228.896 296.816V302H227.744V301.088C227.403 301.44 227.024 301.707 226.608 301.888C226.192 302.059 225.744 302.144 225.264 302.144ZM223.552 299.728C223.552 300.187 223.728 300.555 224.08 300.832C224.443 301.109 224.918 301.248 225.504 301.248C225.942 301.248 226.342 301.173 226.704 301.024C227.078 300.875 227.424 300.651 227.744 300.352V298.848C227.414 298.656 227.072 298.517 226.72 298.432C226.368 298.336 225.974 298.288 225.536 298.288C224.939 298.288 224.459 298.421 224.096 298.688C223.734 298.944 223.552 299.291 223.552 299.728ZM231.27 302V294.192H232.438V295.456C232.737 294.987 233.094 294.64 233.51 294.416C233.926 294.181 234.396 294.064 234.918 294.064C235.484 294.064 235.974 294.187 236.39 294.432C236.817 294.667 237.148 295.003 237.382 295.44C237.628 295.867 237.75 296.368 237.75 296.944V302H236.582V297.28C236.582 296.587 236.39 296.043 236.006 295.648C235.633 295.243 235.126 295.04 234.486 295.04C234.06 295.04 233.67 295.141 233.318 295.344C232.966 295.547 232.673 295.845 232.438 296.24V302H231.27ZM242.777 302L247.209 290.8H248.681L253.049 302H251.721L250.393 298.48H245.401L244.073 302H242.777ZM245.785 297.504H250.025L247.897 291.92L245.785 297.504ZM254.603 302V290.8H255.835V302H254.603ZM262.177 302V294.192H263.345V295.408C263.643 294.96 263.985 294.624 264.369 294.4C264.753 294.176 265.185 294.064 265.665 294.064C266.219 294.064 266.705 294.203 267.121 294.48C267.537 294.747 267.851 295.115 268.065 295.584C268.374 295.083 268.742 294.704 269.169 294.448C269.606 294.192 270.107 294.064 270.673 294.064C271.195 294.064 271.654 294.187 272.049 294.432C272.454 294.677 272.769 295.019 272.993 295.456C273.217 295.883 273.329 296.384 273.329 296.96V302H272.161V297.248C272.161 296.565 271.99 296.027 271.649 295.632C271.307 295.237 270.838 295.04 270.241 295.04C269.835 295.04 269.467 295.141 269.137 295.344C268.817 295.547 268.534 295.856 268.289 296.272C268.31 296.379 268.326 296.491 268.337 296.608C268.347 296.725 268.353 296.843 268.353 296.96V302H267.185V297.248C267.185 296.565 267.009 296.027 266.657 295.632C266.315 295.237 265.846 295.04 265.249 295.04C264.449 295.04 263.814 295.424 263.345 296.192V302H262.177ZM279.148 302.128C278.423 302.128 277.772 301.952 277.196 301.6C276.62 301.248 276.167 300.768 275.836 300.16C275.506 299.552 275.34 298.864 275.34 298.096C275.34 297.328 275.506 296.64 275.836 296.032C276.167 295.424 276.62 294.944 277.196 294.592C277.772 294.24 278.423 294.064 279.148 294.064C279.863 294.064 280.503 294.24 281.068 294.592C281.644 294.944 282.098 295.424 282.428 296.032C282.759 296.64 282.924 297.328 282.924 298.096C282.924 298.864 282.759 299.552 282.428 300.16C282.098 300.768 281.644 301.248 281.068 301.6C280.503 301.952 279.863 302.128 279.148 302.128ZM279.132 301.104C279.644 301.104 280.098 300.976 280.492 300.72C280.887 300.453 281.196 300.091 281.42 299.632C281.655 299.173 281.772 298.661 281.772 298.096C281.772 297.52 281.655 297.008 281.42 296.56C281.196 296.101 280.887 295.744 280.492 295.488C280.098 295.221 279.644 295.088 279.132 295.088C278.62 295.088 278.167 295.221 277.772 295.488C277.378 295.744 277.063 296.101 276.828 296.56C276.604 297.008 276.492 297.52 276.492 298.096C276.492 298.661 276.604 299.173 276.828 299.632C277.063 300.091 277.378 300.453 277.772 300.72C278.167 300.976 278.62 301.104 279.132 301.104ZM288.221 302.112C287.549 302.112 286.941 301.936 286.397 301.584C285.853 301.221 285.421 300.741 285.101 300.144C284.781 299.536 284.621 298.859 284.621 298.112C284.621 297.355 284.781 296.677 285.101 296.08C285.432 295.472 285.875 294.992 286.429 294.64C286.984 294.277 287.603 294.096 288.285 294.096C288.765 294.096 289.213 294.192 289.629 294.384C290.045 294.565 290.408 294.832 290.717 295.184V290.448L291.885 290.208V302H290.717V300.96C290.419 301.333 290.056 301.621 289.629 301.824C289.203 302.016 288.733 302.112 288.221 302.112ZM288.509 301.088C288.968 301.088 289.389 300.997 289.773 300.816C290.157 300.635 290.472 300.379 290.717 300.048V296.176C290.461 295.845 290.136 295.589 289.741 295.408C289.357 295.216 288.947 295.12 288.509 295.12C287.987 295.12 287.517 295.248 287.101 295.504C286.696 295.76 286.371 296.112 286.125 296.56C285.891 297.008 285.773 297.52 285.773 298.096C285.773 298.661 285.891 299.173 286.125 299.632C286.371 300.08 286.696 300.437 287.101 300.704C287.517 300.96 287.987 301.088 288.509 301.088ZM297.806 302.16C297.081 302.16 296.425 301.984 295.838 301.632C295.251 301.269 294.787 300.784 294.446 300.176C294.105 299.557 293.934 298.864 293.934 298.096C293.934 297.328 294.094 296.64 294.414 296.032C294.745 295.424 295.187 294.944 295.742 294.592C296.297 294.24 296.915 294.064 297.598 294.064C298.291 294.064 298.905 294.24 299.438 294.592C299.982 294.933 300.409 295.403 300.718 296C301.038 296.587 301.198 297.253 301.198 298V298.352H295.07C295.113 298.885 295.257 299.365 295.502 299.792C295.758 300.208 296.089 300.539 296.494 300.784C296.91 301.019 297.363 301.136 297.854 301.136C298.259 301.136 298.649 301.067 299.022 300.928C299.406 300.779 299.731 300.581 299.998 300.336L300.734 301.12C300.286 301.472 299.822 301.733 299.342 301.904C298.862 302.075 298.35 302.16 297.806 302.16ZM295.102 297.52H300.046C299.993 297.051 299.849 296.635 299.614 296.272C299.39 295.899 299.102 295.605 298.75 295.392C298.409 295.179 298.025 295.072 297.598 295.072C297.171 295.072 296.782 295.179 296.43 295.392C296.078 295.595 295.785 295.883 295.55 296.256C295.326 296.619 295.177 297.04 295.102 297.52ZM303.192 302V290.448L304.36 290.208V302H303.192ZM307.555 302.128C307.32 302.128 307.117 302.043 306.947 301.872C306.787 301.701 306.707 301.499 306.707 301.264C306.707 301.019 306.787 300.816 306.947 300.656C307.117 300.485 307.32 300.4 307.555 300.4C307.789 300.4 307.987 300.485 308.147 300.656C308.317 300.816 308.403 301.019 308.403 301.264C308.403 301.499 308.317 301.701 308.147 301.872C307.987 302.043 307.789 302.128 307.555 302.128Z" fill="#4D4D4D"/>
</g>
</g>
<defs>
<clipPath id="clip0_759_63665">
<rect width="403" height="343" fill="white"/>
</clipPath>
<clipPath id="clip1_759_63665">
<rect width="375" height="960" fill="white" transform="translate(14)"/>
</clipPath>
</defs>
</svg>
