<svg width="403" height="356" viewBox="0 0 403 356" fill="none" xmlns="http://www.w3.org/2000/svg">
<g clip-path="url(#clip0_759_63389)">
<rect width="403" height="356" fill="white"/>
<g clip-path="url(#clip1_759_63389)">
<rect width="375" height="960" transform="translate(14)" fill="white"/>
<path fill-rule="evenodd" clip-rule="evenodd" d="M58.0985 47.2065L58.7066 46.5984C59.0424 46.2626 59.0424 45.7182 58.7066 45.3822L55.9704 42.6459L58.7066 39.9096C59.0424 39.5738 59.0424 39.0294 58.7066 38.6933L58.0985 38.0852C57.7627 37.7494 57.2183 37.7494 56.8823 38.0852L54.146 40.8215L51.4097 38.0852C51.0739 37.7494 50.5295 37.7494 50.1935 38.0852L49.5853 38.6933C49.2495 39.0291 49.2495 39.5735 49.5853 39.9096L52.3216 42.6459L49.5853 45.3822C49.2495 45.7179 49.2495 46.2623 49.5853 46.5984L50.1935 47.2065C50.5293 47.5423 51.0739 47.5423 51.4097 47.2065L54.146 44.4702L56.8823 47.2065C57.218 47.5423 57.7627 47.5423 58.0985 47.2065Z" fill="#1F1F1F"/>
<path d="M267 42.5C267 32.2827 275.283 24 285.5 24H355.5C365.717 24 374 32.2827 374 42.5V42.5C374 52.7173 365.717 61 355.5 61H285.5C275.283 61 267 52.7173 267 42.5V42.5Z" fill="#0066CC"/>
<path d="M292.246 47V37.2H293.366L299.106 45.32L299.078 37.2H300.1V47H299.12L293.24 38.698L293.268 47H292.246ZM305.48 47.14C304.845 47.14 304.271 46.986 303.758 46.678C303.244 46.3607 302.838 45.936 302.54 45.404C302.241 44.8627 302.092 44.256 302.092 43.584C302.092 42.912 302.232 42.31 302.512 41.778C302.801 41.246 303.188 40.826 303.674 40.518C304.159 40.21 304.7 40.056 305.298 40.056C305.904 40.056 306.441 40.21 306.908 40.518C307.384 40.8167 307.757 41.2273 308.028 41.75C308.308 42.2633 308.448 42.8467 308.448 43.5V43.808H303.086C303.123 44.2747 303.249 44.6947 303.464 45.068C303.688 45.432 303.977 45.7213 304.332 45.936C304.696 46.1413 305.092 46.244 305.522 46.244C305.876 46.244 306.217 46.1833 306.544 46.062C306.88 45.9313 307.164 45.7587 307.398 45.544L308.042 46.23C307.65 46.538 307.244 46.7667 306.824 46.916C306.404 47.0653 305.956 47.14 305.48 47.14ZM303.114 43.08H307.44C307.393 42.6693 307.267 42.3053 307.062 41.988C306.866 41.6613 306.614 41.4047 306.306 41.218C306.007 41.0313 305.671 40.938 305.298 40.938C304.924 40.938 304.584 41.0313 304.276 41.218C303.968 41.3953 303.711 41.6473 303.506 41.974C303.31 42.2913 303.179 42.66 303.114 43.08ZM311.274 47L309.398 40.168H310.392L311.82 45.628L313.458 40.168H314.368L316.006 45.628L317.42 40.168H318.386L316.524 47H315.53L313.906 41.484L312.282 47H311.274ZM326.165 47.112C325.53 47.112 324.956 46.958 324.443 46.65C323.939 46.3327 323.537 45.908 323.239 45.376C322.94 44.8347 322.791 44.2373 322.791 43.584C322.791 42.9213 322.94 42.324 323.239 41.792C323.537 41.26 323.939 40.84 324.443 40.532C324.956 40.2147 325.53 40.056 326.165 40.056C326.669 40.056 327.149 40.1493 327.607 40.336C328.064 40.5227 328.461 40.784 328.797 41.12L328.139 41.834C327.896 41.5633 327.602 41.3533 327.257 41.204C326.911 41.0547 326.561 40.98 326.207 40.98C325.759 40.98 325.353 41.0967 324.989 41.33C324.634 41.5633 324.349 41.876 324.135 42.268C323.92 42.66 323.813 43.0987 323.813 43.584C323.813 44.0693 323.92 44.508 324.135 44.9C324.349 45.292 324.634 45.6047 324.989 45.838C325.353 46.0713 325.759 46.188 326.207 46.188C326.561 46.188 326.911 46.1133 327.257 45.964C327.602 45.8053 327.896 45.5953 328.139 45.334L328.797 46.048C328.461 46.384 328.064 46.6453 327.607 46.832C327.149 47.0187 326.669 47.112 326.165 47.112ZM330.222 47V36.892L331.244 36.682V41.274C331.505 40.8633 331.818 40.56 332.182 40.364C332.546 40.1587 332.957 40.056 333.414 40.056C333.909 40.056 334.338 40.1633 334.702 40.378C335.075 40.5833 335.365 40.8773 335.57 41.26C335.785 41.6333 335.892 42.072 335.892 42.576V47H334.87V42.87C334.87 42.2633 334.702 41.7873 334.366 41.442C334.039 41.0873 333.596 40.91 333.036 40.91C332.663 40.91 332.322 40.9987 332.014 41.176C331.706 41.3533 331.449 41.6147 331.244 41.96V47H330.222ZM340.06 47.126C339.575 47.126 339.146 47.0373 338.772 46.86C338.399 46.6827 338.105 46.44 337.89 46.132C337.685 45.8147 337.582 45.4507 337.582 45.04C337.582 44.6293 337.69 44.2747 337.904 43.976C338.119 43.668 338.418 43.43 338.8 43.262C339.183 43.094 339.631 43.01 340.144 43.01C340.536 43.01 340.905 43.052 341.25 43.136C341.605 43.22 341.932 43.3553 342.23 43.542V42.604C342.23 42.044 342.081 41.624 341.782 41.344C341.484 41.0547 341.045 40.91 340.466 40.91C340.149 40.91 339.822 40.9567 339.486 41.05C339.16 41.1433 338.796 41.2927 338.394 41.498L338.016 40.714C338.931 40.2753 339.79 40.056 340.592 40.056C341.442 40.056 342.095 40.266 342.552 40.686C343.01 41.0967 343.238 41.6893 343.238 42.464V47H342.23V46.202C341.932 46.51 341.6 46.7433 341.236 46.902C340.872 47.0513 340.48 47.126 340.06 47.126ZM338.562 45.012C338.562 45.4133 338.716 45.7353 339.024 45.978C339.342 46.2207 339.757 46.342 340.27 46.342C340.653 46.342 341.003 46.2767 341.32 46.146C341.647 46.0153 341.95 45.8193 342.23 45.558V44.242C341.941 44.074 341.642 43.9527 341.334 43.878C341.026 43.794 340.681 43.752 340.298 43.752C339.776 43.752 339.356 43.8687 339.038 44.102C338.721 44.326 338.562 44.6293 338.562 45.012ZM347.715 47.14C347.127 47.14 346.679 47 346.371 46.72C346.072 46.4307 345.923 46.0153 345.923 45.474V41.008H344.509V40.168H345.923V38.292L346.945 38.054V40.168H348.905V41.008H346.945V45.208C346.945 45.572 347.019 45.8333 347.169 45.992C347.327 46.1507 347.584 46.23 347.939 46.23C348.116 46.23 348.275 46.216 348.415 46.188C348.555 46.16 348.718 46.1133 348.905 46.048V46.958C348.718 47.0233 348.522 47.07 348.317 47.098C348.111 47.126 347.911 47.14 347.715 47.14Z" fill="white"/>
<path d="M44 85.5H368C371.038 85.5 373.5 87.9624 373.5 91V116C373.5 119.038 371.038 121.5 368 121.5H44C40.9624 121.5 38.5 119.038 38.5 116V91C38.5 87.9624 40.9624 85.5 44 85.5Z" fill="white"/>
<path d="M44 85.5H368C371.038 85.5 373.5 87.9624 373.5 91V116C373.5 119.038 371.038 121.5 368 121.5H44C40.9624 121.5 38.5 119.038 38.5 116V91C38.5 87.9624 40.9624 85.5 44 85.5Z" stroke="#C7C7C7"/>
<path fill-rule="evenodd" clip-rule="evenodd" d="M63.032 110.809L63.8058 110.035C64.0629 109.778 64.0629 109.362 63.8086 109.105L61.0824 106.379C60.9593 106.256 60.7926 106.187 60.6175 106.187H60.1719C60.9265 105.222 61.375 104.008 61.375 102.687C61.375 99.5457 58.8293 97 55.6875 97C52.5457 97 50 99.5457 50 102.687C50 105.829 52.5457 108.375 55.6875 108.375C57.0082 108.375 58.2223 107.927 59.1875 107.172V107.618C59.1875 107.793 59.2558 107.959 59.3789 108.082L62.1051 110.809C62.3621 111.066 62.7777 111.066 63.032 110.809ZM55.6875 106.187C53.7543 106.187 52.1875 104.623 52.1875 102.687C52.1875 100.754 53.7516 99.1875 55.6875 99.1875C57.6207 99.1875 59.1875 100.752 59.1875 102.687C59.1875 104.621 57.6234 106.187 55.6875 106.187Z" fill="#1F1F1F"/>
<path d="M76.246 108V98.2H82.938V99.152H77.324V102.652H81.16V103.59H77.324V108H76.246ZM84.3758 108V101.168H85.3978V108H84.3758ZM84.8938 99.474C84.6885 99.474 84.5112 99.404 84.3618 99.264C84.2218 99.1147 84.1518 98.942 84.1518 98.746C84.1518 98.55 84.2218 98.382 84.3618 98.242C84.5112 98.0927 84.6885 98.018 84.8938 98.018C85.0992 98.018 85.2718 98.0927 85.4118 98.242C85.5612 98.382 85.6358 98.55 85.6358 98.746C85.6358 98.942 85.5612 99.1147 85.4118 99.264C85.2718 99.404 85.0992 99.474 84.8938 99.474ZM87.4934 108V101.168H88.5154V102.274C88.7767 101.863 89.0894 101.56 89.4534 101.364C89.8174 101.159 90.228 101.056 90.6854 101.056C91.18 101.056 91.6094 101.163 91.9734 101.378C92.3467 101.583 92.636 101.877 92.8414 102.26C93.056 102.633 93.1634 103.072 93.1634 103.576V108H92.1414V103.87C92.1414 103.263 91.9734 102.787 91.6374 102.442C91.3107 102.087 90.8674 101.91 90.3074 101.91C89.934 101.91 89.5934 101.999 89.2854 102.176C88.9774 102.353 88.7207 102.615 88.5154 102.96V108H87.4934ZM98.06 108.098C97.472 108.098 96.94 107.944 96.464 107.636C95.988 107.319 95.61 106.899 95.33 106.376C95.05 105.844 94.91 105.251 94.91 104.598C94.91 103.935 95.05 103.343 95.33 102.82C95.6193 102.288 96.0066 101.868 96.492 101.56C96.9773 101.243 97.5186 101.084 98.116 101.084C98.536 101.084 98.928 101.168 99.292 101.336C99.656 101.495 99.9733 101.728 100.244 102.036V97.892L101.266 97.682V108H100.244V107.09C99.9826 107.417 99.6653 107.669 99.292 107.846C98.9186 108.014 98.508 108.098 98.06 108.098ZM98.312 107.202C98.7133 107.202 99.082 107.123 99.418 106.964C99.754 106.805 100.029 106.581 100.244 106.292V102.904C100.02 102.615 99.7353 102.391 99.39 102.232C99.054 102.064 98.6946 101.98 98.312 101.98C97.8546 101.98 97.444 102.092 97.08 102.316C96.7253 102.54 96.4406 102.848 96.226 103.24C96.0206 103.632 95.918 104.08 95.918 104.584C95.918 105.079 96.0206 105.527 96.226 105.928C96.4406 106.32 96.7253 106.633 97.08 106.866C97.444 107.09 97.8546 107.202 98.312 107.202ZM106.634 108V97.99L107.656 97.78V102.106C107.917 101.779 108.235 101.527 108.608 101.35C108.981 101.173 109.397 101.084 109.854 101.084C110.451 101.084 110.983 101.243 111.45 101.56C111.926 101.868 112.304 102.288 112.584 102.82C112.864 103.343 113.004 103.931 113.004 104.584C113.004 105.237 112.859 105.83 112.57 106.362C112.29 106.894 111.907 107.319 111.422 107.636C110.946 107.944 110.405 108.098 109.798 108.098C109.369 108.098 108.967 108.014 108.594 107.846C108.23 107.669 107.913 107.421 107.642 107.104V108H106.634ZM109.602 107.216C110.059 107.216 110.465 107.104 110.82 106.88C111.184 106.647 111.469 106.334 111.674 105.942C111.889 105.541 111.996 105.093 111.996 104.598C111.996 104.094 111.889 103.646 111.674 103.254C111.469 102.862 111.184 102.554 110.82 102.33C110.465 102.097 110.059 101.98 109.602 101.98C109.201 101.98 108.827 102.064 108.482 102.232C108.146 102.391 107.871 102.619 107.656 102.918V106.264C107.88 106.563 108.16 106.796 108.496 106.964C108.841 107.132 109.21 107.216 109.602 107.216ZM114.885 111.066C114.67 111.066 114.451 111.033 114.227 110.968V110.058C114.32 110.077 114.418 110.091 114.521 110.1C114.624 110.109 114.712 110.114 114.787 110.114C115.048 110.114 115.263 110.044 115.431 109.904C115.608 109.764 115.758 109.545 115.879 109.246L116.383 108L113.751 101.168H114.885L116.957 106.782L119.155 101.168H120.289L116.845 109.554C116.696 109.918 116.532 110.212 116.355 110.436C116.178 110.66 115.972 110.819 115.739 110.912C115.506 111.015 115.221 111.066 114.885 111.066ZM124.831 108V101.168H125.853V102.274C126.115 101.863 126.427 101.56 126.791 101.364C127.155 101.159 127.566 101.056 128.023 101.056C128.518 101.056 128.947 101.163 129.311 101.378C129.685 101.583 129.974 101.877 130.179 102.26C130.394 102.633 130.501 103.072 130.501 103.576V108H129.479V103.87C129.479 103.263 129.311 102.787 128.975 102.442C128.649 102.087 128.205 101.91 127.645 101.91C127.272 101.91 126.931 101.999 126.623 102.176C126.315 102.353 126.059 102.615 125.853 102.96V108H124.831ZM134.67 108.126C134.185 108.126 133.755 108.037 133.382 107.86C133.009 107.683 132.715 107.44 132.5 107.132C132.295 106.815 132.192 106.451 132.192 106.04C132.192 105.629 132.299 105.275 132.514 104.976C132.729 104.668 133.027 104.43 133.41 104.262C133.793 104.094 134.241 104.01 134.754 104.01C135.146 104.01 135.515 104.052 135.86 104.136C136.215 104.22 136.541 104.355 136.84 104.542V103.604C136.84 103.044 136.691 102.624 136.392 102.344C136.093 102.055 135.655 101.91 135.076 101.91C134.759 101.91 134.432 101.957 134.096 102.05C133.769 102.143 133.405 102.293 133.004 102.498L132.626 101.714C133.541 101.275 134.399 101.056 135.202 101.056C136.051 101.056 136.705 101.266 137.162 101.686C137.619 102.097 137.848 102.689 137.848 103.464V108H136.84V107.202C136.541 107.51 136.21 107.743 135.846 107.902C135.482 108.051 135.09 108.126 134.67 108.126ZM133.172 106.012C133.172 106.413 133.326 106.735 133.634 106.978C133.951 107.221 134.367 107.342 134.88 107.342C135.263 107.342 135.613 107.277 135.93 107.146C136.257 107.015 136.56 106.819 136.84 106.558V105.242C136.551 105.074 136.252 104.953 135.944 104.878C135.636 104.794 135.291 104.752 134.908 104.752C134.385 104.752 133.965 104.869 133.648 105.102C133.331 105.326 133.172 105.629 133.172 106.012ZM139.925 108V101.168H140.947V102.232C141.208 101.84 141.507 101.546 141.843 101.35C142.179 101.154 142.557 101.056 142.977 101.056C143.462 101.056 143.887 101.177 144.251 101.42C144.615 101.653 144.89 101.975 145.077 102.386C145.348 101.947 145.67 101.616 146.043 101.392C146.426 101.168 146.864 101.056 147.359 101.056C147.816 101.056 148.218 101.163 148.563 101.378C148.918 101.593 149.193 101.891 149.389 102.274C149.585 102.647 149.683 103.086 149.683 103.59V108H148.661V103.842C148.661 103.245 148.512 102.773 148.213 102.428C147.914 102.083 147.504 101.91 146.981 101.91C146.626 101.91 146.304 101.999 146.015 102.176C145.735 102.353 145.488 102.624 145.273 102.988C145.292 103.081 145.306 103.179 145.315 103.282C145.324 103.385 145.329 103.487 145.329 103.59V108H144.307V103.842C144.307 103.245 144.153 102.773 143.845 102.428C143.546 102.083 143.136 101.91 142.613 101.91C141.913 101.91 141.358 102.246 140.947 102.918V108H139.925ZM154.831 108.14C154.197 108.14 153.623 107.986 153.109 107.678C152.596 107.361 152.19 106.936 151.891 106.404C151.593 105.863 151.443 105.256 151.443 104.584C151.443 103.912 151.583 103.31 151.863 102.778C152.153 102.246 152.54 101.826 153.025 101.518C153.511 101.21 154.052 101.056 154.649 101.056C155.256 101.056 155.793 101.21 156.259 101.518C156.735 101.817 157.109 102.227 157.379 102.75C157.659 103.263 157.799 103.847 157.799 104.5V104.808H152.437C152.475 105.275 152.601 105.695 152.815 106.068C153.039 106.432 153.329 106.721 153.683 106.936C154.047 107.141 154.444 107.244 154.873 107.244C155.228 107.244 155.569 107.183 155.895 107.062C156.231 106.931 156.516 106.759 156.749 106.544L157.393 107.23C157.001 107.538 156.595 107.767 156.175 107.916C155.755 108.065 155.307 108.14 154.831 108.14ZM152.465 104.08H156.791C156.745 103.669 156.619 103.305 156.413 102.988C156.217 102.661 155.965 102.405 155.657 102.218C155.359 102.031 155.023 101.938 154.649 101.938C154.276 101.938 153.935 102.031 153.627 102.218C153.319 102.395 153.063 102.647 152.857 102.974C152.661 103.291 152.531 103.66 152.465 104.08Z" fill="#4D4D4D"/>
<rect width="327" height="162" transform="translate(38 146)" fill="white"/>
<path fill-rule="evenodd" clip-rule="evenodd" d="M225.628 201.234L228.723 198.139C229.751 197.111 229.751 195.448 228.734 194.42L217.83 183.516C217.337 183.023 216.67 182.75 215.97 182.75H214.187C217.206 178.889 219 174.033 219 168.75C219 156.183 208.817 146 196.25 146C183.683 146 173.5 156.183 173.5 168.75C173.5 181.317 183.683 191.5 196.25 191.5C201.533 191.5 206.389 189.706 210.25 186.687V188.47C210.25 189.17 210.523 189.837 211.016 190.33L221.92 201.234C222.948 202.262 224.611 202.262 225.628 201.234ZM196.25 182.75C188.517 182.75 182.25 176.494 182.25 168.75C182.25 161.017 188.506 154.75 196.25 154.75C203.983 154.75 210.25 161.006 210.25 168.75C210.25 176.483 203.994 182.75 196.25 182.75Z" fill="#707070"/>
<path d="M127.861 238V224H129.901L137.721 234.4V224H139.701V238H137.861L129.861 227.28V238H127.861ZM147.168 238.2C146.182 238.2 145.282 237.967 144.468 237.5C143.668 237.033 143.035 236.4 142.568 235.6C142.102 234.8 141.868 233.907 141.868 232.92C141.868 231.933 142.102 231.04 142.568 230.24C143.035 229.44 143.668 228.807 144.468 228.34C145.282 227.86 146.182 227.62 147.168 227.62C148.168 227.62 149.068 227.86 149.868 228.34C150.668 228.807 151.302 229.44 151.768 230.24C152.235 231.04 152.468 231.933 152.468 232.92C152.468 233.907 152.235 234.8 151.768 235.6C151.302 236.4 150.668 237.033 149.868 237.5C149.068 237.967 148.168 238.2 147.168 238.2ZM147.168 236.44C147.795 236.44 148.355 236.287 148.848 235.98C149.355 235.66 149.755 235.233 150.048 234.7C150.355 234.167 150.508 233.573 150.508 232.92C150.508 232.253 150.362 231.66 150.068 231.14C149.775 230.607 149.375 230.18 148.868 229.86C148.362 229.54 147.795 229.38 147.168 229.38C146.542 229.38 145.975 229.54 145.468 229.86C144.962 230.18 144.562 230.607 144.268 231.14C143.975 231.66 143.828 232.253 143.828 232.92C143.828 233.573 143.975 234.167 144.268 234.7C144.562 235.233 144.962 235.66 145.468 235.98C145.975 236.287 146.542 236.44 147.168 236.44ZM158.539 238V227.82H160.539V229.12C160.859 228.64 161.253 228.267 161.719 228C162.199 227.72 162.739 227.58 163.339 227.58C163.753 227.593 164.093 227.653 164.359 227.76V229.56C163.973 229.413 163.579 229.34 163.179 229.34C162.593 229.34 162.073 229.5 161.619 229.82C161.166 230.127 160.806 230.58 160.539 231.18V238H158.539ZM170.255 238.18C169.255 238.18 168.349 237.947 167.535 237.48C166.735 237.013 166.095 236.38 165.615 235.58C165.149 234.78 164.915 233.887 164.915 232.9C164.915 231.927 165.142 231.047 165.595 230.26C166.049 229.46 166.662 228.827 167.435 228.36C168.209 227.88 169.069 227.64 170.015 227.64C170.962 227.64 171.802 227.88 172.535 228.36C173.269 228.827 173.849 229.467 174.275 230.28C174.715 231.08 174.935 231.987 174.935 233V233.56H166.915C167.022 234.12 167.229 234.62 167.535 235.06C167.855 235.5 168.255 235.847 168.735 236.1C169.229 236.353 169.762 236.48 170.335 236.48C170.829 236.48 171.302 236.407 171.755 236.26C172.222 236.1 172.609 235.873 172.915 235.58L174.195 236.84C173.595 237.293 172.975 237.633 172.335 237.86C171.709 238.073 171.015 238.18 170.255 238.18ZM166.935 232.06H172.955C172.875 231.527 172.689 231.06 172.395 230.66C172.115 230.247 171.762 229.927 171.335 229.7C170.922 229.46 170.469 229.34 169.975 229.34C169.202 229.34 168.535 229.593 167.975 230.1C167.429 230.593 167.082 231.247 166.935 232.06ZM180.438 238.2C179.558 238.2 178.731 238.073 177.958 237.82C177.198 237.553 176.538 237.18 175.978 236.7L177.078 235.38C177.598 235.793 178.131 236.113 178.678 236.34C179.238 236.553 179.804 236.66 180.378 236.66C181.098 236.66 181.684 236.52 182.138 236.24C182.591 235.96 182.818 235.593 182.818 235.14C182.818 234.42 182.271 233.98 181.178 233.82L179.338 233.56C178.324 233.413 177.564 233.1 177.058 232.62C176.551 232.14 176.298 231.5 176.298 230.7C176.298 230.087 176.464 229.553 176.798 229.1C177.131 228.633 177.598 228.273 178.198 228.02C178.798 227.753 179.498 227.62 180.298 227.62C181.031 227.62 181.738 227.727 182.418 227.94C183.098 228.153 183.751 228.487 184.378 228.94L183.358 230.26C182.251 229.54 181.178 229.18 180.138 229.18C179.524 229.18 179.031 229.313 178.658 229.58C178.284 229.833 178.098 230.167 178.098 230.58C178.098 230.953 178.224 231.247 178.478 231.46C178.744 231.66 179.178 231.8 179.778 231.88L181.618 232.14C182.631 232.287 183.398 232.6 183.918 233.08C184.438 233.547 184.698 234.18 184.698 234.98C184.698 235.593 184.511 236.147 184.138 236.64C183.764 237.12 183.258 237.5 182.618 237.78C181.978 238.06 181.251 238.2 180.438 238.2ZM190.175 238.2C189.388 238.2 188.695 238.033 188.095 237.7C187.495 237.367 187.028 236.9 186.695 236.3C186.361 235.7 186.195 235 186.195 234.2V227.82H188.175V233.86C188.175 234.66 188.401 235.293 188.855 235.76C189.321 236.227 189.941 236.46 190.715 236.46C191.808 236.46 192.641 236.013 193.215 235.12V227.82H195.215V238H193.215V236.96C192.428 237.787 191.415 238.2 190.175 238.2ZM197.582 238V224L199.582 223.62V238H197.582ZM206.298 238.18C205.311 238.18 204.558 237.953 204.038 237.5C203.518 237.033 203.258 236.36 203.258 235.48V229.5H201.098V227.82H203.258V225.22L205.238 224.74V227.82H208.238V229.5H205.238V235.02C205.238 235.54 205.351 235.913 205.578 236.14C205.818 236.353 206.204 236.46 206.738 236.46C207.018 236.46 207.264 236.44 207.478 236.4C207.704 236.36 207.944 236.3 208.198 236.22V237.9C207.931 237.993 207.618 238.06 207.258 238.1C206.911 238.153 206.591 238.18 206.298 238.18ZM213.407 238.2C212.527 238.2 211.7 238.073 210.927 237.82C210.167 237.553 209.507 237.18 208.947 236.7L210.047 235.38C210.567 235.793 211.1 236.113 211.647 236.34C212.207 236.553 212.773 236.66 213.347 236.66C214.067 236.66 214.653 236.52 215.107 236.24C215.56 235.96 215.787 235.593 215.787 235.14C215.787 234.42 215.24 233.98 214.147 233.82L212.307 233.56C211.293 233.413 210.533 233.1 210.027 232.62C209.52 232.14 209.267 231.5 209.267 230.7C209.267 230.087 209.433 229.553 209.767 229.1C210.1 228.633 210.567 228.273 211.167 228.02C211.767 227.753 212.467 227.62 213.267 227.62C214 227.62 214.707 227.727 215.387 227.94C216.067 228.153 216.72 228.487 217.347 228.94L216.327 230.26C215.22 229.54 214.147 229.18 213.107 229.18C212.493 229.18 212 229.313 211.627 229.58C211.253 229.833 211.067 230.167 211.067 230.58C211.067 230.953 211.193 231.247 211.447 231.46C211.713 231.66 212.147 231.8 212.747 231.88L214.587 232.14C215.6 232.287 216.367 232.6 216.887 233.08C217.407 233.547 217.667 234.18 217.667 234.98C217.667 235.593 217.48 236.147 217.107 236.64C216.733 237.12 216.227 237.5 215.587 237.78C214.947 238.06 214.22 238.2 213.407 238.2ZM224.903 238V229.5H222.543V227.82H224.903V226.28C224.903 225.213 225.196 224.4 225.783 223.84C226.383 223.28 227.236 223 228.343 223C228.623 223 228.883 223.02 229.123 223.06C229.376 223.087 229.603 223.133 229.803 223.2V224.92C229.563 224.853 229.35 224.807 229.163 224.78C228.976 224.74 228.77 224.72 228.543 224.72C227.436 224.72 226.883 225.26 226.883 226.34V227.82H229.803V229.5H226.883V238H224.903ZM235.704 238.2C234.717 238.2 233.817 237.967 233.004 237.5C232.204 237.033 231.57 236.4 231.104 235.6C230.637 234.8 230.404 233.907 230.404 232.92C230.404 231.933 230.637 231.04 231.104 230.24C231.57 229.44 232.204 228.807 233.004 228.34C233.817 227.86 234.717 227.62 235.704 227.62C236.704 227.62 237.604 227.86 238.404 228.34C239.204 228.807 239.837 229.44 240.304 230.24C240.77 231.04 241.004 231.933 241.004 232.92C241.004 233.907 240.77 234.8 240.304 235.6C239.837 236.4 239.204 237.033 238.404 237.5C237.604 237.967 236.704 238.2 235.704 238.2ZM235.704 236.44C236.33 236.44 236.89 236.287 237.384 235.98C237.89 235.66 238.29 235.233 238.584 234.7C238.89 234.167 239.044 233.573 239.044 232.92C239.044 232.253 238.897 231.66 238.604 231.14C238.31 230.607 237.91 230.18 237.404 229.86C236.897 229.54 236.33 229.38 235.704 229.38C235.077 229.38 234.51 229.54 234.004 229.86C233.497 230.18 233.097 230.607 232.804 231.14C232.51 231.66 232.364 232.253 232.364 232.92C232.364 233.573 232.51 234.167 232.804 234.7C233.097 235.233 233.497 235.66 234.004 235.98C234.51 236.287 235.077 236.44 235.704 236.44ZM246.835 238.2C246.048 238.2 245.355 238.033 244.755 237.7C244.155 237.367 243.688 236.9 243.355 236.3C243.022 235.7 242.855 235 242.855 234.2V227.82H244.835V233.86C244.835 234.66 245.062 235.293 245.515 235.76C245.982 236.227 246.602 236.46 247.375 236.46C248.468 236.46 249.302 236.013 249.875 235.12V227.82H251.875V238H249.875V236.96C249.088 237.787 248.075 238.2 246.835 238.2ZM254.243 238V227.82H256.243V228.86C257.029 228.033 258.049 227.62 259.303 227.62C260.089 227.62 260.776 227.787 261.363 228.12C261.963 228.453 262.429 228.92 262.763 229.52C263.109 230.12 263.283 230.813 263.283 231.6V238H261.283V231.94C261.283 231.14 261.056 230.513 260.603 230.06C260.149 229.593 259.529 229.36 258.743 229.36C258.209 229.36 257.729 229.473 257.303 229.7C256.876 229.927 256.523 230.253 256.243 230.68V238H254.243ZM270.27 238.16C269.323 238.16 268.457 237.927 267.67 237.46C266.883 236.993 266.263 236.367 265.81 235.58C265.357 234.78 265.13 233.887 265.13 232.9C265.13 231.913 265.357 231.027 265.81 230.24C266.277 229.453 266.903 228.827 267.69 228.36C268.477 227.893 269.35 227.66 270.31 227.66C271.457 227.66 272.477 228 273.37 228.68V224L275.37 223.62V238H273.39V237.02C272.523 237.78 271.483 238.16 270.27 238.16ZM270.53 236.42C271.117 236.42 271.65 236.313 272.13 236.1C272.623 235.887 273.037 235.58 273.37 235.18V230.6C273.037 230.227 272.623 229.933 272.13 229.72C271.637 229.493 271.103 229.38 270.53 229.38C269.89 229.38 269.31 229.533 268.79 229.84C268.27 230.147 267.857 230.567 267.55 231.1C267.243 231.62 267.09 232.213 267.09 232.88C267.09 233.547 267.243 234.147 267.55 234.68C267.857 235.213 268.27 235.64 268.79 235.96C269.31 236.267 269.89 236.42 270.53 236.42Z" fill="#151515"/>
<path d="M39.5034 278L43.9354 266.8H45.4074L49.7754 278H48.4474L47.1194 274.48H42.1274L40.7994 278H39.5034ZM42.5114 273.504H46.7514L44.6234 267.92L42.5114 273.504ZM54.0574 278.112C53.3854 278.112 52.7774 277.936 52.2334 277.584C51.6894 277.221 51.2574 276.741 50.9374 276.144C50.6174 275.536 50.4574 274.859 50.4574 274.112C50.4574 273.355 50.6174 272.677 50.9374 272.08C51.268 271.472 51.7107 270.992 52.2654 270.64C52.82 270.277 53.4387 270.096 54.1214 270.096C54.6014 270.096 55.0494 270.192 55.4654 270.384C55.8814 270.565 56.244 270.832 56.5534 271.184V266.448L57.7214 266.208V278H56.5534V276.96C56.2547 277.333 55.892 277.621 55.4654 277.824C55.0387 278.016 54.5694 278.112 54.0574 278.112ZM54.3454 277.088C54.804 277.088 55.2254 276.997 55.6094 276.816C55.9934 276.635 56.308 276.379 56.5534 276.048V272.176C56.2974 271.845 55.972 271.589 55.5774 271.408C55.1934 271.216 54.7827 271.12 54.3454 271.12C53.8227 271.12 53.3534 271.248 52.9374 271.504C52.532 271.76 52.2067 272.112 51.9614 272.56C51.7267 273.008 51.6094 273.52 51.6094 274.096C51.6094 274.661 51.7267 275.173 51.9614 275.632C52.2067 276.08 52.532 276.437 52.9374 276.704C53.3534 276.96 53.8227 277.088 54.3454 277.088ZM60.7139 268.256C60.4792 268.256 60.2765 268.176 60.1059 268.016C59.9459 267.845 59.8659 267.648 59.8659 267.424C59.8659 267.2 59.9459 267.008 60.1059 266.848C60.2765 266.677 60.4792 266.592 60.7139 266.592C60.9485 266.592 61.1459 266.677 61.3059 266.848C61.4765 267.008 61.5619 267.2 61.5619 267.424C61.5619 267.648 61.4765 267.845 61.3059 268.016C61.1459 268.176 60.9485 268.256 60.7139 268.256ZM59.3219 281.504C59.1939 281.504 59.0659 281.488 58.9379 281.456C58.8205 281.435 58.7085 281.419 58.6019 281.408V280.4C58.6979 280.421 58.7939 280.437 58.8899 280.448C58.9752 280.459 59.0712 280.464 59.1779 280.464C59.5192 280.464 59.7592 280.384 59.8979 280.224C60.0472 280.064 60.1219 279.803 60.1219 279.44V270.192H61.2899V279.504C61.2899 280.133 61.1192 280.624 60.7779 280.976C60.4472 281.328 59.9619 281.504 59.3219 281.504ZM66.4684 278.128C65.9137 278.128 65.423 278.005 64.9964 277.76C64.5697 277.515 64.2337 277.173 63.9884 276.736C63.7537 276.299 63.6364 275.797 63.6364 275.232V270.192H64.8204V274.896C64.8204 275.589 65.007 276.139 65.3804 276.544C65.7537 276.949 66.2604 277.152 66.9004 277.152C67.3377 277.152 67.727 277.051 68.0684 276.848C68.4204 276.645 68.7137 276.352 68.9484 275.968V270.192H70.1164V278H68.9484V276.736C68.6497 277.195 68.2924 277.541 67.8764 277.776C67.471 278.011 67.0017 278.128 66.4684 278.128ZM74.9285 278.16C74.2885 278.16 73.6965 278.064 73.1525 277.872C72.6085 277.669 72.1445 277.381 71.7605 277.008L72.3845 276.24C72.8538 276.581 73.2858 276.832 73.6805 276.992C74.0752 277.141 74.4805 277.216 74.8965 277.216C75.4618 277.216 75.9312 277.083 76.3045 276.816C76.6778 276.549 76.8645 276.208 76.8645 275.792C76.8645 275.472 76.7525 275.221 76.5285 275.04C76.3152 274.859 75.9578 274.72 75.4565 274.624L74.1765 274.4C73.4192 274.261 72.8592 274.027 72.4965 273.696C72.1445 273.365 71.9685 272.917 71.9685 272.352C71.9685 271.904 72.0858 271.509 72.3205 271.168C72.5658 270.827 72.9018 270.56 73.3285 270.368C73.7552 270.165 74.2405 270.064 74.7845 270.064C75.3178 270.064 75.8245 270.144 76.3045 270.304C76.7845 270.453 77.2698 270.699 77.7605 271.04L77.1845 271.856C76.7792 271.568 76.3738 271.36 75.9685 271.232C75.5632 271.093 75.1525 271.024 74.7365 271.024C74.2245 271.024 73.8138 271.136 73.5045 271.36C73.1952 271.584 73.0405 271.888 73.0405 272.272C73.0405 272.592 73.1365 272.837 73.3285 273.008C73.5312 273.179 73.8832 273.307 74.3845 273.392L75.6965 273.632C76.4858 273.771 77.0618 274.011 77.4245 274.352C77.7872 274.693 77.9685 275.152 77.9685 275.728C77.9685 276.187 77.8352 276.603 77.5685 276.976C77.3018 277.339 76.9392 277.627 76.4805 277.84C76.0218 278.053 75.5045 278.16 74.9285 278.16ZM82.5666 278.16C81.8946 278.16 81.3826 278 81.0306 277.68C80.6893 277.349 80.5186 276.875 80.5186 276.256V271.152H78.9026V270.192H80.5186V268.048L81.6866 267.776V270.192H83.9266V271.152H81.6866V275.952C81.6866 276.368 81.772 276.667 81.9426 276.848C82.124 277.029 82.4173 277.12 82.8226 277.12C83.0253 277.12 83.2066 277.104 83.3666 277.072C83.5266 277.04 83.7133 276.987 83.9266 276.912V277.952C83.7133 278.027 83.4893 278.08 83.2546 278.112C83.02 278.144 82.7906 278.16 82.5666 278.16ZM89.7079 281.504C89.4625 281.504 89.2119 281.467 88.9559 281.392V280.352C89.0625 280.373 89.1745 280.389 89.2919 280.4C89.4092 280.411 89.5105 280.416 89.5959 280.416C89.8945 280.416 90.1399 280.336 90.3319 280.176C90.5345 280.016 90.7052 279.765 90.8439 279.424L91.4199 278L88.4119 270.192H89.7079L92.0759 276.608L94.5879 270.192H95.8839L91.9479 279.776C91.7772 280.192 91.5905 280.528 91.3879 280.784C91.1852 281.04 90.9505 281.221 90.6839 281.328C90.4172 281.445 90.0919 281.504 89.7079 281.504ZM100.562 278.128C99.8369 278.128 99.1863 277.952 98.6103 277.6C98.0343 277.248 97.5809 276.768 97.2503 276.16C96.9196 275.552 96.7543 274.864 96.7543 274.096C96.7543 273.328 96.9196 272.64 97.2503 272.032C97.5809 271.424 98.0343 270.944 98.6103 270.592C99.1863 270.24 99.8369 270.064 100.562 270.064C101.277 270.064 101.917 270.24 102.482 270.592C103.058 270.944 103.512 271.424 103.842 272.032C104.173 272.64 104.338 273.328 104.338 274.096C104.338 274.864 104.173 275.552 103.842 276.16C103.512 276.768 103.058 277.248 102.482 277.6C101.917 277.952 101.277 278.128 100.562 278.128ZM100.546 277.104C101.058 277.104 101.512 276.976 101.906 276.72C102.301 276.453 102.61 276.091 102.834 275.632C103.069 275.173 103.186 274.661 103.186 274.096C103.186 273.52 103.069 273.008 102.834 272.56C102.61 272.101 102.301 271.744 101.906 271.488C101.512 271.221 101.058 271.088 100.546 271.088C100.034 271.088 99.5809 271.221 99.1863 271.488C98.7916 271.744 98.4769 272.101 98.2423 272.56C98.0183 273.008 97.9062 273.52 97.9062 274.096C97.9062 274.661 98.0183 275.173 98.2423 275.632C98.4769 276.091 98.7916 276.453 99.1863 276.72C99.5809 276.976 100.034 277.104 100.546 277.104ZM109.172 278.128C108.617 278.128 108.126 278.005 107.7 277.76C107.273 277.515 106.937 277.173 106.692 276.736C106.457 276.299 106.34 275.797 106.34 275.232V270.192H107.524V274.896C107.524 275.589 107.71 276.139 108.084 276.544C108.457 276.949 108.964 277.152 109.604 277.152C110.041 277.152 110.43 277.051 110.772 276.848C111.124 276.645 111.417 276.352 111.652 275.968V270.192H112.82V278H111.652V276.736C111.353 277.195 110.996 277.541 110.58 277.776C110.174 278.011 109.705 278.128 109.172 278.128ZM115.216 278V270.192H116.384V271.792C116.586 271.248 116.874 270.827 117.248 270.528C117.632 270.219 118.069 270.064 118.56 270.064C118.698 270.064 118.826 270.075 118.944 270.096C119.061 270.107 119.178 270.133 119.296 270.176V271.232C119.168 271.189 119.029 271.157 118.88 271.136C118.741 271.104 118.608 271.088 118.48 271.088C118 271.088 117.578 271.227 117.216 271.504C116.864 271.781 116.586 272.171 116.384 272.672V278H115.216ZM126.991 278.16C126.351 278.16 125.759 278.064 125.215 277.872C124.671 277.669 124.207 277.381 123.823 277.008L124.447 276.24C124.916 276.581 125.348 276.832 125.743 276.992C126.138 277.141 126.543 277.216 126.959 277.216C127.524 277.216 127.994 277.083 128.367 276.816C128.74 276.549 128.927 276.208 128.927 275.792C128.927 275.472 128.815 275.221 128.591 275.04C128.378 274.859 128.02 274.72 127.519 274.624L126.239 274.4C125.482 274.261 124.922 274.027 124.559 273.696C124.207 273.365 124.031 272.917 124.031 272.352C124.031 271.904 124.148 271.509 124.383 271.168C124.628 270.827 124.964 270.56 125.391 270.368C125.818 270.165 126.303 270.064 126.847 270.064C127.38 270.064 127.887 270.144 128.367 270.304C128.847 270.453 129.332 270.699 129.823 271.04L129.247 271.856C128.842 271.568 128.436 271.36 128.031 271.232C127.626 271.093 127.215 271.024 126.799 271.024C126.287 271.024 125.876 271.136 125.567 271.36C125.258 271.584 125.103 271.888 125.103 272.272C125.103 272.592 125.199 272.837 125.391 273.008C125.594 273.179 125.946 273.307 126.447 273.392L127.759 273.632C128.548 273.771 129.124 274.011 129.487 274.352C129.85 274.693 130.031 275.152 130.031 275.728C130.031 276.187 129.898 276.603 129.631 276.976C129.364 277.339 129.002 277.627 128.543 277.84C128.084 278.053 127.567 278.16 126.991 278.16ZM135.408 278.16C134.682 278.16 134.026 277.984 133.44 277.632C132.853 277.269 132.389 276.784 132.048 276.176C131.706 275.557 131.536 274.864 131.536 274.096C131.536 273.328 131.696 272.64 132.016 272.032C132.346 271.424 132.789 270.944 133.344 270.592C133.898 270.24 134.517 270.064 135.2 270.064C135.893 270.064 136.506 270.24 137.04 270.592C137.584 270.933 138.01 271.403 138.32 272C138.64 272.587 138.8 273.253 138.8 274V274.352H132.672C132.714 274.885 132.858 275.365 133.104 275.792C133.36 276.208 133.69 276.539 134.096 276.784C134.512 277.019 134.965 277.136 135.456 277.136C135.861 277.136 136.25 277.067 136.624 276.928C137.008 276.779 137.333 276.581 137.6 276.336L138.336 277.12C137.888 277.472 137.424 277.733 136.944 277.904C136.464 278.075 135.952 278.16 135.408 278.16ZM132.704 273.52H137.648C137.594 273.051 137.45 272.635 137.216 272.272C136.992 271.899 136.704 271.605 136.352 271.392C136.01 271.179 135.626 271.072 135.2 271.072C134.773 271.072 134.384 271.179 134.032 271.392C133.68 271.595 133.386 271.883 133.152 272.256C132.928 272.619 132.778 273.04 132.704 273.52ZM143.054 278.144C142.499 278.144 142.008 278.043 141.582 277.84C141.155 277.637 140.819 277.36 140.574 277.008C140.339 276.645 140.222 276.229 140.222 275.76C140.222 275.291 140.344 274.885 140.59 274.544C140.835 274.192 141.176 273.92 141.614 273.728C142.051 273.536 142.563 273.44 143.15 273.44C143.598 273.44 144.019 273.488 144.414 273.584C144.819 273.68 145.192 273.835 145.534 274.048V272.976C145.534 272.336 145.363 271.856 145.022 271.536C144.68 271.205 144.179 271.04 143.518 271.04C143.155 271.04 142.782 271.093 142.398 271.2C142.024 271.307 141.608 271.477 141.15 271.712L140.718 270.816C141.763 270.315 142.744 270.064 143.661 270.064C144.632 270.064 145.379 270.304 145.902 270.784C146.424 271.253 146.686 271.931 146.686 272.816V278H145.534V277.088C145.192 277.44 144.814 277.707 144.398 277.888C143.982 278.059 143.534 278.144 143.054 278.144ZM141.342 275.728C141.342 276.187 141.518 276.555 141.87 276.832C142.232 277.109 142.707 277.248 143.294 277.248C143.731 277.248 144.131 277.173 144.494 277.024C144.867 276.875 145.214 276.651 145.534 276.352V274.848C145.203 274.656 144.862 274.517 144.51 274.432C144.158 274.336 143.763 274.288 143.326 274.288C142.728 274.288 142.248 274.421 141.886 274.688C141.523 274.944 141.342 275.291 141.342 275.728ZM149.059 278V270.192H150.227V271.792C150.43 271.248 150.718 270.827 151.091 270.528C151.475 270.219 151.913 270.064 152.403 270.064C152.542 270.064 152.67 270.075 152.787 270.096C152.905 270.107 153.022 270.133 153.139 270.176V271.232C153.011 271.189 152.873 271.157 152.723 271.136C152.585 271.104 152.451 271.088 152.323 271.088C151.843 271.088 151.422 271.227 151.059 271.504C150.707 271.781 150.43 272.171 150.227 272.672V278H149.059ZM157.704 278.128C156.979 278.128 156.323 277.952 155.736 277.6C155.16 277.237 154.701 276.752 154.36 276.144C154.019 275.525 153.848 274.843 153.848 274.096C153.848 273.339 154.019 272.656 154.36 272.048C154.701 271.44 155.16 270.96 155.736 270.608C156.323 270.245 156.979 270.064 157.704 270.064C158.28 270.064 158.829 270.171 159.352 270.384C159.875 270.597 160.328 270.896 160.712 271.28L159.96 272.096C159.683 271.787 159.347 271.547 158.952 271.376C158.557 271.205 158.157 271.12 157.752 271.12C157.24 271.12 156.776 271.253 156.36 271.52C155.955 271.787 155.629 272.144 155.384 272.592C155.139 273.04 155.016 273.541 155.016 274.096C155.016 274.651 155.139 275.152 155.384 275.6C155.629 276.048 155.955 276.405 156.36 276.672C156.776 276.939 157.24 277.072 157.752 277.072C158.157 277.072 158.557 276.987 158.952 276.816C159.347 276.635 159.683 276.395 159.96 276.096L160.712 276.912C160.328 277.296 159.875 277.595 159.352 277.808C158.829 278.021 158.28 278.128 157.704 278.128ZM162.341 278V266.448L163.509 266.208V271.456C163.807 270.987 164.165 270.64 164.581 270.416C164.997 270.181 165.466 270.064 165.989 270.064C166.554 270.064 167.045 270.187 167.461 270.432C167.887 270.667 168.218 271.003 168.453 271.44C168.698 271.867 168.821 272.368 168.821 272.944V278H167.653V273.28C167.653 272.587 167.461 272.043 167.077 271.648C166.703 271.243 166.197 271.04 165.557 271.04C165.13 271.04 164.741 271.141 164.389 271.344C164.037 271.547 163.743 271.845 163.509 272.24V278H162.341ZM180.647 281.344V276.96C180.348 277.333 179.986 277.621 179.559 277.824C179.132 278.016 178.663 278.112 178.151 278.112C177.479 278.112 176.871 277.936 176.327 277.584C175.783 277.221 175.351 276.741 175.031 276.144C174.711 275.536 174.551 274.859 174.551 274.112C174.551 273.355 174.711 272.677 175.031 272.08C175.362 271.472 175.804 270.992 176.359 270.64C176.914 270.277 177.532 270.096 178.215 270.096C178.695 270.096 179.143 270.192 179.559 270.384C179.975 270.565 180.338 270.832 180.647 271.184V270.192H181.815V281.344H180.647ZM178.439 277.088C178.898 277.088 179.319 276.997 179.703 276.816C180.087 276.635 180.402 276.379 180.647 276.048V272.176C180.391 271.845 180.066 271.589 179.671 271.408C179.287 271.216 178.876 271.12 178.439 271.12C177.916 271.12 177.447 271.248 177.031 271.504C176.626 271.76 176.3 272.112 176.055 272.56C175.82 273.008 175.703 273.52 175.703 274.096C175.703 274.661 175.82 275.173 176.055 275.632C176.3 276.08 176.626 276.437 177.031 276.704C177.447 276.96 177.916 277.088 178.439 277.088ZM187 278.128C186.445 278.128 185.954 278.005 185.528 277.76C185.101 277.515 184.765 277.173 184.52 276.736C184.285 276.299 184.168 275.797 184.168 275.232V270.192H185.352V274.896C185.352 275.589 185.538 276.139 185.912 276.544C186.285 276.949 186.792 277.152 187.432 277.152C187.869 277.152 188.258 277.051 188.6 276.848C188.952 276.645 189.245 276.352 189.48 275.968V270.192H190.648V278H189.48V276.736C189.181 277.195 188.824 277.541 188.408 277.776C188.002 278.011 187.533 278.128 187 278.128ZM196.564 278.16C195.838 278.16 195.182 277.984 194.596 277.632C194.009 277.269 193.545 276.784 193.204 276.176C192.862 275.557 192.692 274.864 192.692 274.096C192.692 273.328 192.852 272.64 193.172 272.032C193.502 271.424 193.945 270.944 194.5 270.592C195.054 270.24 195.673 270.064 196.356 270.064C197.049 270.064 197.662 270.24 198.196 270.592C198.74 270.933 199.166 271.403 199.476 272C199.796 272.587 199.956 273.253 199.956 274V274.352H193.828C193.87 274.885 194.014 275.365 194.26 275.792C194.516 276.208 194.846 276.539 195.252 276.784C195.668 277.019 196.121 277.136 196.612 277.136C197.017 277.136 197.406 277.067 197.78 276.928C198.164 276.779 198.489 276.581 198.756 276.336L199.492 277.12C199.044 277.472 198.58 277.733 198.1 277.904C197.62 278.075 197.108 278.16 196.564 278.16ZM193.86 273.52H198.804C198.75 273.051 198.606 272.635 198.372 272.272C198.148 271.899 197.86 271.605 197.508 271.392C197.166 271.179 196.782 271.072 196.356 271.072C195.929 271.072 195.54 271.179 195.188 271.392C194.836 271.595 194.542 271.883 194.308 272.256C194.084 272.619 193.934 273.04 193.86 273.52ZM201.95 278V270.192H203.118V271.792C203.321 271.248 203.609 270.827 203.982 270.528C204.366 270.219 204.803 270.064 205.294 270.064C205.433 270.064 205.561 270.075 205.678 270.096C205.795 270.107 205.913 270.133 206.03 270.176V271.232C205.902 271.189 205.763 271.157 205.614 271.136C205.475 271.104 205.342 271.088 205.214 271.088C204.734 271.088 204.313 271.227 203.95 271.504C203.598 271.781 203.321 272.171 203.118 272.672V278H201.95ZM208.067 281.504C207.822 281.504 207.571 281.467 207.315 281.392V280.352C207.422 280.373 207.534 280.389 207.651 280.4C207.769 280.411 207.87 280.416 207.955 280.416C208.254 280.416 208.499 280.336 208.691 280.176C208.894 280.016 209.065 279.765 209.203 279.424L209.779 278L206.771 270.192H208.067L210.435 276.608L212.947 270.192H214.243L210.307 279.776C210.137 280.192 209.95 280.528 209.747 280.784C209.545 281.04 209.31 281.221 209.043 281.328C208.777 281.445 208.451 281.504 208.067 281.504ZM221.85 278.144C221.296 278.144 220.805 278.043 220.378 277.84C219.952 277.637 219.616 277.36 219.37 277.008C219.136 276.645 219.018 276.229 219.018 275.76C219.018 275.291 219.141 274.885 219.386 274.544C219.632 274.192 219.973 273.92 220.41 273.728C220.848 273.536 221.36 273.44 221.946 273.44C222.394 273.44 222.816 273.488 223.21 273.584C223.616 273.68 223.989 273.835 224.33 274.048V272.976C224.33 272.336 224.16 271.856 223.818 271.536C223.477 271.205 222.976 271.04 222.314 271.04C221.952 271.04 221.578 271.093 221.194 271.2C220.821 271.307 220.405 271.477 219.946 271.712L219.514 270.816C220.56 270.315 221.541 270.064 222.458 270.064C223.429 270.064 224.176 270.304 224.698 270.784C225.221 271.253 225.482 271.931 225.482 272.816V278H224.33V277.088C223.989 277.44 223.61 277.707 223.194 277.888C222.778 278.059 222.33 278.144 221.85 278.144ZM220.138 275.728C220.138 276.187 220.314 276.555 220.666 276.832C221.029 277.109 221.504 277.248 222.09 277.248C222.528 277.248 222.928 277.173 223.29 277.024C223.664 276.875 224.01 276.651 224.33 276.352V274.848C224 274.656 223.658 274.517 223.306 274.432C222.954 274.336 222.56 274.288 222.122 274.288C221.525 274.288 221.045 274.421 220.682 274.688C220.32 274.944 220.138 275.291 220.138 275.728ZM227.856 278V270.192H229.024V271.456C229.323 270.987 229.68 270.64 230.096 270.416C230.512 270.181 230.982 270.064 231.504 270.064C232.07 270.064 232.56 270.187 232.976 270.432C233.403 270.667 233.734 271.003 233.968 271.44C234.214 271.867 234.336 272.368 234.336 272.944V278H233.168V273.28C233.168 272.587 232.976 272.043 232.592 271.648C232.219 271.243 231.712 271.04 231.072 271.04C230.646 271.04 230.256 271.141 229.904 271.344C229.552 271.547 229.259 271.845 229.024 272.24V278H227.856ZM239.932 278.112C239.26 278.112 238.652 277.936 238.108 277.584C237.564 277.221 237.132 276.741 236.812 276.144C236.492 275.536 236.332 274.859 236.332 274.112C236.332 273.355 236.492 272.677 236.812 272.08C237.143 271.472 237.586 270.992 238.14 270.64C238.695 270.277 239.314 270.096 239.996 270.096C240.476 270.096 240.924 270.192 241.34 270.384C241.756 270.565 242.119 270.832 242.428 271.184V266.448L243.596 266.208V278H242.428V276.96C242.13 277.333 241.767 277.621 241.34 277.824C240.914 278.016 240.444 278.112 239.932 278.112ZM240.22 277.088C240.679 277.088 241.1 276.997 241.484 276.816C241.868 276.635 242.183 276.379 242.428 276.048V272.176C242.172 271.845 241.847 271.589 241.452 271.408C241.068 271.216 240.658 271.12 240.22 271.12C239.698 271.12 239.228 271.248 238.812 271.504C238.407 271.76 238.082 272.112 237.836 272.56C237.602 273.008 237.484 273.52 237.484 274.096C237.484 274.661 237.602 275.173 237.836 275.632C238.082 276.08 238.407 276.437 238.812 276.704C239.228 276.96 239.698 277.088 240.22 277.088ZM252.707 278.16C252.035 278.16 251.523 278 251.171 277.68C250.83 277.349 250.659 276.875 250.659 276.256V271.152H249.043V270.192H250.659V268.048L251.827 267.776V270.192H254.067V271.152H251.827V275.952C251.827 276.368 251.913 276.667 252.083 276.848C252.265 277.029 252.558 277.12 252.963 277.12C253.166 277.12 253.347 277.104 253.507 277.072C253.667 277.04 253.854 276.987 254.067 276.912V277.952C253.854 278.027 253.63 278.08 253.395 278.112C253.161 278.144 252.931 278.16 252.707 278.16ZM255.778 278V270.192H256.946V271.792C257.149 271.248 257.437 270.827 257.81 270.528C258.194 270.219 258.631 270.064 259.122 270.064C259.261 270.064 259.389 270.075 259.506 270.096C259.623 270.107 259.741 270.133 259.858 270.176V271.232C259.73 271.189 259.591 271.157 259.442 271.136C259.303 271.104 259.17 271.088 259.042 271.088C258.562 271.088 258.141 271.227 257.778 271.504C257.426 271.781 257.149 272.171 256.946 272.672V278H255.778ZM261.895 281.504C261.65 281.504 261.399 281.467 261.143 281.392V280.352C261.25 280.373 261.362 280.389 261.479 280.4C261.597 280.411 261.698 280.416 261.783 280.416C262.082 280.416 262.327 280.336 262.519 280.176C262.722 280.016 262.893 279.765 263.031 279.424L263.607 278L260.599 270.192H261.895L264.263 276.608L266.775 270.192H268.071L264.135 279.776C263.965 280.192 263.778 280.528 263.575 280.784C263.373 281.04 263.138 281.221 262.871 281.328C262.605 281.445 262.279 281.504 261.895 281.504ZM275.679 278.144C275.124 278.144 274.633 278.043 274.207 277.84C273.78 277.637 273.444 277.36 273.199 277.008C272.964 276.645 272.847 276.229 272.847 275.76C272.847 275.291 272.969 274.885 273.215 274.544C273.46 274.192 273.801 273.92 274.239 273.728C274.676 273.536 275.188 273.44 275.775 273.44C276.223 273.44 276.644 273.488 277.039 273.584C277.444 273.68 277.817 273.835 278.159 274.048V272.976C278.159 272.336 277.988 271.856 277.647 271.536C277.305 271.205 276.804 271.04 276.143 271.04C275.78 271.04 275.407 271.093 275.023 271.2C274.649 271.307 274.233 271.477 273.775 271.712L273.343 270.816C274.388 270.315 275.369 270.064 276.286 270.064C277.257 270.064 278.004 270.304 278.527 270.784C279.049 271.253 279.311 271.931 279.311 272.816V278H278.159V277.088C277.817 277.44 277.439 277.707 277.023 277.888C276.607 278.059 276.159 278.144 275.679 278.144ZM273.967 275.728C273.967 276.187 274.143 276.555 274.495 276.832C274.857 277.109 275.332 277.248 275.919 277.248C276.356 277.248 276.756 277.173 277.119 277.024C277.492 276.875 277.839 276.651 278.159 276.352V274.848C277.828 274.656 277.487 274.517 277.135 274.432C276.783 274.336 276.388 274.288 275.951 274.288C275.353 274.288 274.873 274.421 274.511 274.688C274.148 274.944 273.967 275.291 273.967 275.728ZM285.3 281.504C284.778 281.504 284.25 281.429 283.716 281.28C283.194 281.141 282.708 280.944 282.26 280.688L282.756 279.792C283.236 280.037 283.674 280.219 284.068 280.336C284.463 280.453 284.858 280.512 285.252 280.512C285.967 280.512 286.506 280.341 286.868 280C287.242 279.659 287.428 279.163 287.428 278.512V276.944C287.13 277.317 286.767 277.605 286.34 277.808C285.914 278 285.444 278.096 284.932 278.096C284.26 278.096 283.652 277.92 283.108 277.568C282.564 277.205 282.132 276.725 281.812 276.128C281.492 275.52 281.332 274.843 281.332 274.096C281.332 273.349 281.492 272.677 281.812 272.08C282.143 271.472 282.586 270.992 283.14 270.64C283.695 270.277 284.314 270.096 284.996 270.096C285.487 270.096 285.94 270.192 286.356 270.384C286.772 270.565 287.135 270.837 287.444 271.2V270.192H288.596V278.496C288.596 279.467 288.314 280.208 287.748 280.72C287.183 281.243 286.367 281.504 285.3 281.504ZM285.22 277.088C285.679 277.088 286.1 276.997 286.484 276.816C286.868 276.624 287.183 276.363 287.428 276.032V272.176C287.172 271.845 286.847 271.589 286.452 271.408C286.068 271.216 285.658 271.12 285.22 271.12C284.698 271.12 284.228 271.248 283.812 271.504C283.407 271.76 283.082 272.112 282.836 272.56C282.602 273.008 282.484 273.52 282.484 274.096C282.484 274.661 282.602 275.173 282.836 275.632C283.082 276.08 283.407 276.437 283.812 276.704C284.228 276.96 284.698 277.088 285.22 277.088ZM293.413 278.144C292.858 278.144 292.368 278.043 291.941 277.84C291.514 277.637 291.178 277.36 290.933 277.008C290.698 276.645 290.581 276.229 290.581 275.76C290.581 275.291 290.704 274.885 290.949 274.544C291.194 274.192 291.536 273.92 291.973 273.728C292.41 273.536 292.922 273.44 293.509 273.44C293.957 273.44 294.378 273.488 294.773 273.584C295.178 273.68 295.552 273.835 295.893 274.048V272.976C295.893 272.336 295.722 271.856 295.381 271.536C295.04 271.205 294.538 271.04 293.877 271.04C293.514 271.04 293.141 271.093 292.757 271.2C292.384 271.307 291.968 271.477 291.509 271.712L291.077 270.816C292.122 270.315 293.104 270.064 294.021 270.064C294.992 270.064 295.738 270.304 296.261 270.784C296.784 271.253 297.045 271.931 297.045 272.816V278H295.893V277.088C295.552 277.44 295.173 277.707 294.757 277.888C294.341 278.059 293.893 278.144 293.413 278.144ZM291.701 275.728C291.701 276.187 291.877 276.555 292.229 276.832C292.592 277.109 293.066 277.248 293.653 277.248C294.09 277.248 294.49 277.173 294.853 277.024C295.226 276.875 295.573 276.651 295.893 276.352V274.848C295.562 274.656 295.221 274.517 294.869 274.432C294.517 274.336 294.122 274.288 293.685 274.288C293.088 274.288 292.608 274.421 292.245 274.688C291.882 274.944 291.701 275.291 291.701 275.728ZM299.403 278V270.192H300.571V278H299.403ZM299.995 268.256C299.76 268.256 299.557 268.176 299.387 268.016C299.227 267.845 299.147 267.648 299.147 267.424C299.147 267.2 299.227 267.008 299.387 266.848C299.557 266.677 299.76 266.592 299.995 266.592C300.229 266.592 300.427 266.677 300.587 266.848C300.757 267.008 300.843 267.2 300.843 267.424C300.843 267.648 300.757 267.845 300.587 268.016C300.427 268.176 300.229 268.256 299.995 268.256ZM302.966 278V270.192H304.134V271.456C304.432 270.987 304.79 270.64 305.206 270.416C305.622 270.181 306.091 270.064 306.614 270.064C307.179 270.064 307.67 270.187 308.086 270.432C308.512 270.667 308.843 271.003 309.078 271.44C309.323 271.867 309.446 272.368 309.446 272.944V278H308.278V273.28C308.278 272.587 308.086 272.043 307.702 271.648C307.328 271.243 306.822 271.04 306.182 271.04C305.755 271.04 305.366 271.141 305.014 271.344C304.662 271.547 304.368 271.845 304.134 272.24V278H302.966ZM312.594 278.128C312.359 278.128 312.156 278.043 311.986 277.872C311.826 277.701 311.746 277.499 311.746 277.264C311.746 277.019 311.826 276.816 311.986 276.656C312.156 276.485 312.359 276.4 312.594 276.4C312.828 276.4 313.026 276.485 313.186 276.656C313.356 276.816 313.442 277.019 313.442 277.264C313.442 277.499 313.356 277.701 313.186 277.872C313.026 278.043 312.828 278.128 312.594 278.128ZM324.92 278.176C324.12 278.176 323.373 278.032 322.68 277.744C321.997 277.445 321.395 277.035 320.872 276.512C320.349 275.979 319.944 275.365 319.656 274.672C319.368 273.968 319.224 273.211 319.224 272.4C319.224 271.589 319.368 270.837 319.656 270.144C319.944 269.44 320.349 268.827 320.872 268.304C321.395 267.771 321.997 267.36 322.68 267.072C323.373 266.773 324.12 266.624 324.92 266.624C325.475 266.624 326.003 266.699 326.504 266.848C327.016 266.987 327.496 267.195 327.944 267.472C328.392 267.739 328.792 268.069 329.144 268.464L328.328 269.312C327.912 268.811 327.4 268.427 326.792 268.16C326.195 267.883 325.571 267.744 324.92 267.744C324.291 267.744 323.704 267.861 323.16 268.096C322.616 268.331 322.141 268.661 321.736 269.088C321.341 269.515 321.032 270.011 320.808 270.576C320.584 271.131 320.472 271.739 320.472 272.4C320.472 273.051 320.584 273.659 320.808 274.224C321.032 274.789 321.341 275.285 321.736 275.712C322.141 276.139 322.616 276.469 323.16 276.704C323.704 276.939 324.291 277.056 324.92 277.056C325.571 277.056 326.195 276.917 326.792 276.64C327.4 276.363 327.912 275.979 328.328 275.488L329.144 276.336C328.792 276.731 328.392 277.067 327.944 277.344C327.496 277.611 327.016 277.819 326.504 277.968C326.003 278.107 325.475 278.176 324.92 278.176ZM331.138 278V266.448L332.306 266.208V271.456C332.604 270.987 332.962 270.64 333.378 270.416C333.794 270.181 334.263 270.064 334.786 270.064C335.351 270.064 335.842 270.187 336.258 270.432C336.684 270.667 337.015 271.003 337.25 271.44C337.495 271.867 337.618 272.368 337.618 272.944V278H336.45V273.28C336.45 272.587 336.258 272.043 335.874 271.648C335.5 271.243 334.994 271.04 334.354 271.04C333.927 271.04 333.538 271.141 333.186 271.344C332.834 271.547 332.54 271.845 332.306 272.24V278H331.138ZM343.486 278.16C342.76 278.16 342.104 277.984 341.518 277.632C340.931 277.269 340.467 276.784 340.126 276.176C339.784 275.557 339.614 274.864 339.614 274.096C339.614 273.328 339.774 272.64 340.094 272.032C340.424 271.424 340.867 270.944 341.422 270.592C341.976 270.24 342.595 270.064 343.278 270.064C343.971 270.064 344.584 270.24 345.118 270.592C345.662 270.933 346.088 271.403 346.398 272C346.718 272.587 346.878 273.253 346.878 274V274.352H340.75C340.792 274.885 340.936 275.365 341.182 275.792C341.438 276.208 341.768 276.539 342.174 276.784C342.59 277.019 343.043 277.136 343.534 277.136C343.939 277.136 344.328 277.067 344.702 276.928C345.086 276.779 345.411 276.581 345.678 276.336L346.414 277.12C345.966 277.472 345.502 277.733 345.022 277.904C344.542 278.075 344.03 278.16 343.486 278.16ZM340.782 273.52H345.726C345.672 273.051 345.528 272.635 345.294 272.272C345.07 271.899 344.782 271.605 344.43 271.392C344.088 271.179 343.704 271.072 343.278 271.072C342.851 271.072 342.462 271.179 342.11 271.392C341.758 271.595 341.464 271.883 341.23 272.256C341.006 272.619 340.856 273.04 340.782 273.52ZM352.376 278.128C351.651 278.128 350.995 277.952 350.408 277.6C349.832 277.237 349.373 276.752 349.032 276.144C348.691 275.525 348.52 274.843 348.52 274.096C348.52 273.339 348.691 272.656 349.032 272.048C349.373 271.44 349.832 270.96 350.408 270.608C350.995 270.245 351.651 270.064 352.376 270.064C352.952 270.064 353.501 270.171 354.024 270.384C354.547 270.597 355 270.896 355.384 271.28L354.632 272.096C354.355 271.787 354.019 271.547 353.624 271.376C353.229 271.205 352.829 271.12 352.424 271.12C351.912 271.12 351.448 271.253 351.032 271.52C350.627 271.787 350.301 272.144 350.056 272.592C349.811 273.04 349.688 273.541 349.688 274.096C349.688 274.651 349.811 275.152 350.056 275.6C350.301 276.048 350.627 276.405 351.032 276.672C351.448 276.939 351.912 277.072 352.424 277.072C352.829 277.072 353.229 276.987 353.624 276.816C354.019 276.635 354.355 276.395 354.632 276.096L355.384 276.912C355 277.296 354.547 277.595 354.024 277.808C353.501 278.021 352.952 278.128 352.376 278.128ZM357.013 278V266.448L358.181 266.208V273.696L361.893 270.192H363.301L359.333 273.904L363.477 278H361.941L358.181 274.272V278H357.013ZM61.5204 305.504C61.275 305.504 61.0244 305.467 60.7684 305.392V304.352C60.875 304.373 60.987 304.389 61.1044 304.4C61.2217 304.411 61.323 304.416 61.4084 304.416C61.707 304.416 61.9524 304.336 62.1444 304.176C62.347 304.016 62.5177 303.765 62.6564 303.424L63.2324 302L60.2244 294.192H61.5204L63.8884 300.608L66.4004 294.192H67.6964L63.7604 303.776C63.5897 304.192 63.403 304.528 63.2004 304.784C62.9977 305.04 62.763 305.221 62.4964 305.328C62.2297 305.445 61.9044 305.504 61.5204 305.504ZM72.3748 302.128C71.6494 302.128 70.9988 301.952 70.4228 301.6C69.8468 301.248 69.3934 300.768 69.0628 300.16C68.7321 299.552 68.5668 298.864 68.5668 298.096C68.5668 297.328 68.7321 296.64 69.0628 296.032C69.3934 295.424 69.8468 294.944 70.4228 294.592C70.9988 294.24 71.6494 294.064 72.3748 294.064C73.0894 294.064 73.7294 294.24 74.2948 294.592C74.8708 294.944 75.3241 295.424 75.6548 296.032C75.9854 296.64 76.1508 297.328 76.1508 298.096C76.1508 298.864 75.9854 299.552 75.6548 300.16C75.3241 300.768 74.8708 301.248 74.2948 301.6C73.7294 301.952 73.0894 302.128 72.3748 302.128ZM72.3588 301.104C72.8708 301.104 73.3241 300.976 73.7188 300.72C74.1134 300.453 74.4228 300.091 74.6468 299.632C74.8814 299.173 74.9988 298.661 74.9988 298.096C74.9988 297.52 74.8814 297.008 74.6468 296.56C74.4228 296.101 74.1134 295.744 73.7188 295.488C73.3241 295.221 72.8708 295.088 72.3588 295.088C71.8468 295.088 71.3934 295.221 70.9988 295.488C70.6041 295.744 70.2894 296.101 70.0548 296.56C69.8308 297.008 69.7188 297.52 69.7188 298.096C69.7188 298.661 69.8308 299.173 70.0548 299.632C70.2894 300.091 70.6041 300.453 70.9988 300.72C71.3934 300.976 71.8468 301.104 72.3588 301.104ZM80.984 302.128C80.4293 302.128 79.9387 302.005 79.512 301.76C79.0853 301.515 78.7493 301.173 78.504 300.736C78.2693 300.299 78.152 299.797 78.152 299.232V294.192H79.336V298.896C79.336 299.589 79.5227 300.139 79.896 300.544C80.2693 300.949 80.776 301.152 81.416 301.152C81.8533 301.152 82.2427 301.051 82.584 300.848C82.936 300.645 83.2293 300.352 83.464 299.968V294.192H84.632V302H83.464V300.736C83.1653 301.195 82.808 301.541 82.392 301.776C81.9867 302.011 81.5173 302.128 80.984 302.128ZM87.0281 302V294.192H88.1961V295.792C88.3988 295.248 88.6868 294.827 89.0601 294.528C89.4441 294.219 89.8815 294.064 90.3721 294.064C90.5108 294.064 90.6388 294.075 90.7561 294.096C90.8735 294.107 90.9908 294.133 91.1081 294.176V295.232C90.9801 295.189 90.8415 295.157 90.6921 295.136C90.5535 295.104 90.4201 295.088 90.2921 295.088C89.8121 295.088 89.3908 295.227 89.0281 295.504C88.6761 295.781 88.3988 296.171 88.1961 296.672V302H87.0281ZM98.8035 302.16C98.1635 302.16 97.5715 302.064 97.0275 301.872C96.4835 301.669 96.0195 301.381 95.6355 301.008L96.2595 300.24C96.7288 300.581 97.1608 300.832 97.5555 300.992C97.9502 301.141 98.3555 301.216 98.7715 301.216C99.3368 301.216 99.8062 301.083 100.18 300.816C100.553 300.549 100.74 300.208 100.74 299.792C100.74 299.472 100.628 299.221 100.404 299.04C100.19 298.859 99.8328 298.72 99.3315 298.624L98.0515 298.4C97.2942 298.261 96.7342 298.027 96.3715 297.696C96.0195 297.365 95.8435 296.917 95.8435 296.352C95.8435 295.904 95.9608 295.509 96.1955 295.168C96.4408 294.827 96.7768 294.56 97.2035 294.368C97.6302 294.165 98.1155 294.064 98.6595 294.064C99.1928 294.064 99.6995 294.144 100.18 294.304C100.66 294.453 101.145 294.699 101.636 295.04L101.06 295.856C100.654 295.568 100.249 295.36 99.8435 295.232C99.4382 295.093 99.0275 295.024 98.6115 295.024C98.0995 295.024 97.6888 295.136 97.3795 295.36C97.0702 295.584 96.9155 295.888 96.9155 296.272C96.9155 296.592 97.0115 296.837 97.2035 297.008C97.4062 297.179 97.7582 297.307 98.2595 297.392L99.5715 297.632C100.361 297.771 100.937 298.011 101.3 298.352C101.662 298.693 101.844 299.152 101.844 299.728C101.844 300.187 101.71 300.603 101.444 300.976C101.177 301.339 100.814 301.627 100.356 301.84C99.8968 302.053 99.3795 302.16 98.8035 302.16ZM103.622 305.344V294.192H104.774V295.312C105.073 294.917 105.435 294.619 105.862 294.416C106.299 294.203 106.779 294.096 107.302 294.096C107.985 294.096 108.593 294.277 109.126 294.64C109.67 294.992 110.102 295.472 110.422 296.08C110.742 296.677 110.902 297.349 110.902 298.096C110.902 298.843 110.737 299.52 110.406 300.128C110.086 300.736 109.649 301.221 109.094 301.584C108.55 301.936 107.931 302.112 107.238 302.112C106.747 302.112 106.294 302.021 105.878 301.84C105.462 301.648 105.099 301.376 104.79 301.024V305.344H103.622ZM107.014 301.104C107.537 301.104 108.001 300.976 108.406 300.72C108.822 300.453 109.147 300.096 109.382 299.648C109.627 299.189 109.75 298.677 109.75 298.112C109.75 297.536 109.627 297.024 109.382 296.576C109.147 296.128 108.822 295.776 108.406 295.52C108.001 295.253 107.537 295.12 107.014 295.12C106.555 295.12 106.129 295.216 105.734 295.408C105.35 295.589 105.035 295.851 104.79 296.192V300.016C105.046 300.357 105.366 300.624 105.75 300.816C106.145 301.008 106.566 301.104 107.014 301.104ZM116.47 302.16C115.745 302.16 115.089 301.984 114.502 301.632C113.915 301.269 113.451 300.784 113.11 300.176C112.769 299.557 112.598 298.864 112.598 298.096C112.598 297.328 112.758 296.64 113.078 296.032C113.409 295.424 113.851 294.944 114.406 294.592C114.961 294.24 115.579 294.064 116.262 294.064C116.955 294.064 117.569 294.24 118.102 294.592C118.646 294.933 119.073 295.403 119.382 296C119.702 296.587 119.862 297.253 119.862 298V298.352H113.734C113.777 298.885 113.921 299.365 114.166 299.792C114.422 300.208 114.753 300.539 115.158 300.784C115.574 301.019 116.027 301.136 116.518 301.136C116.923 301.136 117.313 301.067 117.686 300.928C118.07 300.779 118.395 300.581 118.662 300.336L119.398 301.12C118.95 301.472 118.486 301.733 118.006 301.904C117.526 302.075 117.014 302.16 116.47 302.16ZM113.766 297.52H118.71C118.657 297.051 118.513 296.635 118.278 296.272C118.054 295.899 117.766 295.605 117.414 295.392C117.073 295.179 116.689 295.072 116.262 295.072C115.835 295.072 115.446 295.179 115.094 295.392C114.742 295.595 114.449 295.883 114.214 296.256C113.99 296.619 113.841 297.04 113.766 297.52ZM121.856 302V290.448L123.024 290.208V302H121.856ZM125.419 302V290.448L126.587 290.208V302H125.419ZM128.965 302V294.192H130.133V302H128.965ZM129.557 292.256C129.323 292.256 129.12 292.176 128.949 292.016C128.789 291.845 128.709 291.648 128.709 291.424C128.709 291.2 128.789 291.008 128.949 290.848C129.12 290.677 129.323 290.592 129.557 290.592C129.792 290.592 129.989 290.677 130.149 290.848C130.32 291.008 130.405 291.2 130.405 291.424C130.405 291.648 130.32 291.845 130.149 292.016C129.989 292.176 129.792 292.256 129.557 292.256ZM132.528 302V294.192H133.696V295.456C133.995 294.987 134.352 294.64 134.768 294.416C135.184 294.181 135.653 294.064 136.176 294.064C136.741 294.064 137.232 294.187 137.648 294.432C138.075 294.667 138.405 295.003 138.64 295.44C138.885 295.867 139.008 296.368 139.008 296.944V302H137.84V297.28C137.84 296.587 137.648 296.043 137.264 295.648C136.891 295.243 136.384 295.04 135.744 295.04C135.317 295.04 134.928 295.141 134.576 295.344C134.224 295.547 133.931 295.845 133.696 296.24V302H132.528ZM144.972 305.504C144.45 305.504 143.922 305.429 143.388 305.28C142.866 305.141 142.38 304.944 141.932 304.688L142.428 303.792C142.908 304.037 143.346 304.219 143.74 304.336C144.135 304.453 144.53 304.512 144.924 304.512C145.639 304.512 146.178 304.341 146.54 304C146.914 303.659 147.1 303.163 147.1 302.512V300.944C146.802 301.317 146.439 301.605 146.012 301.808C145.586 302 145.116 302.096 144.604 302.096C143.932 302.096 143.324 301.92 142.78 301.568C142.236 301.205 141.804 300.725 141.484 300.128C141.164 299.52 141.004 298.843 141.004 298.096C141.004 297.349 141.164 296.677 141.484 296.08C141.815 295.472 142.258 294.992 142.812 294.64C143.367 294.277 143.986 294.096 144.668 294.096C145.159 294.096 145.612 294.192 146.028 294.384C146.444 294.565 146.807 294.837 147.116 295.2V294.192H148.268V302.496C148.268 303.467 147.986 304.208 147.42 304.72C146.855 305.243 146.039 305.504 144.972 305.504ZM144.892 301.088C145.351 301.088 145.772 300.997 146.156 300.816C146.54 300.624 146.855 300.363 147.1 300.032V296.176C146.844 295.845 146.519 295.589 146.124 295.408C145.74 295.216 145.33 295.12 144.892 295.12C144.37 295.12 143.9 295.248 143.484 295.504C143.079 295.76 142.754 296.112 142.508 296.56C142.274 297.008 142.156 297.52 142.156 298.096C142.156 298.661 142.274 299.173 142.508 299.632C142.754 300.08 143.079 300.437 143.484 300.704C143.9 300.96 144.37 301.088 144.892 301.088ZM157.859 302.128C157.134 302.128 156.483 301.952 155.907 301.6C155.331 301.248 154.878 300.768 154.547 300.16C154.216 299.552 154.051 298.864 154.051 298.096C154.051 297.328 154.216 296.64 154.547 296.032C154.878 295.424 155.331 294.944 155.907 294.592C156.483 294.24 157.134 294.064 157.859 294.064C158.574 294.064 159.214 294.24 159.779 294.592C160.355 294.944 160.808 295.424 161.139 296.032C161.47 296.64 161.635 297.328 161.635 298.096C161.635 298.864 161.47 299.552 161.139 300.16C160.808 300.768 160.355 301.248 159.779 301.6C159.214 301.952 158.574 302.128 157.859 302.128ZM157.843 301.104C158.355 301.104 158.808 300.976 159.203 300.72C159.598 300.453 159.907 300.091 160.131 299.632C160.366 299.173 160.483 298.661 160.483 298.096C160.483 297.52 160.366 297.008 160.131 296.56C159.907 296.101 159.598 295.744 159.203 295.488C158.808 295.221 158.355 295.088 157.843 295.088C157.331 295.088 156.878 295.221 156.483 295.488C156.088 295.744 155.774 296.101 155.539 296.56C155.315 297.008 155.203 297.52 155.203 298.096C155.203 298.661 155.315 299.173 155.539 299.632C155.774 300.091 156.088 300.453 156.483 300.72C156.878 300.976 157.331 301.104 157.843 301.104ZM163.684 302V294.192H164.852V295.792C165.055 295.248 165.343 294.827 165.716 294.528C166.1 294.219 166.538 294.064 167.028 294.064C167.167 294.064 167.295 294.075 167.412 294.096C167.53 294.107 167.647 294.133 167.764 294.176V295.232C167.636 295.189 167.498 295.157 167.348 295.136C167.21 295.104 167.076 295.088 166.948 295.088C166.468 295.088 166.047 295.227 165.684 295.504C165.332 295.781 165.055 296.171 164.852 296.672V302H163.684ZM176.02 302.16C175.348 302.16 174.836 302 174.484 301.68C174.142 301.349 173.972 300.875 173.972 300.256V295.152H172.356V294.192H173.972V292.048L175.14 291.776V294.192H177.38V295.152H175.14V299.952C175.14 300.368 175.225 300.667 175.396 300.848C175.577 301.029 175.87 301.12 176.276 301.12C176.478 301.12 176.66 301.104 176.82 301.072C176.98 301.04 177.166 300.987 177.38 300.912V301.952C177.166 302.027 176.942 302.08 176.708 302.112C176.473 302.144 176.244 302.16 176.02 302.16ZM179.091 302V294.192H180.259V295.792C180.461 295.248 180.749 294.827 181.123 294.528C181.507 294.219 181.944 294.064 182.435 294.064C182.573 294.064 182.701 294.075 182.819 294.096C182.936 294.107 183.053 294.133 183.171 294.176V295.232C183.043 295.189 182.904 295.157 182.755 295.136C182.616 295.104 182.483 295.088 182.355 295.088C181.875 295.088 181.453 295.227 181.091 295.504C180.739 295.781 180.461 296.171 180.259 296.672V302H179.091ZM185.208 305.504C184.963 305.504 184.712 305.467 184.456 305.392V304.352C184.563 304.373 184.675 304.389 184.792 304.4C184.909 304.411 185.011 304.416 185.096 304.416C185.395 304.416 185.64 304.336 185.832 304.176C186.035 304.016 186.205 303.765 186.344 303.424L186.92 302L183.912 294.192H185.208L187.576 300.608L190.088 294.192H191.384L187.448 303.776C187.277 304.192 187.091 304.528 186.888 304.784C186.685 305.04 186.451 305.221 186.184 305.328C185.917 305.445 185.592 305.504 185.208 305.504ZM198.991 302.144C198.436 302.144 197.946 302.043 197.519 301.84C197.092 301.637 196.756 301.36 196.511 301.008C196.276 300.645 196.159 300.229 196.159 299.76C196.159 299.291 196.282 298.885 196.527 298.544C196.772 298.192 197.114 297.92 197.551 297.728C197.988 297.536 198.5 297.44 199.087 297.44C199.535 297.44 199.956 297.488 200.351 297.584C200.756 297.68 201.13 297.835 201.471 298.048V296.976C201.471 296.336 201.3 295.856 200.959 295.536C200.618 295.205 200.116 295.04 199.455 295.04C199.092 295.04 198.719 295.093 198.335 295.2C197.962 295.307 197.546 295.477 197.087 295.712L196.655 294.816C197.7 294.315 198.682 294.064 199.599 294.064C200.57 294.064 201.316 294.304 201.839 294.784C202.362 295.253 202.623 295.931 202.623 296.816V302H201.471V301.088C201.13 301.44 200.751 301.707 200.335 301.888C199.919 302.059 199.471 302.144 198.991 302.144ZM197.279 299.728C197.279 300.187 197.455 300.555 197.807 300.832C198.17 301.109 198.644 301.248 199.231 301.248C199.668 301.248 200.068 301.173 200.431 301.024C200.804 300.875 201.151 300.651 201.471 300.352V298.848C201.14 298.656 200.799 298.517 200.447 298.432C200.095 298.336 199.7 298.288 199.263 298.288C198.666 298.288 198.186 298.421 197.823 298.688C197.46 298.944 197.279 299.291 197.279 299.728ZM208.731 302V294.192H209.899V295.408C210.198 294.96 210.539 294.624 210.923 294.4C211.307 294.176 211.739 294.064 212.219 294.064C212.774 294.064 213.259 294.203 213.675 294.48C214.091 294.747 214.406 295.115 214.619 295.584C214.929 295.083 215.297 294.704 215.723 294.448C216.161 294.192 216.662 294.064 217.227 294.064C217.75 294.064 218.209 294.187 218.603 294.432C219.009 294.677 219.323 295.019 219.547 295.456C219.771 295.883 219.883 296.384 219.883 296.96V302H218.715V297.248C218.715 296.565 218.545 296.027 218.203 295.632C217.862 295.237 217.393 295.04 216.795 295.04C216.39 295.04 216.022 295.141 215.691 295.344C215.371 295.547 215.089 295.856 214.843 296.272C214.865 296.379 214.881 296.491 214.891 296.608C214.902 296.725 214.907 296.843 214.907 296.96V302H213.739V297.248C213.739 296.565 213.563 296.027 213.211 295.632C212.87 295.237 212.401 295.04 211.803 295.04C211.003 295.04 210.369 295.424 209.899 296.192V302H208.731ZM225.703 302.128C224.978 302.128 224.327 301.952 223.751 301.6C223.175 301.248 222.722 300.768 222.391 300.16C222.06 299.552 221.895 298.864 221.895 298.096C221.895 297.328 222.06 296.64 222.391 296.032C222.722 295.424 223.175 294.944 223.751 294.592C224.327 294.24 224.978 294.064 225.703 294.064C226.418 294.064 227.058 294.24 227.623 294.592C228.199 294.944 228.652 295.424 228.983 296.032C229.314 296.64 229.479 297.328 229.479 298.096C229.479 298.864 229.314 299.552 228.983 300.16C228.652 300.768 228.199 301.248 227.623 301.6C227.058 301.952 226.418 302.128 225.703 302.128ZM225.687 301.104C226.199 301.104 226.652 300.976 227.047 300.72C227.442 300.453 227.751 300.091 227.975 299.632C228.21 299.173 228.327 298.661 228.327 298.096C228.327 297.52 228.21 297.008 227.975 296.56C227.751 296.101 227.442 295.744 227.047 295.488C226.652 295.221 226.199 295.088 225.687 295.088C225.175 295.088 224.722 295.221 224.327 295.488C223.932 295.744 223.618 296.101 223.383 296.56C223.159 297.008 223.047 297.52 223.047 298.096C223.047 298.661 223.159 299.173 223.383 299.632C223.618 300.091 223.932 300.453 224.327 300.72C224.722 300.976 225.175 301.104 225.687 301.104ZM231.528 302V294.192H232.696V295.792C232.899 295.248 233.187 294.827 233.56 294.528C233.944 294.219 234.381 294.064 234.872 294.064C235.011 294.064 235.139 294.075 235.256 294.096C235.373 294.107 235.491 294.133 235.608 294.176V295.232C235.48 295.189 235.341 295.157 235.192 295.136C235.053 295.104 234.92 295.088 234.792 295.088C234.312 295.088 233.891 295.227 233.528 295.504C233.176 295.781 232.899 296.171 232.696 296.672V302H231.528ZM240.189 302.16C239.463 302.16 238.807 301.984 238.221 301.632C237.634 301.269 237.17 300.784 236.829 300.176C236.487 299.557 236.317 298.864 236.317 298.096C236.317 297.328 236.477 296.64 236.797 296.032C237.127 295.424 237.57 294.944 238.125 294.592C238.679 294.24 239.298 294.064 239.981 294.064C240.674 294.064 241.287 294.24 241.821 294.592C242.365 294.933 242.791 295.403 243.101 296C243.421 296.587 243.581 297.253 243.581 298V298.352H237.453C237.495 298.885 237.639 299.365 237.885 299.792C238.141 300.208 238.471 300.539 238.877 300.784C239.293 301.019 239.746 301.136 240.237 301.136C240.642 301.136 241.031 301.067 241.405 300.928C241.789 300.779 242.114 300.581 242.381 300.336L243.117 301.12C242.669 301.472 242.205 301.733 241.725 301.904C241.245 302.075 240.733 302.16 240.189 302.16ZM237.485 297.52H242.429C242.375 297.051 242.231 296.635 241.997 296.272C241.773 295.899 241.485 295.605 241.133 295.392C240.791 295.179 240.407 295.072 239.981 295.072C239.554 295.072 239.165 295.179 238.813 295.392C238.461 295.595 238.167 295.883 237.933 296.256C237.709 296.619 237.559 297.04 237.485 297.52ZM252.925 305.504C252.403 305.504 251.875 305.429 251.341 305.28C250.819 305.141 250.333 304.944 249.885 304.688L250.381 303.792C250.861 304.037 251.299 304.219 251.693 304.336C252.088 304.453 252.483 304.512 252.877 304.512C253.592 304.512 254.131 304.341 254.493 304C254.867 303.659 255.053 303.163 255.053 302.512V300.944C254.755 301.317 254.392 301.605 253.965 301.808C253.539 302 253.069 302.096 252.557 302.096C251.885 302.096 251.277 301.92 250.733 301.568C250.189 301.205 249.757 300.725 249.437 300.128C249.117 299.52 248.957 298.843 248.957 298.096C248.957 297.349 249.117 296.677 249.437 296.08C249.768 295.472 250.211 294.992 250.765 294.64C251.32 294.277 251.939 294.096 252.621 294.096C253.112 294.096 253.565 294.192 253.981 294.384C254.397 294.565 254.76 294.837 255.069 295.2V294.192H256.221V302.496C256.221 303.467 255.939 304.208 255.373 304.72C254.808 305.243 253.992 305.504 252.925 305.504ZM252.845 301.088C253.304 301.088 253.725 300.997 254.109 300.816C254.493 300.624 254.808 300.363 255.053 300.032V296.176C254.797 295.845 254.472 295.589 254.077 295.408C253.693 295.216 253.283 295.12 252.845 295.12C252.323 295.12 251.853 295.248 251.437 295.504C251.032 295.76 250.707 296.112 250.461 296.56C250.227 297.008 250.109 297.52 250.109 298.096C250.109 298.661 250.227 299.173 250.461 299.632C250.707 300.08 251.032 300.437 251.437 300.704C251.853 300.96 252.323 301.088 252.845 301.088ZM262.142 302.16C261.417 302.16 260.761 301.984 260.174 301.632C259.587 301.269 259.123 300.784 258.782 300.176C258.441 299.557 258.27 298.864 258.27 298.096C258.27 297.328 258.43 296.64 258.75 296.032C259.081 295.424 259.523 294.944 260.078 294.592C260.633 294.24 261.251 294.064 261.934 294.064C262.627 294.064 263.241 294.24 263.774 294.592C264.318 294.933 264.745 295.403 265.054 296C265.374 296.587 265.534 297.253 265.534 298V298.352H259.406C259.449 298.885 259.593 299.365 259.838 299.792C260.094 300.208 260.425 300.539 260.83 300.784C261.246 301.019 261.699 301.136 262.19 301.136C262.595 301.136 262.985 301.067 263.358 300.928C263.742 300.779 264.067 300.581 264.334 300.336L265.07 301.12C264.622 301.472 264.158 301.733 263.678 301.904C263.198 302.075 262.686 302.16 262.142 302.16ZM259.438 297.52H264.382C264.329 297.051 264.185 296.635 263.95 296.272C263.726 295.899 263.438 295.605 263.086 295.392C262.745 295.179 262.361 295.072 261.934 295.072C261.507 295.072 261.118 295.179 260.766 295.392C260.414 295.595 260.121 295.883 259.886 296.256C259.662 296.619 259.513 297.04 259.438 297.52ZM267.528 302V294.192H268.696V295.456C268.995 294.987 269.352 294.64 269.768 294.416C270.184 294.181 270.653 294.064 271.176 294.064C271.741 294.064 272.232 294.187 272.648 294.432C273.075 294.667 273.405 295.003 273.64 295.44C273.885 295.867 274.008 296.368 274.008 296.944V302H272.84V297.28C272.84 296.587 272.648 296.043 272.264 295.648C271.891 295.243 271.384 295.04 270.744 295.04C270.317 295.04 269.928 295.141 269.576 295.344C269.224 295.547 268.931 295.845 268.696 296.24V302H267.528ZM279.876 302.16C279.151 302.16 278.495 301.984 277.908 301.632C277.322 301.269 276.858 300.784 276.516 300.176C276.175 299.557 276.004 298.864 276.004 298.096C276.004 297.328 276.164 296.64 276.484 296.032C276.815 295.424 277.258 294.944 277.812 294.592C278.367 294.24 278.986 294.064 279.668 294.064C280.362 294.064 280.975 294.24 281.508 294.592C282.052 294.933 282.479 295.403 282.788 296C283.108 296.587 283.268 297.253 283.268 298V298.352H277.14C277.183 298.885 277.327 299.365 277.572 299.792C277.828 300.208 278.159 300.539 278.564 300.784C278.98 301.019 279.434 301.136 279.924 301.136C280.33 301.136 280.719 301.067 281.092 300.928C281.476 300.779 281.802 300.581 282.068 300.336L282.804 301.12C282.356 301.472 281.892 301.733 281.412 301.904C280.932 302.075 280.42 302.16 279.876 302.16ZM277.172 297.52H282.116C282.063 297.051 281.919 296.635 281.684 296.272C281.46 295.899 281.172 295.605 280.82 295.392C280.479 295.179 280.095 295.072 279.668 295.072C279.242 295.072 278.852 295.179 278.5 295.392C278.148 295.595 277.855 295.883 277.62 296.256C277.396 296.619 277.247 297.04 277.172 297.52ZM285.263 302V294.192H286.431V295.792C286.633 295.248 286.921 294.827 287.295 294.528C287.679 294.219 288.116 294.064 288.607 294.064C288.745 294.064 288.873 294.075 288.991 294.096C289.108 294.107 289.225 294.133 289.343 294.176V295.232C289.215 295.189 289.076 295.157 288.927 295.136C288.788 295.104 288.655 295.088 288.527 295.088C288.047 295.088 287.625 295.227 287.263 295.504C286.911 295.781 286.633 296.171 286.431 296.672V302H285.263ZM292.975 302.144C292.421 302.144 291.93 302.043 291.503 301.84C291.077 301.637 290.741 301.36 290.495 301.008C290.261 300.645 290.143 300.229 290.143 299.76C290.143 299.291 290.266 298.885 290.511 298.544C290.757 298.192 291.098 297.92 291.535 297.728C291.973 297.536 292.485 297.44 293.071 297.44C293.519 297.44 293.941 297.488 294.335 297.584C294.741 297.68 295.114 297.835 295.455 298.048V296.976C295.455 296.336 295.285 295.856 294.943 295.536C294.602 295.205 294.101 295.04 293.439 295.04C293.077 295.04 292.703 295.093 292.319 295.2C291.946 295.307 291.53 295.477 291.071 295.712L290.639 294.816C291.685 294.315 292.666 294.064 293.583 294.064C294.554 294.064 295.301 294.304 295.823 294.784C296.346 295.253 296.607 295.931 296.607 296.816V302H295.455V301.088C295.114 301.44 294.735 301.707 294.319 301.888C293.903 302.059 293.455 302.144 292.975 302.144ZM291.263 299.728C291.263 300.187 291.439 300.555 291.791 300.832C292.154 301.109 292.629 301.248 293.215 301.248C293.653 301.248 294.053 301.173 294.415 301.024C294.789 300.875 295.135 300.651 295.455 300.352V298.848C295.125 298.656 294.783 298.517 294.431 298.432C294.079 298.336 293.685 298.288 293.247 298.288C292.65 298.288 292.17 298.421 291.807 298.688C291.445 298.944 291.263 299.291 291.263 299.728ZM298.981 302V290.448L300.149 290.208V302H298.981ZM309.254 302.16C308.582 302.16 308.07 302 307.718 301.68C307.377 301.349 307.206 300.875 307.206 300.256V295.152H305.59V294.192H307.206V292.048L308.374 291.776V294.192H310.614V295.152H308.374V299.952C308.374 300.368 308.459 300.667 308.63 300.848C308.811 301.029 309.105 301.12 309.51 301.12C309.713 301.12 309.894 301.104 310.054 301.072C310.214 301.04 310.401 300.987 310.614 300.912V301.952C310.401 302.027 310.177 302.08 309.942 302.112C309.707 302.144 309.478 302.16 309.254 302.16ZM315.689 302.16C314.963 302.16 314.307 301.984 313.721 301.632C313.134 301.269 312.67 300.784 312.329 300.176C311.987 299.557 311.817 298.864 311.817 298.096C311.817 297.328 311.977 296.64 312.297 296.032C312.627 295.424 313.07 294.944 313.625 294.592C314.179 294.24 314.798 294.064 315.481 294.064C316.174 294.064 316.787 294.24 317.321 294.592C317.865 294.933 318.291 295.403 318.601 296C318.921 296.587 319.081 297.253 319.081 298V298.352H312.953C312.995 298.885 313.139 299.365 313.385 299.792C313.641 300.208 313.971 300.539 314.377 300.784C314.793 301.019 315.246 301.136 315.737 301.136C316.142 301.136 316.531 301.067 316.905 300.928C317.289 300.779 317.614 300.581 317.881 300.336L318.617 301.12C318.169 301.472 317.705 301.733 317.225 301.904C316.745 302.075 316.233 302.16 315.689 302.16ZM312.985 297.52H317.929C317.875 297.051 317.731 296.635 317.497 296.272C317.273 295.899 316.985 295.605 316.633 295.392C316.291 295.179 315.907 295.072 315.481 295.072C315.054 295.072 314.665 295.179 314.313 295.392C313.961 295.595 313.667 295.883 313.433 296.256C313.209 296.619 313.059 297.04 312.985 297.52ZM321.075 302V294.192H322.243V295.792C322.446 295.248 322.734 294.827 323.107 294.528C323.491 294.219 323.928 294.064 324.419 294.064C324.558 294.064 324.686 294.075 324.803 294.096C324.92 294.107 325.038 294.133 325.155 294.176V295.232C325.027 295.189 324.888 295.157 324.739 295.136C324.6 295.104 324.467 295.088 324.339 295.088C323.859 295.088 323.438 295.227 323.075 295.504C322.723 295.781 322.446 296.171 322.243 296.672V302H321.075ZM326.7 302V294.192H327.868V295.408C328.167 294.96 328.508 294.624 328.892 294.4C329.276 294.176 329.708 294.064 330.188 294.064C330.743 294.064 331.228 294.203 331.644 294.48C332.06 294.747 332.375 295.115 332.588 295.584C332.897 295.083 333.265 294.704 333.692 294.448C334.129 294.192 334.631 294.064 335.196 294.064C335.719 294.064 336.177 294.187 336.572 294.432C336.977 294.677 337.292 295.019 337.516 295.456C337.74 295.883 337.852 296.384 337.852 296.96V302H336.684V297.248C336.684 296.565 336.513 296.027 336.172 295.632C335.831 295.237 335.361 295.04 334.764 295.04C334.359 295.04 333.991 295.141 333.66 295.344C333.34 295.547 333.057 295.856 332.812 296.272C332.833 296.379 332.849 296.491 332.86 296.608C332.871 296.725 332.876 296.843 332.876 296.96V302H331.708V297.248C331.708 296.565 331.532 296.027 331.18 295.632C330.839 295.237 330.369 295.04 329.772 295.04C328.972 295.04 328.337 295.424 327.868 296.192V302H326.7ZM341.016 302.128C340.781 302.128 340.578 302.043 340.408 301.872C340.248 301.701 340.168 301.499 340.168 301.264C340.168 301.019 340.248 300.816 340.408 300.656C340.578 300.485 340.781 300.4 341.016 300.4C341.25 300.4 341.448 300.485 341.608 300.656C341.778 300.816 341.864 301.019 341.864 301.264C341.864 301.499 341.778 301.701 341.608 301.872C341.448 302.043 341.25 302.128 341.016 302.128Z" fill="#4D4D4D"/>
</g>
</g>
<defs>
<clipPath id="clip0_759_63389">
<rect width="403" height="356" fill="white"/>
</clipPath>
<clipPath id="clip1_759_63389">
<rect width="375" height="960" fill="white" transform="translate(14)"/>
</clipPath>
</defs>
</svg>
