<svg width="366" height="158" viewBox="0 0 366 158" fill="none" xmlns="http://www.w3.org/2000/svg">
<rect width="366" height="158" fill="white"/>
<path d="M66 45C66 31.7452 76.7452 21 90 21V21C103.255 21 114 31.7452 114 45V45C114 58.2548 103.255 69 90 69V69C76.7452 69 66 58.2548 66 45V45Z" fill="#292929"/>
<path fill-rule="evenodd" clip-rule="evenodd" d="M101.039 54.6644C101.422 54.6644 101.768 54.4353 101.922 54.0812C102.072 53.7271 102.002 53.3188 101.739 53.0396C101.722 53.0271 100.802 52.0356 100.164 50.7566C101.31 49.6275 101.997 48.211 101.997 46.6654C101.997 43.3325 98.8103 40.5786 94.6566 40.087C93.3443 37.6873 90.2613 36 86.6659 36C81.879 36 78.0003 38.983 78.0003 42.6659C78.0003 44.2074 78.6877 45.6239 79.8334 46.7571C79.196 48.0361 78.2794 49.0276 78.2627 49.0443C78.0003 49.3234 77.9253 49.7317 78.0794 50.0858C78.2294 50.4399 78.5794 50.6691 78.9626 50.6691C81.1915 50.6691 82.9913 49.8275 84.1787 49.0526C84.562 49.1401 84.9578 49.2068 85.3619 49.2568C86.6701 51.6481 89.7405 53.3313 93.3318 53.3313C94.1983 53.3313 95.0316 53.2313 95.8231 53.048C97.0105 53.8187 98.8061 54.6644 101.039 54.6644ZM81.2915 48.2652C81.404 48.0694 81.5165 47.8611 81.6248 47.6486L82.2705 46.3529L81.2373 45.3322C80.6749 44.7739 80 43.8616 80 42.6659C80 40.137 83.0538 37.9998 86.6659 37.9998C90.2779 37.9998 93.3317 40.137 93.3317 42.6659C93.3317 45.1947 90.2779 47.332 86.6659 47.332C85.9784 47.332 85.291 47.2528 84.6244 47.0987L83.7995 46.9112L83.0871 47.3736C82.4997 47.7528 81.8997 48.0527 81.2915 48.2652ZM98.7103 52.2606C98.102 52.0481 97.5021 51.7481 96.9147 51.369L96.2023 50.9066L95.3732 51.0982C94.7066 51.2523 94.0192 51.3315 93.3318 51.3315C91.082 51.3315 89.0739 50.4941 87.8616 49.2609C92.0819 48.811 95.3315 46.0363 95.3315 42.6659C95.3315 42.5242 95.3148 42.3867 95.3023 42.2493C97.9854 42.8534 99.9976 44.6156 99.9976 46.6654C99.9976 47.8611 99.3227 48.7735 98.7603 49.3318L97.7312 50.3483L98.377 51.644C98.4853 51.8564 98.5978 52.0647 98.7103 52.2606Z" fill="white"/>
<path d="M261 27.5H286C289.038 27.5 291.5 29.9624 291.5 33V58C291.5 61.0376 289.038 63.5 286 63.5H261C257.962 63.5 255.5 61.0376 255.5 58V33C255.5 29.9624 257.962 27.5 261 27.5Z" fill="white"/>
<path d="M261 27.5H286C289.038 27.5 291.5 29.9624 291.5 33V58C291.5 61.0376 289.038 63.5 286 63.5H261C257.962 63.5 255.5 61.0376 255.5 58V33C255.5 29.9624 257.962 27.5 261 27.5Z" stroke="#C7C7C7"/>
<path fill-rule="evenodd" clip-rule="evenodd" d="M280.44 51.6376C280.663 51.6376 280.865 51.5039 280.955 51.2974C281.042 51.0908 281.001 50.8526 280.848 50.6898C280.838 50.6825 280.301 50.1041 279.929 49.358C280.597 48.6994 280.998 47.8731 280.998 46.9715C280.998 45.0273 279.139 43.4209 276.716 43.1341C275.951 41.7343 274.152 40.75 272.055 40.75C269.263 40.75 267 42.4901 267 44.6384C267 45.5376 267.401 46.3639 268.069 47.0249C267.698 47.771 267.163 48.3494 267.153 48.3592C267 48.522 266.956 48.7601 267.046 48.9667C267.134 49.1733 267.338 49.307 267.562 49.307C268.862 49.307 269.912 48.8161 270.604 48.364C270.828 48.4151 271.059 48.4539 271.294 48.4831C272.058 49.8781 273.849 50.8599 275.944 50.8599C276.449 50.8599 276.935 50.8016 277.397 50.6947C278.089 51.1442 279.137 51.6376 280.44 51.6376ZM268.92 47.9047C268.986 47.7905 269.051 47.669 269.114 47.545L269.491 46.7892L268.888 46.1938C268.56 45.8681 268.167 45.3359 268.167 44.6384C268.167 43.1633 269.948 41.9165 272.055 41.9165C274.162 41.9165 275.944 43.1633 275.944 44.6384C275.944 46.1136 274.162 47.3603 272.055 47.3603C271.654 47.3603 271.253 47.3141 270.864 47.2242L270.383 47.1149L269.967 47.3846C269.625 47.6058 269.275 47.7808 268.92 47.9047ZM279.081 50.2353C278.726 50.1114 278.376 49.9364 278.034 49.7153L277.618 49.4455L277.134 49.5573C276.746 49.6472 276.345 49.6934 275.944 49.6934C274.631 49.6934 273.46 49.2049 272.753 48.4855C275.214 48.2231 277.11 46.6045 277.11 44.6384C277.11 44.5558 277.1 44.4756 277.093 44.3954C278.658 44.7478 279.832 45.7758 279.832 46.9715C279.832 47.669 279.438 48.2012 279.11 48.5269L278.51 49.1199L278.887 49.8757C278.95 49.9996 279.015 50.1211 279.081 50.2353Z" fill="#1F1F1F"/>
<g filter="url(#filter0_d_869_67530)">
<path d="M92.5001 70L103.325 85H81.6748L92.5001 70Z" fill="#292929"/>
<path d="M30 91C30 87.6863 32.6863 85 36 85H149C152.314 85 155 87.6863 155 91V113C155 116.314 152.314 119 149 119H36C32.6863 119 30 116.314 30 113V91Z" fill="#292929"/>
<path d="M49.8864 106V97.6H50.8104V105.184H55.5504V106H49.8864ZM58.8194 106.108C58.4034 106.108 58.0354 106.032 57.7154 105.88C57.3954 105.728 57.1434 105.52 56.9594 105.256C56.7834 104.984 56.6954 104.672 56.6954 104.32C56.6954 103.968 56.7874 103.664 56.9714 103.408C57.1554 103.144 57.4114 102.94 57.7394 102.796C58.0674 102.652 58.4514 102.58 58.8914 102.58C59.2274 102.58 59.5434 102.616 59.8394 102.688C60.1434 102.76 60.4234 102.876 60.6794 103.036V102.232C60.6794 101.752 60.5514 101.392 60.2954 101.152C60.0394 100.904 59.6634 100.78 59.1674 100.78C58.8954 100.78 58.6154 100.82 58.3274 100.9C58.0474 100.98 57.7354 101.108 57.3914 101.284L57.0674 100.612C57.8514 100.236 58.5874 100.048 59.2754 100.048C60.0034 100.048 60.5634 100.228 60.9554 100.588C61.3474 100.94 61.5434 101.448 61.5434 102.112V106H60.6794V105.316C60.4234 105.58 60.1394 105.78 59.8274 105.916C59.5154 106.044 59.1794 106.108 58.8194 106.108ZM57.5354 104.296C57.5354 104.64 57.6674 104.916 57.9314 105.124C58.2034 105.332 58.5594 105.436 58.9994 105.436C59.3274 105.436 59.6274 105.38 59.8994 105.268C60.1794 105.156 60.4394 104.988 60.6794 104.764V103.636C60.4314 103.492 60.1754 103.388 59.9114 103.324C59.6474 103.252 59.3514 103.216 59.0234 103.216C58.5754 103.216 58.2154 103.316 57.9434 103.516C57.6714 103.708 57.5354 103.968 57.5354 104.296ZM65.3532 106.096C64.9372 106.096 64.5692 106.004 64.2492 105.82C63.9292 105.636 63.6772 105.38 63.4932 105.052C63.3172 104.724 63.2292 104.348 63.2292 103.924V100.144H64.1172V103.672C64.1172 104.192 64.2572 104.604 64.5372 104.908C64.8172 105.212 65.1972 105.364 65.6772 105.364C66.0052 105.364 66.2972 105.288 66.5532 105.136C66.8172 104.984 67.0372 104.764 67.2132 104.476V100.144H68.0892V106H67.2132V105.052C66.9892 105.396 66.7212 105.656 66.4092 105.832C66.1052 106.008 65.7532 106.096 65.3532 106.096ZM69.8863 106V100.144H70.7623V101.092C70.9863 100.74 71.2543 100.48 71.5663 100.312C71.8783 100.136 72.2303 100.048 72.6223 100.048C73.0463 100.048 73.4143 100.14 73.7263 100.324C74.0463 100.5 74.2943 100.752 74.4703 101.08C74.6543 101.4 74.7463 101.776 74.7463 102.208V106H73.8703V102.46C73.8703 101.94 73.7263 101.532 73.4383 101.236C73.1583 100.932 72.7783 100.78 72.2983 100.78C71.9783 100.78 71.6863 100.856 71.4223 101.008C71.1583 101.16 70.9383 101.384 70.7623 101.68V106H69.8863ZM79.1354 106.096C78.5914 106.096 78.0994 105.964 77.6594 105.7C77.2274 105.428 76.8834 105.064 76.6274 104.608C76.3714 104.144 76.2434 103.632 76.2434 103.072C76.2434 102.504 76.3714 101.992 76.6274 101.536C76.8834 101.08 77.2274 100.72 77.6594 100.456C78.0994 100.184 78.5914 100.048 79.1354 100.048C79.5674 100.048 79.9794 100.128 80.3714 100.288C80.7634 100.448 81.1034 100.672 81.3914 100.96L80.8274 101.572C80.6194 101.34 80.3674 101.16 80.0714 101.032C79.7754 100.904 79.4754 100.84 79.1714 100.84C78.7874 100.84 78.4394 100.94 78.1274 101.14C77.8234 101.34 77.5794 101.608 77.3954 101.944C77.2114 102.28 77.1194 102.656 77.1194 103.072C77.1194 103.488 77.2114 103.864 77.3954 104.2C77.5794 104.536 77.8234 104.804 78.1274 105.004C78.4394 105.204 78.7874 105.304 79.1714 105.304C79.4754 105.304 79.7754 105.24 80.0714 105.112C80.3674 104.976 80.6194 104.796 80.8274 104.572L81.3914 105.184C81.1034 105.472 80.7634 105.696 80.3714 105.856C79.9794 106.016 79.5674 106.096 79.1354 106.096ZM82.6129 106V97.336L83.4889 97.156V101.092C83.7129 100.74 83.9809 100.48 84.2929 100.312C84.6049 100.136 84.9569 100.048 85.3489 100.048C85.7729 100.048 86.1409 100.14 86.4529 100.324C86.7729 100.5 87.0209 100.752 87.1969 101.08C87.3809 101.4 87.4729 101.776 87.4729 102.208V106H86.5969V102.46C86.5969 101.94 86.4529 101.532 86.1649 101.236C85.8849 100.932 85.5049 100.78 85.0249 100.78C84.7049 100.78 84.4129 100.856 84.1489 101.008C83.8849 101.16 83.6649 101.384 83.4889 101.68V106H82.6129ZM96.0788 106.132C95.4788 106.132 94.9188 106.024 94.3988 105.808C93.8868 105.584 93.4348 105.276 93.0428 104.884C92.6508 104.484 92.3468 104.024 92.1308 103.504C91.9148 102.976 91.8068 102.408 91.8068 101.8C91.8068 101.192 91.9148 100.628 92.1308 100.108C92.3468 99.58 92.6508 99.12 93.0428 98.728C93.4348 98.328 93.8868 98.02 94.3988 97.804C94.9188 97.58 95.4788 97.468 96.0788 97.468C96.4948 97.468 96.8908 97.524 97.2668 97.636C97.6508 97.74 98.0108 97.896 98.3468 98.104C98.6828 98.304 98.9828 98.552 99.2468 98.848L98.6348 99.484C98.3228 99.108 97.9388 98.82 97.4828 98.62C97.0348 98.412 96.5668 98.308 96.0788 98.308C95.6068 98.308 95.1668 98.396 94.7588 98.572C94.3508 98.748 93.9948 98.996 93.6908 99.316C93.3948 99.636 93.1628 100.008 92.9948 100.432C92.8268 100.848 92.7428 101.304 92.7428 101.8C92.7428 102.288 92.8268 102.744 92.9948 103.168C93.1628 103.592 93.3948 103.964 93.6908 104.284C93.9948 104.604 94.3508 104.852 94.7588 105.028C95.1668 105.204 95.6068 105.292 96.0788 105.292C96.5668 105.292 97.0348 105.188 97.4828 104.98C97.9388 104.772 98.3228 104.484 98.6348 104.116L99.2468 104.752C98.9828 105.048 98.6828 105.3 98.3468 105.508C98.0108 105.708 97.6508 105.864 97.2668 105.976C96.8908 106.08 96.4948 106.132 96.0788 106.132ZM100.742 106V97.336L101.618 97.156V101.092C101.842 100.74 102.11 100.48 102.422 100.312C102.734 100.136 103.086 100.048 103.478 100.048C103.902 100.048 104.27 100.14 104.582 100.324C104.902 100.5 105.15 100.752 105.326 101.08C105.51 101.4 105.602 101.776 105.602 102.208V106H104.726V102.46C104.726 101.94 104.582 101.532 104.294 101.236C104.014 100.932 103.634 100.78 103.154 100.78C102.834 100.78 102.542 100.856 102.278 101.008C102.014 101.16 101.794 101.384 101.618 101.68V106H100.742ZM109.175 106.108C108.759 106.108 108.391 106.032 108.071 105.88C107.751 105.728 107.499 105.52 107.315 105.256C107.139 104.984 107.051 104.672 107.051 104.32C107.051 103.968 107.143 103.664 107.327 103.408C107.511 103.144 107.767 102.94 108.095 102.796C108.423 102.652 108.807 102.58 109.247 102.58C109.583 102.58 109.899 102.616 110.195 102.688C110.499 102.76 110.779 102.876 111.035 103.036V102.232C111.035 101.752 110.907 101.392 110.651 101.152C110.395 100.904 110.019 100.78 109.523 100.78C109.251 100.78 108.971 100.82 108.683 100.9C108.403 100.98 108.091 101.108 107.747 101.284L107.423 100.612C108.207 100.236 108.943 100.048 109.631 100.048C110.359 100.048 110.919 100.228 111.311 100.588C111.703 100.94 111.899 101.448 111.899 102.112V106H111.035V105.316C110.779 105.58 110.495 105.78 110.183 105.916C109.871 106.044 109.535 106.108 109.175 106.108ZM107.891 104.296C107.891 104.64 108.023 104.916 108.287 105.124C108.559 105.332 108.915 105.436 109.355 105.436C109.683 105.436 109.983 105.38 110.255 105.268C110.535 105.156 110.795 104.988 111.035 104.764V103.636C110.787 103.492 110.531 103.388 110.267 103.324C110.003 103.252 109.707 103.216 109.379 103.216C108.931 103.216 108.571 103.316 108.299 103.516C108.027 103.708 107.891 103.968 107.891 104.296ZM115.736 106.12C115.232 106.12 114.848 106 114.584 105.76C114.328 105.512 114.2 105.156 114.2 104.692V100.864H112.988V100.144H114.2V98.536L115.076 98.332V100.144H116.756V100.864H115.076V104.464C115.076 104.776 115.14 105 115.268 105.136C115.404 105.272 115.624 105.34 115.928 105.34C116.08 105.34 116.216 105.328 116.336 105.304C116.456 105.28 116.596 105.24 116.756 105.184V105.964C116.596 106.02 116.428 106.06 116.252 106.084C116.076 106.108 115.904 106.12 115.736 106.12ZM118.207 106V97.6H121.603C122.115 97.6 122.559 97.688 122.935 97.864C123.319 98.04 123.615 98.288 123.823 98.608C124.031 98.928 124.135 99.304 124.135 99.736C124.135 100.2 123.999 100.6 123.727 100.936C123.463 101.264 123.103 101.496 122.647 101.632C123.207 101.76 123.647 102.004 123.967 102.364C124.295 102.716 124.459 103.152 124.459 103.672C124.459 104.136 124.347 104.544 124.123 104.896C123.899 105.248 123.583 105.52 123.175 105.712C122.767 105.904 122.287 106 121.735 106H118.207ZM119.131 101.272H121.531C122.043 101.272 122.451 101.144 122.755 100.888C123.059 100.624 123.211 100.272 123.211 99.832C123.211 99.392 123.059 99.044 122.755 98.788C122.451 98.524 122.043 98.392 121.531 98.392H119.131V101.272ZM119.131 105.208H121.639C122.207 105.208 122.663 105.064 123.007 104.776C123.351 104.48 123.523 104.092 123.523 103.612C123.523 103.132 123.351 102.748 123.007 102.46C122.671 102.172 122.215 102.028 121.639 102.028H119.131V105.208ZM128.541 106.096C127.997 106.096 127.509 105.964 127.077 105.7C126.645 105.436 126.305 105.076 126.057 104.62C125.809 104.164 125.685 103.648 125.685 103.072C125.685 102.496 125.809 101.98 126.057 101.524C126.305 101.068 126.645 100.708 127.077 100.444C127.509 100.18 127.997 100.048 128.541 100.048C129.077 100.048 129.557 100.18 129.981 100.444C130.413 100.708 130.753 101.068 131.001 101.524C131.249 101.98 131.373 102.496 131.373 103.072C131.373 103.648 131.249 104.164 131.001 104.62C130.753 105.076 130.413 105.436 129.981 105.7C129.557 105.964 129.077 106.096 128.541 106.096ZM128.529 105.328C128.913 105.328 129.253 105.232 129.549 105.04C129.845 104.84 130.077 104.568 130.245 104.224C130.421 103.88 130.509 103.496 130.509 103.072C130.509 102.64 130.421 102.256 130.245 101.92C130.077 101.576 129.845 101.308 129.549 101.116C129.253 100.916 128.913 100.816 128.529 100.816C128.145 100.816 127.805 100.916 127.509 101.116C127.213 101.308 126.977 101.576 126.801 101.92C126.633 102.256 126.549 102.64 126.549 103.072C126.549 103.496 126.633 103.88 126.801 104.224C126.977 104.568 127.213 104.84 127.509 105.04C127.805 105.232 128.145 105.328 128.529 105.328ZM134.778 106.12C134.274 106.12 133.89 106 133.626 105.76C133.37 105.512 133.242 105.156 133.242 104.692V100.864H132.03V100.144H133.242V98.536L134.118 98.332V100.144H135.798V100.864H134.118V104.464C134.118 104.776 134.182 105 134.31 105.136C134.446 105.272 134.666 105.34 134.97 105.34C135.122 105.34 135.258 105.328 135.378 105.304C135.498 105.28 135.638 105.24 135.798 105.184V105.964C135.638 106.02 135.47 106.06 135.294 106.084C135.118 106.108 134.946 106.12 134.778 106.12Z" fill="white"/>
</g>
<g filter="url(#filter1_d_869_67530)">
<path d="M273.5 70L284.325 85H262.675L273.5 70Z" fill="#292929"/>
<path d="M211 91C211 87.6863 213.686 85 217 85H330C333.314 85 336 87.6863 336 91V131C336 134.314 333.314 137 330 137H217C213.686 137 211 134.314 211 131V91Z" fill="#292929"/>
<path d="M231.923 106V97.6H232.847V105.184H237.587V106H231.923ZM240.857 106.108C240.441 106.108 240.073 106.032 239.753 105.88C239.433 105.728 239.181 105.52 238.997 105.256C238.821 104.984 238.733 104.672 238.733 104.32C238.733 103.968 238.825 103.664 239.009 103.408C239.193 103.144 239.449 102.94 239.777 102.796C240.105 102.652 240.489 102.58 240.929 102.58C241.265 102.58 241.581 102.616 241.877 102.688C242.181 102.76 242.461 102.876 242.717 103.036V102.232C242.717 101.752 242.589 101.392 242.333 101.152C242.077 100.904 241.701 100.78 241.205 100.78C240.933 100.78 240.653 100.82 240.365 100.9C240.085 100.98 239.773 101.108 239.429 101.284L239.105 100.612C239.889 100.236 240.625 100.048 241.313 100.048C242.041 100.048 242.601 100.228 242.993 100.588C243.385 100.94 243.581 101.448 243.581 102.112V106H242.717V105.316C242.461 105.58 242.177 105.78 241.865 105.916C241.553 106.044 241.217 106.108 240.857 106.108ZM239.573 104.296C239.573 104.64 239.705 104.916 239.969 105.124C240.241 105.332 240.597 105.436 241.037 105.436C241.365 105.436 241.665 105.38 241.937 105.268C242.217 105.156 242.477 104.988 242.717 104.764V103.636C242.469 103.492 242.213 103.388 241.949 103.324C241.685 103.252 241.389 103.216 241.061 103.216C240.613 103.216 240.253 103.316 239.981 103.516C239.709 103.708 239.573 103.968 239.573 104.296ZM247.39 106.096C246.974 106.096 246.606 106.004 246.286 105.82C245.966 105.636 245.714 105.38 245.53 105.052C245.354 104.724 245.266 104.348 245.266 103.924V100.144H246.154V103.672C246.154 104.192 246.294 104.604 246.574 104.908C246.854 105.212 247.234 105.364 247.714 105.364C248.042 105.364 248.334 105.288 248.59 105.136C248.854 104.984 249.074 104.764 249.25 104.476V100.144H250.126V106H249.25V105.052C249.026 105.396 248.758 105.656 248.446 105.832C248.142 106.008 247.79 106.096 247.39 106.096ZM251.923 106V100.144H252.799V101.092C253.023 100.74 253.291 100.48 253.603 100.312C253.915 100.136 254.267 100.048 254.659 100.048C255.083 100.048 255.451 100.14 255.763 100.324C256.083 100.5 256.331 100.752 256.507 101.08C256.691 101.4 256.783 101.776 256.783 102.208V106H255.907V102.46C255.907 101.94 255.763 101.532 255.475 101.236C255.195 100.932 254.815 100.78 254.335 100.78C254.015 100.78 253.723 100.856 253.459 101.008C253.195 101.16 252.975 101.384 252.799 101.68V106H251.923ZM261.173 106.096C260.629 106.096 260.137 105.964 259.697 105.7C259.265 105.428 258.921 105.064 258.665 104.608C258.409 104.144 258.281 103.632 258.281 103.072C258.281 102.504 258.409 101.992 258.665 101.536C258.921 101.08 259.265 100.72 259.697 100.456C260.137 100.184 260.629 100.048 261.173 100.048C261.605 100.048 262.017 100.128 262.409 100.288C262.801 100.448 263.141 100.672 263.429 100.96L262.865 101.572C262.657 101.34 262.405 101.16 262.109 101.032C261.813 100.904 261.513 100.84 261.209 100.84C260.825 100.84 260.477 100.94 260.165 101.14C259.861 101.34 259.617 101.608 259.433 101.944C259.249 102.28 259.157 102.656 259.157 103.072C259.157 103.488 259.249 103.864 259.433 104.2C259.617 104.536 259.861 104.804 260.165 105.004C260.477 105.204 260.825 105.304 261.209 105.304C261.513 105.304 261.813 105.24 262.109 105.112C262.405 104.976 262.657 104.796 262.865 104.572L263.429 105.184C263.141 105.472 262.801 105.696 262.409 105.856C262.017 106.016 261.605 106.096 261.173 106.096ZM264.65 106V97.336L265.526 97.156V101.092C265.75 100.74 266.018 100.48 266.33 100.312C266.642 100.136 266.994 100.048 267.386 100.048C267.81 100.048 268.178 100.14 268.49 100.324C268.81 100.5 269.058 100.752 269.234 101.08C269.418 101.4 269.51 101.776 269.51 102.208V106H268.634V102.46C268.634 101.94 268.49 101.532 268.202 101.236C267.922 100.932 267.542 100.78 267.062 100.78C266.742 100.78 266.45 100.856 266.186 101.008C265.922 101.16 265.702 101.384 265.526 101.68V106H264.65ZM274.24 106V97.6H277.708C278.252 97.6 278.724 97.704 279.124 97.912C279.524 98.112 279.832 98.4 280.048 98.776C280.272 99.144 280.384 99.58 280.384 100.084C280.384 100.58 280.272 101.016 280.048 101.392C279.832 101.768 279.524 102.06 279.124 102.268C278.724 102.468 278.252 102.568 277.708 102.568H275.164V106H274.24ZM275.164 101.776H277.6C278.184 101.776 278.64 101.624 278.968 101.32C279.296 101.016 279.46 100.604 279.46 100.084C279.46 99.564 279.296 99.156 278.968 98.86C278.64 98.564 278.184 98.416 277.6 98.416H275.164V101.776ZM281.865 106V100.144H282.741V101.344C282.893 100.936 283.109 100.62 283.389 100.396C283.677 100.164 284.005 100.048 284.373 100.048C284.477 100.048 284.573 100.056 284.661 100.072C284.749 100.08 284.837 100.1 284.925 100.132V100.924C284.829 100.892 284.725 100.868 284.613 100.852C284.509 100.828 284.409 100.816 284.313 100.816C283.953 100.816 283.637 100.92 283.365 101.128C283.101 101.336 282.893 101.628 282.741 102.004V106H281.865ZM288.312 106.096C287.768 106.096 287.28 105.964 286.848 105.7C286.416 105.436 286.076 105.076 285.828 104.62C285.58 104.164 285.456 103.648 285.456 103.072C285.456 102.496 285.58 101.98 285.828 101.524C286.076 101.068 286.416 100.708 286.848 100.444C287.28 100.18 287.768 100.048 288.312 100.048C288.848 100.048 289.328 100.18 289.752 100.444C290.184 100.708 290.524 101.068 290.772 101.524C291.02 101.98 291.144 102.496 291.144 103.072C291.144 103.648 291.02 104.164 290.772 104.62C290.524 105.076 290.184 105.436 289.752 105.7C289.328 105.964 288.848 106.096 288.312 106.096ZM288.3 105.328C288.684 105.328 289.024 105.232 289.32 105.04C289.616 104.84 289.848 104.568 290.016 104.224C290.192 103.88 290.28 103.496 290.28 103.072C290.28 102.64 290.192 102.256 290.016 101.92C289.848 101.576 289.616 101.308 289.32 101.116C289.024 100.916 288.684 100.816 288.3 100.816C287.916 100.816 287.576 100.916 287.28 101.116C286.984 101.308 286.748 101.576 286.572 101.92C286.404 102.256 286.32 102.64 286.32 103.072C286.32 103.496 286.404 103.88 286.572 104.224C286.748 104.568 286.984 104.84 287.28 105.04C287.576 105.232 287.916 105.328 288.3 105.328ZM295.117 106.084C294.613 106.084 294.157 105.952 293.749 105.688C293.341 105.416 293.017 105.056 292.777 104.608C292.537 104.152 292.417 103.644 292.417 103.084C292.417 102.516 292.537 102.008 292.777 101.56C293.025 101.104 293.357 100.744 293.773 100.48C294.189 100.208 294.653 100.072 295.165 100.072C295.525 100.072 295.861 100.144 296.173 100.288C296.485 100.424 296.757 100.624 296.989 100.888V97.336L297.865 97.156V106H296.989V105.22C296.765 105.5 296.493 105.716 296.173 105.868C295.853 106.012 295.501 106.084 295.117 106.084ZM295.333 105.316C295.677 105.316 295.993 105.248 296.281 105.112C296.569 104.976 296.805 104.784 296.989 104.536V101.632C296.797 101.384 296.553 101.192 296.257 101.056C295.969 100.912 295.661 100.84 295.333 100.84C294.941 100.84 294.589 100.936 294.277 101.128C293.973 101.32 293.729 101.584 293.545 101.92C293.369 102.256 293.281 102.64 293.281 103.072C293.281 103.496 293.369 103.88 293.545 104.224C293.729 104.56 293.973 104.828 294.277 105.028C294.589 105.22 294.941 105.316 295.333 105.316ZM301.754 106.096C301.338 106.096 300.97 106.004 300.65 105.82C300.33 105.636 300.078 105.38 299.894 105.052C299.718 104.724 299.63 104.348 299.63 103.924V100.144H300.518V103.672C300.518 104.192 300.658 104.604 300.938 104.908C301.218 105.212 301.598 105.364 302.078 105.364C302.406 105.364 302.698 105.288 302.954 105.136C303.218 104.984 303.438 104.764 303.614 104.476V100.144H304.49V106H303.614V105.052C303.39 105.396 303.122 105.656 302.81 105.832C302.506 106.008 302.154 106.096 301.754 106.096ZM308.915 106.096C308.371 106.096 307.879 105.964 307.439 105.7C307.007 105.428 306.663 105.064 306.407 104.608C306.151 104.144 306.023 103.632 306.023 103.072C306.023 102.504 306.151 101.992 306.407 101.536C306.663 101.08 307.007 100.72 307.439 100.456C307.879 100.184 308.371 100.048 308.915 100.048C309.347 100.048 309.759 100.128 310.151 100.288C310.543 100.448 310.883 100.672 311.171 100.96L310.607 101.572C310.399 101.34 310.147 101.16 309.851 101.032C309.555 100.904 309.255 100.84 308.951 100.84C308.567 100.84 308.219 100.94 307.907 101.14C307.603 101.34 307.359 101.608 307.175 101.944C306.991 102.28 306.899 102.656 306.899 103.072C306.899 103.488 306.991 103.864 307.175 104.2C307.359 104.536 307.603 104.804 307.907 105.004C308.219 105.204 308.567 105.304 308.951 105.304C309.255 105.304 309.555 105.24 309.851 105.112C310.147 104.976 310.399 104.796 310.607 104.572L311.171 105.184C310.883 105.472 310.543 105.696 310.151 105.856C309.759 106.016 309.347 106.096 308.915 106.096ZM314.741 106.12C314.237 106.12 313.853 106 313.589 105.76C313.333 105.512 313.205 105.156 313.205 104.692V100.864H311.993V100.144H313.205V98.536L314.081 98.332V100.144H315.761V100.864H314.081V104.464C314.081 104.776 314.145 105 314.273 105.136C314.409 105.272 314.629 105.34 314.933 105.34C315.085 105.34 315.221 105.328 315.341 105.304C315.461 105.28 315.601 105.24 315.761 105.184V105.964C315.601 106.02 315.433 106.06 315.257 106.084C315.081 106.108 314.909 106.12 314.741 106.12ZM247.703 124V115.6H251.099C251.611 115.6 252.055 115.688 252.431 115.864C252.815 116.04 253.111 116.288 253.319 116.608C253.527 116.928 253.631 117.304 253.631 117.736C253.631 118.2 253.495 118.6 253.223 118.936C252.959 119.264 252.599 119.496 252.143 119.632C252.703 119.76 253.143 120.004 253.463 120.364C253.791 120.716 253.955 121.152 253.955 121.672C253.955 122.136 253.843 122.544 253.619 122.896C253.395 123.248 253.079 123.52 252.671 123.712C252.263 123.904 251.783 124 251.231 124H247.703ZM248.627 119.272H251.027C251.539 119.272 251.947 119.144 252.251 118.888C252.555 118.624 252.707 118.272 252.707 117.832C252.707 117.392 252.555 117.044 252.251 116.788C251.947 116.524 251.539 116.392 251.027 116.392H248.627V119.272ZM248.627 123.208H251.135C251.703 123.208 252.159 123.064 252.503 122.776C252.847 122.48 253.019 122.092 253.019 121.612C253.019 121.132 252.847 120.748 252.503 120.46C252.167 120.172 251.711 120.028 251.135 120.028H248.627V123.208ZM258.037 124.096C257.493 124.096 257.005 123.964 256.573 123.7C256.141 123.436 255.801 123.076 255.553 122.62C255.305 122.164 255.181 121.648 255.181 121.072C255.181 120.496 255.305 119.98 255.553 119.524C255.801 119.068 256.141 118.708 256.573 118.444C257.005 118.18 257.493 118.048 258.037 118.048C258.573 118.048 259.053 118.18 259.477 118.444C259.909 118.708 260.249 119.068 260.497 119.524C260.745 119.98 260.869 120.496 260.869 121.072C260.869 121.648 260.745 122.164 260.497 122.62C260.249 123.076 259.909 123.436 259.477 123.7C259.053 123.964 258.573 124.096 258.037 124.096ZM258.025 123.328C258.409 123.328 258.749 123.232 259.045 123.04C259.341 122.84 259.573 122.568 259.741 122.224C259.917 121.88 260.005 121.496 260.005 121.072C260.005 120.64 259.917 120.256 259.741 119.92C259.573 119.576 259.341 119.308 259.045 119.116C258.749 118.916 258.409 118.816 258.025 118.816C257.641 118.816 257.301 118.916 257.005 119.116C256.709 119.308 256.473 119.576 256.297 119.92C256.129 120.256 256.045 120.64 256.045 121.072C256.045 121.496 256.129 121.88 256.297 122.224C256.473 122.568 256.709 122.84 257.005 123.04C257.301 123.232 257.641 123.328 258.025 123.328ZM264.275 124.12C263.771 124.12 263.387 124 263.123 123.76C262.867 123.512 262.739 123.156 262.739 122.692V118.864H261.527V118.144H262.739V116.536L263.615 116.332V118.144H265.295V118.864H263.615V122.464C263.615 122.776 263.679 123 263.807 123.136C263.943 123.272 264.163 123.34 264.467 123.34C264.619 123.34 264.755 123.328 264.875 123.304C264.995 123.28 265.135 123.24 265.295 123.184V123.964C265.135 124.02 264.967 124.06 264.791 124.084C264.615 124.108 264.443 124.12 264.275 124.12ZM269.547 124V115.6H270.507L275.427 122.56L275.403 115.6H276.279V124H275.439L270.399 116.884L270.423 124H269.547ZM279.944 124.108C279.528 124.108 279.16 124.032 278.84 123.88C278.52 123.728 278.268 123.52 278.084 123.256C277.908 122.984 277.82 122.672 277.82 122.32C277.82 121.968 277.912 121.664 278.096 121.408C278.28 121.144 278.536 120.94 278.864 120.796C279.192 120.652 279.576 120.58 280.016 120.58C280.352 120.58 280.668 120.616 280.964 120.688C281.268 120.76 281.548 120.876 281.804 121.036V120.232C281.804 119.752 281.676 119.392 281.42 119.152C281.164 118.904 280.788 118.78 280.292 118.78C280.02 118.78 279.74 118.82 279.452 118.9C279.172 118.98 278.86 119.108 278.516 119.284L278.192 118.612C278.976 118.236 279.712 118.048 280.4 118.048C281.128 118.048 281.688 118.228 282.08 118.588C282.472 118.94 282.668 119.448 282.668 120.112V124H281.804V123.316C281.548 123.58 281.264 123.78 280.952 123.916C280.64 124.044 280.304 124.108 279.944 124.108ZM278.66 122.296C278.66 122.64 278.792 122.916 279.056 123.124C279.328 123.332 279.684 123.436 280.124 123.436C280.452 123.436 280.752 123.38 281.024 123.268C281.304 123.156 281.564 122.988 281.804 122.764V121.636C281.556 121.492 281.3 121.388 281.036 121.324C280.772 121.252 280.476 121.216 280.148 121.216C279.7 121.216 279.34 121.316 279.068 121.516C278.796 121.708 278.66 121.968 278.66 122.296ZM284.449 124V118.144H285.325V119.056C285.549 118.72 285.805 118.468 286.093 118.3C286.381 118.132 286.705 118.048 287.065 118.048C287.481 118.048 287.845 118.152 288.157 118.36C288.469 118.56 288.705 118.836 288.865 119.188C289.097 118.812 289.373 118.528 289.693 118.336C290.021 118.144 290.397 118.048 290.821 118.048C291.213 118.048 291.557 118.14 291.853 118.324C292.157 118.508 292.393 118.764 292.561 119.092C292.729 119.412 292.813 119.788 292.813 120.22V124H291.937V120.436C291.937 119.924 291.809 119.52 291.553 119.224C291.297 118.928 290.945 118.78 290.497 118.78C290.193 118.78 289.917 118.856 289.669 119.008C289.429 119.16 289.217 119.392 289.033 119.704C289.049 119.784 289.061 119.868 289.069 119.956C289.077 120.044 289.081 120.132 289.081 120.22V124H288.205V120.436C288.205 119.924 288.073 119.52 287.809 119.224C287.553 118.928 287.201 118.78 286.753 118.78C286.153 118.78 285.677 119.068 285.325 119.644V124H284.449ZM297.226 124.12C296.682 124.12 296.19 123.988 295.75 123.724C295.31 123.452 294.962 123.088 294.706 122.632C294.45 122.168 294.322 121.648 294.322 121.072C294.322 120.496 294.442 119.98 294.682 119.524C294.93 119.068 295.262 118.708 295.678 118.444C296.094 118.18 296.558 118.048 297.07 118.048C297.59 118.048 298.05 118.18 298.45 118.444C298.858 118.7 299.178 119.052 299.41 119.5C299.65 119.94 299.77 120.44 299.77 121V121.264H295.174C295.206 121.664 295.314 122.024 295.498 122.344C295.69 122.656 295.938 122.904 296.242 123.088C296.554 123.264 296.894 123.352 297.262 123.352C297.566 123.352 297.858 123.3 298.138 123.196C298.426 123.084 298.67 122.936 298.87 122.752L299.422 123.34C299.086 123.604 298.738 123.8 298.378 123.928C298.018 124.056 297.634 124.12 297.226 124.12ZM295.198 120.64H298.906C298.866 120.288 298.758 119.976 298.582 119.704C298.414 119.424 298.198 119.204 297.934 119.044C297.678 118.884 297.39 118.804 297.07 118.804C296.75 118.804 296.458 118.884 296.194 119.044C295.93 119.196 295.71 119.412 295.534 119.692C295.366 119.964 295.254 120.28 295.198 120.64Z" fill="white"/>
</g>
<defs>
<filter id="filter0_d_869_67530" x="21" y="65" width="143" height="67" filterUnits="userSpaceOnUse" color-interpolation-filters="sRGB">
<feFlood flood-opacity="0" result="BackgroundImageFix"/>
<feColorMatrix in="SourceAlpha" type="matrix" values="0 0 0 0 0 0 0 0 0 0 0 0 0 0 0 0 0 0 127 0" result="hardAlpha"/>
<feOffset dy="4"/>
<feGaussianBlur stdDeviation="4.5"/>
<feColorMatrix type="matrix" values="0 0 0 0 0.160784 0 0 0 0 0.160784 0 0 0 0 0.160784 0 0 0 0.15 0"/>
<feBlend mode="normal" in2="BackgroundImageFix" result="effect1_dropShadow_869_67530"/>
<feBlend mode="normal" in="SourceGraphic" in2="effect1_dropShadow_869_67530" result="shape"/>
</filter>
<filter id="filter1_d_869_67530" x="202" y="65" width="143" height="85" filterUnits="userSpaceOnUse" color-interpolation-filters="sRGB">
<feFlood flood-opacity="0" result="BackgroundImageFix"/>
<feColorMatrix in="SourceAlpha" type="matrix" values="0 0 0 0 0 0 0 0 0 0 0 0 0 0 0 0 0 0 127 0" result="hardAlpha"/>
<feOffset dy="4"/>
<feGaussianBlur stdDeviation="4.5"/>
<feColorMatrix type="matrix" values="0 0 0 0 0.160784 0 0 0 0 0.160784 0 0 0 0 0.160784 0 0 0 0.15 0"/>
<feBlend mode="normal" in2="BackgroundImageFix" result="effect1_dropShadow_869_67530"/>
<feBlend mode="normal" in="SourceGraphic" in2="effect1_dropShadow_869_67530" result="shape"/>
</filter>
</defs>
</svg>
