<svg width="1062" height="206" viewBox="0 0 1062 206" fill="none" xmlns="http://www.w3.org/2000/svg">
<g clip-path="url(#clip0_769_67300)">
<rect width="1062" height="206" fill="white"/>
<g filter="url(#filter0_d_769_67300)">
<g clip-path="url(#clip1_769_67300)">
<path d="M551 34C551 25.1634 558.163 18 567 18H1015C1023.84 18 1031 25.1634 1031 34V355C1031 363.837 1023.84 371 1015 371H567C558.163 371 551 363.837 551 355V34Z" fill="#F2F2F2"/>
<path d="M551 34C551 25.1634 558.163 18 567 18H1015C1023.84 18 1031 25.1634 1031 34V114H551V34Z" fill="#F2F2F2"/>
<path fill-rule="evenodd" clip-rule="evenodd" d="M601.25 55.875C601.664 55.875 602 55.5392 602 55.125V53.25C602 52.8358 601.664 52.5 601.25 52.5H581.75C581.336 52.5 581 52.8358 581 53.25V55.125C581 55.5392 581.336 55.875 581.75 55.875H601.25ZM601.25 63.375C601.664 63.375 602 63.0392 602 62.625V60.75C602 60.3358 601.664 60 601.25 60H581.75C581.336 60 581 60.3358 581 60.75V62.625C581 63.0392 581.336 63.375 581.75 63.375H601.25ZM601.25 70.875C601.664 70.875 602 70.5392 602 70.125V68.25C602 67.8357 601.664 67.5 601.25 67.5H581.75C581.336 67.5 581 67.8357 581 68.25V70.125C581 70.5392 581.336 70.875 581.75 70.875H601.25Z" fill="#707070"/>
<path fill-rule="evenodd" clip-rule="evenodd" d="M653.478 43H676V65.5217H673.587C662.481 65.5217 653.478 56.5188 653.478 45.413V43Z" fill="#0066CC"/>
<path fill-rule="evenodd" clip-rule="evenodd" d="M676 43.8043L654.283 80H671.317C673.903 80 676 77.9031 676 75.3164V43.8043Z" fill="url(#paint0_linear_769_67300)"/>
<path fill-rule="evenodd" clip-rule="evenodd" d="M675.196 43L639 64.7174V47.6836C639 45.0969 641.097 43 643.683 43H675.196Z" fill="url(#paint1_linear_769_67300)"/>
<mask id="path-10-inside-1_769_67300" fill="white">
<path d="M798 61.5C798 51.2827 806.283 43 816.5 43H924.5C934.717 43 943 51.2827 943 61.5V61.5C943 71.7173 934.717 80 924.5 80H816.5C806.283 80 798 71.7173 798 61.5V61.5Z"/>
</mask>
<path d="M816.5 44H924.5V42H816.5V44ZM924.5 79H816.5V81H924.5V79ZM816.5 79C806.835 79 799 71.165 799 61.5H797C797 72.2696 805.73 81 816.5 81V79ZM942 61.5C942 71.165 934.165 79 924.5 79V81C935.27 81 944 72.2696 944 61.5H942ZM924.5 44C934.165 44 942 51.835 942 61.5H944C944 50.7304 935.27 42 924.5 42V44ZM816.5 42C805.73 42 797 50.7304 797 61.5H799C799 51.835 806.835 44 816.5 44V42Z" fill="#0066CC" mask="url(#path-10-inside-1_769_67300)"/>
<path d="M827.74 66.154C827.04 66.154 826.391 66.0233 825.794 65.762C825.197 65.5007 824.669 65.1413 824.212 64.684C823.764 64.2173 823.414 63.6807 823.162 63.074C822.91 62.458 822.784 61.8 822.784 61.1C822.784 60.4 822.91 59.7467 823.162 59.14C823.414 58.524 823.764 57.9873 824.212 57.53C824.669 57.0633 825.197 56.6993 825.794 56.438C826.391 56.1767 827.04 56.046 827.74 56.046C828.487 56.046 829.191 56.1813 829.854 56.452C830.526 56.7227 831.095 57.124 831.562 57.656L830.834 58.384C830.47 57.9453 830.013 57.6093 829.462 57.376C828.911 57.1427 828.337 57.026 827.74 57.026C827.189 57.026 826.681 57.1333 826.214 57.348C825.747 57.5533 825.337 57.8427 824.982 58.216C824.637 58.58 824.366 59.0093 824.17 59.504C823.974 59.9987 823.876 60.5307 823.876 61.1C823.876 61.6693 823.974 62.2013 824.17 62.696C824.366 63.1907 824.637 63.6247 824.982 63.998C825.337 64.362 825.747 64.6513 826.214 64.866C826.681 65.0713 827.189 65.174 827.74 65.174C828.393 65.174 828.977 65.0293 829.49 64.74C830.013 64.4507 830.433 64.054 830.75 63.55C831.077 63.0367 831.268 62.4627 831.324 61.828H828.02V60.876H832.416V61.31C832.416 61.9913 832.299 62.626 832.066 63.214C831.833 63.7927 831.501 64.306 831.072 64.754C830.652 65.1927 830.157 65.538 829.588 65.79C829.019 66.0327 828.403 66.154 827.74 66.154ZM834.234 66V59.168H835.256V60.568C835.433 60.092 835.685 59.7233 836.012 59.462C836.348 59.1913 836.73 59.056 837.16 59.056C837.281 59.056 837.393 59.0653 837.496 59.084C837.598 59.0933 837.701 59.1167 837.804 59.154V60.078C837.692 60.0407 837.57 60.0127 837.44 59.994C837.318 59.966 837.202 59.952 837.09 59.952C836.67 59.952 836.301 60.0733 835.984 60.316C835.676 60.5587 835.433 60.8993 835.256 61.338V66H834.234ZM840.982 66.126C840.497 66.126 840.068 66.0373 839.694 65.86C839.321 65.6827 839.027 65.44 838.812 65.132C838.607 64.8147 838.504 64.4507 838.504 64.04C838.504 63.6293 838.612 63.2747 838.826 62.976C839.041 62.668 839.34 62.43 839.722 62.262C840.105 62.094 840.553 62.01 841.066 62.01C841.458 62.01 841.827 62.052 842.172 62.136C842.527 62.22 842.854 62.3553 843.152 62.542V61.604C843.152 61.044 843.003 60.624 842.704 60.344C842.406 60.0547 841.967 59.91 841.388 59.91C841.071 59.91 840.744 59.9567 840.408 60.05C840.082 60.1433 839.718 60.2927 839.316 60.498L838.938 59.714C839.853 59.2753 840.712 59.056 841.514 59.056C842.364 59.056 843.017 59.266 843.474 59.686C843.932 60.0967 844.16 60.6893 844.16 61.464V66H843.152V65.202C842.854 65.51 842.522 65.7433 842.158 65.902C841.794 66.0513 841.402 66.126 840.982 66.126ZM839.484 64.012C839.484 64.4133 839.638 64.7353 839.946 64.978C840.264 65.2207 840.679 65.342 841.192 65.342C841.575 65.342 841.925 65.2767 842.242 65.146C842.569 65.0153 842.872 64.8193 843.152 64.558V63.242C842.863 63.074 842.564 62.9527 842.256 62.878C841.948 62.794 841.603 62.752 841.22 62.752C840.698 62.752 840.278 62.8687 839.96 63.102C839.643 63.326 839.484 63.6293 839.484 64.012ZM846.238 66V59.168H847.26V60.274C847.521 59.8633 847.834 59.56 848.198 59.364C848.562 59.1587 848.972 59.056 849.43 59.056C849.924 59.056 850.354 59.1633 850.718 59.378C851.091 59.5833 851.38 59.8773 851.586 60.26C851.8 60.6333 851.908 61.072 851.908 61.576V66H850.886V61.87C850.886 61.2633 850.718 60.7873 850.382 60.442C850.055 60.0873 849.612 59.91 849.052 59.91C848.678 59.91 848.338 59.9987 848.03 60.176C847.722 60.3533 847.465 60.6147 847.26 60.96V66H846.238ZM853.948 66V59.168H854.97V66H853.948ZM854.466 57.474C854.261 57.474 854.083 57.404 853.934 57.264C853.794 57.1147 853.724 56.942 853.724 56.746C853.724 56.55 853.794 56.382 853.934 56.242C854.083 56.0927 854.261 56.018 854.466 56.018C854.671 56.018 854.844 56.0927 854.984 56.242C855.133 56.382 855.208 56.55 855.208 56.746C855.208 56.942 855.133 57.1147 854.984 57.264C854.844 57.404 854.671 57.474 854.466 57.474ZM859.67 66.14C859.082 66.14 858.634 66 858.326 65.72C858.027 65.4307 857.878 65.0153 857.878 64.474V60.008H856.464V59.168H857.878V57.292L858.9 57.054V59.168H860.86V60.008H858.9V64.208C858.9 64.572 858.974 64.8333 859.124 64.992C859.282 65.1507 859.539 65.23 859.894 65.23C860.071 65.23 860.23 65.216 860.37 65.188C860.51 65.16 860.673 65.1133 860.86 65.048V65.958C860.673 66.0233 860.477 66.07 860.272 66.098C860.066 66.126 859.866 66.14 859.67 66.14ZM865.3 66.14C864.665 66.14 864.091 65.986 863.578 65.678C863.065 65.3607 862.659 64.936 862.36 64.404C862.061 63.8627 861.912 63.256 861.912 62.584C861.912 61.912 862.052 61.31 862.332 60.778C862.621 60.246 863.009 59.826 863.494 59.518C863.979 59.21 864.521 59.056 865.118 59.056C865.725 59.056 866.261 59.21 866.728 59.518C867.204 59.8167 867.577 60.2273 867.848 60.75C868.128 61.2633 868.268 61.8467 868.268 62.5V62.808H862.906C862.943 63.2747 863.069 63.6947 863.284 64.068C863.508 64.432 863.797 64.7213 864.152 64.936C864.516 65.1413 864.913 65.244 865.342 65.244C865.697 65.244 866.037 65.1833 866.364 65.062C866.7 64.9313 866.985 64.7587 867.218 64.544L867.862 65.23C867.47 65.538 867.064 65.7667 866.644 65.916C866.224 66.0653 865.776 66.14 865.3 66.14ZM862.934 62.08H867.26C867.213 61.6693 867.087 61.3053 866.882 60.988C866.686 60.6613 866.434 60.4047 866.126 60.218C865.827 60.0313 865.491 59.938 865.118 59.938C864.745 59.938 864.404 60.0313 864.096 60.218C863.788 60.3953 863.531 60.6473 863.326 60.974C863.13 61.2913 862.999 61.66 862.934 62.08ZM873.672 66L878.544 57.082H872.664V56.2H879.636V56.984L874.82 66H873.672ZM881.283 66V56.2H885.245C885.842 56.2 886.36 56.3027 886.799 56.508C887.247 56.7133 887.592 57.0027 887.835 57.376C888.078 57.7493 888.199 58.188 888.199 58.692C888.199 59.2333 888.04 59.7 887.723 60.092C887.415 60.4747 886.995 60.7453 886.463 60.904C887.116 61.0533 887.63 61.338 888.003 61.758C888.386 62.1687 888.577 62.6773 888.577 63.284C888.577 63.8253 888.446 64.3013 888.185 64.712C887.924 65.1227 887.555 65.44 887.079 65.664C886.603 65.888 886.043 66 885.399 66H881.283ZM882.361 60.484H885.161C885.758 60.484 886.234 60.3347 886.589 60.036C886.944 59.728 887.121 59.3173 887.121 58.804C887.121 58.2907 886.944 57.8847 886.589 57.586C886.234 57.278 885.758 57.124 885.161 57.124H882.361V60.484ZM882.361 65.076H885.287C885.95 65.076 886.482 64.908 886.883 64.572C887.284 64.2267 887.485 63.774 887.485 63.214C887.485 62.654 887.284 62.206 886.883 61.87C886.491 61.534 885.959 61.366 885.287 61.366H882.361V65.076Z" fill="#0066CC"/>
<path fill-rule="evenodd" clip-rule="evenodd" d="M909.389 64.1714L912.921 60.6102C913.267 60.2615 913.023 59.6666 912.534 59.6666H905.466C904.977 59.6666 904.733 60.2615 905.079 60.6102L908.611 64.1714C908.826 64.3872 909.174 64.3872 909.389 64.1714Z" fill="#0066CC"/>
<path fill-rule="evenodd" clip-rule="evenodd" d="M985.968 61C985.968 59.0653 984.41 57.5 982.484 57.5C980.558 57.5 979 59.0653 979 61C979 62.9347 980.558 64.5 982.484 64.5C984.41 64.5 985.968 62.9347 985.968 61ZM994.484 61C994.484 59.0653 992.926 57.5 991 57.5C989.074 57.5 987.516 59.0653 987.516 61C987.516 62.9347 989.074 64.5 991 64.5C992.926 64.5 994.484 62.9347 994.484 61ZM1003 61C1003 59.0653 1001.44 57.5 999.516 57.5C997.59 57.5 996.032 59.0653 996.032 61C996.032 62.9347 997.59 64.5 999.516 64.5C1001.44 64.5 1003 62.9347 1003 61Z" fill="#707070"/>
<g opacity="0.5">
<rect x="551" y="113" width="480" height="1" rx="0.5" fill="#C7C7C7"/>
</g>
<path d="M576.512 158V141.2H579.992V147.968H587.72V141.2H591.2V158H587.72V151.112H579.992V158H576.512ZM594.038 158V145.496H597.326V158H594.038ZM595.67 144.008C595.158 144.008 594.718 143.824 594.35 143.456C593.982 143.088 593.798 142.648 593.798 142.136C593.798 141.608 593.982 141.168 594.35 140.816C594.718 140.448 595.158 140.264 595.67 140.264C596.198 140.264 596.638 140.448 596.99 140.816C597.358 141.168 597.542 141.608 597.542 142.136C597.542 142.648 597.358 143.088 596.99 143.456C596.638 143.824 596.198 144.008 595.67 144.008ZM598.674 161.624L600.306 155.312H603.714L601.146 161.624H598.674ZM610.942 158V141.2H614.422V158H610.942ZM616.425 146.528L618.057 140.216H621.465L618.897 146.528H616.425ZM623.194 158V145.496H626.482V146.456C627.378 145.656 628.466 145.256 629.746 145.256C630.562 145.256 631.29 145.424 631.93 145.76C632.57 146.08 633.098 146.536 633.514 147.128C634.554 145.88 635.93 145.256 637.642 145.256C638.586 145.256 639.41 145.472 640.114 145.904C640.834 146.32 641.394 146.904 641.794 147.656C642.21 148.392 642.418 149.256 642.418 150.248V158H639.154V150.728C639.154 149.912 638.938 149.272 638.506 148.808C638.074 148.328 637.498 148.088 636.778 148.088C635.77 148.088 634.97 148.504 634.378 149.336C634.394 149.48 634.41 149.624 634.426 149.768C634.442 149.912 634.45 150.072 634.45 150.248V158H631.162V150.728C631.162 149.912 630.946 149.272 630.514 148.808C630.098 148.328 629.53 148.088 628.81 148.088C627.802 148.088 627.026 148.472 626.482 149.24V158H623.194ZM658.245 158.24C656.997 158.24 655.829 158.024 654.741 157.592C653.653 157.144 652.701 156.528 651.885 155.744C651.085 154.96 650.453 154.048 649.989 153.008C649.541 151.952 649.317 150.816 649.317 149.6C649.317 148.368 649.541 147.232 649.989 146.192C650.453 145.136 651.093 144.216 651.909 143.432C652.725 142.648 653.669 142.04 654.741 141.608C655.829 141.16 656.997 140.936 658.245 140.936C659.173 140.936 660.069 141.064 660.933 141.32C661.797 141.576 662.597 141.936 663.333 142.4C664.085 142.864 664.725 143.424 665.253 144.08L662.901 146.408C662.293 145.656 661.589 145.088 660.789 144.704C660.005 144.32 659.157 144.128 658.245 144.128C657.237 144.128 656.325 144.368 655.509 144.848C654.693 145.328 654.053 145.984 653.589 146.816C653.125 147.632 652.893 148.56 652.893 149.6C652.893 150.624 653.133 151.552 653.613 152.384C654.093 153.2 654.749 153.848 655.581 154.328C656.413 154.792 657.341 155.024 658.365 155.024C659.245 155.024 660.069 154.84 660.837 154.472C661.605 154.104 662.285 153.576 662.877 152.888L665.157 155.144C664.629 155.784 663.997 156.336 663.261 156.8C662.525 157.264 661.725 157.624 660.861 157.88C660.013 158.12 659.141 158.24 658.245 158.24ZM666.976 158V141.2L670.264 140.48V146.528C671.208 145.68 672.376 145.256 673.768 145.256C674.744 145.256 675.6 145.472 676.336 145.904C677.088 146.32 677.672 146.904 678.088 147.656C678.504 148.392 678.712 149.256 678.712 150.248V158H675.424V150.728C675.424 149.912 675.192 149.272 674.728 148.808C674.264 148.328 673.632 148.088 672.832 148.088C672.272 148.088 671.776 148.2 671.344 148.424C670.912 148.632 670.552 148.936 670.264 149.336V158H666.976ZM685.186 158.216C684.29 158.216 683.498 158.056 682.81 157.736C682.122 157.4 681.586 156.944 681.202 156.368C680.818 155.792 680.626 155.128 680.626 154.376C680.626 153.176 681.074 152.248 681.97 151.592C682.882 150.92 684.13 150.584 685.714 150.584C686.802 150.584 687.826 150.752 688.786 151.088V150.176C688.786 148.72 687.906 147.992 686.146 147.992C685.618 147.992 685.05 148.08 684.442 148.256C683.834 148.416 683.13 148.672 682.33 149.024L681.13 146.6C682.122 146.152 683.066 145.816 683.962 145.592C684.874 145.368 685.786 145.256 686.698 145.256C688.378 145.256 689.682 145.664 690.61 146.48C691.554 147.28 692.026 148.416 692.026 149.888V158H688.786V157.112C688.274 157.496 687.722 157.776 687.13 157.952C686.538 158.128 685.89 158.216 685.186 158.216ZM683.746 154.304C683.746 154.784 683.954 155.168 684.37 155.456C684.786 155.728 685.338 155.864 686.026 155.864C687.13 155.864 688.05 155.592 688.786 155.048V153.224C687.986 152.904 687.106 152.744 686.146 152.744C685.394 152.744 684.802 152.888 684.37 153.176C683.954 153.448 683.746 153.824 683.746 154.304ZM700.091 158.192C698.699 158.192 697.643 157.88 696.923 157.256C696.219 156.616 695.867 155.688 695.867 154.472V148.232H693.299V145.496H695.867V142.304L699.155 141.56V145.496H702.731V148.232H699.155V153.8C699.155 154.376 699.283 154.792 699.539 155.048C699.795 155.288 700.243 155.408 700.883 155.408C701.203 155.408 701.491 155.392 701.747 155.36C702.019 155.312 702.315 155.232 702.635 155.12V157.832C702.299 157.944 701.875 158.032 701.363 158.096C700.867 158.16 700.443 158.192 700.091 158.192ZM704.551 158V141.2H712.447C713.583 141.2 714.575 141.392 715.423 141.776C716.271 142.16 716.935 142.704 717.415 143.408C717.895 144.096 718.135 144.896 718.135 145.808C718.135 146.544 717.943 147.224 717.559 147.848C717.191 148.456 716.687 148.952 716.047 149.336C716.863 149.72 717.511 150.24 717.991 150.896C718.471 151.552 718.711 152.296 718.711 153.128C718.711 154.088 718.463 154.936 717.967 155.672C717.487 156.408 716.799 156.984 715.903 157.4C715.023 157.8 713.999 158 712.831 158H704.551ZM708.031 148.064H712.231C712.983 148.064 713.575 147.888 714.007 147.536C714.455 147.168 714.679 146.68 714.679 146.072C714.679 145.464 714.455 144.984 714.007 144.632C713.575 144.264 712.983 144.08 712.231 144.08H708.031V148.064ZM708.031 155.12H712.567C713.367 155.12 714.007 154.928 714.487 154.544C714.967 154.144 715.207 153.616 715.207 152.96C715.207 152.288 714.967 151.76 714.487 151.376C714.007 150.976 713.367 150.776 712.567 150.776H708.031V155.12ZM726.79 158.24C725.542 158.24 724.414 157.952 723.406 157.376C722.398 156.8 721.598 156.024 721.006 155.048C720.414 154.072 720.118 152.976 720.118 151.76C720.118 150.544 720.414 149.448 721.006 148.472C721.598 147.48 722.398 146.696 723.406 146.12C724.414 145.544 725.542 145.256 726.79 145.256C728.038 145.256 729.166 145.544 730.174 146.12C731.182 146.696 731.982 147.48 732.574 148.472C733.166 149.448 733.462 150.544 733.462 151.76C733.462 152.976 733.166 154.072 732.574 155.048C731.982 156.024 731.182 156.8 730.174 157.376C729.166 157.952 728.038 158.24 726.79 158.24ZM726.79 155.384C727.446 155.384 728.03 155.224 728.542 154.904C729.07 154.584 729.486 154.152 729.79 153.608C730.11 153.048 730.27 152.432 730.27 151.76C730.27 151.072 730.11 150.456 729.79 149.912C729.486 149.368 729.07 148.936 728.542 148.616C728.03 148.28 727.446 148.112 726.79 148.112C726.15 148.112 725.566 148.28 725.038 148.616C724.51 148.936 724.094 149.368 723.79 149.912C723.486 150.456 723.334 151.072 723.334 151.76C723.334 152.432 723.486 153.048 723.79 153.608C724.094 154.152 724.51 154.584 725.038 154.904C725.566 155.224 726.15 155.384 726.79 155.384ZM740.919 158.192C739.527 158.192 738.471 157.88 737.751 157.256C737.047 156.616 736.695 155.688 736.695 154.472V148.232H734.127V145.496H736.695V142.304L739.983 141.56V145.496H743.559V148.232H739.983V153.8C739.983 154.376 740.111 154.792 740.367 155.048C740.623 155.288 741.071 155.408 741.711 155.408C742.031 155.408 742.319 155.392 742.575 155.36C742.847 155.312 743.143 155.232 743.463 155.12V157.832C743.127 157.944 742.703 158.032 742.191 158.096C741.695 158.16 741.271 158.192 740.919 158.192ZM745.663 152.96L745.255 141.08H748.591L748.183 152.96H745.663ZM746.935 158.24C746.391 158.24 745.927 158.048 745.543 157.664C745.159 157.28 744.967 156.824 744.967 156.296C744.967 155.752 745.159 155.288 745.543 154.904C745.927 154.52 746.383 154.328 746.911 154.328C747.455 154.328 747.919 154.52 748.303 154.904C748.687 155.288 748.879 155.744 748.879 156.272C748.879 156.816 748.687 157.28 748.303 157.664C747.919 158.048 747.463 158.24 746.935 158.24Z" fill="#0066CC"/>
<path d="M576.512 189V172.2H579.992V178.968H587.72V172.2H591.2V189H587.72V182.112H579.992V189H576.512ZM600.134 189.24C598.886 189.24 597.758 188.952 596.75 188.376C595.742 187.8 594.942 187.024 594.35 186.048C593.758 185.072 593.462 183.976 593.462 182.76C593.462 181.544 593.758 180.448 594.35 179.472C594.942 178.48 595.742 177.696 596.75 177.12C597.758 176.544 598.886 176.256 600.134 176.256C601.382 176.256 602.51 176.544 603.518 177.12C604.526 177.696 605.326 178.48 605.918 179.472C606.51 180.448 606.806 181.544 606.806 182.76C606.806 183.976 606.51 185.072 605.918 186.048C605.326 187.024 604.526 187.8 603.518 188.376C602.51 188.952 601.382 189.24 600.134 189.24ZM600.134 186.384C600.79 186.384 601.374 186.224 601.886 185.904C602.414 185.584 602.83 185.152 603.134 184.608C603.454 184.048 603.614 183.432 603.614 182.76C603.614 182.072 603.454 181.456 603.134 180.912C602.83 180.368 602.414 179.936 601.886 179.616C601.374 179.28 600.79 179.112 600.134 179.112C599.494 179.112 598.91 179.28 598.382 179.616C597.854 179.936 597.438 180.368 597.134 180.912C596.83 181.456 596.678 182.072 596.678 182.76C596.678 183.432 596.83 184.048 597.134 184.608C597.438 185.152 597.854 185.584 598.382 185.904C598.91 186.224 599.494 186.384 600.134 186.384ZM610.969 189L607.537 176.496H610.657L612.721 184.56L615.217 176.496H617.977L620.449 184.584L622.513 176.496H625.585L622.129 189H618.985L616.561 181.008L614.137 189H610.969ZM637.936 189.24C636.704 189.24 635.592 188.96 634.6 188.4C633.608 187.824 632.824 187.048 632.248 186.072C631.672 185.08 631.384 183.976 631.384 182.76C631.384 181.528 631.672 180.424 632.248 179.448C632.824 178.472 633.608 177.696 634.6 177.12C635.592 176.544 636.704 176.256 637.936 176.256C638.928 176.256 639.872 176.448 640.768 176.832C641.68 177.216 642.464 177.768 643.12 178.488L641.104 180.624C640.64 180.112 640.152 179.736 639.64 179.496C639.144 179.24 638.6 179.112 638.008 179.112C637.368 179.112 636.792 179.272 636.28 179.592C635.784 179.912 635.384 180.344 635.08 180.888C634.792 181.432 634.648 182.056 634.648 182.76C634.648 183.432 634.792 184.048 635.08 184.608C635.384 185.152 635.8 185.584 636.328 185.904C636.856 186.208 637.44 186.36 638.08 186.36C639.184 186.36 640.176 185.896 641.056 184.968L643.024 187.032C642.384 187.72 641.616 188.264 640.72 188.664C639.824 189.048 638.896 189.24 637.936 189.24ZM648.718 189.216C647.822 189.216 647.03 189.056 646.342 188.736C645.654 188.4 645.118 187.944 644.734 187.368C644.35 186.792 644.158 186.128 644.158 185.376C644.158 184.176 644.606 183.248 645.502 182.592C646.414 181.92 647.662 181.584 649.246 181.584C650.334 181.584 651.358 181.752 652.318 182.088V181.176C652.318 179.72 651.438 178.992 649.678 178.992C649.15 178.992 648.582 179.08 647.974 179.256C647.366 179.416 646.662 179.672 645.862 180.024L644.662 177.6C645.654 177.152 646.598 176.816 647.494 176.592C648.406 176.368 649.318 176.256 650.23 176.256C651.91 176.256 653.214 176.664 654.142 177.48C655.086 178.28 655.557 179.416 655.557 180.888V189H652.318V188.112C651.806 188.496 651.254 188.776 650.662 188.952C650.07 189.128 649.422 189.216 648.718 189.216ZM647.278 185.304C647.278 185.784 647.486 186.168 647.902 186.456C648.318 186.728 648.87 186.864 649.558 186.864C650.662 186.864 651.582 186.592 652.318 186.048V184.224C651.518 183.904 650.638 183.744 649.678 183.744C648.926 183.744 648.334 183.888 647.902 184.176C647.486 184.448 647.278 184.824 647.278 185.304ZM658.046 189V176.496H661.334V177.528C662.278 176.68 663.446 176.256 664.838 176.256C665.814 176.256 666.67 176.472 667.406 176.904C668.158 177.32 668.742 177.904 669.158 178.656C669.574 179.392 669.782 180.256 669.782 181.248V189H666.494V181.728C666.494 180.912 666.262 180.272 665.798 179.808C665.334 179.328 664.702 179.088 663.902 179.088C663.342 179.088 662.846 179.2 662.414 179.424C661.982 179.632 661.622 179.936 661.334 180.336V189H658.046ZM677.317 189V172.2H680.797V189H677.317ZM688.468 189V172.2L691.756 171.48V177.528C692.7 176.68 693.868 176.256 695.26 176.256C696.236 176.256 697.092 176.472 697.828 176.904C698.58 177.32 699.164 177.904 699.58 178.656C699.996 179.392 700.204 180.256 700.204 181.248V189H696.916V181.728C696.916 180.912 696.684 180.272 696.22 179.808C695.756 179.328 695.124 179.088 694.324 179.088C693.764 179.088 693.268 179.2 692.836 179.424C692.404 179.632 692.044 179.936 691.756 180.336V189H688.468ZM708.814 189.24C707.566 189.24 706.43 188.952 705.406 188.376C704.398 187.8 703.598 187.024 703.006 186.048C702.414 185.072 702.118 183.976 702.118 182.76C702.118 181.544 702.398 180.448 702.958 179.472C703.534 178.496 704.31 177.72 705.286 177.144C706.262 176.568 707.35 176.28 708.55 176.28C709.75 176.28 710.814 176.576 711.742 177.168C712.67 177.76 713.398 178.56 713.926 179.568C714.47 180.576 714.742 181.72 714.742 183V183.864H705.478C705.622 184.36 705.854 184.808 706.174 185.208C706.51 185.608 706.918 185.92 707.398 186.144C707.894 186.368 708.422 186.48 708.982 186.48C709.542 186.48 710.054 186.392 710.518 186.216C710.998 186.04 711.406 185.792 711.742 185.472L713.902 187.44C713.134 188.064 712.342 188.52 711.526 188.808C710.726 189.096 709.822 189.24 708.814 189.24ZM705.43 181.512H711.502C711.39 181.016 711.182 180.584 710.878 180.216C710.59 179.832 710.238 179.536 709.822 179.328C709.422 179.104 708.974 178.992 708.478 178.992C707.726 178.992 707.078 179.224 706.534 179.688C705.99 180.136 705.622 180.744 705.43 181.512ZM716.757 189V172.2L720.045 171.648V189H716.757ZM722.616 193.896V176.496H725.856V177.528C726.88 176.728 728.064 176.328 729.408 176.328C730.592 176.328 731.664 176.616 732.624 177.192C733.584 177.768 734.344 178.544 734.904 179.52C735.48 180.48 735.768 181.56 735.768 182.76C735.768 183.96 735.48 185.048 734.904 186.024C734.328 186.984 733.552 187.752 732.576 188.328C731.6 188.888 730.512 189.168 729.312 189.168C728.688 189.168 728.088 189.088 727.512 188.928C726.936 188.752 726.4 188.504 725.904 188.184V193.896H722.616ZM728.88 186.384C729.568 186.384 730.184 186.224 730.728 185.904C731.288 185.584 731.728 185.152 732.048 184.608C732.368 184.064 732.528 183.448 732.528 182.76C732.528 182.072 732.368 181.456 732.048 180.912C731.728 180.368 731.288 179.936 730.728 179.616C730.184 179.296 729.568 179.136 728.88 179.136C728.272 179.136 727.712 179.24 727.2 179.448C726.704 179.64 726.272 179.936 725.904 180.336V185.208C726.256 185.576 726.688 185.864 727.2 186.072C727.728 186.28 728.288 186.384 728.88 186.384ZM743.809 194.16C743.521 194.16 743.241 194.144 742.969 194.112C742.713 194.096 742.497 194.072 742.321 194.04V191.208C742.641 191.272 743.025 191.304 743.473 191.304C744.673 191.304 745.505 190.736 745.969 189.6L746.161 189.12L741.289 176.496H744.913L748.033 185.016L751.561 176.496H755.113L749.353 190.008C748.921 191.016 748.449 191.824 747.937 192.432C747.425 193.04 746.833 193.48 746.161 193.752C745.505 194.024 744.721 194.16 743.809 194.16ZM762.181 189.24C760.933 189.24 759.805 188.952 758.797 188.376C757.789 187.8 756.989 187.024 756.397 186.048C755.805 185.072 755.509 183.976 755.509 182.76C755.509 181.544 755.805 180.448 756.397 179.472C756.989 178.48 757.789 177.696 758.797 177.12C759.805 176.544 760.933 176.256 762.181 176.256C763.429 176.256 764.557 176.544 765.565 177.12C766.573 177.696 767.373 178.48 767.965 179.472C768.557 180.448 768.853 181.544 768.853 182.76C768.853 183.976 768.557 185.072 767.965 186.048C767.373 187.024 766.573 187.8 765.565 188.376C764.557 188.952 763.429 189.24 762.181 189.24ZM762.181 186.384C762.837 186.384 763.421 186.224 763.933 185.904C764.461 185.584 764.877 185.152 765.181 184.608C765.501 184.048 765.661 183.432 765.661 182.76C765.661 182.072 765.501 181.456 765.181 180.912C764.877 180.368 764.461 179.936 763.933 179.616C763.421 179.28 762.837 179.112 762.181 179.112C761.541 179.112 760.957 179.28 760.429 179.616C759.901 179.936 759.485 180.368 759.181 180.912C758.877 181.456 758.725 182.072 758.725 182.76C758.725 183.432 758.877 184.048 759.181 184.608C759.485 185.152 759.901 185.584 760.429 185.904C760.957 186.224 761.541 186.384 762.181 186.384ZM775.722 189.24C774.762 189.24 773.906 189.032 773.154 188.616C772.418 188.184 771.834 187.592 771.402 186.84C770.986 186.088 770.778 185.224 770.778 184.248V176.496H774.066V183.768C774.066 184.568 774.298 185.208 774.762 185.688C775.242 186.168 775.874 186.408 776.658 186.408C777.778 186.408 778.642 185.992 779.25 185.16V176.496H782.538V189H779.25V187.992C778.29 188.824 777.114 189.24 775.722 189.24ZM795.857 189.192C794.465 189.192 793.409 188.88 792.689 188.256C791.985 187.616 791.633 186.688 791.633 185.472V179.232H789.065V176.496H791.633V173.304L794.921 172.56V176.496H798.497V179.232H794.921V184.8C794.921 185.376 795.049 185.792 795.305 186.048C795.561 186.288 796.009 186.408 796.649 186.408C796.969 186.408 797.257 186.392 797.513 186.36C797.785 186.312 798.081 186.232 798.401 186.12V188.832C798.065 188.944 797.641 189.032 797.129 189.096C796.633 189.16 796.209 189.192 795.857 189.192ZM806.056 189.24C804.808 189.24 803.68 188.952 802.672 188.376C801.664 187.8 800.864 187.024 800.272 186.048C799.68 185.072 799.384 183.976 799.384 182.76C799.384 181.544 799.68 180.448 800.272 179.472C800.864 178.48 801.664 177.696 802.672 177.12C803.68 176.544 804.808 176.256 806.056 176.256C807.304 176.256 808.432 176.544 809.44 177.12C810.448 177.696 811.248 178.48 811.84 179.472C812.432 180.448 812.728 181.544 812.728 182.76C812.728 183.976 812.432 185.072 811.84 186.048C811.248 187.024 810.448 187.8 809.44 188.376C808.432 188.952 807.304 189.24 806.056 189.24ZM806.056 186.384C806.712 186.384 807.296 186.224 807.808 185.904C808.336 185.584 808.752 185.152 809.056 184.608C809.376 184.048 809.536 183.432 809.536 182.76C809.536 182.072 809.376 181.456 809.056 180.912C808.752 180.368 808.336 179.936 807.808 179.616C807.296 179.28 806.712 179.112 806.056 179.112C805.416 179.112 804.832 179.28 804.304 179.616C803.776 179.936 803.36 180.368 803.056 180.912C802.752 181.456 802.6 182.072 802.6 182.76C802.6 183.432 802.752 184.048 803.056 184.608C803.36 185.152 803.776 185.584 804.304 185.904C804.832 186.224 805.416 186.384 806.056 186.384ZM820.533 189.168C819.349 189.168 818.269 188.888 817.293 188.328C816.333 187.752 815.573 186.976 815.013 186C814.453 185.024 814.173 183.936 814.173 182.736C814.173 181.536 814.453 180.456 815.013 179.496C815.589 178.52 816.365 177.752 817.341 177.192C818.317 176.616 819.413 176.328 820.629 176.328C821.893 176.328 823.029 176.656 824.037 177.312V172.2L827.325 171.648V189H824.085V187.968C823.061 188.768 821.877 189.168 820.533 189.168ZM821.061 186.36C821.669 186.36 822.221 186.264 822.717 186.072C823.229 185.864 823.669 185.56 824.037 185.16V180.288C823.669 179.92 823.229 179.632 822.717 179.424C822.205 179.216 821.653 179.112 821.061 179.112C820.373 179.112 819.749 179.272 819.189 179.592C818.645 179.896 818.213 180.328 817.893 180.888C817.573 181.432 817.413 182.048 817.413 182.736C817.413 183.424 817.573 184.04 817.893 184.584C818.213 185.128 818.645 185.56 819.189 185.88C819.749 186.2 820.373 186.36 821.061 186.36ZM833.874 189.216C832.978 189.216 832.186 189.056 831.498 188.736C830.81 188.4 830.274 187.944 829.89 187.368C829.506 186.792 829.314 186.128 829.314 185.376C829.314 184.176 829.762 183.248 830.658 182.592C831.57 181.92 832.818 181.584 834.402 181.584C835.49 181.584 836.514 181.752 837.474 182.088V181.176C837.474 179.72 836.594 178.992 834.834 178.992C834.306 178.992 833.738 179.08 833.13 179.256C832.522 179.416 831.818 179.672 831.018 180.024L829.818 177.6C830.81 177.152 831.754 176.816 832.65 176.592C833.562 176.368 834.474 176.256 835.386 176.256C837.066 176.256 838.37 176.664 839.298 177.48C840.242 178.28 840.714 179.416 840.714 180.888V189H837.474V188.112C836.962 188.496 836.41 188.776 835.818 188.952C835.226 189.128 834.578 189.216 833.874 189.216ZM832.434 185.304C832.434 185.784 832.642 186.168 833.058 186.456C833.474 186.728 834.026 186.864 834.714 186.864C835.818 186.864 836.738 186.592 837.474 186.048V184.224C836.674 183.904 835.794 183.744 834.834 183.744C834.082 183.744 833.49 183.888 833.058 184.176C832.642 184.448 832.434 184.824 832.434 185.304ZM844.192 194.16C843.904 194.16 843.624 194.144 843.352 194.112C843.096 194.096 842.88 194.072 842.704 194.04V191.208C843.024 191.272 843.408 191.304 843.856 191.304C845.056 191.304 845.888 190.736 846.352 189.6L846.544 189.12L841.672 176.496H845.296L848.416 185.016L851.944 176.496H855.496L849.736 190.008C849.304 191.016 848.832 191.824 848.32 192.432C847.808 193.04 847.216 193.48 846.544 193.752C845.888 194.024 845.104 194.16 844.192 194.16ZM860.101 183.888C860.069 183.152 860.101 182.528 860.197 182.016C860.293 181.504 860.485 181.048 860.773 180.648C861.061 180.232 861.453 179.84 861.949 179.472L863.197 178.584C863.693 178.216 864.045 177.88 864.253 177.576C864.477 177.256 864.589 176.928 864.589 176.592C864.589 176.224 864.477 175.904 864.253 175.632C864.029 175.344 863.725 175.12 863.341 174.96C862.957 174.784 862.517 174.696 862.021 174.696C861.301 174.696 860.637 174.88 860.029 175.248C859.421 175.616 858.957 176.112 858.637 176.736L855.997 175.632C856.349 174.864 856.829 174.208 857.437 173.664C858.045 173.12 858.749 172.696 859.549 172.392C860.365 172.088 861.229 171.936 862.141 171.936C863.229 171.936 864.197 172.136 865.045 172.536C865.893 172.92 866.565 173.448 867.061 174.12C867.557 174.792 867.805 175.56 867.805 176.424C867.805 177 867.709 177.52 867.517 177.984C867.341 178.432 867.037 178.872 866.605 179.304C866.173 179.736 865.581 180.208 864.829 180.72L864.181 181.176C863.669 181.512 863.309 181.888 863.101 182.304C862.909 182.72 862.829 183.248 862.861 183.888H860.101ZM861.493 189.24C860.965 189.24 860.509 189.048 860.125 188.664C859.741 188.28 859.549 187.824 859.549 187.296C859.549 186.752 859.741 186.288 860.125 185.904C860.509 185.52 860.965 185.328 861.493 185.328C862.021 185.328 862.477 185.52 862.861 185.904C863.245 186.288 863.437 186.752 863.437 187.296C863.437 187.824 863.245 188.28 862.861 188.664C862.477 189.048 862.021 189.24 861.493 189.24Z" fill="#151515"/>
</g>
</g>
<g filter="url(#filter1_d_769_67300)">
<g clip-path="url(#clip2_769_67300)">
<path d="M32 34C32 25.1634 39.1634 18 48 18H496C504.837 18 512 25.1634 512 34V355C512 363.837 504.837 371 496 371H48C39.1635 371 32 363.837 32 355V34Z" fill="#F2F2F2"/>
<path d="M32 34C32 25.1634 39.1634 18 48 18H496C504.837 18 512 25.1634 512 34V114H32V34Z" fill="#F2F2F2"/>
<path fill-rule="evenodd" clip-rule="evenodd" d="M82.25 55.875C82.6642 55.875 83 55.5392 83 55.125V53.25C83 52.8358 82.6642 52.5 82.25 52.5H62.75C62.3358 52.5 62 52.8358 62 53.25V55.125C62 55.5392 62.3358 55.875 62.75 55.875H82.25ZM82.25 63.375C82.6642 63.375 83 63.0392 83 62.625V60.75C83 60.3358 82.6642 60 82.25 60H62.75C62.3358 60 62 60.3358 62 60.75V62.625C62 63.0392 62.3358 63.375 62.75 63.375H82.25ZM82.25 70.875C82.6642 70.875 83 70.5392 83 70.125V68.25C83 67.8357 82.6642 67.5 82.25 67.5H62.75C62.3358 67.5 62 67.8357 62 68.25V70.125C62 70.5392 62.3358 70.875 62.75 70.875H82.25Z" fill="#707070"/>
<path fill-rule="evenodd" clip-rule="evenodd" d="M134.478 43H157V65.5217H154.587C143.481 65.5217 134.478 56.5188 134.478 45.413V43Z" fill="#0066CC"/>
<path fill-rule="evenodd" clip-rule="evenodd" d="M157 43.8043L135.283 80H152.317C154.903 80 157 77.9031 157 75.3164V43.8043Z" fill="url(#paint2_linear_769_67300)"/>
<path fill-rule="evenodd" clip-rule="evenodd" d="M156.196 43L120 64.7174V47.6836C120 45.0969 122.097 43 124.683 43H156.196Z" fill="url(#paint3_linear_769_67300)"/>
<mask id="path-28-inside-2_769_67300" fill="white">
<path d="M279 61.5C279 51.2827 287.283 43 297.5 43H405.5C415.717 43 424 51.2827 424 61.5V61.5C424 71.7173 415.717 80 405.5 80H297.5C287.283 80 279 71.7173 279 61.5V61.5Z"/>
</mask>
<path d="M297.5 44H405.5V42H297.5V44ZM405.5 79H297.5V81H405.5V79ZM297.5 79C287.835 79 280 71.165 280 61.5H278C278 72.2696 286.73 81 297.5 81V79ZM423 61.5C423 71.165 415.165 79 405.5 79V81C416.27 81 425 72.2696 425 61.5H423ZM405.5 44C415.165 44 423 51.835 423 61.5H425C425 50.7304 416.27 42 405.5 42V44ZM297.5 42C286.73 42 278 50.7304 278 61.5H280C280 51.835 287.835 44 297.5 44V42Z" fill="#0066CC" mask="url(#path-28-inside-2_769_67300)"/>
<path d="M308.74 66.154C308.04 66.154 307.391 66.0233 306.794 65.762C306.197 65.5007 305.669 65.1413 305.212 64.684C304.764 64.2173 304.414 63.6807 304.162 63.074C303.91 62.458 303.784 61.8 303.784 61.1C303.784 60.4 303.91 59.7467 304.162 59.14C304.414 58.524 304.764 57.9873 305.212 57.53C305.669 57.0633 306.197 56.6993 306.794 56.438C307.391 56.1767 308.04 56.046 308.74 56.046C309.487 56.046 310.191 56.1813 310.854 56.452C311.526 56.7227 312.095 57.124 312.562 57.656L311.834 58.384C311.47 57.9453 311.013 57.6093 310.462 57.376C309.911 57.1427 309.337 57.026 308.74 57.026C308.189 57.026 307.681 57.1333 307.214 57.348C306.747 57.5533 306.337 57.8427 305.982 58.216C305.637 58.58 305.366 59.0093 305.17 59.504C304.974 59.9987 304.876 60.5307 304.876 61.1C304.876 61.6693 304.974 62.2013 305.17 62.696C305.366 63.1907 305.637 63.6247 305.982 63.998C306.337 64.362 306.747 64.6513 307.214 64.866C307.681 65.0713 308.189 65.174 308.74 65.174C309.393 65.174 309.977 65.0293 310.49 64.74C311.013 64.4507 311.433 64.054 311.75 63.55C312.077 63.0367 312.268 62.4627 312.324 61.828H309.02V60.876H313.416V61.31C313.416 61.9913 313.299 62.626 313.066 63.214C312.833 63.7927 312.501 64.306 312.072 64.754C311.652 65.1927 311.157 65.538 310.588 65.79C310.019 66.0327 309.403 66.154 308.74 66.154ZM315.234 66V59.168H316.256V60.568C316.433 60.092 316.685 59.7233 317.012 59.462C317.348 59.1913 317.73 59.056 318.16 59.056C318.281 59.056 318.393 59.0653 318.496 59.084C318.598 59.0933 318.701 59.1167 318.804 59.154V60.078C318.692 60.0407 318.57 60.0127 318.44 59.994C318.318 59.966 318.202 59.952 318.09 59.952C317.67 59.952 317.301 60.0733 316.984 60.316C316.676 60.5587 316.433 60.8993 316.256 61.338V66H315.234ZM321.982 66.126C321.497 66.126 321.068 66.0373 320.694 65.86C320.321 65.6827 320.027 65.44 319.812 65.132C319.607 64.8147 319.504 64.4507 319.504 64.04C319.504 63.6293 319.612 63.2747 319.826 62.976C320.041 62.668 320.34 62.43 320.722 62.262C321.105 62.094 321.553 62.01 322.066 62.01C322.458 62.01 322.827 62.052 323.172 62.136C323.527 62.22 323.854 62.3553 324.152 62.542V61.604C324.152 61.044 324.003 60.624 323.704 60.344C323.406 60.0547 322.967 59.91 322.388 59.91C322.071 59.91 321.744 59.9567 321.408 60.05C321.082 60.1433 320.718 60.2927 320.316 60.498L319.938 59.714C320.853 59.2753 321.712 59.056 322.514 59.056C323.364 59.056 324.017 59.266 324.474 59.686C324.932 60.0967 325.16 60.6893 325.16 61.464V66H324.152V65.202C323.854 65.51 323.522 65.7433 323.158 65.902C322.794 66.0513 322.402 66.126 321.982 66.126ZM320.484 64.012C320.484 64.4133 320.638 64.7353 320.946 64.978C321.264 65.2207 321.679 65.342 322.192 65.342C322.575 65.342 322.925 65.2767 323.242 65.146C323.569 65.0153 323.872 64.8193 324.152 64.558V63.242C323.863 63.074 323.564 62.9527 323.256 62.878C322.948 62.794 322.603 62.752 322.22 62.752C321.698 62.752 321.278 62.8687 320.96 63.102C320.643 63.326 320.484 63.6293 320.484 64.012ZM327.238 66V59.168H328.26V60.274C328.521 59.8633 328.834 59.56 329.198 59.364C329.562 59.1587 329.972 59.056 330.43 59.056C330.924 59.056 331.354 59.1633 331.718 59.378C332.091 59.5833 332.38 59.8773 332.586 60.26C332.8 60.6333 332.908 61.072 332.908 61.576V66H331.886V61.87C331.886 61.2633 331.718 60.7873 331.382 60.442C331.055 60.0873 330.612 59.91 330.052 59.91C329.678 59.91 329.338 59.9987 329.03 60.176C328.722 60.3533 328.465 60.6147 328.26 60.96V66H327.238ZM334.948 66V59.168H335.97V66H334.948ZM335.466 57.474C335.261 57.474 335.083 57.404 334.934 57.264C334.794 57.1147 334.724 56.942 334.724 56.746C334.724 56.55 334.794 56.382 334.934 56.242C335.083 56.0927 335.261 56.018 335.466 56.018C335.671 56.018 335.844 56.0927 335.984 56.242C336.133 56.382 336.208 56.55 336.208 56.746C336.208 56.942 336.133 57.1147 335.984 57.264C335.844 57.404 335.671 57.474 335.466 57.474ZM340.67 66.14C340.082 66.14 339.634 66 339.326 65.72C339.027 65.4307 338.878 65.0153 338.878 64.474V60.008H337.464V59.168H338.878V57.292L339.9 57.054V59.168H341.86V60.008H339.9V64.208C339.9 64.572 339.974 64.8333 340.124 64.992C340.282 65.1507 340.539 65.23 340.894 65.23C341.071 65.23 341.23 65.216 341.37 65.188C341.51 65.16 341.673 65.1133 341.86 65.048V65.958C341.673 66.0233 341.477 66.07 341.272 66.098C341.066 66.126 340.866 66.14 340.67 66.14ZM346.3 66.14C345.665 66.14 345.091 65.986 344.578 65.678C344.065 65.3607 343.659 64.936 343.36 64.404C343.061 63.8627 342.912 63.256 342.912 62.584C342.912 61.912 343.052 61.31 343.332 60.778C343.621 60.246 344.009 59.826 344.494 59.518C344.979 59.21 345.521 59.056 346.118 59.056C346.725 59.056 347.261 59.21 347.728 59.518C348.204 59.8167 348.577 60.2273 348.848 60.75C349.128 61.2633 349.268 61.8467 349.268 62.5V62.808H343.906C343.943 63.2747 344.069 63.6947 344.284 64.068C344.508 64.432 344.797 64.7213 345.152 64.936C345.516 65.1413 345.913 65.244 346.342 65.244C346.697 65.244 347.037 65.1833 347.364 65.062C347.7 64.9313 347.985 64.7587 348.218 64.544L348.862 65.23C348.47 65.538 348.064 65.7667 347.644 65.916C347.224 66.0653 346.776 66.14 346.3 66.14ZM343.934 62.08H348.26C348.213 61.6693 348.087 61.3053 347.882 60.988C347.686 60.6613 347.434 60.4047 347.126 60.218C346.827 60.0313 346.491 59.938 346.118 59.938C345.745 59.938 345.404 60.0313 345.096 60.218C344.788 60.3953 344.531 60.6473 344.326 60.974C344.13 61.2913 343.999 61.66 343.934 62.08ZM354.672 66L359.544 57.082H353.664V56.2H360.636V56.984L355.82 66H354.672ZM362.283 66V56.2H366.245C366.842 56.2 367.36 56.3027 367.799 56.508C368.247 56.7133 368.592 57.0027 368.835 57.376C369.078 57.7493 369.199 58.188 369.199 58.692C369.199 59.2333 369.04 59.7 368.723 60.092C368.415 60.4747 367.995 60.7453 367.463 60.904C368.116 61.0533 368.63 61.338 369.003 61.758C369.386 62.1687 369.577 62.6773 369.577 63.284C369.577 63.8253 369.446 64.3013 369.185 64.712C368.924 65.1227 368.555 65.44 368.079 65.664C367.603 65.888 367.043 66 366.399 66H362.283ZM363.361 60.484H366.161C366.758 60.484 367.234 60.3347 367.589 60.036C367.944 59.728 368.121 59.3173 368.121 58.804C368.121 58.2907 367.944 57.8847 367.589 57.586C367.234 57.278 366.758 57.124 366.161 57.124H363.361V60.484ZM363.361 65.076H366.287C366.95 65.076 367.482 64.908 367.883 64.572C368.284 64.2267 368.485 63.774 368.485 63.214C368.485 62.654 368.284 62.206 367.883 61.87C367.491 61.534 366.959 61.366 366.287 61.366H363.361V65.076Z" fill="#0066CC"/>
<path fill-rule="evenodd" clip-rule="evenodd" d="M390.389 64.1714L393.921 60.6102C394.267 60.2615 394.023 59.6666 393.534 59.6666H386.466C385.977 59.6666 385.733 60.2615 386.079 60.6102L389.611 64.1714C389.826 64.3872 390.175 64.3872 390.389 64.1714Z" fill="#0066CC"/>
<path fill-rule="evenodd" clip-rule="evenodd" d="M466.968 61C466.968 59.0653 465.41 57.5 463.484 57.5C461.558 57.5 460 59.0653 460 61C460 62.9347 461.558 64.5 463.484 64.5C465.41 64.5 466.968 62.9347 466.968 61ZM475.484 61C475.484 59.0653 473.926 57.5 472 57.5C470.074 57.5 468.516 59.0653 468.516 61C468.516 62.9347 470.074 64.5 472 64.5C473.926 64.5 475.484 62.9347 475.484 61ZM484 61C484 59.0653 482.442 57.5 480.516 57.5C478.59 57.5 477.032 59.0653 477.032 61C477.032 62.9347 478.59 64.5 480.516 64.5C482.442 64.5 484 62.9347 484 61Z" fill="#707070"/>
<g opacity="0.5">
<rect x="32" y="113" width="480" height="1" rx="0.5" fill="#C7C7C7"/>
</g>
<path d="M57.512 158V141.2H60.992V147.968H68.72V141.2H72.2V158H68.72V151.112H60.992V158H57.512ZM75.0382 158V145.496H78.3262V158H75.0382ZM76.6702 144.008C76.1582 144.008 75.7182 143.824 75.3502 143.456C74.9822 143.088 74.7982 142.648 74.7982 142.136C74.7982 141.608 74.9822 141.168 75.3502 140.816C75.7182 140.448 76.1582 140.264 76.6702 140.264C77.1982 140.264 77.6382 140.448 77.9902 140.816C78.3582 141.168 78.5422 141.608 78.5422 142.136C78.5422 142.648 78.3582 143.088 77.9902 143.456C77.6382 143.824 77.1982 144.008 76.6702 144.008ZM79.6736 161.624L81.3056 155.312H84.7136L82.1456 161.624H79.6736ZM100.222 158.24C98.9737 158.24 97.8057 158.024 96.7177 157.592C95.6297 157.144 94.6777 156.528 93.8617 155.744C93.0617 154.96 92.4297 154.048 91.9657 153.008C91.5177 151.952 91.2937 150.816 91.2937 149.6C91.2937 148.368 91.5177 147.232 91.9657 146.192C92.4297 145.136 93.0697 144.216 93.8857 143.432C94.7017 142.648 95.6457 142.04 96.7177 141.608C97.8057 141.16 98.9737 140.936 100.222 140.936C101.15 140.936 102.046 141.064 102.91 141.32C103.774 141.576 104.574 141.936 105.31 142.4C106.062 142.864 106.702 143.424 107.23 144.08L104.878 146.408C104.27 145.656 103.566 145.088 102.766 144.704C101.982 144.32 101.134 144.128 100.222 144.128C99.2137 144.128 98.3017 144.368 97.4857 144.848C96.6697 145.328 96.0297 145.984 95.5657 146.816C95.1017 147.632 94.8697 148.56 94.8697 149.6C94.8697 150.624 95.1097 151.552 95.5897 152.384C96.0697 153.2 96.7257 153.848 97.5577 154.328C98.3897 154.792 99.3177 155.024 100.342 155.024C101.222 155.024 102.046 154.84 102.814 154.472C103.582 154.104 104.262 153.576 104.854 152.888L107.134 155.144C106.606 155.784 105.974 156.336 105.238 156.8C104.502 157.264 103.702 157.624 102.838 157.88C101.99 158.12 101.118 158.24 100.222 158.24ZM108.952 158V141.2L112.24 140.48V146.528C113.184 145.68 114.352 145.256 115.744 145.256C116.72 145.256 117.576 145.472 118.312 145.904C119.064 146.32 119.648 146.904 120.064 147.656C120.48 148.392 120.688 149.256 120.688 150.248V158H117.4V150.728C117.4 149.912 117.168 149.272 116.704 148.808C116.24 148.328 115.608 148.088 114.808 148.088C114.248 148.088 113.752 148.2 113.32 148.424C112.888 148.632 112.528 148.936 112.24 149.336V158H108.952ZM127.163 158.216C126.267 158.216 125.475 158.056 124.787 157.736C124.099 157.4 123.563 156.944 123.179 156.368C122.795 155.792 122.603 155.128 122.603 154.376C122.603 153.176 123.051 152.248 123.947 151.592C124.859 150.92 126.107 150.584 127.691 150.584C128.779 150.584 129.803 150.752 130.763 151.088V150.176C130.763 148.72 129.883 147.992 128.123 147.992C127.595 147.992 127.027 148.08 126.419 148.256C125.811 148.416 125.107 148.672 124.307 149.024L123.107 146.6C124.099 146.152 125.043 145.816 125.939 145.592C126.851 145.368 127.763 145.256 128.675 145.256C130.355 145.256 131.659 145.664 132.587 146.48C133.531 147.28 134.003 148.416 134.003 149.888V158H130.763V157.112C130.251 157.496 129.699 157.776 129.107 157.952C128.515 158.128 127.867 158.216 127.163 158.216ZM125.723 154.304C125.723 154.784 125.931 155.168 126.347 155.456C126.763 155.728 127.315 155.864 128.003 155.864C129.107 155.864 130.027 155.592 130.763 155.048V153.224C129.963 152.904 129.083 152.744 128.123 152.744C127.371 152.744 126.779 152.888 126.347 153.176C125.931 153.448 125.723 153.824 125.723 154.304ZM142.068 158.192C140.676 158.192 139.62 157.88 138.9 157.256C138.196 156.616 137.844 155.688 137.844 154.472V148.232H135.276V145.496H137.844V142.304L141.132 141.56V145.496H144.708V148.232H141.132V153.8C141.132 154.376 141.26 154.792 141.516 155.048C141.772 155.288 142.22 155.408 142.86 155.408C143.18 155.408 143.468 155.392 143.724 155.36C143.996 155.312 144.292 155.232 144.612 155.12V157.832C144.276 157.944 143.852 158.032 143.34 158.096C142.844 158.16 142.42 158.192 142.068 158.192ZM146.528 158V141.2H154.424C155.56 141.2 156.552 141.392 157.4 141.776C158.248 142.16 158.912 142.704 159.392 143.408C159.872 144.096 160.112 144.896 160.112 145.808C160.112 146.544 159.92 147.224 159.536 147.848C159.168 148.456 158.664 148.952 158.024 149.336C158.84 149.72 159.488 150.24 159.968 150.896C160.448 151.552 160.688 152.296 160.688 153.128C160.688 154.088 160.44 154.936 159.944 155.672C159.464 156.408 158.776 156.984 157.88 157.4C157 157.8 155.976 158 154.808 158H146.528ZM150.008 148.064H154.208C154.96 148.064 155.552 147.888 155.984 147.536C156.432 147.168 156.656 146.68 156.656 146.072C156.656 145.464 156.432 144.984 155.984 144.632C155.552 144.264 154.96 144.08 154.208 144.08H150.008V148.064ZM150.008 155.12H154.544C155.344 155.12 155.984 154.928 156.464 154.544C156.944 154.144 157.184 153.616 157.184 152.96C157.184 152.288 156.944 151.76 156.464 151.376C155.984 150.976 155.344 150.776 154.544 150.776H150.008V155.12ZM168.767 158.24C167.519 158.24 166.391 157.952 165.383 157.376C164.375 156.8 163.575 156.024 162.983 155.048C162.391 154.072 162.095 152.976 162.095 151.76C162.095 150.544 162.391 149.448 162.983 148.472C163.575 147.48 164.375 146.696 165.383 146.12C166.391 145.544 167.519 145.256 168.767 145.256C170.015 145.256 171.143 145.544 172.151 146.12C173.159 146.696 173.959 147.48 174.551 148.472C175.143 149.448 175.439 150.544 175.439 151.76C175.439 152.976 175.143 154.072 174.551 155.048C173.959 156.024 173.159 156.8 172.151 157.376C171.143 157.952 170.015 158.24 168.767 158.24ZM168.767 155.384C169.423 155.384 170.007 155.224 170.519 154.904C171.047 154.584 171.463 154.152 171.767 153.608C172.087 153.048 172.247 152.432 172.247 151.76C172.247 151.072 172.087 150.456 171.767 149.912C171.463 149.368 171.047 148.936 170.519 148.616C170.007 148.28 169.423 148.112 168.767 148.112C168.127 148.112 167.543 148.28 167.015 148.616C166.487 148.936 166.071 149.368 165.767 149.912C165.463 150.456 165.311 151.072 165.311 151.76C165.311 152.432 165.463 153.048 165.767 153.608C166.071 154.152 166.487 154.584 167.015 154.904C167.543 155.224 168.127 155.384 168.767 155.384ZM182.896 158.192C181.504 158.192 180.448 157.88 179.728 157.256C179.024 156.616 178.672 155.688 178.672 154.472V148.232H176.104V145.496H178.672V142.304L181.96 141.56V145.496H185.536V148.232H181.96V153.8C181.96 154.376 182.088 154.792 182.344 155.048C182.6 155.288 183.048 155.408 183.688 155.408C184.008 155.408 184.296 155.392 184.552 155.36C184.824 155.312 185.12 155.232 185.44 155.12V157.832C185.104 157.944 184.68 158.032 184.168 158.096C183.672 158.16 183.248 158.192 182.896 158.192ZM199.36 158.24C197.84 158.24 196.52 157.936 195.4 157.328C194.296 156.72 193.44 155.856 192.832 154.736C192.224 153.6 191.92 152.272 191.92 150.752V141.2H195.4V150.752C195.4 151.616 195.56 152.376 195.88 153.032C196.216 153.672 196.68 154.168 197.272 154.52C197.88 154.856 198.584 155.024 199.384 155.024C200.184 155.024 200.88 154.856 201.472 154.52C202.064 154.168 202.52 153.672 202.84 153.032C203.176 152.376 203.344 151.616 203.344 150.752V141.2H206.8V150.752C206.8 152.256 206.496 153.576 205.888 154.712C205.28 155.832 204.416 156.704 203.296 157.328C202.192 157.936 200.88 158.24 199.36 158.24ZM214.156 158.24C213.004 158.24 211.94 158.096 210.964 157.808C209.988 157.504 209.14 157.072 208.42 156.512L210.052 154.328C210.772 154.808 211.46 155.168 212.116 155.408C212.788 155.648 213.452 155.768 214.108 155.768C214.844 155.768 215.428 155.648 215.86 155.408C216.308 155.152 216.532 154.824 216.532 154.424C216.532 153.8 216.012 153.408 214.972 153.248L212.572 152.888C211.324 152.696 210.38 152.296 209.74 151.688C209.1 151.064 208.78 150.248 208.78 149.24C208.78 148.424 208.988 147.728 209.404 147.152C209.836 146.56 210.436 146.104 211.204 145.784C211.988 145.448 212.916 145.28 213.988 145.28C214.9 145.28 215.788 145.408 216.652 145.664C217.532 145.92 218.356 146.312 219.124 146.84L217.54 148.976C216.212 148.16 214.924 147.752 213.676 147.752C213.084 147.752 212.604 147.864 212.236 148.088C211.884 148.312 211.708 148.608 211.708 148.976C211.708 149.312 211.836 149.576 212.092 149.768C212.348 149.96 212.788 150.096 213.412 150.176L215.788 150.536C217.036 150.712 217.988 151.112 218.644 151.736C219.3 152.344 219.628 153.136 219.628 154.112C219.628 154.912 219.388 155.624 218.908 156.248C218.428 156.856 217.78 157.344 216.964 157.712C216.148 158.064 215.212 158.24 214.156 158.24ZM227.502 158.24C226.254 158.24 225.118 157.952 224.094 157.376C223.086 156.8 222.286 156.024 221.694 155.048C221.102 154.072 220.806 152.976 220.806 151.76C220.806 150.544 221.086 149.448 221.646 148.472C222.222 147.496 222.998 146.72 223.974 146.144C224.95 145.568 226.038 145.28 227.238 145.28C228.438 145.28 229.502 145.576 230.43 146.168C231.358 146.76 232.086 147.56 232.614 148.568C233.158 149.576 233.43 150.72 233.43 152V152.864H224.166C224.31 153.36 224.542 153.808 224.862 154.208C225.198 154.608 225.606 154.92 226.086 155.144C226.582 155.368 227.11 155.48 227.67 155.48C228.23 155.48 228.742 155.392 229.206 155.216C229.686 155.04 230.094 154.792 230.43 154.472L232.59 156.44C231.822 157.064 231.03 157.52 230.214 157.808C229.414 158.096 228.51 158.24 227.502 158.24ZM224.118 150.512H230.19C230.078 150.016 229.87 149.584 229.566 149.216C229.278 148.832 228.926 148.536 228.51 148.328C228.11 148.104 227.662 147.992 227.166 147.992C226.414 147.992 225.766 148.224 225.222 148.688C224.678 149.136 224.31 149.744 224.118 150.512ZM235.444 158V145.496H238.732V146.888C239.132 146.344 239.612 145.928 240.172 145.64C240.732 145.352 241.364 145.208 242.068 145.208C242.676 145.224 243.132 145.32 243.436 145.496V148.376C242.924 148.152 242.364 148.04 241.756 148.04C241.116 148.04 240.532 148.2 240.004 148.52C239.476 148.84 239.052 149.296 238.732 149.888V158H235.444ZM245.577 152.96L245.169 141.08H248.505L248.097 152.96H245.577ZM246.849 158.24C246.305 158.24 245.841 158.048 245.457 157.664C245.073 157.28 244.881 156.824 244.881 156.296C244.881 155.752 245.073 155.288 245.457 154.904C245.841 154.52 246.297 154.328 246.825 154.328C247.369 154.328 247.833 154.52 248.217 154.904C248.601 155.288 248.793 155.744 248.793 156.272C248.793 156.816 248.601 157.28 248.217 157.664C247.833 158.048 247.377 158.24 246.849 158.24Z" fill="#0066CC"/>
<path d="M57.512 189V172.2H60.992V178.968H68.72V172.2H72.2V189H68.72V182.112H60.992V189H57.512ZM81.1342 189.24C79.8862 189.24 78.7582 188.952 77.7502 188.376C76.7422 187.8 75.9422 187.024 75.3502 186.048C74.7582 185.072 74.4622 183.976 74.4622 182.76C74.4622 181.544 74.7582 180.448 75.3502 179.472C75.9422 178.48 76.7422 177.696 77.7502 177.12C78.7582 176.544 79.8862 176.256 81.1342 176.256C82.3822 176.256 83.5102 176.544 84.5182 177.12C85.5262 177.696 86.3262 178.48 86.9182 179.472C87.5102 180.448 87.8062 181.544 87.8062 182.76C87.8062 183.976 87.5102 185.072 86.9182 186.048C86.3262 187.024 85.5262 187.8 84.5182 188.376C83.5102 188.952 82.3822 189.24 81.1342 189.24ZM81.1342 186.384C81.7902 186.384 82.3742 186.224 82.8862 185.904C83.4142 185.584 83.8302 185.152 84.1342 184.608C84.4542 184.048 84.6142 183.432 84.6142 182.76C84.6142 182.072 84.4542 181.456 84.1342 180.912C83.8302 180.368 83.4142 179.936 82.8862 179.616C82.3742 179.28 81.7902 179.112 81.1342 179.112C80.4942 179.112 79.9102 179.28 79.3822 179.616C78.8542 179.936 78.4382 180.368 78.1342 180.912C77.8302 181.456 77.6782 182.072 77.6782 182.76C77.6782 183.432 77.8302 184.048 78.1342 184.608C78.4382 185.152 78.8542 185.584 79.3822 185.904C79.9102 186.224 80.4942 186.384 81.1342 186.384ZM91.9689 189L88.5369 176.496H91.6569L93.7209 184.56L96.2169 176.496H98.9769L101.449 184.584L103.513 176.496H106.585L103.129 189H99.9849L97.5609 181.008L95.1369 189H91.9689ZM118.936 189.24C117.704 189.24 116.592 188.96 115.6 188.4C114.608 187.824 113.824 187.048 113.248 186.072C112.672 185.08 112.384 183.976 112.384 182.76C112.384 181.528 112.672 180.424 113.248 179.448C113.824 178.472 114.608 177.696 115.6 177.12C116.592 176.544 117.704 176.256 118.936 176.256C119.928 176.256 120.872 176.448 121.768 176.832C122.68 177.216 123.464 177.768 124.12 178.488L122.104 180.624C121.64 180.112 121.152 179.736 120.64 179.496C120.144 179.24 119.6 179.112 119.008 179.112C118.368 179.112 117.792 179.272 117.28 179.592C116.784 179.912 116.384 180.344 116.08 180.888C115.792 181.432 115.648 182.056 115.648 182.76C115.648 183.432 115.792 184.048 116.08 184.608C116.384 185.152 116.8 185.584 117.328 185.904C117.856 186.208 118.44 186.36 119.08 186.36C120.184 186.36 121.176 185.896 122.056 184.968L124.024 187.032C123.384 187.72 122.616 188.264 121.72 188.664C120.824 189.048 119.896 189.24 118.936 189.24ZM129.718 189.216C128.822 189.216 128.03 189.056 127.342 188.736C126.654 188.4 126.118 187.944 125.734 187.368C125.35 186.792 125.158 186.128 125.158 185.376C125.158 184.176 125.606 183.248 126.502 182.592C127.414 181.92 128.662 181.584 130.246 181.584C131.334 181.584 132.358 181.752 133.318 182.088V181.176C133.318 179.72 132.438 178.992 130.678 178.992C130.15 178.992 129.582 179.08 128.974 179.256C128.366 179.416 127.662 179.672 126.862 180.024L125.662 177.6C126.654 177.152 127.598 176.816 128.494 176.592C129.406 176.368 130.318 176.256 131.23 176.256C132.91 176.256 134.214 176.664 135.142 177.48C136.086 178.28 136.557 179.416 136.557 180.888V189H133.318V188.112C132.806 188.496 132.254 188.776 131.662 188.952C131.07 189.128 130.422 189.216 129.718 189.216ZM128.278 185.304C128.278 185.784 128.486 186.168 128.902 186.456C129.318 186.728 129.87 186.864 130.558 186.864C131.662 186.864 132.582 186.592 133.318 186.048V184.224C132.518 183.904 131.638 183.744 130.678 183.744C129.926 183.744 129.334 183.888 128.902 184.176C128.486 184.448 128.278 184.824 128.278 185.304ZM139.046 189V176.496H142.334V177.528C143.278 176.68 144.446 176.256 145.838 176.256C146.814 176.256 147.67 176.472 148.406 176.904C149.158 177.32 149.742 177.904 150.158 178.656C150.574 179.392 150.782 180.256 150.782 181.248V189H147.494V181.728C147.494 180.912 147.262 180.272 146.798 179.808C146.334 179.328 145.702 179.088 144.902 179.088C144.342 179.088 143.846 179.2 143.414 179.424C142.982 179.632 142.622 179.936 142.334 180.336V189H139.046ZM158.317 189V172.2H161.797V189H158.317ZM169.468 189V172.2L172.756 171.48V177.528C173.7 176.68 174.868 176.256 176.26 176.256C177.236 176.256 178.092 176.472 178.828 176.904C179.58 177.32 180.164 177.904 180.58 178.656C180.996 179.392 181.204 180.256 181.204 181.248V189H177.916V181.728C177.916 180.912 177.684 180.272 177.22 179.808C176.756 179.328 176.124 179.088 175.324 179.088C174.764 179.088 174.268 179.2 173.836 179.424C173.404 179.632 173.044 179.936 172.756 180.336V189H169.468ZM189.814 189.24C188.566 189.24 187.43 188.952 186.406 188.376C185.398 187.8 184.598 187.024 184.006 186.048C183.414 185.072 183.118 183.976 183.118 182.76C183.118 181.544 183.398 180.448 183.958 179.472C184.534 178.496 185.31 177.72 186.286 177.144C187.262 176.568 188.35 176.28 189.55 176.28C190.75 176.28 191.814 176.576 192.742 177.168C193.67 177.76 194.398 178.56 194.926 179.568C195.47 180.576 195.742 181.72 195.742 183V183.864H186.478C186.622 184.36 186.854 184.808 187.174 185.208C187.51 185.608 187.918 185.92 188.398 186.144C188.894 186.368 189.422 186.48 189.982 186.48C190.542 186.48 191.054 186.392 191.518 186.216C191.998 186.04 192.406 185.792 192.742 185.472L194.902 187.44C194.134 188.064 193.342 188.52 192.526 188.808C191.726 189.096 190.822 189.24 189.814 189.24ZM186.43 181.512H192.502C192.39 181.016 192.182 180.584 191.878 180.216C191.59 179.832 191.238 179.536 190.822 179.328C190.422 179.104 189.974 178.992 189.478 178.992C188.726 178.992 188.078 179.224 187.534 179.688C186.99 180.136 186.622 180.744 186.43 181.512ZM197.757 189V172.2L201.045 171.648V189H197.757ZM203.616 193.896V176.496H206.856V177.528C207.88 176.728 209.064 176.328 210.408 176.328C211.592 176.328 212.664 176.616 213.624 177.192C214.584 177.768 215.344 178.544 215.904 179.52C216.48 180.48 216.768 181.56 216.768 182.76C216.768 183.96 216.48 185.048 215.904 186.024C215.328 186.984 214.552 187.752 213.576 188.328C212.6 188.888 211.512 189.168 210.312 189.168C209.688 189.168 209.088 189.088 208.512 188.928C207.936 188.752 207.4 188.504 206.904 188.184V193.896H203.616ZM209.88 186.384C210.568 186.384 211.184 186.224 211.728 185.904C212.288 185.584 212.728 185.152 213.048 184.608C213.368 184.064 213.528 183.448 213.528 182.76C213.528 182.072 213.368 181.456 213.048 180.912C212.728 180.368 212.288 179.936 211.728 179.616C211.184 179.296 210.568 179.136 209.88 179.136C209.272 179.136 208.712 179.24 208.2 179.448C207.704 179.64 207.272 179.936 206.904 180.336V185.208C207.256 185.576 207.688 185.864 208.2 186.072C208.728 186.28 209.288 186.384 209.88 186.384ZM224.809 194.16C224.521 194.16 224.241 194.144 223.969 194.112C223.713 194.096 223.497 194.072 223.321 194.04V191.208C223.641 191.272 224.025 191.304 224.473 191.304C225.673 191.304 226.505 190.736 226.969 189.6L227.161 189.12L222.289 176.496H225.913L229.033 185.016L232.561 176.496H236.113L230.353 190.008C229.921 191.016 229.449 191.824 228.937 192.432C228.425 193.04 227.833 193.48 227.161 193.752C226.505 194.024 225.721 194.16 224.809 194.16ZM243.181 189.24C241.933 189.24 240.805 188.952 239.797 188.376C238.789 187.8 237.989 187.024 237.397 186.048C236.805 185.072 236.509 183.976 236.509 182.76C236.509 181.544 236.805 180.448 237.397 179.472C237.989 178.48 238.789 177.696 239.797 177.12C240.805 176.544 241.933 176.256 243.181 176.256C244.429 176.256 245.557 176.544 246.565 177.12C247.573 177.696 248.373 178.48 248.965 179.472C249.557 180.448 249.853 181.544 249.853 182.76C249.853 183.976 249.557 185.072 248.965 186.048C248.373 187.024 247.573 187.8 246.565 188.376C245.557 188.952 244.429 189.24 243.181 189.24ZM243.181 186.384C243.837 186.384 244.421 186.224 244.933 185.904C245.461 185.584 245.877 185.152 246.181 184.608C246.501 184.048 246.661 183.432 246.661 182.76C246.661 182.072 246.501 181.456 246.181 180.912C245.877 180.368 245.461 179.936 244.933 179.616C244.421 179.28 243.837 179.112 243.181 179.112C242.541 179.112 241.957 179.28 241.429 179.616C240.901 179.936 240.485 180.368 240.181 180.912C239.877 181.456 239.725 182.072 239.725 182.76C239.725 183.432 239.877 184.048 240.181 184.608C240.485 185.152 240.901 185.584 241.429 185.904C241.957 186.224 242.541 186.384 243.181 186.384ZM256.722 189.24C255.762 189.24 254.906 189.032 254.154 188.616C253.418 188.184 252.834 187.592 252.402 186.84C251.986 186.088 251.778 185.224 251.778 184.248V176.496H255.066V183.768C255.066 184.568 255.298 185.208 255.762 185.688C256.242 186.168 256.874 186.408 257.658 186.408C258.778 186.408 259.642 185.992 260.25 185.16V176.496H263.538V189H260.25V187.992C259.29 188.824 258.114 189.24 256.722 189.24ZM276.857 189.192C275.465 189.192 274.409 188.88 273.689 188.256C272.985 187.616 272.633 186.688 272.633 185.472V179.232H270.065V176.496H272.633V173.304L275.921 172.56V176.496H279.497V179.232H275.921V184.8C275.921 185.376 276.049 185.792 276.305 186.048C276.561 186.288 277.009 186.408 277.649 186.408C277.969 186.408 278.257 186.392 278.513 186.36C278.785 186.312 279.081 186.232 279.401 186.12V188.832C279.065 188.944 278.641 189.032 278.129 189.096C277.633 189.16 277.209 189.192 276.857 189.192ZM287.056 189.24C285.808 189.24 284.68 188.952 283.672 188.376C282.664 187.8 281.864 187.024 281.272 186.048C280.68 185.072 280.384 183.976 280.384 182.76C280.384 181.544 280.68 180.448 281.272 179.472C281.864 178.48 282.664 177.696 283.672 177.12C284.68 176.544 285.808 176.256 287.056 176.256C288.304 176.256 289.432 176.544 290.44 177.12C291.448 177.696 292.248 178.48 292.84 179.472C293.432 180.448 293.728 181.544 293.728 182.76C293.728 183.976 293.432 185.072 292.84 186.048C292.248 187.024 291.448 187.8 290.44 188.376C289.432 188.952 288.304 189.24 287.056 189.24ZM287.056 186.384C287.712 186.384 288.296 186.224 288.808 185.904C289.336 185.584 289.752 185.152 290.056 184.608C290.376 184.048 290.536 183.432 290.536 182.76C290.536 182.072 290.376 181.456 290.056 180.912C289.752 180.368 289.336 179.936 288.808 179.616C288.296 179.28 287.712 179.112 287.056 179.112C286.416 179.112 285.832 179.28 285.304 179.616C284.776 179.936 284.36 180.368 284.056 180.912C283.752 181.456 283.6 182.072 283.6 182.76C283.6 183.432 283.752 184.048 284.056 184.608C284.36 185.152 284.776 185.584 285.304 185.904C285.832 186.224 286.416 186.384 287.056 186.384ZM301.533 189.168C300.349 189.168 299.269 188.888 298.293 188.328C297.333 187.752 296.573 186.976 296.013 186C295.453 185.024 295.173 183.936 295.173 182.736C295.173 181.536 295.453 180.456 296.013 179.496C296.589 178.52 297.365 177.752 298.341 177.192C299.317 176.616 300.413 176.328 301.629 176.328C302.893 176.328 304.029 176.656 305.037 177.312V172.2L308.325 171.648V189H305.085V187.968C304.061 188.768 302.877 189.168 301.533 189.168ZM302.061 186.36C302.669 186.36 303.221 186.264 303.717 186.072C304.229 185.864 304.669 185.56 305.037 185.16V180.288C304.669 179.92 304.229 179.632 303.717 179.424C303.205 179.216 302.653 179.112 302.061 179.112C301.373 179.112 300.749 179.272 300.189 179.592C299.645 179.896 299.213 180.328 298.893 180.888C298.573 181.432 298.413 182.048 298.413 182.736C298.413 183.424 298.573 184.04 298.893 184.584C299.213 185.128 299.645 185.56 300.189 185.88C300.749 186.2 301.373 186.36 302.061 186.36ZM314.874 189.216C313.978 189.216 313.186 189.056 312.498 188.736C311.81 188.4 311.274 187.944 310.89 187.368C310.506 186.792 310.314 186.128 310.314 185.376C310.314 184.176 310.762 183.248 311.658 182.592C312.57 181.92 313.818 181.584 315.402 181.584C316.49 181.584 317.514 181.752 318.474 182.088V181.176C318.474 179.72 317.594 178.992 315.834 178.992C315.306 178.992 314.738 179.08 314.13 179.256C313.522 179.416 312.818 179.672 312.018 180.024L310.818 177.6C311.81 177.152 312.754 176.816 313.65 176.592C314.562 176.368 315.474 176.256 316.386 176.256C318.066 176.256 319.37 176.664 320.298 177.48C321.242 178.28 321.714 179.416 321.714 180.888V189H318.474V188.112C317.962 188.496 317.41 188.776 316.818 188.952C316.226 189.128 315.578 189.216 314.874 189.216ZM313.434 185.304C313.434 185.784 313.642 186.168 314.058 186.456C314.474 186.728 315.026 186.864 315.714 186.864C316.818 186.864 317.738 186.592 318.474 186.048V184.224C317.674 183.904 316.794 183.744 315.834 183.744C315.082 183.744 314.49 183.888 314.058 184.176C313.642 184.448 313.434 184.824 313.434 185.304ZM325.192 194.16C324.904 194.16 324.624 194.144 324.352 194.112C324.096 194.096 323.88 194.072 323.704 194.04V191.208C324.024 191.272 324.408 191.304 324.856 191.304C326.056 191.304 326.888 190.736 327.352 189.6L327.544 189.12L322.672 176.496H326.296L329.416 185.016L332.944 176.496H336.496L330.736 190.008C330.304 191.016 329.832 191.824 329.32 192.432C328.808 193.04 328.216 193.48 327.544 193.752C326.888 194.024 326.104 194.16 325.192 194.16ZM341.101 183.888C341.069 183.152 341.101 182.528 341.197 182.016C341.293 181.504 341.485 181.048 341.773 180.648C342.061 180.232 342.453 179.84 342.949 179.472L344.197 178.584C344.693 178.216 345.045 177.88 345.253 177.576C345.477 177.256 345.589 176.928 345.589 176.592C345.589 176.224 345.477 175.904 345.253 175.632C345.029 175.344 344.725 175.12 344.341 174.96C343.957 174.784 343.517 174.696 343.021 174.696C342.301 174.696 341.637 174.88 341.029 175.248C340.421 175.616 339.957 176.112 339.637 176.736L336.997 175.632C337.349 174.864 337.829 174.208 338.437 173.664C339.045 173.12 339.749 172.696 340.549 172.392C341.365 172.088 342.229 171.936 343.141 171.936C344.229 171.936 345.197 172.136 346.045 172.536C346.893 172.92 347.565 173.448 348.061 174.12C348.557 174.792 348.805 175.56 348.805 176.424C348.805 177 348.709 177.52 348.517 177.984C348.341 178.432 348.037 178.872 347.605 179.304C347.173 179.736 346.581 180.208 345.829 180.72L345.181 181.176C344.669 181.512 344.309 181.888 344.101 182.304C343.909 182.72 343.829 183.248 343.861 183.888H341.101ZM342.493 189.24C341.965 189.24 341.509 189.048 341.125 188.664C340.741 188.28 340.549 187.824 340.549 187.296C340.549 186.752 340.741 186.288 341.125 185.904C341.509 185.52 341.965 185.328 342.493 185.328C343.021 185.328 343.477 185.52 343.861 185.904C344.245 186.288 344.437 186.752 344.437 187.296C344.437 187.824 344.245 188.28 343.861 188.664C343.477 189.048 343.021 189.24 342.493 189.24Z" fill="#151515"/>
</g>
</g>
</g>
<defs>
<filter id="filter0_d_769_67300" x="531" y="8" width="520" height="393" filterUnits="userSpaceOnUse" color-interpolation-filters="sRGB">
<feFlood flood-opacity="0" result="BackgroundImageFix"/>
<feColorMatrix in="SourceAlpha" type="matrix" values="0 0 0 0 0 0 0 0 0 0 0 0 0 0 0 0 0 0 127 0" result="hardAlpha"/>
<feOffset dy="10"/>
<feGaussianBlur stdDeviation="10"/>
<feColorMatrix type="matrix" values="0 0 0 0 0.160784 0 0 0 0 0.160784 0 0 0 0 0.160784 0 0 0 0.15 0"/>
<feBlend mode="normal" in2="BackgroundImageFix" result="effect1_dropShadow_769_67300"/>
<feBlend mode="normal" in="SourceGraphic" in2="effect1_dropShadow_769_67300" result="shape"/>
</filter>
<filter id="filter1_d_769_67300" x="12" y="8" width="520" height="393" filterUnits="userSpaceOnUse" color-interpolation-filters="sRGB">
<feFlood flood-opacity="0" result="BackgroundImageFix"/>
<feColorMatrix in="SourceAlpha" type="matrix" values="0 0 0 0 0 0 0 0 0 0 0 0 0 0 0 0 0 0 127 0" result="hardAlpha"/>
<feOffset dy="10"/>
<feGaussianBlur stdDeviation="10"/>
<feColorMatrix type="matrix" values="0 0 0 0 0.160784 0 0 0 0 0.160784 0 0 0 0 0.160784 0 0 0 0.15 0"/>
<feBlend mode="normal" in2="BackgroundImageFix" result="effect1_dropShadow_769_67300"/>
<feBlend mode="normal" in="SourceGraphic" in2="effect1_dropShadow_769_67300" result="shape"/>
</filter>
<linearGradient id="paint0_linear_769_67300" x1="2131.07" y1="43.8043" x2="327.244" y2="3050.17" gradientUnits="userSpaceOnUse">
<stop stop-color="#2B9AF3"/>
<stop offset="1" stop-color="#73BCF7" stop-opacity="0.502213"/>
</linearGradient>
<linearGradient id="paint1_linear_769_67300" x1="675.196" y1="-1412.07" x2="-2331.17" y2="391.756" gradientUnits="userSpaceOnUse">
<stop stop-color="#2B9AF3"/>
<stop offset="1" stop-color="#73BCF7" stop-opacity="0.502213"/>
</linearGradient>
<linearGradient id="paint2_linear_769_67300" x1="1612.07" y1="43.8043" x2="-191.756" y2="3050.17" gradientUnits="userSpaceOnUse">
<stop stop-color="#2B9AF3"/>
<stop offset="1" stop-color="#73BCF7" stop-opacity="0.502213"/>
</linearGradient>
<linearGradient id="paint3_linear_769_67300" x1="156.196" y1="-1412.07" x2="-2850.17" y2="391.756" gradientUnits="userSpaceOnUse">
<stop stop-color="#2B9AF3"/>
<stop offset="1" stop-color="#73BCF7" stop-opacity="0.502213"/>
</linearGradient>
<clipPath id="clip0_769_67300">
<rect width="1062" height="206" fill="white"/>
</clipPath>
<clipPath id="clip1_769_67300">
<path d="M551 34C551 25.1634 558.163 18 567 18H1015C1023.84 18 1031 25.1634 1031 34V355C1031 363.837 1023.84 371 1015 371H567C558.163 371 551 363.837 551 355V34Z" fill="white"/>
</clipPath>
<clipPath id="clip2_769_67300">
<path d="M32 34C32 25.1634 39.1634 18 48 18H496C504.837 18 512 25.1634 512 34V355C512 363.837 504.837 371 496 371H48C39.1635 371 32 363.837 32 355V34Z" fill="white"/>
</clipPath>
</defs>
</svg>
