<svg width="24" height="25" viewBox="0 0 24 25" fill="none" xmlns="http://www.w3.org/2000/svg">
<path d="M0 12.5C0 5.87258 5.37258 0.5 12 0.5C18.6274 0.5 24 5.87258 24 12.5C24 19.1274 18.6274 24.5 12 24.5C5.37258 24.5 0 19.1274 0 12.5Z" fill="#37A3A3"/>
<g clip-path="url(#clip0_4091_2764)">
<path d="M8.25 8.75C8.25 7.92266 8.92266 7.25 9.75 7.25H12C14.0719 7.25 15.75 8.92812 15.75 11C15.75 13.0719 14.0719 14.75 12 14.75H9.75V17C9.75 17.4148 9.41484 17.75 9 17.75C8.58516 17.75 8.25 17.4148 8.25 17V14V8.75ZM9.75 13.25H12C13.2422 13.25 14.25 12.2422 14.25 11C14.25 9.75781 13.2422 8.75 12 8.75H9.75V13.25Z" fill="white"/>
</g>
<defs>
<clipPath id="clip0_4091_2764">
<rect width="7.5" height="12" fill="white" transform="translate(8.25 6.5)"/>
</clipPath>
</defs>
</svg>
